<?xml version="1.0" encoding="UTF-8"?>
<!DOCTYPE svg PUBLIC "-//W3C//DTD SVG 1.1//EN" "http://www.w3.org/Graphics/SVG/1.1/DTD/svg11.dtd">
<!-- Creator: CorelDRAW -->
<svg xmlns="http://www.w3.org/2000/svg" xml:space="preserve" width="0.387689in" height="0.672748in" shape-rendering="geometricPrecision" text-rendering="geometricPrecision" image-rendering="optimizeQuality" fill-rule="evenodd" clip-rule="evenodd"
viewBox="0 0 0.00407258 0.00706706"
 xmlns:xlink="http://www.w3.org/1999/xlink">
 <g id="Layer_x0020_1">
  <metadata id="CorelCorpID_0Corel-Layer"/>
  <path fill="#FEFEFE" stroke="#373435" stroke-width="4.37561e-005" d="M0.00155379 0.00486069c0,0 -3.43679e-005,0.000127546 -1.96447e-005,0.000179077 1.47646e-005,5.15726e-005 0.000198722,7.3616e-005 0.000215927,-2.94051e-005 1.71633e-005,-0.000103021 -9.80169e-006,-0.000164395 -9.80169e-006,-0.000164395l-0.00018648 1.47232e-005z"/>
  <path fill="#FEFEFE" stroke="#373435" stroke-width="4.37561e-005" d="M0.000933145 0.00674737c0,0 0.000144792,-0.000215844 0.000169317,-0.000267375 2.45249e-005,-5.15312e-005 5.88515e-005,-0.000107984 5.88515e-005,-0.000107984l0.000171716 4.88016e-006c0,0 -0.000269857,0.000490705 -0.000340991,0.000527513 -7.1176e-005,3.6808e-005 -5.88928e-005,-0.000157034 -5.88928e-005,-0.000157034z"/>
  <path fill="#FEFEFE" stroke="#373435" stroke-width="4.37561e-005" d="M0.00136984 0.00638433c0,0 0.000164354,0.000407246 0.000220807,0.000431812 5.64528e-005,2.45663e-005 0.000147191,-7.3616e-005 0.000120226,-0.000122666 -2.70063e-005,-4.90498e-005 -0.000215927,-0.000377799 -0.000215927,-0.000377799l-0.000125106 6.86532e-005z"/>
  <path fill="#FEFEFE" stroke="#373435" stroke-width="4.37561e-005" d="M0.000569656 0.00619045l0.000105751 -9.08621e-005 0.000529663 0.000137472 0.000341033 -9.07793e-005 0.000444095 -0.000161955c0,0 4.6527e-005,4.66097e-005 0.000125065,0.000120226 0,0 -8.34591e-005,-4.13573e-008 -0.000112906,6.86945e-005 -2.94051e-005,6.86945e-005 -0.000147149,4.90498e-005 -0.000188879,8.09363e-005 -4.16882e-005,3.19279e-005 -0.000134949,0.000134949 -0.00019136,0.000115346 -5.64528e-005,-1.96447e-005 -5.90583e-005,8.97454e-006 -0.000142311,4.41283e-005 -8.32109e-005,3.51537e-005 -0.000164313,-7.32025e-006 -0.000228127,1.72046e-005 -6.38144e-005,2.45249e-005 -0.000201203,3.92481e-005 -0.00023065,-2.48144e-006 -2.94051e-005,-4.16882e-005 -8.33764e-005,-2.20848e-005 -0.000166794,-3.18865e-005 -8.34177e-005,-9.80169e-006 -8.09363e-005,-3.43266e-005 -0.000103021,-6.86945e-005 -2.21262e-005,-3.43266e-005 -0.000108025,-1.96447e-005 -0.000144792,-7.84962e-005 -3.67667e-005,-5.88515e-005 -3.67667e-005,-5.88515e-005 -3.67667e-005,-5.88515e-005z"/>
  <path fill="#FEFEFE" stroke="#373435" stroke-width="4.37561e-005" d="M0.00203011 0.0047972c2.82471e-005,3.25896e-005 -0.000417089,0.000186439 -0.000908083,2.92396e-005 -0.000490994,-0.000157199 -0.00020323,-0.000855973 -0.00020323,-0.000855973 0,0 0.000248682,-0.000570566 0.000459645,-0.000545999 0.000210964,2.45663e-005 0.000809611,0.000264976 0.000839057,0.0002797 2.94051e-005,1.47232e-005 0.000255092,0.000314068 0.000235489,0.000343514 -1.96447e-005,2.94051e-005 2.44835e-005,0.000206042 -2.45249e-005,0.000309105 -4.90498e-005,0.000103021 -0.00015662,7.80413e-005 -0.000179119,0.000186356 -2.2457e-005,0.000108273 -0.000219235,0.000254058 -0.000219235,0.000254058z"/>
  <path fill="#ED3237" stroke="#373435" stroke-width="4.37561e-005" d="M0.000967348 0.00675481c0,0 -2.94051e-005,-0.000134908 -0.000137389,-0.000125106 -0.000107943,9.80169e-006 -6.87359e-005,0.00024041 1.71633e-005,0.000358196 8.58992e-005,0.000117744 0.000197316,2.90742e-005 0.00018892,-4.41696e-005 -8.39554e-006,-7.32025e-005 -6.86945e-005,-0.00018892 -6.86945e-005,-0.00018892z"/>
  <path fill="#ED3237" stroke="#373435" stroke-width="4.37561e-005" d="M0.00165181 0.00667635c0,0 -0.000142352,8.83393e-005 -0.000171757,0.00023553 -2.94464e-005,0.000147191 5.637e-005,0.000196282 0.000203602,-2.20848e-005 0.000147232,-0.000218367 4.16882e-005,-0.000269898 -3.18451e-005,-0.000213445z"/>
  <path fill="#ED3237" stroke="#373435" stroke-width="4.37561e-005" d="M0.000675407 0.00609959c0,0 0.000510225,-0.00071147 0.0005838,-0.000888107 7.35747e-005,-0.000176637 0.00015691,-0.00019136 0.000394962,-0.000169317 0.000238011,2.20848e-005 0.000306623,3.92895e-005 0.000213404,0.0002797 -9.32608e-005,0.00024041 -6.87772e-005,0.000461258 0.000122624,0.000662462 0,0 -0.00066242,0.000583883 -0.00131479,0.000115263z"/>
  <path fill="#373435" d="M0.00164644 0.00545172l-0.000223247 -0.00023309c0,0 -9.56181e-005,-4.16468e-005 -0.000186439,9.32608e-005 -9.07793e-005,0.000134908 -0.000127546,0.000250253 -4.16882e-005,0.000363076 0,0 8.40794e-005,5.18621e-005 0.00013772,-1.69979e-005 0,0 0.00011001,0.000178912 0.000240038,0.000220641 0,0 -0.000137389,-0.000152112 -0.000107901,-0.000208524 2.94464e-005,-5.64528e-005 4.41283e-005,-7.85789e-005 4.16882e-005,-0.000125147 -2.44008e-006,-4.66097e-005 -1.47232e-005,-0.000157034 0.000139829,-9.32194e-005z"/>
  <path fill="#FEFEFE" stroke="#373435" stroke-width="1.45578e-005" d="M0.00139378 0.0052554c0,0 -0.000129986,2.5228e-006 -0.000198722,0.000191402 -6.87359e-005,0.000188879 4.4211e-005,0.000274778 0.000137389,0.000164354 9.32194e-005,-0.000110424 0.000164106,-0.00031597 6.13329e-005,-0.000355756z"/>
  <path fill="#373435" d="M0.00147216 0.00223768l-0.000137389 0.000971525c0,0 -2.15472e-005,9.11102e-005 -5.48812e-005,0.000241692l0.00023888 -2.31601e-005c2.21262e-005,-6.54273e-005 4.57826e-005,-0.000125726 7.1176e-005,-0.000179408l6.87772e-005 -0.000274282 0.000127339 -0.000677681 0.00167807 0.000284621 0.000343514 -0.000147232 0.000264935 -0.00184495 -0.00350338 -0.000588804 -0.000294423 0.000176596 -0.000274778 0.00178602 0.00147216 0.000275068zm-0.000450257 0.00254261c-9.20614e-005,0.000571021 -0.000151575,0.0011377 -8.16807e-005,0.00138799 0,0 0.000199301,-0.000238797 0.000271883,-0.000378213 0,0 9.8844e-006,-0.000409189 5.54188e-005,-0.000915486 -0.000122128,-2.79576e-005 -0.000210592,-7.40296e-005 -0.000245621,-9.42947e-005z"/>
  <path fill="#373435" d="M0.000763001 0.00558866c0,0 6.74538e-005,-0.000218863 0.000134949,-0.000321388 6.74538e-005,-0.000102566 0.000142228,-0.00013987 0.000230567,-9.81409e-005 8.83393e-005,4.16882e-005 8.21357e-005,3.05217e-005 7.60561e-005,9.31781e-005 -6.03817e-006,6.26564e-005 -7.35747e-005,0.000309146 -0.000129986,0.000348394 -5.64528e-005,3.92481e-005 -0.000247813,3.6808e-005 -0.000311586,-2.20435e-005z"/>
  <path fill="#FEFEFE" stroke="#373435" stroke-width="1.45578e-005" d="M0.00108683 0.00520341c0,0 -0.000139788,-2.6965e-005 -0.0001938,0.000147232 -5.39713e-005,0.000174197 9.42947e-005,0.00019136 0.000169276,0.000132468 7.49808e-005,-5.88928e-005 0.000196902,-0.000271635 2.45249e-005,-0.0002797z"/>
  <path fill="#373435" d="M0.000637606 0.00429215c0,0 5.88928e-005,-0.000608408 0.000480862,-0.000765441 0,0 -0.000225728,0.00019136 -0.000255175,0.000628052 0,0 0.000299344,-0.000593726 0.000559399,-0.000632974 0,0 -0.000269898,0.000343473 0.000147149,0.000603527 0,0 -3.43266e-005,-0.000186397 5.15726e-005,-0.000225687 0,0 5.89342e-005,0.000399925 0.000338634,0.000311586 0,0 -7.84962e-005,-9.56595e-005 -1.96447e-005,-0.000171716 0,0 0.000240493,0.000267375 0.00022577,0.000404764 -1.47232e-005,0.000137389 -6.87772e-005,0.000274737 -0.000265018,0.000392522 0,0 0.000132468,0.000161955 0.000161914,0.000225728 0,0 -2.94051e-005,-0.000142269 9.84304e-006,-0.000196282 3.92481e-005,-5.39713e-005 0.000122624,-7.84135e-005 0.000220765,-0.00010298 9.81409e-005,-2.45663e-005 0.000250212,-0.000137389 0.0002797,-0.000579003 2.94464e-005,-0.000441572 -5.40127e-005,-0.000632974 -5.40127e-005,-0.000632974 0,0 0.000323828,-0.000176637 0.000358196,0.000544635 0,0 0.00040249,-0.000402324 1.97688e-005,-0.000819413 0,0 0.000132509,-6.86945e-005 0.000255133,0.000137389 0,0 -4.13573e-008,-0.000421969 -0.000525031,-0.000387601 0,0 -0.000210964,3.92481e-005 -0.000210964,0.0002797 0,0 -0.000549722,-0.000618499 -0.00132989,-0.000167042 0,0 -0.000490663,0.00023553 -0.000448975,0.00115321z"/>
  <path fill="#373435" d="M0.000786658 0.0044266c0,0 0.000206001,-1.14973e-005 0.00025017,6.65439e-005 4.4211e-005,7.79999e-005 -0.000196199,2.2333e-006 -0.000235489,-1.3772e-005 -3.92481e-005,-1.60466e-005 -3.43266e-005,-3.67253e-005 -1.46819e-005,-5.2772e-005z"/>
  <path fill="#373435" d="M0.00177278 0.00457908c0,0 -2.44008e-006,4.66511e-005 0.000122707,7.84962e-005 0.000125106,3.18865e-005 0.000129945,-2.48144e-006 0.000117703,-2.45663e-005 -1.22418e-005,-2.20435e-005 -0.000245332,-0.000105461 -0.00024041,-5.393e-005z"/>
  <path fill="none" stroke="#373435" stroke-width="5.83552e-005" stroke-linecap="round" d="M0.000999979 0.00414967c0,0 0.000267003,-0.000235654 0.000255175,0.000107943"/>
  <path fill="none" stroke="#373435" stroke-width="5.83552e-005" stroke-linecap="round" d="M0.0016526 0.00440485c0,0 5.88928e-005,-0.000169276 0.000198722,-0.000107943 0.000139829,6.13329e-005 3.19279e-005,0.000198722 3.19279e-005,0.000198722"/>
  <path fill="#FEFEFE" d="M0.00225579 0.00436539c0,0 1.46819e-005,0.000215927 -5.39713e-005,0.000348435 0,0 0.000139705,5.04973e-005 0.000247813,-0.000166877 0,0 4.16882e-005,-0.000198722 -0.000193842,-0.000181559z"/>
  <path fill="#FEFEFE" stroke="#373435" stroke-width="4.37561e-005" d="M0.00124333 0.00460121l0.000299303 0.000107943c0,0 6.13329e-005,2.44008e-006 7.32025e-006,8.82979e-005 -5.39713e-005,8.58578e-005 -0.000233173,0.000360677 -0.000355838,0.000326309 -0.000122624,-3.43679e-005 -5.39713e-005,-0.000500465 -5.39713e-005,-0.000500465 0,0 -4.13573e-008,-6.87359e-005 0.000103187,-2.20848e-005z"/>
  <path fill="#FEFEFE" fill-rule="nonzero" d="M0.00156707 0.00169946c-3.83382e-005,0 -6.36489e-005,-9.92576e-006 -7.59734e-005,-2.97773e-005 -1.22831e-005,-1.98515e-005 -1.84454e-005,-3.93308e-005 -1.84454e-005,-5.84793e-005 0,-5.3351e-005 1.12492e-005,-0.000115635 3.38717e-005,-0.00018677 2.25811e-005,-7.11346e-005 5.02492e-005,-0.000141938 8.31282e-005,-0.00021237 3.28377e-005,-7.04729e-005 6.70402e-005,-0.000135859 0.000102608,-0.000196034 3.55673e-005,-6.01749e-005 6.56341e-005,-0.000106702 9.0283e-005,-0.00013954l-4.09438e-006 0c-3.14729e-005,2.87433e-005 -6.46829e-005,5.5088e-005 -9.95471e-005,7.89925e-005 -3.49056e-005,2.39459e-005 -7.21685e-005,3.59395e-005 -0.00011183,3.59395e-005 -9.5949e-006,0 -1.88176e-005,-4.46659e-006 -2.77094e-005,-1.33584e-005 -8.89183e-006,-8.89183e-006 -1.33584e-005,-2.2912e-005 -1.33584e-005,-4.20604e-005 4.78918e-005,-9.5949e-006 8.82565e-005,-2.49385e-005 0.000121094,-4.61961e-005 3.28377e-005,-2.12163e-005 6.12088e-005,-4.2019e-005 8.51547e-005,-6.25736e-005 2.39459e-005,-2.05546e-005 4.48313e-005,-3.86277e-005 6.2615e-005,-5.43849e-005 1.77837e-005,-1.57158e-005 3.55673e-005,-2.3615e-005 5.3351e-005,-2.3615e-005 2.60138e-005,0 5.02905e-005,7.19618e-006 7.28303e-005,2.15885e-005 2.25811e-005,1.4351e-005 3.3913e-005,3.03976e-005 3.3913e-005,4.82226e-005 0,1.50541e-005 -3.47402e-006,2.83711e-005 -1.0298e-005,3.99925e-005 -6.82396e-006,1.16214e-005 -1.29862e-005,2.22089e-005 -1.84454e-005,3.18038e-005 -3.14729e-005,5.19862e-005 -6.36489e-005,0.000109142 -9.64866e-005,0.000171385 -3.27964e-005,6.22428e-005 -6.2615e-005,0.00012585 -8.92491e-005,0.000190864 -2.67168e-005,6.49724e-005 -4.89257e-005,0.00012858 -6.67094e-005,0.000190864 -1.77837e-005,6.22428e-005 -2.66755e-005,0.000119357 -2.66755e-005,0.000171343 0,2.8702e-005 -8.89183e-006,4.99597e-005 -2.66755e-005,6.36076e-005 -1.77837e-005,1.36893e-005 -3.55673e-005,2.05546e-005 -5.3351e-005,2.05546e-005zm0.000184702 0.000176513c0,-6.29872e-005 1.53849e-005,-0.000124899 4.61548e-005,-0.000185736 3.08112e-005,-6.09193e-005 6.94803e-005,-0.000119399 0.000115966,-0.000175521 4.6527e-005,-5.60805e-005 9.78514e-005,-0.000109431 0.000153932,-0.000160053 5.60805e-005,-5.06214e-005 0.000109431,-9.74792e-005 0.000160053,-0.000140574 5.06627e-005,-4.31357e-005 9.54527e-005,-8.14326e-005 0.000134453,-0.000114932 3.89586e-005,-3.35408e-005 6.46415e-005,-6.12502e-005 7.6966e-005,-8.31282e-005 -1.09597e-005,-9.55354e-006 -2.67168e-005,-2.22502e-005 -4.72301e-005,-3.7966e-005 -2.05132e-005,-1.57158e-005 -4.78918e-005,-3.11421e-005 -8.20529e-005,-4.61961e-005 -3.42025e-005,-1.50541e-005 -7.53117e-005,-2.76681e-005 -0.000123162,-3.79247e-005 -4.78918e-005,-1.0298e-005 -0.000103311,-1.54263e-005 -0.000166256,-1.54263e-005 0,-9.16478e-005 4.51622e-005,-0.000137472 0.000135487,-0.000137472 6.01749e-005,0 0.00011456,6.16224e-006 0.000163155,1.84867e-005 4.85535e-005,1.22831e-005 9.0283e-005,2.83711e-005 0.000125189,4.82226e-005 3.49056e-005,1.98102e-005 6.15397e-005,4.16882e-005 8.00264e-005,6.56754e-005 1.84454e-005,2.39459e-005 2.77094e-005,4.82226e-005 2.77094e-005,7.28303e-005 0,2.1878e-005 -1.64602e-005,5.37232e-005 -4.92979e-005,9.54527e-005 -3.27964e-005,4.16882e-005 -7.3492e-005,8.958e-005 -0.000122087,0.000143634 -4.85535e-005,5.4054e-005 -0.000101243,0.000113567 -0.000158026,0.00017854 -5.67836e-005,6.50137e-005 -0.000109431,0.000131682 -0.000158026,0.000200128 -4.85949e-005,6.8405e-005 -8.92491e-005,0.000137513 -0.000122087,0.000207283 -3.28377e-005,6.97698e-005 -4.92566e-005,0.000136769 -4.92566e-005,0.000201079 -1.64189e-005,0 -3.28377e-005,-1.69565e-006 -4.92566e-005,-5.12831e-006 -1.64189e-005,-3.3913e-006 -3.14729e-005,-9.22268e-006 -4.51622e-005,-1.74114e-005 -1.36893e-005,-8.23011e-006 -2.49385e-005,-1.84867e-005 -3.38717e-005,-3.08112e-005 -8.85047e-006,-1.23245e-005 -1.33171e-005,-2.66755e-005 -1.33171e-005,-4.3053e-005z"/>
 </g>
</svg>
