<?xml version="1.0" encoding="utf-8"?>
<!-- Generator: Adobe Illustrator 14.0.0, SVG Export Plug-In . SVG Version: 6.00 Build 43363)  -->
<!DOCTYPE svg PUBLIC "-//W3C//DTD SVG 1.0//EN" "http://www.w3.org/TR/2001/REC-SVG-20010904/DTD/svg10.dtd">
<svg version="1.0" id="Layer_1" xmlns="http://www.w3.org/2000/svg" xmlns:xlink="http://www.w3.org/1999/xlink" x="0px" y="0px"
	 width="612px" height="792px" viewBox="0 0 612 792" enable-background="new 0 0 612 792" xml:space="preserve">
<g>
	<path fill-rule="evenodd" clip-rule="evenodd" fill="#9A6B38" d="M365.5,165.34c-4.348-2.336-9.025-5.695-14.361-5.665
		c-3.576,0.02-14.553,6.334-17.799,8.545c-18.262,12.434-32.066,32.514-47.039,45.12c0.276-4.277,20.026-28.096,23.039-31.68
		c8.551-10.165,18.711-16.826,29.973-24c-15.359-2.294-39.193-0.471-52.65,2.215c11.981-7.547,47.81-9.563,62.039-10.375
		c1.721-0.357,8.723,5.507,10.08,6.72C361.803,158.92,364.336,162.028,365.5,165.34L365.5,165.34z"/>
	<path fill-rule="evenodd" clip-rule="evenodd" fill="#9A6B38" d="M396.701,171.754c2.268,16.389,4.219,41.736,0.48,59.346
		c-1.525,7.182-4.75,14.496-7.201,21.12c-2.574,6.96-7.635,14.224-8.16,19.68c-0.68,7.075,4.285,12.497,4.801,18.24
		c-8.059-7.782-13.535-18.85-13.92-33.6c1.994,2.954,3.029,6.165,5.279,8.159c10.916-21.566,16.75-57.177,11.52-87.36
		c-3.154-1.681-11.436-2.449-16.318-2.399c2.756-1.771,8.145-4.84,11.307-6.26C387.693,169.581,391.654,170.359,396.701,171.754
		L396.701,171.754z"/>
	<path fill-rule="evenodd" clip-rule="evenodd" fill="#9A6B38" d="M365.021,176.86c-26.141,2.604-39.652,17.527-55.682,31.68
		c-4.893,4.321-10.073,10.961-15.359,13.44c-4.425,2.075-9.992,1.636-14.937,2.761c-11.248,2.56-12.388,14.991-19.143,22.68
		c-3.582,3.597-15.611,10.59-20.64,13.919c1.101-3.46,15.746-13.78,18.24-17.28c5.954-7.511,7.242-18.883,17.76-22.56
		c4.889-1.709,10.481-0.058,16.32-2.88c3.778-1.826,7.148-6.689,11.04-10.56c9.428-9.379,27.885-29.164,40.745-32.959
		C346.885,174.062,359.719,174.255,365.021,176.86L365.021,176.86z"/>
	<path fill-rule="evenodd" clip-rule="evenodd" fill="#9A6B38" d="M371.26,232.54c0.691-7.311,3.447-17.663,3.65-25.92
		c-4.408,2.395-8.23,5.074-13.729,8.16c-1.922,8.374-1.842,19.915,0,28.32c-14.877,2.44-20.598,24.065-13.441,38.4
		c-1.961,0.459-4.842-3.853-6.24-6.72c-4.559-9.359-2.83-21.905,1.996-30.164c2.436-4.166,5.908-7.189,10.004-9.676
		c0.066-4.108-2.646-10.601,0.201-18.039c-4.051,1.513-17.252,4.992-21.131,7.01c-2.053,6.232,3.098,10.549,8.26,11.92
		c-7.584,3.683-11.947-3.865-13.73-10.971c-8.043,2.517-16.141,4.978-23.039,8.64c2.72,13.12,12.824,18.855,25.439,22.08
		c-15.418,2.438-26.421-7.803-33.119-17.28c-12.886,15.275-21.164,35.157-33.6,50.88c0.907-8.239,10.292-17.368,10.56-25.92
		c-0.279-4.735-4.843-6.767-6.24-11.52c8.117-2.763,12.894-8.866,14.88-17.76c15.566-4.888,32.688-11.62,49.92-17.76
		c17.117-6.099,36.699-10.684,47.129-23.23C382.076,201.311,372.826,229.43,371.26,232.54L371.26,232.54z"/>
	<path fill-rule="evenodd" clip-rule="evenodd" fill="#F79239" d="M257.731,226.799c-18.097-7.892-37.665-4.97-47.75,5.741
		c-16.727,17.765-11.68,48.66,9.739,59.875c12.833,6.719,24.352,4.268,32.981,1.315c-21.547,20.508-62.05,25.971-103.295,24.077
		c25.518-3.763,52.424-5.483,72.575-17.107c-14.395-5.227-30.72-17.475-32.16-35.04c-1.486-18.13,5.471-32.503,19.2-41.76
		c-27.798-2.726-52.918,4.042-73.521,11.682C161.406,217.942,224.58,200.532,257.731,226.799L257.731,226.799z"/>
	<path fill-rule="evenodd" clip-rule="evenodd" fill="#9A6B38" d="M262.391,256.174c-4.877,8.083-12.674,13.701-20.25,19.086
		c3.257-5.395,11.471-12.214,17.443-18.882C260.358,256.243,261.549,255.92,262.391,256.174L262.391,256.174z"/>
	<path fill-rule="evenodd" clip-rule="evenodd" fill="#7B7EBC" d="M333.34,260.86c0.895,12.714,4.676,26.383,12.711,37.265
		c4.912,6.652,23.438,20.282,38.189,22.717c8.275,1.367,16.416-0.999,17.74-9.582c2.498-16.188-10.666-32.27-15.359-39.36
		c5.441,1.898,15.537,12.135,19.832,16.89c16.703,18.49,28.498,42.817,30.568,75.75c0.545,8.678,0.65,17.237-0.48,26.4
		c-4.271-18.45-13.408-32.032-22.561-45.6c6.369,3.244,9.766,7.925,14.881,12.731c-0.561-33.508-12.543-56.632-31.201-73.691
		c5.447,8.467,16.766,29.217,6.24,40.32c-12.48,13.167-38.379-4.116-47.52-11.52c-10.787-8.738-18.143-19.41-22.08-29.28
		c-3.328,8.992-5.398,19.243-5.76,31.2C323.051,298.046,327.539,274.174,333.34,260.86L333.34,260.86z"/>
	<path fill-rule="evenodd" clip-rule="evenodd" fill="#9A6B38" d="M265.913,261.454c0.558-0.079,1.538,0.333,1.644,0.708
		c-4.384,9.146-9.715,16.319-15.816,23.178C255.568,276.368,260.818,269.159,265.913,261.454L265.913,261.454z"/>
	<path fill-rule="evenodd" clip-rule="evenodd" fill="#7B7EBC" d="M355.9,342.46c-6.137,6.246-15.723,6.484-20.641,5.76
		c3.293,2.574,10.717,10.693,17.281,11.52c6.678-0.804,19.082-5.203,34.08-1.44c-13.668,3.612-28.629,5.931-36.48,15.36
		c16.65-2.511,38.041-1.75,50.4,4.32c-16.289-1.617-32.561,2.647-40.801,12c19.186-1.02,38.498,0.889,54.24,6.719
		c-20.74-0.94-46.592-1.147-58.561,9.6c27.287-4.002,56.807,0.281,78.721,6.24c-1.803-4.758-8.115-7.561-9.6-11.039
		c10.498,4.541,18.41,11.668,24,21.119c-8.781-5.805-25.744-8.918-41.76-10.559c-3.971-0.408-10.754-1.854-12.961-0.961
		c-3.473,1.404-7.082,17.404-7.68,21.121c-3.467-4.135-2.453-15.34-1.094-20.467c-20.453-2.467-26.873,16.551-31.066,32.467
		c-3.412-7.408-0.596-19.777,1.439-26.4c-12.012,7.828-20.221,19.459-21.6,37.92c-3.445-10.516-0.111-24.488,3.359-32.641
		c-12.775-0.938-35.975-0.139-47.782-2.84c13.59-1.77,42.52-4.471,52.583-11.08c5.799-3.809,6.164-18.812,1.439-26.4
		c-21.932-2.004-46.759-0.16-67.679-4.8c21.73-2.27,44.517-3.484,62.88-9.12c-4.062-9.034-10.441-19.912-19.68-24.96
		c-9.959-5.439-26.492-4.982-39.361-2.4c9.74-6.432,21.048-8.471,33.121-6.72C326.91,336.841,338.559,347.54,355.9,342.46
		L355.9,342.46z"/>
	<path fill-rule="evenodd" clip-rule="evenodd" fill="#7B7EBC" d="M440.381,433.66c13,16.777,13.518,29.17,14.094,41.664
		c14.143,33.588,23.129,57.521,19.506,99.455c-12.375-20.744-32.818-33.42-59.039-40.318c23.045-0.166,36.945,8.812,51.359,17.279
		c0.715-15.48-2.533-46.588-11.773-64.432c-6.91-13.346-19.211-17.682-32.387-23.408c8.223-1.9,18.133,1.307,24.48,3.84
		C447.934,454.906,444.094,443.988,440.381,433.66L440.381,433.66z"/>
	<path fill-rule="evenodd" clip-rule="evenodd" fill="#F79239" d="M296.381,537.34c-3.713-4.834-11.444-19.953-17.76-20.641
		c-3.694-0.4-9.322,3.746-12,6.721c-2.124,2.361-2.617,6.967-4.8,8.641c-8.816,5.379-23.86,5.902-33.6,19.199
		c-2.043,2.729-3.611,6.928-3.359,11.52c11.779-2.68,25.038-9.855,42.239-7.199c-16.395,4.369-30.773,14.484-46.34,20.07
		c-14.929,5.355-68.464,8.426-83.399,3.432c10.247,0.094,69.439-4.688,78.379-11.982c2.042-2.477,0.898-7.492,2.4-11.039
		c9.868-22.121,31.222-20.896,39.84-27.84c1.378-1.287,0.973-3.596,1.92-5.281c3-5.338,12.257-11.482,19.68-13.816
		C288.139,510.217,296.495,534.355,296.381,537.34L296.381,537.34z"/>
	<path fill-rule="evenodd" clip-rule="evenodd" fill="#F79239" d="M297.341,545.5c-5.885,3.764-13.204,2.582-18.24,6.24
		c-5.997,4.357-4.935,11.82-5.812,21.34c-1.29-2.055-5.103-3.377-5.708-7.42c-0.785-5.246,4.062-14.986,7.68-17.279
		C281.178,544.627,289.109,546.783,297.341,545.5L297.341,545.5z"/>
	<path fill-rule="evenodd" clip-rule="evenodd" fill="#F79239" d="M351.58,570.939c1.512,4.629-3.756,10.357-2.879,15.361
		c1.26,7.188,11.066,9.793,16.799,13.174c-2.461,1.77-9.131,1.779-11.674,0.797c-3.486-1.346-8.662-7.012-9.445-9.652
		C342.008,582.641,349.43,577.152,351.58,570.939L351.58,570.939z"/>
	<path fill-rule="evenodd" clip-rule="evenodd" fill="#9A6B38" d="M470.621,595.9c1.775,8.697-5.43,23.832-14.215,24.186
		c-3.133-2.617-11.572-6.92-23.158-11.439c-21.205-8.273-51.844-17.281-72.547-18.027c20.668-2.814,49.881,1.4,73.916,8.951
		c8.012,2.518,15.152,5.109,21.604,8.33C462.963,607.512,467.6,600.822,470.621,595.9L470.621,595.9z"/>
	<path fill-rule="evenodd" clip-rule="evenodd" fill="#7B7EBC" d="M311.26,285.34c-6.146,9.274-6.584,27.67-1.92,38.88
		c-8.992-9.786-8.321-25.053-4.38-36.532c3.478-10.129,9.244-16.946,16.861-19.628c-1.447,4.448-4.285,10.661-5.17,17.49
		c-0.969,7.479,0.865,13.945,4.689,20.43C315.635,303.365,312.307,294.215,311.26,285.34L311.26,285.34z"/>
	<path fill-rule="evenodd" clip-rule="evenodd" fill="#9A6B38" d="M393.201,560.266c5.646-2.615,11.949-6.867,20.682-7.783
		c11.695-1.227,21.26,0.729,31.844,7.117c10.256,6.193,19.863,15.932,24.854,26.623c-10.527-12.082-20.17-23.508-41.719-27.283
		c-8.225-1.439-24.264-0.674-24.961,7.201c-0.877,9.91,11.191,14.512,16.453,18.145c-14.891-2.316-23.336-10.648-29.412-17.186
		c-6.197,0.828-28.949,3.363-36,2.881c0.086-1.193,0.047-2.266-0.104-3.234C366.932,564.662,389.418,561.5,393.201,560.266
		L393.201,560.266z"/>
	<path fill-rule="evenodd" clip-rule="evenodd" fill="#9A6B38" d="M302.141,586.301c-5.837-10.004-15.567-18.672-22.08-26.4
		c10.026,5.812,17.822,13.857,25.92,21.6C304.701,583.1,303.421,584.699,302.141,586.301L302.141,586.301z M325.66,608.381
		c2.367,8.193,5.602,15.461,9.121,23.357c4.301,1.025,10.244,2.754,14.398,3.041c6.85-4.107,20.408-26.973,23.521-36.479
		c-0.828,12.391-13.363,36.25-22.08,45.119c-8.451-0.209-15.887-2.561-20.641-4.801c-3.441-3.555-7.637-19.172-11.572-25.389
		C320.438,611.613,322.854,609.996,325.66,608.381L325.66,608.381z"/>
	<path fill-rule="evenodd" clip-rule="evenodd" fill="#F79239" d="M320.723,552.287c-2.477,5.83-4.182,11.393-5.143,18.174
		c-0.379,2.672-0.203,5.754-1.115,8.457c-1.639,4.863-9.486,11.018-13.284,16.021c-6.442,8.488-13.059,16.672-11.04,29.76
		c16.715-8.566,30.545-24.172,55.199-26.398c-6.25,3.668-14.617,5.223-19.68,10.08c-2.807,1.615-5.223,3.232-7.252,4.85
		c-11.191,5.264-17.133,16.908-26.99,22.029c-16.334,8.486-80.231,8.783-101.529,5.586c22.352-1.012,76.266-6.371,94.012-12.785
		c-5.42-18.514,10.171-30.557,18.24-41.76c1.28-1.602,2.56-3.201,3.84-4.801c2.85-3.854,3.082-6.207,3.84-10.08
		C311.322,563.754,315.76,557.215,320.723,552.287L320.723,552.287z"/>
	<path fill-rule="evenodd" clip-rule="evenodd" fill="#7B7EBC" d="M343.42,455.26c7.748,7.719,17.137,16,32.641,14.4
		c1.895,4.186,4.311,7.85,6.721,11.52c6.783,0.096,13.365,0.395,18.719,1.92c-4.654,2.545-12.035,2.363-16.799,4.801
		c0.092,6.652-1.373,11.746-1.441,18.24c14.889-1.209,28.758-1.676,41.281,0.959c1.838,0.387,4.908,0.336,5.76,2.4
		c-19.393-0.031-33.162,5.559-48,10.08c0.354,10.912-0.779,20.342-0.48,31.199c4.34,0.252,8.188,1.35,12.129,0.924
		c4.826-2.074,10.447-3.975,15.416-4.635c16.004-2.127,31.783,3.896,43.744,14.328c7.754,6.762,13.904,15.377,17.471,24.826
		c-4.99-10.691-14.598-20.43-24.854-26.623c-10.584-6.389-20.148-8.344-31.844-7.117c-8.732,0.916-15.035,5.168-20.682,7.783
		c-3.783,1.234-26.27,4.396-38.363,6.48c-0.016-0.068-0.035-0.213-0.053-0.307c-1.273-6.936-8.396-8.443-15.205-11.34
		c-5.725-2.436-11.502-3.15-15.359-5.279c-0.562-4.283-0.49-10.668-0.48-16.801c1.23-1.17,3.799-1,6.24-0.959
		c-5.188-6.176-7.658-21.143-2.746-30.24c-14.951-2.809-29.764-6.369-45.734-8.16c16.241-2.572,35.83-0.344,53.453-0.48
		c0.293-8.188-1.842-16.346-1.189-24.174c0.988,4.359,8.451,21.799,9.791,25.613c-3.482,1.598-8.602,7.891-10.467,15.234
		c-1.119,4.406-1.066,9.189,1.213,13.566c3.402,3.178,20.871,5.904,25.92,6.24c-5.416,3.506-13.225,2.775-20.641,3.359
		c4.381,3.578,19.307,6.293,30.721,7.201c1.047-5.701,1.146-14.816,0.959-20.16c-8.223-3.777-18.707-6.521-27.84-8.16
		c6.008-2.164,16.527-4.795,27.361-3.84c1.654-2.258,0.971-9.172,0.959-11.521c-4.922-1.797-11.574-1.863-17.76-2.398
		c3.467-2.773,9.574-2.908,14.881-3.84c-0.82-3.301,0.236-7.361-1.441-10.08C357.93,477.025,348.287,471.652,343.42,455.26
		L343.42,455.26z"/>
</g>
</svg>
