<?xml version="1.0" encoding="utf-8"?>
<!-- Generator: Adobe Illustrator 14.0.0, SVG Export Plug-In . SVG Version: 6.00 Build 43363)  -->
<!DOCTYPE svg PUBLIC "-//W3C//DTD SVG 1.0//EN" "http://www.w3.org/TR/2001/REC-SVG-20010904/DTD/svg10.dtd">
<svg version="1.0" id="Layer_1" xmlns="http://www.w3.org/2000/svg" xmlns:xlink="http://www.w3.org/1999/xlink" x="0px" y="0px"
	 width="612px" height="792px" viewBox="0 0 612 792" enable-background="new 0 0 612 792" xml:space="preserve">
<g>
	<path fill-rule="evenodd" clip-rule="evenodd" fill="#003B78" d="M212.954,318.187c1.792,6.553-5.21,7.318-4.802,11.405
		c0.254,2.55,10.146,8.482,14.406,8.403c5.714-0.106,7.887-6.354,12.004-6.603c-6.166,9.559-17.717,11.892-28.211,3.601
		c-1.833,4.359,3.995,6.102,7.203,7.803c3.27,1.734,8.099,4.849,11.405,4.802c8.885-0.126,14.325-13.258,22.809-13.206
		c-1.16,2.578-4.086,2.764-6.602,4.803c-5.685,4.604-10.154,14.723-16.807,15.606c-7.043,0.935-9.907-5.256-15.606-8.403
		c-7.638,11.54,6.158,19.335,7.203,31.213c-3.339-2.188-6.612-6.788-10.805-12.606c-2.533-3.516-7.381-8.932-7.202-12.005
		c0.32-5.516,10.275-8.754,4.201-15.006c3.425-2.324,0.506-6.013,1.201-9.003C204.455,324.231,209.254,321.302,212.954,318.187
		L212.954,318.187z M298.188,90.094c1.839,6.905-0.306,15.399-5.82,16.936c1.294-3.465,6.806-10.077,3.784-14.299
		c-1.272-1.777-4.382-1.552-6.262-0.134c-1.151,2.208-1.633,5.217-2.51,6.24c-2.101-4.523-0.831-12.883-4.198-15.72
		c-9.591-1.812-16.697-6.937-22.809-12.23c-7.587,4.217-10.954,12.655-21.008,14.406c-1.036,3.767-0.717,8.888-1.801,12.604
		c-2.094-1.797-1.306-3.607-3.001-6.002c-1.221-1.726-4.014-2.561-4.802-4.202c-3.159-6.585-2.036-18.825,1.249-28.252
		c4.938-12.165,15.793-15.942,29.364-11.364c-1.111-1.891-3.381-2.844-5.401-3.823c10.265-5.046,28.984,1.639,34.813,9.225
		c6.086,7.922,8.421,27.023,3.001,36.015c-0.115,0.486-0.602,0.599-0.601,1.2C293.37,89.721,296.555,88.761,298.188,90.094
		L298.188,90.094z M233.712,131.236c1.984-0.65,1.711-3.041,3.602-2.751c3.09,22.537,23.403,24.492,30.263,39.64
		C256.586,158.706,234.372,152.986,233.712,131.236L233.712,131.236z M289.184,128.51c0.699-0.098,1.069,0.132,1.202,0.6
		c-1.723,17.286-9.301,28.715-19.208,37.815c-1.796-1.005-2.855-2.748-4.202-4.202C277.39,154.33,285.151,143.285,289.184,128.51
		L289.184,128.51z M336.604,137.513c-10.735,1.62-15.656-13.534-31.213-11.405c-4.062,0.556-7.118,3.458-9.604-1.8
		c7.024-2.814,16.988-5.663,24.01-2.401C326.675,125.102,329.554,135.755,336.604,137.513L336.604,137.513z M382.222,147.718
		c-4.453,4.35-10.907,6.699-13.204,13.206c-2.101-3.979,4.144-9.806,6.002-13.806c-9.931-3.787-25.881-0.698-31.813-9.604
		c-1.492-0.708-4.68,0.279-4.802-1.801c0.048-2.79,4.321-2.655,5.402-1.8c5.636,4.457,10.034,6.442,18.607,7.803
		C369.634,142.861,377.861,143.57,382.222,147.718L382.222,147.718z M373.218,164.524c1.021-0.221,1.134,0.468,1.201,1.201
		c-4.029,6.366-5.099,17.56-3.602,27.611c-7.368-8.239-15.808-15.406-27.611-19.208c5.929-2.001,15.01,2.906,19.808,6.003
		C366.714,175.227,369.111,169.021,373.218,164.524L373.218,164.524z M190.996,162.465c1.476-4.131,4.978-6.231,7.203-10.204
		c2.055-3.67,3.451-9.479,6.021-12.645c5.897-7.259,15.968-7.927,24.591-8.964c-0.952,3.499-1.921,3.285-2.985,5.144
		C204.256,135.724,203.753,156.387,190.996,162.465L190.996,162.465z M213.554,182.531c3.058,4.14-7.373,8.172-5.402,13.206
		c-16.229,2.142-29.184,12.314-37.815,24.01c-4.571-9.722,2.735-22.221,7.803-28.211c2.162,3.781-3.467,9.58-3.602,15.006
		c5.824-2.44,10.091-7.698,16.207-11.405C198.271,190.576,206.85,187.508,213.554,182.531L213.554,182.531z M220.157,174.128
		c3.449,9.641-2.371,19.6-3.59,28.9c-2.115,16.123,6.566,21.766,13.883,31.213c-9.918-5.528-22.36-13.459-20.408-30.102
		C211.25,193.84,219.845,184.945,220.157,174.128L220.157,174.128z M188.521,156.376c-0.92,8.051-17.54,15.542-21.013,18.008
		c-2.387,1.693-7.053,4.794-7.804,6.002c-1.264,2.033-0.566,5.423-1.201,7.804c-1.592,5.967-5.669,13.739-3.001,22.209
		c-5.292-6.238-9.13-16.717-6.001-26.411c2.049-6.352,13.281-9.228,19.808-13.206C177.266,165.933,184.266,160.753,188.521,156.376
		L188.521,156.376z M225.559,240.155c9.849,8.805-3.972,25.226-4.802,33.613c-0.873,8.831,5.497,15.625,2.402,25.21
		c0.311-10.204-7.902-14.692-7.804-22.81C215.49,265.03,230.882,256.109,225.559,240.155L225.559,240.155z M216.555,296.578
		c3.146,2.965-0.917,5.935-0.6,8.403c1.607,12.509,19.758,1.465,22.81-6.002c-0.827,4.001-7.398,14.209-14.406,15.006
		c-4.947,0.563-12.058-2.227-12.605-6.002C211.106,303.521,216.63,301.914,216.555,296.578L216.555,296.578z"/>
	<path fill-rule="evenodd" clip-rule="evenodd" fill="#003B78" d="M224.188,69.255c-6.501,2.083-16.211,5.401-18.804,12.874
		c-7.554-0.75-8.444,5.162-13.009,7.4c-0.226-11.451,9.333-18.263,18.607-22.209c-5.971-2.898-15.48-0.211-16.806,5.403
		c-0.734-4.69,0.729-9.908,3.601-12.005C206.61,54.263,219.847,62.542,224.188,69.255L224.188,69.255z"/>
	<path fill-rule="evenodd" clip-rule="evenodd" fill="#85CEBF" d="M248.368,62.483c2.375-2.752,3.291-3.436,4.238-3.34
		c-1.293,1.748-2.38,4.851-2.197,7.435c2.077-4.73,6.449-9.167,12.316-11.278c-0.933-0.752-6.136-0.09-7.766,0.803
		c0.795-1.686,2.977-2.134,6.41-3.587C253.802,51.787,249.061,57.658,248.368,62.483L248.368,62.483z"/>
	<path fill-rule="evenodd" clip-rule="evenodd" fill="#85CEBF" d="M287.647,73.585c1.372-11.844-8.574-22.4-19.897-19.97
		C277.544,56.827,284.867,63.515,287.647,73.585L287.647,73.585z"/>
	<path fill-rule="evenodd" clip-rule="evenodd" fill="#F79239" d="M271.734,49.685c8.804-2.593,16.517,4.844,17.417,14.959
		C286.051,57.082,280.706,50.989,271.734,49.685L271.734,49.685z"/>
	<path fill-rule="evenodd" clip-rule="evenodd" fill="#85CEBF" d="M197.305,65.861c4.713-2.603,13.952-3.794,16.723,1.974
		c-3.814,2.117-8.816,5.074-10.384,9.039c4.218-3.631,9.699-7.379,15.472-8.809C214.505,61.386,203.63,58.668,197.305,65.861
		L197.305,65.861z"/>
	<path fill-rule="evenodd" clip-rule="evenodd" fill="#003B78" d="M225.117,73.487c-0.383,1.766-0.185,2.719-0.043,4.147
		c-4.865,1.974-11.608,8.165-12.12,16.662c-0.363,6.005,3.635,12.104,3.001,19.208c-0.759,8.5-7.147,16.868-15.006,18.007
		c3.174-5.629,7.483-10.125,9.004-17.408c-6.431,5.175-9.393,13.818-21.609,13.205c7.356-5.249,13.16-12.049,16.807-21.008
		c-3.012,1.358-5.71,4.599-11.404,3.601c9.294-5.161,9.693-22.657,18.607-30.612C218.55,74.419,220.295,73.853,225.117,73.487
		L225.117,73.487z"/>
	<path fill-rule="evenodd" clip-rule="evenodd" d="M230.361,93.095c-1.364-0.069-3.953-0.522-2.993,4.832
		c0.8,4.461,4.062,7.446,5.394,11.375c-5.186-2.817-8.446-7.561-7.803-16.207C226.614,91.786,229.602,90.564,230.361,93.095
		L230.361,93.095z"/>
	<path fill-rule="evenodd" clip-rule="evenodd" fill="#003B78" d="M259.462,108.284c-0.934-0.17-1.803-0.096-2.632-0.471
		c-2.929-2.541-6.874-5.535-13.589-3.518C249.035,100.143,256.613,102.981,259.462,108.284L259.462,108.284z"/>
	<path fill-rule="evenodd" clip-rule="evenodd" fill="#003B78" d="M237.074,105.637c0.843,14.046,8.369,26.902,19.571,39.288
		c-8.449-4.07-11.426-10.7-16.087-18.232C236.728,120.503,234.297,113.12,237.074,105.637L237.074,105.637z"/>
	<path fill-rule="evenodd" clip-rule="evenodd" fill="#003B78" d="M287.169,118.989c0.912,3.759-2.427,12.331-7.114,19.523
		c-3.001,4.607-10.487,16.918-20.629,8.146c12.42,1.864,16.463-6.862,21.355-14.546
		C283.372,128.043,286.525,122.493,287.169,118.989L287.169,118.989z"/>
	<path fill-rule="evenodd" clip-rule="evenodd" fill="#85CEBF" d="M271.387,130.652c-0.01,4.566-10.075,6.273-12.872,0.219
		C262.918,132.65,267.654,133.372,271.387,130.652L271.387,130.652z"/>
	<path fill-rule="evenodd" clip-rule="evenodd" d="M301.19,138.714c5.858,3.754,5.593,14.634,0.599,19.208
		C301.261,153.38,302.455,144.255,301.19,138.714L301.19,138.714z"/>
	<path fill-rule="evenodd" clip-rule="evenodd" d="M308.392,145.917c10.476,4.304,5.748,17.929,0.602,27.011
		C312.034,157.613,309.777,155.069,308.392,145.917L308.392,145.917z"/>
	<path fill-rule="evenodd" clip-rule="evenodd" fill="#F79239" d="M448.249,186.133c-13.602-3.539-22.924-9.201-33.013-16.807
		c-10.873-8.196-22.329-18.624-37.816-13.806c5.287-5.227,17.846-4.568,24.011-1.801c3.651,1.64,6.268,5.934,9.604,8.404
		C422.938,170.939,436.77,179.336,448.249,186.133L448.249,186.133z"/>
	<path fill-rule="evenodd" clip-rule="evenodd" fill="#85CEBF" d="M373.744,174.492c0.6,0,2.476-0.364,3.075-0.364
		c3.459,5.867,7.181,10.743,16.762,11.582c10.753,2.168,22.108,3.61,30.649,8.227c-7.45-0.531-17.708-4.138-27.003-4.803
		c-2.4-0.171-5.463,0.531-7.803,0C382.053,187.463,376.612,180.275,373.744,174.492L373.744,174.492z"/>
	<path fill-rule="evenodd" clip-rule="evenodd" fill="#F79239" d="M492.066,192.136c-7.512,4.14-11.001-5.694-15.006-6.604
		c-6.574-1.492-14.964,8.89-20.408,2.401c8.546-0.993,16.517-4.623,24.01-4.802C483.121,187.476,487.448,189.952,492.066,192.136
		L492.066,192.136z"/>
	<path fill-rule="evenodd" clip-rule="evenodd" d="M444.048,193.336c-9.887,3.72-13.138,14.073-22.81,18.007
		c0.62-3.72,4.679-3.94,6.603-6.603c2.16-2.991,1.992-7.421,4.802-10.205C437.191,194.885,440.768,194.258,444.048,193.336
		L444.048,193.336z"/>
	<path fill-rule="evenodd" clip-rule="evenodd" fill="#F79239" d="M143.67,193.847c1.753,2.586-5.257,11.196-9.846,16.399
		c-3.804,4.315-4.815,5.652-6.497,11.795c-4.52,16.506-2.441,37.744-3.81,57.73c-2.932-20.655-6.689-48.692,1.2-66.627
		C128.784,203.901,137.326,199.316,143.67,193.847L143.67,193.847z"/>
	<path fill-rule="evenodd" clip-rule="evenodd" d="M489.665,215.545c-1.371-6.547-1.734-11.802-4.802-17.407
		c-1.229-0.971-3.933-0.468-4.801-1.8C488.929,193.147,491.839,208.661,489.665,215.545L489.665,215.545z"/>
	<path fill-rule="evenodd" clip-rule="evenodd" fill="#85CEBF" d="M148.128,209.542c16.867,24.272-8.504,55.419-7.625,95.458
		C131.958,278.471,155.979,238.276,148.128,209.542L148.128,209.542z"/>
	<path fill-rule="evenodd" clip-rule="evenodd" d="M299.388,210.743c-3.809,6.15-9.254,10.1-16.806,10.805
		c-4.884,0.456-9.715-1.586-14.406-1.2c-8.428,0.692-12.78,5.739-19.208,10.203c-0.496,1.697,0.846,1.555,0.6,3.002
		c-4.186-1.15-10.771,0.354-13.205-1.801c10.606-3.755,19.672-12.718,33.014-14.406c11.58-1.464,23.596,2.577,28.811-7.202
		C298.887,210.045,299.256,210.275,299.388,210.743L299.388,210.743z"/>
	<path fill-rule="evenodd" clip-rule="evenodd" d="M304.791,221.548c3.864,7.595-1.908,15.602-4.801,20.408
		c-2.318-1.41-5.341,0.839-6.603,2.401c-1.568-1.869,0.64-3.805,0-6.603c-3.377,0.031-3.977,4.38-6.002,6.603
		c-8.439,9.254-21.5,18.006-33.014,22.209c17.563-8.847,29.598-23.224,39.617-39.616c4.782,0.646,2.708,9.195,2.401,13.206
		C301.722,236.486,301.874,227.634,304.791,221.548L304.791,221.548z"/>
	<path fill-rule="evenodd" clip-rule="evenodd" d="M279.581,229.35c-0.264,3.209-6.765,1.888-9.604,2.401
		c-6.713,1.213-12.808,5.47-16.207,9.004C254.59,231.166,268.013,228.566,279.581,229.35L279.581,229.35z"/>
	<polygon fill-rule="evenodd" clip-rule="evenodd" fill="#F79239" points="313.193,274.969 317.925,282.214 313.312,293.704 
		295.335,294.461 290.985,283.373 296.64,275.288 293.246,283.476 296.595,291.213 311.353,290.458 314.995,282.772 
		313.193,274.969 	"/>
	<path fill-rule="evenodd" clip-rule="evenodd" d="M353.915,291.019l1.138,1.295l-5.302,8.256l4.26,11.015l-6.603-10.805
		C349.41,297.528,351.854,294.339,353.915,291.019L353.915,291.019z"/>
	<polygon fill-rule="evenodd" clip-rule="evenodd" fill="#85CEBF" points="329.316,313.171 323.629,323.365 306.998,323.45 
		306.044,321.258 323.145,320.542 329.316,313.171 	"/>
	<path fill-rule="evenodd" clip-rule="evenodd" d="M121.717,313.385c7.497,6.67-0.727,19.979,0.601,29.412
		c0.59,4.201,3.714,4.91,3.601,9.003c1.48,1.322,4.059,1.544,6.002,2.402c0.929,5.673-0.177,13.382,6.603,13.205
		c1.393-4.209,1.793-9.412,3.001-13.805c2.496,4.614,0.722,12.89-1.2,16.807c-3.313,0.312-5.658-0.345-8.403-0.6
		c-2.949-4.855-3.035-12.572-9.604-13.806c0.951-4.353-2.158-4.646-3.602-6.604C114.455,337.027,122.524,327.595,121.717,313.385
		L121.717,313.385z"/>
	<path fill-rule="evenodd" clip-rule="evenodd" d="M142.726,318.187c7.985,4.281,14.503,7.976,12.005,21.009
		c-1.111,5.793-7.833,11.087-4.802,17.407c-2.571-3.602-3.332-5.893-2.401-10.204c0.542-2.51,3.775-4.194,4.202-6.002
		C154.618,328.153,146.115,326.501,142.726,318.187L142.726,318.187z"/>
	<path fill-rule="evenodd" clip-rule="evenodd" d="M197.348,367.406c0.698-0.097,1.068,0.132,1.2,0.6
		c-0.565,7.897-4.399,13.413-4.201,21.009c0.16,6.167,4.946,11.508,1.801,18.006c-2.942-0.711-1.582-3.779-2.401-6.002
		c-0.725-1.963-2.521-3.48-3.002-5.402C188.323,385.93,194.358,374.988,197.348,367.406L197.348,367.406z"/>
	<path fill-rule="evenodd" clip-rule="evenodd" d="M318.597,369.208c8.718,11.91-2.515,28.775-9.604,37.814
		c-3.076,3.924-6.244,8.162-9.003,9.604C305.902,400.531,318.982,391.603,318.597,369.208L318.597,369.208z"/>
	<path fill-rule="evenodd" clip-rule="evenodd" d="M199.148,384.814c2.695,4.708,4.984,9.821,10.805,11.405
		c-1.816,5.986-6.238,9.369-7.804,15.605c3.75,3.42,8.31-1.857,12.605-1.801c-6.341,5.664-12.775,11.234-19.208,16.807
		c-0.646-3.756-1.439-7.363-1.8-11.404c2.258,0.91,3.881,1.529,6.602,0.6c1.353-2.422-1.437-3.029-1.2-6.002
		C209.179,402.951,198.833,395.479,199.148,384.814L199.148,384.814z"/>
	<path fill-rule="evenodd" clip-rule="evenodd" d="M190.145,415.426c-1.916,7.047,0.994,15.404,0.6,23.41
		C186.931,431.377,184.176,422.232,190.145,415.426L190.145,415.426z"/>
	<path fill-rule="evenodd" clip-rule="evenodd" d="M253.771,422.629c-5.924,10.684-11.024,22.188-13.205,36.613
		c-2.153,0.154-2.199-1.801-4.202-1.799c2.341-14.467,9.115-24.498,15.606-34.814C252.57,422.629,253.17,422.629,253.771,422.629
		L253.771,422.629z"/>
	<path fill-rule="evenodd" clip-rule="evenodd" fill="#85CEBF" d="M218.956,430.432c1.021-0.221,1.133,0.469,1.201,1.199
		c-4.94,6.467-10.964,11.846-15.606,18.607c7.915-1.713,15.936-8.453,24.61-11.402c-8.214,6.791-18.476,11.535-23.409,21.607
		c9.123-2.102,16.366-9.217,25.81-9.002c-0.782,2.217-4.072,1.93-5.402,3.602c4.446,3.955,10.377,6.428,15.006,10.203
		c-1.565,3.236-2.737,6.867-3.001,11.404c-5.373-6.631-11.235-12.773-18.608-17.408c-2.093,1.309-4.105,2.699-5.402,4.803
		c1.813,1.988,6.326,1.277,7.803,3.602c-12.036,2.43-24.688,6.717-36.615,10.203c-2.503-8.309,2.483-16.904,1.2-24.609
		c-0.735-4.414-6.39-10.828-0.6-16.805c1.989,1.479,3.147,4.891,1.2,7.201c6.438,7.477-0.277,19.133,0.6,30.014
		c4.866-5.139,9.95-10.061,13.806-16.207c-1.465-1.619-3.914,0.854-6.603,0C199.871,445.361,211.533,440.016,218.956,430.432
		L218.956,430.432z"/>
	<path fill-rule="evenodd" clip-rule="evenodd" d="M303.591,456.242c-7.253,6.934-24.698,5.295-32.413,1.201
		C278.892,454.779,292.661,458.809,303.591,456.242L303.591,456.242z"/>
	<path fill-rule="evenodd" clip-rule="evenodd" d="M317.995,457.443c4.664,3.408,1.776,13.318,3.002,17.406
		c-4.088,4.334-16.539,5.291-20.408,0C313.791,475.361,317.575,470.094,317.995,457.443L317.995,457.443z"/>
	<path fill-rule="evenodd" clip-rule="evenodd" fill="#85CEBF" d="M230.149,543.842c-9.062-16.543-5.397-49.973,0.6-67.229
		c0.148-0.65,1.193-0.406,1.2-1.201c5.958,3.352,1.286,9.965,0,20.408C229.962,511.967,228.955,527.889,230.149,543.842
		L230.149,543.842z"/>
	<path fill-rule="evenodd" clip-rule="evenodd" d="M316.795,482.654c2.972,21.047-2.708,49.676-4.672,63.496
		c0.318,1.773,2.76,3.039,3.472,4.33c2.142,3.881,3.071,9.084,5.402,13.205c2.217,3.92,5.908,7.393,4.802,11.404
		c-2.376,0.58-5.367-4.244-7.804-7.203c-2.703-3.283-5.455-6.523-7.802-9.002c-1.916,0.084-1.783,2.219-3.602,2.4
		c1.847-21.379,8.738-51.98,3.602-78.031C312.108,481.801,314.729,482.236,316.795,482.654L316.795,482.654z"/>
	<path fill-rule="evenodd" clip-rule="evenodd" d="M239.365,558.283c-1.69,3.312-3.418,6.586-5.403,9.604
		c2.481,3.387,1.514,7.332,1.2,12.605c-0.936,15.771-0.151,33.922,0.6,51.021c0.587,13.344,4.699,25.486,4.202,35.414
		c-8.926-18.896-10.254-53.717-12.005-79.832c-0.26-3.877-2.248-8.352-1.801-12.006c0.782-6.391,7.356-11.139,8.403-16.205
		c0.387-2.588-1.742-2.662-2.789-4.785C234.413,552.891,237.716,556.564,239.365,558.283L239.365,558.283z"/>
	<path fill-rule="evenodd" clip-rule="evenodd" d="M245.967,671.129c2.197,3.293-2.874,9.461-2.401,15.006
		c-4.218,2.699-9.26,1.027-14.406,1.201c-8.384,0.283-14.897,4-19.808,6.002c-0.716-4.381,1.813-9.998,5.402-12.004
		c0.014,1.414-1.034,1.768-0.6,3.602c8.466,1.049,16.227-0.529,25.211,1.199C241.821,681.389,242.548,674.912,245.967,671.129
		L245.967,671.129z"/>
	<path fill-rule="evenodd" clip-rule="evenodd" d="M217.756,693.939c-0.5,5.102-3.764,7.439-4.202,12.605
		c2.493,1.906,10.131-1.328,10.205,3c-9.772,0.031-11.574,8.035-15.006,14.406c1.345,1.119,5.971-2.137,8.403,0
		c-6.775,3.629-13.677,7.131-13.805,17.406c24.021,6.322,26.765-20.621,35.415-35.414c2.971-5.082,8.126-6.688,9.604-11.404
		c2.108,5.793-4.114,12.445-7.803,19.207c-1.747,3.203-3.365,6.254-4.803,9.604c-2.759,6.438-4.785,15.588-9.604,19.809
		c-2.691,2.357-12.097,6.795-16.807,7.203c-8.99,0.777-16.842-2.432-13.54-11.102c1.308-3.434,2.859-7.246,4.536-11.107
		c3.204-7.377,9.622-16.068,3.602-21.008C206.797,701.602,211.872,692.51,217.756,693.939L217.756,693.939z"/>
	<path fill-rule="evenodd" clip-rule="evenodd" fill="#85CEBF" d="M248.947,108.99c-0.646,1.441-0.109,2.814-0.442,2.812
		c3.304,2.098,9.558-0.081,10.536,4.343c-1.786-0.971-3.672-1.486-6.958-1.618c-3.561-0.51-8.585,0.29-9.346-3.81
		c1.51,0.503,3.417,1.519,4.325,1.05C246.922,110.556,247.614,109.596,248.947,108.99L248.947,108.99z"/>
	<path fill-rule="evenodd" clip-rule="evenodd" d="M224.959,160.323c5.132,4.784,4.953,21.975,1.801,26.41
		C230.127,177.474,221.934,169.327,224.959,160.323L224.959,160.323z"/>
	<path fill-rule="evenodd" clip-rule="evenodd" d="M376.819,165.725c4.195-1.286,6.3,4.944,10.806,7.203
		c3.945,1.978,14.834,2.438,13.204,4.802C390.773,175.78,380.737,173.812,376.819,165.725L376.819,165.725z"/>
	<path fill-rule="evenodd" clip-rule="evenodd" d="M333.002,167.525c0.017-0.583,0.735-0.466,1.2-0.6
		c-3.042,6.974-18.14,15.578-9.003,23.41c-12.603,7.249-7.464,38.263,0,46.819c-4.255,0.162-6.51-1.038-10.204,0
		C306.626,213.023,310.128,175.59,333.002,167.525L333.002,167.525z"/>
	<path fill-rule="evenodd" clip-rule="evenodd" d="M457.854,205.941c-3.443,1.357-11.922,3.412-15.607,0.6
		c2.992-3.21,13.263,0.857,15.607-3.001c2.104,2.096,3.389,5.014,6.002,6.603C462.325,210.65,459.767,207.044,457.854,205.941
		L457.854,205.941z"/>
	<path fill-rule="evenodd" clip-rule="evenodd" d="M211.753,427.432c-2.785,5.422-11.506,13.299-16.207,16.805
		c-1.849,0.449-0.732-2.068-3.001-1.199C197.847,436.732,206.024,433.307,211.753,427.432L211.753,427.432z"/>
	<path fill-rule="evenodd" clip-rule="evenodd" fill="#F79239" d="M188.391,480.533c6.626,0.344,3.321,28.127,9.912,37.875
		c4.003,5.92,9.855,7.383,14.479,13.059c-2.31,1.248-9.459,2.182-14.669,0.58c-5.924,9.365,5.086,15.939,12.624,10.299
		c2.002,3.258-2.089,10.023-4.412,12.061c0.154,1.246,8.067,4.041,8.43,5.078c-5.329,2.758-15.798,0.717-21.008-0.6
		c-1.967,2.199,1.2,4.373,0.6,7.203c9.548-0.998,19.306-0.082,24.609,4.801c-10.839,0.986-22.696,0.342-24.009,11.404
		c-4.066,34.258,12.664,72.121,23.409,95.439c-15.316-17.092-25.563-48.266-30.012-78.033c-1.027-6.875-2.291-15.859-1.2-22.809
		c0.376-2.396,3.589-5.576,3.601-8.402c0.018-3.906-5.333-7.711-3.601-12.004c0.373-2.631,6.412-2.129,7.375-4.168
		c1.16-2.789-3.583-12.25-3.529-14.602c0.059-2.51,2.521-6.453,2.757-9.213C188.367,512.133,186.937,498.811,188.391,480.533
		L188.391,480.533z"/>
	<path fill-rule="evenodd" clip-rule="evenodd" fill="#85CEBF" d="M286.184,342.796c-3.914,9.093-13.645,12.366-15.606,23.41
		c5.631-0.822,10.427-6.216,18.007-7.803c12.578-2.634,25.997,1.147,34.214,7.803c-6.159-0.933-11.508-3.945-19.208-3.001
		c-8.172,1.002-21.286,5.721-25.811,10.205c-2.824,2.796-3.943,9.018-6.002,13.806c-3.288,7.642-7.953,11.895-7.804,19.807
		c0.159,8.432,6.513,17.018,17.407,16.207c-2.159,3.809-7.686,4.801-12.604,4.203c-0.069,5.172,2.659,8.326,1.2,13.203
		c12.262,5.152,29.696-0.859,39.016-4.199c-8.821,10.236-30.125,14.672-46.819,11.402c-0.997,2.076,2.157,4.445,3.001,6.604
		c-3.375,4.99-3.131,8.453,1.801,11.404c1.358,0.812,4.091,0.826,6.002,2.4c4.312,3.551,1.455,7.18,2.401,13.207
		c0.543,3.459,3.746,5.123,5.402,8.402c3.797,7.518,5.669,20.471,7.203,31.213c2.094,14.652,1.826,31.004,4.202,42.617
		c-5.927-19.879-8.851-49.832-18.607-71.428c-0.952-2.109-2.849-3.936-3.601-6.004c-1.419-3.904-0.486-8.457-3.001-11.404
		c-1.519-1.779-4.639-1.676-6.002-3.002c-2.294-2.229-5.317-8.617-5.402-11.404c-0.064-2.09,1.977-4.285,1.801-6.002
		c-0.395-3.84-5.724-7.025-4.802-11.404c0.656-3.117,6.124-4.51,7.203-7.203c-7.334-12.871-6.254-35.34,0.6-48.02
		c-5.879,4.34-9.992,10.979-13.806,17.407c-1.86,3.137-4.129,6.865-5.402,10.205c-1.36,3.566-0.502,8.299-4.202,10.805
		c2.952-40.867,21.141-66.495,47.419-84.034C285.353,342.027,285.417,342.764,286.184,342.796L286.184,342.796z"/>
	<path fill-rule="evenodd" clip-rule="evenodd" d="M329.4,594.297c0.584,2.387-3.354,0.248-3,2.402
		c3.273,5.822,10.033,12.602,11.404,20.408c0.567,3.236,1.223,15.416-0.601,19.209c-13.115,22.221-39.599-10.352-36.615-30.613
		c6.838,13.338,14.059,39.826,34.814,26.41c0.02-4.621,0.18-9.385-0.601-13.205c-5.384-2.953-13.912-0.355-17.407,2.4
		c2.601-5.51,7.417-9.568,15.567-7.648c-0.991-7.045-7.746-15.604-13.825-19.557c1.363-0.193,3.678,0.412,4.261-0.406
		c-4.541-1.678-14.405-12.801-17.062-13.027c-3.903,0.83-5.395,5.303-9.948,6.426c-0.446-5.037,4.326-14.256,8.319-14.416
		C312.18,572.377,322.517,593.039,329.4,594.297L329.4,594.297z"/>
	<polygon fill-rule="evenodd" clip-rule="evenodd" fill="#85CEBF" points="354.309,267.72 352.056,274.81 341.896,277.986 
		331.616,266.427 336.635,257.5 345.094,256.87 337.795,259.062 334.464,265.5 342.993,274.916 350.092,273.163 354.309,267.72 	"/>
	<path fill-rule="evenodd" clip-rule="evenodd" fill="#85CEBF" d="M280.771,109.118c0.646,1.441,0.109,2.813,0.442,2.812
		c-3.305,2.098-9.558-0.081-10.536,4.344c1.787-0.971,3.672-1.486,6.958-1.618c3.56-0.509,8.585,0.29,9.346-3.81
		c-1.51,0.503-3.417,1.519-4.326,1.05C282.795,110.684,282.103,109.724,280.771,109.118L280.771,109.118z"/>
	<path fill-rule="evenodd" clip-rule="evenodd" fill="#003B78" d="M269.265,108.648c0.935-0.17,1.803-0.344,2.632-0.719
		c2.929-2.54,6.625-5.535,12.845-4.014C280.188,100.011,272.114,103.346,269.265,108.648L269.265,108.648z"/>
	<path fill-rule="evenodd" clip-rule="evenodd" fill="#F79239" d="M251.437,50.231c-8.804-2.593-16.518,4.844-17.417,14.959
		C237.119,57.628,242.464,51.536,251.437,50.231L251.437,50.231z"/>
	<path fill-rule="evenodd" clip-rule="evenodd" d="M365.454,274.369c-8.713-15.793-17.271-27.2-39.989-30.779
		c-1.021,0.221-3.198-1.502-3.267-2.234C338.183,236.676,365.762,253.986,365.454,274.369L365.454,274.369z M311.394,243.756
		c-19.89,8.964-35.03,24.626-35.075,49.496c-0.05,27.304,22.045,47.801,53.683,41.741c11.355-2.175,27.879-8.391,35.544-23.13
		c-3.511,16.728-16.896,23.912-29.26,28.714c0.457,15.103-1.688,23.19-6.284,33.432c-0.549-9.865,0.796-21.922-1.802-31.425
		c-17.238,0.956-26.22-1.882-39.615-9.993c-6.808-0.525-14.358,6.203-18.607,10.204c-5.314,5.003-8.542,10.571-12.004,16.207
		c-2.035-4.305,3.413-11.341,4.201-16.807c-7.523,4.283-11.083,17.727-17.407,25.21c1.384-9.42,3.235-18.373,7.203-25.21
		c-2.223-1.398-3.382,3.403-6.602,3.001c0.783-3.86,4.976-7.905,8.403-10.804c3.791-3.206,8.766-5.253,12.604-7.803
		c-1.067-11.683,4.561-19.684,3.602-33.013c-7.171,4.188-14.271,9.707-22.81,9.604c8.163-5.402,19.737-13.819,24.452-23.616
		c2.057-13.832,16.284-34.046,35.858-37.776C308.645,241.042,310.138,243.585,311.394,243.756L311.394,243.756z"/>
</g>
</svg>
