<?xml version="1.0" encoding="utf-8"?>
<!-- Generator: Adobe Illustrator 14.0.0, SVG Export Plug-In . SVG Version: 6.00 Build 43363)  -->
<!DOCTYPE svg PUBLIC "-//W3C//DTD SVG 1.0//EN" "http://www.w3.org/TR/2001/REC-SVG-20010904/DTD/svg10.dtd">
<svg version="1.0" id="Layer_1" xmlns="http://www.w3.org/2000/svg" xmlns:xlink="http://www.w3.org/1999/xlink" x="0px" y="0px"
	 width="612px" height="792px" viewBox="0 0 612 792" enable-background="new 0 0 612 792" xml:space="preserve">
<g>
	<path fill-rule="evenodd" clip-rule="evenodd" d="M625.86,275.821c-0.981,1.699,0.643,2.958-0.48,4.8
		c-2.314,4.454-6.288,3.236-11.04,4.8c-8.883,2.924-13.707,15.982-18.72,24c-3.137,5.017-6.473,11.041-11.04,14.4
		c-4.624,3.401-11.139,4.783-15.84,6.72c-6.427,2.647-12.844,6.814-15.84,13.92c-12.918,2.304-18.194-5.059-26.4-8.64
		c-3.717-1.622-8.102-1.413-12-2.88c-9.71-3.653-18.118-10.014-23.521-17.28c-19.99-1.985-20.537,15.911-29.279,26.88
		c-4.751,5.961-10.663,10.03-16.8,13.44c-4.968,8.25-17.689,13.395-17.761,27.359c-0.022,4.48,1.52,12.007,3.84,14.4
		c1.083,1.116,5.202,2.229,7.681,3.359c12.979,5.92,18.151,10.401,28.319,18.721c5.713,4.671,13.87,10.342,22.08,15.359
		c9.351,5.715,21.469,13.305,17.761,26.881c-2.188,8.004-7.88,15.682-12,23.52c-4.238,8.061-7.129,16.984-11.04,24.48
		c-7.778,14.903-20.021,27.373-25.92,44.159c-1.014,2.884-2.317,7.149-2.4,9.12c-0.199,4.762,3.627,8.215-0.48,12.48
		c5.651,3.179,4.288,9.84,6.721,14.88c1.833,3.799,5.258,4.79,7.975,8.655c2.772,3.944,4.402,7.455,6.425,11.861
		c3.998,2.188,12.047,7.317,15.882,9.752c0.564,5.342-2.36,10.325-9.161,13.411c-6.204,1.645-15.569-1.128-21.601-3.359
		c-4.07-1.507-7.39-4.699-10.56-5.28c-11.561-1.44-17.599,5.146-39.84-3.36c-6.792-2.271-12.731-5.982-18.721-6.72
		c-17.628-2.171-28.555,6.854-39.84,11.04c7.387-11.174,15.146-21.975,31.68-24c-14.498-7.934-40.513,0.153-57.119-0.96
		c-20.914-1.402-38.792-12.238-47.041-27.36c3.208,0.371,8.405,7.155,13.44,9.12c2.762,1.078,6.745,1.388,9.12,1.44
		c31.482,0.688,46.335-34.199,81.12-28.32c-10.757-12.41-27.398-13.366-45.12-11.04c-14.528,1.906-26.174,6.584-42.24,4.8
		c-11.025-1.224-25.389-5.351-30.24-13.439c4.115,2.226,8.489,3.901,13.919,4.319c43.497,3.351,71.667-42.108,118.56-27.84
		c2.904,0.884,6.906,1.968,8.16,5.28c-8.926-2.189-18.212,0.521-24,4.32c9.071,1.459,23.104,1.531,32.16,0
		c-6.206-19.173-26.353-23.74-48.96-26.4c-7.056-0.83-14.655-1.505-21.12-3.36c-5.813-1.667-12.624-3.317-15.36-8.64
		c26.354,9.537,44.718-14.851,70.561-14.88c-8.425-2.452-16.288-4.038-25.92-4.32c-12.365-0.362-31.848,0.626-39.36,5.76
		c-3.205,2.19-6.119,6.401-9.6,9.601c-3.267,3.002-6.823,5.799-10.561,8.64c-7.346,5.583-16.934,10.833-22.08,16.32
		c-4.349,4.637-5.652,13.146-12,14.88c-1.237,0.338-3.83-0.317-5.76,0c-3.583,0.589-8.583,4.508-13.44,7.2
		c-26.147,14.492-47.619,31.783-69.12,51.84c-3.873,3.612-9.443,7.844-10.561,11.04c-0.659,1.884-0.396,4.031-0.959,6.24
		c-4.729,18.539-22.375,27.087-15.84,52.319c-8.935,3.87-20.346,0.493-23.092-7.397c-38.386,6.453-54.121-23.471-87.308-26.683
		c-3.054-0.295-7.219,0.788-9.12-0.479c14.848-7.73,40.643-10.515,58.081-3.84c-19.821-16.227-53.693-14.893-78.721-23.521
		c-25.196-9.944-45.67-30.484-49.92-49.92c6.362,2.964,12.706,8.805,19.569,12.179c36.412,17.896,95.634,17.704,132.591,2.222
		c-7.907-5.143-22.385-8.546-35.52-7.2c-7.986,0.818-13.478,5.453-18.72,6.72c2.836-5.008,8.945-7.892,14.879-10.08
		c17.67-6.515,41.845-6.688,63.84-1.92c-6.616-4.961-14.481-9.636-19.68-16.319c-2.675-3.44-5.658-8.27-5.28-13.44
		c8.497,12.442,28.364,17.639,49.44,18.72c16.572,0.851,34.701-1.752,40.8-12.96c-16.762,6.013-46.954,6.922-59.521-5.279
		c10.668,0.16,25.124,0.75,32.64-4.801c-25.507,3.439-58.033-6-78.24-18.72c-18.775-11.54-31.658-20.468-40.8-40.8
		c-2.905-6.46-6.822-13.75-5.76-21.601c10.62,15.056,22.899,26.233,55.2,35.04c11.622,3.169,22.855,6.064,37.439,4.32
		c-6.357-4.523-18.086-6.232-21.12-12.479c3.266-0.825,6.737,2.393,11.04,2.88c9.486,1.073,19.378-2.864,28.8-3.84
		c20.973-2.175,47.845-0.479,60.48,14.399c-5.566,0.296-12.967-3.26-20.16-1.439c7.763,4.717,19.941,5.019,30.72,6.72
		c-6.622-11.614-17.722-20.908-29.761-27.36c-12.32-6.603-26.594-12.059-44.16-12.96c-4.182-0.215-8.103,0.334-11.52-0.96
		c2.331-2.689,8.378-3.48,12.96-4.32c26.272-4.81,61.022,1.908,83.52,9.601c-5.517-7.957-15.614-13.418-25.92-17.76
		c-14.775-6.227-31.548-11.254-53.28-9.12c4.67,3.49,15.166,1.154,20.16,4.319c-35.609,16.618-73.274-2.181-96.96-19.199
		c-22.792-16.377-54.914-37.375-84-24c17.878-24.997,70.463-16.861,102.24-9.366c28.711,6.772,57.165,7.667,81.6-0.234
		c23.404-7.566,43.495-17.842,60.48-34.08c-22.667,13.997-67.688,28.771-98.4,10.561c14.216-3.544,28.589-7.836,38.4-14.88
		c-28.501,7.571-60.54,2.499-84.96-6.72c-24.225-9.146-43.765-22.421-77.76-17.28c-16.609,3.104-37.725,11.989-53.76,21.6
		c11.756-16.787,30.875-27.812,48.96-39.36c37.875-20.71,70.74-28.617,108.578-22.031c26.305,3.034,53.787,19.061,81.502,8.591
		c-7.239-1.28-14.759-1.801-21.6-3.84c-6.224-1.855-13.601-3.555-16.32-9.12c36.042,5.595,73.358-2.743,94.08-18.72
		c-15.334-7.269-34.88-12.199-57.6-10.561c1.782,6.079,10.222,9.604,16.8,12.48c-3.199,2.793-9.816,2.513-14.88,2.399
		c-23.139-0.518-43.702-9.914-59.52-20.64c-16.578-11.241-27.149-27.62-34.08-45.6c2.898-0.202,4.319,2.822,6.24,4.32
		c6.07,4.734,13.051,10.099,20.64,13.92c10.026,5.048,22.038,8.73,34.08,12c8.928,2.425,21.655,3.991,32.16,4.8
		c56.99,4.169,101.118-29.42,153.12-26.88c-7.917-14.513-35.971-25.368-58.56-16.319c3.842,3.779,14.83,0.963,18.72,3.359
		c-7.194,6.908-22.31,11.507-35.52,13.44c-19.538,2.859-37.803-2.666-49.177-11.536c-8.693-6.78-16.486-15.212-20.904-24.464
		c3.238,0.933,6.253,4.586,10.081,6.72c7.24,4.037,17.946,7.432,30.24,7.2c21.254-0.4,40.437-12.274,62.4-14.4
		c33.513-3.243,60.816,10.441,79.68,25.92c-7.843-12.13-20.394-20.983-36-27.36c3.987-1.226,8.867-0.165,12.48,0.959
		c24.779,7.71,44.515,17.061,62.709,31.818c2.693,2.186,8.007,6.448,7.851,10.422c-4.678-0.004-8.5-4.908-15.84-3.84
		c12.782,19.691,48.506,11.938,69.6,24.96c4.592,2.834,9.215,7.626,12.961,11.52c3.345,3.478,8.743,9.276,9.6,14.88
		c1.766,11.556-3.95,16.203-5.186,25.825c-0.653,1.382-3.733,1.18-4.526,2.198c-2.074,2.663-2.131,7.547-1.809,12.776
		c-2.03,1.329-4.326,2.394-6.72,3.36c-1.239,6.76-6.304,9.696-11.04,12.96c4.3,7.526,15.536,11.044,20.16,17.28
		c2.232,3.011,2.66,7.071,6.24,7.2c3.882,0.139,7.366-5.707,10.56-7.2c7.764-3.629,15.181-4.003,23.521-8.641
		c6.552-3.642,13.735-7.508,18.72-12.96c3.694-4.041,5.468-10.458,12.96-10.56c-0.158-5.758,3.383-7.817,6.24-10.56
		c0.911,1.169,1.787,2.373,1.439,4.801c1.521-1.52,2.515-3.566,3.36-5.761c-3.833,0.146-4.761-5.15-4.32-7.68
		c1.992-3.128,7.172-3.069,11.04-4.32c2.865,0.854,5.011,6.433,9.12,9.12c2.222,1.453,5.911,0.981,6.72,3.84
		C636.439,269.461,631.197,274.782,625.86,275.821L625.86,275.821z"/>
	<path fill-rule="evenodd" clip-rule="evenodd" fill="#F7945C" d="M603.3,277.741c-0.412,10.709-9.356,23.92-14.399,32.16
		c-6.101,9.968-19.68,13.021-29.28,20.16c-3.708,2.757-5.089,6.44-9.12,9.121c2.339-3.688,1.123-9.733-2.88-11.041
		c-0.69,2.377,0.726,7.509-2.4,9.12c-6.024,3.105-10.215-4.322-14.399-6.72c-7.379-4.229-20.152-3.92-20.641-10.56
		c6.567-4.326,11.168,2.77,14.4,6.24c3.588-1.662,1.03-5.766,0-7.2c-4.571-6.36-16.366-8.611-27.84-8.16
		c-0.756-1.165-1.79-2.05-1.44-4.32c-1.76,0-3.52,0-5.28,0c0.852-3.831,5.935-7.475,6.721-12.96c2.811,1.022,5.643,0.133,8.16-0.48
		c0.87,1.689,2.335,2.785,2.88,4.8c-2.413,2.277-6.88,2.075-11.04,1.44c1.526,7.472,10.063,4.866,16.319,5.76
		c3.613,0.516,7.706,2.562,10.08,4.32c4.681,3.466,6.189,9.39,9.601,13.92c2.467,0.077,0.472-2.88,1.439-3.359
		c5.866-1.183-0.507,9.301,5.28,9.12c1.604-16.955,20.05-17.07,32.64-23.04c-2.193,4.207-6.787,6.012-10.08,9.12
		c3.565,2.117,7.033-1.382,9.12-2.88c8.752-6.28,15.965-15.684,22.08-25.92C596.119,281.529,596.251,277.551,603.3,277.741
		L603.3,277.741z"/>
	<path fill-rule="evenodd" clip-rule="evenodd" fill="#FFD87D" d="M522.373,260.586c-4.622,2.291-6.135,1.752-7.394-1.085
		C517.422,259.664,519.577,260.134,522.373,260.586L522.373,260.586z"/>
	<path fill-rule="evenodd" clip-rule="evenodd" fill="#F7945C" d="M505.38,227.341c-3.938,1.959-5.354,6.196-5.76,11.04
		c-0.608,7.24,3.016,14.534,4.8,20.64c1.574,5.39-1.55,18.32-6.72,18.24c-5.962-0.092-7.296-12.929-3.84-17.28
		c-4.039-1.393-5.096,4.123-8.16,5.28c2.485-8.276-5.164-13.144-5.761-19.2c-0.7-7.123,3.968-10.904,8.16-15.36
		c-3.609,0.015-5.425,0.792-7.199,1.92c-7.783,4.949-3.752,18.942-15.841,14.4c2.184,6.74,7.895,7.743,9.601,15.36
		c3.25,14.514-8.694,36.911,3.359,47.52c2.472-7.77,3.938-19.101,10.08-21.6c2.78,3.118,0.34,11.03-0.96,14.4
		c-2.895,7.505-13.951,13.554-18.239,19.68c-1.933,2.761-2.305,6.434-3.841,9.12c-3.491,6.111-7.986,10.181-12.479,14.88
		c-0.77-2.38,2.599-4.753,1.92-8.64c-3.314,1.581-3.936,5.475-6.24,8.16c-5.806,6.764-13.607,12.304-19.68,19.681
		c-5.663,6.878-13.049,15.098-10.08,27.359c-19.046-0.183-34.778,14.831-46.561,27.36c-5.765,6.132-13.844,14.65-2.88,18.721
		c-5.908-1.69-12.793-0.91-17.279,3.359c-8.403-5.718-19.347-9.329-30.24-13.92c-4.171-1.758-8.711-4.897-12.96-3.36
		c-7.629,2.761-21.525,14.282-26.4,22.08c-4.086,6.537-4.987,15.111-8.639,22.08c-4.987,9.515-13.664,15.801-22.081,22.561
		c4.097,1.622,8.422-1.817,11.52-3.84c3.175-2.074,7.136-4.785,9.6-7.2c9.37-9.185,15.38-24.005,25.44-32.641
		c4.392-3.77,10.473-9.109,17.76-8.159c-0.465,12.248-14.398,16.852-24.48,21.6c2.641,2.975,7.457,0.793,10.561,0
		c10.048-2.568,20.312-6.509,27.359-12c-3.95,17.677-17.691,28.147-31.199,38.4c-8.305,6.302-14.403,11.552-16.801,23.52
		c-6.939,2.411-19.593,1.484-20.64,9.6c1.54,0.723,3.838-1.908,7.2-0.96c-12.304,8.223-26.248,13.713-38.88,21.12
		c-12.68,7.437-24.142,15.695-36,23.521c0.535-13.389,12.526-22.789,21.12-30.72c7.661-7.07,17.358-11.737,25.44-16.801
		c-4.504-1.364-10.666,3.661-15.84,4.801c9.604-17.341,39.888-15.563,51.36-30.721c1.805-2.385,3.661-6.279,2.88-10.08
		c-2.986,1.172-4.895,4.79-7.68,6.721c-11.319,7.847-29.591,6.904-42.239,14.88c-3.677,2.317-5.995,6.902-9.121,8.64
		c-3.809,2.117-10.695,3.479-15.84,4.32c-10.627,1.735-23.224,1.352-32.64-1.92c11.325-1.476,20.62-4.98,27.36-11.04
		c-8.496-1.399-16.726,0.456-24.959,0c-13.78-0.764-27.819-4.345-38.88-8.641c-13.786-5.354-27.185-13.329-38.4-21.6
		c-11.422-8.424-20.336-20.68-24.96-34.561c2.197,1.079,5.782,4.679,8.64,6.721c15.494,11.072,42.905,20.022,67.68,22.56
		c10.817,1.108,24.895-0.491,33.12-5.76c-9.823,0.415-21.012-0.751-28.32-4.32c9.4-0.326,20.546-4.457,31.805-4.816
		c16.455-0.524,33.152,1.852,44.995,8.177c-6.567,0.011-16.731-0.334-21.6,2.88c1.055,3.572,5.761,2.721,8.64,3.36
		c11.344,2.521,24.141,8.033,37.44,5.76c-11.606-28.199-52.771-44.3-77.28-45.6c33.432-6.62,66.764,5.24,92.16,14.399
		c-0.342-6.136-5.786-11.707-10.56-15.359c-17.083-13.073-41.552-21.347-62.88-22.561c-7.565-0.43-16.93-0.884-24,2.88
		c4.984,3.336,12.349,4.291,19.681,5.28c-43.9,11.621-72.497-15.161-99.464-32.331c-17.233-11.498-33.662-20.41-59.896-18.069
		c42.948-20.638,96.887,10.546,142.56,6.24c17.544-1.654,35.5-6.656,51.84-14.4c24.089-11.416,42.625-24.17,55.68-45.6
		c-6.079,1.013-9.905,7.458-15.36,11.04c-18.561,12.188-44.255,24.27-76.32,21.6c-5.809-0.484-11.751-2.048-16.32-4.8
		c17.63-4.129,32.381-11.139,43.2-22.08c-14.396,2.081-29.532,7.721-46.08,7.2c-4.116-0.129-8.704-0.568-12.96-0.96
		c-34.286-3.153-63.672-25.224-97.44-27.36c-23.315-1.475-42.571,7.385-60.96,15.84c5.421-8.348,37.348-27.121,44.16-30.72
		c19.085-9.596,40.786-18.2,66.24-20.16c19.944-1.537,41.362,2.995,60,7.68c22.81,5.734,49.696,10.823,69.12-2.88
		c-13.427-0.461-30.892-0.606-40.8-5.76c35.891,1.039,68.827-7.117,91.68-22.08c-7.747-11.793-54.335-18.362-71.04-13.92
		c2.526,7.074,8.765,10.436,14.4,14.4c-18.726,1.869-32.579-3.146-46.56-9.6c-20.891-9.644-38.613-24.832-46.08-44.64
		c15.854,10.211,32.242,19.99,53.28,24c10.848,2.068,20.337,4.001,30.72,4.8c61.71,4.754,104.015-32.9,161.714-26.4
		c-7.794-12.968-24.235-25.114-49.395-25.44c-6.811,0.111-15.586,1.035-19.68,5.76c1.955,4.604,9.673,3.447,14.88,4.8
		c-11.187,6.614-28.83,10.769-44.64,9.6c-19.135-1.415-33.696-10.997-42.72-23.04c11.066,4.862,23.151,6.906,34.092,5.876
		c25.914-2.44,43.467-16.913,76.24-14.516c19.307,1.759,39.445,10.799,53.827,21.12c4.541,3.639,7.875,8.253,12.48,11.52
		c-1.073-15.086-13.129-23.351-23.52-30.72c21.183,6.177,43.346,18.093,57.119,31.68c-3.68-1.308-9.683-2.393-12.479,0.48
		c10.329,20.551,44.347,17.413,66.24,26.4c-11.146,1.974-20.831,5.409-23.04,16.32c3.744-0.632,4.517-4.831,8.64-6.72
		c6.846-3.136,19.652-1.4,23.521,4.32c3.158,4.672,3.846,17.732-2.4,18.72C508.776,239.766,507.41,231.486,505.38,227.341
		L505.38,227.341z M410.34,276.301c-5.772,19.516,8.292,43.339,27.36,42.24c13.59-0.783,20.752-13.996,24.96-24.48
		c2.103-5.24,2.151-11.55,4.319-16.8c0.712-1.723,2.277-2.715,2.881-4.32c5.661-15.059-9.263-27.416-16.801-31.68
		c-5.408-3.06-11.13-2.293-17.76-4.8c-2.973-1.124-3.435-3.633-8.16-4.8c1.349,16.509,33.415,15.041,31.2,36.48
		c-0.853,8.25-7.384,5.028-9.12,0.96c-1.973-4.624-0.088-10.658-0.96-14.4c-4.184,1.438-5.858,6.173-6.24,10.08
		c-1.295,13.26,10.658,25.632,0.96,36c-9.125,9.756-20.293-3.562-21.119-15.36c-0.722-10.295,4.358-15.747,10.079-18.72
		c2.763-1.435,6.983-0.613,8.16-4.8C428.228,254.752,413.321,266.223,410.34,276.301L410.34,276.301z M442.979,233.102
		c-9.682-4.348-12.495-13.15-20.64-20.161c-6.978-6.005-14.85-12.131-23.04-15.36c-4.743-1.87-9.878-3.539-14.399-2.88
		c-4.14,0.604-6.335,4.201-9.601,5.76c-4.997,2.387-11.554,1.74-17.28,3.84c-8.148,2.989-14.352,10.678-20.64,16.32
		c-6.73,6.039-13.698,12.506-21.6,15.36c-2.421,0.875-5.771,0.476-7.2,2.88c23.244,3.066,31.273-17.691,47.04-25.92
		c2.374-1.239,5.49-2.325,8.64-1.44c-0.967,5.593-6.696,6.424-10.56,9.12c18.058,5.242,21.249-17.527,36.96-16.32
		c8.909,0.686,18.509,8.195,23.04,13.921c-8.84-0.297-13.482-7.297-19.2-9.121c3.566,8.479,13.531,16.032,25.92,17.28
		c1.466,0.148,2.966-0.329,4.32,0c6.66,1.619,11.802,11.208,18.239,7.2C443.339,233.32,443.508,233.126,442.979,233.102
		L442.979,233.102z M393.54,231.661c2.62,7.252,10.724,16.682,16.8,21.12c2.588,1.89,7.468,4.829,10.08,5.28
		c12.079,2.083,15.137-15.327,3.36-17.28c0.847,1.873,1.983,3.456,1.439,6.72c-2.347,2.298-4.827,2.302-8.16,0.96
		c-8.16-3.287-16.616-15.677-19.68-24.96c-1.043-3.159-8.458-8.64-12-5.76C392.233,220.09,391.335,225.556,393.54,231.661
		L393.54,231.661z M405.06,378.061c-12.803-1.71-24.826-7.617-29.76-18.72c-0.088-1.696,2.031-2.627,0.96-3.84
		c-3.91,0.388-6.939,0.761-9.6-0.96c-2.629,3.946-7.192,6.543-11.04,8.16c-12.516,5.256-23.579,7.361-31.681,19.68
		c-3.731,5.676-6.666,11.834-7.68,18.719c-0.3,2.039,0.471,4.325,0,6.721c-1.094,5.565-5.552,8.661-8.16,13.439
		c10.659,1.195,20.604-4.973,22.561-12.479c-3.947-0.268-3.944,3.416-8.16,2.88c-3.596-13.579,11.731-16.381,14.4-26.88
		c-4.742,1.018-5.316,6.204-10.561,6.72c5.824-17.056,29.114-16.646,41.76-26.88c6.535,6.265,13.616,11.984,22.08,16.32
		c-5.654,2.123-13.859-3.944-17.279-0.96c11.14,5.666,24.858,11.294,42.239,9.12c0-0.48,0-0.96,0-1.44
		C409.887,386.328,402.387,385.863,405.06,378.061L405.06,378.061z M406.02,277.261c-8.123,10.525-17.41,21.092-18.72,37.92
		c-0.48,6.182,1.292,13.094,0.48,19.68c-0.525,4.259-4.223,7.616-4.32,11.52c5.187-1.836,8.215-7.753,10.56-12.96
		c2.658-5.903,4.155-11.44,3.841-18.24c-3.638,1.003-2.05,7.23-4.801,9.12c-4.359-20.185,7.718-33.854,14.88-47.04
		C409.281,275.222,408.47,275.05,406.02,277.261L406.02,277.261z M388.26,223.981c-9.863,4.603-23.413,1.086-33.6,4.32
		c-14.897,4.73-27.347,14.582-41.28,20.16c-1.418,4.849-0.839,13.26-4.8,14.4c-3.916,1.128-7.14-3.91-7.2-7.2
		c-0.089-4.992,3.904-8.423,6.72-10.08c1.696-0.225,4.625,0.785,4.32-1.44c-6.73-6.172-13.14,3.837-18.24,6.72
		c-1.641-0.279-2.234-1.605-4.32-1.44c-0.985,4.803-4.824,10.767-2.879,16.32c1.309,3.739,13.878,13.052,18.72,12.48
		c4.014-0.474,5.853-5.889,10.56-5.76c2.022-14.346,10.369-19.598,20.641-25.92c5.104-3.142,10.718-6.157,15.84-8.64
		c11.997-5.817,26.141-6.193,36.96-12.48c0-0.48,0-0.96,0-1.44C389.22,223.981,388.74,223.981,388.26,223.981L388.26,223.981z
		 M382.02,333.901c-2.748,6.532-7.944,10.615-11.04,16.8C378.375,352.487,382.95,338.5,382.02,333.901L382.02,333.901z
		 M250.5,516.301c-4.618,5.416-8.906,7.108-8.16,13.44c9.34-10.34,18.727-20.633,36.96-22.08c0.026-0.613,0.615-0.665,0.48-1.44
		C264.866,501.294,256.933,508.756,250.5,516.301L250.5,516.301z"/>
	<path fill-rule="evenodd" clip-rule="evenodd" fill="#F7945C" d="M452.1,542.221c0.798-8.557,1.216-15.798,4.801-22.08
		c5.047-8.845,17.155-15.201,11.039-31.68c-3.452,4.388-3.289,12.391-8.64,14.88c-0.476-19.285,26.239-38.648,7.2-53.279
		c-1.587,0.729,0.487,4.826,0.479,7.199c-0.054,16.518-20.255,25.288-21.6,45.12c-0.362,5.351,0.487,9.803-0.479,14.4
		c-3.604,17.13-17.136,30.045-17.28,46.56c8.12,0.273,19.499,0.812,24.479,5.76c-4.566,1.162-13.504-3.873-20.16-0.96
		c2.944,3.297,10.567,1.914,13.921,4.801c-2.646,1.354-6.03,1.971-7.681,4.319c5.524,1.676,12.984,1.416,17.28,4.32
		c0.687,10.193,7.126,14.634,12,20.64c-5.395-2.127-11.829-7.369-17.28-11.04c-0.244-3.124,3.302-2.459,3.84-4.8
		c-2.882-2.338-8.918-2.847-13.439-2.88c-5.112-0.038-11.341,0.964-12.48,5.28c2.449,0.063,6.832-1.939,9.12,0.96
		c-4.238,2.641-10.271,3.489-13.92,6.72c0.971,2.609,3.786,1.952,5.76,2.88c8.767,4.123,14.711,13.32,23.521,18.721
		c9.022,5.53,17.605,9.244,29.76,12c-6.913,3.202-18.472-1.75-26.4-5.761c-5.981-3.025-13.433-7.286-18.239-11.04
		c-6.409-5.005-12.398-10.319-17.761-13.92c-2.495-1.676-8.371-3.051-9.119-5.279c-1.124-3.346,1.993-7.738,4.319-7.2
		c3.642,0.199,1.769,5.912,4.32,7.2c2.531-2.261,1.666-5.32,2.88-8.16c2.261-5.288,9.034-8.903,6.72-14.88
		c-3.15,2.289-3.856,7.022-9.12,7.199c1.545-3.305,3.332-8.762,1.921-13.439c-2.57,1.393-1.977,4.826-3.36,7.2
		c-3.727,6.39-14.043,12.211-15.36,21.6c-0.089,0.638-0.205,4.194,0.48,5.28c1.148,1.82,8.863,3.764,11.04,4.8
		c11.079,5.274,18.921,12.216,28.319,18.24c-20.047,8.359-34.729-7.302-51.359-9.12c-10.955-1.198-19.991,3.759-29.76,6.24
		c5.479-9.196,15.787-15.735,31.199-13.44c-2.67-3.544-8.15-6.023-12.96-7.2c-16.997-4.157-37.784,2.173-54.72,0.96
		c-12.317-0.882-21.356-6.226-29.76-11.52c41.175,3.328,50.921-37.624,92.16-27.84c-1.685-9.935-17.204-16.878-29.28-17.884
		c-26.885-2.239-56.354,14.049-77.28,1.083c46.566,3.542,62.594-37.671,114.286-28.068c-6.474,1.618-15.866,4.088-20.686,8.869
		c1.927,3.147,7.657,1.771,11.04,1.92c11.046,0.485,22.229-0.004,32.64,0c-0.459-10.141-7.539-16.657-13.92-21.601
		c-14.748-11.424-40.605-7.544-60-13.92c6.443-1.513,12.253-2.566,18.637-6.04c15.579-8.477,33.615-15.686,54.323-9.8
		c-3.457-5.781-13.934-7.941-23.04-9.6c-17.273-3.146-39.528-3.427-55.68,1.92c-0.008-3.466,3.528-6.622,6.239-10.08
		c3.773-4.812,8.142-13.372,15.36-13.92c1.779-0.136,4.365,1.782,7.2,1.92c3.111,0.151,6.278-2.061,8.64-1.92
		c3.565,0.212,10.57,4.08,15.84,5.76c11.146,3.552,22.914,6.18,35.04,8.16c6.527,1.065,13.345,2.001,18.24,3.359
		c6.47,1.796,11.151,9.043,16.32,8.641c-2.336-7.364-11.854-13.474-20.641-15.84c-8.386-2.26-16.635-3.744-24.479-7.2
		c-7.494-3.302-15.582-6.172-21.601-10.08c-13.137-8.531,7.341-22.787,17.761-24c15.972-1.858,28.198,10.997,36,16.8
		c-16.43,1.069-23.588-7.133-35.521-10.56c1.797,5.545,7.434,8.721,12,11.52c4.458,2.732,9.509,6.099,14.88,8.16
		c16.225,6.229,36.256,4.685,50.88,11.52c5.674,2.652,11.309,6.329,10.561,15.36c-0.916,11.055-9.122,17.694-13.44,26.4
		c-2.048,4.129-3.03,7.795-5.279,11.04C473.684,515.08,460.322,527.161,452.1,542.221L452.1,542.221z M499.14,460.621
		c-3.662,1.276-2.537,4.8-6.72,4.8c-6.271,0-5.576-13.275-12.48-13.92c-0.56,2.856,1.224,4.253,1.44,7.2
		c0.181,2.462-1.267,5.388-0.96,8.16c0.432,3.904,4.057,7.521,3.84,11.04c-0.353,5.723-9.053,11.493-3.359,17.76
		C484.362,481.679,498.002,475.329,499.14,460.621L499.14,460.621z"/>
	<path fill-rule="evenodd" clip-rule="evenodd" fill="#F7945C" d="M209.7,525.901c-5.22,7.737-16.945,18.538-24.48,27.84
		c-2.334,2.881-7.233,6.971-7.68,9.12c-1.528,7.362,6.652,12.897,6.72,19.68c-2.994,1.265-2.452-4.813-4.32-6.24
		c-2.451,0.27-1.076,4.364-1.44,6.721c-1.633,1.065-5.106-4.11-9.12-3.841c-1.048,2.656,2.565,3.306,3.84,5.28
		c5.131,7.945,3.25,19.039-2.399,24.96c-0.929-2.535,0.658-6.473-0.96-9.12c0.86-2.718,1.742,1.824,3.84,0.96
		c-0.01-7.69-4.617-14.887-9.12-19.68c-2.112,1.561,1.089,5.02,0,8.64c-4.252-2.496-6.775-9.188-13.44-7.68
		c1.105,3.888,3.633,6.814,3.84,11.04c0.554,11.309-6.835,22.429-5.76,37.44c0.351,4.888,1.161,9.774,3.84,14.399
		c-10.324-0.13-10.676-17.395-10.56-29.28c0.115-11.778,3.392-24.014,2.88-35.04c-0.143-3.079-0.944-5.856,0.48-8.64
		c2.191,0.209,5.285-0.485,6.72,0.48c-0.935,2.104-4.731,1.349-5.28,3.84c0.748,2.371,3.729,0.855,5.76,0.96
		c7.386,0.377,17.646,1.188,19.2-5.28c-2.476-0.601-8.326,2.725-11.52,0c6.09-1.271,12.337-2.383,13.44-8.64
		c-2.22-1.54-3.417,0.332-5.76,0.479c-10.255,0.645-30.337-7.516-31.2,6.24c-0.533,8.507,2.662,18.542,1.921,27.84
		c-1.089,13.646-3.694,30.356,1.439,40.32c-19.652,5.133-35.721-5.188-49.44-12.96c-8.818-4.995-17.186-9.398-26.4-12.96
		c17.496-7.24,41.422-0.424,53.28,8.16c-0.985-2.713-3.226-5.447-5.281-7.681c-11.432-12.42-37.562-18.842-58.08-22.56
		c-24.644-3.669-39.673-7.592-59.04-25.563c-6.515-5.965-11.248-12.999-16.32-20.997c13.647,9.351,33.778,18.396,62.4,21.601
		c33.142,2.682,66.704-2.451,91.2-12.96c-5.117-8.375-30.311-11.139-37.92-11.04c10.593-4.537,28.118-3.334,41.76-1.92
		c10.116,1.048,19.771,3.985,28.32,2.88c-5.047-3.933-11.928-5.78-17.28-9.601c-5.247-3.744-10.287-7.631-13.44-12
		C152.965,530.663,189.405,535.863,209.7,525.901L209.7,525.901z"/>
</g>
</svg>
