<?xml version="1.0" encoding="utf-8"?>
<!-- Generator: Adobe Illustrator 14.0.0, SVG Export Plug-In . SVG Version: 6.00 Build 43363)  -->
<!DOCTYPE svg PUBLIC "-//W3C//DTD SVG 1.0//EN" "http://www.w3.org/TR/2001/REC-SVG-20010904/DTD/svg10.dtd">
<svg version="1.0" xmlns="http://www.w3.org/2000/svg" xmlns:xlink="http://www.w3.org/1999/xlink" x="0px" y="0px" width="720px"
	 height="432px" viewBox="0 0 720 432" enable-background="new 0 0 720 432" xml:space="preserve">
<g id="Layer_1_x23_000000">
	<g>
		<g>
			<path fill="none" d="M447.566,200.157c0.777,2.858-2.314,1.847-2.674,3.568c-0.729,5.483,3.276,6.232,3.568,10.705
				c-0.594,4.171-4.317,5.211-6.252,8.031c0.379,1.702,2.557,1.614,1.789,4.463c-5.348,5.357-5.591,15.829-11.6,20.524
				c2.197,12.776-15.4,13.038-17.851,24.093c-9.334-2.692-12.475,6.913-18.735,1.789c-5.728,13.262-26.903,5.008-39.271,10.705
				c-2.567-0.398-2.11-3.841-4.453-4.463c-11.229,6.806-17.199-5.095-28.555-2.674c-4.716-5.104-12.115-7.525-18.746-10.714
				c0.69-4.804-7.34-7.127-13.378-8.031c-0.496-1.585-0.467-3.704-1.789-4.463c-0.379-2.46,3.325-0.836,3.568-2.674
				c0.311-4.773-5.95-2.965-8.925-4.463c0.496-3.559,0.496-2.684,0-6.241c-12.834-7.982-5.649-26.543-9.811-41.944
				c5.153,0.496,3.772,7.525,8.031,8.926c-0.943-3.831-5.805-11.444-8.926-16.062c1.031-18.697,7.458-37.86,18.736-49.08
				c7.049,2.751,26.388-1.838,33.019-8.031c0.719,0.768,2.45,0.535,2.683,1.789c5.581-4.229,11.113-8.517,16.062-13.388
				c5.25,1.041,12.183,4.074,15.167-1.789c11.443,4.434,19.445,6.271,30.335,8.926c5.377-3.539,8.779-1.488,14.282,0.894
				c0.107,1.595-1.099,1.876-0.895,3.568c2.091,0.282,3.345,1.41,6.252,0.895c3.977,8.634,15.294,5.231,19.63,12.494
				c-0.467,3.909-0.281,2.927-0.895,6.242c4.229,2.615,9.995,3.685,12.494,8.031c0.681,3.364-1.089,4.268-0.895,7.137
				C449.462,176.084,445.903,192.155,447.566,200.157z M370.825,263.511c32.075-12.776,66.348-36.771,55.321-77.636
				c-9.431-34.963-62.381-61.72-100.833-38.366c-1.235-4.025,3.471-4.463,0.894-7.146c-10.85,15.663-2.236,49.907,4.463,66.931
				c-6.261,10.092-12.805,19.922-18.745,30.335c-10.938-3.034-9.742-18.211-16.062-25.873c-0.204,7.049,2.936,10.753,2.684,17.841
				c-3.782-2.168-5.746-6.154-9.82-8.031c-0.778,1.974,9.908,8.702,15.167,14.283c3.004,3.179,3.977,9.47,7.146,5.356
				C321.103,255.178,346.362,263.627,370.825,263.511z"/>
			<path fill="none" d="M259.276,213.536c3.636,22.654,0.953,43.976-4.453,60.679c-4.628-4.589-6.407-12.036-8.925-18.735
				c-12.192-12.047-24.521-13.864-26.776-33.019c-0.496-4.249,1.789-9.149-5.348-10.705c-4.123-0.554-5.134,2.003-8.925,1.779
				c-1.964-2.791-2.791-6.728-3.568-10.705c2.596-3.977,10.267-16.606,19.63-16.062c5.94-7.146,6.291-19.883,12.494-26.767
				C248.513,165.554,255.319,188.859,259.276,213.536z"/>
			<path d="M691.178,242.985c5.095-0.622,5.095,1.518,0,0.895c-15.867-2.44-30.85-3.062-46.406-7.136
				c3.257,11.317,8.128,21.021,11.6,32.123c-2.956,0.729-6.271,4.453-9.811,1.779c-2.976,1.488-2.576,6.359-8.031,5.357
				c-2.362-1.964-1.429-3.831-0.895-7.137c-4.842,1.118-8.779,10.841-16.062,12.494c4.093-5.931,6.232-17.88,14.282-16.956
				c-2.605,3.344-7.486,4.414-8.03,9.81c5.376-1.312,6.912-10.724,13.378-8.03c2.158,2.421-2.761,3.179-1.779,7.146
				c3.812,0.243,4.541-2.596,6.242-4.463c-0.69-0.797-0.963-2.021-0.895-3.567c-3.15-1.294-3.384-2.859-7.137-1.789
				c1.089-7.643-2.78-21.76-7.136-29.45c-4.172,4.171-13.603,7.808-13.389,13.388c-9.528,4.453-13.621,14.341-18.735,23.198
				c1.011,1.965,2.984,2.966,3.568,5.357c-0.584,4.774-4.414,6.301-8.031,8.031c1.614,2.684-0.865,8.381-6.252,8.926
				c-1.108-2.159-2.207-4.337-2.674-7.137c-1.633,0.962-2.227,4.92-4.462,2.674c-2.052-7.068,4.958-8.984,2.673-13.389
				c-1.205,0.282-0.738,2.236-0.885,3.568c-8.448,0.778-8.944,9.499-14.282,13.389c-3.607,1.234-2.819-1.936-5.348-1.789
				c-0.777-3.452,2.178-3.17,2.674-5.348c-5.921-5.62-15.031,0.077-20.524,2.674c1.935-5.883,16.46-9.091,21.419-3.568
				c5.64-3.578,6.776-11.667,13.379-14.273c0.35,7.876-11.337,11.191-14.273,18.736c9.052,1.089,10.238-17.462,21.419-14.283
				c-0.389-1.399-2.81-0.758-1.789-3.568c-8.438-2.702-3.606-11.754-4.462-20.524c-2.577-0.155-4.92,3.015-1.779,3.568
				c-11.074,4.997-27.827,4.308-36.587,11.609c-13.845-5.445-22.421-21.352-21.419-38.376c0.943-16.081,6.611-35.692,17.851-43.723
				c18.405,9.247,34.214,21.108,53.533,29.45c-9.985,2.45-15.945-5.746-27.661-6.251c5.824,15.965,1.711,34.807-8.031,46.406
				c9.247-0.068,16.179-3.889,24.094-3.568c3.82-21.166,11.891-38.083,23.198-51.764c-0.127-1.983-2.246,1.157-4.453,0
				c-2.344-4.647-4.21-14.04-3.578-18.735c3.082,4.064,3.354,10.928,7.146,14.273c7.563-10.365,10.111-15.1,16.062-25.872
				c3.189,2.392-1.828,4.054-0.895,7.136c-2.362-3.49-5.26,12.115-8.926,17.851c2.169,1.77,5.163-1.449,7.137,2.674
				c-7.778,2.868-14.584,10.607-17.841,20.524c8.128,3.471,18.045,5.153,24.093,10.705c1.322-0.457,2.246-1.312,3.568-1.779
				c-3.617-8.789-14.74-17.88-15.168-24.093c8.975,0.544,15.975,10.783,22.305,16.956c3.616-1.448,4.442-5.678,8.925-6.251
				c-0.272-1.215-2.236-0.739-3.568-0.895c13.34,0.554,11.386-14.185,17.842-20.524c-1.634,4.025-2.587,8.721-3.568,13.388
				c0.136,1.653,3.023,0.544,3.568,1.789c-0.272,1.206-2.227,0.739-3.568,0.885c0.398,7.525,7.302,7.963,8.031,16.956
				c-2.703,0.331-1.848-2.907-2.674-4.463c-3.501-0.359-7.39-0.34-8.031-3.568c-4.774,2.664-8.867,6.008-13.389,8.925
				c2.946,4.492,5.018,9.859,9.82,12.494c20.311-2.354,33.019-10.521,52.648-11.6c-12.893,4.755-28.682,5.503-41.049,12.494
				C667.406,238.387,680.094,240.623,691.178,242.985z M648.34,269.762c4.395,1.361,7.01-3.646,4.463-6.251
				c0.253,2.333-0.321,3.84-2.674,3.568c-2.197-1.051,1.828-3.374-0.895-4.463c-0.359,1.128-1.147,1.827-2.674,1.789
				C647.63,267.535,647.863,267.341,648.34,269.762z M609.974,236.744c5.271,1.146,8.382-6.097,11.6-9.82
				c-9.11-1.896-16.927-5.085-24.987-8.031c-1.935,10.919-5.23,18.619-6.242,27.661
				C599.036,245.436,605.861,242.451,609.974,236.744z M607.301,244.774c-4.823-0.651-11.988,4.064-17.852,5.348
				c0.642,6.048,0.088,7.759,0,14.283c2.966,0.301,3.16,3.373,5.357,4.462C596.761,258.62,603.566,253.233,607.301,244.774z
				 M599.27,191.232c-2.14,1.273,1.633,6.592,3.568,3.568C600.543,194.712,601.554,191.319,599.27,191.232z M594.807,280.467
				c5.075-0.049,5.96-3.812,3.568-7.137c-2.829,1.226-2.985,0.194-6.252,0C592.58,276.15,594.748,277.249,594.807,280.467z
				 M588.555,290.277c6.709-1.079,4.812-14.788-2.674-14.273C584.598,281.487,587.942,284.424,588.555,290.277z M543.938,259.048
				c9.528-2.635,22.274-25.513,19.63-41.935c-0.991-6.164-5.853-10.539-5.348-16.071c-6.776-4.229-12.017-9.995-19.63-13.378
				c-7.253,5.328-10.919,12.436-12.493,24.987c-0.613,4.852-3.578,10.773-3.578,14.273
				C522.538,238.543,531.064,262.606,543.938,259.048z"/>
			<path d="M670.653,214.43c-3.092,0.398-10.578-2.489-15.167-3.568c0.214-2.926,4.764-3.218,5.348-0.895
				c1.876-0.612-5.241-6.203,0.894-6.242C659.424,209.627,667.542,211.144,670.653,214.43z"/>
			<path d="M635.855,129.658c3.287-2.062,10.394-0.312,15.168-0.895C647.728,130.834,640.62,129.075,635.855,129.658z"/>
			<path d="M648.34,204.62c-3.772,1.449-7.904-6.106-8.031,0c-2.158-0.817-2.362-3.588-2.674-6.252
				C641.845,199.817,645.277,202.034,648.34,204.62z"/>
			<path d="M605.512,136.794c9.596-1.167,18.561-8.05,29.449-7.136c-10.636,0.739-19.659,7.36-29.449,8.925
				c-19.825,3.169-36.441-7.341-52.648-11.599c-3.986-6.728-15.021-6.397-17.852-14.283c14.536-0.467,32.883,9.684,48.186,14.283
				c-12.095-3.189-20.368-0.496-29.771-5.435c-0.486-0.272-0.973-0.544-1.458-0.817c0.485,0.292,0.972,0.564,1.458,0.817
				C567.369,129.356,584.568,139.352,605.512,136.794z"/>
			<path d="M593.018,199.263c2.101-0.02,2.625,1.536,5.357,0.895c-0.885,2.868-6.641,0.855-3.568,5.348
				C592.716,204.814,591.189,201.188,593.018,199.263z"/>
			<path d="M541.264,160.002c13.903,11.677,30.092,21.069,42.828,33.903C567.933,184.494,553.572,173.274,541.264,160.002z"/>
			<path d="M551.969,314.38c1.176,0.311,1.409,1.565,2.684,1.779c-19.737,6.747-31.016,21.934-45.513,33.912
				c-1.332,0.749-1.293,2.868-1.789,4.463c-12.756,4.492-20.699,13.797-34.797,16.947c-0.847-4.424,11.696-3.16,13.378-8.031
				c6.952-1.381,11.133-5.522,15.178-9.811c5.366-0.282,5.979-5.318,10.704-6.252C520.263,331.443,535.566,322.362,551.969,314.38z"
				/>
			<path d="M581.419,117.164c-27-0.962-48.691-14.963-73.174-21.419c-1.322,0.399,0.351,1.147,0,2.684
				c-7.555-5.241-18.619-6.961-20.524-17.851C518.658,93.071,543.967,111.194,581.419,117.164z M493.078,85.935
				c4.579,1.974,10.782,7.049,15.167,6.242C503.219,90.65,497.104,85.488,493.078,85.935z"/>
			<path d="M539.475,87.714c1.069,1.03,0.351,2.265,0,0.895c-4.249-0.506-8.585-0.934-11.599-2.674
				C522.236,83.942,535.994,87.578,539.475,87.714z"/>
			<path d="M534.127,292.066c-4.122,2.722-9.868,3.82-14.282,6.241C521.595,293.223,528.459,293.242,534.127,292.066z"/>
			<path d="M532.338,263.511c-2.878,9.022-14.604,9.197-21.419,14.282c0.855-9.431,5.679-16.927,5.357-25.882
				c0.146-1.05,1.624-0.749,2.674-0.895C520.574,258.026,524.006,263.219,532.338,263.511z M524.308,265.3
				c-2.188-2.285-3.121-5.805-7.137-6.252c0.506,4.073-1.585,5.562-0.895,9.819C520.02,268.741,522.382,267.234,524.308,265.3z"/>
			<path d="M548.4,67.199c-17.151-3.986-37.413-16.286-56.217-18.745c1.468,5.075,6.407,6.679,10.705,8.925
				c-8.751,1.303-12.086-10.51-22.305-10.705c-0.719-1.663-1.156-3.607-2.684-4.463c-25.386-6.145-48.272-14.788-75.847-18.745
				c0.137,1.653,3.024,0.554,3.568,1.789c-28.04-3.811-56.732-10.296-85.667-11.599c-18.843-0.855-31.832-2.469-45.502,7.137
				c-15.313,10.763-32.337,25.133-43.723,38.375c0.992-8.537,11.998-14.769,17.841-21.419
				c-33.796,19.445-59.979,46.503-82.983,76.741c-0.681-2.197,4.541-6.145,5.347-9.82c-4.783,2.052-5.678,8.002-9.81,10.715
				c-2.751,2.411,2.839-4.288,3.568-5.357c10.948-16.062,26.125-31.919,40.155-44.618c21.088-14.895,40.009-31.978,63.353-44.617
				c8.002-11.133,27.214-11.492,43.723-13.388c26.611-3.043,60.096,5.814,88.35,10.714c13.787,2.382,26.427,7.146,36.587,10.705
				c10.996-1.711,20.563,1.468,32.124,6.242C494.187,45.489,523.296,56.008,548.4,67.199z M382.424,19.898
				c2.81-0.078,6.729,3.315,8.926,0.895C389.162,20.249,383.844,18.246,382.424,19.898z"/>
			<path d="M505.571,131.447c0.457,3.111,5.824,1.303,8.916,1.779c-2.411,1.838-3.831,1.361-3.568,5.357
				c-4.56-1.76-4.696-4.91-9.81-4.463c0.729-3.403-1.906-3.452-3.568-4.462c1.186-1.818,7.107-0.185,10.704,0
				C508.663,131.563,506.972,131.359,505.571,131.447z"/>
			<path d="M513.603,169.812c0.486,1.984-1.711,1.274-1.789,2.684c-0.846,23.831-15.624,33.748-24.093,49.965
				c-26.426,26.815-45.327,61.166-66.921,92.804c-3.364,0.214-3.782,3.363-7.146,3.568c1.312,1.254,7.243-0.447,9.82-0.885
				c7.758-8.313,10.996-21.138,23.198-24.987c1.37,6.349,5.299,9.741,4.462,16.062c2.713,0.039,3.472-1.887,5.357-2.684
				c-1.643-24.346,10.764-45.415,22.304-65.133c2.421-4.142,6.787-6.951,8.926-10.714c5.348-9.393,12.922-20.855,22.313-25.872
				c6.184,11.152,5.25,38.988-8.03,43.723c0.485,2.479,3.441,2.499,5.347,3.568c0.651,7.817-0.952,18.629-5.347,24.093
				c0.136,1.05,1.623,0.749,2.673,0.895c-3.859,8.926-12.805,12.775-18.745,19.63c-9.596,2.597-15.284,9.101-22.304,14.273
				c-11.006,2.674-21.448,5.921-30.335,10.714c-13.232,0.205-22.945,11.531-37.48,13.379c0.359,2.158-1.634,1.944-0.895,4.463
				c0.35,1.643,8.964-2.081,5.356,2.684c7.808-2.013,9.295-10.336,18.736-10.715c-6.009,4.997-14.808,7.205-18.736,14.283
				c-2.751,0.661-1.721-2.45-4.462-1.789c-3.568,1.322-1.683,3.451-2.684,6.251c-1.488,2.567-0.71-4.56-0.885-6.251
				c-11.337-0.029-23.18,7.165-28.556,16.062c-2.674-2.732,4.093-3.588,3.568-7.137c8.536-3.947,14.243-10.743,24.987-12.493
				c0.642-2.723-0.914-3.248-0.895-5.357c-7.953,1.138-17.181,3.17-18.736,8.031c-4.618-1.585-11.871,3.102-15.177,8.04
				c-2.965-1.896,2.684-2.596,1.789-5.356c-12.99-0.166-15.858,8.838-24.987,14.272c4.687-3.218,3.257-12.465,0.895-16.062
				c-1.215,0.875-1.157,3.014-2.684,3.567c-4.365-1.487-8.05,3.277-10.705,6.252c-4.006,1.634,3.646-4.22,4.462-6.252
				c-2.333,0.253-4.462,0.302-3.568-2.673c-8.255,0.214-16.908,6.572-23.199,11.599c6.757-6.456,14.954-15.799,26.767-14.272
				c0.992,2.8,0.418,2.353-0.894,4.462c2.722,0.039,3.471-1.886,5.357-2.683c-3.033-3.812-9.839-3.841-13.388-7.137
				c1.809-1.75,4.006,3.685,8.925,1.789c9.081,4.667,21.73,8.391,32.124,6.242c3.753-0.778,5.95-3.753,9.82-5.357
				c14.263-5.911,35.099-4.716,44.617-15.168c2.907,2.946,5.911,0.759,8.916-0.895c-23.082-1.332-52.25,7.982-78.521,5.357
				c-16.402-1.633-31.142-7.389-44.617-9.819c-2.499,0.885,1.293,2.382-0.895,3.577c-4.58-4.005-4.103-7.535-9.82-7.146
				c0.146-1.041,1.634-0.749,2.684-0.885c-20.894-15.887-14.963-57.763-16.957-92.813c-1.837-32.367-10.52-74.398,10.705-97.266
				c6.115-0.117,7.243-6.466,12.494-6.242c7.545,0.321,8.848,9.528,7.136,18.736c6.845-2.071,12.134-5.717,19.64-7.136
				c12.698-13.69,37.277-28.041,61.564-21.419c2.937-0.34,3.938-2.605,6.252-3.568c23.314-2.635,41.847,10.375,58.891,16.957
				c11.249,4.346,24.034,7.36,29.449,18.736c1.526-0.039,2.314,0.671,2.674,1.789c15.8-0.603,19.971,16.47,30.345,24.093
				C512.786,167.654,512.28,169.647,513.603,169.812z M504.677,192.126c2.305-4.171,4.492-12.251,4.463-14.283
				c-0.165-9.83-16.022-34.739-30.345-29.45c-1.682-3.364-3.685-6.427-4.462-10.705c-26.894-9.275-46.951-28.809-82.983-27.661
				c-2.489,1.079-3.384,3.763-4.463,6.242c-5.775-6.291-20.029-4.706-27.661-0.885c35.867,1.011,59.435,14.331,78.521,32.124
				c6.971,8.838,8.031,20.962,14.282,26.767c-1.234,6.446,3.297,19.718,3.568,26.767c0.176,4.453-0.253,10.364-0.895,14.283
				c-5.493,33.514-30.296,59.425-57.995,71.384c-52.114,14.146-96.265-8.157-119.58-38.366c2.499,15.936-2.013,38.891,8.031,47.291
				c27.797-15.75,38.978,7.604,55.322,19.631c4.638,3.412,9.713,2.654,11.609,8.03c18.522,3.063,35.109-0.136,54.428-2.674
				c6.68-6.426,13.456-12.309,19.63-21.419c3.986-5.872,8.43-12.026,12.494-17.841c8.245-11.794,16.675-25.405,24.987-36.587
				c0.963-1.293,3.51-1.468,4.463-2.684c2.937-3.714,3.384-8.876,6.242-13.378C483.346,214.518,498.679,202.958,504.677,192.126z
				 M506.456,239.418c2.752-7.759-0.408-17.316,0.895-26.767c-1.138-0.048-1.234-1.147-2.674-0.895
				c-20.913,26.106-46.785,58.58-45.512,93.698c14.419-4.92,23.539-15.129,37.481-20.524c1.809-10.978,6.98-18.6,7.136-31.239
				c-6.553-1.352-9.537,8.206-18.735,7.146C492.31,253.389,502.859,249.588,506.456,239.418z M444.893,203.726
				c0.359-1.721,3.451-0.71,2.674-3.568c-1.663-8.002,1.896-24.073-8.031-31.239c-0.194-2.869,1.575-3.772,0.895-7.137
				c-2.499-4.346-8.265-5.416-12.494-8.031c0.613-3.315,0.428-2.333,0.895-6.242c-4.336-7.263-15.653-3.86-19.63-12.494
				c-2.907,0.515-4.161-0.612-6.252-0.895c-0.204-1.692,1.002-1.974,0.895-3.568c-5.503-2.382-8.905-4.433-14.282-0.894
				c-10.89-2.654-18.892-4.492-30.335-8.926c-2.985,5.863-9.917,2.83-15.167,1.789c-4.949,4.871-10.481,9.159-16.062,13.388
				c-0.233-1.254-1.964-1.021-2.683-1.789c-6.631,6.193-25.97,10.783-33.019,8.031c-11.278,11.22-17.705,30.383-18.736,49.08
				c3.121,4.618,7.982,12.231,8.926,16.062c-4.259-1.4-2.878-8.43-8.031-8.926c4.162,15.401-3.023,33.962,9.811,41.944
				c0.496,3.558,0.496,2.683,0,6.241c2.975,1.498,9.236-0.311,8.925,4.463c-0.243,1.838-3.947,0.214-3.568,2.674
				c1.322,0.759,1.293,2.878,1.789,4.463c6.038,0.904,14.069,3.228,13.378,8.031c6.631,3.188,14.03,5.609,18.746,10.714
				c11.356-2.421,17.326,9.479,28.555,2.674c2.343,0.622,1.886,4.064,4.453,4.463c12.367-5.697,33.543,2.557,39.271-10.705
				c6.261,5.124,9.401-4.481,18.735-1.789c2.45-11.055,20.048-11.316,17.851-24.093c6.009-4.695,6.252-15.167,11.6-20.524
				c0.768-2.849-1.41-2.761-1.789-4.463c1.935-2.819,5.658-3.859,6.252-8.031C448.169,209.958,444.163,209.209,444.893,203.726z
				 M447.566,311.696c-1.595-4.939-1.235-11.853-6.242-13.389c-3.315,6.505-9.674,9.966-11.609,17.852
				C436.084,315.089,440.867,312.435,447.566,311.696z M296.757,317.054c17.997,3.276,40.291,11.249,58.9,8.03
				c-8.439-0.787-10.141-8.303-18.745-8.925c-7.078-6.797-13.311-17.385-23.199-21.42c-9.616-3.918-18.444,3.189-28.555,3.568
				C288.405,305.182,293.024,310.675,296.757,317.054z M348.511,345.609c-7.516-1.565-9.149,2.741-9.81,8.03
				C342.823,351.812,345.322,348.36,348.511,345.609z M300.325,129.658c-1.04-0.146-0.962-1.41-0.885-2.674
				c-8.857,1.905-17.326,7.768-18.745,14.273c-0.895,0-1.779,0-2.674,0c-1.828,9.353-4.327,17.316-3.568,24.987
				c-0.603,4.793,0.982-3.782,0.895-3.568c2.207-5.027,7.253-12.844,8.916-16.957C289.271,140.022,295.96,135.997,300.325,129.658z"
				/>
			<path d="M491.289,118.059c4.871,3.257,12.62-0.321,18.745,0.895c-3.598,2.353-9.538,2.363-15.177,2.674
				c-0.759,3.743,3.996,1.954,5.357,3.568c-7.847,0.982-12.951,0.214-23.199,0.895c0.321-6.048-6.922-2.684-7.136-6.242
				c-2.615-0.233-2.752,2.013-5.357,1.779c-0.428-2.8,2.401-2.353,2.674-4.463c-9.383,3.442-12.406-6.339-24.093-5.357
				c-3.986-6.718,1.546-12.883,6.252-16.062c2.168-0.02-6.185,5.708-5.357,13.388c8.877-2.985,17.364-0.982,25.882-4.463
				c-1.77,3.296-6.952,3.17-9.82,5.357c5.046,11.181,16.169-0.156,21.419-4.463c-1.546,4.414-5.979,5.931-8.03,9.82
				c0.651,2.012,3.393,1.944,3.567,4.462c8.819-2.508,12.728-2.771,19.631-4.462C495.829,117.252,494.012,118.098,491.289,118.059z"
				/>
			<path d="M511.813,309.917c-6.786-2.042-9.062,0.651-14.272-1.789C499.135,303.782,510.044,306.368,511.813,309.917z"/>
			<path d="M500.215,313.485c-0.865,2.975-5.357-2.703-9.82,0c-3.121,3.412-5.63,7.447-8.916,10.704
				c0.535-6.008,5.095-7.992,5.348-14.272C492.562,309.829,495.158,312.882,500.215,313.485z"/>
			<path d="M523.413,84.146c-25.309-3.831-54.059-11.969-73.173-24.978c-12.251-2.052-22.46-5.62-30.335-9.82
				c-19.961-2.275-37.715-11.171-56.217-14.283c-10.899-1.818-23.218-5.601-34.808-5.348c-33.397,0.729-55.419,24.209-78.521,40.155
				c25.775-13.543,41.069-27.233,70.49-35.692c-24.035,8.264-42.78,23.655-62.458,36.586c-5.678,3.724-12.319,5.717-17.851,9.81
				c-6.33,4.687-13.028,13.028-19.63,18.746c-2.897,2.499-7.604,3.714-10.705,6.242c-6.534,5.309-12.795,10.384-17.851,17.851
				c-11.026,5.629-15.887,17.423-23.199,26.767c1.235,4.706,6.086,5.814,8.926,8.925c1.77-0.214-3.004-2.635,0-4.462
				c4.852,4.657,8.332,10.695,17.841,10.705c0.185-6.067-7.457-7.272-4.462-13.378c1.099,0.389,1.837,1.138,1.789,2.674
				c0.855-1.876,2.995-7.049,0.895-8.926c4.219-1.925,0.214,9.985,2.673,14.283c3.656,2.159,4.706-1.225,8.031-1.789
				c-2.664,1.274-0.01,2.761-2.674,4.463c0.097,2.275,2.985,1.77,5.348,1.779c-3.296,3.49,0.165,4.258,0.894,8.041
				c-3.743,2.868-6.845-1.079-8.925-2.684c-1.429,2.013-3.004,7.049-6.242,4.463c0.943,2.791,0.321,4.424,0.895,8.925
				c-2.032,1.546-4.988,2.149-8.926,1.779c-1.332,0.758-1.293,2.878-1.789,4.463c2.664,2.1,5.124,4.395,9.82,4.463
				c0.136,7.729-10.462,5.192-15.167,3.568c0.136,1.041-0.204,1.595-0.895,1.789c-0.797,2.878,2.907,1.254,3.568,2.674
				c-0.331,3.238-6.534,0.612-7.137,3.568c1.264,2.557,4.832-2.411,6.242,0c-1.886,7.331-10.005,8.439-16.062,11.608
				c0.768,0.72,0.535,2.44,1.789,2.674c-5.357,3.277-16.752,0.506-20.525,5.357c4.181,3.15,13.777-1.195,15.167,6.242
				c6.854-1.575,10.316-1.42,18.736-1.789c4.044-9.927,14.662-11.745,24.093-14.273c-7.37-8.507-5.484-25.026,3.568-32.124
				c6.514-5.104,12.659-5.863,15.177-13.388c2.305-6.893,4.006-15.76,11.6-16.956c11.278-1.77,17.705,8.177,19.63,18.745
				c11.424,35.255,21.624,94.903-4.463,120.465c-1.517-4.22,4.9-8.168,6.252-12.494c-3.141-6.971-8.323-11.9-9.82-20.524
				c-6.923-7.943-16.286-13.456-24.093-20.524c-2.927-8.439-3.034-17.891-6.252-24.093c-14.079,5.727-27.923,6.971-35.692,19.63
				c-5.912-4.453-13.243,4.871-19.63-0.885c-2.421,1.74-3.218,5.104-6.242,6.242c0.01,2.664,2.314,3.033,2.673,5.356
				c0.7,19.28-19.63,72.609,8.926,79.415c18.415,4.395,14.525-25.882,32.124-26.767c4.016-0.204,6.407,3.335,13.388,3.568
				c7.71,11.327,13.612,24.463,23.199,33.903c4.832,0.282,3.86,0.846,8.031,1.789c5.202,7.671,19.387,3.675,27.661,3.568
				c8.702-4.638,18.143-8.265,29.45-8.031c1.682,1.935,4.531,2.081,2.673,5.357c3.218,0.534,2.635-2.723,5.357-2.684
				c-0.574,5.387-6.806,5.104-8.925,8.926c-0.895-1.75,3.549-4.638,0-8.031c-5.416,1.73-10.365,3.918-13.388,8.031
				c-1.526-2.752,4.939-5.153,6.251-8.031c-11.521,1.866-20.097,6.68-28.556,11.599c-0.252-1.438,0.846-1.536,0.895-2.673
				c-7.195,0.242-9.742,5.133-13.388,8.925c-1.478-2.994,4.366-6.319,7.137-8.03c-8.167-3.442-17.783-3.219-24.987-8.031
				c-11.492-7.69-14.156-25.921-24.093-34.808c-24.511-9.849-24.258,21.39-35.692,24.987c-8.041,0.612-11.521-3.354-16.956-5.348
				c-17.122-21.594-1.06-49.439-4.463-74.962c0.729,0.166,0.895,0.895,1.789,0.895c0.622-3.898-2.577-3.967-2.674-7.137
				c-11.201,2.013-17.511,12.183-27.671,16.947c-3.879,1.828-8.741,2.527-12.494,4.463c-12.562,6.484-29.829,9.78-49.07,13.388
				c11.492-5.483,30.199-8.43,41.934-10.704c-0.107-1.604,1.099-1.887,0.894-3.578c-9.46-3.656-22.401,2.488-33.913-0.885
				c-0.671-2.509,2.781,0.02,3.568,0c5.24-0.117,13.787-2.723,22.313-3.568c8.994-0.904,18.502,0.914,24.093-4.463
				c0.438-2.819-4.424-0.33-3.568-3.568c13.203-2.266,22.605-8.332,32.124-14.282c-8.537-8.809-30.597-2.858-40.155,0.895
				c-3.694-2.752-11.443,1.74-16.062,3.568c11.084-9.441,29.44-11.609,49.975-11.6c-3.374-3.627-2.8-2.197-6.252-7.137
				c3.753,3.529,9.917,4.618,14.283,0.885c-1.361-1.691-7.729,0.068-9.82-0.885c0.953-2.032,5.61-0.34,8.031-0.895
				c-7.982-7.185-17.462-12.873-24.093-21.419c2.654-0.836,4.774,6.504,11.599,4.463c0.272,3.646-1.867,0.477-3.568,0.895
				c5.455,14.516,27.525,10.987,37.481,2.674c-12.649-0.078-23.451,0.943-33.018-1.779c7.583-2.256,22.197-1.945,29.45-7.146
				c-4.395-3.636-12.814-3.247-16.957-7.136c7.729,0.7,14.905,6.378,22.304,4.463c-6.903-5.29-14.681-9.713-21.409-15.167
				c-1.176,2.11-9.324,10.141-1.789,9.81c-2.703,2.645-7.486-0.194-8.031-2.674c-2.927,2.723-8.265,3.043-10.705,6.242
				c-0.359-7.798,12.368-10.229,16.062-16.947c-1.935-6.699-9.188-8.07-10.714-15.177c4.463,4.171,8.255,9.003,13.388,12.494
				c4.016-4.015,6.397-9.664,9.82-14.273c0.243-3.52-3.821-2.732-3.578-6.251c-1.643-2.168,2.907,2.382,3.578,3.578
				c42.051-49.868,83.868-99.959,144.557-131.179c-5.211-3.558-16.451,3.559-20.524-1.789c25.853-1.75,44.433-1.876,67.816,4.462
				c18.765,3.948,38.356,7.078,56.216,11.599C447.343,50.107,478.757,76.368,523.413,84.146z M254.823,274.215
				c5.406-16.703,8.089-38.025,4.453-60.679c-3.958-24.676-10.763-47.981-25.872-53.533c-6.203,6.884-6.553,19.621-12.494,26.767
				c-9.363-0.544-17.034,12.085-19.63,16.062c0.778,3.977,1.604,7.914,3.568,10.705c3.792,0.224,4.803-2.333,8.925-1.779
				c7.137,1.556,4.852,6.456,5.348,10.705c2.255,19.154,14.584,20.972,26.776,33.019
				C248.416,262.179,250.195,269.626,254.823,274.215z M188.787,174.275c0.253-2.032-0.214-3.354-1.789-3.568
				c-0.243,1.838-3.947,0.214-3.568,2.674C185.529,173.361,186.055,174.917,188.787,174.275z M175.398,176.064
				c2.499,2.586,9.596,9.178,11.599,1.779c-4.803-2.032-9.333-4.336-15.167-5.348c1.4-0.087,3.092,0.117,2.674-1.789
				c-6.018-1.711-8.42-7.049-14.273-8.925c-3.646,4.385-6.437,9.625-8.925,15.167c7.982,4.57,17.122,12.562,26.776,12.494
				c-1.974-6.368-12.085-9.324-12.494-14.273c5.435,4.074,9.217,9.81,16.062,12.494c-0.204-1.692,1.001-1.974,0.885-3.568
				C180.59,180.984,175.554,180.955,175.398,176.064z M167.368,152.856c-14.652,7.214,9.538,23.49,19.63,16.062
				C180.104,162.919,175.933,158.146,167.368,152.856z M159.336,213.536c-4.044,0.126-6.65,1.682-9.81,2.684
				C152.317,219.748,157.761,216.472,159.336,213.536z M118.287,257.269c4.939-1.021,8.07-3.831,10.714-7.146
				C125.103,252.184,120.504,253.535,118.287,257.269z"/>
			<path d="M484.152,340.252c-5.328-5.669-5.999-16.014-10.704-22.304c-0.875-3.248,4.346-0.419,2.674-4.463
				c1.195,0.885,1.75,2.411,3.567,2.674C475.762,323.14,482.393,333.203,484.152,340.252z"/>
			<path d="M478.795,102.892C472.067,107.325,468.489,103.757,478.795,102.892L478.795,102.892z"/>
			<path d="M464.522,321.516c0.418,2.791-2.246,2.519-3.568,3.568c0.408,4.055,5.27,3.646,5.348,8.031
				c-2.995-2.353-6.854-3.851-8.031-8.031C459.865,323.402,460.866,321.137,464.522,321.516z"/>
			<path d="M457.386,325.084c-0.661,2.022-3.402,1.954-3.578,4.463c-6.533-5.444-10.345,7.924-12.483,9.811c0-2.372,0-4.755,0-7.137
				c-12.271,1.41-17.413,9.956-22.313,18.745c-1.76-5.648,6.223-9.246,8.03-14.282c-2.955-4.2-6.757,0.787-10.704,0.895
				c2.013-3.335,6.066-4.638,9.81-6.252c0.875,1.206,2.383,1.789,3.568,2.684c3.733-1.226,9.489-9.295,13.389-4.463
				C446.205,324.375,452.544,324.365,457.386,325.084z"/>
			<path d="M460.06,376.838c-4.842,8.255-18.152,10.812-28.556,16.957C438.884,385.997,452.408,384.354,460.06,376.838z"/>
			<path d="M443.998,90.397c0.777,4.482-10.112,17.112-19.631,14.273C428.247,97.243,440.75,100.052,443.998,90.397z"/>
			<path d="M431.504,416.993c-3.889,1.468-4.91,5.805-9.819,6.252C424.708,420.901,426.342,417.188,431.504,416.993z"/>
			<path d="M426.146,185.875c11.026,40.865-23.246,64.86-55.321,77.636c-24.463,0.116-49.722-8.333-59.785-22.305
				c-3.17,4.113-4.142-2.178-7.146-5.356c-5.26-5.581-15.945-12.31-15.167-14.283c4.074,1.877,6.038,5.863,9.82,8.031
				c0.252-7.088-2.888-10.792-2.684-17.841c6.32,7.662,5.124,22.838,16.062,25.873c5.94-10.413,12.484-20.243,18.745-30.335
				c-6.699-17.024-15.313-51.268-4.463-66.931c2.577,2.683-2.129,3.121-0.894,7.146
				C363.766,124.155,416.716,150.912,426.146,185.875z M395.812,175.17c2.255-3.296,4.142-4.628,2.673-9.82
				c-7.777-4.852-24.073-5.328-18.735,9.82C386.527,177.377,388.617,171.787,395.812,175.17z M398.485,230.492
				c-6.154-7.224-4.229-22.547-9.81-30.335c-7.545,1.672-12.494,5.95-16.062,11.599c4.755,8.468,2.246,25.824,3.568,33.018
				C383.318,243.277,393.235,236.851,398.485,230.492z"/>
			<path d="M428.83,394.689c-0.661,2.907-4.463,2.684-7.146,3.568C420.936,393.931,426.468,395.895,428.83,394.689z"/>
			<path d="M411.874,93.966c6.894-0.243,10.753-3.52,16.062-5.357c-3.218,5.707-10.529,7.321-16.956,9.82
				c-7.127-5.425-12.552-4.482-19.63-3.568c0.496-2.479,3.451-2.499,5.357-3.568c-2.12-2.051-5.932-2.401-5.357-7.146
				c3.665-0.097,2.965,4.171,6.242,4.463c1.983,0.496,1.273-1.702,2.683-1.779c8.304,2.285,13.116-1.682,19.631-3.568
				c-3.802,3.034-8.751,4.929-13.389,7.136c0.204,1.274,4.443-0.826,7.137,0C413.196,91.72,412.341,92.644,411.874,93.966z"/>
			<path d="M417.222,423.245c-13.038,0.836-32.124,0-41.935-5.357C387.324,420.017,400.829,422.963,417.222,423.245z"/>
			<path d="M398.485,398.258c0.71,0.019,1.459-1.313,2.674-0.895C394.995,401.368,385.467,397.917,398.485,398.258z"/>
			<path d="M393.129,73.441c4.472-0.292,5.542-3.986,8.925-5.357c-1.517,5.328-12.173,9.237-13.378,17.851
				c-0.428,2.8,2.401,2.353,2.674,4.462c-0.904,2.363-1.469,5.076-4.463,5.348c0.612-2.392-1.848-1.721-2.674-2.674
				c1.322-9.975,5.444-17.151,9.811-24.093C396.25,69.601,392.37,71.361,393.129,73.441z"/>
			<path d="M380.635,400.036c1.245-2.031,6.213-0.33,8.926-0.885C388.325,401.184,383.357,399.482,380.635,400.036z"/>
			<path d="M380.635,77.01c0.555,2.956-8.517,3.957-9.81,8.031c1.011,1.964,5.882,0.058,6.241,2.674
				c-0.885,4.346-6.815,0.194-9.81,0.895c-3.296,0.651,0.379,2.683-1.789,4.462c-2.713-0.554-4.56-1.983-4.463-5.357
				c-1.663,1.75-3.267,0.282-5.348,0c0.69-0.788,0.953-2.013,0.885-3.568c5.328,0.457,7.272-1.624,9.82-1.779
				c5.571-8.439,8.721-26.98-0.895-32.124c9.148-0.088,8.721,19.99,6.251,29.44C375.55,79.654,378.282,78.526,380.635,77.01z"/>
			<path d="M363.688,415.214c-2.022,1.079-9.12-0.379-11.6-1.789C353.577,412.87,360.558,414.436,363.688,415.214z"/>
			<path d="M361.005,92.177c-8.527-0.816-14.001,4.356-19.63,0.895c-3.023,1.138-4.667,3.666-7.136,5.357
				c-13.447-6.164-24.647,9.333-38.375,0c0.01,6.251-4.521,7.963-6.242,12.494c-4.939,1.128-13.641-0.846-17.851,6.242
				c-0.447-3.587-0.544-8.935,2.683-11.599c-5.62-7.817-14.943-16.528-15.177-26.767c3.383,5.25,5.843,11.405,8.925,16.947
				c1.702-0.379,2.246-1.916,4.463-1.779c0.35,3.218,2.635,4.502,4.462,6.242c0.836-3.228-4.258-8.216-3.568-14.273
				c5.63,7.506,4.647,16.587,14.273,20.524c1.322-8.274,2.528-16.742-1.779-24.093c1.517-0.331,1.682,0.69,1.779,1.779
				c2.421-5.25,5.007,8.119,6.252,12.494c3.724,0.204,4.21-1.449,7.136,0c-2.499-4.929-5.775-9.091-8.925-13.378
				c4.589,0.185,8.459,8.78,13.388,11.599c0.72-0.477,1.449-0.933,2.674-0.895c-3.743-7.856-5.241-17.958-7.137-27.661
				c4.278,7.623,4.589,19.203,9.82,25.872c2.956-0.282-2.353-3.889,0.885-4.462c2.995,0.292,1.449,5.095,4.462,5.357
				c1.264-1.711,4.336-1.614,6.252-2.674c-1.371-2.362-0.535-5.386,1.779-8.031c2.003,0.379,0.369,4.395,0.895,6.242
				c4.88-7.944,11.385-17.481,7.136-29.44c3.15,1.215,2.557,19.241,2.684,25.872c6.699-3.996,12.046-9.363,16.956-15.167
				c-3.51,10.18-14.127,13.232-19.64,21.419c15.255-4.686,24.394-15.479,32.124-27.67c-3.5,9.285-9.14,16.441-15.167,23.208
				C353.693,88.793,355.813,89.892,361.005,92.177z M327.996,91.292c3.705-1.079,3.792-10.452,3.568-12.494
				C330.058,82.649,328.803,86.742,327.996,91.292z"/>
			<path d="M332.449,391.121c5.406-1.702,9.227-2.042,17.851-1.789c-3.15,2.664-11.434,1.303-13.388,2.674
				c-7.72,13.534-25.493,17.15-40.155,21.419C307.491,404.83,329.056,407.057,332.449,391.121z"/>
			<path d="M276.232,309.022c-4.482,1.196-9.353-4.91-14.273-6.252C266.578,301.448,270.788,308.206,276.232,309.022z"/>
			<path d="M275.348,405.394c-6.232,3.141-10.918-3.306-15.177-4.463c-9.354-2.547-14.127-1.468-20.525-7.136
				c-10.209-9.062-19.416-21.089-33.903-25.882c15.362,2.78,28.157,15.867,37.471,27.661
				C253.997,398.782,264.964,401.797,275.348,405.394z"/>
			<path d="M240.541,96.64c12.192,6.796,30.267,9.946,28.556,25.882c-2.897-0.447-6.019-0.583-8.031-1.789
				c-1.215,0.282-0.739,2.236-0.894,3.568c-10.034-0.671-9.976-11.434-13.378-18.736c2.926,4.502,6.815,8.051,8.916,13.388
				c2.032-0.651,4.56-0.797,6.251-1.789C262.689,105.05,247.833,103.417,240.541,96.64z"/>
			<path d="M266.422,317.054c-4.822,0.642-13.369-2.693-15.177-8.031C255.251,312.756,260.268,315.469,266.422,317.054z"/>
			<path d="M257.497,127.879c-0.292,2.081-1.07,3.685-1.789,5.347c-3.306,0.632-3.831-1.526-7.137-0.895
				c0.379-1.857-0.612-2.362-0.894-3.568c-2.489,0.953-5.824,4.239-8.916,1.789c4.832-3.13,3.208-9.654,0.885-14.282
				c-10.607,4.2-0.418,17.821-5.348,22.313c-0.155,1.935,3.16,0.398,4.463,0.895c-0.914,1.167-0.875,3.286-1.789,4.462
				c-11.619-1.808-13.612,6.019-21.419,8.031c-0.661,2.742,2.45,1.711,1.789,4.462c-3.733-0.758-3.539,2.412-5.357,3.568
				c-3.15-0.749-3.033-5.299-7.136-2.684c4.307-4.297-3.199-8.254-7.137-9.81c1.187-2.538,3.967,0.681,5.348,0.885
				c2.217-1.05,1.079-5.464,5.357-4.453c-1.691,2.168-2.459,5.29,0,7.137c1.604-3.753,8.712-2.003,11.6-4.463
				c-5.649-6.125-16.033-4.093-24.093-8.925c8.148-0.506,10.929,3.792,20.525,2.674c-1.031-5.513-5.114-7.973-6.242-13.378
				c4.502,2.45,8.887,14.146,12.484,11.599c1.595,0.651,0.136,1.624,0,2.674c1.507,1.449,6.067-1.624,9.82-0.895
				c-2.217-4.375-5.629,1.458-8.031-0.885c0.166-2.907,1.556-0.651,4.463-1.789c2.09-12.708-3.248-14.312-8.925-22.304
				c-1.527-0.039-2.314,0.661-2.674,1.779c-1.274-1.089-2.032-3.403-0.895-4.462c7.224,2.294,9.509,9.538,15.167,13.388
				c2.11-4.803,6.845-10.229,4.161-15.896c1.604,2.324,3.695,0.914,4.764-1.955c2.207-1.614-1.4,3.879-0.895,6.252
				C246.053,118.496,253.686,121.277,257.497,127.879z M245.898,126.09c1.779,0,3.568,0,5.347,0
				c-1.069-3.384-3.432-5.484-7.136-6.242C244.76,121.87,244.906,124.398,245.898,126.09z"/>
			<path d="M235.183,109.133c0.224,0.35,0.428,0.71,0.593,1.06C235.562,109.901,235.368,109.551,235.183,109.133z"/>
			<path d="M229.836,282.246c-2.693-1.478-5.328-3.121-7.895-4.91C224.722,279.076,227.376,280.72,229.836,282.246z"/>
			<path d="M189.681,248.343c9.625,9.499,20.262,20.681,32.26,28.993c-14.234-8.877-31.589-20.223-42.08-31.677
				c-0.866-0.942-2.519-2.994-1.779-4.453C182.204,239.719,186.453,245.164,189.681,248.343z"/>
			<path d="M209.311,283.141c1.06,2.353-4.288,2.305,0,2.684c-4.667,1.069-8.575-6.291-13.388-8.031
				C200.366,273.058,203.954,283.005,209.311,283.141z M207.522,284.93c-0.613-3.559-4.473-3.86-7.137-5.357
				C194.494,273.563,203.837,284.327,207.522,284.93z"/>
			<path d="M220.016,398.258c-8.138-5.844-24.375-11.317-34.798-17.852c-14.954-1.399-15.964-16.762-31.239-17.841
				c8.644-2.519,18.113,9.12,24.103,15.167C194.367,382.264,208.3,389.157,220.016,398.258z"/>
			<path d="M189.681,357.208c3.831,4.19,8.779,7.282,15.167,8.926C200.366,366.134,190.42,363.917,189.681,357.208z"/>
			<path d="M192.355,274.215c1.77,0.02,1.137,2.44,3.568,1.789c-2.285-2.984-3.617-1.614-7.136-2.674
				c0.165-0.729,0.895-0.895,0.895-1.789c-9.723-5.454-20.087-10.257-25.882-19.63c11.336,5.444,18.697,15.653,27.661,18.735
				c0.252,1.449-0.846,1.536-0.895,2.684c3.267-1.837,4.016,0.398,6.251,1.779C196.652,277.852,192.015,276.986,192.355,274.215z"/>
			<path d="M148.632,267.079c-6.884-5.28-23.48,4.277-30.345-1.779C126.736,266.281,142.001,259.884,148.632,267.079z"/>
			<path d="M37.083,289.393c2.158-2.013,6.446-1.887,9.82-2.684C44.336,288.313,41.419,289.558,37.083,289.393z"/>
			<path d="M36.199,289.393c-2.577,1.409-4.978-0.146-9.82,0C24.541,287.982,35.061,287.982,36.199,289.393z"/>
			<path d="M24.59,287.604c-2.577,1.643-7.156-2.324-10.705-2.674C13.447,283.102,21.799,286.835,24.59,287.604z"/>
		</g>
	</g>
</g>
<g id="Layer_2_x23_FFFFFF">
	<g>
		<g>
			<path fill="#FFFFFF" d="M563.567,217.113c2.645,16.422-10.102,39.3-19.63,41.935c-12.873,3.559-21.399-20.505-21.419-32.124
				c0-3.5,2.965-9.421,3.578-14.273c1.574-12.552,5.24-19.659,12.493-24.987c7.613,3.383,12.854,9.149,19.63,13.378
				C557.715,206.574,562.576,210.95,563.567,217.113z"/>
			<path fill="#FFFFFF" d="M517.171,259.048c4.016,0.447,4.949,3.967,7.137,6.252c-1.926,1.935-4.288,3.441-8.031,3.567
				C515.586,264.609,517.677,263.121,517.171,259.048z"/>
			<path fill="#FFFFFF" d="M509.14,177.844c0.029,2.032-2.158,10.111-4.463,14.283c-5.998,10.831-21.331,22.391-30.344,36.586
				c-2.858,4.502-3.306,9.664-6.242,13.378c-0.953,1.216-3.5,1.391-4.463,2.684c-8.312,11.182-16.742,24.793-24.987,36.587
				c-4.064,5.814-8.508,11.969-12.494,17.841c-6.174,9.11-12.95,14.993-19.63,21.419c-19.318,2.538-35.905,5.737-54.428,2.674
				c-1.896-5.376-6.971-4.618-11.609-8.03c-16.344-12.027-27.525-35.381-55.322-19.631c-10.044-8.4-5.532-31.355-8.031-47.291
				c23.315,30.209,67.466,52.513,119.58,38.366c27.699-11.959,52.502-37.87,57.995-71.384c0.642-3.918,1.07-9.83,0.895-14.283
				c-0.271-7.049-4.803-20.32-3.568-26.767c-6.251-5.804-7.312-17.929-14.282-26.767c-19.086-17.792-42.653-31.113-78.521-32.124
				c7.632-3.821,21.886-5.406,27.661,0.885c1.079-2.479,1.974-5.163,4.463-6.242c36.032-1.147,56.09,18.386,82.983,27.661
				c0.777,4.278,2.78,7.341,4.462,10.705C493.117,143.104,508.975,168.014,509.14,177.844z"/>
			<path fill="#FFFFFF" d="M507.351,212.651c-1.303,9.451,1.857,19.008-0.895,26.767c-3.597,10.17-14.146,13.971-21.409,21.419
				c9.198,1.06,12.183-8.498,18.735-7.146c-0.155,12.64-5.327,20.262-7.136,31.239c-13.942,5.396-23.062,15.604-37.481,20.524
				c-1.273-35.118,24.599-67.592,45.512-93.698C506.116,211.504,506.213,212.603,507.351,212.651z"/>
			<path fill="#FFFFFF" d="M441.324,298.308c5.007,1.536,4.647,8.449,6.242,13.389c-6.699,0.738-11.482,3.393-17.852,4.463
				C431.65,308.273,438.009,304.812,441.324,298.308z"/>
			<path fill="#FFFFFF" d="M398.485,165.35c1.469,5.192-0.418,6.524-2.673,9.82c-7.195-3.383-9.285,2.207-16.062,0
				C374.412,160.022,390.708,160.499,398.485,165.35z"/>
			<path fill="#FFFFFF" d="M388.676,200.157c5.581,7.788,3.655,23.111,9.81,30.335c-5.25,6.358-15.167,12.785-22.304,14.282
				c-1.322-7.194,1.187-24.55-3.568-33.018C376.182,206.107,381.131,201.83,388.676,200.157z"/>
			<path fill="#FFFFFF" d="M299.44,126.984c-0.078,1.264-0.155,2.528,0.885,2.674c-4.365,6.339-11.055,10.364-16.062,16.062
				c-1.663,4.113-6.709,11.93-8.916,16.957c0.088-0.214-1.497,8.361-0.895,3.568c-0.758-7.671,1.741-15.634,3.568-24.987
				c0.895,0,1.779,0,2.674,0C282.115,134.752,290.583,128.89,299.44,126.984z"/>
			<path fill="#FFFFFF" d="M259.276,213.536c3.636,22.654,0.953,43.976-4.453,60.679c-4.628-4.589-6.407-12.036-8.925-18.735
				c-12.192-12.047-24.521-13.864-26.776-33.019c-0.496-4.249,1.789-9.149-5.348-10.705c-4.123-0.554-5.134,2.003-8.925,1.779
				c-1.964-2.791-2.791-6.728-3.568-10.705c2.596-3.977,10.267-16.606,19.63-16.062c5.94-7.146,6.291-19.883,12.494-26.767
				C248.513,165.554,255.319,188.859,259.276,213.536z"/>
		</g>
	</g>
</g>
<g id="Layer_3_x23_00A33D">
	<g>
		<g>
			<path fill="none" d="M388.676,200.157c5.581,7.788,3.655,23.111,9.81,30.335c-5.25,6.358-15.167,12.785-22.304,14.282
				c-1.322-7.194,1.187-24.55-3.568-33.018C376.182,206.107,381.131,201.83,388.676,200.157z"/>
			<path fill="#00A33D" d="M447.566,200.157c0.777,2.858-2.314,1.847-2.674,3.568c-0.729,5.483,3.276,6.232,3.568,10.705
				c-0.594,4.171-4.317,5.211-6.252,8.031c0.379,1.702,2.557,1.614,1.789,4.463c-5.348,5.357-5.591,15.829-11.6,20.524
				c2.197,12.776-15.4,13.038-17.851,24.093c-9.334-2.692-12.475,6.913-18.735,1.789c-5.728,13.262-26.903,5.008-39.271,10.705
				c-2.567-0.398-2.11-3.841-4.453-4.463c-11.229,6.806-17.199-5.095-28.555-2.674c-4.716-5.104-12.115-7.525-18.746-10.714
				c0.69-4.804-7.34-7.127-13.378-8.031c-0.496-1.585-0.467-3.704-1.789-4.463c-0.379-2.46,3.325-0.836,3.568-2.674
				c0.311-4.773-5.95-2.965-8.925-4.463c0.496-3.559,0.496-2.684,0-6.241c-12.834-7.982-5.649-26.543-9.811-41.944
				c5.153,0.496,3.772,7.525,8.031,8.926c-0.943-3.831-5.805-11.444-8.926-16.062c1.031-18.697,7.458-37.86,18.736-49.08
				c7.049,2.751,26.388-1.838,33.019-8.031c0.719,0.768,2.45,0.535,2.683,1.789c5.581-4.229,11.113-8.517,16.062-13.388
				c5.25,1.041,12.183,4.074,15.167-1.789c11.443,4.434,19.445,6.271,30.335,8.926c5.377-3.539,8.779-1.488,14.282,0.894
				c0.107,1.595-1.099,1.876-0.895,3.568c2.091,0.282,3.345,1.41,6.252,0.895c3.977,8.634,15.294,5.231,19.63,12.494
				c-0.467,3.909-0.281,2.927-0.895,6.242c4.229,2.615,9.995,3.685,12.494,8.031c0.681,3.364-1.089,4.268-0.895,7.137
				C449.462,176.084,445.903,192.155,447.566,200.157z M370.825,263.511c32.075-12.776,66.348-36.771,55.321-77.636
				c-9.431-34.963-62.381-61.72-100.833-38.366c-1.235-4.025,3.471-4.463,0.894-7.146c-10.85,15.663-2.236,49.907,4.463,66.931
				c-6.261,10.092-12.805,19.922-18.745,30.335c-10.938-3.034-9.742-18.211-16.062-25.873c-0.204,7.049,2.936,10.753,2.684,17.841
				c-3.782-2.168-5.746-6.154-9.82-8.031c-0.778,1.974,9.908,8.702,15.167,14.283c3.004,3.179,3.977,9.47,7.146,5.356
				C321.103,255.178,346.362,263.627,370.825,263.511z"/>
		</g>
	</g>
</g>
</svg>
