<?xml version="1.0" encoding="utf-8"?>
<!-- Generator: Adobe Illustrator 14.0.0, SVG Export Plug-In . SVG Version: 6.00 Build 43363)  -->
<!DOCTYPE svg PUBLIC "-//W3C//DTD SVG 1.0//EN" "http://www.w3.org/TR/2001/REC-SVG-20010904/DTD/svg10.dtd">
<svg version="1.0" xmlns="http://www.w3.org/2000/svg" xmlns:xlink="http://www.w3.org/1999/xlink" x="0px" y="0px" width="612px"
	 height="576px" viewBox="0 0 612 576" enable-background="new 0 0 612 576" xml:space="preserve">
<g id="Layer_1_x23_000000">
	<g>
		<g>
			<path d="M525.254,95.64c2.912,12.036-3.575,25.236-7.231,35.573c-4.271,12.101-6.956,25.14-10.094,38.826
				c-3.867,16.954-7.394,38.712-15.515,49.696c-9.738,13.168-26.175,16.096-36.495,26.401c-8.897-2.297-10.984-14.43-6.989-23.295
				c9.27-7.652,34.766-13.977,34.167-31.06c-0.292-8.218-8.315-16.097-20.966-15.53c10.354,1.602,18.636,7.005,18.636,15.53
				c0,16.226-25.333,22.421-34.166,30.284c-1.262,5.371-2.572,12.845,0,17.859c-4.077,0.955-8.606-4.319-12.424-6.212
				c0.453-2.524-0.534-3.607-0.776-5.436c-18.232-20.335-37.726-39.408-59.015-56.685c-3.381,0.243-6.438,0.809-8.542,2.33
				c-23.699-20.804-45.426-43.614-71.422-62.121c15.384-8.444,29.394-16.549,43.468-27.938
				c25.382-20.561,44.374-50.877,86.969-55.132c25.625-2.572,51.233,9.723,76.081,11.647c17.326,1.327,25.755,0.227,34.167,10.871
				c8.444,10.661,13.249,29.604,15.529,47.367c-9.075,5.144-14.672,13.783-18.636,24.055c-2.621,0.227-4.448,1.246-7.765,0.777
				C528.149,115.845,527.729,104.44,525.254,95.64z M505.599,104.036c0.437-4.481,4.61-9.35,3.106-13.184
				C508.511,95.575,503.949,100.04,505.599,104.036z M502.493,113.354c-0.017-2.896,3.041-6.762,1.553-8.542
				C503.415,106.818,500.875,114.146,502.493,113.354z M498.626,198.77c3.236-17.747-4.157-32.646-3.105-48.144
				c0.857-12.909,4.724-23.796,5.419-35.719c-2.442,15.385-8.994,33.552-6.972,52.026c1.084,10.046,4.286,18.588,3.105,27.955
				c-0.825,6.471-4.869,10.661-4.659,17.083C494.712,207.812,496.572,203.186,498.626,198.77z"/>
			<path d="M504.046,428.6c-3.753-0.906-0.615,4.367,0,7.765c-9.351-6.795-14.236-17.391-24.832-24.071
				c-3.479-2.185-7.959-2.572-11.647-4.659c-3.753-2.119-7.604-6.391-11.647-9.318c-9.642-6.973-19.057-14.01-26.401-23.295
				c-31.772-16.178-62.541-32.646-97.063-46.591c-3.09-1.245-6.325-1.003-9.318-2.329c-20.448-9.027-40.038-21.419-57.445-33.39
				c-8.8-6.035-16.388-13.12-24.072-20.95c-20.869-21.241-39.585-45.231-60.567-66.78c-6.762-6.94-14.317-13.815-22.519-18.636
				c-8.348-4.902-18.717-6.762-28.731-12.424c-5.484-3.106-9.642-8.444-14.753-11.647c-5.063-3.171-9.917-4.627-13.961-7.765
				c-11.874-9.14-20.027-20.691-29.507-34.167c-11.68-16.549-28.763-30.575-34.166-50.457C48.172,76.179,54.19,86.29,63.039,93.181
				c15.239,11.841,35.542,17.601,58.998,22.502c16.161,3.381,35.331,2.119,50.473,6.988c12.764,4.109,24.039,14.269,35.719,19.413
				c12.294,5.419,27.194,7.992,38.825,14.754c14.123,8.218,25.722,23.133,40.378,34.943c13.265,10.693,29.005,22.276,42.692,32.613
				c21.807,16.453,43.112,30.251,72.991,40.378c9.868,3.333,21.564,5.403,27.178,10.095c9.447,7.878,15.935,25.074,20.189,39.586
				c6.195,21.159,7.57,44.616,20.188,59.014c8.979,7.862,20.901,12.926,26.401,24.849
				C501.085,407.051,496.427,421.157,504.046,428.6z M422.529,349.396c0.323,2.556,4.044,5.743,5.436,4.659
				C426.169,352.485,424.519,350.771,422.529,349.396z M422.529,347.843c-6.051-6.051-9.383-12.505-12.425-20.189
				c-3.381-8.542-2.701-18.636-6.212-27.161c-4.74-11.551-23.214-19.494-33.39-26.401c-8.04-5.468-16.63-10.386-24.848-14.754
				c-7.329,1.618-11.762-3.753-15.53-3.106c3.332,1.035,6.406,3.624,9.317,4.659c11.373,4.012,17.504,7.522,26.401,13.201
				c11.647,7.409,30.656,16.145,35.72,27.161C408.859,317.122,407.209,340.013,422.529,347.843z"/>
			<path d="M217.79,252.057c0.146,0.129,0.308,0.243,0.534,0.292C218.146,252.251,217.968,252.17,217.79,252.057z M217.758,252.041
				c-0.243-0.194-0.453-0.42-0.841-0.453c-5.484-3.123-9.835-7.685-17.229-10.111c-13.152-4.335-31.999-8.542-46.59-10.871
				c-5.387,2.103-5.161,9.835-6.212,16.307c-6.827-10.92,2.006-22.729,9.318-24.848c17.682-5.128,43.889,18.134,54.355,19.413
				c-18.976-21.402-36.286-44.471-64.45-56.685c-9.674,12.359-11.534,26.385-10.095,44.261
				c1.165,14.382,10.742,24.605,12.424,34.943c5.759,35.331-29.507,28.634-51.233,37.256c-19.186,7.636-23.166,22.988-20.965,44.261
				c-10.709-0.323-12.78,17.504-3.883,19.413c5.452,1.181,6.277-3.43,11.648-4.659c-2.75,2.831-1.99,3.77-1.553,7.765
				c1.585,14.997,13.362,34.83,24.072,44.262c3.316,2.928,14.495,10.951,22.502,10.094c15.886-1.698,13.459-26.74,25.625-36.495
				c12.57-10.079,22.502-10.338,27.955-19.413c3.09-5.128,5.548-14.802,5.436-17.859c-0.356-9.479-9.82-29.442-17.86-28.73
				c-6.972,0.631-12.731,13.556-13.977,23.295c-1.229,9.755,0.016,20.48-3.106,27.954c-1.424-22.082-0.566-54.259,17.083-56.685
				c22.163-3.025,26.272,24.557,34.166,38.825c4.772,8.622,10.224,21.046,19.413,24.071c8.978,2.944,18.927-0.032,26.401,2.33
				c14.527,4.594,18.798,24.961,11.647,36.495c-0.744-2.62,2.378-5.306,0-6.988c0.566,1.262-1.553,3.381-1.553,1.553
				c2.653-16.97-6.422-28.714-23.295-28.73c-2.313,14.947-15.837,25.074-28.73,29.507c-18.992,6.536-42.643,13.169-62.121,16.307
				c-1.974,4.013,2.152,9.981-0.776,12.425c-9.593-4.999-24.994-8.606-36.479-5.436c-3.478,0.954-5.743,3.882-9.318,6.212
				c-8.962,5.823-14.576,8.735-18.636,18.636c-0.469,1.133,1.1,2.734,0.777,3.883c-0.033,0.097-2.168,0.453-2.33,0.776
				c-9.981,18.507-1.683,62.735,7.765,76.081c16.015,22.632,44.002,23.312,76.858,21.742c-32.921-7.198-57.898-22.324-72.199-48.143
				c10.839,13.799,22.519,28.019,39.586,35.719c9.609,4.336,29.782,11.017,39.602,11.647c12.651,0.809,22.325-5.564,31.837-9.317
				c8.072-3.188,16.064-5.307,23.295-8.542c14.625-6.535,27.307-16.178,41.155-23.295c34.248-17.617,62.153-40.217,81.517-65.211
				c-6.034-11.583-6.195-28.31-10.871-40.378c-3.381-8.752-10.159-15.757-14.754-24.849c-4.433-8.816-6.681-20.318-9.317-31.06
				c-2.491-10.192-6.584-21.597-10.079-30.284c-5.242-12.926-13.896-16.565-24.848-23.295
				c-18.426-11.292-31.562-22.583-45.814-37.256c-17.698,9.221-57.251-3.413-66.779,13.977c2.2,4.53,11.033,2.411,14.753,5.436
				c-1.359,0.437-4.562-0.938-4.659,0.777c7.555,4.303,22.583,6.001,31.061,4.643c-14.948,4.853-37.191-1.052-45.038-10.855
				c7.797-5.096-1.925-20.043,5.436-26.401c-4.158-1.036-6.988,3.316-10.095,0.776c23.004-15.142,44.002,16.177,72.215,9.318
				c-1.019-4.514-9.561-12.133-13.201-13.978c0.048,0,0.097,0,0.146,0.017C217.191,251.75,217.467,251.912,217.758,252.041z
				 M526.564,40.378c17.147,8.865,25.074,38.34,25.625,62.104c-11.179,2.281-13.913,13.006-17.86,22.519
				c-1.245,1.602-3.882,1.812-6.988,1.553c-16.031,32.208-13.75,90.252-41.139,110.264c-7.021,5.128-15.109,7.102-24.071,11.647
				c-0.081,14.301-16.484,18.62-24.072,27.954c22.875,25.512,19.154,77.635,42.708,102.482c7.749,5.371,18.879,14.01,20.949,26.401
				c1.068,6.31-0.663,11.162,0.777,16.307c1.844,6.52,7.296,16.452,4.658,24.849c-7.149-6.438-11.017-13.88-17.066-20.189
				c-8.816-9.173-20.125-12.521-31.061-19.412c1.165,7.797-3.349,19.348,0,27.178c1.796,4.206,5.921,4.416,6.989,7.765
				c-8.591-1.764-12.716-7.991-14.754-16.307c-3.349,8.137-5.711,19.865-3.106,27.954c3.284,10.224,17.795,15.659,24.072,27.178
				c4.319,7.943,4.95,14.527,7.765,24.056c-5.711-4.595-6.147-10.289-10.095-15.514c-8.218-10.855-25.01-11.972-30.283-25.625
				c-0.631-0.146-0.776-0.793-1.554-0.776c0.696,13.249,15.19,20.188,10.871,33.373c-5.872-2.2-5.516-8.008-8.541-12.407
				c-5.452-7.927-16.986-11.551-18.637-23.296c-11.857,20.724,2.459,51.039,17.084,62.104c5.727,4.336,16.646,6.002,13.2,16.307
				c-15.449,3.139-23.376-14.301-34.942-20.189c-12.78-2.733-17.763-13.297-24.072-22.519c2.232,10.984,5.613,24.93,5.436,35.72
				c-3.591-4.336-3.511-10.92-6.988-15.53c-3.915-5.177-10.159-8.17-13.978-13.2c-10.014-13.152-6.373-29.297-11.647-51.233
				c-3.963,7.36-1.294,14.932-1.553,22.519c-0.518,15.304-12.036,26.449-13.978,40.362c-2.248,16.193,7.636,21.839,13.201,36.495
				c-9.513-8.881-17.067-19.363-17.859-34.942c-0.793-15.757,7.521-33.374,3.105-50.457c-15.95,11.761-30.462,27.599-48.127,41.139
				c-5.598,4.287-10.791,9.836-16.307,13.201c-6.406,3.915-13.994,6.163-20.966,10.095c-18.75,10.596-41.3,20.787-63.673,28.73
				c-29.702,10.547-80.32,12.44-104.812-5.436c-12.311-8.962-27.324-35.865-26.401-60.567c0.615-16.76,7.959-38.566,18.636-48.904
				c11.502-11.146,27.517-15.19,49.68-13.2c-0.583-1.99-1.132-3.575,0.776-4.659c-31.659,10.257-52.835-33.163-60.551-58.238
				c-18.879,3.511-18.167-23.812-3.882-24.848c-1.246-15.579,0.631-28.553,7.765-36.496c13.945-15.53,43.954-12.133,61.328-24.055
				c6.115-18.523-10.758-34.991-11.648-59.015c-0.566-15.239,4.028-27.55,10.871-40.378c-21.823-12.553-44.617-25.01-60.551-44.261
				c-8.784-10.596-15.433-23.328-24.848-34.166c-4.626-5.322-8.978-10.645-12.424-17.067c-3.268-6.083-9.253-12.538-7.765-20.189
				c9.884,1.294,12.877,9.771,17.86,14.754c9.544,9.544,26.498,20.334,42.708,24.832c5.678,1.585,12.958,1.682,19.396,3.106
				c6.245,1.391,12.003,3.316,17.86,3.882c29.766,2.944,55.892,9.544,76.097,24.848c7.442-3.349,14.899-4.433,22.519-10.094
				c4.756-3.527,8.978-11.47,13.201-13.201c2.75-1.116,7.635-0.21,11.647-0.777c12.311-1.731,24.072-10.256,34.943-4.659
				c9.544-7.102,21.046-10.531,31.043-17.844c31.821-23.279,55.828-66.715,108.711-66.779c19.736-0.016,43.242,8.865,66.003,11.647
				C508.074,38.518,519.106,36.512,526.564,40.378z M550.636,98.617c-2.28-17.763-7.085-36.706-15.529-47.367
				c-8.412-10.645-16.841-9.544-34.167-10.871c-24.848-1.925-50.456-14.22-76.081-11.647c-42.595,4.254-61.587,34.571-86.969,55.132
				c-14.074,11.389-28.084,19.494-43.468,27.938c25.997,18.507,47.723,41.317,71.422,62.121c2.104-1.521,5.161-2.087,8.542-2.33
				c21.289,17.277,40.782,36.35,59.015,56.685c0.242,1.828,1.229,2.912,0.776,5.436c3.817,1.893,8.347,7.167,12.424,6.212
				c-2.572-5.015-1.262-12.489,0-17.859c8.833-7.862,34.166-14.058,34.166-30.284c0-8.525-8.282-13.929-18.636-15.53
				c12.65-0.566,20.674,7.312,20.966,15.53c0.599,17.083-24.897,23.408-34.167,31.06c-3.995,8.865-1.908,20.998,6.989,23.295
				c10.32-10.305,26.757-13.233,36.495-26.401c8.121-10.984,11.647-32.743,15.515-49.696c3.138-13.686,5.823-26.725,10.094-38.826
				c3.656-10.337,10.144-23.538,7.231-35.573c2.476,8.8,2.896,20.205-1.019,27.809c3.316,0.469,5.144-0.55,7.765-0.777
				C535.964,112.399,541.561,103.761,550.636,98.617z M504.046,436.364c-0.615-3.397-3.753-8.671,0-7.765
				c-7.619-7.442-2.961-21.549-6.973-30.284c-5.5-11.923-17.423-16.986-26.401-24.849c-12.618-14.397-13.993-37.854-20.188-59.014
				c-4.255-14.512-10.742-31.708-20.189-39.586c-5.613-4.691-17.31-6.762-27.178-10.095c-29.879-10.127-51.185-23.926-72.991-40.378
				c-13.687-10.337-29.427-21.92-42.692-32.613c-14.657-11.81-26.256-26.725-40.378-34.943
				c-11.631-6.762-26.531-9.334-38.825-14.754c-11.68-5.144-22.956-15.303-35.719-19.413c-15.142-4.869-34.312-3.607-50.473-6.988
				c-23.457-4.902-43.759-10.661-58.998-22.502C54.19,86.29,48.172,76.179,37.415,69.886c5.403,19.882,22.486,33.907,34.166,50.457
				c9.48,13.476,17.633,25.026,29.507,34.167c4.044,3.138,8.897,4.594,13.961,7.765c5.112,3.203,9.27,8.542,14.753,11.647
				c10.014,5.662,20.383,7.522,28.731,12.424c8.202,4.821,15.756,11.696,22.519,18.636c20.982,21.548,39.699,45.539,60.567,66.78
				c7.684,7.83,15.271,14.915,24.072,20.95c17.407,11.971,36.997,24.362,57.445,33.39c2.993,1.326,6.229,1.084,9.318,2.329
				c34.522,13.945,65.291,30.413,97.063,46.591c7.345,9.285,16.76,16.322,26.401,23.295c4.044,2.928,7.895,7.199,11.647,9.318
				c3.688,2.087,8.169,2.475,11.647,4.659C489.81,418.974,494.695,429.569,504.046,436.364z M467.566,482.954
				c1.003,0.81,3.591,5.711,3.883,3.106c-3.737-16.469-23.053-18.394-26.401-34.942c-2.557-12.603,4.788-25.706,3.882-38.825
				c-0.711-10.176-5.855-15.449-8.541-24.072c-38.81-31.319-92.857-47.432-139.755-70.662c4.95,12.278,11.13,25.075,14.737,38.049
				c2.588,9.237,4.384,19.187,7.765,27.954c3.802,9.82,12.263,17.812,16.307,27.954c4.385,10.969,5.403,23.7,8.542,35.72
				c11.179,16.258,3.122,44.212,1.553,62.104c3.818-11.356,12.133-22.6,12.424-38.033c0.211-11.146-1.31-22.81,4.659-31.837
				c2.88,3.722,1.165,8.736,1.554,13.201c2.265,25.98,6.131,51.508,24.848,61.328c4.336-14.026-9.657-21.662-11.647-30.268
				c-4.076-17.682,7.652-35.283,5.436-52.803c-1.666-13.233-8.299-19.606-13.978-31.061c7.96,10.159,14.593,17.908,16.307,31.837
				c1.715,14.025-6.357,28.067-4.658,41.155c0.76,5.774,4.998,13.346,8.541,19.396c3.462,5.921,7.409,13.2,11.647,17.083
				c3.802,3.494,9.124,4.546,13.201,6.988c11.485,6.924,17.277,18.733,31.837,20.966c1.358-9.804-11.664-11.519-17.084-17.083
				c-10.046-14.737-20.173-25.334-17.859-48.128c1.893-18.587,17.763-38.614,8.542-57.461c-1.311-2.686-5.517-4.223-6.212-6.212
				c11.34,1.828,7.474,13.298,10.094,22.519c2.54,8.946,14.35,18.426,10.871,29.507
				C443.737,471.372,458.814,475.901,467.566,482.954z M456.695,433.258c-2.459-10.692,2.313-23.958-2.33-32.613
				c-4.335-3.187-8.201-6.826-12.424-10.094C452.23,399.415,449.9,420.898,456.695,433.258z M434.177,274.867
				c3.009-12.262,18.086-12.457,20.966-24.848c-8.688-2.702-16.533-6.245-24.072-10.095c-8.121,6.892-13.007,17.019-20.189,24.848
				C419.277,267.506,428.256,269.658,434.177,274.867z M447.377,492.257c-0.032-9.82-9.464-16.792-11.647-28.715
				c-2.281-12.392-0.437-23.506-8.542-28.73c0.955,9.868-4.189,14.284-3.882,21.742C423.952,472.86,443.365,477.616,447.377,492.257
				z M414.764,253.901c5.5-6.406,11.534-12.278,14.754-20.965c-17.73-21.095-35.072-42.579-59.015-57.461
				c-11.179,17.034-22.648,33.762-37.272,47.367c5.662,5.985,12.344,10.952,20.189,14.753c5.241-4.077,4.627-14.009,12.424-15.53
				c-8.186-6.973-0.873-18.766,10.095-12.424c9.124-17.747,31.222,12.003,36.496,17.86c0.032,2.879-1.197,4.497-2.33,6.212
				c3.333,3.898,10.305,4.19,12.425,9.318c-9.528-5.354-19.915-8.8-29.508-13.977c-9.156-4.95-16.096-15.643-27.178-15.53
				C374.014,235.12,396.16,242.739,414.764,253.901z M406.999,263.996c1.908-2.766,4.707-4.61,6.212-7.765
				c-8.429-6.697-20.788-11.971-27.178,0C393.006,258.819,399.978,261.424,406.999,263.996z M408.552,229.83
				c-2.686-10.289-15.821-16.775-24.849-23.295c-0.695,2.653-5.16,1.569-4.658,5.436
				C388.428,218.376,396.532,226.061,408.552,229.83z M380.598,253.901c4.125-1.585,7.619-3.785,9.318-7.765
				c-7.588-7.167-14.431-15.077-24.849-19.413c-3.43,4.061-6.794,8.218-9.318,13.201
				C363.515,245.101,371.927,249.631,380.598,253.901z M392.245,494.586c-2.977-5.808-5.824-11.777-8.542-17.844
				C382.992,486.238,388.104,489.927,392.245,494.586z M329.349,221.288c13.604-11.777,24.395-26.336,34.166-41.931
				c-7.005-12.343-21.727-22.729-35.72-34.943c-13.168-11.486-24.459-26.627-39.585-31.836c-6.6-2.265-13.395,3.284-20.189,4.659
				c-6.245,1.278-13.346,0.227-18.636,2.33c-6.94,2.767-11.647,11.421-19.413,15.53c-4.643,2.459-8.946,2.119-13.201,6.212
				c35.121,8.849,53.126,35.104,77.65,53.579C306.231,203.785,317.717,211.954,329.349,221.288z M188.041,414.622
				c15.012-6.212,22.793-19.85,31.836-32.613c-13.185-12.182-19.057-31.675-29.507-46.591c1.893,18.686-2.362,27.761-10.094,38.826
				c-18.426,10.547-37.547,20.432-36.496,50.473c10.515,0.873,19.478-4.902,27.955-6.988
				C177.347,416.337,183.09,416.677,188.041,414.622z"/>
			<path d="M508.705,90.852c1.504,3.834-2.67,8.703-3.106,13.184C503.949,100.04,508.511,95.575,508.705,90.852z"/>
			<path d="M504.046,104.812c1.488,1.779-1.569,5.646-1.553,8.542C500.875,114.146,503.415,106.818,504.046,104.812z"/>
			<path d="M495.521,150.626c-1.052,15.498,6.342,30.397,3.105,48.144c-2.054,4.417-3.914,9.043-6.212,13.201
				c-0.21-6.422,3.834-10.612,4.659-17.083c1.181-9.367-2.021-17.908-3.105-27.955c-2.022-18.474,4.529-36.641,6.972-52.026
				C500.244,126.83,496.378,137.717,495.521,150.626z"/>
			<path d="M427.965,354.055c-1.392,1.084-5.112-2.104-5.436-4.659C424.519,350.771,426.169,352.485,427.965,354.055z"/>
			<path d="M410.104,327.653c3.042,7.685,6.374,14.139,12.425,20.189c-15.32-7.83-13.67-30.721-20.966-46.591
				c-5.063-11.017-24.072-19.752-35.72-27.161c-8.897-5.678-15.028-9.189-26.401-13.201c-2.911-1.036-5.985-3.624-9.317-4.659
				c3.769-0.647,8.201,4.724,15.53,3.106c8.218,4.368,16.808,9.286,24.848,14.754c10.176,6.908,28.649,14.851,33.39,26.401
				C407.403,309.018,406.724,319.111,410.104,327.653z"/>
			<path d="M289.763,361.819c9.367,3.058,14.899,9.949,13.977,23.296c-1.618-5.582-2.087-10.176-4.659-13.978
				C296.314,367.077,291.478,366.543,289.763,361.819z"/>
			<path d="M239.29,459.659c-6.115,9.415-26.434,4.627-37.272,9.318C208.941,458.915,229.325,464.06,239.29,459.659z"/>
			<path d="M139.897,360.267c5.177,3.624,5.84,11.761,14.753,11.647C148.552,377.689,142.696,365.33,139.897,360.267z"/>
		</g>
	</g>
</g>
<g id="Layer_2_x23_B18989">
	<g>
		<g>
			<path fill="#B18A8A" d="M219.877,382.009c-9.043,12.764-16.824,26.401-31.836,32.613c-4.951,2.055-10.693,1.715-16.307,3.106
				c-8.477,2.086-17.439,7.861-27.955,6.988c-1.051-30.041,18.07-39.926,36.496-50.473c7.732-11.065,11.987-20.141,10.094-38.826
				C200.82,350.334,206.692,369.827,219.877,382.009z"/>
			<path fill="#B18A8A" d="M337.89,414.622c4.676,12.068,4.837,28.795,10.871,40.378c-19.364,24.994-47.27,47.594-81.517,65.211
				c-13.848,7.117-26.53,16.76-41.155,23.295c-7.231,3.235-15.223,5.354-23.295,8.542c-9.512,3.753-19.186,10.126-31.837,9.317
				c-9.819-0.631-29.992-7.312-39.602-11.647c-17.067-7.7-28.747-21.92-39.586-35.719c14.301,25.818,39.278,40.944,72.199,48.143
				c-32.856,1.569-60.843,0.89-76.858-21.742c-9.448-13.346-17.747-57.574-7.765-76.081c0.162-0.323,2.297-0.68,2.33-0.776
				c0.323-1.148-1.246-2.75-0.777-3.883c4.061-9.9,9.674-12.812,18.636-18.636c3.575-2.33,5.84-5.258,9.318-6.212
				c11.486-3.171,26.886,0.437,36.479,5.436c2.928-2.443-1.197-8.412,0.776-12.425c19.478-3.138,43.128-9.771,62.121-16.307
				c12.893-4.433,26.417-14.56,28.73-29.507c16.873,0.017,25.948,11.761,23.295,28.73c0,1.828,2.119-0.291,1.553-1.553
				c2.378,1.683-0.744,4.368,0,6.988c7.15-11.534,2.88-31.901-11.647-36.495c-7.474-2.362-17.423,0.614-26.401-2.33
				c-9.189-3.025-14.641-15.449-19.413-24.071c-7.894-14.269-12.003-41.851-34.166-38.825
				c-17.649,2.426-18.507,34.603-17.083,56.685c3.122-7.474,1.876-18.199,3.106-27.954c1.246-9.739,7.005-22.664,13.977-23.295
				c8.04-0.712,17.504,19.251,17.86,28.73c0.113,3.058-2.346,12.731-5.436,17.859c-5.452,9.075-15.385,9.334-27.955,19.413
				c-12.165,9.755-9.739,34.797-25.625,36.495c-8.008,0.857-19.186-7.166-22.502-10.094c-10.709-9.432-22.486-29.265-24.072-44.262
				c-0.437-3.995-1.197-4.934,1.553-7.765c-5.371,1.229-6.196,5.84-11.648,4.659c-8.897-1.909-6.827-19.736,3.883-19.413
				c-2.2-21.272,1.779-36.625,20.965-44.261c21.726-8.622,56.993-1.925,51.233-37.256c-1.683-10.337-11.259-20.561-12.424-34.943
				c-1.439-17.875,0.421-31.901,10.095-44.261c28.165,12.214,45.474,35.283,64.45,56.685c-10.467-1.278-36.674-24.541-54.355-19.413
				c-7.312,2.119-16.145,13.928-9.318,24.848c1.052-6.471,0.825-14.204,6.212-16.307c14.592,2.33,33.438,6.536,46.59,10.871
				c7.393,2.426,11.745,6.988,17.229,10.111c-0.048-0.017-0.097-0.017-0.146-0.017c3.64,1.844,12.182,9.464,13.201,13.978
				c-28.213,6.859-49.211-24.46-72.215-9.318c3.106,2.54,5.937-1.812,10.095-0.776c-7.36,6.357,2.362,21.305-5.436,26.401
				c7.846,9.804,30.09,15.708,45.038,10.855c-8.477,1.358-23.506-0.34-31.061-4.643c0.097-1.715,3.3-0.34,4.659-0.777
				c-3.721-3.025-12.554-0.906-14.753-5.436c9.528-17.39,49.082-4.756,66.779-13.977c14.252,14.673,27.388,25.964,45.814,37.256
				c10.952,6.729,19.606,10.369,24.848,23.295c3.495,8.688,7.587,20.092,10.079,30.284c2.637,10.741,4.885,22.243,9.317,31.06
				C327.73,398.865,334.509,405.87,337.89,414.622z M303.74,385.115c0.922-13.347-4.61-20.238-13.977-23.296
				c1.715,4.724,6.552,5.258,9.318,9.318C301.653,374.939,302.122,379.533,303.74,385.115z M202.018,468.978
				c10.838-4.691,31.157,0.097,37.272-9.318C229.325,464.06,208.941,458.915,202.018,468.978z M154.65,371.914
				c-8.914,0.113-9.577-8.023-14.753-11.647C142.696,365.33,148.552,377.689,154.65,371.914z"/>
		</g>
	</g>
</g>
<g id="Layer_3_x23_212054">
	<g>
		<g>
			<path fill="#222054" d="M454.365,400.645c4.644,8.655-0.129,21.921,2.33,32.613c-6.795-12.359-4.465-33.843-14.754-42.707
				C446.164,393.818,450.03,397.458,454.365,400.645z"/>
			<path fill="#222054" d="M435.729,463.542c2.184,11.923,11.615,18.895,11.647,28.715c-4.012-14.641-23.425-19.396-24.071-35.703
				c-0.308-7.458,4.837-11.874,3.882-21.742C435.293,440.036,433.448,451.15,435.729,463.542z"/>
			<path fill="#222054" d="M471.449,486.061c-0.292,2.604-2.88-2.297-3.883-3.106c-8.752-7.053-23.829-11.582-29.508-22.519
				c3.479-11.081-8.331-20.561-10.871-29.507c-2.62-9.221,1.246-20.69-10.094-22.519c0.695,1.989,4.901,3.526,6.212,6.212
				c9.221,18.847-6.649,38.874-8.542,57.461c-2.313,22.794,7.813,33.391,17.859,48.128c5.42,5.564,18.442,7.279,17.084,17.083
				c-14.56-2.232-20.352-14.042-31.837-20.966c-4.077-2.442-9.399-3.494-13.201-6.988c-4.238-3.883-8.186-11.162-11.647-17.083
				c-3.543-6.051-7.781-13.622-8.541-19.396c-1.699-13.088,6.373-27.13,4.658-41.155c-1.714-13.929-8.347-21.678-16.307-31.837
				c5.679,11.454,12.312,17.827,13.978,31.061c2.217,17.52-9.512,35.121-5.436,52.803c1.99,8.605,15.983,16.241,11.647,30.268
				c-18.717-9.82-22.583-35.348-24.848-61.328c-0.389-4.465,1.326-9.479-1.554-13.201c-5.969,9.027-4.448,20.691-4.659,31.837
				c-0.291,15.434-8.605,26.677-12.424,38.033c1.569-17.893,9.626-45.847-1.553-62.104c-3.139-12.02-4.157-24.751-8.542-35.72
				c-4.044-10.143-12.505-18.134-16.307-27.954c-3.381-8.768-5.177-18.717-7.765-27.954c-3.607-12.974-9.787-25.771-14.737-38.049
				c46.897,23.23,100.945,39.343,139.755,70.662c2.686,8.623,7.83,13.896,8.541,24.072c0.906,13.119-6.438,26.223-3.882,38.825
				C448.396,467.667,467.712,469.592,471.449,486.061z"/>
			<path fill="none" d="M217.758,252.041c-0.243-0.194-0.453-0.42-0.841-0.453c-5.484-3.123-9.835-7.685-17.229-10.111
				c-13.152-4.335-31.999-8.542-46.59-10.871c-5.387,2.103-5.161,9.835-6.212,16.307c-6.827-10.92,2.006-22.729,9.318-24.848
				c17.682-5.128,43.889,18.134,54.355,19.413c-18.976-21.402-36.286-44.471-64.45-56.685
				c-9.674,12.359-11.534,26.385-10.095,44.261c1.165,14.382,10.742,24.605,12.424,34.943c5.759,35.331-29.507,28.634-51.233,37.256
				c-19.186,7.636-23.166,22.988-20.965,44.261c-10.709-0.323-12.78,17.504-3.883,19.413c5.452,1.181,6.277-3.43,11.648-4.659
				c-2.75,2.831-1.99,3.77-1.553,7.765c1.585,14.997,13.362,34.83,24.072,44.262c3.316,2.928,14.495,10.951,22.502,10.094
				c15.886-1.698,13.459-26.74,25.625-36.495c12.57-10.079,22.502-10.338,27.955-19.413c3.09-5.128,5.548-14.802,5.436-17.859
				c-0.356-9.479-9.82-29.442-17.86-28.73c-6.972,0.631-12.731,13.556-13.977,23.295c-1.229,9.755,0.016,20.48-3.106,27.954
				c-1.424-22.082-0.566-54.259,17.083-56.685c22.163-3.025,26.272,24.557,34.166,38.825c4.772,8.622,10.224,21.046,19.413,24.071
				c8.978,2.944,18.927-0.032,26.401,2.33c14.527,4.594,18.798,24.961,11.647,36.495c-0.744-2.62,2.378-5.306,0-6.988
				c0.566,1.262-1.553,3.381-1.553,1.553c2.653-16.97-6.422-28.714-23.295-28.73c-2.313,14.947-15.837,25.074-28.73,29.507
				c-18.992,6.536-42.643,13.169-62.121,16.307c-1.974,4.013,2.152,9.981-0.776,12.425c-9.593-4.999-24.994-8.606-36.479-5.436
				c-3.478,0.954-5.743,3.882-9.318,6.212c-8.962,5.823-14.576,8.735-18.636,18.636c-0.469,1.133,1.1,2.734,0.777,3.883
				c-0.033,0.097-2.168,0.453-2.33,0.776c-9.981,18.507-1.683,62.735,7.765,76.081c16.015,22.632,44.002,23.312,76.858,21.742
				c-32.921-7.198-57.898-22.324-72.199-48.143c10.839,13.799,22.519,28.019,39.586,35.719c9.609,4.336,29.782,11.017,39.602,11.647
				c12.651,0.809,22.325-5.564,31.837-9.317c8.072-3.188,16.064-5.307,23.295-8.542c14.625-6.535,27.307-16.178,41.155-23.295
				c34.248-17.617,62.153-40.217,81.517-65.211c-6.034-11.583-6.195-28.31-10.871-40.378c-3.381-8.752-10.159-15.757-14.754-24.849
				c-4.433-8.816-6.681-20.318-9.317-31.06c-2.491-10.192-6.584-21.597-10.079-30.284c-5.242-12.926-13.896-16.565-24.848-23.295
				c-18.426-11.292-31.562-22.583-45.814-37.256c-17.698,9.221-57.251-3.413-66.779,13.977c2.2,4.53,11.033,2.411,14.753,5.436
				c-1.359,0.437-4.562-0.938-4.659,0.777c7.555,4.303,22.583,6.001,31.061,4.643c-14.948,4.853-37.191-1.052-45.038-10.855
				c7.797-5.096-1.925-20.043,5.436-26.401c-4.158-1.036-6.988,3.316-10.095,0.776c23.004-15.142,44.002,16.177,72.215,9.318
				c-1.019-4.514-9.561-12.133-13.201-13.978c0.048,0,0.097,0,0.146,0.017C217.191,251.75,217.467,251.912,217.758,252.041z
				 M217.79,252.057c0.146,0.129,0.308,0.243,0.534,0.292C218.146,252.251,217.968,252.17,217.79,252.057z M526.564,40.378
				c17.147,8.865,25.074,38.34,25.625,62.104c-11.179,2.281-13.913,13.006-17.86,22.519c-1.245,1.602-3.882,1.812-6.988,1.553
				c-16.031,32.208-13.75,90.252-41.139,110.264c-7.021,5.128-15.109,7.102-24.071,11.647c-0.081,14.301-16.484,18.62-24.072,27.954
				c22.875,25.512,19.154,77.635,42.708,102.482c7.749,5.371,18.879,14.01,20.949,26.401c1.068,6.31-0.663,11.162,0.777,16.307
				c1.844,6.52,7.296,16.452,4.658,24.849c-7.149-6.438-11.017-13.88-17.066-20.189c-8.816-9.173-20.125-12.521-31.061-19.412
				c1.165,7.797-3.349,19.348,0,27.178c1.796,4.206,5.921,4.416,6.989,7.765c-8.591-1.764-12.716-7.991-14.754-16.307
				c-3.349,8.137-5.711,19.865-3.106,27.954c3.284,10.224,17.795,15.659,24.072,27.178c4.319,7.943,4.95,14.527,7.765,24.056
				c-5.711-4.595-6.147-10.289-10.095-15.514c-8.218-10.855-25.01-11.972-30.283-25.625c-0.631-0.146-0.776-0.793-1.554-0.776
				c0.696,13.249,15.19,20.188,10.871,33.373c-5.872-2.2-5.516-8.008-8.541-12.407c-5.452-7.927-16.986-11.551-18.637-23.296
				c-11.857,20.724,2.459,51.039,17.084,62.104c5.727,4.336,16.646,6.002,13.2,16.307c-15.449,3.139-23.376-14.301-34.942-20.189
				c-12.78-2.733-17.763-13.297-24.072-22.519c2.232,10.984,5.613,24.93,5.436,35.72c-3.591-4.336-3.511-10.92-6.988-15.53
				c-3.915-5.177-10.159-8.17-13.978-13.2c-10.014-13.152-6.373-29.297-11.647-51.233c-3.963,7.36-1.294,14.932-1.553,22.519
				c-0.518,15.304-12.036,26.449-13.978,40.362c-2.248,16.193,7.636,21.839,13.201,36.495c-9.513-8.881-17.067-19.363-17.859-34.942
				c-0.793-15.757,7.521-33.374,3.105-50.457c-15.95,11.761-30.462,27.599-48.127,41.139c-5.598,4.287-10.791,9.836-16.307,13.201
				c-6.406,3.915-13.994,6.163-20.966,10.095c-18.75,10.596-41.3,20.787-63.673,28.73c-29.702,10.547-80.32,12.44-104.812-5.436
				c-12.311-8.962-27.324-35.865-26.401-60.567c0.615-16.76,7.959-38.566,18.636-48.904c11.502-11.146,27.517-15.19,49.68-13.2
				c-0.583-1.99-1.132-3.575,0.776-4.659c-31.659,10.257-52.835-33.163-60.551-58.238c-18.879,3.511-18.167-23.812-3.882-24.848
				c-1.246-15.579,0.631-28.553,7.765-36.496c13.945-15.53,43.954-12.133,61.328-24.055c6.115-18.523-10.758-34.991-11.648-59.015
				c-0.566-15.239,4.028-27.55,10.871-40.378c-21.823-12.553-44.617-25.01-60.551-44.261c-8.784-10.596-15.433-23.328-24.848-34.166
				c-4.626-5.322-8.978-10.645-12.424-17.067c-3.268-6.083-9.253-12.538-7.765-20.189c9.884,1.294,12.877,9.771,17.86,14.754
				c9.544,9.544,26.498,20.334,42.708,24.832c5.678,1.585,12.958,1.682,19.396,3.106c6.245,1.391,12.003,3.316,17.86,3.882
				c29.766,2.944,55.892,9.544,76.097,24.848c7.442-3.349,14.899-4.433,22.519-10.094c4.756-3.527,8.978-11.47,13.201-13.201
				c2.75-1.116,7.635-0.21,11.647-0.777c12.311-1.731,24.072-10.256,34.943-4.659c9.544-7.102,21.046-10.531,31.043-17.844
				c31.821-23.279,55.828-66.715,108.711-66.779c19.736-0.016,43.242,8.865,66.003,11.647
				C508.074,38.518,519.106,36.512,526.564,40.378z M550.636,98.617c-2.28-17.763-7.085-36.706-15.529-47.367
				c-8.412-10.645-16.841-9.544-34.167-10.871c-24.848-1.925-50.456-14.22-76.081-11.647c-42.595,4.254-61.587,34.571-86.969,55.132
				c-14.074,11.389-28.084,19.494-43.468,27.938c25.997,18.507,47.723,41.317,71.422,62.121c2.104-1.521,5.161-2.087,8.542-2.33
				c21.289,17.277,40.782,36.35,59.015,56.685c0.242,1.828,1.229,2.912,0.776,5.436c3.817,1.893,8.347,7.167,12.424,6.212
				c-2.572-5.015-1.262-12.489,0-17.859c8.833-7.862,34.166-14.058,34.166-30.284c0-8.525-8.282-13.929-18.636-15.53
				c12.65-0.566,20.674,7.312,20.966,15.53c0.599,17.083-24.897,23.408-34.167,31.06c-3.995,8.865-1.908,20.998,6.989,23.295
				c10.32-10.305,26.757-13.233,36.495-26.401c8.121-10.984,11.647-32.743,15.515-49.696c3.138-13.686,5.823-26.725,10.094-38.826
				c3.656-10.337,10.144-23.538,7.231-35.573c2.476,8.8,2.896,20.205-1.019,27.809c3.316,0.469,5.144-0.55,7.765-0.777
				C535.964,112.399,541.561,103.761,550.636,98.617z M504.046,436.364c-0.615-3.397-3.753-8.671,0-7.765
				c-7.619-7.442-2.961-21.549-6.973-30.284c-5.5-11.923-17.423-16.986-26.401-24.849c-12.618-14.397-13.993-37.854-20.188-59.014
				c-4.255-14.512-10.742-31.708-20.189-39.586c-5.613-4.691-17.31-6.762-27.178-10.095c-29.879-10.127-51.185-23.926-72.991-40.378
				c-13.687-10.337-29.427-21.92-42.692-32.613c-14.657-11.81-26.256-26.725-40.378-34.943
				c-11.631-6.762-26.531-9.334-38.825-14.754c-11.68-5.144-22.956-15.303-35.719-19.413c-15.142-4.869-34.312-3.607-50.473-6.988
				c-23.457-4.902-43.759-10.661-58.998-22.502C54.19,86.29,48.172,76.179,37.415,69.886c5.403,19.882,22.486,33.907,34.166,50.457
				c9.48,13.476,17.633,25.026,29.507,34.167c4.044,3.138,8.897,4.594,13.961,7.765c5.112,3.203,9.27,8.542,14.753,11.647
				c10.014,5.662,20.383,7.522,28.731,12.424c8.202,4.821,15.756,11.696,22.519,18.636c20.982,21.548,39.699,45.539,60.567,66.78
				c7.684,7.83,15.271,14.915,24.072,20.95c17.407,11.971,36.997,24.362,57.445,33.39c2.993,1.326,6.229,1.084,9.318,2.329
				c34.522,13.945,65.291,30.413,97.063,46.591c7.345,9.285,16.76,16.322,26.401,23.295c4.044,2.928,7.895,7.199,11.647,9.318
				c3.688,2.087,8.169,2.475,11.647,4.659C489.81,418.974,494.695,429.569,504.046,436.364z M467.566,482.954
				c1.003,0.81,3.591,5.711,3.883,3.106c-3.737-16.469-23.053-18.394-26.401-34.942c-2.557-12.603,4.788-25.706,3.882-38.825
				c-0.711-10.176-5.855-15.449-8.541-24.072c-38.81-31.319-92.857-47.432-139.755-70.662c4.95,12.278,11.13,25.075,14.737,38.049
				c2.588,9.237,4.384,19.187,7.765,27.954c3.802,9.82,12.263,17.812,16.307,27.954c4.385,10.969,5.403,23.7,8.542,35.72
				c11.179,16.258,3.122,44.212,1.553,62.104c3.818-11.356,12.133-22.6,12.424-38.033c0.211-11.146-1.31-22.81,4.659-31.837
				c2.88,3.722,1.165,8.736,1.554,13.201c2.265,25.98,6.131,51.508,24.848,61.328c4.336-14.026-9.657-21.662-11.647-30.268
				c-4.076-17.682,7.652-35.283,5.436-52.803c-1.666-13.233-8.299-19.606-13.978-31.061c7.96,10.159,14.593,17.908,16.307,31.837
				c1.715,14.025-6.357,28.067-4.658,41.155c0.76,5.774,4.998,13.346,8.541,19.396c3.462,5.921,7.409,13.2,11.647,17.083
				c3.802,3.494,9.124,4.546,13.201,6.988c11.485,6.924,17.277,18.733,31.837,20.966c1.358-9.804-11.664-11.519-17.084-17.083
				c-10.046-14.737-20.173-25.334-17.859-48.128c1.893-18.587,17.763-38.614,8.542-57.461c-1.311-2.686-5.517-4.223-6.212-6.212
				c11.34,1.828,7.474,13.298,10.094,22.519c2.54,8.946,14.35,18.426,10.871,29.507
				C443.737,471.372,458.814,475.901,467.566,482.954z M456.695,433.258c-2.459-10.692,2.313-23.958-2.33-32.613
				c-4.335-3.187-8.201-6.826-12.424-10.094C452.23,399.415,449.9,420.898,456.695,433.258z M434.177,274.867
				c3.009-12.262,18.086-12.457,20.966-24.848c-8.688-2.702-16.533-6.245-24.072-10.095c-8.121,6.892-13.007,17.019-20.189,24.848
				C419.277,267.506,428.256,269.658,434.177,274.867z M447.377,492.257c-0.032-9.82-9.464-16.792-11.647-28.715
				c-2.281-12.392-0.437-23.506-8.542-28.73c0.955,9.868-4.189,14.284-3.882,21.742C423.952,472.86,443.365,477.616,447.377,492.257
				z M414.764,253.901c5.5-6.406,11.534-12.278,14.754-20.965c-17.73-21.095-35.072-42.579-59.015-57.461
				c-11.179,17.034-22.648,33.762-37.272,47.367c5.662,5.985,12.344,10.952,20.189,14.753c5.241-4.077,4.627-14.009,12.424-15.53
				c-8.186-6.973-0.873-18.766,10.095-12.424c9.124-17.747,31.222,12.003,36.496,17.86c0.032,2.879-1.197,4.497-2.33,6.212
				c3.333,3.898,10.305,4.19,12.425,9.318c-9.528-5.354-19.915-8.8-29.508-13.977c-9.156-4.95-16.096-15.643-27.178-15.53
				C374.014,235.12,396.16,242.739,414.764,253.901z M406.999,263.996c1.908-2.766,4.707-4.61,6.212-7.765
				c-8.429-6.697-20.788-11.971-27.178,0C393.006,258.819,399.978,261.424,406.999,263.996z M408.552,229.83
				c-2.686-10.289-15.821-16.775-24.849-23.295c-0.695,2.653-5.16,1.569-4.658,5.436
				C388.428,218.376,396.532,226.061,408.552,229.83z M380.598,253.901c4.125-1.585,7.619-3.785,9.318-7.765
				c-7.588-7.167-14.431-15.077-24.849-19.413c-3.43,4.061-6.794,8.218-9.318,13.201
				C363.515,245.101,371.927,249.631,380.598,253.901z M392.245,494.586c-2.977-5.808-5.824-11.777-8.542-17.844
				C382.992,486.238,388.104,489.927,392.245,494.586z M329.349,221.288c13.604-11.777,24.395-26.336,34.166-41.931
				c-7.005-12.343-21.727-22.729-35.72-34.943c-13.168-11.486-24.459-26.627-39.585-31.836c-6.6-2.265-13.395,3.284-20.189,4.659
				c-6.245,1.278-13.346,0.227-18.636,2.33c-6.94,2.767-11.647,11.421-19.413,15.53c-4.643,2.459-8.946,2.119-13.201,6.212
				c35.121,8.849,53.126,35.104,77.65,53.579C306.231,203.785,317.717,211.954,329.349,221.288z M188.041,414.622
				c15.012-6.212,22.793-19.85,31.836-32.613c-13.185-12.182-19.057-31.675-29.507-46.591c1.893,18.686-2.362,27.761-10.094,38.826
				c-18.426,10.547-37.547,20.432-36.496,50.473c10.515,0.873,19.478-4.902,27.955-6.988
				C177.347,416.337,183.09,416.677,188.041,414.622z"/>
			<path fill="#222054" d="M455.143,250.019c-2.88,12.392-17.957,12.586-20.966,24.848c-5.921-5.209-14.899-7.361-23.296-10.095
				c7.183-7.83,12.068-17.957,20.189-24.848C438.609,243.774,446.455,247.317,455.143,250.019z"/>
			<path fill="#222054" d="M389.916,246.136c-1.699,3.98-5.193,6.18-9.318,7.765c-8.671-4.271-17.083-8.8-24.849-13.977
				c2.524-4.982,5.889-9.14,9.318-13.201C375.485,231.059,382.328,238.97,389.916,246.136z"/>
			<path fill="#222054" d="M383.703,206.535c9.027,6.52,22.163,13.006,24.849,23.295c-12.02-3.769-20.124-11.453-29.507-17.859
				C378.543,208.104,383.008,209.188,383.703,206.535z"/>
			<path fill="#222054" d="M363.515,179.357c-9.771,15.595-20.562,30.154-34.166,41.931c-11.632-9.334-23.118-17.503-34.927-26.401
				c-24.524-18.475-42.53-44.73-77.65-53.579c4.254-4.093,8.558-3.753,13.201-6.212c7.765-4.109,12.473-12.764,19.413-15.53
				c5.29-2.103,12.392-1.051,18.636-2.33c6.794-1.375,13.589-6.924,20.189-4.659c15.126,5.209,26.417,20.351,39.585,31.836
				C341.788,156.628,356.51,167.014,363.515,179.357z"/>
		</g>
	</g>
</g>
<g id="Layer_4_x23_FFF200">
	<g>
		<g>
			<path fill="none" d="M217.758,252.041c-0.243-0.194-0.453-0.42-0.841-0.453c-5.484-3.123-9.835-7.685-17.229-10.111
				c-13.152-4.335-31.999-8.542-46.59-10.871c-5.387,2.103-5.161,9.835-6.212,16.307c-6.827-10.92,2.006-22.729,9.318-24.848
				c17.682-5.128,43.889,18.134,54.355,19.413c-18.976-21.402-36.286-44.471-64.45-56.685
				c-9.674,12.359-11.534,26.385-10.095,44.261c1.165,14.382,10.742,24.605,12.424,34.943c5.759,35.331-29.507,28.634-51.233,37.256
				c-19.186,7.636-23.166,22.988-20.965,44.261c-10.709-0.323-12.78,17.504-3.883,19.413c5.452,1.181,6.277-3.43,11.648-4.659
				c-2.75,2.831-1.99,3.77-1.553,7.765c1.585,14.997,13.362,34.83,24.072,44.262c3.316,2.928,14.495,10.951,22.502,10.094
				c15.886-1.698,13.459-26.74,25.625-36.495c12.57-10.079,22.502-10.338,27.955-19.413c3.09-5.128,5.548-14.802,5.436-17.859
				c-0.356-9.479-9.82-29.442-17.86-28.73c-6.972,0.631-12.731,13.556-13.977,23.295c-1.229,9.755,0.016,20.48-3.106,27.954
				c-1.424-22.082-0.566-54.259,17.083-56.685c22.163-3.025,26.272,24.557,34.166,38.825c4.772,8.622,10.224,21.046,19.413,24.071
				c8.978,2.944,18.927-0.032,26.401,2.33c14.527,4.594,18.798,24.961,11.647,36.495c-0.744-2.62,2.378-5.306,0-6.988
				c0.566,1.262-1.553,3.381-1.553,1.553c2.653-16.97-6.422-28.714-23.295-28.73c-2.313,14.947-15.837,25.074-28.73,29.507
				c-18.992,6.536-42.643,13.169-62.121,16.307c-1.974,4.013,2.152,9.981-0.776,12.425c-9.593-4.999-24.994-8.606-36.479-5.436
				c-3.478,0.954-5.743,3.882-9.318,6.212c-8.962,5.823-14.576,8.735-18.636,18.636c-0.469,1.133,1.1,2.734,0.777,3.883
				c-0.033,0.097-2.168,0.453-2.33,0.776c-9.981,18.507-1.683,62.735,7.765,76.081c16.015,22.632,44.002,23.312,76.858,21.742
				c-32.921-7.198-57.898-22.324-72.199-48.143c10.839,13.799,22.519,28.019,39.586,35.719c9.609,4.336,29.782,11.017,39.602,11.647
				c12.651,0.809,22.325-5.564,31.837-9.317c8.072-3.188,16.064-5.307,23.295-8.542c14.625-6.535,27.307-16.178,41.155-23.295
				c34.248-17.617,62.153-40.217,81.517-65.211c-6.034-11.583-6.195-28.31-10.871-40.378c-3.381-8.752-10.159-15.757-14.754-24.849
				c-4.433-8.816-6.681-20.318-9.317-31.06c-2.491-10.192-6.584-21.597-10.079-30.284c-5.242-12.926-13.896-16.565-24.848-23.295
				c-18.426-11.292-31.562-22.583-45.814-37.256c-17.698,9.221-57.251-3.413-66.779,13.977c2.2,4.53,11.033,2.411,14.753,5.436
				c-1.359,0.437-4.562-0.938-4.659,0.777c7.555,4.303,22.583,6.001,31.061,4.643c-14.948,4.853-37.191-1.052-45.038-10.855
				c7.797-5.096-1.925-20.043,5.436-26.401c-4.158-1.036-6.988,3.316-10.095,0.776c23.004-15.142,44.002,16.177,72.215,9.318
				c-1.019-4.514-9.561-12.133-13.201-13.978c0.048,0,0.097,0,0.146,0.017C217.191,251.75,217.467,251.912,217.758,252.041z
				 M217.79,252.057c0.146,0.129,0.308,0.243,0.534,0.292C218.146,252.251,217.968,252.17,217.79,252.057z M526.564,40.378
				c17.147,8.865,25.074,38.34,25.625,62.104c-11.179,2.281-13.913,13.006-17.86,22.519c-1.245,1.602-3.882,1.812-6.988,1.553
				c-16.031,32.208-13.75,90.252-41.139,110.264c-7.021,5.128-15.109,7.102-24.071,11.647c-0.081,14.301-16.484,18.62-24.072,27.954
				c22.875,25.512,19.154,77.635,42.708,102.482c7.749,5.371,18.879,14.01,20.949,26.401c1.068,6.31-0.663,11.162,0.777,16.307
				c1.844,6.52,7.296,16.452,4.658,24.849c-7.149-6.438-11.017-13.88-17.066-20.189c-8.816-9.173-20.125-12.521-31.061-19.412
				c1.165,7.797-3.349,19.348,0,27.178c1.796,4.206,5.921,4.416,6.989,7.765c-8.591-1.764-12.716-7.991-14.754-16.307
				c-3.349,8.137-5.711,19.865-3.106,27.954c3.284,10.224,17.795,15.659,24.072,27.178c4.319,7.943,4.95,14.527,7.765,24.056
				c-5.711-4.595-6.147-10.289-10.095-15.514c-8.218-10.855-25.01-11.972-30.283-25.625c-0.631-0.146-0.776-0.793-1.554-0.776
				c0.696,13.249,15.19,20.188,10.871,33.373c-5.872-2.2-5.516-8.008-8.541-12.407c-5.452-7.927-16.986-11.551-18.637-23.296
				c-11.857,20.724,2.459,51.039,17.084,62.104c5.727,4.336,16.646,6.002,13.2,16.307c-15.449,3.139-23.376-14.301-34.942-20.189
				c-12.78-2.733-17.763-13.297-24.072-22.519c2.232,10.984,5.613,24.93,5.436,35.72c-3.591-4.336-3.511-10.92-6.988-15.53
				c-3.915-5.177-10.159-8.17-13.978-13.2c-10.014-13.152-6.373-29.297-11.647-51.233c-3.963,7.36-1.294,14.932-1.553,22.519
				c-0.518,15.304-12.036,26.449-13.978,40.362c-2.248,16.193,7.636,21.839,13.201,36.495c-9.513-8.881-17.067-19.363-17.859-34.942
				c-0.793-15.757,7.521-33.374,3.105-50.457c-15.95,11.761-30.462,27.599-48.127,41.139c-5.598,4.287-10.791,9.836-16.307,13.201
				c-6.406,3.915-13.994,6.163-20.966,10.095c-18.75,10.596-41.3,20.787-63.673,28.73c-29.702,10.547-80.32,12.44-104.812-5.436
				c-12.311-8.962-27.324-35.865-26.401-60.567c0.615-16.76,7.959-38.566,18.636-48.904c11.502-11.146,27.517-15.19,49.68-13.2
				c-0.583-1.99-1.132-3.575,0.776-4.659c-31.659,10.257-52.835-33.163-60.551-58.238c-18.879,3.511-18.167-23.812-3.882-24.848
				c-1.246-15.579,0.631-28.553,7.765-36.496c13.945-15.53,43.954-12.133,61.328-24.055c6.115-18.523-10.758-34.991-11.648-59.015
				c-0.566-15.239,4.028-27.55,10.871-40.378c-21.823-12.553-44.617-25.01-60.551-44.261c-8.784-10.596-15.433-23.328-24.848-34.166
				c-4.626-5.322-8.978-10.645-12.424-17.067c-3.268-6.083-9.253-12.538-7.765-20.189c9.884,1.294,12.877,9.771,17.86,14.754
				c9.544,9.544,26.498,20.334,42.708,24.832c5.678,1.585,12.958,1.682,19.396,3.106c6.245,1.391,12.003,3.316,17.86,3.882
				c29.766,2.944,55.892,9.544,76.097,24.848c7.442-3.349,14.899-4.433,22.519-10.094c4.756-3.527,8.978-11.47,13.201-13.201
				c2.75-1.116,7.635-0.21,11.647-0.777c12.311-1.731,24.072-10.256,34.943-4.659c9.544-7.102,21.046-10.531,31.043-17.844
				c31.821-23.279,55.828-66.715,108.711-66.779c19.736-0.016,43.242,8.865,66.003,11.647
				C508.074,38.518,519.106,36.512,526.564,40.378z M550.636,98.617c-2.28-17.763-7.085-36.706-15.529-47.367
				c-8.412-10.645-16.841-9.544-34.167-10.871c-24.848-1.925-50.456-14.22-76.081-11.647c-42.595,4.254-61.587,34.571-86.969,55.132
				c-14.074,11.389-28.084,19.494-43.468,27.938c25.997,18.507,47.723,41.317,71.422,62.121c2.104-1.521,5.161-2.087,8.542-2.33
				c21.289,17.277,40.782,36.35,59.015,56.685c0.242,1.828,1.229,2.912,0.776,5.436c3.817,1.893,8.347,7.167,12.424,6.212
				c-2.572-5.015-1.262-12.489,0-17.859c8.833-7.862,34.166-14.058,34.166-30.284c0-8.525-8.282-13.929-18.636-15.53
				c12.65-0.566,20.674,7.312,20.966,15.53c0.599,17.083-24.897,23.408-34.167,31.06c-3.995,8.865-1.908,20.998,6.989,23.295
				c10.32-10.305,26.757-13.233,36.495-26.401c8.121-10.984,11.647-32.743,15.515-49.696c3.138-13.686,5.823-26.725,10.094-38.826
				c3.656-10.337,10.144-23.538,7.231-35.573c2.476,8.8,2.896,20.205-1.019,27.809c3.316,0.469,5.144-0.55,7.765-0.777
				C535.964,112.399,541.561,103.761,550.636,98.617z M504.046,436.364c-0.615-3.397-3.753-8.671,0-7.765
				c-7.619-7.442-2.961-21.549-6.973-30.284c-5.5-11.923-17.423-16.986-26.401-24.849c-12.618-14.397-13.993-37.854-20.188-59.014
				c-4.255-14.512-10.742-31.708-20.189-39.586c-5.613-4.691-17.31-6.762-27.178-10.095c-29.879-10.127-51.185-23.926-72.991-40.378
				c-13.687-10.337-29.427-21.92-42.692-32.613c-14.657-11.81-26.256-26.725-40.378-34.943
				c-11.631-6.762-26.531-9.334-38.825-14.754c-11.68-5.144-22.956-15.303-35.719-19.413c-15.142-4.869-34.312-3.607-50.473-6.988
				c-23.457-4.902-43.759-10.661-58.998-22.502C54.19,86.29,48.172,76.179,37.415,69.886c5.403,19.882,22.486,33.907,34.166,50.457
				c9.48,13.476,17.633,25.026,29.507,34.167c4.044,3.138,8.897,4.594,13.961,7.765c5.112,3.203,9.27,8.542,14.753,11.647
				c10.014,5.662,20.383,7.522,28.731,12.424c8.202,4.821,15.756,11.696,22.519,18.636c20.982,21.548,39.699,45.539,60.567,66.78
				c7.684,7.83,15.271,14.915,24.072,20.95c17.407,11.971,36.997,24.362,57.445,33.39c2.993,1.326,6.229,1.084,9.318,2.329
				c34.522,13.945,65.291,30.413,97.063,46.591c7.345,9.285,16.76,16.322,26.401,23.295c4.044,2.928,7.895,7.199,11.647,9.318
				c3.688,2.087,8.169,2.475,11.647,4.659C489.81,418.974,494.695,429.569,504.046,436.364z M467.566,482.954
				c1.003,0.81,3.591,5.711,3.883,3.106c-3.737-16.469-23.053-18.394-26.401-34.942c-2.557-12.603,4.788-25.706,3.882-38.825
				c-0.711-10.176-5.855-15.449-8.541-24.072c-38.81-31.319-92.857-47.432-139.755-70.662c4.95,12.278,11.13,25.075,14.737,38.049
				c2.588,9.237,4.384,19.187,7.765,27.954c3.802,9.82,12.263,17.812,16.307,27.954c4.385,10.969,5.403,23.7,8.542,35.72
				c11.179,16.258,3.122,44.212,1.553,62.104c3.818-11.356,12.133-22.6,12.424-38.033c0.211-11.146-1.31-22.81,4.659-31.837
				c2.88,3.722,1.165,8.736,1.554,13.201c2.265,25.98,6.131,51.508,24.848,61.328c4.336-14.026-9.657-21.662-11.647-30.268
				c-4.076-17.682,7.652-35.283,5.436-52.803c-1.666-13.233-8.299-19.606-13.978-31.061c7.96,10.159,14.593,17.908,16.307,31.837
				c1.715,14.025-6.357,28.067-4.658,41.155c0.76,5.774,4.998,13.346,8.541,19.396c3.462,5.921,7.409,13.2,11.647,17.083
				c3.802,3.494,9.124,4.546,13.201,6.988c11.485,6.924,17.277,18.733,31.837,20.966c1.358-9.804-11.664-11.519-17.084-17.083
				c-10.046-14.737-20.173-25.334-17.859-48.128c1.893-18.587,17.763-38.614,8.542-57.461c-1.311-2.686-5.517-4.223-6.212-6.212
				c11.34,1.828,7.474,13.298,10.094,22.519c2.54,8.946,14.35,18.426,10.871,29.507
				C443.737,471.372,458.814,475.901,467.566,482.954z M456.695,433.258c-2.459-10.692,2.313-23.958-2.33-32.613
				c-4.335-3.187-8.201-6.826-12.424-10.094C452.23,399.415,449.9,420.898,456.695,433.258z M434.177,274.867
				c3.009-12.262,18.086-12.457,20.966-24.848c-8.688-2.702-16.533-6.245-24.072-10.095c-8.121,6.892-13.007,17.019-20.189,24.848
				C419.277,267.506,428.256,269.658,434.177,274.867z M447.377,492.257c-0.032-9.82-9.464-16.792-11.647-28.715
				c-2.281-12.392-0.437-23.506-8.542-28.73c0.955,9.868-4.189,14.284-3.882,21.742C423.952,472.86,443.365,477.616,447.377,492.257
				z M414.764,253.901c5.5-6.406,11.534-12.278,14.754-20.965c-17.73-21.095-35.072-42.579-59.015-57.461
				c-11.179,17.034-22.648,33.762-37.272,47.367c5.662,5.985,12.344,10.952,20.189,14.753c5.241-4.077,4.627-14.009,12.424-15.53
				c-8.186-6.973-0.873-18.766,10.095-12.424c9.124-17.747,31.222,12.003,36.496,17.86c0.032,2.879-1.197,4.497-2.33,6.212
				c3.333,3.898,10.305,4.19,12.425,9.318c-9.528-5.354-19.915-8.8-29.508-13.977c-9.156-4.95-16.096-15.643-27.178-15.53
				C374.014,235.12,396.16,242.739,414.764,253.901z M406.999,263.996c1.908-2.766,4.707-4.61,6.212-7.765
				c-8.429-6.697-20.788-11.971-27.178,0C393.006,258.819,399.978,261.424,406.999,263.996z M408.552,229.83
				c-2.686-10.289-15.821-16.775-24.849-23.295c-0.695,2.653-5.16,1.569-4.658,5.436
				C388.428,218.376,396.532,226.061,408.552,229.83z M380.598,253.901c4.125-1.585,7.619-3.785,9.318-7.765
				c-7.588-7.167-14.431-15.077-24.849-19.413c-3.43,4.061-6.794,8.218-9.318,13.201
				C363.515,245.101,371.927,249.631,380.598,253.901z M392.245,494.586c-2.977-5.808-5.824-11.777-8.542-17.844
				C382.992,486.238,388.104,489.927,392.245,494.586z M329.349,221.288c13.604-11.777,24.395-26.336,34.166-41.931
				c-7.005-12.343-21.727-22.729-35.72-34.943c-13.168-11.486-24.459-26.627-39.585-31.836c-6.6-2.265-13.395,3.284-20.189,4.659
				c-6.245,1.278-13.346,0.227-18.636,2.33c-6.94,2.767-11.647,11.421-19.413,15.53c-4.643,2.459-8.946,2.119-13.201,6.212
				c35.121,8.849,53.126,35.104,77.65,53.579C306.231,203.785,317.717,211.954,329.349,221.288z M188.041,414.622
				c15.012-6.212,22.793-19.85,31.836-32.613c-13.185-12.182-19.057-31.675-29.507-46.591c1.893,18.686-2.362,27.761-10.094,38.826
				c-18.426,10.547-37.547,20.432-36.496,50.473c10.515,0.873,19.478-4.902,27.955-6.988
				C177.347,416.337,183.09,416.677,188.041,414.622z"/>
			<path fill="none" d="M525.254,95.64c2.912,12.036-3.575,25.236-7.231,35.573c-4.271,12.101-6.956,25.14-10.094,38.826
				c-3.867,16.954-7.394,38.712-15.515,49.696c-9.738,13.168-26.175,16.096-36.495,26.401c-8.897-2.297-10.984-14.43-6.989-23.295
				c9.27-7.652,34.766-13.977,34.167-31.06c-0.292-8.218-8.315-16.097-20.966-15.53c10.354,1.602,18.636,7.005,18.636,15.53
				c0,16.226-25.333,22.421-34.166,30.284c-1.262,5.371-2.572,12.845,0,17.859c-4.077,0.955-8.606-4.319-12.424-6.212
				c0.453-2.524-0.534-3.607-0.776-5.436c-18.232-20.335-37.726-39.408-59.015-56.685c-3.381,0.243-6.438,0.809-8.542,2.33
				c-23.699-20.804-45.426-43.614-71.422-62.121c15.384-8.444,29.394-16.549,43.468-27.938
				c25.382-20.561,44.374-50.877,86.969-55.132c25.625-2.572,51.233,9.723,76.081,11.647c17.326,1.327,25.755,0.227,34.167,10.871
				c8.444,10.661,13.249,29.604,15.529,47.367c-9.075,5.144-14.672,13.783-18.636,24.055c-2.621,0.227-4.448,1.246-7.765,0.777
				C528.149,115.845,527.729,104.44,525.254,95.64z M505.599,104.036c0.437-4.481,4.61-9.35,3.106-13.184
				C508.511,95.575,503.949,100.04,505.599,104.036z M502.493,113.354c-0.017-2.896,3.041-6.762,1.553-8.542
				C503.415,106.818,500.875,114.146,502.493,113.354z M498.626,198.77c3.236-17.747-4.157-32.646-3.105-48.144
				c0.857-12.909,4.724-23.796,5.419-35.719c-2.442,15.385-8.994,33.552-6.972,52.026c1.084,10.046,4.286,18.588,3.105,27.955
				c-0.825,6.471-4.869,10.661-4.659,17.083C494.712,207.812,496.572,203.186,498.626,198.77z"/>
			<path fill="#FFF200" d="M413.211,256.231c-1.505,3.155-4.304,4.999-6.212,7.765c-7.021-2.572-13.993-5.177-20.966-7.765
				C392.423,244.26,404.782,249.534,413.211,256.231z"/>
			<path fill="#FFF200" d="M429.518,232.936c-3.22,8.687-9.254,14.559-14.754,20.965c-18.604-11.162-40.75-18.782-48.92-40.378
				c11.082-0.113,18.021,10.58,27.178,15.53c9.593,5.177,19.979,8.623,29.508,13.977c-2.12-5.128-9.092-5.419-12.425-9.318
				c1.133-1.715,2.362-3.333,2.33-6.212c-5.274-5.856-27.372-35.606-36.496-17.86c-10.968-6.341-18.28,5.452-10.095,12.424
				c-7.797,1.521-7.183,11.453-12.424,15.53c-7.846-3.801-14.527-8.768-20.189-14.753c14.624-13.605,26.094-30.333,37.272-47.367
				C394.445,190.357,411.787,211.841,429.518,232.936z"/>
		</g>
	</g>
</g>
</svg>
