<?xml version="1.0" encoding="utf-8"?>
<!-- Generator: Adobe Illustrator 14.0.0, SVG Export Plug-In . SVG Version: 6.00 Build 43363)  -->
<!DOCTYPE svg PUBLIC "-//W3C//DTD SVG 1.0//EN" "http://www.w3.org/TR/2001/REC-SVG-20010904/DTD/svg10.dtd">
<svg version="1.0" xmlns="http://www.w3.org/2000/svg" xmlns:xlink="http://www.w3.org/1999/xlink" x="0px" y="0px" width="612px"
	 height="792px" viewBox="0 0 612 792" enable-background="new 0 0 612 792" xml:space="preserve">
<g id="Layer_1_x23_000000">
	<g>
		<g>
			<path fill="none" d="M350.2,218.95c38.069,20.86,63.09,86.88,27.39,128.53c-9.76-2.18-9.34-14.54-18.96-16.86
				c-2.66,5.08-4.26,11.2-8.43,14.75c-20.82,17.55-77.22,21.47-96.92,0c-7.01,1.46-3.4-4.35-2.11-6.32
				c-12.12-1.58-17.78,3.29-23.18,8.43c2.63,8.88,8.64-0.2,14.75,0c19.45,18.83,50.54,28.95,84.279,18.96
				c18.07-5.34,31.461-24.87,46.36-16.85c-16.77,38.64-75.85,40.39-120.1,29.5c-26.75-17.29-51.69-58.8-33.72-101.14
				C259.42,254.6,297.87,229.83,350.2,218.95z M339.66,294.81c4.109-6.43,7.01-14.06,6.32-25.29c-3.931-1.68-7.711-3.52-12.641-4.21
				C334.03,277.52,326.49,291.86,339.66,294.81z M276.45,326.41c7.95,29.14,79.92,14.85,61.109-27.39
				C314.32,278.14,268.55,297.42,276.45,326.41z M278.56,290.59c12.25,5.99,18.4-15.37,12.64-27.39
				C277.28,262.62,278.28,276.97,278.56,290.59z"/>
			<path d="M584.07,513.93c1.75,35.021-21.971,62.641-48.46,82.181c-18.07,13.319-46.58,33.04-73.74,31.6
				c-26.851-1.42-53.36-20.12-82.17-14.75c-7.79,1.45-10.48,7.35-16.86,10.54c-45.68,22.81-123.99,31.5-174.88,2.1
				c-40.98,3.811-77.34,33.29-117.99,25.29c-38.31-7.55-66.77-84.83-61.1-136.96c18.71-16.399,50-20.229,84.28-21.069
				c1.03-9.46-1.07-15.78-2.11-23.17c-12.1,0.909-26.14,8.85-35.82,0c-2.01-11.15,8.86-9.41,14.75-12.65
				c-0.96-6.61-15.49-6.63-8.43-14.74c2.05-0.06,1.64-2.58,2.11-4.22c25.68,6.49,47.95-0.11,69.53-12.64
				c-12.28-23.15,2.15-47.59,18.96-54.78c-10.92-27.46,3.32-67.45,0-96.92c-0.79-7.05-5.18-12.64-4.21-18.97
				c1.34-8.78,11.92-15.42,14.75-21.07c16.27-32.57,17.77-73.29,35.81-99.03c37.53-53.53,90.35-9.78,145.39,21.07
				c8.22,0.2,8.34,8.52,12.64,12.65c13.461-4.96,33.141-1.9,40.03,6.32c2.601,5.96,2.601,13,0,18.96
				c16.95-0.09,29.41,4.3,35.82,14.75c-2.29,11.06-7.45,19.23-16.86,23.18c-1.56,8.59,6.8,7.25,4.221,16.85
				c-4.471,8.18-13.771,11.52-18.961,18.97c9.131,55.64-15.739,95.11-48.47,115.88c43,24.431,90.3,44.55,134.851,67.42
				c9.89-2.05,12.71-11.17,16.859-18.96c7.71,3.53,17.5,4.971,23.181,10.54c-0.96,8.87-9.971,9.7-12.65,16.851
				c7.59,2.949,16.09,4.979,23.18,8.43c5.3,5.92-1.899,12.11-2.109,18.96c-13.761-0.28-23.58-4.51-31.601-10.53
				c-7.27,4.67-6.479,17.4-12.64,23.17C526.91,494.77,565.8,491.63,584.07,513.93z M497.69,610.85
				c25.51-12.35,82.46-55.25,80.06-86.38c-2.05-26.64-68.87-18.51-94.81-12.64c-9.891,33.12-32.83,63.86-25.29,107.45
				C467.68,616.24,483.86,617.55,497.69,610.85z M529.29,476.01c-3.66-10.39-21.83-6.26-27.39-14.75
				c0.689-9.85,11.949-9.12,12.64-18.96c-10.78,3.26-11.17,16.91-23.17,18.96c-29.76-8.88-54.59-33.899-84.28-35.819
				C447.53,442.59,479.16,468.55,529.29,476.01z M489.26,497.08c-14.42-2.03-8.85-14.28-6.319-25.29
				c-23.28-4.82-41.12-26.29-61.101-27.39c34.96,40.319,14.71,121.439-18.97,147.489c14.67,1.15,35.149,6.511,46.36,4.221
				C457.75,558.28,461.84,516.01,489.26,497.08z M426.05,547.65c35.67-81.24-32.83-140.24-88.49-158.03
				c-27.18,10.99-68.819-1.72-90.6-2.11C198.69,406,136.05,470.46,141.61,532.9c3.75,42.239,37.8,83.31,69.53,94.81
				C290.64,656.53,397.38,612.93,426.05,547.65z M400.77,229.49c6.811-7.94,23.19-6.3,23.171-21.07
				c-20.58-12.25-49.421-3.92-61.101,10.53c18.16,9.19,30.95,58.52,48.46,25.29C410.14,236.98,399.57,239.12,400.77,229.49z
				 M447.12,612.96c-10.771-8.69-47.5-18.67-56.89-8.43C412.19,604.35,428.43,609.88,447.12,612.96z M377.59,204.21
				c0.351-12.3,15.25-10.04,14.75-23.18c-9.27-7.54-29.05-8.45-37.93,0c-7.99-32.51-40.96-14.94-56.89,0
				c-26.28-17.4-49.31-6.74-54.78,23.18c-22.11-14.82-55.6-2.08-48.46,31.6c-7.94,1.89-17.85,1.82-25.28,4.21
				c-3.18,3.85-2.24,11.82-6.32,14.75c-3.48-0.03-1.18-5.84-4.22-6.32c-12.74,15.78,8.44,27.83,14.75,37.93
				c-31.46,21.06,7.71,61.1,35.82,46.35c-0.19-13.68-5.11-29.68,0-42.14c-6.18-0.58-7.83,8.44-10.54,0
				C241.48,245.09,300.13,215.24,377.59,204.21z M377.59,347.48c35.7-41.65,10.68-107.67-27.39-128.53
				c-52.33,10.88-90.78,35.65-130.64,59c-17.97,42.34,6.97,83.85,33.72,101.14c44.25,10.89,103.331,9.14,120.1-29.5
				c-14.899-8.02-28.29,11.51-46.36,16.85c-33.74,9.99-64.83-0.13-84.279-18.96c-6.11-0.2-12.12,8.88-14.75,0
				c5.4-5.14,11.06-10.01,23.18-8.43c-1.29,1.97-4.9,7.78,2.11,6.32c19.7,21.47,76.1,17.55,96.92,0c4.17-3.55,5.77-9.67,8.43-14.75
				C368.25,332.94,367.83,345.3,377.59,347.48z M238.53,193.67c3.05-44.01,57.74-15.89,80.06-35.82
				c-23.02-20.14-49.87-46.6-94.81-37.92C198.26,149.9,181.68,188.8,169,231.6c25.38,5.65,18.31-26.25,31.6-35.82
				C210.96,188.32,222.95,189.5,238.53,193.67z M204.82,395.94c12.33-5.23,25.69-9.42,35.81-16.85
				c-20.3-4.44-14.48-43.32-37.92-37.93c-2.64,9.3-8.63,15.25-8.43,27.39C203.4,372.07,206.29,381.82,204.82,395.94z M196.39,402.26
				c1.25-7.6,3.55-14.13,0-21.07c-19.15,5.23-27.18,6.15-48.46,2.11c-6.64,7.41-15.73,12.37-12.65,29.5
				c3.82,2,12.34,2.61,6.33,8.431C163.04,418.08,174.92,405.38,196.39,402.26z M192.17,341.16c-16.62-2.34-27.95-9.97-35.82-21.07
				c-3.81,19.32,2.32,43,10.54,56.89C189.3,379.02,189.57,358.92,192.17,341.16z M179.53,615.07
				c-21.02-7.53-46.54,12.729-65.32,21.069C136.92,630.05,161.53,625.86,179.53,615.07z M158.46,294.81
				c-0.2-6.12,8.88-12.12,0-14.75C156.49,281.84,153.96,293.49,158.46,294.81z M143.71,433.87c3.06-1.51,19.48-8.47,8.43-6.32
				c-20.47,3.98-34.75,14.12-56.89,25.28c-3.69,0.58-10.51-5.93-12.64,0c6.31,1.39-2.01,4.5,0,8.43c6.44,1.53,6.2-3.64,12.64-2.109
				c5.14,6.81,1.34,22.55,10.54,25.29c0.29-11.54-2.44-20.051-4.22-29.5C113.49,445.98,129.77,440.78,143.71,433.87z M164.78,606.64
				c-8.5-23.35-26.1-40.59-29.5-67.42c-6.09-48.17,26.58-83.899,40.04-111.67c-18.81,12.79-43.9,19.311-63.21,31.601
				c-7.76,50.819,13.61,106.989,2.1,164.35C127.79,622.73,148.1,611.24,164.78,606.64z M103.68,640.35
				c11.42-40.58,4.12-95.619-2.11-136.949C64.99,501.93,32,504.06,15.19,522.36C21.52,583.68,33.38,649.94,103.68,640.35z"/>
			<path d="M345.98,269.52c0.689,11.23-2.211,18.86-6.32,25.29c-13.17-2.95-5.63-17.29-6.32-29.5
				C338.27,266,342.05,267.84,345.98,269.52z"/>
			<path d="M337.56,299.02c18.811,42.24-53.16,56.53-61.109,27.39C268.55,297.42,314.32,278.14,337.56,299.02z M282.77,322.2
				c10.74,18.69,51.73,11.32,50.57-12.64C322.35,291.39,279.28,292.03,282.77,322.2z"/>
			<path d="M289.1,417.01c24.08-8.93,25.99,37.63,10.53,42.141C277.43,465.63,267.37,425.07,289.1,417.01z M299.63,450.72
				c7.79-7.319,5.49-18.609,0-27.39C280.74,414.92,271.44,456.08,299.63,450.72z"/>
			<path d="M286.99,505.5c8.91,6.9,20.93,28.37,8.43,46.36C254.33,562.62,242.16,500.76,286.99,505.5z M289.1,545.54
				c32.2-36.05-47.06-42.15-25.29-8.43C267.85,543.36,275.95,540.76,289.1,545.54z"/>
			<path d="M291.2,263.2c5.76,12.02-0.39,33.38-12.64,27.39C278.28,276.97,277.28,262.62,291.2,263.2z"/>
		</g>
	</g>
</g>
<g id="Layer_2_x23_ED1C24">
	<g>
		<g>
			<path fill="#ED1C24" d="M333.34,309.56c1.16,23.96-39.83,31.33-50.57,12.64C279.28,292.03,322.35,291.39,333.34,309.56z"/>
			<path fill="none" d="M584.07,513.93c1.75,35.021-21.971,62.641-48.46,82.181c-18.07,13.319-46.58,33.04-73.74,31.6
				c-26.851-1.42-53.36-20.12-82.17-14.75c-7.79,1.45-10.48,7.35-16.86,10.54c-45.68,22.81-123.99,31.5-174.88,2.1
				c-40.98,3.811-77.34,33.29-117.99,25.29c-38.31-7.55-66.77-84.83-61.1-136.96c18.71-16.399,50-20.229,84.28-21.069
				c1.03-9.46-1.07-15.78-2.11-23.17c-12.1,0.909-26.14,8.85-35.82,0c-2.01-11.15,8.86-9.41,14.75-12.65
				c-0.96-6.61-15.49-6.63-8.43-14.74c2.05-0.06,1.64-2.58,2.11-4.22c25.68,6.49,47.95-0.11,69.53-12.64
				c-12.28-23.15,2.15-47.59,18.96-54.78c-10.92-27.46,3.32-67.45,0-96.92c-0.79-7.05-5.18-12.64-4.21-18.97
				c1.34-8.78,11.92-15.42,14.75-21.07c16.27-32.57,17.77-73.29,35.81-99.03c37.53-53.53,90.35-9.78,145.39,21.07
				c8.22,0.2,8.34,8.52,12.64,12.65c13.461-4.96,33.141-1.9,40.03,6.32c2.601,5.96,2.601,13,0,18.96
				c16.95-0.09,29.41,4.3,35.82,14.75c-2.29,11.06-7.45,19.23-16.86,23.18c-1.56,8.59,6.8,7.25,4.221,16.85
				c-4.471,8.18-13.771,11.52-18.961,18.97c9.131,55.64-15.739,95.11-48.47,115.88c43,24.431,90.3,44.55,134.851,67.42
				c9.89-2.05,12.71-11.17,16.859-18.96c7.71,3.53,17.5,4.971,23.181,10.54c-0.96,8.87-9.971,9.7-12.65,16.851
				c7.59,2.949,16.09,4.979,23.18,8.43c5.3,5.92-1.899,12.11-2.109,18.96c-13.761-0.28-23.58-4.51-31.601-10.53
				c-7.27,4.67-6.479,17.4-12.64,23.17C526.91,494.77,565.8,491.63,584.07,513.93z M497.69,610.85
				c25.51-12.35,82.46-55.25,80.06-86.38c-2.05-26.64-68.87-18.51-94.81-12.64c-9.891,33.12-32.83,63.86-25.29,107.45
				C467.68,616.24,483.86,617.55,497.69,610.85z M529.29,476.01c-3.66-10.39-21.83-6.26-27.39-14.75
				c0.689-9.85,11.949-9.12,12.64-18.96c-10.78,3.26-11.17,16.91-23.17,18.96c-29.76-8.88-54.59-33.899-84.28-35.819
				C447.53,442.59,479.16,468.55,529.29,476.01z M489.26,497.08c-14.42-2.03-8.85-14.28-6.319-25.29
				c-23.28-4.82-41.12-26.29-61.101-27.39c34.96,40.319,14.71,121.439-18.97,147.489c14.67,1.15,35.149,6.511,46.36,4.221
				C457.75,558.28,461.84,516.01,489.26,497.08z M426.05,547.65c35.67-81.24-32.83-140.24-88.49-158.03
				c-27.18,10.99-68.819-1.72-90.6-2.11C198.69,406,136.05,470.46,141.61,532.9c3.75,42.239,37.8,83.31,69.53,94.81
				C290.64,656.53,397.38,612.93,426.05,547.65z M400.77,229.49c6.811-7.94,23.19-6.3,23.171-21.07
				c-20.58-12.25-49.421-3.92-61.101,10.53c18.16,9.19,30.95,58.52,48.46,25.29C410.14,236.98,399.57,239.12,400.77,229.49z
				 M447.12,612.96c-10.771-8.69-47.5-18.67-56.89-8.43C412.19,604.35,428.43,609.88,447.12,612.96z M377.59,204.21
				c0.351-12.3,15.25-10.04,14.75-23.18c-9.27-7.54-29.05-8.45-37.93,0c-7.99-32.51-40.96-14.94-56.89,0
				c-26.28-17.4-49.31-6.74-54.78,23.18c-22.11-14.82-55.6-2.08-48.46,31.6c-7.94,1.89-17.85,1.82-25.28,4.21
				c-3.18,3.85-2.24,11.82-6.32,14.75c-3.48-0.03-1.18-5.84-4.22-6.32c-12.74,15.78,8.44,27.83,14.75,37.93
				c-31.46,21.06,7.71,61.1,35.82,46.35c-0.19-13.68-5.11-29.68,0-42.14c-6.18-0.58-7.83,8.44-10.54,0
				C241.48,245.09,300.13,215.24,377.59,204.21z M377.59,347.48c35.7-41.65,10.68-107.67-27.39-128.53
				c-52.33,10.88-90.78,35.65-130.64,59c-17.97,42.34,6.97,83.85,33.72,101.14c44.25,10.89,103.331,9.14,120.1-29.5
				c-14.899-8.02-28.29,11.51-46.36,16.85c-33.74,9.99-64.83-0.13-84.279-18.96c-6.11-0.2-12.12,8.88-14.75,0
				c5.4-5.14,11.06-10.01,23.18-8.43c-1.29,1.97-4.9,7.78,2.11,6.32c19.7,21.47,76.1,17.55,96.92,0c4.17-3.55,5.77-9.67,8.43-14.75
				C368.25,332.94,367.83,345.3,377.59,347.48z M238.53,193.67c3.05-44.01,57.74-15.89,80.06-35.82
				c-23.02-20.14-49.87-46.6-94.81-37.92C198.26,149.9,181.68,188.8,169,231.6c25.38,5.65,18.31-26.25,31.6-35.82
				C210.96,188.32,222.95,189.5,238.53,193.67z M204.82,395.94c12.33-5.23,25.69-9.42,35.81-16.85
				c-20.3-4.44-14.48-43.32-37.92-37.93c-2.64,9.3-8.63,15.25-8.43,27.39C203.4,372.07,206.29,381.82,204.82,395.94z M196.39,402.26
				c1.25-7.6,3.55-14.13,0-21.07c-19.15,5.23-27.18,6.15-48.46,2.11c-6.64,7.41-15.73,12.37-12.65,29.5
				c3.82,2,12.34,2.61,6.33,8.431C163.04,418.08,174.92,405.38,196.39,402.26z M192.17,341.16c-16.62-2.34-27.95-9.97-35.82-21.07
				c-3.81,19.32,2.32,43,10.54,56.89C189.3,379.02,189.57,358.92,192.17,341.16z M179.53,615.07
				c-21.02-7.53-46.54,12.729-65.32,21.069C136.92,630.05,161.53,625.86,179.53,615.07z M158.46,294.81
				c-0.2-6.12,8.88-12.12,0-14.75C156.49,281.84,153.96,293.49,158.46,294.81z M143.71,433.87c3.06-1.51,19.48-8.47,8.43-6.32
				c-20.47,3.98-34.75,14.12-56.89,25.28c-3.69,0.58-10.51-5.93-12.64,0c6.31,1.39-2.01,4.5,0,8.43c6.44,1.53,6.2-3.64,12.64-2.109
				c5.14,6.81,1.34,22.55,10.54,25.29c0.29-11.54-2.44-20.051-4.22-29.5C113.49,445.98,129.77,440.78,143.71,433.87z M164.78,606.64
				c-8.5-23.35-26.1-40.59-29.5-67.42c-6.09-48.17,26.58-83.899,40.04-111.67c-18.81,12.79-43.9,19.311-63.21,31.601
				c-7.76,50.819,13.61,106.989,2.1,164.35C127.79,622.73,148.1,611.24,164.78,606.64z M103.68,640.35
				c11.42-40.58,4.12-95.619-2.11-136.949C64.99,501.93,32,504.06,15.19,522.36C21.52,583.68,33.38,649.94,103.68,640.35z"/>
			<path fill="#ED1C24" d="M263.81,537.11c-21.77-33.721,57.49-27.62,25.29,8.43C275.95,540.76,267.85,543.36,263.81,537.11z"/>
			<path fill="#ED1C24" d="M299.63,423.33c5.49,8.78,7.79,20.07,0,27.39C271.44,456.08,280.74,414.92,299.63,423.33z"/>
			<path fill="#ED1C24" d="M158.46,280.06c8.88,2.63-0.2,8.63,0,14.75C153.96,293.49,156.49,281.84,158.46,280.06z"/>
			<path fill="#ED1C24" d="M156.35,320.09c7.87,11.1,19.2,18.73,35.82,21.07c-2.6,17.76-2.87,37.86-25.28,35.82
				C158.67,363.09,152.54,339.41,156.35,320.09z"/>
			<path fill="#ED1C24" d="M318.59,157.85c-22.32,19.93-77.01-8.19-80.06,35.82c-15.58-4.17-27.57-5.35-37.93,2.11
				c-13.29,9.57-6.22,41.47-31.6,35.82c12.68-42.8,29.26-81.7,54.78-111.67C268.72,111.25,295.57,137.71,318.59,157.85z"/>
		</g>
	</g>
</g>
<g id="Layer_3_x23_FFFFFF">
	<g>
		<g>
			<path fill="#FFFFFF" d="M577.75,524.47c2.4,31.13-54.55,74.03-80.06,86.38c-13.83,6.7-30.011,5.391-40.04,8.431
				c-7.54-43.59,15.399-74.33,25.29-107.45C508.88,505.96,575.7,497.83,577.75,524.47z"/>
			<path fill="#FFFFFF" d="M101.57,503.4c6.23,41.33,13.53,96.369,2.11,136.949c-70.3,9.591-82.16-56.67-88.49-117.989
				C32,504.06,64.99,501.93,101.57,503.4z"/>
			<path fill="#FFFFFF" d="M196.39,381.19c3.55,6.94,1.25,13.47,0,21.07c-21.47,3.12-33.35,15.82-54.78,18.971
				c6.01-5.82-2.51-6.431-6.33-8.431c-3.08-17.13,6.01-22.09,12.65-29.5C169.21,387.34,177.24,386.42,196.39,381.19z"/>
			<path fill="#FFFFFF" d="M423.94,208.42c0.02,14.77-16.36,13.13-23.171,21.07c-1.199,9.63,9.37,7.49,10.53,14.75
				c-17.51,33.23-30.3-16.1-48.46-25.29C374.52,204.5,403.36,196.17,423.94,208.42z"/>
			<path fill="#FFFFFF" d="M392.34,181.03c0.5,13.14-14.399,10.88-14.75,23.18c-77.46,11.03-136.11,40.88-179.1,86.38
				c2.71,8.44,4.36-0.58,10.54,0c-5.11,12.46-0.19,28.46,0,42.14c-28.11,14.75-67.28-25.29-35.82-46.35
				c-6.31-10.1-27.49-22.15-14.75-37.93c3.04,0.48,0.74,6.29,4.22,6.32c4.08-2.93,3.14-10.9,6.32-14.75
				c7.43-2.39,17.34-2.32,25.28-4.21c-7.14-33.68,26.35-46.42,48.46-31.6c5.47-29.92,28.5-40.58,54.78-23.18
				c15.93-14.94,48.9-32.51,56.89,0C363.29,172.58,383.07,173.49,392.34,181.03z"/>
			<path fill="none" d="M584.07,513.93c1.75,35.021-21.971,62.641-48.46,82.181c-18.07,13.319-46.58,33.04-73.74,31.6
				c-26.851-1.42-53.36-20.12-82.17-14.75c-7.79,1.45-10.48,7.35-16.86,10.54c-45.68,22.81-123.99,31.5-174.88,2.1
				c-40.98,3.811-77.34,33.29-117.99,25.29c-38.31-7.55-66.77-84.83-61.1-136.96c18.71-16.399,50-20.229,84.28-21.069
				c1.03-9.46-1.07-15.78-2.11-23.17c-12.1,0.909-26.14,8.85-35.82,0c-2.01-11.15,8.86-9.41,14.75-12.65
				c-0.96-6.61-15.49-6.63-8.43-14.74c2.05-0.06,1.64-2.58,2.11-4.22c25.68,6.49,47.95-0.11,69.53-12.64
				c-12.28-23.15,2.15-47.59,18.96-54.78c-10.92-27.46,3.32-67.45,0-96.92c-0.79-7.05-5.18-12.64-4.21-18.97
				c1.34-8.78,11.92-15.42,14.75-21.07c16.27-32.57,17.77-73.29,35.81-99.03c37.53-53.53,90.35-9.78,145.39,21.07
				c8.22,0.2,8.34,8.52,12.64,12.65c13.461-4.96,33.141-1.9,40.03,6.32c2.601,5.96,2.601,13,0,18.96
				c16.95-0.09,29.41,4.3,35.82,14.75c-2.29,11.06-7.45,19.23-16.86,23.18c-1.56,8.59,6.8,7.25,4.221,16.85
				c-4.471,8.18-13.771,11.52-18.961,18.97c9.131,55.64-15.739,95.11-48.47,115.88c43,24.431,90.3,44.55,134.851,67.42
				c9.89-2.05,12.71-11.17,16.859-18.96c7.71,3.53,17.5,4.971,23.181,10.54c-0.96,8.87-9.971,9.7-12.65,16.851
				c7.59,2.949,16.09,4.979,23.18,8.43c5.3,5.92-1.899,12.11-2.109,18.96c-13.761-0.28-23.58-4.51-31.601-10.53
				c-7.27,4.67-6.479,17.4-12.64,23.17C526.91,494.77,565.8,491.63,584.07,513.93z M497.69,610.85
				c25.51-12.35,82.46-55.25,80.06-86.38c-2.05-26.64-68.87-18.51-94.81-12.64c-9.891,33.12-32.83,63.86-25.29,107.45
				C467.68,616.24,483.86,617.55,497.69,610.85z M529.29,476.01c-3.66-10.39-21.83-6.26-27.39-14.75
				c0.689-9.85,11.949-9.12,12.64-18.96c-10.78,3.26-11.17,16.91-23.17,18.96c-29.76-8.88-54.59-33.899-84.28-35.819
				C447.53,442.59,479.16,468.55,529.29,476.01z M489.26,497.08c-14.42-2.03-8.85-14.28-6.319-25.29
				c-23.28-4.82-41.12-26.29-61.101-27.39c34.96,40.319,14.71,121.439-18.97,147.489c14.67,1.15,35.149,6.511,46.36,4.221
				C457.75,558.28,461.84,516.01,489.26,497.08z M426.05,547.65c35.67-81.24-32.83-140.24-88.49-158.03
				c-27.18,10.99-68.819-1.72-90.6-2.11C198.69,406,136.05,470.46,141.61,532.9c3.75,42.239,37.8,83.31,69.53,94.81
				C290.64,656.53,397.38,612.93,426.05,547.65z M400.77,229.49c6.811-7.94,23.19-6.3,23.171-21.07
				c-20.58-12.25-49.421-3.92-61.101,10.53c18.16,9.19,30.95,58.52,48.46,25.29C410.14,236.98,399.57,239.12,400.77,229.49z
				 M447.12,612.96c-10.771-8.69-47.5-18.67-56.89-8.43C412.19,604.35,428.43,609.88,447.12,612.96z M377.59,204.21
				c0.351-12.3,15.25-10.04,14.75-23.18c-9.27-7.54-29.05-8.45-37.93,0c-7.99-32.51-40.96-14.94-56.89,0
				c-26.28-17.4-49.31-6.74-54.78,23.18c-22.11-14.82-55.6-2.08-48.46,31.6c-7.94,1.89-17.85,1.82-25.28,4.21
				c-3.18,3.85-2.24,11.82-6.32,14.75c-3.48-0.03-1.18-5.84-4.22-6.32c-12.74,15.78,8.44,27.83,14.75,37.93
				c-31.46,21.06,7.71,61.1,35.82,46.35c-0.19-13.68-5.11-29.68,0-42.14c-6.18-0.58-7.83,8.44-10.54,0
				C241.48,245.09,300.13,215.24,377.59,204.21z M377.59,347.48c35.7-41.65,10.68-107.67-27.39-128.53
				c-52.33,10.88-90.78,35.65-130.64,59c-17.97,42.34,6.97,83.85,33.72,101.14c44.25,10.89,103.331,9.14,120.1-29.5
				c-14.899-8.02-28.29,11.51-46.36,16.85c-33.74,9.99-64.83-0.13-84.279-18.96c-6.11-0.2-12.12,8.88-14.75,0
				c5.4-5.14,11.06-10.01,23.18-8.43c-1.29,1.97-4.9,7.78,2.11,6.32c19.7,21.47,76.1,17.55,96.92,0c4.17-3.55,5.77-9.67,8.43-14.75
				C368.25,332.94,367.83,345.3,377.59,347.48z M238.53,193.67c3.05-44.01,57.74-15.89,80.06-35.82
				c-23.02-20.14-49.87-46.6-94.81-37.92C198.26,149.9,181.68,188.8,169,231.6c25.38,5.65,18.31-26.25,31.6-35.82
				C210.96,188.32,222.95,189.5,238.53,193.67z M204.82,395.94c12.33-5.23,25.69-9.42,35.81-16.85
				c-20.3-4.44-14.48-43.32-37.92-37.93c-2.64,9.3-8.63,15.25-8.43,27.39C203.4,372.07,206.29,381.82,204.82,395.94z M196.39,402.26
				c1.25-7.6,3.55-14.13,0-21.07c-19.15,5.23-27.18,6.15-48.46,2.11c-6.64,7.41-15.73,12.37-12.65,29.5
				c3.82,2,12.34,2.61,6.33,8.431C163.04,418.08,174.92,405.38,196.39,402.26z M192.17,341.16c-16.62-2.34-27.95-9.97-35.82-21.07
				c-3.81,19.32,2.32,43,10.54,56.89C189.3,379.02,189.57,358.92,192.17,341.16z M179.53,615.07
				c-21.02-7.53-46.54,12.729-65.32,21.069C136.92,630.05,161.53,625.86,179.53,615.07z M158.46,294.81
				c-0.2-6.12,8.88-12.12,0-14.75C156.49,281.84,153.96,293.49,158.46,294.81z M143.71,433.87c3.06-1.51,19.48-8.47,8.43-6.32
				c-20.47,3.98-34.75,14.12-56.89,25.28c-3.69,0.58-10.51-5.93-12.64,0c6.31,1.39-2.01,4.5,0,8.43c6.44,1.53,6.2-3.64,12.64-2.109
				c5.14,6.81,1.34,22.55,10.54,25.29c0.29-11.54-2.44-20.051-4.22-29.5C113.49,445.98,129.77,440.78,143.71,433.87z M164.78,606.64
				c-8.5-23.35-26.1-40.59-29.5-67.42c-6.09-48.17,26.58-83.899,40.04-111.67c-18.81,12.79-43.9,19.311-63.21,31.601
				c-7.76,50.819,13.61,106.989,2.1,164.35C127.79,622.73,148.1,611.24,164.78,606.64z M103.68,640.35
				c11.42-40.58,4.12-95.619-2.11-136.949C64.99,501.93,32,504.06,15.19,522.36C21.52,583.68,33.38,649.94,103.68,640.35z"/>
			<path fill="#FFFFFF" d="M337.56,389.62c55.66,17.79,124.16,76.79,88.49,158.03c-28.67,65.279-135.41,108.88-214.91,80.06
				c-31.73-11.5-65.78-52.57-69.53-94.81c-5.56-62.44,57.08-126.9,105.35-145.391C268.74,387.9,310.38,400.61,337.56,389.62z
				 M299.63,459.15c15.46-4.511,13.55-51.07-10.53-42.141C267.37,425.07,277.43,465.63,299.63,459.15z M295.42,551.86
				c12.5-17.99,0.48-39.46-8.43-46.36C242.16,500.76,254.33,562.62,295.42,551.86z"/>
			<path fill="#FFFFFF" d="M350.2,218.95c38.069,20.86,63.09,86.88,27.39,128.53c-9.76-2.18-9.34-14.54-18.96-16.86
				c-2.66,5.08-4.26,11.2-8.43,14.75c-20.82,17.55-77.22,21.47-96.92,0c-7.01,1.46-3.4-4.35-2.11-6.32
				c-12.12-1.58-17.78,3.29-23.18,8.43c2.63,8.88,8.64-0.2,14.75,0c19.45,18.83,50.54,28.95,84.279,18.96
				c18.07-5.34,31.461-24.87,46.36-16.85c-16.77,38.64-75.85,40.39-120.1,29.5c-26.75-17.29-51.69-58.8-33.72-101.14
				C259.42,254.6,297.87,229.83,350.2,218.95z M339.66,294.81c4.109-6.43,7.01-14.06,6.32-25.29c-3.931-1.68-7.711-3.52-12.641-4.21
				C334.03,277.52,326.49,291.86,339.66,294.81z M276.45,326.41c7.95,29.14,79.92,14.85,61.109-27.39
				C314.32,278.14,268.55,297.42,276.45,326.41z M278.56,290.59c12.25,5.99,18.4-15.37,12.64-27.39
				C277.28,262.62,278.28,276.97,278.56,290.59z"/>
		</g>
	</g>
</g>
<g id="Layer_4_x23_6C5635">
	<g>
		<g>
			<path fill="#6C5735" d="M501.9,461.26c5.56,8.49,23.729,4.36,27.39,14.75c-50.13-7.46-81.76-33.42-122.2-50.569
				c29.69,1.92,54.521,26.939,84.28,35.819c12-2.05,12.39-15.7,23.17-18.96C513.85,452.14,502.59,451.41,501.9,461.26z"/>
			<path fill="#6C5735" d="M390.23,604.53c9.39-10.24,46.119-0.261,56.89,8.43C428.43,609.88,412.19,604.35,390.23,604.53z"/>
			<path fill="#6C5735" d="M114.21,636.14c18.78-8.34,44.3-28.6,65.32-21.069C161.53,625.86,136.92,630.05,114.21,636.14z"/>
			<path fill="#6C5735" d="M152.14,427.55c11.05-2.149-5.37,4.811-8.43,6.32c-13.94,6.91-30.22,12.11-42.14,21.07
				c1.78,9.449,4.51,17.96,4.22,29.5c-9.2-2.74-5.4-18.48-10.54-25.29c-6.44-1.53-6.2,3.64-12.64,2.109c-2.01-3.93,6.31-7.04,0-8.43
				c2.13-5.93,8.95,0.58,12.64,0C117.39,441.67,131.67,431.53,152.14,427.55z"/>
		</g>
	</g>
</g>
</svg>
