<?xml version="1.0" encoding="utf-8"?>
<!-- Generator: Adobe Illustrator 14.0.0, SVG Export Plug-In . SVG Version: 6.00 Build 43363)  -->
<!DOCTYPE svg PUBLIC "-//W3C//DTD SVG 1.0//EN" "http://www.w3.org/TR/2001/REC-SVG-20010904/DTD/svg10.dtd">
<svg version="1.0" id="Layer_1_x23_000000" xmlns="http://www.w3.org/2000/svg" xmlns:xlink="http://www.w3.org/1999/xlink" x="0px"
	 y="0px" width="612px" height="792px" viewBox="0 0 612 792" enable-background="new 0 0 612 792" xml:space="preserve">
<g>
	<g>
		<path fill="none" d="M405.8,386.66c-0.91,0.61-0.069-2.12,0.33-2.36c-2.43-3.08-0.55-1.76-4.11-0.68
			c0.171-3.77,0.721-1.01,2.051-4.12c-4.261-0.53-3-6.59-6.16-8.22c1.59-2.3,1.859-3.54,0.68-5.48c2.12-1.3,7.03,0.18,6.17-4.11
			c-1.08-0.07-2.38,0.09-2.06-1.37c1.78,1.24,2.069-0.3,4.109,0.68c-0.47-2.48,2.851-2.65,0.69-4.79c0.88,0.04,0.95,0.88,2.05,0.68
			c0.84-3.1,1.53-4.46,0-6.85c1.3,0.51,0.48,2.05,2.061,0.69c0.12-1.95-2.32-1.34-1.37-4.12c2.81-0.06,5.39,0.1,5.479,2.75
			c-3.42-0.4,3.29,2.11,0,4.79c2.59,0.61,5,1.4,6.17,3.43c-0.939,0.03-1.51-0.33-2.06-0.69c-0.09,2.84,4.41,1.08,3.43,4.8
			c2.11,0.51,1.32-1.88,3.42-1.37c-2.66,3.41,4.801-0.31,2.061,3.42c2.67,0.44,5.279-1.48,7.54-0.68c-1.62-2.47,1.84-1.86,0-4.11
			c1.75-0.07,3.26-0.39,4.109-1.37c-0.909-1.68-2.55,0.75-2.739-0.69c2.93-0.99-0.851-4.46,2.739-4.79
			c-0.81-0.11-1.949,0.11-2.06-0.69c1.28-0.09,2.29-0.45,2.74-1.37c-3.49-3.36,3.93-6.5,0-10.28c2.979-0.87-2.09-10.24,1.37-13.02
			c-1.61-4.68-1.051-9.66-2.74-13.7c-0.95,0.42-0.101,2.64-1.37,2.74c-0.11-1.03,0.25-2.53-0.68-2.74c0,0.38-0.561,0.78-0.69,0
			c1.07-1.22,3.37-1.2,3.43-3.43c-1.279-0.65-2.29,2.06-2.739,0c0.189-1.41,2.55-0.64,2.739-2.05c-3.729-2.34,1.91-2.01-2.739-3.43
			c0.33-0.81,0.729-1.55,1.369-2.05c0.11,0.8-0.119,1.94,0.681,2.05c0-2.51,0-5.02,0-7.54c-2.22-0.39-3.181,0.47-4.79,0.69
			c-0.2,1.19,2.189,3.68-0.69,3.43c1.09-1.03,0.511-2.81-0.68-3.43c-0.771,5.15,0.47,10.56-0.69,15.07c1.28,0.66,2.29-2.05,2.74,0
			c-2.149-0.09-2.35,1.76-2.74,3.43c2.891-0.12-0.01,1.05,0,2.06c4.28,0.23-1.26,7.85,2.74,4.79c0,0.69,0.561,0.82,0.69,1.37
			c-3.721,6.4,0.87,8.18-2.061,13.71c0.08,1.29,2.271,0.47,2.061,2.05c-1.84,1.71-1.021,1.63,0,2.06c-1.13,1.51-1.83,3.93-0.69,6.16
			c0.33-0.8,0.73-1.55,1.37-2.05c-0.27,4.08-4.36,3.55-0.68,4.8c-0.96,0.85-0.3,3.87-2.061,2.05c0.15,2.49,0.471,6.35,0,8.22
			c-0.52-4.13-1.89,0.12-4.109,0c-2.74-1.78-6.7-1.3-4.801-6.16c-1.939-0.54-6.649-0.99-3.42-2.74c-1.189,0.05-2.13-0.16-2.739-0.69
			c-0.271,1.18,1.02,1.76,0,2.06c0-0.69-0.561-0.82-0.69-1.37c0.69-0.91,0.65-2.55,2.06-2.74c0.15,0.53,0.57,0.79,1.37,0.68
			c-0.85-2.37-6.859-3.16-4.8-6.17c1.08,0.07,0.54,1.75,2.061,1.37c-2.471-4.76-1.41-7.58-2.061-13.7
			c-1.359-0.69-2.399-1.71-3.42-2.74c-0.81,1.24-3.58,0.54-4.8,1.37c0.71,8.1-7.09,19.68-4.8,23.3c-1.7,1.28-3.94,4.17-0.681,4.79
			c-1.35-0.2-1.359,0.93-2.06,1.37c-0.14-0.77-0.76-1.06-1.37-1.37c0.18,2.83-3.47,4.25-2.05,6.17c-2.61,0.13-4.33,1.15-4.8,3.43
			c-3.41,0.1-4.08-1.03-6.17,0.68c-2.141-1.49-5.181-5.04-8.221-3.42c-0.47-4.87-1.6-8.78-4.109-13.02c0.3-0.76,3.02-3.56,1.37-2.06
			c-0.881,0.04-0.95,0.88-2.061,0.69c-1.05-3.75,3.5-4.42,2.061-7.54c-0.091,1.13-4.7,1.13-4.801,0c1-0.38,3.54,0.8,3.431-0.69
			c-3.101-0.91,2.09-3.48,0-6.16c0.989-0.38,3.54,0.8,3.43-0.69c-1.08-0.47,1.78-2.73,0.68-5.48c-1.08-0.07-2.38,0.09-2.05-1.37
			c-2.55-0.49-2.95,1.17-5.49,0.68c-1.04,1.34-2.89,8.65-6.16,7.54c-0.409,1.22,2,2.85,0,3.43c-0.109-0.81,0.11-1.95-0.689-2.06
			c-0.44,3.64-2.35,2.53-2.74,6.85c-4.13,1.59-6.21,5.22-7.54,9.6c-3.609,1.74-8.72,5.29-8.22,8.9c-8.01,1.86-10.26,8.48-17.82,8.91
			c0.391,0,0.78,0.56,0,0.69c-1.859-0.85-3.2-1.14-4.109-1.37c1.68-0.44,0.109-3.21-0.681-3.43c-0.2,1.6-1.859,1.6-2.06,0
			c1.18,0.04,1.76-0.53,2.06-1.37c-2.6-0.09-3.229,1.79-3.43,4.11c2.66-1.41,3.83,0.41,2.74,2.74c4.729,2.95,8.92-1.02,13.02,0
			c1.3-6.26,8.29-2.99,10.28-8.9c0.8,2.27,4.95-1.33,2.74-2.06c-0.36-1.69,9.79-4.9,8.22-10.96c0.69,0,1.37,0,2.06,0
			c-0.199,0.42-1.71,2.63,0,2.74c1.5-4.82,5.591-6.71,5.48-10.28c3.2,0,4.07-2.33,5.479-4.11c0.99,0.38,1.671,1.07,2.061,2.05
			c-3.13,0.65,0.31,4.06,0.68,6.17c-0.99,0.83-0.91,2.74-2.74,2.74c-0.51,2.8,1.46,3.11,2.74,4.11c-1.26-0.09-1.17,5.79,0,6.17
			c0.07-1.08-0.09-2.38,1.37-2.06c0.55,3.08,2.19,3.99,2.061,6.17c0.13-3.06,2.449,1.6,2.739,2.74c2.21,0.15,2.9-1.21,5.48-0.68
			c0.01,1.36,1.87,0.87,1.37,2.74c2.14-1.91,2.949,2.19,4.8,0c-0.86-0.28-1.4-0.89-1.37-2.06c2.43,1.52,3.17,2.77,3.42,0
			c0.34,0.81,0.74,1.55,1.37,2.06c0.96-0.42,0.11-2.64,1.38-2.74c-0.03,0.94,0.32,1.5,0.68,2.05c-3.09-0.06,0.301,2.07-0.68,4.11
			c2.15,0.47,2.79-0.08,3.42,0.69c0.851,2.22-2.22,0.52-1.37,2.74c2.891-0.12-0.01,1.05,0,2.05c0.94,0.03,1.511-0.32,2.061-0.68
			c-0.79,2.15,1.069,1.66,1.37,2.74C398.08,386.67,402.96,389.11,405.8,386.66z M167.66,615.18c0-0.319,4.01-0.13,2.07,1.41
			c-3.84,3.76-1.15,8.16,0.69,11.65c0.11-0.8,1.08-0.75,2.05-0.69c-0.53-2.109-2.08-2.74-1.37-4.109c1.94,0.689,1.72,1,2.74,1.369
			c-1.25,0.811,1.58,0.591,0,2.74c3.56-1.18,0.6-5.02-0.68-4.8c2.11-1.07,0.79-7.83-1.37-8.9c2.28,0.471,1.1-1.42,0.68-2.06
			c0.88,0.04,0.95,0.88,2.06,0.69c0.33-4.75,0.44-6.37,2.05-8.91c-1.56,0.189-2.57-0.17-2.74-1.37c3.11,1.28,0.94-2.72,3.43-2.061
			c0.5-1.87-1.36-1.38-1.37-2.739c0.87,0.04,0.95,0.88,2.05,0.689c-0.76-2.16-0.32-1.81,0.69-3.43c-0.81-0.11-1.95,0.12-2.06-0.69
			c1.98-0.38,1.19-0.489,3.43-1.37c0-1.59,0-3.189,0-4.79c-0.81-0.109-1.95,0.12-2.06-0.689c3.35,0.93,2.06-3.22,0.69-3.42
			c1.4-1.23,0.19-2.53,2.74-1.37c0.5-2.1-0.7-2.5-0.68-4.12c1.19,0.06,2.13-0.15,2.74-0.68c-1.86-3.45,3.87-5.5,2.05-8.91
			c-3.02-1.75-5.17-1.04-8.22,0c0.19,3.39-3.14,3.26-3.43,6.17c-4.92-1.06-8.63,11.64-13.02,8.91c-0.39,1.2,0.83,4.02-0.68,4.109
			c-0.12-1.029,0.24-2.529-0.69-2.739c-1.24,1.319,0.56,3.47,1.37,4.79c-0.97-0.261-1.15-0.82-2.05,0
			c-0.42-4.32-0.19,1.67-3.43-0.681c-0.9,1.71,2.71,2.141,0.69,2.74c-3.53-0.6-4.7,5.48-6.85,2.05c0,1.15,0,2.29,0,3.431
			c-4.58,1.01-4.14,2.779-7.54,4.8c-0.72,2.55,2.31,1.34,2.74,2.74c-1.19-0.051-2.13,0.149-2.74,0.68c0-0.68,0-1.37,0-2.05
			c-2.88-0.011-2.88,2.87-5.48,1.37c-2.36,2.54-2.22,6.899-6.17,4.109c-1.54,2.57-3.34,4.88-6.17,6.17
			c2.27,0.67-0.76,1.351-0.68,2.05c0.81,0.33,1.55,0.73,2.05,1.37c-2.76,0.54-3.86-0.79-5.48,0.69c0.83-0.21,2.36,1.979,0.69,2.05
			c0.61-2.21-2.24-0.96-2.74-2.05c-1.61,4.729-9.18,5.21-13.02,3.42c0.21-2.49-0.11-4.46-0.69-6.16c-0.99-0.38-3.54,0.8-3.42-0.689
			c0.9-0.011,0.62-1.2,1.37-1.37c0.62,2.3,1.27,0.34,3.42,0.689c-0.05-3.89,4.77-10.14,1.37-10.97c3.77-1.08,3.64-10.02,5.48-8.91
			c-0.91-4.33,3.39-4.76,1.37-8.22c3.34-2.811,6.63-11.5,4.12-15.76c3.38,0.649,0.37-2.67,3.42-0.681c0.52-2.91,3.2-3.649,2.74-7.54
			c-2.89,0.61-3.87-0.699-4.79-2.06c-2.02-0.14-3.98,3.74-8.23,3.43c-1.09,2.7,2.96,0.24,2.74,2.061c-2.88,0.819-3-1.11-4.79-1.37
			c-1.61,0.22-0.67,2.99-2.06,3.42c-0.33-1.22-0.73,0.3-1.37,0.689c-0.9-0.01-0.62-1.199-1.37-1.369
			c-1.77,1.729-2.92,2.569-4.11,3.42c-0.73,2.56,2.57,1.09,2.06,3.43c4.19-0.83,7.63-2.42,9.59-5.48c0.01,1.36,1.87,0.87,1.37,2.74
			c-1.5-0.149-3.8,6.87-1.37,9.59c-0.69,0-0.82,0.561-1.37,0.69c-0.91-0.01-0.63-1.21-1.37-1.37c-0.92,2.05-2.29,3.65-2.06,6.85
			c0.91,1.681,2.55-0.76,2.74,0.681c0,0.46,0,0.92,0,1.37c-2.56-1.471-2.07,1.319-5.48,0.689c-0.74,7.73-2.29,12.36-2.05,17.811
			c-1.03,0.12-2.53-0.24-2.74,0.689c2.84,0.09,0.13,0.45,0,1.37c0.8,1.021,1.72,1.93,2.74,2.74c-3.36,1.34-3.33-4.19-4.8-0.68
			c4.24,0.27-2.45,2.239,0,2.739c0-1.25,1.91,1.19,2.74,1.37c-2.72,1.16-1.41,3.25-2.06,5.48c1.18,0.27,1.76-1.021,2.06,0
			c-0.79,0.22-3.23,2.12-1.37,2.739c0.96-0.92,4,1.9,4.8,3.431c1.72-1.771,7.16-0.79,10.27,0c-1.7-3.49,3.35-4.67,5.49-2.75
			c1.43-1.26,3.32-1.021,2.05-3.42c6.18-1.59,10.3-5.23,12.34-10.96c1.58-0.21,0.76,1.97,2.05,2.05c0.08-1.29,2.27-0.47,2.06-2.05
			c-0.61-0.21-3-1.86-1.37-2.061c5.13,1.55,4.52-1.59,8.9-2.06c0.06-4.15,2.29-1.99,1.37-5.48c2.1-0.49,2.5,0.7,4.12,0.69
			c-0.55-1.681-1.18-3.95,1.37-4.11c-0.8,1.03-2.41,2.88,0,3.42c0.7-4.71,3.69-3.05,6.16-6.17c-0.53-0.149-1.35-0.01-1.37-0.68
			c1.44-0.61,4.09-0.021,3.43-2.74c-1.28-0.66-2.29,2.05-2.74,0c1.44-1.21,2.02-1.55,4.11-0.689c1-1.99,3.1-3.29,2.74-4.79
			c1.35-0.21,1.36,0.92,2.06,1.369c1.18-2.479,4.62-2.689,5.48-5.479c1.02,0.11,2.53-0.25,2.74,0.68c-0.04,2.931-3.54,5.17,0,8.221
			c-3.46-0.11-1.69,2.279-2.74,4.109c-0.17,0.29-1.99,0.51-2.06,0.69C167.46,601.83,167.31,614.27,167.66,615.18z M627.45,2.64
			c0,263.12,0,526.24,0,789.36c-203.51,0-407.01,0-610.52,0c0-262.43,0-524.87,0-787.3c-0.06-0.98-0.11-1.95,0.69-2.06
			C220.89,2.64,424.17,2.64,627.45,2.64z M471.91,61.57c-20.16-1.96-35.05,4.13-54.13,7.53c-13.75-8.93-37.84-10.94-56.19-13.01
			c4.01,4.52,8.28,5.52,11.65,10.27c2.31,3.26,3.08,7.72,5.479,10.97c3.561,4.81,9.55,6.06,13.021,10.96
			c-5.78,2.9-10.601,6.76-15.76,10.28c0.529,0.15,1.35,0.02,1.369,0.68c-1.3,0.16-1.51-0.77-2.739-0.68
			c-4.5,7.2-12.4,8.04-17.82,15.07c10.53,0.77,25.05-3.41,36.32,0c1.27,8.44,1.13,15.7,1.37,26.04c-3.641,0.24-5.091,2.68-7.54,4.11
			c4.949,2.04,5.88-4.38,10.279-2.05c-2.06,1.82-4.68,3.08-6.17,5.48c1.311,0.29,1.24,1.96,3.431,1.37
			c0.279-1.45,6.35-4.16,9.59-4.11c-0.91,2.95,1.149,7.05,2.739,9.59c4.021-4-1.89-9.19-0.68-13.7
			c1.311-4.89,10.36-12.45,14.39-17.82c4.211-5.61,2.5-5.53,10.961-6.17c10.739-0.81,23.42,1.07,30.84-3.42
			c-8.9-4.16-10.4-11.51-19.19-15.76c0.59-2.19-1.08-2.12-1.37-3.43c-1.779-0.73-4.59-0.43-5.479-2.05
			c-0.221-0.93-0.98-1.31-0.69-2.74C448.59,80.73,459.61,70.51,471.91,61.57z M455.46,262.33c1.47-13.9-8.06-34.64-9.59-42.48
			c-0.811-0.11-1.94,0.12-2.05-0.68c0.979-1.24,0.149-2.1,0.68-4.8c-4.74-4.63-4.48-14.25-10.28-17.82
			c0.811-0.1,1.95,0.12,2.061-0.68c-3.101-3.52-4.101-9.15-8.91-10.96c0.01-1.14,1.899-0.39,2.06-1.38
			c-3.489-0.62-0.47-4.9-4.8-5.48c0.771-0.14,1.07-0.76,1.37-1.37c-3.65-0.75-8.73-8.21-8.91-12.33c-2.12-0.16-2.66-1.91-4.109-2.74
			c0.529-0.16,1.35-0.02,1.369-0.69c-0.68,0-1.369,0-2.05,0c1.561-1.76-0.68-3.87-2.75-4.11c-0.87,0.04-0.939,0.88-2.05,0.69
			c0.6,1.68,2.05,2.51,1.37,5.48c1,0.37,3.54-0.8,3.43,0.68c-2.35,5.75,4.521,9.63,4.79,13.02c1.271-1.7,1.26-0.04,0.69,1.37
			c1.71,0.91,2.14-2.71,2.739-0.68c-3.85,1.97,2.801,4.16-0.689,4.11c1.29,1.49,3.17,1.9,4.11,2.05
			c-2.841,2.43,1.97,7.73,2.739,10.97c1.42,0.41,4.511-0.85,4.801,0.68c-0.62,1.88-2.521-1.33-2.74,1.37
			c0.81,0.11,1.95-0.11,2.06,0.69c-4.28,1,4.98,15.31,6.851,15.07c-1.36,1.56,0.729,3.83,0,6.86c1.72-0.12,1.659,1.53,2.739,2.05
			c-3.6,1.66,2.891,4.17,1.37,8.22c2.11,0.48,1.32,0.48,3.431,0c-3.21,2.68,2.1,5.63-0.69,7.54c4.63,5.82,1.14,9.75,4.8,17.13
			c0.01-0.9,1.9-0.87,2.05,0c-1.71-0.11-2.14,1.05-2.739,2.06c1.739,1.79,0.409,6.66,2.51,8.09c-3.33-1.93-0.74,4.87-4.561,4.24
			c0-0.68,0-1.37,0-2.06c-4.75,3.06-7.25-5.07-10.279-1.37c-1.92-5.57-4.601-11.16-7.54-16.44c-0.16,0.74-1.13,1.64-1.37,0.68
			c3.229-3.19,0.03-11.76-2.74-15.07c0.79-4.98-2.189-13.15-2.06-17.82c-2.141,0.08-2.98-1.5-5.48-0.68
			c0.12,2.86-2.1,3.38-2.05,6.17c4.71,4.96,0.67,11.35,3.42,18.5c-2.979,0.32-1.02,9.85,0,9.59c-0.45,0.92-1.46,1.28-2.74,1.37
			c-0.17,4.35-1.7,8.38,0.69,10.96c-5.23,3-3.78,12.67-10.28,14.39c-8.63-6.21-10.729-18.96-17.13-27.41
			c1.58-2.3-0.24-7.04-0.69-9.59c-2.069,0.94-2.439-0.32-5.479,0c-4.021,6.02-14.57,13.85-18.5,19.87
			c-6.57,1.99-8.98,9.06-16.44,8.23c-0.72-3.33,0.011-4.03-1.37-6.17c2.021-4.06,3.7-7.42,1.37-11.65
			c7.011-3.5,5.391-15.62,8.9-22.61c-1.25-1.85-2.32-0.12-3.42-1.37c26.02-4.07,23.76-43.18,0.68-47.28
			c-13.38-2.38-26.78,7.3-28.78,17.81c-3.439,18.19,7.671,27.35,21.931,30.15c-10.45,1.46-18.28,3.42-30.15,4.8
			c-4.8,0.56-9.38,1.01-10.96,0c-0.27,1.18,1.021,1.76,0,2.06c-1.24-3.7-8.53,2.36-5.48-1.38c-2.68,0.97-8.51,1.31-10.28-0.68
			c-0.81-6.17,3.48-8.95,3.42-12.33c0.16,0.53,0.02,1.35,0.69,1.37c1.28-4.58,8.4-7.67,8.91-12.34c-4.82-1.19-5.95,2.39-9.6,5.48
			c0.95,0.69-0.29,1.13,1.37,2.06c-2.79-0.21-0.36,1.43-0.68,2.74c-0.91,0-1.83,0-2.74,0c0.01-1.36,1.87-0.87,1.37-2.74
			c-2.15,0.14-2.8,1.77-4.11,2.74c-0.21,1.35,0.92,1.36,1.37,2.06c-2.37-0.54-3.02,0.64-3.43,2.05c1.6-0.21,2.95-1.46,3.43,0.69
			c-0.42,1.18-3.25-0.06-3.43,1.37c0.55,4.17-10.27,5.9-10.28,9.59c-8.94,1.11-17.33,5.66-21.24,13.7
			c-5.43-0.09-8.05,8.33-14.39,9.6c-0.03,0.94,0.33,1.5,0.69,2.05c-3.98,0.91-10.96,4.51-13.71,8.91c-4.22-1.7-5.42,5.52-8.9,6.85
			c0.4,0.31,1.34,2.95-0.69,3.43c-0.08-4.66-0.54,2.01-4.11,0c-13.06,15.03-23.82,32.37-35.63,48.65c1.08,0.06,2.38-0.09,2.06,1.37
			c-1.71,0.07-2.13,1.28-3.43,0c0.15,2.44-0.46,4.1-2.06,4.8c-0.1,1.7,1.08,2.12,1.37,3.42c-2.15-0.78-1.66,1.08-2.74,1.37
			c0.55,2.42,2.21,3.75,0,5.48c3.32,0.34,3.62,3.69,6.17,4.8c3.1-0.23,6.89,1.06,9.59,2.74c-0.77-3.5,2.11-0.94,3.43-0.68
			c1.02-0.81,0.81-2.85,2.74-2.75c-7.98,14.87-24.93,24.4-27.41,42.49c-7.19,1.26-6.03,10.87-11.65,13.7
			c-0.6,2.2,1.78,1.42,2.06,2.74c-4.69,2.78-6.49,5.17-6.85,9.6c-0.69-0.92-1.13-2.069-2.06-2.75c-3.23,8.2-9.02,13.82-11.65,22.62
			c1.03,0.11,2.53-0.25,2.74,0.68c-0.1,0.811,0.12,1.95-0.68,2.061c-0.11-0.811,0.12-1.95-0.69-2.061c-0.28,1.171-0.88-0.14-2.05,0
			c-0.46,3.971,4.26,1.23,4.79,2.74c-1.23,2.24-2.51,0.181-5.48,0.69c-1.08,4.81-0.27,8.89,2.06,8.91
			c-8.21,10.97-13.32,25.05-26.04,31.52c-2.5,4.58-6.85,7.311-8.91,12.33c1.08,0.06,2.38-0.09,2.06,1.37
			c-1.98-0.38-1.19-0.5-3.43-1.37c-1.16,3.83-6.5,4.9-6.17,8.22c-0.87-0.04-0.94-0.88-2.05-0.68c-1.42,4.94-9.66,7.35-8.22,10.96
			c-3.23,1.48-7.2,4.61-6.17,8.22c-0.98-0.16-1.16-1.13-2.06-1.37c-0.78,2.16,1.08,1.67,1.37,2.74c-1.29,0.16-1.51-0.77-2.74-0.68
			c-1.28,4.12-4.05,2.55-5.48,6.16c0.81,0.109,1.95-0.11,2.06,0.689c-3.23,2.03-8.35,2.16-10.28,5.48
			c-0.57,1.939,0.96,1.779,0.68,3.43c-1.49-1.479-1.47,0.17-1.37,2.05c-4.64,2.721-10.24,7.17-11.64,13.71
			c-2.85,0.12-2.77,3.17-4.8,4.11c4.57,0.67-3.76,1.51-1.37,2.05c1.94,0.12,4.7-0.59,4.79,1.37c-3.41-1.78-7.15,1.33-8.9,3.43
			c2.77,2.03-1.52,5.351-3.43,6.851c1.21,0.399,4.03-0.83,4.11,0.689c-0.9,0.011-0.62,1.2-1.37,1.37c-0.81-1.25-3.57-0.54-4.79-1.37
			c0.11,3.32,1.58,3.49-1.37,2.051c-0.79,2.84,1.44,2.67,1.37,4.8c-1.28,0.09-2.29,0.45-2.75,1.37c1.87-0.49-0.49,3.229,1.38,2.739
			c-0.01-0.38,0.55-0.779,0.68,0c-1.61,1.67-1.53-0.76-2.74-1.37c-0.39,1.82,2.82,3.49,0.68,4.801c-0.15-0.53-0.01-1.351-0.68-1.37
			c-0.84,6.14-0.39,11.899,5.48,16.439c5.46-0.239,9.81,2.53,17.82-0.68c-0.83-2.14,0.36-2.95-1.37-4.8
			c0.08,3.1-1.34,0.78-2.06,3.43c-0.03-2.17-4.38-0.67-2.72,0.391c-2.01-0.721-3.96-0.07-6.19,0.289
			c-1.9-2.439-3.16-5.51-5.48-7.539c-1.47,2.55-0.81,1.27,0.69,3.43c-2.09-0.57-3.49-0.08-4.11-0.69c1.28-1.3-0.41-1.229,0-3.42
			c2.83,2.16,0.59-2.17,3.42,0c2.99-18.71,14.23-29.17,22.61-42.479c-0.06-1.08-1.74-0.54-1.37-2.061c2.45,1.351,3.76-0.21,4.8-2.06
			c-1.1,0.3-2.3-2.55-0.69-2.74c-0.01,4.12,0.95-0.92,2.06,2.06c0.77-3.35,3.64-4.579,4.8-7.539c0.03,0.42,0.1,0.81,0.68,0.689
			c0.6-2.2-2.26-0.939-2.05-2.74c0.9-0.01,0.62-1.199,1.37-1.37c-0.6,2.19,1.05,2.141,2.05,2.74c4.15-7.04,13.02-9.37,15.08-18.5
			c6.58-1.46,11.04-10.85,17.13-15.08c-2.31-0.62-0.08-1.529-1.37-2.739c3.69,1.979,7.83-3.381,7.53-5.48
			c2.01,0.13,3.54-2.24,6.17-4.11c0.21-1.35-0.93-1.359-1.37-2.06c1.19-0.05,2.13,0.16,2.74,0.689c1.33-2.46,3.35-5.17,5.48-6.85
			c0.42-0.34,1.03,0.811,1.37,0.68c3.33-1.27,2.24-4.51,4.11-6.85c1.32-1.65,3.54-2.08,5.49-4.8c2.8-3.9,4.44-10.98,4.79-11.65
			c0.44-0.819,2.05,0.01,2.06,0c1.38-1.63,0.62-4.7,4.11-5.479c1.19-0.261,3.38,1.29,6.85,1.37c1.35-1.49,0.34-1.851,3.43-3.421
			c-1.14,1.36,0.06,0.87,0,2.74c2.69-1.8,3.18-1.689,6.85-2.06c-0.1-1.7-0.13-3.32,1.37-3.42c-0.1,0.8-1.22,1.55,0,2.05
			c0.14-0.83,0.76-0.42,1.37,0c0.66-1.28-2.05-2.29,0-2.74c0.8,0.58,1.84,0.9,3.43,0.69c-0.52-2.88,2.61,0.93,2.74-2.061
			c-1.03-0.12-2.53,0.24-2.74-0.689c1.62,0.359,1.18-3.41,3.42-1.37c-0.83,0.08-1.62,0.21-1.37,1.37c2.54-0.19,4.71-0.771,5.48-2.74
			c-0.83-0.07-1.62-0.2-1.37-1.37c1.86,0.73,3.21,0.44,4.11-1.37c-0.42-0.95-2.63-0.1-2.74-1.37c2.56-0.05,2.22-1.02,3.43,0.69
			c0.09-2.851,0.45-0.14,1.37,0c0.94-1.561-1.77-2.58,0-2.74c1.75,1.36,3.15-0.71,4.11,0.68c0.6,3.07-3.77,3.431-1.37,6.171
			c-4.38,0.09-3.05,3.829-2.05,6.17c-2.94-1.051-2.24,2.619-1.38,3.42c-0.92,0.22-1.3,0.979-2.74,0.689
			c-0.8,5.141-1.69,10.181-4.79,13.021c3.21,0.71-0.85,4.46,1.37,6.16c-6.36,0.54-3.62,8.5-3.43,10.97
			c-7.35-3.09-14.3-4.9-22.61-4.12c-7.63,8.13-16.18,15.34-19.87,27.41c0.92,0.45,1.27,1.47,1.37,2.74
			c-2.55,1.25-0.01,3.329-1.37,5.489c2.76,11.19,10.13,15.92,23.98,17.13c13.66,1.19,16.29-0.97,23.98-7.54
			c2.94-2.51,10.06-6.56,6.17-9.59c1.74,0.721,3.91-1.449,2.06-2.06c-0.08,0.55-2.27,2.08-2.06,0.689
			c-0.09-2.81,3.47-0.88,3.43-2.06c-3.55-1.63,0.57-4.25-2.74-6.85c2.03-0.71,1.54-3.94,4.11-4.11c0.9-1.72-3.19-1.67-0.69-2.74
			c1.08,0.061,0.54,1.74,2.06,1.37c3.19-2.84,4.6-5.91,6.85-8.229c0.07,0.77-1,1.069,0,1.369c0.84-0.989,2.61-1.04,3.43-2.05
			c0.18-1.2-1.93-3.42,0-4.109c1.59,1-1.34,2.17,1.37,2.05c2.99-4.851,8.79-6.95,7.53-10.28c0.34-0.8,0.73-1.55,1.37-2.05
			c0.08,0.54,2.27,2.08,2.06,0.68c-1.71-1.26-0.04-1.25,1.37-0.68c-0.21-1.601-1.46-2.95,0.68-3.43c0.29,1.31,0.25,2.949,2.06,2.739
			c0.17-2-1.29-2.359-2.06-3.42c1.71-0.58,3.68-0.899,6.17-0.689c1.93-2.87,4.68-4.91,6.85-7.53c-0.42-0.96-2.63-0.11-2.74-1.37
			c3.49,0.11,3.78-0.189,1.37-1.38c6.46,0.29,6.41-5.92,13.02-5.48c0.6-3.189-2.26,0.46-2.05-1.369c-0.69-2.061,1.52-1.21,2.74-1.37
			c-0.56,2.37,1.28,2.89,0,4.109c0.99,0.38,3.54-0.8,3.42,0.69c-2.11,2.729-3.67-1.33-4.79,1.37c0.64,0.729,2.52,0.21,2.05,2.05
			c-0.87-0.03-0.95-0.87-2.05-0.68c-0.21,1.35,0.92,1.359,1.37,2.06c-0.92,0.68-1.35,1.85-2.74,2.05c-0.83,2.88,1.1,3,1.37,4.8
			c-1.56-0.189-2.58,0.16-2.74,1.37c1.32,0.061-1.19,2.67,1.37,2.74c-0.04-1.28,0.52-1.45,1.37-0.689
			c0.21,1.579-1.98,0.76-2.06,2.06c1.92-0.79,3.56-0.79,5.48,0c1.74-1.81,1.74-5.05,0-6.85c0.95-0.03,1.51,0.319,2.06,0.68
			c0.5-8.22-0.55-5.95,2.05-11.65c-2.8,0.13,0.8-3.26,0.69-4.79c-1.18-0.27-1.76,1.011-2.06,0c1.08-0.3,0.59-2.159,2.74-1.37
			c0.07-2.93,1.38-5.02,0-7.539c-2.2-0.15-2.89,1.21-5.48,0.68c-1.62,4.42-4.61,4.67-7.53,5.49c1.17,2.859-0.42,1.699-2.06,1.369
			c1.39,6.641-8.63,4.591-4.8,8.221c-6.1,1.66-6.91,8.62-13.7,9.59c1.21,0.16,3.43-0.69,2.74,1.37c-4.65-0.771-5.03,2.729-8.22,3.43
			c-0.66,3.23-0.62,4.05-2.06,5.48c-0.2-0.61-1.85-3-2.05-1.37c2.11,0.689-1.97,0.649-1.37,2.05c0.83,0.08,1.62,0.21,1.37,1.38
			c-3.15-1.83-2.8,2.84-6.17,2.74c0.7,1.92,0.78,2.92-2.06,2.74c-0.15,1.29,0.78,1.51,0.69,2.739c-6.65-0.68-7.89,8.74-14.39,8.91
			c-0.03-0.95,0.32-1.51,0.69-2.06c-4.78-0.34-5.29-14.12-5.46-19.58c0.35,0.689,1.55,0.53,2.03,1.08c0.01-2.96-1.26-3.84,0.68-5.48
			c-0.64-0.729-2.52-0.22-2.05-2.06c1.19-0.05,2.13,0.16,2.74,0.689c0.2-1.35-0.93-1.359-1.37-2.06c4.81,0.15,1.48-5.45,2.05-6.85
			c0.1-0.24,1.29,0.739,1.38,0.689c1.84-1.229,5.33-11.97,3.42-13.02c0.91,0,1.83,0,2.74,0c-0.1-5.16,5.21-8.181,2.06-12.341
			c4.14,0.58,5.04-7.029,7.54-10.279c-2.22,0.62-0.97-2.23-2.06-2.74c-2.69,0.79-2.55,0.15-5.48,0.69c-0.27,1.18,1.01,1.75,0,2.05
			c-0.13-1.011-1.66-0.62-2.74-0.681c-0.81,1.801-0.86,2.391-2.06,0.681c1.42,3.63-2.16,3.979,0.69,6.17
			c-2-0.61-2.37-0.87-3.43,0.689c-0.34-1.89,2.81-5.08,0-3.43c-2.33,5.38-13.32,8.08-17.82,15.07c-5.96,2.279-7.36,3.76-13.01,6.17
			c1.84-2.66-4.41-2.38-5.49-0.681c-0.58-2.85-3.36-3.489-4.79-5.489c5.39-4.07,7.62-14.61,9.59-19.87
			c3.28-0.96,5.02-5.23,2.06-6.851c1.93-0.56,1.77,0.971,3.42,0.69c-0.63-3.41,2.16-2.92,0.69-5.49c3.99,0.221,4.94-8.21,8.91-10.27
			c0.17-2-1.29-2.37-2.06-3.431c2.13,0.9,1.95-0.18,4.8,0c-1.61-4.669,0.85,0.341,2.05-3.43c-2.67,0.49-0.56-2.92,0-3.42
			c0.12,1.02-0.24,2.53,0.69,2.74c2.47-2.55,2.38-7.67,6.16-8.91c0.21-1.35-0.92-1.36-1.37-2.05c2.13,0,0.45-2.4,2.74-3.43
			c1.08,0.06,0.54,1.75,2.06,1.37c-1.99-3.78,4.79-4.57,0.69-6.17c3.49,0.88,0.72-1.99,2.05-2.05c3.85,1.46,6.32-3.22,4.11-5.48
			c3.43,0.56,1.06-1.46,0.69-2.74c0.81,0.78,2.42,0.77,4.11,0.68c1.03-4.25,2.21-3.46,4.11-8.22c0.15,0.53,0.02,1.35,0.69,1.37
			c1.19-7.38,7.44-9.69,6.16-15.76c1.03,0.19,2.89,2.94,3.43,1.37c-1.39,0.21,0.14-1.98,0.68-2.06c0.16,0.54,0.02,1.36,0.69,1.37
			c-0.97-3.02,4.1-0.01,4.11-2.05c-0.81-0.11-1.95,0.12-2.06-0.69c2.77,0.94,2.43-1.23,3.43-2.05c1.21,2.25,2.78-0.8,3.43-1.37
			c-0.06,3.77,5.45-1.71,7.53-0.69c0.38-1.22,0.36-2.84,1.37-3.42c0.89,3.9,6.67-0.27,6.17-2.06c0.98,0.16,1.16,1.13,2.06,1.37
			c0.44-2.23,3.15-6.71,6.85-3.43c3.35-4.62,10.68-1.96,15.07-6.16c0.91,0.31,4.5,1.33,2.06,2.74c-0.91-0.01-0.63-1.2-1.37-1.37
			c-0.25,1.98-0.64,1.62-2.06,3.42c1.65,0.28,1.49-1.25,3.43-0.68c-0.03,0.94,0.32,1.5,0.68,2.05c-6.17-3.31-9.75,11.02-13.02,14.39
			c-0.41,0.44-3.11,5.55-1.15,6.18c-1.61,0.28-2,1.79-3.64,2.05c1.1,2.97-1.22,6.49-0.69,10.96c3.56,3.68,7.63,0.86,10.97,4.8
			c6.86-2.71,16.59-3.86,21.92-7.54c-1.01-0.58-1.47-1.73-1.37-3.43c4.88-0.98,1.81,2.86,4.11,3.43c0.88-1.72-0.34-2.15,0.69-2.74
			c0.9,0.01,0.63,1.2,1.37,1.37c2-4.48,9.77-4.46,8.91-8.22c3.5,1.45,7.51-1.93,8.22-5.49c3.72,2.14,1.91-2.91,5.48-0.68
			c1.5-3.91,5.19-2.9,6.85-5.48c-1.01-0.81-3.06-0.6-2.74-2.74c1.57,2.43,8.831-1.75,10.13-4.4c-0.51,1.8,2.46,0.11,2.21,1.66
			c-1.53,5.41-2.66,9.44,0,15.07c-4.17-0.37-0.99,5.93-0.69,7.54c0.88-0.94,3.261-2.03,3.431,0c-2.73-1.67-3.91,2.8-2.74,5.48
			c1.02,0.12,2.53-0.25,2.74,0.68c-1.5-0.12-2.181,0.57-2.061,2.06c0.08,1.74,1,2.66,2.74,2.74c0.58-2.44-1.98-4.1,0.69-4.8
			c0.329,0.81,0.729,1.56,1.369,2.06c-1.979-2.91,0.091-7.55-2.739-7.54c2.22-2.6,1.01-6.1-1.37-7.53
			c-0.44-5.01,3.04-9.49,1.37-14.39c4.01-1.7,2.35-6.96,4.109-9.6c-3.189-5-11.51-0.5-9.59,2.74
			c-14.51,7.81-24.74,20.48-43.86,28.78c-0.03,0.95,0.32,1.51,0.69,2.06c-3.59-0.93-1.94,1.63-2.74,2.05
			c-0.47-0.92-2.09,0.6-2.74-1.37c-1.43,2.64-8.73,2.4-11.65,5.49c-3.41-2.37-4.03,0.29-8.91-0.69c0.02-2.66-1.53-4.24-0.69-6.17
			c2.71,0.22-0.5,2.12,1.37,2.74c1.71-1.78,0.15-4.16-1.37-4.79c3.37-2.12,4.88-6.09,5.49-10.97c2.72-0.01,2.75-2.73,4.11-4.11
			c-1.08-0.06-2.38,0.09-2.06-1.37c1.26,0.85,2.41-0.85,3.43-0.68c-0.85-1.28,2.22-5.05,0-6.17c1.36-0.01,0.87-1.87,2.74-1.37
			c1.58,1.86-1.31,3.21,0,4.11c0.91-1.15,1.81-2.29,1.37-4.79c0.68,0,1.37,0,2.05,0c0.42-7.34,9.31-8.81,8.23-13.71
			c-3.3-0.22-2.48-0.58-6.17-0.68c-0.11,0.8,0.12,1.94-0.69,2.05c-5.24-2.37-11.63,4.38-19.18,4.11c-0.66,1.28,2.05,2.29,0,2.74
			c0.04-1.18-0.53-1.75-1.37-2.05c-4.36,3.36-13.94,5.7-20.56,8.91c-2.74,2.79-8.62,5.14-11.65,5.48c-0.4,2.11-2.92,2.1-3.42,4.11
			c-6.03-0.88-10.41,2.1-13.71,4.79c-0.1-0.8,0.12-1.94-0.68-2.05c-1.17,4.55-4.05-1.94-5.48,1.37c0.05-2.57-2.69-2.34-4.8-2.74
			c-3.6-6.18,3.62-10.73,2.74-15.76c4.96-0.34,1.86-6.87,5.48-5.48c0.03-0.95-0.32-1.51-0.68-2.06
			c6.33-5.01,11.77-14.05,14.39-20.55c4.01-0.29,4.88-4.34,5.48-6.17c3.17-0.71,5.29-2.48,5.48-6.17c1.87,0.5,1.38-1.36,2.74-1.37
			c6.23-7.47,13.06-14.34,21.93-19.18c15.98-11.2,27.2-27.16,47.28-34.26c4.94,2.41,13.96,2.14,16.44,1.37
			c-0.8-0.11-1.94,0.11-2.05-0.69c3.27-0.02,8.85,3.07,6.85,0c14.23,1.46,28.38-5,43.17-4.11c-2.04,4.85-0.59,6.88-2.06,10.28
			c0.04-1.18-0.53-1.76-1.37-2.06c-0.21,5.49-0.24,5.4,0,9.59c-4.97,0.03-0.21,3.43-4.11,4.12c1.76,0.06,1.101,2.55,2.061,3.42
			c-5.66,2.84,1.58,3.08-3.431,6.85c0.811,0.34,1.55,0.73,2.05,1.37c-4.72,4.33,3.66,7.85,5.49,8.23c2.28,0,2.34-2.23,4.79-2.06
			c0.271-1.18-1.01-1.76,0-2.05c3.88,1.55,8.67-2.26,10.97-6.17c8.561-2.54,13.881-16.48,21.24-13.71
			c-3.09,1.85-0.79,8.37,3.42,10.97c0,0.9-1.199,0.62-1.37,1.37c1.21,0.16,1.57,1.18,1.37,2.74c1.03,0.12,2.53-0.25,2.74,0.68
			c-3.8,2.37,1.561,3.32,0.69,6.86c3-0.36,4.77,2.94,3.43,4.79c1.61,1.51,5.86,1.15,4.11,4.11c2.6-0.11,4.34-0.02,2.05,1.37
			c5.5,4.58,16.8-7.36,11.649-9.59c4.511,0,6.471-7.49,4.801-10.96c5.31,0.43,1.229-11.2,6.159-12.34c-1.6,3.65,0.86,3.24,2.061,4.8
			c-2.311,0.42,1.31,3.96,0.689,8.22c2.04,0.98,5.44,3.3,4.11,5.48c2.91,2.03,3.46,0.97,4.79,1.38
			C446.51,270.73,454.25,273.87,455.46,262.33z M450.67,602.2c0.18-2.84-2.66-0.91-2.74-2.061c-0.79-2.22,2.09-4.21,0-5.479
			c-0.279,0.859-0.89,1.399-2.06,1.37c0-0.69,0-1.37,0-2.061c0.91,0,1.83,0,2.74,0c0.979-5.66-1.32-6.989,0-10.96
			c-1.71,0.12-2.141-1.05-2.74-2.05c1.72-0.91,2.149,2.71,2.74,0.68c-5.011-5.18-3.49-15.75-7.54-20.56
			c-0.15,0.54-0.011,1.36-0.681,1.38c-0.04-0.42-0.1-0.82-0.689-0.69c0.189-1.409,2.56-0.649,2.74-2.06
			c-3.171,0.82,1.21-2.88-1.37-3.42c-0.62,0.39-2.521,2.82-2.74,1.37c-0.83-2.271,4.64-1.68,2.06-3.43
			c-1.26,2.989,1.07-4.54-0.689-2.051c-0.15,0.53-0.01,1.351-0.681,1.37c-0.01-0.91-1.199-0.63-1.369-1.37
			c0.72-2.87-1.44-4.649,0-6.17c-4.131,0.021,0.54-3.83-3.431-3.43c0.931-0.67,0.891-2.311,2.061-2.74
			c-0.8-0.109-0.75-1.08-0.69-2.05c-1.34-0.21-1.359,0.92-2.05,1.37c-0.33-4.08-0.12-4.41,0-7.54c-1.56,0.189-2.58-0.16-2.74-1.37
			c3.91-2.02-2.16-2.44,1.37-5.48c-1.28-0.659-2.29,2.051-2.74,0c0.271-1.319,2.65-0.539,2.051-2.739
			c-1.021-0.641-5.12-1.66-2.74-3.431c0.7-0.08,1.39,2.96,2.06,0.69c-0.979-2.26-2.12-1.14-3.43-2.06
			c1.59-1.79-2.39-2.171-2.061-4.801c1.37,0,0.881-1.859,2.75-1.37c-1.43-5.239-5.6-5.88-4.8-10.27c-4.33-0.5-3.229-3.2-5.479-5.49
			c2.95-0.89,2.16,1.95,3.42,2.75c0.01-1.14,1.899-0.39,2.06-1.38c-2.45,0.57-3.399-1.45-2.06-2.74c-0.42-0.949-2.63-0.1-2.74-1.37
			c3.55-0.42-1.59-1.35-1.37-2.739c1.561-0.94,2.58,1.77,2.74,0c-0.7-0.67-1.38-1.351-2.05-2.051c1.01-0.13,0.63-1.659,0.68-2.739
			c0.69,0,1.37,0,2.06,0c-0.659-3.3-2.079-3.86,0.681-4.11c-2.11-1.47-1.101-2.1-2.74-3.43c0.69,0,1.37,0,2.06,0
			c-0.479-2.11-0.479-1.32,0-3.431c-2.43,0.091-3.899,1.131-5.479,2.061c1.84-0.47,1.32,1.42,2.05,2.05
			c-4.18,0.97-2.01,2.08-5.479,4.8c1.35,2.62,1.189,3.78,0.689,8.91c1.36,1.66,2.92-1.16,3.42,1.37
			c-1.319,0.28-0.54,2.66-2.739,2.05c-0.2-1.34,0.93-1.35,1.369-2.05c-0.989,0.37-3.54-0.8-3.43,0.68c3.34,2.08-4.45,2.29-1.37,4.12
			c1.41-0.66,3.58,0.13,5.49-1.38c1.29,1.45,2.92,2.57,4.79,3.43c-1.22,0.381-2.84,0.351-3.42,1.37c1.26,0.87,1.14,4.59,4.109,5.48
			c-0.84,0.08-1.619,0.21-1.369,1.37c5.29,1.85,0.77,10.5,5.479,15.76c0.76,6.189,2.34,17.74,6.851,23.99
			c-2.391,0.46,0.92,4.649,1.369,6.16c4.521,15.159,12.08,37.479,9.591,58.25c0.54,0.149,1.359,0.01,1.38,0.68
			c-3.32-0.62-1.311,7.08-6.17,6.85c1.84-2.49-0.971-2.12-2.061-0.68c0.101-1.7,0.13-3.33-1.37-3.43
			c-0.58,1.02-2.2,0.989-3.42,1.369c2.19-2.689-2.939-2.649-3.43-4.789c0.46-1.37,2.36-2.931,0-3.431
			c-0.55,1.311-3.64,0.76-3.43-1.37c-0.591,2.03-0.54-2.069-2.74-0.689c0.18,1.96,3.359,2.74,1.37,4.8
			c3.83,1.45,6.39,3.05,6.17,6.17c2.29,1.15,2.34-0.44,4.8-0.69c0,0.69,0,1.37,0,2.061c-0.99-0.771-1.67-0.74-2.06,0.68
			c2.77,0.94,2.43-1.229,3.43-2.05c1.2,5.23,7.71,4.67,10.96,0.68c-0.771-0.14-1.07-0.76-1.37-1.37c1.02-1.27,3.54-1.02,3.43-3.42
			c-2.229-0.01-0.029,2.23-3.43,2.051c1.54-1.431,1.7-4.24,3.43-5.48c-0.81-0.33-1.56-0.729-2.06-1.37
			c1.939,0.57,1.78-0.97,3.43-0.689C449.12,605.61,448.8,601.71,450.67,602.2z M438.33,293.17c0.24-2.47,1.05-3.3,0-5.48
			c-1.7-0.89-3.32,1.53-3.42,0c0.16-1.21,1.18-1.57,2.74-1.37c-0.54-2.75-2.12-4.42,0-6.17c-2.631-1.39-3.19,1.98-2.74,2.74
			c-0.7-0.67-1.391-1.35-2.061-2.06c1.181,0.04,1.761-0.52,2.061-1.37c-3.851,0.14-0.75-1.14-0.69-2.74
			c-1.859-0.08-5.79-4.23-5.479-2.05c2.81,0.35,2.069,5.73,1.37,6.16c0.47,1.6,3.109,1,3.43,2.75c-1.89-0.88-3.35,1.99-2.06,2.05
			c0.279-1.17,0.89,0.14,2.06,0c0.08-0.84,0.2-1.62,1.37-1.37c-0.17,1.89-2.55,1.56-3.43,2.74c1.649,4.32,0.149,10.81,0.689,11.65
			c1.16-2.63,2.54-0.8,4.11-2.74c-2.12-0.69,1.97-0.65,1.37-2.06c-1.03-0.11-2.53,0.25-2.74-0.68
			C436.05,293.17,437.19,293.17,438.33,293.17z M432.85,270.56c-2.779,0.19-1.54-0.25-1.369-2.06c-0.91-1.68-2.07,1.24-2.74-0.68
			c0.149-0.87,1.069-1.4-0.681-1.38c-1.439,2.54,1.5,2.47,0.681,6.17c1.189-0.05,2.13,0.15,2.74,0.69
			C430.7,271.14,432.56,271.63,432.85,270.56z M421.2,601.51c0.28-1.319,2.66-0.54,2.06-2.74c-1.18,0.271-1.76-1.02-2.06,0
			C423.47,598.99,418.53,600.89,421.2,601.51z M422.57,597.4c0.229-3.42-3.99-2.4-4.11-5.48c1.72-0.91,2.15,2.71,2.74,0.68
			c-1.2-1.47-2.24-3.26-4.11-3.42c1.37-0.489,2.18-3.91,0-4.109c-0.649,1.27,2.05,2.29,0,2.739c-0.91-0.689-2.07-1.13-2.74-2.06
			c1.21-0.62,2.12-1.53,2.74-2.74c-0.8-0.109-1.939,0.12-2.05-0.68c1.29,0.15,1.51-0.78,2.74-0.69
			c-0.25-2.27-0.54-4.489-2.061-5.479c3.011,0.04-0.47-3.05,0.69-5.48c-1.351,0.2-1.36-0.93-2.061-1.37
			c-0.81,1.841-3.569-0.01-4.8,0c-1.27,1.7-3.34,5.601-0.68,5.48c-2.63,2.72-3.64,7.42-1.37,10.28c-1.19-0.051-2.13,0.149-2.74,0.68
			c0.49,10.8-9.02,20.77-6.85,30.84c-2.53,3.69-5.83,15.851-12.34,8.9c-1.181,0.42,0.05,3.26-1.37,3.43
			c-0.62-2.31-1.53-0.08-2.74-1.37c0.3,2.45,3.09,2.391,4.8,3.431c1.05-1.221,5.98,0.119,8.91-2.74c0.39-1.21-0.83-4.03,0.68-4.12
			c-0.869,2.7,1.62,2.04,3.431,2.06c-0.91-2.97-0.16-3.6,2.739-4.109c0.75-2.28,0.011-9.311,2.74-8.91
			c-0.47-2.51-1.14-5.74,2.05-6.17c0.11-1.931-2.05-1.59-2.05-3.42c1.92-0.86,2.26-2.811,1.37-4.801
			c4.68-2.779,3.3-7.42,6.851-10.96c0.93,4.32,2.51,13.75,7.539,9.591c-0.859-0.28-1.399-0.881-1.369-2.061
			C420.57,595.75,421.36,596.79,422.57,597.4z M422.57,472.69c-0.67-2.71-0.95-4.971,0.689-6.851c-2.89-6.41-3.13-17.39-2.74-21.93
			c-3.659-1.79,0.29-3.68-3.43-6.16c0.42,0.2,2.641,1.7,2.74,0c-2.11-0.17-2.1-2.47-3.42-3.43c0.03,1.18-0.53,1.76-1.37,2.06
			c-0.04-0.88-0.88-0.95-0.69-2.06c2.62,1.42-1.399-1.851,2.061-2.74c-0.26,2.32,1.18,2.92,2.05,4.11
			c2.95-6.931-5.4-15.82-2.05-17.131c0.5-2.329-2.53-1.13-2.74-2.739c0.93-3.11,1.021-5.48-2.06-6.17c1-0.591,2.17-1.021,2.06-2.74
			c-0.81-1.8-0.86-2.38-2.06-0.68c-0.04-0.881-0.88-0.95-0.69-2.061c0.07-1.08,1.75-0.53,1.38-2.05c-2.149-0.87-2.13-3.95-5.49-4.12
			c1.83-0.45,2.511-2.05,3.431-3.42c-4.3,1.3-0.73-0.98-4.11-2.06c-1.91-2.18,2.25-2.26,0-4.11c-1.41,2.63-3.05,0.34-5.479-0.68
			c-1.29,1.3,0.399,1.24,0,3.42c0.8,0.11,1.939-0.11,2.05,0.69c-3.09,1.06,0.72,2.75,1.37,4.11c-3.351-0.05,1.87,2.01-0.681,3.43
			c0.811,1.01,2.591,1.061,3.42,2.05c0.21,1.801-2.649,0.54-2.05,2.74c2.78,1.24,3.88,1.5,5.48,2.74c-2.78,1.51-3.15-1.44-4.8,0
			c2.47,1.43,1.479,3.2,1.369,6.17c0.811,0.11,1.95-0.12,2.061,0.68c-3.54,0.61,1.01,3.05,1.37,4.12c-0.98,0.84-1.3,2.351-1.37,4.11
			c1.02,0.109,2.53-0.25,2.74,0.68c-2.49,1.6-1.21,10.19,1.37,5.48c-0.29,1.31-0.25,2.949-2.061,2.75
			c0.63,2.89-0.229,4.729,1.38,7.529c0.92-2.39,5.42,0.851,2.74,2.061c-1.33-2.771-1.91,1.14-2.74,2.74
			c-0.18,2.46,2.05,2.51,2.05,4.8c-2.859-1.061,0.17,5.649,0,6.85c0.811-0.63,0.45,2.9,0,4.11c1.28,0.09,2.29,0.45,2.74,1.37
			c-4.609,0.67,0.94,3.47-2.05,4.8c2.12,0.09-0.04,2.29,2.72,2.74c-4.04,0-1.85,2.6-1.35,4.79
			C418.86,472.37,420.37,471.58,422.57,472.69z M362.28,310.3c5.069,28.52,54.649,21.9,47.27-10.97
			c-2.78-12.41-15.109-19.87-28.77-17.13C368.46,284.67,359.5,294.67,362.28,310.3z M378.04,570.68
			c14.52-1.149,27.87-13.42,25.35-30.149c-1.319-8.75-8.04-13.471-13.71-18.5c-5.239-0.24-7.09-3.88-12.33-4.11
			c-0.149,0.53-0.569,0.79-1.369,0.68c-0.271,1.181,1.02,1.761,0,2.061c-17.75,0.95-25.761,24.1-19.19,37
			c-1.48-0.12-0.31,2.43-0.68,3.42c1.489,2.15,6.68,3.54,5.479,6.17c2.561-0.27,4.021,0.55,4.11,2.74c-1.4-1.37-1.34,0.3-2.74,0.689
			c-2.15,20.17-8.62,37.48-17.13,51.391c-3.1,5.06-10.18,12.3-14.39,8.22c-0.181,0.96-1.5,0.78-2.051,1.37
			c1.78-1.8-1.109-0.54-0.689-2.74c0.689,0,1.37,0,2.06,0c-1.479-2.79-2.96-3.77-4.12-5.479c-0.37,0.989,0.811,3.54-0.68,3.43
			c0.21-1.59-1.979-0.771-2.06-2.061c2.64-0.14,4.14-4.97,2.739-6.85c-0.18,1.61-2.55-0.07-2.739-0.69
			c1.359-1.579-0.17-0.76-0.681-2.05c1.19,0.05,2.13-0.16,2.74-0.689c-0.38-0.99,0.8-3.54-0.69-3.42
			c-1.319,1.02,1.2,2.88-1.369,3.42c-1.28-1.3-0.07-1.721,0-3.42c-2.54,1.199-4.7-0.771-5.48,1.37
			c1.59,4.77,3.83,11.109,4.11,15.069c3.41,1.851,4.6,5.91,8.91,6.851c0.109-0.801-0.12-1.94,0.689-2.051
			c1.07,2.4,2.84-0.159,3.42,2.74c0.83-2.53,3.521-1.72,3.431-4.109c1.319,0.27,0.539,2.649,2.739,2.05
			c2.33-0.87,2.83-3.561,5.48-4.11c-0.03-3.34-0.57-6.689,4.109-5.479c-1.159-2.551,0.15-1.351,1.37-2.74
			c-1.06-0.181-0.47-1.5,0-2.061c-1.18-0.27-1.75,1.021-2.05,0c1.41-0.18,0.16-3.029,2.05-2.739c0.95,0.42,0.11,2.64,1.37,2.739
			c1.34-1.27,0.47-2.77-0.68-3.42c1.439-0.85,2.67-1.899,4.11-2.739c-1.681-2.771,0.699-2.69,2.05-4.12
			c-0.59-1.23-1.5-2.141-2.74-2.74c5.05,0.61,6.96-6.03,8.229-9.59c-2.109-0.511-1.319,1.88-3.43,1.37
			c1.49-2.16,2.16-0.881,0.69-3.431c1.189,0.061,2.13-0.149,2.739-0.68c-0.77,0.99-0.739,1.67,0.681,2.05
			c0.96-1.96-1.87-3.479,0-4.109c2.29,0.729,0.05,2.079,1.37,4.109c1.21,0.4,4.029-0.82,4.109,0.69c-0.62,2.29-1.529,0.6-2.739,0
			c0,0.91,0,1.83,0,2.739c2.04-0.899,3.38-0.6,4.109,1.37c-0.64-0.71-3.53-0.62-3.42,1.37c1.58,1.36,0.76-0.17,2.05-0.68
			c-0.649,1.27,2.061,2.29,0,2.74c-0.149-0.53-0.02-1.351-0.68-1.37c-1.26,1.149,0.19,5.8,1.37,2.74
			c-0.09,2.819,2.56,2.92,2.05,6.17c2.72,0.88,1.4-2.261,4.12-1.38c0.57-3.99-2.18-4.671-2.75-7.53c-0.33,0.81-0.73,1.55-1.37,2.05
			c0.061-1.19-0.15-2.13-0.68-2.74c1.31-0.29,2.95-0.25,2.74-2.05c-0.471-1.36-4.08,0.42-3.431-2.06c2.46,1.39,0.22-1.16,1.37-2.74
			c-1.07-0.07-2.37,0.09-2.05-1.37c1.36,1.42,1.57-0.73,2.74-1.37c-0.83-0.15-0.42-0.76,0-1.37c-0.73-1.33-3.16-0.96-4.11-2.06
			c2.21,0.62,0.96-2.23,2.05-2.74c-1.71,0.09-2.14,1.31-2.74-0.68c1.15-0.511,4.7-2.08,2.74-3.431c-0.069,0.551-2.26,2.08-2.05,0.69
			c3.43-1.74,1.32-1.22-0.69-2.061c4.25-1.01,1.641-5.72,0.69-8.909c0.86,0.149,1.4,1.069,1.37-0.681
			c-2.16-0.79-1.67,1.07-2.74,1.37c-0.01-0.91-1.2-0.63-1.37-1.37c4.07,1.2,1.91-3.84,2.74-4.109c0.2,1.39,1.85,1.34,2.05,2.739
			C375.63,568.3,375.61,569.69,378.04,570.68z M397.91,494.62c1.91-1.26,6.42,0.63,5.479-0.69c-3.34,0.61-1.67-3.81-5.479-2.739
			c0.03-0.87,0.87-0.95,0.68-2.051c-1.67-1.54-5.25,0.99-3.42-1.37c-0.92,0-1.83,0-2.75,0c0.38,2.131,2.08,2.95,2.75,4.79
			C396,490.69,399.14,492.17,397.91,494.62z M385.57,485.71c0.39,0,7.87,1.94,6.17-0.68c-3.45,0.87-6.03-6.95-6.17-9.601
			c-2.12,0.07-3.801-0.31-4.79-1.37c0.5-1.09,3.35,0.16,2.739-2.05c-2.21,1.53-5.859-2.63-4.8-4.109
			c1.271,0.55,2.771,0.88,3.431,2.05c0.54-3.51-3.971-1.97-5.48-3.42c0.811-1.471,3.23-1.34,3.42-3.431
			c-0.91-1.68-2.55,0.75-2.74-0.68c1.851-2.92-0.869-0.51-1.369-2.75c0.81-0.1,1.939,0.12,2.06-0.68
			c-1.21-4.181-1.86-1.811-2.06-6.17c-2.681-0.4-3.98,0.59-5.48,1.37c-1.42,7.42,0.43,11.1-2.06,14.39
			c0.42,1.18,3.25-0.05,3.43,1.37c-1.65-0.28-1.49,1.25-3.43,0.689c-0.15,1.29,0.77,1.511,0.689,2.74
			c-0.99-0.77-1.67-0.74-2.06,0.68c1.8,4.561-3.45,9.2,0.689,13.021c-1.359-0.01-0.87-1.87-2.74-1.37
			c1.891,2.13-0.859,4.88-2.739,2.74c1.739-1.181,2.649,1.05,2.739-1.37c-2.84-0.96-3.93,0.59-5.489-1.37
			c1.84-0.67,1.26-2.94,0-4.11c0.21,0.83-1.98,2.36-2.05,0.69c-0.271-1.65,3.119,0.38,2.05-2.06c-0.28-1.54-3.75,0.1-3.42-2.061
			c0.42,0.21,2.64,1.71,2.739,0c-1.31-1.97-0.09-4.15-2.06-6.85c0.22,2.43-3.62-1.46-4.79-2.051c2.05-0.09,3.92-2.17,2.05-4.109
			c1.75-1.36,3.15,0.71,4.11-0.69c-5.63-2.26-1.21-12.66-4.79-9.59c-0.16-1.3,0.77-1.51,0.68-2.74
			c-2.18-1.14-2.859-1.18-5.479-0.689c-9,21.62-14.34,47.939-30.15,64.41c-1.71-0.87-2.14,0.35-2.74-0.681
			c2.2-3.37-3.069-5.14-3.43-8.229c1.9,0.91,2.36-2.71,1.38-0.681c-1.7,0.101-3.33,0.131-3.43-1.369c3.17-1.08,0.42-4.28,2.74-5.48
			c-1.4-1.38-1.82-0.18-2.74,0.68c0-0.689-0.561-0.81-0.69-1.369c2.12-3.12,1.54-4.421-1.37-5.48c1.41-1.61,3.48,1.35,3.431-2.06
			c-2.2-0.57-1.42-0.58-2.74,0.689c0.33-2.16-0.98-2.68-1.37-4.11c1.21,0.61,2,1.65,3.42,2.051c0-1.37,0-2.74,0-4.11
			c-0.87-1.17-4.09-0.01-4.11-2.05c1.6-1.03,2.96,0.229,3.43-0.69c-0.59-1.239-1.771-1.89-2.061-3.43
			c0.95-0.021,1.511,0.33,2.061,0.69c-0.69-1.4-2.82-4.03,0.68-4.11c-3.62-7.18-2.63-14.48-1.37-20.561
			c-1.279-0.729-0.87-2.68-0.68-5.479c-2.32-0.19-3.94-1.09-6.85-0.68c-0.83,2.18-0.09,2.029-1.37,4.109
			c0.8,0.101,1.94-0.12,2.05,0.681c-4.57,1.069-7.82,7.689-8.91,12.34c-5.9,6.85-10.69,14.42-16.44,21.92
			c-0.59,0.78-4.18,3.33-5.48,4.8c-3.61,4.08-2.9,10.83-7.54,9.59c-0.94,1.561,1.77,2.58,0,2.74c-0.18-0.96-1.5-0.78-2.06-1.37
			c-4.97,4.8-11.07,12.36-19.18,8.22c-2.11,1.74,1.76,5.61,3.43,3.431c-0.75-0.16-1.65-1.13-0.69-1.37
			c1.7,3.729,8.55,1.08,10.96,1.37c0-0.91,0-1.83,0-2.74c2.17-0.94,2.29-0.15,4.8,0c1.29-3.5,6.28-3.311,6.17-8.22
			c3.7,0.279,2.89-3.96,6.16-4.11c0.01-1.82-0.38-4.04,1.37-4.12c-0.2,1.12,0.93,1.85,1.37,0.69c-1.11,0.489-1.11-3.23,0-2.74
			c0.91,0.01,0.63,1.2,1.37,1.37c0.8-4.141,5.74-6.63,7.54-11.65c-0.2,1.12,0.93,1.851,1.37,0.69c-1.44-0.2,1-1.83-0.68-2.74
			c2.55-0.06,2.21-1.03,3.42,0.68c-0.94-2.77,1.23-2.43,2.06-3.43c-1.1-2.48,2.85-5.8,5.48-6.85c1.07-2.431-2.33-0.41-2.06-2.051
			c3.43-0.3-0.53-1.21,0-2.739c1.35,0.199,1.36-0.931,2.06-1.37c0.15,0.529,0.02,1.35,0.69,1.37c0.68-2.41,3.12-3.561,4.11-6.17
			c-0.3,1.89,2.55,0.64,2.74,2.06c-1.35,3.2-1.89,2.81-2.06,7.53c2.59,0.989,1.32-1.88,3.43-1.37c-0.92,2.28-2.93,3.47-3.43,6.17
			c3.26-1.12,3.6-0.93,5.479-3.43c-0.479,2.109-0.479,1.319,0,3.43c-0.989,0.37-3.54-0.8-3.419,0.68c3.24,0.59-2.65,2.45-1.37,5.49
			c1.27,0.65,2.29-2.06,2.74,0c-0.42,0.95-2.64,0.1-2.74,1.37c2.93-0.021,1.53,1.56,3.42,3.42c-2.52-1.12-2.46,4.85-2.05,3.43
			c0.43-1.68,3.2-0.109,3.419,0.681c-2.229-0.181-1.45,2.659-3.419,2.739c0.01,2.051,1.78,2.33,2.05,4.12
			c-0.98-0.77-1.67-0.74-2.05,0.681c0.83,0.149,0.42,0.76,0,1.369c0.94,0.03,1.5-0.319,2.05-0.68c2.4,2.88-0.62,3.15,1.37,5.48
			c-0.76,0.069-1.06-1-1.37,0c0.83,0.14,0.42,0.76,0,1.369c1.79,0.261,3.76,0.351,4.8,1.37c0.34,2.16-3.4,0.25-2.74,2.74
			c1.16,0.66,1.76,1.89,1.37,4.11c1.52-0.3,3.72-1.57,4.109,0.689c-1.56-0.199-2.569,0.16-2.739,1.37
			c4.569,0.21,7.01,4.28,11.649,2.05c0.221-1.59-0.109-2.63-0.689-3.42c4.38,0.03,5.39-3.3,8.229-4.8
			c-0.87-0.28-1.399-0.88-1.37-2.06c1.69,1.319,2.521-0.58,0.681-1.37c2.01-0.72,2.729-2.75,4.8-3.42
			c-1.22-0.34,0.29-0.73,0.68-1.37c-0.8-0.11-1.939,0.109-2.05-0.69c4.6,0.521-1.45-1.46,1.37-2.739
			c0.899,0.01,0.62,1.199,1.37,1.369c0.029-0.939-0.32-1.5-0.69-2.05c3.25,0.33,0.681-2.43,4.11-2.75
			c0.2-1.85-0.96-5.069,2.06-4.109c-0.97-4.391,1.891-4.96,1.37-8.9c3.141-0.44,5.07-7.33,2.74-8.91c2.39,0.19,5.14-2.229,6.85,0
			c0,0.69,0.561,0.811,0.69,1.37c-3.92,2.17,1.95,2.07-1.37,4.11c3.16,1.08,1.86,2.359,4.11,4.109
			c-0.94,0.03-1.511-0.319-2.061-0.68c-0.069,2.12,2.16,1.95,1.37,4.79c1.35,0.21,1.36-0.92,2.061-1.37
			c-0.101,4.12,3.489,1.89,4.109,4.11c-0.91,1.68-2.07-1.23-2.74,0.689c1.931,2.59,3.92-2.41,5.48,0c-0.83,0.08-1.62,0.2-1.37,1.37
			c3.06,1.021,3.771-0.26,6.17-1.37c0.15-1.3-0.77-1.51-0.689-2.74c3.479,0.881,0.369-3.279,3.43-1.369
			c-0.57-1.94,0.96-1.78,0.68-3.431c-1.31-0.319-2.95,2.11-2.74-0.68c0.811,0.87,2.591,0.29,3.431-0.69
			c-1.98-0.529-2.521-2.5-4.11-3.43c2.42-0.31,2.59-2.89,5.48-2.74c-0.301-1.569-4.2-3.05-2.061-4.79
			c0.78,0.61-0.16,1.65,2.061,2.051c1.29-1.21,0-5.021,2.739-4.79c0.761,2.02,1.881,8.25,6.17,10.27c-1.18-0.03-1.76,0.53-2.06,1.37
			c2.75,1.41,3.32,5.34,6.17,4.8C386.82,484.67,386.07,485.07,385.57,485.71z M385.57,147.9c0.689-1.36,3.029-1.08,2.739-3.42
			c-2.159,0.94-2.29,0.15-4.79,0c-1.069,2.43,2.32,0.41,2.051,2.05C384.88,146.54,384.71,147.73,385.57,147.9z M380.09,623.44
			c0.91-0.69,2.55-0.65,2.74-2.061c-0.98-2.6-3.64-5.06-3.42-6.85c-1.17,2.41-1.51-1.601-2.061-2.05c-1.369,0-2.739,0-4.109,0
			c-0.061,2.56-0.771,1.949,0,4.109c1.609,0.01,2.02-1.18,4.109-0.689c1.141,1.359-0.06,0.869,0,2.739
			c1.971-0.14,3.48,0.181,4.11,1.37c-3.84-1.41-1.3,0.311-2.05,1.37c-2.021-0.27-2.32-2.25-4.12-2.74c1,3.12,3.41,4.82,4.12,8.23
			c1.27-0.101,2.29-0.46,2.74-1.38C381.16,625.11,380.47,624.43,380.09,623.44z M384.2,147.9c-1.01-0.35-1.73-1.01-2.74-1.37
			c1.8,3.65-1.96,1.33-2.05,1.37c-3.37,1.72-5.53,4.99-8.91,7.54c-9.61,7.24-21.54,13.91-31.52,19.87c3.77,2.98,9.68-2.04,9.59-4.79
			c2.729,0.59,10.68-2.55,10.96-6.17c0.08,0.84,0.21,1.62,1.38,1.37C367.46,158.57,376.4,153.8,384.2,147.9z M340.35,178.05
			c0.57-3.07-6-3.09-3.43-0.68c0.04-0.42,0.11-0.81,0.69-0.69c0.109,1.03-0.25,2.53,0.68,2.74
			C338.57,178.56,339.18,178.02,340.35,178.05z M336.24,181.48c0.41-2.7-1.54-3.04-3.431-3.43c-0.189,4.26-8.85,3.85-5.479,7.54
			c-3.21-1.31-8.15,3.57-7.54,6.17c-3.65-0.73-0.17,1.44-2.05,2.05c-0.08-0.83-0.21-1.62-1.37-1.37c0.03,1.28-0.53,1.45-1.37,0.69
			c-3.65,5.86-8.94,6.08-12.34,11.65c0.65,1.48,0.34,2.5,2.74,3.42c6.75-10.84,20.12-15.05,26.041-26.72c1.89,1.87,0.64-1,2.06-1.37
			c1.41,1.36,0.64,1.36,2.05,0C335.71,180.64,335.57,181.46,336.24,181.48z M325.27,599.46c-1.56,0.19-2.569-0.17-2.739-1.37
			c0.64-0.74,2.529-0.22,2.06-2.06c-1.35-0.2-1.359,0.93-2.06,1.37c0.17-2.11,0.7-3.87,1.37-5.48c-1.65-0.28-1.49,1.25-3.42,0.68
			c0.01-1.609-1.181-2.01-0.69-4.109c1.479,1.55,2.34-0.561,4.8,0c-2.57-2.37-1.55-8.13-3.43-8.221c0.21-1.609,2.38-1.27,2.06-3.43
			c-2.16,0.11-1.33-2.77-2.739-3.42c1.829-1.99,4.229-4.3,2.739-6.17c-0.08,1.68-2.27,0.15-2.06-0.68
			c0.81-0.11,1.95,0.109,2.06-0.69c-2.71,0.12,0.221-1.05-1.37-2.05c-2.06,0-4.109,0-6.17,0c-0.199,1.34,0.931,1.35,1.37,2.05
			c-1.59,0.601-1.83,0.601-3.42,0c0.01,1.62-1.18,2.021-0.689,4.11c-1.7-0.101-2.12,1.08-3.431,1.37
			c-7.49,13.06-17.14,23.97-23.29,38.37c-3.98,2.17-7.95,15.609-14.39,19.189c-3.76,2.09-10.88,3.29-10.97-2.74
			c-2.18,0.41-2.11-1.29-3.42,0c-0.4-2.62,0.02-2.14-2.06-3.43c2.33,1.18,5.2-2.03,3.43-0.68c-1.82-0.011-3.91,0.26-4.8-0.69
			c-1.89,2.57,1.78,3.561,2.06,4.8c0,0.011-1.52,1.021-1.37,2.061c1.46,10.62-3.14,26.46-5.48,37.68c2.34,1.14-0.77,9.33-2.74,12.34
			c-0.04,2.08,1.44,2.66,2.05,4.11c-3.66,2-1.27,7.67,0,9.59c-1.14,0-2.28,0-3.43,0c1.36,2.79-1.59,6.9,1.38,9.59
			c-6.02,10.92,0.16,16.26-2.06,27.41c2.01,0.18,2.1-1.55,4.11-1.37c0,0.69,0,1.37,0,2.061c-1.69-0.091-3.3-0.11-4.11,0.68
			c1.3,5.65,2.42,7.5,2.74,14.39c1.72,0.9,2.15-2.71,2.74-0.68c-0.39,2.26-0.59,2.979-2.74,2.05c0.12,3.21,1.76,2.28,0.69,5.48
			c0.91,0.689,2.55,0.649,2.74,2.06c-0.81-0.1-1.56-1.22-2.06,0c1.64,0.75,3.27,6.101,0.69,6.851
			c-16.4,0.689-38.71,0.039-57.56,0.689c-1.36-2.59-0.64-3.43-2.74-3.43c0.28-1.32,2.65-0.54,2.05-2.74
			c-5.76-2.15,0.11-7.76,0-12.33c-0.8-0.11-1.94,0.11-2.05-0.689c0.2-2.391,1.85,0.06,2.05-1.37c-1.45-5.301,4.43-11.561,1.37-17.82
			c0.95-0.03,1.51,0.33,2.06,0.69c-1.84-3.961,2.56-7.721-0.69-9.591c2.97-3.899,5.1-11.39,3.43-15.76
			c4.83-5.149,3.07-12.84,6.85-18.5c-0.8-0.11-1.94,0.11-2.05-0.689c0.91-0.681,1.34-1.851,2.74-2.061
			c4.02-17.21,9.22-33.25,15.76-47.96c-1.88-0.62,1.21-2.4-0.69-3.43c4.23-6.351,13.02-18.07,8.22-26.721
			c1.18,0.04,1.76-0.529,2.06-1.369c-1.32-0.341-4.02-2.761-4.8-1.37c0.43,1.17,2.07,1.13,2.74,2.06c-3-0.5,0.56,1.36-1.37,1.37
			c-1.3-0.3-1.72-1.479-3.42-1.37c1.46,4.34-3.23,2.59-4.8,6.16c1.71-0.27,2.03,4.28,0.69,4.8c0.93-2.149-1.64-4.2-2.06-2.74
			c0.86,0.28,1.4,0.881,1.37,2.051c-1.19,0.06-2.13-0.15-2.74-0.681c1.44,2.681-4.71,2.69-5.48,6.851
			c2.82,2.21,4.76-4.34,6.85-0.681c1.78-1.81-1.11-0.54-0.68-2.739c2.04,2.05,1.74-1.73,4.79-0.69c-0.11,4-1.43,6.79-4.11,8.22
			c0.64,4.69-4.11,7.07-2.05,10.971c-8.44,11.319-8.94,30.949-15.08,39.05c-0.57,1.939,0.97,1.78,0.69,3.43
			c-5.58,12.25-5.57,21.34-10.28,30.83c2.41,0.57,0.29,5.45-1.37,6.17c0.71,2.24,1.73,1.45,0,3.43c1.02,0.11,2.53-0.25,2.74,0.681
			c-0.54,0.149-0.8,0.58-0.69,1.37c-0.87-0.04-0.95-0.88-2.05-0.681c0.39,6.03-1.29,8.38-2.74,13.7c1.02,0.12,2.53-0.24,2.74,0.69
			c-1.31,1.279-1.72,0.069-3.43,0c-0.84,3.12,1.88,2.68,1.37,5.479c-0.68,0-1.37,0-2.05,0c0.11,9.24-2.44,17.09-2.06,28.78
			c0.91,0.68,2.55,0.64,2.74,2.05c3.72-0.01,8.22-0.79,10.97-0.68c17.88,0.67,37.48-1.18,58.92-0.69c-0.09-1.229,0.68-1.6,2.06-1.37
			c-0.5-2.1,1.18-2.01,0.68-4.109c-0.87-0.95-3.35-0.3-3.42-2.061c-0.26-1.71,2.53-5.13,0-6.85c-0.27,1.18,1.01,1.76,0,2.06
			c-0.69-2.42-2.55,0.11-3.43-1.37c1.29-1,3.56-1.01,4.11-2.739c-3-4.13-1.39-8.24-5.48-12.34c1.36,0.01,0.87,1.869,2.74,1.369
			c-0.43-1.59-2.59-1.35,0-3.42c-1.59-0.47-2.88-1.239-2.74-3.43c2.2,2.07,1.51-2.67,0-2.74c2.77-4.739-0.9-11.71,0-15.76
			c-0.53,1.36-4.42,0.37-4.11-1.37c1.01,0.36,1.73,1.01,2.74,1.37c-0.24-2.72,2.45-5.2,0-6.17c1.75-0.07,2.4-1.25,3.43-2.05
			c-0.43-0.8-0.35-1.79-2.06-2.74c3.67-2.9,2.1-11.4,2.06-17.13c0.87,0.03,0.95,0.88,2.05,0.68c-0.98-2.7,1.72-4.64-0.68-7.54
			c2.27-2.149,3.6-11.45,2.05-13.01c1.36-1.42,1.36-0.65,0-2.06c0.99-2.551,0.92-1.73,2.06,0c0.88-12.061-0.19-18.25,4.79-27.41
			c-0.7-0.67-1.38-1.351-2.05-2.05c3.28-0.5,3.6,1.47,2.74,3.42c2.86,0.159,3.24-1.11,5.48,0c2.93-3.011,6.64-2.891,11.65-6.16
			c-1.81-2.95,1.57-1.21,2.06-3.431c-0.95-0.029-1.51,0.32-2.06,0.681c1.52-0.98-0.86-1.67,0.69-2.05c1.29-0.15,1.51,0.77,2.74,0.68
			c0.32-2.16,4.69-2.95,1.37-4.79c0.91-0.69,2.55-0.65,2.74-2.061c-2.47-0.409-2.02,2.091-4.11,2.061c0.87-1.72-0.35-2.15,0.68-2.74
			c1.69,1.32,2.53-0.59,0.69-1.37c1.27-0.66,2.29,2.05,2.74,0c-2.45-0.81,4.64-3.47,2.05-8.229c1.35,0.31,3.43,3.359,4.11,2.06
			c-0.92-0.67-0.88-2.31-2.05-2.74c2.14-1.489,4.95-5.27,3.42-8.22c2.13,1.18,4.95-2.45,1.38-2.06c1.78-1.771,4.49-1.08,6.85-3.431
			c0.07-0.3-1.6-4.14,0-5.479c1.19,1.7,1.77,1.12,0.68-0.68c1.2-0.051,2.13,0.149,2.74,0.68c-1.56-3.84,4.2-0.37,3.43-3.42
			c-1.82,0.689-3.49,0.71-4.8-0.69c2.34-0.17,3.63-1.39,4.11-3.43c-1.27-0.65-2.29,2.06-2.74,0c1.62,0.02,2.02-1.17,4.11-0.68
			c-0.5-3.48,4.3-1.65,4.12-4.801c-4.22-0.89-1.93,2.11-4.12,2.061c0.74-4.561,6.15-4.94,7.54-0.69
			c-1.58-1.359-0.76,0.181-2.05,0.69c2.37,1.46-0.64,5.109,0.68,6.85c-0.12-1.49,0.561-2.18,2.061-2.05
			c-2.11,2.34-0.95,3.73,0.68,5.48c-0.42-0.2-2.64-1.71-2.74,0c0.47,0.81,2.83,5.01,0,4.79c2.98,4.619,0.87,14.89,2.061,19.189
			c2.649-0.71,2.819,0.36,4.79-0.689C323.56,605,323.58,604,325.27,599.46z M281.42,310.3c28.21-6.38,20.19-51.86-10.28-46.6
			c-4.67,0.81-8.85,2.43-11.65,4.8C242.56,282.86,255.11,316.25,281.42,310.3z M303.35,408.28c-5.42-10.931-11.98-21.87-29.47-19.18
			c-20.59,3.16-23.99,32.9-13.7,41.11c3.79,3.03,9.38,5.66,14.39,6.17C292.58,438.19,302.86,424.91,303.35,408.28z M257.44,611.11
			c0.89-2.71-2.52-1.66-0.69-3.431c-0.98-1.52-1.67,0.86-2.05-0.689c0.64-0.73,2.53-0.21,2.05-2.05c-2.42-0.7-1.81-5.19-4.11-4.11
			c0.11-1.271,2.32-0.42,2.74-1.37c-0.49-2.1,1.18-2.02,0.69-4.12c-0.81-0.1-1.95,0.12-2.06-0.68c2.85-0.09,0.14-0.45,0-1.37
			c0.91-1.68,2.07,1.229,2.74-0.69c-0.85-1.42-1.67-2.89-2.74-4.109c4.14-1.58-0.11,0.25,0-2.74c1.14,0,2.29,0,3.43,0
			c-2.12-2.92-1-5.42-2.97-7.73c1.06,0.53,3.16-0.67,1.6-1.18c-1.52,1.15-1.13-1.87-1.37-4.79c4.61-0.22,2.04-6.93,0-8.22
			c-3.72-0.311-7.8,4.07-4.8,6.16c-7.28,1.25-7.9,8.38-9.59,12.34c-0.33-0.811-0.73-1.561-1.37-2.061c-0.27,0.98-0.82,1.16,0,2.061
			c-3.9-0.561-5.7,6.53-9.6,8.22c-0.35,1.51,3.46,3.78,0,4.11c0.04-0.88,0.88-0.95,0.69-2.061c-1.98,1.04-3.12-1-3.43,2.061
			c2.46-1.37,2.38,1.01,4.12,2.06c-0.42-2.069,4.44-2.34,2.05-4.12c-0.06,0.95-1.75,0.721-1.37-0.68c2.1-0.5,2.02,1.18,4.11,0.68
			c2.5-2.67,0.97-4.52,1.37-6.85c0.69,0.92,1.13,2.07,2.06,2.74c1.51-2.37,2.82-4.94,5.48-6.16c-0.81-0.34-1.55-0.73-2.06-1.37
			c0.84,0.03,1.37-0.25,1.86-0.56c-1.76,1.26,1.99,2.029,2.26,0.56c-2.55-0.06,1.76-3.83,3.42-4.12
			c1.04,12.53-1.2,21.061,0.69,32.891C255.89,609.92,252.75,608.91,257.44,611.11z M253.33,622.75c-0.71-4.36,4.24-3.06,3.42-7.53
			c-1.66,0.95-2.82,1.62-4.79,0c0.81-0.34,1.55-0.729,2.05-1.37c-3.29-0.29,0.82-0.25,0-2.06c-2.11,0.51-0.83-2.36-3.42-1.37
			C250.02,614.65,250.07,618.7,253.33,622.75z M240.99,515.18c-1.59-3.66,1.61-1.83,1.37-5.489c-3.03-0.21-1.66-6.091-2.05-8.221
			c-1.81-0.979-3.79-0.6-6.17-1.37c0.59-1.689,4.77,0.2,5.48-1.369c-0.71-2.301-3.09-4.25-0.68-6.851c-1.56-0.939-2.58,1.771-2.74,0
			c3.42-6.02,0.74-8.689,4.11-13.71c-3.2-0.34-1.35-1.29,0-2.05c-2.26-0.03-3.41-1.16-6.17-0.69c-0.39,0.42-1.6,3.25,0,3.431
			c0.08-0.841,0.21-1.62,1.37-1.37c-1.14,1.359,0.06,0.87,0,2.74c-0.94,0.029-1.5-0.32-2.05-0.69c1.98,4.16-2.19,6.68,0.68,10.28
			c-1.74,0.09-2.66,1-2.74,2.739c1.94,1.261,2.36,4.04,5.48,4.11c-0.95,0.94-3.38,1.48-4.11,0.69c-0.17,2.3-1.47,4.319,0.69,5.479
			c0.21-3.34,1.08,0.66,0.68,2.061c2.69,0.63,1.73-2.391,4.8-1.37c-0.03,0.939,0.32,1.5,0.68,2.05c-1.61-0.88-1.27,0.09-3.42-0.68
			c-1.07,2.43,2.32,0.409,2.05,2.05c-1.52,0.54-3.71,0.399-4.11,2.06C236.16,510.77,238.24,512.64,240.99,515.18z M214.27,617.27
			c-0.99-2.59,1.88-1.31,1.37-3.42c-2.73,0.341-6.23,4.53-7.54,2.051c-0.68,2.06-2.05,3.43-4.11,4.109
			c-0.15,1.3,0.77,1.51,0.69,2.74c-1.14,0-2.29,0-3.43,0c0.93,2.99-1.63,2.48-2.05,4.12c1.51,1.81,2.94,1.09,5.48,0.68
			c-1.11-1.899-0.08-5.49,1.37-2.74c0.15-0.529,0.57-0.8,1.37-0.689c0.11-1.93-2.06-1.59-2.06-3.42c0.88,0.95,3.24,0.42,4.11,1.37
			c0.8-1.021,0.8-1.73,0-2.74c0.81,0.86,2.85,0.55,2.74-1.37c-1.17-0.27-1.75,1.01-2.05,0
			C210.24,616.44,213.07,617.67,214.27,617.27z M199.88,628.24c-2.15,0.779-1.66-1.08-2.74-1.37c0.67,2.479-3.6,0.57-1.37,2.74
			c-5.01,2.05-12.48,1.76-16.94,0.72c-0.06-0.021-0.12-0.04-0.19-0.04c0.06,0.02,0.13,0.03,0.19,0.04c0.52,0.2,0.58,1.18-0.19,1.33
			c-1.28-1.3-0.08-1.72,0-3.42c-2.11-0.98-3.08-0.311-4.8,0.68c0.78,2.83,4.76,6,6.86,3.43c-0.5,4.07,3.09,0.101,3.42,2.74
			c1.87-1.96,3.85-0.63,6.85-0.689c-0.65-2.471,2.7-0.95,4.11-1.37c0.16-1.21-0.69-3.431,1.38-2.74c-2.22,1.34,1.78,2.21,2.05,0.69
			C195.4,630.98,199.73,629.24,199.88,628.24z M97.1,578.21c1.04-1.47,3.79-1.229,4.11-3.42c-1.59-0.92-2.58-2.45-3.43-4.11
			c-0.32,2.65-3.11,2.82-5.48,3.42c-0.03,0.95,0.33,1.511,0.69,2.061c-2.25,0.35-3.02,0.62-4.8,0c-0.95,0.42-0.1,2.64-1.37,2.74
			c-1.82-2.761-10.9,5.63-13.02,6.85c-2.37,1.37-4.34,1.03-4.79,2.76c0-0.24,0-0.47,0-0.7c-5.26,0.91-9.11,3.221-11.65,6.851
			c-0.16-0.53-0.02-1.351-0.69-1.37c0.04,4.11-0.62-0.521-2.05,1.37c4.87,9.689,13.86-5.95,21.24-4.11
			c1.89-2.95,4.54-4.63,6.85-4.109c-0.52-1.65-0.54-3.32,0.69-4.801c0.37,1-0.81,3.54,0.68,3.431c0.12-0.801,1.08-0.75,2.06-0.69
			c0.11-1.02-0.25-2.53,0.68-2.74c4.54,2.061,8.88-4.33,9.59-6.17C98.82,575.66,94.69,578.03,97.1,578.21z"/>
		<path d="M417.78,69.1c19.08-3.4,33.97-9.49,54.13-7.53c-12.3,8.94-23.32,19.16-36.32,27.41c-0.29,1.43,0.47,1.81,0.69,2.74
			c0.89,1.62,3.7,1.32,5.479,2.05c0.29,1.31,1.96,1.24,1.37,3.43c8.79,4.25,10.29,11.6,19.19,15.76
			c-7.42,4.49-20.101,2.61-30.84,3.42c-8.461,0.64-6.75,0.56-10.961,6.17c-4.029,5.37-13.079,12.93-14.39,17.82
			c-1.21,4.51,4.7,9.7,0.68,13.7c-1.59-2.54-3.649-6.64-2.739-9.59c-3.24-0.05-9.311,2.66-9.59,4.11
			c-2.19,0.59-2.12-1.08-3.431-1.37c1.49-2.4,4.11-3.66,6.17-5.48c-4.399-2.33-5.33,4.09-10.279,2.05
			c2.449-1.43,3.899-3.87,7.54-4.11c-0.24-10.34-0.101-17.6-1.37-26.04c-11.271-3.41-25.79,0.77-36.32,0
			c5.42-7.03,13.32-7.87,17.82-15.07c1.229-0.09,1.439,0.84,2.739,0.68c-0.02-0.66-0.84-0.53-1.369-0.68
			c5.159-3.52,9.979-7.38,15.76-10.28c-3.471-4.9-9.46-6.15-13.021-10.96c-2.399-3.25-3.17-7.71-5.479-10.97
			c-3.37-4.75-7.641-5.75-11.65-10.27C379.94,58.16,404.03,60.17,417.78,69.1z M426.68,88.98c11.71-7.48,24.07-14.31,32.21-25.36
			c-15.39,0.03-27.04,7.58-42.479,6.86c-11.8-0.56-24.561-10.63-39.061-9.6c1.57,13.96,12.83,18.24,19.87,26.73
			c-7.21,5.12-14.77,9.89-21.239,15.76c-4.08,1.86-9.75,5.76-10.28,8.9c11.319-3.05,20.97-2.59,32.89,0.69
			c-0.18,6.84,1.7,21.18,1.37,26.72c5.76-9.32,14.26-17.18,19.19-25.35c10.489-2.68,23.369-1.17,34.26-2.06
			C445.99,102.54,435.59,95.39,426.68,88.98z"/>
		<path d="M314.17,333.28c0.061-0.13,0.11-0.25,0.14-0.37C314.25,333.05,314.21,333.17,314.17,333.28z M175.24,476.41
			c0.17,5.46,0.68,19.24,5.46,19.58c-0.37,0.55-0.72,1.109-0.69,2.06c6.5-0.17,7.74-9.59,14.39-8.91
			c0.09-1.229-0.84-1.449-0.69-2.739c2.84,0.18,2.76-0.82,2.06-2.74c3.37,0.1,3.02-4.57,6.17-2.74c0.25-1.17-0.54-1.3-1.37-1.38
			c-0.6-1.4,3.48-1.36,1.37-2.05c0.2-1.63,1.85,0.76,2.05,1.37c1.44-1.431,1.4-2.25,2.06-5.48c3.19-0.7,3.57-4.2,8.22-3.43
			c0.69-2.061-1.53-1.21-2.74-1.37c6.79-0.97,7.6-7.93,13.7-9.59c-3.83-3.63,6.19-1.58,4.8-8.221c1.64,0.33,3.23,1.49,2.06-1.369
			c2.92-0.82,5.91-1.07,7.53-5.49c2.59,0.53,3.28-0.83,5.48-0.68c1.38,2.52,0.07,4.609,0,7.539c-2.15-0.789-1.66,1.07-2.74,1.37
			c0.3,1.011,0.88-0.27,2.06,0c0.11,1.53-3.49,4.92-0.69,4.79c-2.6,5.7-1.55,3.431-2.05,11.65c-0.55-0.36-1.11-0.71-2.06-0.68
			c1.74,1.8,1.74,5.04,0,6.85c-1.92-0.79-3.56-0.79-5.48,0c0.08-1.3,2.27-0.48,2.06-2.06c-0.85-0.761-1.41-0.591-1.37,0.689
			c-2.56-0.07-0.05-2.68-1.37-2.74c0.16-1.21,1.18-1.56,2.74-1.37c-0.27-1.8-2.2-1.92-1.37-4.8c1.39-0.2,1.82-1.37,2.74-2.05
			c-0.45-0.7-1.58-0.71-1.37-2.06c1.1-0.19,1.18,0.649,2.05,0.68c0.47-1.84-1.41-1.32-2.05-2.05c1.12-2.7,2.68,1.359,4.79-1.37
			c0.12-1.49-2.43-0.311-3.42-0.69c1.28-1.22-0.56-1.739,0-4.109c-1.22,0.16-3.43-0.69-2.74,1.37c-0.21,1.829,2.65-1.82,2.05,1.369
			c-6.61-0.439-6.56,5.771-13.02,5.48c2.41,1.19,2.12,1.49-1.37,1.38c0.11,1.26,2.32,0.41,2.74,1.37c-2.17,2.62-4.92,4.66-6.85,7.53
			c-2.49-0.21-4.46,0.109-6.17,0.689c0.77,1.061,2.23,1.42,2.06,3.42c-1.81,0.21-1.77-1.43-2.06-2.739
			c-2.14,0.479-0.89,1.829-0.68,3.43c-1.41-0.57-3.08-0.58-1.37,0.68c0.21,1.4-1.98-0.14-2.06-0.68c-0.64,0.5-1.03,1.25-1.37,2.05
			c1.26,3.33-4.54,5.43-7.53,10.28c-2.71,0.12,0.22-1.05-1.37-2.05c-1.93,0.689,0.18,2.909,0,4.109c-0.82,1.01-2.59,1.061-3.43,2.05
			c-1-0.3,0.07-0.6,0-1.369c-2.25,2.319-3.66,5.39-6.85,8.229c-1.52,0.37-0.98-1.31-2.06-1.37c-2.5,1.07,1.59,1.021,0.69,2.74
			c-2.57,0.17-2.08,3.4-4.11,4.11c3.31,2.6-0.81,5.22,2.74,6.85c0.04,1.18-3.52-0.75-3.43,2.06c-0.21,1.391,1.98-0.14,2.06-0.689
			c1.85,0.61-0.32,2.78-2.06,2.06c3.89,3.03-3.23,7.08-6.17,9.59c-7.69,6.57-10.32,8.73-23.98,7.54
			c-13.85-1.21-21.22-5.939-23.98-17.13c1.36-2.16-1.18-4.239,1.37-5.489c-0.1-1.271-0.45-2.29-1.37-2.74
			c3.69-12.07,12.24-19.28,19.87-27.41c8.31-0.78,15.26,1.03,22.61,4.12c-0.19-2.47-2.93-10.43,3.43-10.97
			c-2.22-1.7,1.84-5.45-1.37-6.16c3.1-2.84,3.99-7.88,4.79-13.021c1.44,0.29,1.82-0.47,2.74-0.689c-0.86-0.801-1.56-4.471,1.38-3.42
			c-1-2.341-2.33-6.08,2.05-6.17c-2.4-2.74,1.97-3.101,1.37-6.171c-0.96-1.39-2.36,0.681-4.11-0.68c-1.77,0.16,0.94,1.18,0,2.74
			c-0.92-0.14-1.28-2.851-1.37,0c-1.21-1.71-0.87-0.74-3.43-0.69c0.11,1.271,2.32,0.42,2.74,1.37c-0.9,1.811-2.25,2.101-4.11,1.37
			c-0.25,1.17,0.54,1.3,1.37,1.37c-0.77,1.97-2.94,2.55-5.48,2.74c-0.25-1.16,0.54-1.29,1.37-1.37c-2.24-2.04-1.8,1.729-3.42,1.37
			c0.21,0.93,1.71,0.569,2.74,0.689c-0.13,2.99-3.26-0.819-2.74,2.061c-1.59,0.21-2.63-0.11-3.43-0.69c-2.05,0.45,0.66,1.46,0,2.74
			c-0.61-0.42-1.23-0.83-1.37,0c-1.22-0.5-0.1-1.25,0-2.05c-1.5,0.1-1.47,1.72-1.37,3.42c-3.67,0.37-4.16,0.26-6.85,2.06
			c0.06-1.87-1.14-1.38,0-2.74c-3.09,1.57-2.08,1.931-3.43,3.421c-3.47-0.08-5.66-1.631-6.85-1.37c-3.49,0.779-2.73,3.85-4.11,5.479
			c-0.01,0.01-1.62-0.819-2.06,0c-0.35,0.67-1.99,7.75-4.79,11.65c-1.95,2.72-4.17,3.149-5.49,4.8c-1.87,2.34-0.78,5.58-4.11,6.85
			c-0.34,0.131-0.95-1.02-1.37-0.68c-2.13,1.68-4.15,4.39-5.48,6.85c-0.61-0.529-1.55-0.739-2.74-0.689
			c0.44,0.7,1.58,0.71,1.37,2.06c-2.63,1.87-4.16,4.24-6.17,4.11c0.3,2.1-3.84,7.46-7.53,5.48c1.29,1.21-0.94,2.119,1.37,2.739
			c-6.09,4.23-10.55,13.62-17.13,15.08c-2.06,9.13-10.93,11.46-15.08,18.5c-1-0.6-2.65-0.55-2.05-2.74
			c-0.75,0.171-0.47,1.36-1.37,1.37c-0.21,1.801,2.65,0.54,2.05,2.74c-0.58,0.12-0.65-0.27-0.68-0.689
			c-1.16,2.96-4.03,4.189-4.8,7.539c-1.11-2.979-2.07,2.061-2.06-2.06c-1.61,0.19-0.41,3.04,0.69,2.74
			c-1.04,1.85-2.35,3.41-4.8,2.06c-0.37,1.521,1.31,0.98,1.37,2.061c-8.38,13.31-19.62,23.77-22.61,42.479
			c-2.83-2.17-0.59,2.16-3.42,0c-0.41,2.19,1.28,2.12,0,3.42c0.62,0.61,2.02,0.12,4.11,0.69c-1.5-2.16-2.16-0.88-0.69-3.43
			c2.32,2.029,3.58,5.1,5.48,7.539c2.23-0.359,4.18-1.01,6.19-0.289c0.16,0.1,0.38,0.199,0.66,0.289
			c-0.22-0.109-0.44-0.21-0.66-0.289c-1.66-1.061,2.69-2.561,2.72-0.391c0.72-2.649,2.14-0.33,2.06-3.43
			c1.73,1.85,0.54,2.66,1.37,4.8c-8.01,3.21-12.36,0.44-17.82,0.68c-5.87-4.54-6.32-10.3-5.48-16.439c0.67,0.02,0.53,0.84,0.68,1.37
			c2.14-1.311-1.07-2.98-0.68-4.801c1.21,0.61,1.13,3.04,2.74,1.37c-0.13-0.779-0.69-0.38-0.68,0c-1.87,0.49,0.49-3.229-1.38-2.739
			c0.46-0.92,1.47-1.28,2.75-1.37c0.07-2.13-2.16-1.96-1.37-4.8c2.95,1.439,1.48,1.27,1.37-2.051c1.22,0.83,3.98,0.12,4.79,1.37
			c0.75-0.17,0.47-1.359,1.37-1.37c-0.08-1.52-2.9-0.29-4.11-0.689c1.91-1.5,6.2-4.82,3.43-6.851c1.75-2.1,5.49-5.21,8.9-3.43
			c-0.09-1.96-2.85-1.25-4.79-1.37c-2.39-0.54,5.94-1.38,1.37-2.05c2.03-0.94,1.95-3.99,4.8-4.11c1.4-6.54,7-10.989,11.64-13.71
			c-0.1-1.88-0.12-3.529,1.37-2.05c0.28-1.65-1.25-1.49-0.68-3.43c1.93-3.32,7.05-3.45,10.28-5.48c-0.11-0.8-1.25-0.58-2.06-0.689
			c1.43-3.61,4.2-2.04,5.48-6.16c1.23-0.09,1.45,0.84,2.74,0.68c-0.29-1.07-2.15-0.58-1.37-2.74c0.9,0.24,1.08,1.21,2.06,1.37
			c-1.03-3.609,2.94-6.739,6.17-8.22c-1.44-3.61,6.8-6.02,8.22-10.96c1.11-0.2,1.18,0.64,2.05,0.68c-0.33-3.319,5.01-4.39,6.17-8.22
			c2.24,0.87,1.45,0.99,3.43,1.37c0.32-1.46-0.98-1.311-2.06-1.37c2.06-5.02,6.41-7.75,8.91-12.33
			c12.72-6.47,17.83-20.55,26.04-31.52c-2.33-0.021-3.14-4.101-2.06-8.91c2.97-0.51,4.25,1.55,5.48-0.69
			c-0.53-1.51-5.25,1.23-4.79-2.74c1.17-0.14,1.77,1.171,2.05,0c0.81,0.11,0.58,1.25,0.69,2.061c0.8-0.11,0.58-1.25,0.68-2.061
			c-0.21-0.93-1.71-0.569-2.74-0.68c2.63-8.8,8.42-14.42,11.65-22.62c0.93,0.681,1.37,1.83,2.06,2.75c0.36-4.43,2.16-6.819,6.85-9.6
			c-0.28-1.32-2.66-0.54-2.06-2.74c5.62-2.83,4.46-12.44,11.65-13.7c2.48-18.09,19.43-27.62,27.41-42.49
			c-1.93-0.1-1.72,1.94-2.74,2.75c-1.32-0.26-4.2-2.82-3.43,0.68c-2.7-1.68-6.49-2.97-9.59-2.74c-2.55-1.11-2.85-4.46-6.17-4.8
			c2.21-1.73,0.55-3.06,0-5.48c1.08-0.29,0.59-2.15,2.74-1.37c-0.29-1.3-1.47-1.72-1.37-3.42c1.6-0.7,2.21-2.36,2.06-4.8
			c1.3,1.28,1.72,0.07,3.43,0c0.32-1.46-0.98-1.31-2.06-1.37c11.81-16.28,22.57-33.62,35.63-48.65c3.57,2.01,4.03-4.66,4.11,0
			c2.03-0.48,1.09-3.12,0.69-3.43c3.48-1.33,4.68-8.55,8.9-6.85c2.75-4.4,9.73-8,13.71-8.91c-0.36-0.55-0.72-1.11-0.69-2.05
			c6.34-1.27,8.96-9.69,14.39-9.6c3.91-8.04,12.3-12.59,21.24-13.7c0.01-3.69,10.83-5.42,10.28-9.59c0.18-1.43,3.01-0.19,3.43-1.37
			c-0.48-2.15-1.83-0.9-3.43-0.69c0.41-1.41,1.06-2.59,3.43-2.05c-0.45-0.7-1.58-0.71-1.37-2.06c1.31-0.97,1.96-2.6,4.11-2.74
			c0.5,1.87-1.36,1.38-1.37,2.74c0.91,0,1.83,0,2.74,0c0.32-1.31-2.11-2.95,0.68-2.74c-1.66-0.93-0.42-1.37-1.37-2.06
			c3.65-3.09,4.78-6.67,9.6-5.48c-0.51,4.67-7.63,7.76-8.91,12.34c-0.67-0.02-0.53-0.84-0.69-1.37c0.06,3.38-4.23,6.16-3.42,12.33
			c1.77,1.99,7.6,1.65,10.28,0.68c-3.05,3.74,4.24-2.32,5.48,1.38c1.021-0.3-0.27-0.88,0-2.06c1.58,1.01,6.16,0.56,10.96,0
			c11.87-1.38,19.7-3.34,30.15-4.8c-14.26-2.8-25.37-11.96-21.931-30.15c2-10.51,15.4-20.19,28.78-17.81
			c23.08,4.1,25.34,43.21-0.68,47.28c1.1,1.25,2.17-0.48,3.42,1.37c-3.51,6.99-1.89,19.11-8.9,22.61c2.33,4.23,0.65,7.59-1.37,11.65
			c1.381,2.14,0.65,2.84,1.37,6.17c7.46,0.83,9.87-6.24,16.44-8.23c3.93-6.02,14.479-13.85,18.5-19.87c3.04-0.32,3.41,0.94,5.479,0
			c0.45,2.55,2.271,7.29,0.69,9.59c6.4,8.45,8.5,21.2,17.13,27.41c6.5-1.72,5.05-11.39,10.28-14.39
			c-2.391-2.58-0.86-6.61-0.69-10.96c1.28-0.09,2.29-0.45,2.74-1.37c-1.02,0.26-2.979-9.27,0-9.59c-2.75-7.15,1.29-13.54-3.42-18.5
			c-0.05-2.79,2.17-3.31,2.05-6.17c2.5-0.82,3.34,0.76,5.48,0.68c-0.13,4.67,2.85,12.84,2.06,17.82
			c2.771,3.31,5.97,11.88,2.74,15.07c0.24,0.96,1.21,0.06,1.37-0.68c2.939,5.28,5.62,10.87,7.54,16.44
			c3.029-3.7,5.529,4.43,10.279,1.37c0,0.69,0,1.38,0,2.06c3.82,0.63,1.23-6.17,4.561-4.24c-2.101-1.43-0.771-6.3-2.51-8.09
			c0.6-1.01,1.029-2.17,2.739-2.06c-0.149-0.87-2.04-0.9-2.05,0c-3.66-7.38-0.17-11.31-4.8-17.13c2.79-1.91-2.52-4.86,0.69-7.54
			c-2.11,0.48-1.32,0.48-3.431,0c1.521-4.05-4.97-6.56-1.37-8.22c-1.08-0.52-1.02-2.17-2.739-2.05c0.729-3.03-1.36-5.3,0-6.86
			c-1.87,0.24-11.131-14.07-6.851-15.07c-0.109-0.8-1.25-0.58-2.06-0.69c0.22-2.7,2.12,0.51,2.74-1.37
			c-0.29-1.53-3.381-0.27-4.801-0.68c-0.77-3.24-5.58-8.54-2.739-10.97c-0.94-0.15-2.82-0.56-4.11-2.05
			c3.49,0.05-3.16-2.14,0.689-4.11c-0.6-2.03-1.029,1.59-2.739,0.68c0.569-1.41,0.58-3.07-0.69-1.37
			c-0.27-3.39-7.14-7.27-4.79-13.02c0.11-1.48-2.43-0.31-3.43-0.68c0.68-2.97-0.771-3.8-1.37-5.48c1.11,0.19,1.18-0.65,2.05-0.69
			c2.07,0.24,4.311,2.35,2.75,4.11c0.681,0,1.37,0,2.05,0c-0.02,0.67-0.84,0.53-1.369,0.69c1.449,0.83,1.989,2.58,4.109,2.74
			c0.18,4.12,5.26,11.58,8.91,12.33c-0.3,0.61-0.6,1.23-1.37,1.37c4.33,0.58,1.311,4.86,4.8,5.48c-0.16,0.99-2.05,0.24-2.06,1.38
			c4.81,1.81,5.81,7.44,8.91,10.96c-0.11,0.8-1.25,0.58-2.061,0.68c5.8,3.57,5.54,13.19,10.28,17.82c-0.53,2.7,0.3,3.56-0.68,4.8
			c0.109,0.8,1.239,0.57,2.05,0.68c1.53,7.84,11.06,28.58,9.59,42.48c-1.21,11.54-8.95,8.4-18.5,5.49
			c-1.33-0.41-1.88,0.65-4.79-1.38c1.33-2.18-2.07-4.5-4.11-5.48c0.62-4.26-3-7.8-0.689-8.22c-1.2-1.56-3.66-1.15-2.061-4.8
			c-4.93,1.14-0.85,12.77-6.159,12.34c1.67,3.47-0.29,10.96-4.801,10.96c5.15,2.23-6.149,14.17-11.649,9.59
			c2.29-1.39,0.55-1.48-2.05-1.37c1.75-2.96-2.5-2.6-4.11-4.11c1.34-1.85-0.43-5.15-3.43-4.79c0.87-3.54-4.49-4.49-0.69-6.86
			c-0.21-0.93-1.71-0.56-2.74-0.68c0.2-1.56-0.16-2.58-1.37-2.74c0.171-0.75,1.37-0.47,1.37-1.37c-4.21-2.6-6.51-9.12-3.42-10.97
			c-7.359-2.77-12.68,11.17-21.24,13.71c-2.3,3.91-7.09,7.72-10.97,6.17c-1.01,0.29,0.271,0.87,0,2.05
			c-2.45-0.17-2.51,2.06-4.79,2.06c-1.83-0.38-10.21-3.9-5.49-8.23c-0.5-0.64-1.239-1.03-2.05-1.37
			c5.011-3.77-2.229-4.01,3.431-6.85c-0.96-0.87-0.301-3.36-2.061-3.42c3.9-0.69-0.859-4.09,4.11-4.12c-0.24-4.19-0.21-4.1,0-9.59
			c0.84,0.3,1.41,0.88,1.37,2.06c1.47-3.4,0.02-5.43,2.06-10.28c-14.79-0.89-28.939,5.57-43.17,4.11c2,3.07-3.58-0.02-6.85,0
			c0.11,0.8,1.25,0.58,2.05,0.69c-2.48,0.77-11.5,1.04-16.44-1.37c-20.08,7.1-31.3,23.06-47.28,34.26
			c-8.87,4.84-15.7,11.71-21.93,19.18c-1.36,0.01-0.87,1.87-2.74,1.37c-0.19,3.69-2.31,5.46-5.48,6.17
			c-0.6,1.83-1.47,5.88-5.48,6.17c-2.62,6.5-8.06,15.54-14.39,20.55c0.36,0.55,0.71,1.11,0.68,2.06c-3.62-1.39-0.52,5.14-5.48,5.48
			c0.88,5.03-6.34,9.58-2.74,15.76c2.11,0.4,4.85,0.17,4.8,2.74c1.43-3.31,4.31,3.18,5.48-1.37c0.8,0.11,0.58,1.25,0.68,2.05
			c3.3-2.69,7.68-5.67,13.71-4.79c0.5-2.01,3.02-2,3.42-4.11c3.03-0.34,8.91-2.69,11.65-5.48c6.62-3.21,16.2-5.55,20.56-8.91
			c0.84,0.3,1.41,0.87,1.37,2.05c2.05-0.45-0.66-1.46,0-2.74c7.55,0.27,13.94-6.48,19.18-4.11c0.81-0.11,0.58-1.25,0.69-2.05
			c3.69,0.1,2.87,0.46,6.17,0.68c1.08,4.9-7.81,6.37-8.23,13.71c-0.68,0-1.37,0-2.05,0c0.44,2.5-0.46,3.64-1.37,4.79
			c-1.31-0.9,1.58-2.25,0-4.11c-1.87-0.5-1.38,1.36-2.74,1.37c2.22,1.12-0.85,4.89,0,6.17c-1.02-0.17-2.17,1.53-3.43,0.68
			c-0.32,1.46,0.98,1.31,2.06,1.37c-1.36,1.38-1.39,4.1-4.11,4.11c-0.61,4.88-2.12,8.85-5.49,10.97c1.52,0.63,3.08,3.01,1.37,4.79
			c-1.87-0.62,1.34-2.52-1.37-2.74c-0.84,1.93,0.71,3.51,0.69,6.17c4.88,0.98,5.5-1.68,8.91,0.69c2.92-3.09,10.22-2.85,11.65-5.49
			c0.65,1.97,2.27,0.45,2.74,1.37c0.8-0.42-0.85-2.98,2.74-2.05c-0.37-0.55-0.72-1.11-0.69-2.06c19.12-8.3,29.35-20.97,43.86-28.78
			c-1.92-3.24,6.4-7.74,9.59-2.74c-1.76,2.64-0.1,7.9-4.109,9.6c1.67,4.9-1.811,9.38-1.37,14.39c2.38,1.43,3.59,4.93,1.37,7.53
			c2.83-0.01,0.76,4.63,2.739,7.54c-0.64-0.5-1.04-1.25-1.369-2.06c-2.671,0.7-0.11,2.36-0.69,4.8c-1.74-0.08-2.66-1-2.74-2.74
			c-0.12-1.49,0.561-2.18,2.061-2.06c-0.21-0.93-1.721-0.56-2.74-0.68c-1.17-2.68,0.01-7.15,2.74-5.48
			c-0.17-2.03-2.551-0.94-3.431,0c-0.3-1.61-3.479-7.91,0.69-7.54c-2.66-5.63-1.53-9.66,0-15.07c0.25-1.55-2.72,0.14-2.21-1.66
			c-1.3,2.65-8.56,6.83-10.13,4.4c-0.32,2.14,1.73,1.93,2.74,2.74c-1.66,2.58-5.35,1.57-6.85,5.48c-3.57-2.23-1.76,2.82-5.48,0.68
			c-0.71,3.56-4.72,6.94-8.22,5.49c0.86,3.76-6.91,3.74-8.91,8.22c-0.74-0.17-0.47-1.36-1.37-1.37c-1.03,0.59,0.19,1.02-0.69,2.74
			c-2.3-0.57,0.77-4.41-4.11-3.43c-0.1,1.7,0.36,2.85,1.37,3.43c-5.33,3.68-15.06,4.83-21.92,7.54c-3.34-3.94-7.41-1.12-10.97-4.8
			c-0.53-4.47,1.79-7.99,0.69-10.96c1.64-0.26,2.03-1.77,3.64-2.05c0.28,0.11,0.66,0.11,1.15-0.01c-0.45-0.06-0.82-0.05-1.15,0.01
			c-1.96-0.63,0.74-5.74,1.15-6.18c3.27-3.37,6.85-17.7,13.02-14.39c-0.36-0.55-0.71-1.11-0.68-2.05c-1.94-0.57-1.78,0.96-3.43,0.68
			c1.42-1.8,1.81-1.44,2.06-3.42c0.74,0.17,0.46,1.36,1.37,1.37c2.44-1.41-1.15-2.43-2.06-2.74c-4.39,4.2-11.72,1.54-15.07,6.16
			c-3.7-3.28-6.41,1.2-6.85,3.43c-0.9-0.24-1.08-1.21-2.06-1.37c0.5,1.79-5.28,5.96-6.17,2.06c-1.01,0.58-0.99,2.2-1.37,3.42
			c-2.08-1.02-7.59,4.46-7.53,0.69c-0.65,0.57-2.22,3.62-3.43,1.37c-1,0.82-0.66,2.99-3.43,2.05c0.11,0.81,1.25,0.58,2.06,0.69
			c-0.01,2.04-5.08-0.97-4.11,2.05c-0.67-0.01-0.53-0.83-0.69-1.37c-0.54,0.08-2.07,2.27-0.68,2.06c-0.54,1.57-2.4-1.18-3.43-1.37
			c1.28,6.07-4.97,8.38-6.16,15.76c-0.67-0.02-0.54-0.84-0.69-1.37c-1.9,4.76-3.08,3.97-4.11,8.22c-1.69,0.09-3.3,0.1-4.11-0.68
			c0.37,1.28,2.74,3.3-0.69,2.74c2.21,2.26-0.26,6.94-4.11,5.48c-1.33,0.06,1.44,2.93-2.05,2.05c4.1,1.6-2.68,2.39-0.69,6.17
			c-1.52,0.38-0.98-1.31-2.06-1.37c-2.29,1.03-0.61,3.43-2.74,3.43c0.45,0.69,1.58,0.7,1.37,2.05c-3.78,1.24-3.69,6.36-6.16,8.91
			c-0.93-0.21-0.57-1.72-0.69-2.74c-0.56,0.5-2.67,3.91,0,3.42c-1.2,3.771-3.66-1.24-2.05,3.43c-2.85-0.18-2.67,0.9-4.8,0
			c0.77,1.061,2.23,1.431,2.06,3.431c-3.97,2.06-4.92,10.49-8.91,10.27c1.47,2.57-1.32,2.08-0.69,5.49
			c-1.65,0.28-1.49-1.25-3.42-0.69c2.96,1.62,1.22,5.891-2.06,6.851c-1.97,5.26-4.2,15.8-9.59,19.87c1.43,2,4.21,2.64,4.79,5.489
			c1.08-1.699,7.33-1.979,5.49,0.681c5.65-2.41,7.05-3.891,13.01-6.17c4.5-6.99,15.49-9.69,17.82-15.07c2.81-1.65-0.34,1.54,0,3.43
			c1.06-1.56,1.43-1.3,3.43-0.689c-2.85-2.19,0.73-2.54-0.69-6.17c1.2,1.71,1.25,1.12,2.06-0.681c1.08,0.061,2.61-0.33,2.74,0.681
			c1.01-0.3-0.27-0.87,0-2.05c2.93-0.54,2.79,0.1,5.48-0.69c1.09,0.51-0.16,3.36,2.06,2.74c-2.5,3.25-3.4,10.859-7.54,10.279
			c3.15,4.16-2.16,7.181-2.06,12.341c-0.91,0-1.83,0-2.74,0c1.91,1.05-1.58,11.79-3.42,13.02c-0.09,0.05-1.28-0.93-1.38-0.689
			c-0.57,1.399,2.76,7-2.05,6.85c0.44,0.7,1.57,0.71,1.37,2.06c-0.61-0.529-1.55-0.739-2.74-0.689c-0.47,1.84,1.41,1.33,2.05,2.06
			c-1.94,1.641-0.67,2.521-0.68,5.48C176.79,476.94,175.59,477.1,175.24,476.41z M175.24,476.4c-0.01-0.36-0.02-0.69-0.03-0.971
			C175.1,475.87,175.12,476.18,175.24,476.4z M146.43,428.15c0.43-1.851,2.87-1.7,2.75-4.11c-0.98-0.16-1.16-1.12-2.06-1.37
			C146.47,425.04,145.17,427.17,146.43,428.15z"/>
		<path d="M447.93,600.14c0.08,1.15,2.92-0.779,2.74,2.061c-1.87-0.49-1.55,3.41-1.37,6.16c-1.649-0.28-1.49,1.26-3.43,0.689
			c0.5,0.641,1.25,1.04,2.06,1.37c-1.729,1.24-1.89,4.05-3.43,5.48c3.4,0.18,1.2-2.061,3.43-2.051c0.11,2.4-2.41,2.15-3.43,3.42
			c0.3,0.61,0.6,1.23,1.37,1.37c-3.25,3.99-9.76,4.551-10.96-0.68c-1,0.82-0.66,2.99-3.43,2.05c0.39-1.42,1.069-1.45,2.06-0.68
			c0-0.69,0-1.37,0-2.061c-2.46,0.25-2.51,1.841-4.8,0.69c0.22-3.12-2.34-4.72-6.17-6.17c1.989-2.06-1.19-2.84-1.37-4.8
			c2.2-1.38,2.149,2.72,2.74,0.689c-0.21,2.13,2.88,2.681,3.43,1.37c2.36,0.5,0.46,2.061,0,3.431c0.49,2.14,5.62,2.1,3.43,4.789
			c1.22-0.38,2.84-0.35,3.42-1.369c1.5,0.1,1.471,1.729,1.37,3.43c1.09-1.44,3.9-1.811,2.061,0.68c4.859,0.23,2.85-7.47,6.17-6.85
			c-0.021-0.67-0.84-0.53-1.38-0.68c2.489-20.771-5.07-43.091-9.591-58.25c-0.449-1.511-3.76-5.7-1.369-6.16
			c-4.511-6.25-6.091-17.801-6.851-23.99c-4.71-5.26-0.189-13.91-5.479-15.76c-0.25-1.16,0.529-1.29,1.369-1.37
			c-2.97-0.891-2.85-4.61-4.109-5.48c0.58-1.02,2.2-0.989,3.42-1.37c-1.87-0.859-3.5-1.979-4.79-3.43
			c-1.91,1.51-4.08,0.72-5.49,1.38c-3.08-1.83,4.71-2.04,1.37-4.12c-0.11-1.479,2.44-0.31,3.43-0.68
			c-0.439,0.7-1.569,0.71-1.369,2.05c2.199,0.61,1.42-1.77,2.739-2.05c-0.5-2.53-2.06,0.29-3.42-1.37c0.5-5.13,0.66-6.29-0.689-8.91
			c3.47-2.72,1.3-3.83,5.479-4.8c-0.729-0.63-0.21-2.52-2.05-2.05c1.58-0.93,3.05-1.97,5.479-2.061c-0.479,2.11-0.479,1.32,0,3.431
			c-0.689,0-1.369,0-2.06,0c1.64,1.33,0.63,1.96,2.74,3.43c-2.76,0.25-1.34,0.811-0.681,4.11c-0.689,0-1.369,0-2.06,0
			c-0.05,1.08,0.33,2.609-0.68,2.739c0.67,0.7,1.35,1.381,2.05,2.051c-0.16,1.77-1.18-0.94-2.74,0c-0.22,1.39,4.92,2.319,1.37,2.739
			c0.11,1.271,2.32,0.421,2.74,1.37c-1.34,1.29-0.391,3.311,2.06,2.74c-0.16,0.99-2.05,0.24-2.06,1.38
			c-1.26-0.8-0.47-3.64-3.42-2.75c2.25,2.29,1.149,4.99,5.479,5.49c-0.8,4.39,3.37,5.03,4.8,10.27c-1.869-0.489-1.38,1.37-2.75,1.37
			c-0.329,2.63,3.65,3.011,2.061,4.801c1.31,0.92,2.45-0.2,3.43,2.06c-0.67,2.27-1.359-0.771-2.06-0.69
			c-2.38,1.771,1.72,2.79,2.74,3.431c0.6,2.2-1.78,1.42-2.051,2.739c0.45,2.051,1.46-0.659,2.74,0c-3.53,3.04,2.54,3.461-1.37,5.48
			c0.16,1.21,1.181,1.56,2.74,1.37c-0.12,3.13-0.33,3.46,0,7.54c0.69-0.45,0.71-1.58,2.05-1.37c-0.06,0.97-0.109,1.94,0.69,2.05
			c-1.17,0.43-1.13,2.07-2.061,2.74c3.971-0.4-0.7,3.45,3.431,3.43c-1.44,1.521,0.72,3.3,0,6.17c0.17,0.74,1.359,0.46,1.369,1.37
			c0.671-0.02,0.53-0.84,0.681-1.37c1.76-2.489-0.57,5.04,0.689,2.051c2.58,1.75-2.89,1.159-2.06,3.43
			c0.22,1.45,2.12-0.98,2.74-1.37c2.58,0.54-1.801,4.24,1.37,3.42c-0.181,1.41-2.551,0.65-2.74,2.06
			c0.59-0.13,0.649,0.271,0.689,0.69c0.67-0.02,0.53-0.84,0.681-1.38c4.05,4.81,2.529,15.38,7.54,20.56
			c-0.591,2.03-1.021-1.59-2.74-0.68c0.6,1,1.03,2.17,2.74,2.05c-1.32,3.971,0.979,5.3,0,10.96c-0.91,0-1.83,0-2.74,0
			c0,0.69,0,1.37,0,2.061c1.17,0.029,1.78-0.511,2.06-1.37C450.02,595.93,447.14,597.92,447.93,600.14z"/>
		<path d="M441.07,339.76c3.93,3.78-3.49,6.92,0,10.28c-0.45,0.92-1.46,1.28-2.74,1.37c0.11,0.8,1.25,0.58,2.06,0.69
			c-3.59,0.33,0.19,3.8-2.739,4.79c0.189,1.44,1.83-0.99,2.739,0.69c-0.85,0.98-2.359,1.3-4.109,1.37c1.84,2.25-1.62,1.64,0,4.11
			c-2.261-0.8-4.87,1.12-7.54,0.68c2.74-3.73-4.721-0.01-2.061-3.42c-2.1-0.51-1.31,1.88-3.42,1.37c0.98-3.72-3.52-1.96-3.43-4.8
			c0.55,0.36,1.12,0.72,2.06,0.69c-1.17-2.03-3.58-2.82-6.17-3.43c3.29-2.68-3.42-5.19,0-4.79c-0.09-2.65-2.67-2.81-5.479-2.75
			c-0.95,2.78,1.49,2.17,1.37,4.12c-1.58,1.36-0.761-0.18-2.061-0.69c1.53,2.39,0.84,3.75,0,6.85c-1.1,0.2-1.17-0.64-2.05-0.68
			c2.16,2.14-1.16,2.31-0.69,4.79c-2.04-0.98-2.329,0.56-4.109-0.68c-0.32,1.46,0.979,1.3,2.06,1.37c0.86,4.29-4.05,2.81-6.17,4.11
			c1.18,1.94,0.91,3.18-0.68,5.48c3.16,1.63,1.899,7.69,6.16,8.22c-1.33,3.11-1.88,0.35-2.051,4.12c3.561-1.08,1.681-2.4,4.11,0.68
			c-0.399,0.24-1.24,2.97-0.33,2.36c-2.84,2.45-7.72,0.01-5.149-5.1c-0.301-1.08-2.16-0.59-1.37-2.74
			c-0.55,0.36-1.12,0.71-2.061,0.68c-0.01-1,2.891-2.17,0-2.05c-0.85-2.22,2.221-0.52,1.37-2.74c-0.63-0.77-1.27-0.22-3.42-0.69
			c0.98-2.04-2.41-4.17,0.68-4.11c-0.359-0.55-0.71-1.11-0.68-2.05c-1.27,0.1-0.42,2.32-1.38,2.74c-0.63-0.51-1.03-1.25-1.37-2.06
			c-0.25,2.77-0.99,1.52-3.42,0c-0.03,1.17,0.51,1.78,1.37,2.06c-1.851,2.19-2.66-1.91-4.8,0c0.5-1.87-1.36-1.38-1.37-2.74
			c-2.58-0.53-3.271,0.83-5.48,0.68c-0.29-1.14-2.609-5.8-2.739-2.74c0.13-2.18-1.511-3.09-2.061-6.17
			c-1.46-0.32-1.3,0.98-1.37,2.06c-1.17-0.38-1.26-6.26,0-6.17c-1.28-1-3.25-1.31-2.74-4.11c1.83,0,1.75-1.91,2.74-2.74
			c-0.37-2.11-3.81-5.52-0.68-6.17c-0.39-0.98-1.07-1.67-2.061-2.05c-1.409,1.78-2.279,4.11-5.479,4.11
			c0.11,3.57-3.98,5.46-5.48,10.28c-1.71-0.11-0.199-2.32,0-2.74c-0.689,0-1.369,0-2.06,0c1.57,6.06-8.58,9.27-8.22,10.96
			c2.21,0.73-1.94,4.33-2.74,2.06c-1.99,5.91-8.98,2.64-10.28,8.9c-4.1-1.02-8.29,2.95-13.02,0c1.09-2.33-0.08-4.15-2.74-2.74
			c0.2-2.32,0.83-4.2,3.43-4.11c-0.3,0.84-0.88,1.41-2.06,1.37c0.2,1.6,1.859,1.6,2.06,0c0.79,0.22,2.36,2.99,0.681,3.43
			c0.909,0.23,2.25,0.52,4.109,1.37c0.78-0.13,0.391-0.69,0-0.69c7.561-0.43,9.811-7.05,17.82-8.91c-0.5-3.61,4.61-7.16,8.22-8.9
			c1.33-4.38,3.41-8.01,7.54-9.6c0.391-4.32,2.3-3.21,2.74-6.85c0.8,0.11,0.58,1.25,0.689,2.06c2-0.58-0.409-2.21,0-3.43
			c3.271,1.11,5.12-6.2,6.16-7.54c2.54,0.49,2.94-1.17,5.49-0.68c-0.33,1.46,0.97,1.3,2.05,1.37c1.101,2.75-1.76,5.01-0.68,5.48
			c0.11,1.49-2.44,0.31-3.43,0.69c2.09,2.68-3.101,5.25,0,6.16c0.109,1.49-2.431,0.31-3.431,0.69c0.101,1.13,4.71,1.13,4.801,0
			c1.439,3.12-3.11,3.79-2.061,7.54c1.11,0.19,1.18-0.65,2.061-0.69c1.649-1.5-1.07,1.3-1.37,2.06c2.51,4.24,3.64,8.15,4.109,13.02
			c3.04-1.62,6.08,1.93,8.221,3.42c2.09-1.71,2.76-0.58,6.17-0.68c0.47-2.28,2.189-3.3,4.8-3.43c-1.42-1.92,2.229-3.34,2.05-6.17
			c0.61,0.31,1.23,0.6,1.37,1.37c0.7-0.44,0.71-1.57,2.06-1.37c-3.26-0.62-1.02-3.51,0.681-4.79c-2.29-3.62,5.51-15.2,4.8-23.3
			c1.22-0.83,3.99-0.13,4.8-1.37c1.021,1.03,2.061,2.05,3.42,2.74c0.65,6.12-0.41,8.94,2.061,13.7c-1.521,0.38-0.98-1.3-2.061-1.37
			c-2.06,3.01,3.95,3.8,4.8,6.17c-0.8,0.11-1.22-0.15-1.37-0.68c-1.409,0.19-1.369,1.83-2.06,2.74c0.13,0.55,0.69,0.68,0.69,1.37
			c1.02-0.3-0.271-0.88,0-2.06c0.609,0.53,1.55,0.74,2.739,0.69c-3.229,1.75,1.48,2.2,3.42,2.74c-1.899,4.86,2.061,4.38,4.801,6.16
			c2.22,0.12,3.59-4.13,4.109,0c0.471-1.87,0.15-5.73,0-8.22c1.761,1.82,1.101-1.2,2.061-2.05c-3.681-1.25,0.41-0.72,0.68-4.8
			c-0.64,0.5-1.04,1.25-1.37,2.05c-1.14-2.23-0.439-4.65,0.69-6.16c-1.021-0.43-1.84-0.35,0-2.06c0.21-1.58-1.98-0.76-2.061-2.05
			c2.931-5.53-1.66-7.31,2.061-13.71c-0.13-0.55-0.69-0.68-0.69-1.37c-4,3.06,1.54-4.56-2.74-4.79c-0.01-1.01,2.891-2.18,0-2.06
			c0.391-1.67,0.591-3.52,2.74-3.43c-0.45-2.05-1.46,0.66-2.74,0c1.16-4.51-0.08-9.92,0.69-15.07c1.19,0.62,1.77,2.4,0.68,3.43
			c2.88,0.25,0.49-2.24,0.69-3.43c1.609-0.22,2.57-1.08,4.79-0.69c0,2.52,0,5.03,0,7.54c-0.8-0.11-0.57-1.25-0.681-2.05
			c-0.64,0.5-1.039,1.24-1.369,2.05c4.649,1.42-0.99,1.09,2.739,3.43c-0.189,1.41-2.55,0.64-2.739,2.05
			c0.449,2.06,1.46-0.65,2.739,0c-0.06,2.23-2.359,2.21-3.43,3.43c0.13,0.78,0.69,0.38,0.69,0c0.93,0.21,0.569,1.71,0.68,2.74
			c1.27-0.1,0.42-2.32,1.37-2.74c1.689,4.04,1.13,9.02,2.74,13.7C438.98,329.52,444.05,338.89,441.07,339.76z"/>
		<path d="M438.33,287.69c1.05,2.18,0.24,3.01,0,5.48c-1.14,0-2.28,0-3.42,0c0.21,0.93,1.71,0.57,2.74,0.68
			c0.6,1.41-3.49,1.37-1.37,2.06c-1.57,1.94-2.95,0.11-4.11,2.74c-0.54-0.84,0.96-7.33-0.689-11.65c0.88-1.18,3.26-0.85,3.43-2.74
			c-1.17-0.25-1.29,0.53-1.37,1.37c-1.17,0.14-1.78-1.17-2.06,0c-1.29-0.06,0.17-2.93,2.06-2.05c-0.32-1.75-2.96-1.15-3.43-2.75
			c0.699-0.43,1.439-5.81-1.37-6.16c-0.311-2.18,3.62,1.97,5.479,2.05c-0.06,1.6-3.16,2.88,0.69,2.74
			c-0.3,0.85-0.88,1.41-2.061,1.37c0.67,0.71,1.36,1.39,2.061,2.06c-0.45-0.76,0.109-4.13,2.74-2.74c-2.12,1.75-0.54,3.42,0,6.17
			c-1.561-0.2-2.58,0.16-2.74,1.37C435.01,289.22,436.63,286.8,438.33,287.69z"/>
		<path d="M431.48,268.5c-0.171,1.81-1.41,2.25,1.369,2.06c-0.29,1.07-2.149,0.58-1.369,2.74c-0.61-0.54-1.551-0.74-2.74-0.69
			c0.819-3.7-2.12-3.63-0.681-6.17c1.75-0.02,0.83,0.51,0.681,1.38C429.41,269.74,430.57,266.82,431.48,268.5z"/>
		<path d="M423.26,598.77c0.601,2.2-1.779,1.421-2.06,2.74c-2.67-0.62,2.27-2.52,0-2.74C421.5,597.75,422.08,599.04,423.26,598.77z"
			/>
		<path d="M418.46,591.92c0.12,3.08,4.34,2.061,4.11,5.48c-1.21-0.61-2-1.65-3.42-2.061c-0.03,1.18,0.51,1.78,1.369,2.061
			c-5.029,4.159-6.609-5.271-7.539-9.591c-3.551,3.54-2.171,8.181-6.851,10.96c0.89,1.99,0.55,3.94-1.37,4.801
			c0,1.83,2.16,1.489,2.05,3.42c-3.189,0.43-2.52,3.66-2.05,6.17c-2.729-0.4-1.99,6.63-2.74,8.91
			c-2.899,0.51-3.649,1.14-2.739,4.109c-1.811-0.02-4.3,0.641-3.431-2.06c-1.51,0.09-0.29,2.91-0.68,4.12
			c-2.93,2.859-7.86,1.52-8.91,2.74c-1.71-1.04-4.5-0.98-4.8-3.431c1.21,1.29,2.12-0.939,2.74,1.37c1.42-0.17,0.189-3.01,1.37-3.43
			c6.51,6.95,9.81-5.21,12.34-8.9c-2.17-10.07,7.34-20.04,6.85-30.84c0.61-0.53,1.55-0.73,2.74-0.68
			c-2.27-2.86-1.26-7.561,1.37-10.28c-2.66,0.12-0.59-3.78,0.68-5.48c1.23-0.01,3.99,1.841,4.8,0c0.7,0.44,0.71,1.57,2.061,1.37
			c-1.16,2.431,2.32,5.521-0.69,5.48c1.521,0.99,1.811,3.21,2.061,5.479c-1.23-0.09-1.45,0.841-2.74,0.69
			c0.11,0.8,1.25,0.57,2.05,0.68c-0.62,1.21-1.53,2.12-2.74,2.74c0.67,0.93,1.83,1.37,2.74,2.06c2.05-0.449-0.649-1.47,0-2.739
			c2.18,0.199,1.37,3.62,0,4.109c1.87,0.16,2.91,1.95,4.11,3.42C420.61,594.63,420.18,591.01,418.46,591.92z"/>
		<path d="M417.76,467.9c-2.76-0.45-0.6-2.65-2.72-2.74c2.99-1.33-2.56-4.13,2.05-4.8c-0.45-0.92-1.46-1.28-2.74-1.37
			c0.45-1.21,0.811-4.74,0-4.11c0.17-1.2-2.859-7.91,0-6.85c0-2.29-2.229-2.34-2.05-4.8c0.83-1.601,1.41-5.511,2.74-2.74
			c2.68-1.21-1.82-4.45-2.74-2.061c-1.609-2.8-0.75-4.64-1.38-7.529c1.811,0.199,1.771-1.44,2.061-2.75
			c-2.58,4.71-3.86-3.881-1.37-5.48c-0.21-0.93-1.721-0.57-2.74-0.68c0.07-1.76,0.39-3.271,1.37-4.11
			c-0.36-1.07-4.91-3.51-1.37-4.12c-0.11-0.8-1.25-0.569-2.061-0.68c0.11-2.97,1.101-4.74-1.369-6.17c1.649-1.44,2.02,1.51,4.8,0
			c-1.601-1.24-2.7-1.5-5.48-2.74c-0.6-2.2,2.26-0.939,2.05-2.74c-0.829-0.989-2.609-1.04-3.42-2.05
			c2.551-1.42-2.67-3.48,0.681-3.43c-0.65-1.36-4.46-3.05-1.37-4.11c-0.11-0.8-1.25-0.58-2.05-0.69c0.399-2.18-1.29-2.12,0-3.42
			c2.43,1.02,4.069,3.31,5.479,0.68c2.25,1.85-1.91,1.93,0,4.11c3.38,1.08-0.189,3.36,4.11,2.06c-0.92,1.37-1.601,2.97-3.431,3.42
			c3.36,0.17,3.341,3.25,5.49,4.12c0.37,1.52-1.31,0.97-1.38,2.05c-0.189,1.11,0.65,1.18,0.69,2.061c1.199-1.7,1.25-1.12,2.06,0.68
			c0.11,1.72-1.06,2.149-2.06,2.74c3.08,0.689,2.989,3.06,2.06,6.17c0.21,1.609,3.24,0.41,2.74,2.739
			c-3.351,1.311,5,10.2,2.05,17.131c-0.87-1.19-2.31-1.79-2.05-4.11c-3.46,0.89,0.56,4.16-2.061,2.74
			c-0.189,1.109,0.65,1.18,0.69,2.06c0.84-0.3,1.4-0.88,1.37-2.06c1.32,0.96,1.31,3.26,3.42,3.43c-0.1,1.7-2.32,0.2-2.74,0
			c3.72,2.48-0.229,4.37,3.43,6.16c-0.39,4.54-0.149,15.52,2.74,21.93c-1.64,1.88-1.359,4.141-0.689,6.851
			c-2.2-1.11-3.71-0.32-6.16,0C415.91,470.5,413.72,467.9,417.76,467.9z"/>
		<path d="M409.55,299.33c7.38,32.87-42.2,39.49-47.27,10.97c-2.78-15.63,6.18-25.63,18.5-28.1
			C394.44,279.46,406.77,286.92,409.55,299.33z"/>
		<path d="M403.39,540.53c2.521,16.729-10.83,29-25.35,30.149c-2.43-0.989-2.41-2.38-5.49-1.37c-0.2-1.399-1.85-1.35-2.05-2.739
			c-0.83,0.27,1.33,5.31-2.74,4.109c0.17,0.74,1.36,0.46,1.37,1.37c1.07-0.3,0.58-2.16,2.74-1.37c0.03,1.75-0.51,0.83-1.37,0.681
			c0.95,3.189,3.56,7.899-0.69,8.909c2.011,0.841,4.12,0.32,0.69,2.061c-0.21,1.39,1.98-0.14,2.05-0.69
			c1.96,1.351-1.59,2.92-2.74,3.431c0.601,1.989,1.03,0.77,2.74,0.68c-1.09,0.51,0.16,3.36-2.05,2.74c0.95,1.1,3.38,0.729,4.11,2.06
			c-0.42,0.61-0.83,1.22,0,1.37c-1.17,0.64-1.38,2.79-2.74,1.37c-0.32,1.46,0.979,1.3,2.05,1.37c-1.15,1.58,1.09,4.13-1.37,2.74
			c-0.649,2.479,2.96,0.699,3.431,2.06c0.21,1.8-1.431,1.76-2.74,2.05c0.529,0.61,0.74,1.55,0.68,2.74c0.64-0.5,1.04-1.24,1.37-2.05
			c0.57,2.859,3.32,3.54,2.75,7.53c-2.72-0.881-1.4,2.26-4.12,1.38c0.51-3.25-2.14-3.351-2.05-6.17c-1.18,3.06-2.63-1.591-1.37-2.74
			c0.66,0.02,0.53,0.84,0.68,1.37c2.061-0.45-0.649-1.471,0-2.74c-1.29,0.51-0.47,2.04-2.05,0.68c-0.11-1.99,2.78-2.08,3.42-1.37
			c-0.729-1.97-2.069-2.27-4.109-1.37c0-0.909,0-1.829,0-2.739c1.21,0.6,2.119,2.29,2.739,0c-0.08-1.511-2.899-0.29-4.109-0.69
			c-1.32-2.03,0.92-3.38-1.37-4.109c-1.87,0.63,0.96,2.149,0,4.109c-1.42-0.38-1.45-1.06-0.681-2.05
			c-0.609,0.53-1.55,0.74-2.739,0.68c1.47,2.55,0.8,1.271-0.69,3.431c2.11,0.51,1.32-1.881,3.43-1.37
			c-1.27,3.56-3.18,10.2-8.229,9.59c1.24,0.6,2.15,1.51,2.74,2.74c-1.351,1.43-3.73,1.35-2.05,4.12
			c-1.44,0.84-2.671,1.89-4.11,2.739c1.149,0.65,2.02,2.15,0.68,3.42c-1.26-0.1-0.42-2.319-1.37-2.739
			c-1.89-0.29-0.64,2.56-2.05,2.739c0.3,1.021,0.87-0.27,2.05,0c-0.47,0.561-1.06,1.88,0,2.061c-1.22,1.39-2.529,0.189-1.37,2.74
			c-4.68-1.21-4.14,2.14-4.109,5.479c-2.65,0.55-3.15,3.24-5.48,4.11c-2.2,0.6-1.42-1.78-2.739-2.05
			c0.09,2.39-2.601,1.579-3.431,4.109c-0.58-2.899-2.35-0.34-3.42-2.74c-0.81,0.11-0.58,1.25-0.689,2.051
			c-4.311-0.94-5.5-5-8.91-6.851c-0.28-3.96-2.521-10.3-4.11-15.069c0.78-2.141,2.94-0.171,5.48-1.37c-0.07,1.699-1.28,2.12,0,3.42
			c2.569-0.54,0.05-2.4,1.369-3.42c1.49-0.12,0.311,2.43,0.69,3.42c-0.61,0.529-1.55,0.739-2.74,0.689
			c0.511,1.29,2.04,0.471,0.681,2.05c0.189,0.62,2.56,2.301,2.739,0.69c1.4,1.88-0.1,6.71-2.739,6.85
			c0.08,1.29,2.27,0.471,2.06,2.061c1.49,0.11,0.31-2.44,0.68-3.43c1.16,1.71,2.641,2.689,4.12,5.479c-0.689,0-1.37,0-2.06,0
			c-0.42,2.2,2.47,0.94,0.689,2.74c0.551-0.59,1.87-0.41,2.051-1.37c4.21,4.08,11.29-3.16,14.39-8.22
			c8.51-13.91,14.979-31.221,17.13-51.391c1.4-0.39,1.34-2.06,2.74-0.689c-0.09-2.19-1.55-3.01-4.11-2.74
			c1.2-2.63-3.99-4.02-5.479-6.17c0.37-0.99-0.801-3.54,0.68-3.42c-6.57-12.9,1.44-36.05,19.19-37c1.02-0.3-0.271-0.88,0-2.061
			c0.8,0.11,1.22-0.149,1.369-0.68c5.24,0.23,7.091,3.87,12.33,4.11C395.35,527.06,402.07,531.78,403.39,540.53z M325.96,622.07
			c-0.94-1.561,1.771-2.58,0-2.74c-0.15,0.53-0.57,0.79-1.37,0.68c-0.91-0.01-0.63-1.2-1.37-1.37
			C321.78,620.17,323.67,622.21,325.96,622.07z"/>
		<path d="M403.39,493.93c0.94,1.32-3.569-0.569-5.479,0.69c1.229-2.45-1.91-3.93-2.74-2.061c-0.67-1.84-2.37-2.659-2.75-4.79
			c0.92,0,1.83,0,2.75,0c-1.83,2.36,1.75-0.17,3.42,1.37c0.19,1.101-0.649,1.181-0.68,2.051
			C401.72,490.12,400.05,494.54,403.39,493.93z"/>
		<path d="M391.74,485.03c1.7,2.62-5.78,0.68-6.17,0.68c0.5-0.64,1.25-1.04,2.06-1.37c-2.85,0.54-3.42-3.39-6.17-4.8
			c0.3-0.84,0.88-1.4,2.06-1.37c-4.289-2.02-5.409-8.25-6.17-10.27c-2.739-0.23-1.449,3.58-2.739,4.79
			c-2.221-0.4-1.28-1.44-2.061-2.051c-2.14,1.74,1.76,3.221,2.061,4.79c-2.891-0.149-3.061,2.431-5.48,2.74
			c1.59,0.93,2.13,2.9,4.11,3.43c-0.84,0.98-2.62,1.561-3.431,0.69c-0.21,2.79,1.431,0.36,2.74,0.68c0.28,1.65-1.25,1.49-0.68,3.431
			c-3.061-1.91,0.05,2.25-3.43,1.369c-0.08,1.23,0.84,1.44,0.689,2.74c-2.399,1.11-3.11,2.391-6.17,1.37
			c-0.25-1.17,0.54-1.29,1.37-1.37c-1.561-2.41-3.55,2.59-5.48,0c0.67-1.92,1.83,0.99,2.74-0.689c-0.62-2.221-4.21,0.01-4.109-4.11
			c-0.7,0.45-0.711,1.58-2.061,1.37c0.79-2.84-1.439-2.67-1.37-4.79c0.55,0.36,1.12,0.71,2.061,0.68
			c-2.25-1.75-0.95-3.029-4.11-4.109c3.32-2.04-2.55-1.94,1.37-4.11c-0.13-0.56-0.69-0.68-0.69-1.37c-1.71-2.229-4.46,0.19-6.85,0
			c2.33,1.58,0.4,8.47-2.74,8.91c0.521,3.94-2.34,4.51-1.37,8.9c-3.02-0.96-1.859,2.26-2.06,4.109c-3.43,0.32-0.86,3.08-4.11,2.75
			c0.37,0.55,0.72,1.11,0.69,2.05c-0.75-0.17-0.471-1.359-1.37-1.369c-2.82,1.279,3.229,3.26-1.37,2.739
			c0.11,0.8,1.25,0.58,2.05,0.69c-0.39,0.64-1.899,1.03-0.68,1.37c-2.07,0.67-2.79,2.7-4.8,3.42c1.84,0.79,1.01,2.689-0.681,1.37
			c-0.029,1.18,0.5,1.779,1.37,2.06c-2.84,1.5-3.85,4.83-8.229,4.8c0.58,0.79,0.91,1.83,0.689,3.42
			c-4.64,2.23-7.08-1.84-11.649-2.05c0.17-1.21,1.18-1.569,2.739-1.37c-0.39-2.26-2.59-0.989-4.109-0.689
			c0.39-2.221-0.21-3.45-1.37-4.11c-0.66-2.49,3.08-0.58,2.74-2.74c-1.04-1.02-3.011-1.109-4.8-1.37c0.42-0.609,0.83-1.229,0-1.369
			c0.31-1,0.61,0.069,1.37,0c-1.99-2.33,1.03-2.601-1.37-5.48c-0.55,0.36-1.11,0.71-2.05,0.68c0.42-0.609,0.83-1.22,0-1.369
			c0.38-1.421,1.07-1.45,2.05-0.681c-0.27-1.79-2.04-2.069-2.05-4.12c1.97-0.08,1.19-2.92,3.419-2.739
			c-0.22-0.79-2.99-2.36-3.419-0.681c-0.41,1.42-0.47-4.55,2.05-3.43c-1.89-1.86-0.49-3.44-3.42-3.42c0.1-1.271,2.32-0.42,2.74-1.37
			c-0.45-2.06-1.47,0.65-2.74,0c-1.28-3.04,4.61-4.9,1.37-5.49c-0.12-1.479,2.43-0.31,3.419-0.68c-0.479-2.11-0.479-1.32,0-3.43
			c-1.88,2.5-2.22,2.31-5.479,3.43c0.5-2.7,2.51-3.89,3.43-6.17c-2.11-0.51-0.84,2.359-3.43,1.37c0.17-4.721,0.71-4.33,2.06-7.53
			c-0.19-1.42-3.04-0.17-2.74-2.06c-0.99,2.609-3.43,3.76-4.11,6.17c-0.67-0.021-0.54-0.841-0.69-1.37
			c-0.7,0.439-0.71,1.569-2.06,1.37c-0.53,1.529,3.43,2.439,0,2.739c-0.27,1.641,3.13-0.38,2.06,2.051
			c-2.63,1.05-6.58,4.369-5.48,6.85c-0.83,1-3,0.66-2.06,3.43c-1.21-1.71-0.87-0.739-3.42-0.68c1.68,0.91-0.76,2.54,0.68,2.74
			c-0.44,1.16-1.57,0.43-1.37-0.69c-1.8,5.021-6.74,7.51-7.54,11.65c-0.74-0.17-0.46-1.36-1.37-1.37c-1.11-0.49-1.11,3.229,0,2.74
			c-0.44,1.159-1.57,0.43-1.37-0.69c-1.75,0.08-1.36,2.3-1.37,4.12c-3.27,0.15-2.46,4.39-6.16,4.11c0.11,4.909-4.88,4.72-6.17,8.22
			c-2.51-0.15-2.63-0.94-4.8,0c0,0.91,0,1.83,0,2.74c-2.41-0.29-9.26,2.359-10.96-1.37c-0.96,0.24-0.06,1.21,0.69,1.37
			c-1.67,2.18-5.54-1.69-3.43-3.431c8.11,4.141,14.21-3.42,19.18-8.22c0.56,0.59,1.88,0.41,2.06,1.37c1.77-0.16-0.94-1.18,0-2.74
			c4.64,1.24,3.93-5.51,7.54-9.59c1.3-1.47,4.89-4.02,5.48-4.8c5.75-7.5,10.54-15.07,16.44-21.92c1.09-4.65,4.34-11.271,8.91-12.34
			c-0.11-0.801-1.25-0.58-2.05-0.681c1.28-2.08,0.54-1.93,1.37-4.109c2.91-0.41,4.53,0.489,6.85,0.68c-0.19,2.8-0.6,4.75,0.68,5.479
			c-1.26,6.08-2.25,13.381,1.37,20.561c-3.5,0.08-1.37,2.71-0.68,4.11c-0.55-0.36-1.11-0.711-2.061-0.69
			c0.29,1.54,1.471,2.19,2.061,3.43c-0.47,0.92-1.83-0.34-3.43,0.69c0.02,2.04,3.24,0.88,4.11,2.05c0,1.37,0,2.74,0,4.11
			c-1.42-0.4-2.21-1.44-3.42-2.051c0.39,1.431,1.7,1.95,1.37,4.11c1.32-1.27,0.54-1.26,2.74-0.689
			c0.05,3.409-2.021,0.449-3.431,2.06c2.91,1.06,3.49,2.36,1.37,5.48c0.13,0.56,0.69,0.68,0.69,1.369
			c0.92-0.859,1.34-2.06,2.74-0.68c-2.32,1.2,0.43,4.4-2.74,5.48c0.1,1.5,1.729,1.47,3.43,1.369c0.98-2.029,0.521,1.591-1.38,0.681
			c0.36,3.09,5.63,4.859,3.43,8.229c0.601,1.03,1.03-0.189,2.74,0.681c15.811-16.471,21.15-42.79,30.15-64.41
			c2.62-0.49,3.3-0.45,5.479,0.689c0.09,1.23-0.84,1.44-0.68,2.74c3.58-3.07-0.84,7.33,4.79,9.59c-0.96,1.4-2.36-0.67-4.11,0.69
			c1.87,1.939,0,4.02-2.05,4.109c1.17,0.591,5.01,4.48,4.79,2.051c1.97,2.699,0.75,4.88,2.06,6.85c-0.1,1.71-2.319,0.21-2.739,0
			c-0.33,2.16,3.14,0.521,3.42,2.061c1.069,2.439-2.32,0.409-2.05,2.06c0.069,1.67,2.26,0.14,2.05-0.69c1.26,1.17,1.84,3.44,0,4.11
			c1.56,1.96,2.649,0.41,5.489,1.37c-0.09,2.42-1,0.189-2.739,1.37c1.88,2.14,4.63-0.61,2.739-2.74c1.87-0.5,1.381,1.36,2.74,1.37
			c-4.14-3.82,1.11-8.46-0.689-13.021c0.39-1.42,1.069-1.449,2.06-0.68c0.08-1.229-0.84-1.45-0.689-2.74
			c1.939,0.561,1.779-0.97,3.43-0.689c-0.18-1.42-3.01-0.19-3.43-1.37c2.489-3.29,0.64-6.97,2.06-14.39
			c1.5-0.78,2.8-1.771,5.48-1.37c0.199,4.359,0.85,1.989,2.06,6.17c-0.12,0.8-1.25,0.58-2.06,0.68c0.5,2.24,3.22-0.17,1.369,2.75
			c0.19,1.43,1.83-1,2.74,0.68c-0.189,2.091-2.609,1.96-3.42,3.431c1.51,1.45,6.021-0.09,5.48,3.42c-0.66-1.17-2.16-1.5-3.431-2.05
			c-1.06,1.479,2.59,5.64,4.8,4.109c0.61,2.21-2.239,0.96-2.739,2.05c0.989,1.061,2.67,1.44,4.79,1.37
			C385.71,478.08,388.29,485.9,391.74,485.03z M347.2,467.9c0.49,0.399,4.84,0.81,4.8-1.37c-1.84,0.67-5.72-1.521-4.11,0
			c0.41,0.029,0.811,0.1,0.681,0.68C348.04,467.37,347.22,467.23,347.2,467.9z"/>
		<path d="M388.31,144.48c0.29,2.34-2.05,2.06-2.739,3.42c-0.86-0.17-0.69-1.36,0-1.37c0.27-1.64-3.12,0.38-2.051-2.05
			C386.02,144.63,386.15,145.42,388.31,144.48z"/>
		<path d="M382.83,621.38c-0.19,1.41-1.83,1.37-2.74,2.061c0.38,0.989,1.07,1.67,2.061,2.05c-0.45,0.92-1.471,1.279-2.74,1.38
			c-0.71-3.41-3.12-5.11-4.12-8.23c1.8,0.49,2.1,2.471,4.12,2.74c0.75-1.06-1.79-2.78,2.05-1.37c-0.63-1.189-2.14-1.51-4.11-1.37
			c-0.06-1.87,1.141-1.38,0-2.739c-2.09-0.49-2.5,0.699-4.109,0.689c-0.771-2.16-0.061-1.55,0-4.109c1.37,0,2.74,0,4.109,0
			c0.551,0.449,0.891,4.46,2.061,2.05C379.19,616.32,381.85,618.78,382.83,621.38z"/>
		<path d="M381.46,146.53c1.01,0.36,1.73,1.02,2.74,1.37c-7.8,5.9-16.74,10.67-23.29,17.82c-1.17,0.25-1.3-0.53-1.38-1.37
			c-0.28,3.62-8.23,6.76-10.96,6.17c0.09,2.75-5.82,7.77-9.59,4.79c9.979-5.96,21.909-12.63,31.52-19.87
			c3.38-2.55,5.54-5.82,8.91-7.54C379.5,147.86,383.26,150.18,381.46,146.53z"/>
		<path d="M336.92,177.37c-2.57-2.41,4-2.39,3.43,0.68c-1.17-0.03-1.779,0.51-2.06,1.37c-0.93-0.21-0.57-1.71-0.68-2.74
			C337.03,176.56,336.96,176.95,336.92,177.37z"/>
		<path d="M332.81,178.05c1.891,0.39,3.841,0.73,3.431,3.43c-0.67-0.02-0.53-0.84-0.69-1.37c-1.41,1.36-0.64,1.36-2.05,0
			c-1.42,0.37-0.17,3.24-2.06,1.37c-5.921,11.67-19.29,15.88-26.041,26.72c-2.4-0.92-2.09-1.94-2.74-3.42
			c3.4-5.57,8.689-5.79,12.34-11.65c0.84,0.76,1.4,0.59,1.37-0.69c1.16-0.25,1.29,0.54,1.37,1.37c1.88-0.61-1.601-2.78,2.05-2.05
			c-0.61-2.6,4.33-7.48,7.54-6.17C323.96,181.9,332.62,182.31,332.81,178.05z"/>
		<path d="M322.53,598.09c0.17,1.2,1.18,1.561,2.739,1.37c-1.689,4.54-1.71,5.54-1.369,10.271c-1.971,1.05-2.141-0.021-4.79,0.689
			c-1.19-4.3,0.92-14.57-2.061-19.189c2.83,0.22,0.47-3.98,0-4.79c0.101-1.71,2.32-0.2,2.74,0c-1.63-1.75-2.79-3.141-0.68-5.48
			c-1.5-0.13-2.181,0.56-2.061,2.05c-1.319-1.74,1.69-5.39-0.68-6.85c1.29-0.51,0.47-2.05,2.05-0.69c-1.39-4.25-6.8-3.87-7.54,0.69
			c2.19,0.05-0.1-2.95,4.12-2.061c0.18,3.15-4.62,1.32-4.12,4.801c-2.09-0.49-2.49,0.699-4.11,0.68c0.45,2.06,1.47-0.65,2.74,0
			c-0.479,2.04-1.77,3.26-4.11,3.43c1.31,1.4,2.98,1.38,4.8,0.69c0.77,3.05-4.99-0.42-3.43,3.42c-0.61-0.53-1.54-0.73-2.74-0.68
			c1.09,1.8,0.51,2.38-0.68,0.68c-1.6,1.34,0.07,5.18,0,5.479c-2.36,2.351-5.07,1.66-6.85,3.431c3.57-0.391,0.75,3.239-1.38,2.06
			c1.53,2.95-1.28,6.73-3.42,8.22c1.17,0.431,1.13,2.07,2.05,2.74c-0.68,1.3-2.76-1.75-4.11-2.06c2.59,4.76-4.5,7.42-2.05,8.229
			c-0.45,2.05-1.47-0.66-2.74,0c1.84,0.78,1,2.69-0.69,1.37c-1.03,0.59,0.19,1.021-0.68,2.74c2.09,0.03,1.64-2.47,4.11-2.061
			c-0.19,1.41-1.83,1.37-2.74,2.061c3.32,1.84-1.05,2.63-1.37,4.79c-1.23,0.09-1.45-0.83-2.74-0.68c-1.55,0.38,0.83,1.069-0.69,2.05
			c0.55-0.36,1.11-0.71,2.06-0.681c-0.49,2.221-3.87,0.48-2.06,3.431c-5.01,3.27-8.72,3.149-11.65,6.16
			c-2.24-1.11-2.62,0.159-5.48,0c0.86-1.95,0.54-3.92-2.74-3.42c0.67,0.699,1.35,1.38,2.05,2.05c-4.98,9.16-3.91,15.35-4.79,27.41
			c-1.14-1.73-1.07-2.551-2.06,0c1.36,1.409,1.36,0.64,0,2.06c1.55,1.56,0.22,10.86-2.05,13.01c2.4,2.9-0.3,4.84,0.68,7.54
			c-1.1,0.2-1.18-0.649-2.05-0.68c0.04,5.729,1.61,14.229-2.06,17.13c1.71,0.95,1.63,1.94,2.06,2.74c-1.03,0.8-1.68,1.979-3.43,2.05
			c2.45,0.97-0.24,3.45,0,6.17c-1.01-0.36-1.73-1.01-2.74-1.37c-0.31,1.74,3.58,2.73,4.11,1.37c-0.9,4.05,2.77,11.021,0,15.76
			c1.51,0.07,2.2,4.811,0,2.74c-0.14,2.19,1.15,2.96,2.74,3.43c-2.59,2.07-0.43,1.83,0,3.42c-1.87,0.5-1.38-1.359-2.74-1.369
			c4.09,4.1,2.48,8.21,5.48,12.34c-0.55,1.729-2.82,1.739-4.11,2.739c0.88,1.48,2.74-1.05,3.43,1.37c1.01-0.3-0.27-0.88,0-2.06
			c2.53,1.72-0.26,5.14,0,6.85c0.07,1.761,2.55,1.11,3.42,2.061c0.5,2.1-1.18,2.01-0.68,4.109c-1.38-0.229-2.15,0.141-2.06,1.37
			c-21.44-0.489-41.04,1.36-58.92,0.69c-2.75-0.11-7.25,0.67-10.97,0.68c-0.19-1.41-1.83-1.37-2.74-2.05
			c-0.38-11.69,2.17-19.54,2.06-28.78c0.68,0,1.37,0,2.05,0c0.51-2.8-2.21-2.359-1.37-5.479c1.71,0.069,2.12,1.279,3.43,0
			c-0.21-0.931-1.72-0.57-2.74-0.69c1.45-5.32,3.13-7.67,2.74-13.7c1.1-0.199,1.18,0.641,2.05,0.681
			c-0.11-0.79,0.15-1.221,0.69-1.37c-0.21-0.931-1.72-0.57-2.74-0.681c1.73-1.979,0.71-1.189,0-3.43c1.66-0.72,3.78-5.6,1.37-6.17
			c4.71-9.49,4.7-18.58,10.28-30.83c0.28-1.649-1.26-1.49-0.69-3.43c6.14-8.101,6.64-27.73,15.08-39.05
			c-2.06-3.9,2.69-6.28,2.05-10.971c2.68-1.43,4-4.22,4.11-8.22c-3.05-1.04-2.75,2.74-4.79,0.69c-0.43,2.199,2.46,0.93,0.68,2.739
			c-2.09-3.659-4.03,2.891-6.85,0.681c0.77-4.16,6.92-4.17,5.48-6.851c0.61,0.53,1.55,0.74,2.74,0.681
			c0.03-1.17-0.51-1.771-1.37-2.051c0.42-1.46,2.99,0.591,2.06,2.74c1.34-0.52,1.02-5.069-0.69-4.8c1.57-3.57,6.26-1.82,4.8-6.16
			c1.7-0.109,2.12,1.07,3.42,1.37c1.93-0.01-1.63-1.87,1.37-1.37c-0.67-0.93-2.31-0.89-2.74-2.06c0.78-1.391,3.48,1.029,4.8,1.37
			c-0.3,0.84-0.88,1.409-2.06,1.369c4.8,8.65-3.99,20.37-8.22,26.721c1.9,1.029-1.19,2.81,0.69,3.43
			c-6.54,14.71-11.74,30.75-15.76,47.96c-1.4,0.21-1.83,1.38-2.74,2.061c0.11,0.8,1.25,0.579,2.05,0.689
			c-3.78,5.66-2.02,13.351-6.85,18.5c1.67,4.37-0.46,11.86-3.43,15.76c3.25,1.87-1.15,5.63,0.69,9.591
			c-0.55-0.36-1.11-0.721-2.06-0.69c3.06,6.26-2.82,12.52-1.37,17.82c-0.2,1.43-1.85-1.021-2.05,1.37
			c0.11,0.8,1.25,0.579,2.05,0.689c0.11,4.57-5.76,10.18,0,12.33c0.6,2.2-1.77,1.42-2.05,2.74c2.1,0,1.38,0.84,2.74,3.43
			c18.85-0.65,41.16,0,57.56-0.689c2.58-0.75,0.95-6.101-0.69-6.851c0.5-1.22,1.25-0.1,2.06,0c-0.19-1.41-1.83-1.37-2.74-2.06
			c1.07-3.2-0.57-2.271-0.69-5.48c2.15,0.93,2.35,0.21,2.74-2.05c-0.59-2.03-1.02,1.58-2.74,0.68c-0.32-6.89-1.44-8.739-2.74-14.39
			c0.81-0.79,2.42-0.771,4.11-0.68c0-0.69,0-1.37,0-2.061c-2.01-0.18-2.1,1.55-4.11,1.37c2.22-11.15-3.96-16.49,2.06-27.41
			c-2.97-2.689-0.02-6.8-1.38-9.59c1.15,0,2.29,0,3.43,0c-1.27-1.92-3.66-7.59,0-9.59c-0.61-1.45-2.09-2.03-2.05-4.11
			c1.97-3.01,5.08-11.2,2.74-12.34c2.34-11.22,6.94-27.06,5.48-37.68c-0.15-1.04,1.37-2.05,1.37-2.061
			c-0.28-1.239-3.95-2.229-2.06-4.8c0.89,0.95,2.98,0.68,4.8,0.69c1.77-1.351-1.1,1.859-3.43,0.68c2.08,1.29,1.66,0.81,2.06,3.43
			c1.31-1.29,1.24,0.41,3.42,0c0.09,6.03,7.21,4.83,10.97,2.74c6.44-3.58,10.41-17.02,14.39-19.189
			c6.15-14.4,15.8-25.311,23.29-38.37c1.311-0.29,1.73-1.471,3.431-1.37c-0.49-2.09,0.699-2.49,0.689-4.11
			c1.59,0.601,1.83,0.601,3.42,0c-0.439-0.7-1.569-0.71-1.37-2.05c2.061,0,4.11,0,6.17,0c1.591,1-1.34,2.17,1.37,2.05
			c-0.109,0.8-1.25,0.58-2.06,0.69c-0.21,0.83,1.979,2.359,2.06,0.68c1.49,1.87-0.91,4.18-2.739,6.17
			c1.409,0.65,0.579,3.53,2.739,3.42c0.32,2.16-1.85,1.82-2.06,3.43c1.88,0.091,0.859,5.851,3.43,8.221c-2.46-0.561-3.32,1.55-4.8,0
			c-0.49,2.1,0.7,2.5,0.69,4.109c1.93,0.57,1.77-0.96,3.42-0.68c-0.67,1.61-1.2,3.37-1.37,5.48c0.7-0.44,0.71-1.57,2.06-1.37
			C325.06,597.87,323.17,597.35,322.53,598.09z"/>
		<path d="M271.14,263.7c30.47-5.26,38.49,40.22,10.28,46.6c-26.31,5.95-38.86-27.44-21.93-41.8
			C262.29,266.13,266.47,264.51,271.14,263.7z"/>
		<path d="M273.88,389.1c17.49-2.69,24.05,8.25,29.47,19.18c-0.49,16.63-10.77,29.91-28.78,28.1c-5.01-0.51-10.6-3.14-14.39-6.17
			C249.89,422,253.29,392.26,273.88,389.1z"/>
		<path d="M244.22,580.4c-0.49,0.31-1.02,0.59-1.86,0.56c0.51,0.64,1.25,1.03,2.06,1.37c-2.66,1.22-3.97,3.79-5.48,6.16
			c-0.93-0.67-1.37-1.82-2.06-2.74c-0.4,2.33,1.13,4.18-1.37,6.85c-2.09,0.5-2.01-1.18-4.11-0.68c-0.38,1.4,1.31,1.63,1.37,0.68
			c2.39,1.78-2.47,2.051-2.05,4.12c-1.74-1.05-1.66-3.43-4.12-2.06c0.31-3.061,1.45-1.021,3.43-2.061
			c0.19,1.11-0.65,1.181-0.69,2.061c3.46-0.33-0.35-2.601,0-4.11c3.9-1.689,5.7-8.78,9.6-8.22c-0.82-0.9-0.27-1.08,0-2.061
			c0.64,0.5,1.04,1.25,1.37,2.061c1.69-3.96,2.31-11.09,9.59-12.34c-3-2.09,1.08-6.471,4.8-6.16c2.04,1.29,4.61,8,0,8.22
			c0.24,2.92-0.15,5.94,1.37,4.79c1.56,0.51-0.54,1.71-1.6,1.18c-0.13-0.159-0.29-0.329-0.46-0.489c0.1,0.229,0.26,0.39,0.46,0.489
			c1.97,2.311,0.85,4.811,2.97,7.73c-1.14,0-2.29,0-3.43,0c-0.11,2.99,4.14,1.16,0,2.74c1.07,1.22,1.89,2.689,2.74,4.109
			c-0.67,1.92-1.83-0.989-2.74,0.69c0.14,0.92,2.85,1.28,0,1.37c0.11,0.8,1.25,0.58,2.06,0.68c0.49,2.101-1.18,2.021-0.69,4.12
			c-0.42,0.95-2.63,0.1-2.74,1.37c2.3-1.08,1.69,3.41,4.11,4.11c0.48,1.84-1.41,1.319-2.05,2.05c0.38,1.55,1.07-0.83,2.05,0.689
			c-1.83,1.771,1.58,0.721,0.69,3.431c-4.69-2.2-1.55-1.19-6.85-1.38c-1.89-11.83,0.35-20.36-0.69-32.891
			c-1.66,0.29-5.97,4.061-3.42,4.12C246.21,582.43,242.46,581.66,244.22,580.4z"/>
		<path d="M256.75,615.22c0.82,4.471-4.13,3.17-3.42,7.53c-3.26-4.05-3.31-8.1-2.74-12.33c2.59-0.99,1.31,1.88,3.42,1.37
			c0.82,1.81-3.29,1.77,0,2.06c-0.5,0.641-1.24,1.03-2.05,1.37C253.93,616.84,255.09,616.17,256.75,615.22z"/>
		<path d="M242.36,509.69c0.24,3.659-2.96,1.829-1.37,5.489c-2.75-2.54-4.83-4.41-6.85-6.17c0.4-1.66,2.59-1.52,4.11-2.06
			c0.27-1.641-3.12,0.38-2.05-2.05c2.15,0.77,1.81-0.2,3.42,0.68c-0.36-0.55-0.71-1.11-0.68-2.05c-3.07-1.021-2.11,2-4.8,1.37
			c0.4-1.4-0.47-5.4-0.68-2.061c-2.16-1.16-0.86-3.18-0.69-5.479c0.73,0.79,3.16,0.25,4.11-0.69c-3.12-0.07-3.54-2.85-5.48-4.11
			c0.08-1.739,1-2.649,2.74-2.739c-2.87-3.601,1.3-6.12-0.68-10.28c0.55,0.37,1.11,0.72,2.05,0.69c0.06-1.87-1.14-1.381,0-2.74
			c-1.16-0.25-1.29,0.529-1.37,1.37c-1.6-0.181-0.39-3.011,0-3.431c2.76-0.47,3.91,0.66,6.17,0.69c-1.35,0.76-3.2,1.71,0,2.05
			c-3.37,5.021-0.69,7.69-4.11,13.71c0.16,1.771,1.18-0.939,2.74,0c-2.41,2.601-0.03,4.55,0.68,6.851
			c-0.71,1.569-4.89-0.32-5.48,1.369c2.38,0.771,4.36,0.391,6.17,1.37C240.7,503.6,239.33,509.48,242.36,509.69z"/>
		<path d="M215.64,613.85c0.51,2.11-2.36,0.83-1.37,3.42c-1.2,0.4-4.03-0.829-4.11,0.69c0.3,1.01,0.88-0.27,2.05,0
			c0.11,1.92-1.93,2.23-2.74,1.37c0.8,1.01,0.8,1.72,0,2.74c-0.87-0.95-3.23-0.42-4.11-1.37c0,1.83,2.17,1.49,2.06,3.42
			c-0.8-0.11-1.22,0.16-1.37,0.689c-1.45-2.75-2.48,0.841-1.37,2.74c-2.54,0.41-3.97,1.13-5.48-0.68c0.42-1.64,2.98-1.13,2.05-4.12
			c1.14,0,2.29,0,3.43,0c0.08-1.23-0.84-1.44-0.69-2.74c2.06-0.68,3.43-2.05,4.11-4.109C209.41,618.38,212.91,614.19,215.64,613.85z
			"/>
		<path d="M197.14,626.87c1.08,0.29,0.59,2.149,2.74,1.37c-0.15,1-4.48,2.74-1.37,2.74c-0.27,1.52-4.27,0.649-2.05-0.69
			c-2.07-0.69-1.22,1.53-1.38,2.74c-1.41,0.42-4.76-1.101-4.11,1.37c-3,0.06-4.98-1.271-6.85,0.689c-0.33-2.64-3.92,1.33-3.42-2.74
			c-2.1,2.57-6.08-0.6-6.86-3.43c1.72-0.99,2.69-1.66,4.8-0.68c-0.08,1.7-1.28,2.12,0,3.42c0.77-0.15,0.71-1.13,0.19-1.33
			c4.46,1.04,11.93,1.33,16.94-0.72C193.54,627.44,197.81,629.35,197.14,626.87z"/>
		<path d="M185.49,568.62c1.82,3.41-3.91,5.46-2.05,8.91c-0.61,0.529-1.55,0.739-2.74,0.68c-0.02,1.62,1.18,2.021,0.68,4.12
			c-2.55-1.16-1.34,0.14-2.74,1.37c1.37,0.2,2.66,4.35-0.69,3.42c0.11,0.81,1.25,0.58,2.06,0.689c0,1.601,0,3.2,0,4.79
			c-2.24,0.881-1.45,0.99-3.43,1.37c0.11,0.811,1.25,0.58,2.06,0.69c-1.01,1.62-1.45,1.27-0.69,3.43
			c-1.1,0.19-1.18-0.649-2.05-0.689c0.01,1.359,1.87,0.869,1.37,2.739c-2.49-0.659-0.32,3.341-3.43,2.061
			c0.17,1.2,1.18,1.56,2.74,1.37c-1.61,2.54-1.72,4.16-2.05,8.91c-1.11,0.189-1.18-0.65-2.06-0.69c0.42,0.64,1.6,2.53-0.68,2.06
			c2.16,1.07,3.48,7.83,1.37,8.9c1.28-0.22,4.24,3.62,0.68,4.8c1.58-2.149-1.25-1.93,0-2.74c-1.02-0.369-0.8-0.68-2.74-1.369
			c-0.71,1.369,0.84,2,1.37,4.109c-0.97-0.06-1.94-0.109-2.05,0.69c-1.84-3.49-4.53-7.891-0.69-11.65
			c1.94-1.54-2.07-1.729-2.07-1.41c-0.35-0.91-0.2-13.35,2.07-19.149c0.07-0.181,1.89-0.4,2.06-0.69c1.05-1.83-0.72-4.22,2.74-4.109
			c-3.54-3.051-0.04-5.29,0-8.221c-0.21-0.93-1.72-0.569-2.74-0.68c-0.86,2.79-4.3,3-5.48,5.479c-0.7-0.449-0.71-1.579-2.06-1.369
			c0.36,1.5-1.74,2.8-2.74,4.79c-2.09-0.86-2.67-0.521-4.11,0.689c0.45,2.05,1.46-0.66,2.74,0c0.66,2.72-1.99,2.13-3.43,2.74
			c0.02,0.67,0.84,0.53,1.37,0.68c-2.47,3.12-5.46,1.46-6.16,6.17c-2.41-0.54-0.8-2.39,0-3.42c-2.55,0.16-1.92,2.43-1.37,4.11
			c-1.62,0.01-2.02-1.181-4.12-0.69c0.92,3.49-1.31,1.33-1.37,5.48c-4.38,0.47-3.77,3.609-8.9,2.06c-1.63,0.2,0.76,1.851,1.37,2.061
			c0.21,1.58-1.98,0.76-2.06,2.05c-1.29-0.08-0.47-2.26-2.05-2.05c-2.04,5.729-6.16,9.37-12.34,10.96
			c1.27,2.399-0.62,2.16-2.05,3.42c-2.14-1.92-7.19-0.74-5.49,2.75c-3.11-0.79-8.55-1.771-10.27,0c-0.8-1.53-3.84-4.351-4.8-3.431
			c-1.86-0.619,0.58-2.52,1.37-2.739c-0.3-1.021-0.88,0.27-2.06,0c0.65-2.23-0.66-4.32,2.06-5.48c-0.83-0.18-2.74-2.62-2.74-1.37
			c-2.45-0.5,4.24-2.47,0-2.739c1.47-3.511,1.44,2.02,4.8,0.68c-1.02-0.811-1.94-1.72-2.74-2.74c0.13-0.92,2.84-1.28,0-1.37
			c0.21-0.93,1.71-0.569,2.74-0.689c-0.24-5.45,1.31-10.08,2.05-17.811c3.41,0.63,2.92-2.16,5.48-0.689c0-0.45,0-0.91,0-1.37
			c-0.19-1.44-1.83,1-2.74-0.681c-0.23-3.199,1.14-4.8,2.06-6.85c0.74,0.16,0.46,1.36,1.37,1.37c0.55-0.13,0.68-0.69,1.37-0.69
			c-2.43-2.72-0.13-9.739,1.37-9.59c0.5-1.87-1.36-1.38-1.37-2.74c-1.96,3.061-5.4,4.65-9.59,5.48c0.51-2.34-2.79-0.87-2.06-3.43
			c1.19-0.851,2.34-1.69,4.11-3.42c0.75,0.17,0.47,1.359,1.37,1.369c0.64-0.39,1.04-1.909,1.37-0.689c1.39-0.43,0.45-3.2,2.06-3.42
			c1.79,0.26,1.91,2.189,4.79,1.37c0.22-1.82-3.83,0.64-2.74-2.061c4.25,0.311,6.21-3.569,8.23-3.43c0.92,1.36,1.9,2.67,4.79,2.06
			c0.46,3.891-2.22,4.63-2.74,7.54c-3.05-1.989-0.04,1.33-3.42,0.681c2.51,4.26-0.78,12.949-4.12,15.76
			c2.02,3.46-2.28,3.89-1.37,8.22c-1.84-1.109-1.71,7.83-5.48,8.91c3.4,0.83-1.42,7.08-1.37,10.97c-2.15-0.35-2.8,1.61-3.42-0.689
			c-0.75,0.17-0.47,1.359-1.37,1.37c-0.12,1.489,2.43,0.31,3.42,0.689c0.58,1.7,0.9,3.67,0.69,6.16c3.84,1.79,11.41,1.31,13.02-3.42
			c0.5,1.09,3.35-0.16,2.74,2.05c1.67-0.07,0.14-2.26-0.69-2.05c1.62-1.48,2.72-0.15,5.48-0.69c-0.5-0.64-1.24-1.04-2.05-1.37
			c-0.08-0.699,2.95-1.38,0.68-2.05c2.83-1.29,4.63-3.6,6.17-6.17c3.95,2.79,3.81-1.569,6.17-4.109c2.6,1.5,2.6-1.381,5.48-1.37
			c0,0.68,0,1.37,0,2.05c0.61-0.53,1.55-0.73,2.74-0.68c-0.43-1.4-3.46-0.19-2.74-2.74c3.4-2.021,2.96-3.79,7.54-4.8
			c0-1.141,0-2.28,0-3.431c2.15,3.431,3.32-2.649,6.85-2.05c2.02-0.6-1.59-1.03-0.69-2.74c3.24,2.351,3.01-3.64,3.43,0.681
			c0.9-0.82,1.08-0.261,2.05,0c-0.81-1.32-2.61-3.471-1.37-4.79c0.93,0.21,0.57,1.71,0.69,2.739c1.51-0.09,0.29-2.909,0.68-4.109
			c4.39,2.729,8.1-9.97,13.02-8.91c0.29-2.91,3.62-2.78,3.43-6.17C180.32,567.58,182.47,566.87,185.49,568.62z M175.9,575.47
			c-1.72,0.79-4.7,0.33-4.8,2.74C173.93,578.53,174.51,576.6,175.9,575.47z"/>
		<path d="M178.83,630.33c-0.06-0.01-0.13-0.021-0.19-0.04C178.71,630.29,178.77,630.31,178.83,630.33z"/>
		<path d="M101.21,574.79c-0.32,2.19-3.07,1.95-4.11,3.42c-2.41-0.18,1.72-2.55-0.69-2.74c-0.71,1.84-5.05,8.23-9.59,6.17
			c-0.93,0.21-0.57,1.721-0.68,2.74c-0.98-0.06-1.94-0.11-2.06,0.69c-1.49,0.109-0.31-2.431-0.68-3.431
			c-1.23,1.48-1.21,3.15-0.69,4.801c-2.31-0.521-4.96,1.159-6.85,4.109c-7.38-1.84-16.37,13.8-21.24,4.11
			c1.43-1.891,2.09,2.74,2.05-1.37c0.67,0.02,0.53,0.84,0.69,1.37c2.54-3.63,6.39-5.94,11.65-6.851c0,0.23,0,0.46,0,0.7
			c-0.13,0.49-0.14,1.141,0,2.04c0-0.68,0-1.359,0-2.04c0.45-1.729,2.42-1.39,4.79-2.76c2.12-1.22,11.2-9.61,13.02-6.85
			c1.27-0.101,0.42-2.32,1.37-2.74c1.78,0.62,2.55,0.35,4.8,0c-0.36-0.55-0.72-1.11-0.69-2.061c2.37-0.6,5.16-0.77,5.48-3.42
			C98.63,572.34,99.62,573.87,101.21,574.79z"/>
	</g>
</g>
</svg>
