<?xml version="1.0" encoding="utf-8"?>
<!-- Generator: Adobe Illustrator 14.0.0, SVG Export Plug-In . SVG Version: 6.00 Build 43363)  -->
<!DOCTYPE svg PUBLIC "-//W3C//DTD SVG 1.0//EN" "http://www.w3.org/TR/2001/REC-SVG-20010904/DTD/svg10.dtd">
<svg version="1.0" xmlns="http://www.w3.org/2000/svg" xmlns:xlink="http://www.w3.org/1999/xlink" x="0px" y="0px" width="720px"
	 height="432px" viewBox="0 0 720 432" enable-background="new 0 0 720 432" xml:space="preserve">
<g id="Layer_1_x23_FFFFFF">
	<g>
		<g>
			<path fill="#FFFFFF" d="M710.93,62.24c0.351,8.07-12.75,17.36-20,24c-9.66,8.84-18.149,17.29-24.989,19
				c15.55,7.53,20.55,24.36,27.989,40.99c4.58,10.24,12.601,16.8,13,29c1.03,31.56-28.859,48.97-53.989,59.99
				c2.609,19.37-6.671,34.67-15,43c-22.7,22.69-65.66,33.2-115.99,30.99c-27.58-1.21-54.32-14.38-78.99-11
				c-13.68,1.88-26.99,13.92-39.99,22c-38.87,24.17-81.41,42.1-133.99,49.99c-14.8,19-45.76,40.859-82.98,38
				c-11.09-0.851-33.47-6.25-37-15c-2.05-5.08,0.73-12.34,3-14c6.71-4.9,19.1,3.08,28,4c19.52,2.02,34.17-3.101,45.99-8
				c-37.02-1.641-71.47-5.851-87.99-27.99c-36.63,1.03-96.67-26.43-58.99-58c13.51-11.32,36.13-16.02,56.99-20.99
				c5.36-1.279,15.75-0.569,16-9c-31.17,15.351-95.08,12.761-96.99-30c-44.63-10.35-53.14-89.71-19-121.979
				c19.3-18.24,59.3-18.98,61,15c25.51-18.55,51.6-69.53,99.98-72c20.34-1.03,42.44,10.52,47,31c22.48-14.46,45.28-49.9,81.99-46.99
				c37.09,2.93,5.78,58.26-9,67.99c4.32-0.65,5.6,1.73,8,3c8.61-4.57,17.23-8.67,24.99-16c5.21-4.92,9.03-14.43,17-15
				c13.09-0.93,20.24,15.15,14,27c-4.72,8.96-16.55,9.9-22,16c8.27-1.16,15.81-11.46,30-10c4.271-2.73,6.351-7.65,10-11
				c-9.22,0.36-14.72-3.44-15-10c-0.67-15.53,32.38-17.82,45.99-22c5.05-8.11,13.09-13.69,24-20.99c8.71-5.84,20.06-19.33,30-8
				c2.69,3.06,3.25,8.39,2,13.99c11.75-1.79,26.47-4.43,42.99-7.99c12.92-2.79,31.64-10.52,41-7c8.68,3.26,12.58,24.35-1,28.99
				c3.6,3.07,8.819,4.51,8,12c8.38-4.56,16.14-18.41,30.99-19c3.159-0.12,7.13,3.05,11,3c4.319-0.05,11.529-5.29,16,1
				c8.659-9.65,38.619-12.43,43.989,2C684.25,54.26,710.2,45.3,710.93,62.24z M690.93,70.24c3.021-2.74,9.391-4.25,7-8
				c-9.89,3.78-14.29,13.05-24,17c-6.09-33.47-47.89-11.33-42.989,17c3.439,19.88,47.069,25.78,34,53.99
				c-20.29,9.72-35.341,29.97-58,34c-1.471-3.76-1.471-11.24,0-15c5.859-3.14,14.63-3.37,16-11c-5.551,0.52-11.591,1.42-12-6
				c-1.04-18.84,49.489-19.29,34,7c25.239-22.17-25.74-35.04-35-18c0.55-30.11,9-52.32,18-73.99c-5.9-0.9-4.261,5.74-9,6
				c-5.7-13.09-22.591-2.25-28,3c-22.03,21.42-34.131,74.1-63.99,85.99c5.09-37.58,38.91-46.42,40-87.99
				c-21.54,1.13-27.63,17.7-43,25c2.229-5.99,1.03-15.15-3-18c-20.681-0.68-23.37,16.62-37.99,22c1.01-5.3,6.81-8.96,4-15
				c-48.52,14.47-30.97,95.01-80.99,107.99c8.181-37.61,24.86-67.62,41.99-97.99c5.2-9.22,11.45-25.21,18-29
				c12.54-7.25,37.34-5.57,55.99-7c8.59-0.65,20.439-1.37,29-3c6.569-1.24,19.83-3.67,16-14c-32.91,0.76-65.271,16.06-98.99,16
				c2.05-6.42,10.03-11.77,8-18.99c-5.69-0.51-8.82,5.53-14,8.99c-9.24,6.18-20.16,10.71-24,21c-13.79,5.2-32.85,5.14-42.99,14
				c15.38-1.29,26.48-6.85,40.99-9c-12.07,29.54-23.17,64.09-34.99,94.99c-3.649,9.53-12.14,23.25-2,32
				c16.48-0.19,20.23-13.1,30.99-19c-1.74,3.84-0.82,9.83,1,13c32.04-22.29,31.61-82.39,69-95.99c-5.37,32.96-28.51,48.15-34,80.99
				c19.4,2.36,26.3-18.45,33-32c11.53-23.33,21.7-48.55,44.99-57.99c-8.84,26.58-36.13,45.07-32,77.99
				c17.399,7.63,27.95-13.06,37-17c-2.37,22.07,32.87,20.59,39,7c3.91,3.09,8.13,5.87,11.99,9c-1.351,8.69,2.399,12.27,3,19
				c-23.521,15.39-57.32,24.72-86.99,35.99c-10.59,4.03-19.71,11.73-28.99,13c-23.1,3.16-40.94-8.83-59-16
				c-15.46-6.13-32.02-12.11-39.99-22.99c3.04-14.4,7.42-22.15,2-35c-5.17-12.27-20-14.55-20-26c0-7.01,8.83-16.79,20-14
				c2.53,9.04-10.489,12.61-6,17c12.29-1.5,14.221-17.42,19-26.99c2.05-4.12,7.78-8.3,6-11c-7.689,1.98-8.79,10.54-14,15
				c-19.85-2.56-38.78,9.72-36,27.99c1.92,12.53,25.93,27.03,12,41c-10.35-31.08-54.63-8.58-47.99,20.99
				c5.48,24.419,55.45,20.56,62.99-2c24.36,16.64,56.19,25.81,87.99,35c-8.92,6.511-22.21,12.771-37,19
				c-12.4,5.23-28.51,14.59-40.99,15c-10.069,0.32-25.58-5.18-41-7c-63.85-7.569-136.69-7.21-194.97,5
				c-26.74,5.601-51.81,8.88-68.99,19.99c-40.64,26.28,24.63,44.67,52.99,44c17.1,28.22,63.08,27.57,108.99,27
				c-12.04,18.84-40.56,32.55-74.99,28.99c-6.36-0.66-19.06-5.5-17-4c36,21.58,85.73-2.04,101.99-27.99
				c53.47-8.46,98.029-25.99,136.979-51c13.3-8.54,26.49-19.92,40.99-22c25.95-3.7,48.18,8.06,70,10
				c50.22,4.48,101.83-3.9,123.98-31.99c6.739-8.55,11.25-24.01,5-37c24.909-8.83,53.27-24.11,55.989-47.99
				c2.04-17.91-7.42-19.46-12-30c-2.399-5.52-1.91-11.67-4-16c-6.64-13.75-20.46-21.67-33.989-28.99c-3.87-14.83,4.31-33.23,19-36
				c8.89,5.64-1.471,15.75-1,25C672.03,90.71,682.8,77.63,690.93,70.24z M621.94,123.23c7.76-2.26,15.04,1.57,21,0
				c-8.4-3.26-13.15-10.17-19-15.99C623.8,113.1,621.61,116.9,621.94,123.23z M634.94,157.23c-0.841-4.18,1.939-4.72,2-8
				c-1.87-0.22-6.631-2.58-8,0C632.88,149.96,631.68,155.82,634.94,157.23z M590.94,184.23c-1.33-2.66-0.311-7.68-2.99-9
				c-11.931,10.21-35.28,7.09-45-3c-8.79,12.5-38.41,17.48-42.99-2c-3.54,16.65-30.82,34.26-45,16c-5.229,8.38-13.06,20.75-24,21.99
				c-4.55,0.52-7.93-5.95-10.99,0c22.9,4.17,40.261,23.379,64.99,20c7.55-1.029,16.95-7.51,26-11
				C538.69,206.52,568.59,196.75,590.94,184.23z M531.95,79.24c5.09-2.24,8.28-6.39,13-9c-6.561,0.77-14.33,0.34-20,2
				C527.76,74.1,530.97,75.55,531.95,79.24z M493.96,81.24c2.17-4.16,7.73-4.93,11-8c-11.75,1.25-23.35,2.66-34,5
				C456.79,99.57,484.63,68.06,493.96,81.24z M426.96,165.23c2.05-4.14,7.58-14.84,6-16C430.98,153.43,425.68,164.36,426.96,165.23z
				 M395.97,265.22c16.98-7.02,35.57-12.43,50.99-21c-19.92-7.069-40.93-13.06-56.99-24c-15,17.41-60.3,21.05-72.99-1
				c-6.81,12.74-36.18,34.11-48,14c-5.2,8.46-12.69,14.641-20.99,20C299.21,251.93,352.41,255.68,395.97,265.22z M396.97,155.23
				c-0.31-4.67,4.24-9.71,3-12c-1.479,3.52-5.68,4.32-8,7C394.61,150.93,394.08,154.78,396.97,155.23z M346.98,115.24
				c4.28-11.03,38-16.71,19.99-31c-12.37,17.62-30.81,29.18-52.99,37c0.53-3.47,2.67-5.33,3-9c-17.18,3.15-28.94,11.72-34,26.99
				c-23.35,23.04-26.27,68-42.99,96.99c-2.17,3.75-7.44,5.13-5,11c55.53-20.13,37.73-113.58,97.99-128.979
				c0.72,3.05-1.73,2.94-1,5.99c4.23-1.56,9.95-6.62,13-1c-8.54,11.8-19.62,21.05-32,29c-0.59-4.26,0.72-6.61,1-10
				c-7.49,1.22-5.4,14.98-2,19c-10.32,24.01-24,44.66-32,70.99c33.58-7.08,39.92-41.41,50-71.99
				C346.65,156.17,358.27,132.1,346.98,115.24z M348.97,161.23c2,0,4,0,6,0c-0.11-2.55-1.83-3.5-3-5
				C352.45,159.37,349.28,158.87,348.97,161.23z M332.98,48.24c-21.67-8.95-40.77,6.56-55,18c-15.35,12.36-29.04,27.99-42.99,36
				c4.26-19.85-6.94-35.24-21-40c-24.59-8.33-47.77,7.58-62.99,21c-36.97,32.6-77.77,82.42-88.99,129.98
				c-19.6-4.31-32.69-21.46-34.99-43.99c-3.23-31.51,22.25-64.13,43.99-59.99c14.24,2.71,11.64,24.4,10,36.99
				c10.09-13.07,5.8-39.61-8-41.99c-46.13-7.98-64.12,78.78-30,106.98c6.56,5.43,13.59,5.64,22,10
				c-1.26,55.03,92.53,40.011,101.99,8c-11.81,21.54-82.47,36.73-72.99-11c37.46-5.2,63.46-21.86,91.99-35.99
				c-9.21,26.79-20.51,51.49-25,82.99c48.93-22.729,38.33-104.99,89.99-124.99c-9.17,17.73-17.84,36.15-26,55
				c-8.05,18.58-18.03,38.12-19,59.99c32.19-9.84,28.69-48.49,42-78.99c8.47-19.41,20.83-32.28,24.99-50
				C296.14,104.03,330.43,87.74,332.98,48.24z M195.99,256.22c-2.09-0.91-0.35-5.64-3-6c-0.99,3.34-4.01,4.66-4.99,8
				C189.87,256.76,194.62,258.18,195.99,256.22z M162,220.22c-0.68-5.91,7.09-13.25,3-15.99c-17.41,10.59-38.71,17.28-60.99,22.99
				C109.71,255.67,153.76,231.23,162,220.22z M75.01,157.23c-10.89-6.99,1.78-25.9-5-36.99c-37.34,1.36-42.65,64.76-14,79.99
				C61.02,184.57,67.29,170.17,75.01,157.23z"/>
			<path fill="#FFFFFF" d="M683.93,162.23c15.75,8.59,1.79,33.99-7,42.99c-8.689,8.92-25.37,21.4-39.989,21
				c-8.44-0.229-15.051-6.96-22-8c-41.16-6.12-71.83,36.891-119.98,22c26.2-14.38,55.21-19.71,82.99-34
				c8.33-4.28,19.5-13.29,25.99-12.99c6.859,0.31,11,10.09,18,12.99C652.98,219.09,678.16,189.57,683.93,162.23z M606.94,207.22
				c-1.44-0.55-2.44-1.55-3-2.99c-3.511,1.18-10.141,4.48-10,5.99C597.18,208.13,603.62,209.24,606.94,207.22z"/>
			<path fill="#FFFFFF" d="M626.94,234.22c9.81-4.02,13.92,3.99,11,17c-2.33,10.4-11,18.87-15,22
				c-34.471,26.92-121.051,23.87-172.98,11.99c23.29-11.37,41.44-33.69,75.99-37.99C560.67,242.9,598.14,246.03,626.94,234.22z
				 M628.94,244.22c-0.671,0-1.33,0-2,0c-0.33,0-0.671,0-1,0c-27.32,13.37-67.46,8.17-101.99,13c-19.351,2.7-33.33,15.63-45.99,23
				C534.5,285.2,613.15,291.58,628.94,244.22z"/>
			<path fill="#FFFFFF" d="M406.97,278.22c33.2-11.489,58.32-40.51,104.98-32C479.34,258.27,452.55,291.76,406.97,278.22z"/>
			<path fill="#FFFFFF" d="M391.97,282.21c11.29-4.77,25.32,3.12,39.99,5c-48.46,30.53-97.54,60.44-167.97,69
				c2.71-9.96,4.49-20.84,3.99-34C311.34,312.6,354.83,297.91,391.97,282.21z M405.97,291.21c-5.08-2.76-8.87,0.16-11,1
				c-35.47,14.03-75.58,29.05-116.99,38c0.52,5.521-0.57,9.42-1,14C328.39,334.95,368.29,314.19,405.97,291.21z"/>
			<path fill="#FFFFFF" d="M361.97,190.23c2.431,1.57,4.431,3.57,6,6c-5.08,9.48-14.59,21.64-27.99,19.99
				c-20.56-2.51-7.32-47.49,14.99-38.99c3.69,3.8,4.77,10.36,3,17C359.11,196.57,361.32,191.67,361.97,190.23z M349.97,201.23
				c-5.14-2.75,0.86-10.5-3.99-13c-2.27,5.4-6.85,8.49-6,16.99C342.6,206.61,348.21,203.88,349.97,201.23z"/>
			<path fill="#FFFFFF" d="M384.97,277.22c-32.229,21.101-74.78,31.86-118.979,40.99c-11.19-52.94-124.33-43.52-121.99,15
				c-15.27-4.61-60.17-2.2-60.99-22c-0.75-17.92,44.62-29.05,59.99-32.99C212.7,260.33,319.26,264.58,384.97,277.22z M274.98,306.21
				c27.4-6.26,54.26-13.07,76.99-24c-36.22-3.43-76.39-8.26-115.98-4.99C255.29,280.58,265.22,293.31,274.98,306.21z M135,321.21
				c3.58-18.41,15.53-28.47,29-37c-27.02,5.65-53.48,11.85-70.99,27C103.94,317.61,118.88,320,135,321.21z"/>
			<path fill="#FFFFFF" d="M324.98,52.24c1.96,12.94-6.3,24.11-13,33c-20.86,27.68-58.36,43.01-83.99,65.99
				C248.22,110.13,268.95,60.88,324.98,52.24z M257.99,117.24c20.69-14.3,42.64-27.36,53.99-51
				C285.53,74.12,268.74,96.99,257.99,117.24z"/>
			<path fill="#FFFFFF" d="M261.99,324.21c2.71,12.21,0.06,26.37-5,34c-38.58,4.05-92.08,4.48-103.99-21
				C190.78,334.33,225.52,328.41,261.99,324.21z M250.99,348.21c0.46-4.54,1.8-8.2,2-13c-23.49,3.17-45.96,7.37-70.99,9
				C198.62,352.84,229.18,350.13,250.99,348.21z"/>
			<path fill="#FFFFFF" d="M260.99,318.21c-33.1,8.9-70.55,13.45-111.99,14C146.6,278.46,250.09,271.9,260.99,318.21z
				 M245.99,312.21c-13.7-22.65-77.25-18.19-84.99,10C191.1,320.65,218.63,316.52,245.99,312.21z"/>
			<path fill="#FFFFFF" d="M206.99,67.24c29.19,25.19-8.59,79.42-42.99,58.99c0.76,17.62,19.3,26.83,36.99,21
				c-12.25,40.41-55.37,58.61-105.98,63.99C115.12,146.02,142.23,87.81,206.99,67.24z M180,121.24c16.89-0.16,37.41-30.35,22.99-43
				c-49.51,21.48-77.91,69.4-92.99,121.99c29.92-8.09,62.02-19.3,74-42c-15.59-1.08-32.77-16.68-30-33
				C156.86,108.36,170.36,121.32,180,121.24z"/>
		</g>
	</g>
</g>
<g id="Layer_2_x23_006B33">
	<g>
		<g>
			<path fill="#006B33" d="M697.93,62.24c2.391,3.75-3.979,5.26-7,8c-8.13,7.39-18.899,20.47-26.989,25c-0.471-9.25,9.89-19.36,1-25
				c-14.69,2.77-22.87,21.17-19,36c13.529,7.32,27.35,15.24,33.989,28.99c2.09,4.33,1.601,10.48,4,16c4.58,10.54,14.04,12.09,12,30
				c-2.72,23.88-31.08,39.16-55.989,47.99c6.25,12.99,1.739,28.45-5,37c-22.15,28.09-73.761,36.471-123.98,31.99
				c-21.82-1.94-44.05-13.7-70-10c-14.5,2.08-27.69,13.46-40.99,22c-38.95,25.01-83.51,42.54-136.979,51
				C246.73,387.16,197,410.78,161,389.2c-2.06-1.5,10.64,3.34,17,4c34.43,3.56,62.95-10.15,74.99-28.99
				c-45.91,0.57-91.89,1.22-108.99-27c-28.36,0.67-93.63-17.72-52.99-44c17.18-11.11,42.25-14.39,68.99-19.99
				c58.28-12.21,131.12-12.569,194.97-5c15.419,1.82,30.93,7.32,41,7c12.48-0.41,28.59-9.77,40.99-15
				c14.79-6.229,28.08-12.489,37-19c-31.8-9.189-63.63-18.359-87.99-35c-7.54,22.56-57.51,26.419-62.99,2
				c-6.64-29.57,37.64-52.07,47.99-20.99c13.931-13.97-10.08-28.47-12-41c-2.78-18.27,16.15-30.55,36-27.99
				c5.21-4.46,6.311-13.02,14-15c1.78,2.7-3.95,6.88-6,11c-4.779,9.57-6.71,25.49-19,26.99c-4.489-4.39,8.53-7.96,6-17
				c-11.17-2.79-20,6.99-20,14c0,11.45,14.83,13.73,20,26c5.42,12.85,1.04,20.6-2,35c7.971,10.88,24.53,16.86,39.99,22.99
				c18.06,7.17,35.9,19.16,59,16c9.28-1.27,18.4-8.97,28.99-13c29.67-11.27,63.47-20.6,86.99-35.99c-0.601-6.73-4.351-10.31-3-19
				c-3.86-3.13-8.08-5.91-11.99-9c-6.13,13.59-41.37,15.07-39-7c-9.05,3.94-19.601,24.63-37,17c-4.13-32.92,23.16-51.41,32-77.99
				c-23.29,9.44-33.46,34.66-44.99,57.99c-6.7,13.55-13.6,34.36-33,32c5.49-32.84,28.63-48.03,34-80.99
				c-37.39,13.6-36.96,73.7-69,95.99c-1.82-3.17-2.74-9.16-1-13c-10.76,5.9-14.51,18.81-30.99,19c-10.14-8.75-1.649-22.47,2-32
				c11.82-30.9,22.92-65.45,34.99-94.99c-14.51,2.15-25.61,7.71-40.99,9c10.141-8.86,29.2-8.8,42.99-14
				c3.84-10.29,14.76-14.82,24-21c5.18-3.46,8.31-9.5,14-8.99c2.03,7.22-5.95,12.57-8,18.99c33.72,0.06,66.08-15.24,98.99-16
				c3.83,10.33-9.431,12.76-16,14c-8.561,1.63-20.41,2.35-29,3c-18.65,1.43-43.45-0.25-55.99,7c-6.55,3.79-12.8,19.78-18,29
				c-17.13,30.37-33.81,60.38-41.99,97.99c50.021-12.98,32.471-93.52,80.99-107.99c2.81,6.04-2.99,9.7-4,15
				c14.62-5.38,17.31-22.68,37.99-22c4.03,2.85,5.229,12.01,3,18c15.37-7.3,21.46-23.87,43-25c-1.09,41.57-34.91,50.41-40,87.99
				c29.859-11.89,41.96-64.57,63.99-85.99c5.409-5.25,22.3-16.09,28-3c4.739-0.26,3.1-6.9,9-6c-9,21.67-17.45,43.88-18,73.99
				c9.26-17.04,60.239-4.17,35,18c15.489-26.29-35.04-25.84-34-7c0.409,7.42,6.449,6.52,12,6c-1.37,7.63-10.141,7.86-16,11
				c-1.471,3.76-1.471,11.24,0,15c22.659-4.03,37.71-24.28,58-34c13.069-28.21-30.561-34.11-34-53.99
				c-4.9-28.33,36.899-50.47,42.989-17C683.64,75.29,688.04,66.02,697.93,62.24z M676.93,205.22c8.79-9,22.75-34.4,7-42.99
				c-5.77,27.34-30.949,56.86-61.989,43.99c-7-2.9-11.141-12.68-18-12.99c-6.49-0.3-17.66,8.71-25.99,12.99
				c-27.78,14.29-56.79,19.62-82.99,34c48.15,14.891,78.82-28.12,119.98-22c6.949,1.04,13.56,7.771,22,8
				C651.56,226.62,668.24,214.14,676.93,205.22z M662.94,160.23c-17.87,4.8-32.82,21.18-49,31c1.09,4.91,5.79,6.2,9,9
				C650.18,200.81,659.67,183.63,662.94,160.23z M637.94,251.22c2.92-13.01-1.19-21.02-11-17c-28.801,11.811-66.271,8.681-100.99,13
				c-34.55,4.3-52.7,26.62-75.99,37.99c51.93,11.88,138.51,14.93,172.98-11.99C626.94,270.09,635.61,261.62,637.94,251.22z
				 M598.94,121.24c4.939-15.58,13.479-31.38,13-47c-1.66,0-3.33,0-5,0c-10.62,7.71-17.95,24.36-23.99,41
				c-5.49,15.12-15.101,34.48-5,45.99C591.12,154.7,594.41,135.55,598.94,121.24z M627.94,228.22c-30.69-13.06-63.37,5.431-86.99,15
				C571.5,239.77,604.64,238.92,627.94,228.22z M511.95,246.22c-46.66-8.51-71.78,20.511-104.98,32
				C452.55,291.76,479.34,258.27,511.95,246.22z M431.96,287.21c-14.67-1.88-28.7-9.77-39.99-5c-37.14,15.7-80.63,30.39-123.99,40
				c0.5,13.16-1.28,24.04-3.99,34C334.42,347.65,383.5,317.74,431.96,287.21z M367.97,196.23c-1.569-2.43-3.569-4.43-6-6
				c-0.649,1.44-2.86,6.34-4,4c1.77-6.64,0.69-13.2-3-17c-22.31-8.5-35.55,36.48-14.99,38.99
				C353.38,217.87,362.89,205.71,367.97,196.23z M265.99,318.21c44.2-9.13,86.75-19.89,118.979-40.99
				c-65.71-12.64-172.27-16.89-241.97,1c-15.37,3.94-60.74,15.07-59.99,32.99c0.82,19.8,45.72,17.39,60.99,22
				C141.66,274.69,254.8,265.27,265.99,318.21z M256.99,358.21c5.06-7.63,7.71-21.79,5-34c-36.47,4.2-71.21,10.12-108.99,13
				C164.91,362.69,218.41,362.26,256.99,358.21z M149,332.21c41.44-0.55,78.89-5.1,111.99-14C250.09,271.9,146.6,278.46,149,332.21z
				"/>
			<path fill="#006B33" d="M366.97,84.24c18.011,14.29-15.71,19.97-19.99,31c11.29,16.86-0.33,40.93-17,44.99
				c-10.08,30.58-16.42,64.91-50,71.99c8-26.33,21.68-46.979,32-70.99c-3.4-4.02-5.49-17.78,2-19c-0.28,3.39-1.59,5.74-1,10
				c12.38-7.95,23.46-17.2,32-29c-3.05-5.62-8.77-0.56-13,1c-0.73-3.05,1.72-2.94,1-5.99c-60.26,15.4-42.46,108.85-97.99,128.979
				c-2.44-5.87,2.83-7.25,5-11c16.72-28.99,19.64-73.95,42.99-96.99c5.06-15.27,16.82-23.84,34-26.99c-0.33,3.67-2.47,5.53-3,9
				C336.16,113.42,354.6,101.86,366.97,84.24z"/>
			<path fill="#006B33" d="M277.98,66.24c14.23-11.44,33.33-26.95,55-18c-2.55,39.5-36.84,55.79-60,77.99
				c-4.16,17.72-16.52,30.59-24.99,50c-13.31,30.5-9.81,69.15-42,78.99c0.97-21.87,10.95-41.41,19-59.99
				c8.16-18.85,16.83-37.27,26-55c-51.66,20-41.06,102.26-89.99,124.99c4.49-31.5,15.79-56.2,25-82.99
				c-28.53,14.13-54.53,30.79-91.99,35.99c-9.48,47.73,61.18,32.54,72.99,11c-9.46,32.011-103.25,47.03-101.99-8
				c-8.41-4.36-15.44-4.57-22-10c-34.12-28.2-16.13-114.96,30-106.98c13.8,2.38,18.09,28.92,8,41.99c1.64-12.59,4.24-34.28-10-36.99
				c-21.74-4.14-47.22,28.48-43.99,59.99c2.3,22.53,15.39,39.68,34.99,43.99c11.22-47.56,52.02-97.38,88.99-129.98
				c15.22-13.42,38.4-29.33,62.99-21c14.06,4.76,25.26,20.15,21,40C248.94,94.23,262.63,78.6,277.98,66.24z M311.98,85.24
				c6.7-8.89,14.96-20.06,13-33c-56.03,8.64-76.76,57.89-96.99,98.99C253.62,128.25,291.12,112.92,311.98,85.24z M164,126.23
				c34.4,20.43,72.18-33.8,42.99-58.99c-64.76,20.57-91.87,78.78-111.98,143.98c50.61-5.38,93.73-23.58,105.98-63.99
				C183.3,153.06,164.76,143.85,164,126.23z"/>
		</g>
	</g>
</g>
<g id="Layer_3_x23_BF0000">
	<g>
		<g>
			<path fill="none" d="M710.93,62.24c0.351,8.07-12.75,17.36-20,24c-9.66,8.84-18.149,17.29-24.989,19
				c15.55,7.53,20.55,24.36,27.989,40.99c4.58,10.24,12.601,16.8,13,29c1.03,31.56-28.859,48.97-53.989,59.99
				c2.609,19.37-6.671,34.67-15,43c-22.7,22.69-65.66,33.2-115.99,30.99c-27.58-1.21-54.32-14.38-78.99-11
				c-13.68,1.88-26.99,13.92-39.99,22c-38.87,24.17-81.41,42.1-133.99,49.99c-14.8,19-45.76,40.859-82.98,38
				c-11.09-0.851-33.47-6.25-37-15c-2.05-5.08,0.73-12.34,3-14c6.71-4.9,19.1,3.08,28,4c19.52,2.02,34.17-3.101,45.99-8
				c-37.02-1.641-71.47-5.851-87.99-27.99c-36.63,1.03-96.67-26.43-58.99-58c13.51-11.32,36.13-16.02,56.99-20.99
				c5.36-1.279,15.75-0.569,16-9c-31.17,15.351-95.08,12.761-96.99-30c-44.63-10.35-53.14-89.71-19-121.979
				c19.3-18.24,59.3-18.98,61,15c25.51-18.55,51.6-69.53,99.98-72c20.34-1.03,42.44,10.52,47,31c22.48-14.46,45.28-49.9,81.99-46.99
				c37.09,2.93,5.78,58.26-9,67.99c4.32-0.65,5.6,1.73,8,3c8.61-4.57,17.23-8.67,24.99-16c5.21-4.92,9.03-14.43,17-15
				c13.09-0.93,20.24,15.15,14,27c-4.72,8.96-16.55,9.9-22,16c8.27-1.16,15.81-11.46,30-10c4.271-2.73,6.351-7.65,10-11
				c-9.22,0.36-14.72-3.44-15-10c-0.67-15.53,32.38-17.82,45.99-22c5.05-8.11,13.09-13.69,24-20.99c8.71-5.84,20.06-19.33,30-8
				c2.69,3.06,3.25,8.39,2,13.99c11.75-1.79,26.47-4.43,42.99-7.99c12.92-2.79,31.64-10.52,41-7c8.68,3.26,12.58,24.35-1,28.99
				c3.6,3.07,8.819,4.51,8,12c8.38-4.56,16.14-18.41,30.99-19c3.159-0.12,7.13,3.05,11,3c4.319-0.05,11.529-5.29,16,1
				c8.659-9.65,38.619-12.43,43.989,2C684.25,54.26,710.2,45.3,710.93,62.24z M690.93,70.24c3.021-2.74,9.391-4.25,7-8
				c-9.89,3.78-14.29,13.05-24,17c-6.09-33.47-47.89-11.33-42.989,17c3.439,19.88,47.069,25.78,34,53.99
				c-20.29,9.72-35.341,29.97-58,34c-1.471-3.76-1.471-11.24,0-15c5.859-3.14,14.63-3.37,16-11c-5.551,0.52-11.591,1.42-12-6
				c-1.04-18.84,49.489-19.29,34,7c25.239-22.17-25.74-35.04-35-18c0.55-30.11,9-52.32,18-73.99c-5.9-0.9-4.261,5.74-9,6
				c-5.7-13.09-22.591-2.25-28,3c-22.03,21.42-34.131,74.1-63.99,85.99c5.09-37.58,38.91-46.42,40-87.99
				c-21.54,1.13-27.63,17.7-43,25c2.229-5.99,1.03-15.15-3-18c-20.681-0.68-23.37,16.62-37.99,22c1.01-5.3,6.81-8.96,4-15
				c-48.52,14.47-30.97,95.01-80.99,107.99c8.181-37.61,24.86-67.62,41.99-97.99c5.2-9.22,11.45-25.21,18-29
				c12.54-7.25,37.34-5.57,55.99-7c8.59-0.65,20.439-1.37,29-3c6.569-1.24,19.83-3.67,16-14c-32.91,0.76-65.271,16.06-98.99,16
				c2.05-6.42,10.03-11.77,8-18.99c-5.69-0.51-8.82,5.53-14,8.99c-9.24,6.18-20.16,10.71-24,21c-13.79,5.2-32.85,5.14-42.99,14
				c15.38-1.29,26.48-6.85,40.99-9c-12.07,29.54-23.17,64.09-34.99,94.99c-3.649,9.53-12.14,23.25-2,32
				c16.48-0.19,20.23-13.1,30.99-19c-1.74,3.84-0.82,9.83,1,13c32.04-22.29,31.61-82.39,69-95.99c-5.37,32.96-28.51,48.15-34,80.99
				c19.4,2.36,26.3-18.45,33-32c11.53-23.33,21.7-48.55,44.99-57.99c-8.84,26.58-36.13,45.07-32,77.99
				c17.399,7.63,27.95-13.06,37-17c-2.37,22.07,32.87,20.59,39,7c3.91,3.09,8.13,5.87,11.99,9c-1.351,8.69,2.399,12.27,3,19
				c-23.521,15.39-57.32,24.72-86.99,35.99c-10.59,4.03-19.71,11.73-28.99,13c-23.1,3.16-40.94-8.83-59-16
				c-15.46-6.13-32.02-12.11-39.99-22.99c3.04-14.4,7.42-22.15,2-35c-5.17-12.27-20-14.55-20-26c0-7.01,8.83-16.79,20-14
				c2.53,9.04-10.489,12.61-6,17c12.29-1.5,14.221-17.42,19-26.99c2.05-4.12,7.78-8.3,6-11c-7.689,1.98-8.79,10.54-14,15
				c-19.85-2.56-38.78,9.72-36,27.99c1.92,12.53,25.93,27.03,12,41c-10.35-31.08-54.63-8.58-47.99,20.99
				c5.48,24.419,55.45,20.56,62.99-2c24.36,16.64,56.19,25.81,87.99,35c-8.92,6.511-22.21,12.771-37,19
				c-12.4,5.23-28.51,14.59-40.99,15c-10.069,0.32-25.58-5.18-41-7c-63.85-7.569-136.69-7.21-194.97,5
				c-26.74,5.601-51.81,8.88-68.99,19.99c-40.64,26.28,24.63,44.67,52.99,44c17.1,28.22,63.08,27.57,108.99,27
				c-12.04,18.84-40.56,32.55-74.99,28.99c-6.36-0.66-19.06-5.5-17-4c36,21.58,85.73-2.04,101.99-27.99
				c53.47-8.46,98.029-25.99,136.979-51c13.3-8.54,26.49-19.92,40.99-22c25.95-3.7,48.18,8.06,70,10
				c50.22,4.48,101.83-3.9,123.98-31.99c6.739-8.55,11.25-24.01,5-37c24.909-8.83,53.27-24.11,55.989-47.99
				c2.04-17.91-7.42-19.46-12-30c-2.399-5.52-1.91-11.67-4-16c-6.64-13.75-20.46-21.67-33.989-28.99c-3.87-14.83,4.31-33.23,19-36
				c8.89,5.64-1.471,15.75-1,25C672.03,90.71,682.8,77.63,690.93,70.24z M621.94,123.23c7.76-2.26,15.04,1.57,21,0
				c-8.4-3.26-13.15-10.17-19-15.99C623.8,113.1,621.61,116.9,621.94,123.23z M634.94,157.23c-0.841-4.18,1.939-4.72,2-8
				c-1.87-0.22-6.631-2.58-8,0C632.88,149.96,631.68,155.82,634.94,157.23z M590.94,184.23c-1.33-2.66-0.311-7.68-2.99-9
				c-11.931,10.21-35.28,7.09-45-3c-8.79,12.5-38.41,17.48-42.99-2c-3.54,16.65-30.82,34.26-45,16c-5.229,8.38-13.06,20.75-24,21.99
				c-4.55,0.52-7.93-5.95-10.99,0c22.9,4.17,40.261,23.379,64.99,20c7.55-1.029,16.95-7.51,26-11
				C538.69,206.52,568.59,196.75,590.94,184.23z M531.95,79.24c5.09-2.24,8.28-6.39,13-9c-6.561,0.77-14.33,0.34-20,2
				C527.76,74.1,530.97,75.55,531.95,79.24z M493.96,81.24c2.17-4.16,7.73-4.93,11-8c-11.75,1.25-23.35,2.66-34,5
				C456.79,99.57,484.63,68.06,493.96,81.24z M426.96,165.23c2.05-4.14,7.58-14.84,6-16C430.98,153.43,425.68,164.36,426.96,165.23z
				 M395.97,265.22c16.98-7.02,35.57-12.43,50.99-21c-19.92-7.069-40.93-13.06-56.99-24c-15,17.41-60.3,21.05-72.99-1
				c-6.81,12.74-36.18,34.11-48,14c-5.2,8.46-12.69,14.641-20.99,20C299.21,251.93,352.41,255.68,395.97,265.22z M396.97,155.23
				c-0.31-4.67,4.24-9.71,3-12c-1.479,3.52-5.68,4.32-8,7C394.61,150.93,394.08,154.78,396.97,155.23z M346.98,115.24
				c4.28-11.03,38-16.71,19.99-31c-12.37,17.62-30.81,29.18-52.99,37c0.53-3.47,2.67-5.33,3-9c-17.18,3.15-28.94,11.72-34,26.99
				c-23.35,23.04-26.27,68-42.99,96.99c-2.17,3.75-7.44,5.13-5,11c55.53-20.13,37.73-113.58,97.99-128.979
				c0.72,3.05-1.73,2.94-1,5.99c4.23-1.56,9.95-6.62,13-1c-8.54,11.8-19.62,21.05-32,29c-0.59-4.26,0.72-6.61,1-10
				c-7.49,1.22-5.4,14.98-2,19c-10.32,24.01-24,44.66-32,70.99c33.58-7.08,39.92-41.41,50-71.99
				C346.65,156.17,358.27,132.1,346.98,115.24z M348.97,161.23c2,0,4,0,6,0c-0.11-2.55-1.83-3.5-3-5
				C352.45,159.37,349.28,158.87,348.97,161.23z M332.98,48.24c-21.67-8.95-40.77,6.56-55,18c-15.35,12.36-29.04,27.99-42.99,36
				c4.26-19.85-6.94-35.24-21-40c-24.59-8.33-47.77,7.58-62.99,21c-36.97,32.6-77.77,82.42-88.99,129.98
				c-19.6-4.31-32.69-21.46-34.99-43.99c-3.23-31.51,22.25-64.13,43.99-59.99c14.24,2.71,11.64,24.4,10,36.99
				c10.09-13.07,5.8-39.61-8-41.99c-46.13-7.98-64.12,78.78-30,106.98c6.56,5.43,13.59,5.64,22,10
				c-1.26,55.03,92.53,40.011,101.99,8c-11.81,21.54-82.47,36.73-72.99-11c37.46-5.2,63.46-21.86,91.99-35.99
				c-9.21,26.79-20.51,51.49-25,82.99c48.93-22.729,38.33-104.99,89.99-124.99c-9.17,17.73-17.84,36.15-26,55
				c-8.05,18.58-18.03,38.12-19,59.99c32.19-9.84,28.69-48.49,42-78.99c8.47-19.41,20.83-32.28,24.99-50
				C296.14,104.03,330.43,87.74,332.98,48.24z M195.99,256.22c-2.09-0.91-0.35-5.64-3-6c-0.99,3.34-4.01,4.66-4.99,8
				C189.87,256.76,194.62,258.18,195.99,256.22z M162,220.22c-0.68-5.91,7.09-13.25,3-15.99c-17.41,10.59-38.71,17.28-60.99,22.99
				C109.71,255.67,153.76,231.23,162,220.22z M75.01,157.23c-10.89-6.99,1.78-25.9-5-36.99c-37.34,1.36-42.65,64.76-14,79.99
				C61.02,184.57,67.29,170.17,75.01,157.23z"/>
			<path fill="none" d="M697.93,62.24c2.391,3.75-3.979,5.26-7,8c-8.13,7.39-18.899,20.47-26.989,25c-0.471-9.25,9.89-19.36,1-25
				c-14.69,2.77-22.87,21.17-19,36c13.529,7.32,27.35,15.24,33.989,28.99c2.09,4.33,1.601,10.48,4,16c4.58,10.54,14.04,12.09,12,30
				c-2.72,23.88-31.08,39.16-55.989,47.99c6.25,12.99,1.739,28.45-5,37c-22.15,28.09-73.761,36.471-123.98,31.99
				c-21.82-1.94-44.05-13.7-70-10c-14.5,2.08-27.69,13.46-40.99,22c-38.95,25.01-83.51,42.54-136.979,51
				C246.73,387.16,197,410.78,161,389.2c-2.06-1.5,10.64,3.34,17,4c34.43,3.56,62.95-10.15,74.99-28.99
				c-45.91,0.57-91.89,1.22-108.99-27c-28.36,0.67-93.63-17.72-52.99-44c17.18-11.11,42.25-14.39,68.99-19.99
				c58.28-12.21,131.12-12.569,194.97-5c15.419,1.82,30.93,7.32,41,7c12.48-0.41,28.59-9.77,40.99-15
				c14.79-6.229,28.08-12.489,37-19c-31.8-9.189-63.63-18.359-87.99-35c-7.54,22.56-57.51,26.419-62.99,2
				c-6.64-29.57,37.64-52.07,47.99-20.99c13.931-13.97-10.08-28.47-12-41c-2.78-18.27,16.15-30.55,36-27.99
				c5.21-4.46,6.311-13.02,14-15c1.78,2.7-3.95,6.88-6,11c-4.779,9.57-6.71,25.49-19,26.99c-4.489-4.39,8.53-7.96,6-17
				c-11.17-2.79-20,6.99-20,14c0,11.45,14.83,13.73,20,26c5.42,12.85,1.04,20.6-2,35c7.971,10.88,24.53,16.86,39.99,22.99
				c18.06,7.17,35.9,19.16,59,16c9.28-1.27,18.4-8.97,28.99-13c29.67-11.27,63.47-20.6,86.99-35.99c-0.601-6.73-4.351-10.31-3-19
				c-3.86-3.13-8.08-5.91-11.99-9c-6.13,13.59-41.37,15.07-39-7c-9.05,3.94-19.601,24.63-37,17c-4.13-32.92,23.16-51.41,32-77.99
				c-23.29,9.44-33.46,34.66-44.99,57.99c-6.7,13.55-13.6,34.36-33,32c5.49-32.84,28.63-48.03,34-80.99
				c-37.39,13.6-36.96,73.7-69,95.99c-1.82-3.17-2.74-9.16-1-13c-10.76,5.9-14.51,18.81-30.99,19c-10.14-8.75-1.649-22.47,2-32
				c11.82-30.9,22.92-65.45,34.99-94.99c-14.51,2.15-25.61,7.71-40.99,9c10.141-8.86,29.2-8.8,42.99-14
				c3.84-10.29,14.76-14.82,24-21c5.18-3.46,8.31-9.5,14-8.99c2.03,7.22-5.95,12.57-8,18.99c33.72,0.06,66.08-15.24,98.99-16
				c3.83,10.33-9.431,12.76-16,14c-8.561,1.63-20.41,2.35-29,3c-18.65,1.43-43.45-0.25-55.99,7c-6.55,3.79-12.8,19.78-18,29
				c-17.13,30.37-33.81,60.38-41.99,97.99c50.021-12.98,32.471-93.52,80.99-107.99c2.81,6.04-2.99,9.7-4,15
				c14.62-5.38,17.31-22.68,37.99-22c4.03,2.85,5.229,12.01,3,18c15.37-7.3,21.46-23.87,43-25c-1.09,41.57-34.91,50.41-40,87.99
				c29.859-11.89,41.96-64.57,63.99-85.99c5.409-5.25,22.3-16.09,28-3c4.739-0.26,3.1-6.9,9-6c-9,21.67-17.45,43.88-18,73.99
				c9.26-17.04,60.239-4.17,35,18c15.489-26.29-35.04-25.84-34-7c0.409,7.42,6.449,6.52,12,6c-1.37,7.63-10.141,7.86-16,11
				c-1.471,3.76-1.471,11.24,0,15c22.659-4.03,37.71-24.28,58-34c13.069-28.21-30.561-34.11-34-53.99
				c-4.9-28.33,36.899-50.47,42.989-17C683.64,75.29,688.04,66.02,697.93,62.24z M676.93,205.22c8.79-9,22.75-34.4,7-42.99
				c-5.77,27.34-30.949,56.86-61.989,43.99c-7-2.9-11.141-12.68-18-12.99c-6.49-0.3-17.66,8.71-25.99,12.99
				c-27.78,14.29-56.79,19.62-82.99,34c48.15,14.891,78.82-28.12,119.98-22c6.949,1.04,13.56,7.771,22,8
				C651.56,226.62,668.24,214.14,676.93,205.22z M662.94,160.23c-17.87,4.8-32.82,21.18-49,31c1.09,4.91,5.79,6.2,9,9
				C650.18,200.81,659.67,183.63,662.94,160.23z M637.94,251.22c2.92-13.01-1.19-21.02-11-17c-28.801,11.811-66.271,8.681-100.99,13
				c-34.55,4.3-52.7,26.62-75.99,37.99c51.93,11.88,138.51,14.93,172.98-11.99C626.94,270.09,635.61,261.62,637.94,251.22z
				 M598.94,121.24c4.939-15.58,13.479-31.38,13-47c-1.66,0-3.33,0-5,0c-10.62,7.71-17.95,24.36-23.99,41
				c-5.49,15.12-15.101,34.48-5,45.99C591.12,154.7,594.41,135.55,598.94,121.24z M627.94,228.22c-30.69-13.06-63.37,5.431-86.99,15
				C571.5,239.77,604.64,238.92,627.94,228.22z M511.95,246.22c-46.66-8.51-71.78,20.511-104.98,32
				C452.55,291.76,479.34,258.27,511.95,246.22z M431.96,287.21c-14.67-1.88-28.7-9.77-39.99-5c-37.14,15.7-80.63,30.39-123.99,40
				c0.5,13.16-1.28,24.04-3.99,34C334.42,347.65,383.5,317.74,431.96,287.21z M367.97,196.23c-1.569-2.43-3.569-4.43-6-6
				c-0.649,1.44-2.86,6.34-4,4c1.77-6.64,0.69-13.2-3-17c-22.31-8.5-35.55,36.48-14.99,38.99
				C353.38,217.87,362.89,205.71,367.97,196.23z M265.99,318.21c44.2-9.13,86.75-19.89,118.979-40.99
				c-65.71-12.64-172.27-16.89-241.97,1c-15.37,3.94-60.74,15.07-59.99,32.99c0.82,19.8,45.72,17.39,60.99,22
				C141.66,274.69,254.8,265.27,265.99,318.21z M256.99,358.21c5.06-7.63,7.71-21.79,5-34c-36.47,4.2-71.21,10.12-108.99,13
				C164.91,362.69,218.41,362.26,256.99,358.21z M149,332.21c41.44-0.55,78.89-5.1,111.99-14C250.09,271.9,146.6,278.46,149,332.21z
				"/>
			<path fill="#BF0000" d="M713.93,61.24c0,1,0,2,0,3c-0.33,0-0.67,0-1,0c-7.979,19.69-27.91,27.42-40,43
				c7.63,4.94,14.61,12.69,19,21.99c2.08,4.4,1.82,9.99,4,15c3.04,7,8.59,10.46,11,17c14.33,38.93-23.699,64.71-50.989,76.99
				c2.46,25.83-12.681,40.16-24,48.99c-30.771,24-89.86,30.99-139.98,22c-15.81-2.83-33.3-10.63-49-8c-12.51,2.1-25.4,14-37.99,22
				c-39.45,25.05-81.979,40.96-132.99,49.99c-18.21,18.05-37.51,35.31-72.99,38c-23.26,1.76-54.63-5.22-53.99-24
				c0.97-28.32,47.04,4.439,64.99-10c-32.95-1.38-59.45-9.21-74.99-27.99c-30.37-4.2-71.82-8.12-70.99-39
				c0.63-23.479,25.42-31.479,45.99-38.99c-32.36,0.03-52.22-12.43-56.99-40c-55.83-12.68-51.07-117.97-3-136.979
				c20.32-8.04,46.86-0.44,48,21c19.46-13.28,41.78-48.11,70.99-61c29.37-12.96,68.02-5.61,77.99,21
				c17.63-14.74,47.42-48.97,81.99-43.99c4.67,0.67,10.53,3.47,14,8c16.11,21.07-11.69,47.89-19,61.99
				c21.87-2.65,36.85-47.76,58.99-22c7.99-16.42,26.19-8.1,43.99-18c3.94-2.19,6.6-6.92,10-10c3.72-3.36,7.7-5.2,12-7.99
				c9.58-6.23,14.98-15.57,26-15c10.16,0.52,13,7.88,17,16.99c14.51-2.83,25.68-4.95,39.99-7.99c18.22-3.88,45.569-14.17,49,7
				c0.85,5.27-5.8,20.12-3,22.99c2.569,2.64,6.13-2.49,11-6c15.979-11.53,24.16-2.9,45.99-6c7.13-1.01,12.34-5.39,19-6
				c14.109-1.27,21.42,2.01,25.989,9C685.94,47.99,712.69,44.3,713.93,61.24z M690.93,86.24c7.25-6.64,20.351-15.93,20-24
				c-0.729-16.94-26.68-7.98-32,0c-5.37-14.43-35.33-11.65-43.989-2c-4.471-6.29-11.681-1.05-16-1c-3.87,0.05-7.841-3.12-11-3
				c-14.851,0.59-22.61,14.44-30.99,19c0.819-7.49-4.4-8.93-8-12c13.58-4.64,9.68-25.73,1-28.99c-9.36-3.52-28.08,4.21-41,7
				c-16.521,3.56-31.24,6.2-42.99,7.99c1.25-5.6,0.69-10.93-2-13.99c-9.94-11.33-21.29,2.16-30,8c-10.91,7.3-18.95,12.88-24,20.99
				c-13.61,4.18-46.66,6.47-45.99,22c0.28,6.56,5.78,10.36,15,10c-3.649,3.35-5.729,8.27-10,11c-14.189-1.46-21.729,8.84-30,10
				c5.45-6.1,17.28-7.04,22-16c6.24-11.85-0.91-27.93-14-27c-7.97,0.57-11.79,10.08-17,15c-7.76,7.33-16.38,11.43-24.99,16
				c-2.4-1.27-3.68-3.65-8-3c14.78-9.73,46.09-65.06,9-67.99c-36.71-2.91-59.51,32.53-81.99,46.99c-4.56-20.48-26.66-32.03-47-31
				c-48.38,2.47-74.47,53.45-99.98,72c-1.7-33.98-41.7-33.24-61-15c-34.14,32.27-25.63,111.63,19,121.979
				c1.91,42.761,65.82,45.351,96.99,30c-0.25,8.431-10.64,7.721-16,9c-20.86,4.971-43.48,9.67-56.99,20.99
				c-37.68,31.57,22.36,59.03,58.99,58c16.52,22.14,50.97,26.35,87.99,27.99c-11.82,4.899-26.47,10.02-45.99,8
				c-8.9-0.92-21.29-8.9-28-4c-2.27,1.66-5.05,8.92-3,14c3.53,8.75,25.91,14.149,37,15c37.22,2.859,68.18-19,82.98-38
				c52.58-7.891,95.12-25.82,133.99-49.99c13-8.08,26.311-20.12,39.99-22c24.67-3.38,51.41,9.79,78.99,11
				c50.33,2.21,93.29-8.3,115.99-30.99c8.329-8.33,17.609-23.63,15-43c25.13-11.02,55.02-28.43,53.989-59.99
				c-0.399-12.2-8.42-18.76-13-29c-7.439-16.63-12.439-33.46-27.989-40.99C672.78,103.53,681.27,95.08,690.93,86.24z M391.97,98.24
				c-3.46,0.79-4.22-1.11-6-2c-1.26,2.4-1.29,6.04-3,8C389.3,105.57,390.25,101.52,391.97,98.24z"/>
			<path fill="#BF0000" d="M642.94,123.23c-5.96,1.57-13.24-2.26-21,0c-0.33-6.33,1.859-10.13,2-15.99
				C629.79,113.06,634.54,119.97,642.94,123.23z M624.94,120.24c1.779-0.56,4.149-0.52,5-2c-2.04-0.3-1.96-2.71-4-3
				C626.77,118.06,624.53,117.83,624.94,120.24z"/>
			<path fill="#BF0000" d="M636.94,149.23c-0.061,3.28-2.841,3.82-2,8c-3.261-1.41-2.061-7.27-6-8
				C630.31,146.65,635.07,149.01,636.94,149.23z"/>
			<path fill="#BF0000" d="M626.94,244.22c0.67,0,1.329,0,2,0c-15.79,47.36-94.44,40.98-150.98,36c12.66-7.37,26.64-20.3,45.99-23
				c34.53-4.83,74.67,0.37,101.99-13C626.27,244.22,626.61,244.22,626.94,244.22z M623.94,249.22
				c-40.23,14.761-109.051,0.94-135.98,29C539.15,282.58,603.99,284.83,623.94,249.22z"/>
			<path fill="#BF0000" d="M603.94,204.23c0.56,1.44,1.56,2.44,3,2.99c-3.32,2.02-9.761,0.91-13,3
				C593.8,208.71,600.43,205.41,603.94,204.23z"/>
			<path fill="#BF0000" d="M587.95,175.23c2.68,1.32,1.66,6.34,2.99,9c-22.351,12.52-52.25,22.29-79.98,32.99
				c-9.05,3.49-18.45,9.971-26,11c-24.729,3.38-42.09-15.83-64.99-20c3.061-5.95,6.44,0.52,10.99,0
				c10.94-1.24,18.771-13.61,24-21.99c14.18,18.26,41.46,0.65,45-16c4.58,19.48,34.2,14.5,42.99,2
				C552.67,182.32,576.02,185.44,587.95,175.23z M562.95,193.23c8.77-3.89,19.01-5.77,23-13c-12.87,8.65-32.641,3.39-44-3
				c-9.16,11.06-33.72,13.1-42.99,1c-4.51,14.5-28.36,25.92-44,14c-4.6,8.06-12.15,13.18-19,18.99c16.92,2.63,29.37,16.53,48,14
				c7.09-0.96,16.76-7.62,26-11C529.11,207.22,546.31,200.6,562.95,193.23z"/>
			<path fill="#BF0000" d="M544.95,70.24c-4.72,2.61-7.91,6.76-13,9c-0.98-3.69-4.19-5.14-7-7
				C530.62,70.58,538.39,71.01,544.95,70.24z"/>
			<path fill="#BF0000" d="M504.96,73.24c-3.27,3.07-8.83,3.84-11,8c-9.33-13.18-37.17,18.33-23-3
				C481.61,75.9,493.21,74.49,504.96,73.24z"/>
			<path fill="#BF0000" d="M432.96,149.23c1.58,1.16-3.95,11.86-6,16C425.68,164.36,430.98,153.43,432.96,149.23z"/>
			<path fill="#BF0000" d="M446.96,244.22c-15.42,8.57-34.01,13.98-50.99,21c-43.56-9.54-96.76-13.29-147.979-12
				c8.3-5.359,15.79-11.54,20.99-20c11.82,20.11,41.19-1.26,48-14c12.69,22.05,57.99,18.41,72.99,1
				C406.03,231.16,427.04,237.15,446.96,244.22z M395.97,261.22c16.41-1.21,28.87-13.27,42.99-17c-19.04-4.29-34.49-12.17-49.99-20
				c-13.47,17.34-59.15,19.03-71.99,0c-7.43,13.24-32.08,27.92-49,16c-1,3.61-10.9,8.05-6.99,10c32.28-0.979,65.9,1.511,95.98,5
				C372.5,257.02,387.37,261.85,395.97,261.22z"/>
			<path fill="#BF0000" d="M394.97,292.21c2.13-0.84,5.92-3.76,11-1c-37.68,22.98-77.58,43.74-128.99,53c0.43-4.58,1.52-8.479,1-14
				C319.39,321.26,359.5,306.24,394.97,292.21z M384.97,300.21c-27.68,9.33-62.34,22.021-92.99,31c-3.92,1.15-13.5-0.51-11,8
				C320.01,334.57,353.44,315.67,384.97,300.21z"/>
			<path fill="#BF0000" d="M399.97,143.23c1.24,2.29-3.31,7.33-3,12c-2.89-0.45-2.359-4.3-5-5
				C394.29,147.55,398.49,146.75,399.97,143.23z"/>
			<path fill="#BF0000" d="M354.97,161.23c-2,0-4,0-6,0c0.31-2.36,3.48-1.86,3-5C353.14,157.73,354.86,158.68,354.97,161.23z"/>
			<path fill="#BF0000" d="M345.98,188.23c4.85,2.5-1.15,10.25,3.99,13c-1.76,2.65-7.37,5.38-9.99,3.99
				C339.13,196.72,343.71,193.63,345.98,188.23z"/>
			<path fill="#BF0000" d="M351.97,282.21c-22.73,10.93-49.59,17.74-76.99,24c-9.76-12.9-19.69-25.63-38.99-28.99
				C275.58,273.95,315.75,278.78,351.97,282.21z M276.98,302.21c21.81-4.52,42.76-9.9,61-18c-26.18-2.82-56.79-6.53-84.99-3.99
				C264.25,284.28,269.06,294.81,276.98,302.21z"/>
			<path fill="#BF0000" d="M311.98,66.24c-11.35,23.64-33.3,36.7-53.99,51C268.74,96.99,285.53,74.12,311.98,66.24z M269.98,105.24
				c12.58-9.42,25.59-18.41,34-32C289.01,79.6,276.33,93.59,269.98,105.24z"/>
			<path fill="#BF0000" d="M252.99,335.21c-0.2,4.8-1.54,8.46-2,13c-21.81,1.92-52.37,4.63-68.99-4
				C207.03,342.58,229.5,338.38,252.99,335.21z M247.99,346.21c0.32-2.35,1.58-3.76,1-7c-16.4,1.6-31.1,4.9-48,6
				C211.29,348.96,232.29,345.92,247.99,346.21z"/>
			<path fill="#BF0000" d="M161,322.21c7.74-28.19,71.29-32.65,84.99-10C218.63,316.52,191.1,320.65,161,322.21z M239.99,309.21
				c-18.85-15.08-66.6-7.89-72.99,10C191.64,316.19,217.92,314.8,239.99,309.21z"/>
			<path fill="#BF0000" d="M202.99,78.24c14.42,12.65-6.1,42.84-22.99,43c-9.64,0.08-23.14-12.88-26,3.99
				c-2.77,16.32,14.41,31.92,30,33c-11.98,22.7-44.08,33.91-74,42C125.08,147.64,153.48,99.72,202.99,78.24z M179,117.24
				c14.89,0.41,29.03-18.99,23.99-34c-1,0-2,0-3,0c-7.57,2.8-14.75,8.53-21.99,14c-6.05,4.57-16.85,10.77-16,16
				C168.97,110.6,172.63,117.06,179,117.24z M115,196.23c23.65-8.7,52.43-17.55,63-36c-17.47-3.27-27.66-18.9-27-37
				C136.37,144.27,120.78,169.67,115,196.23z"/>
			<path fill="#BF0000" d="M192.99,250.22c2.65,0.36,0.91,5.09,3,6c-1.37,1.96-6.12,0.54-7.99,2
				C188.98,254.88,192,253.56,192.99,250.22z"/>
			<path fill="#BF0000" d="M165,204.23c4.09,2.74-3.68,10.08-3,15.99c-8.24,11.011-52.29,35.45-57.99,7
				C126.29,221.51,147.59,214.82,165,204.23z M161,213.22c-0.11-1.22-0.3-2.36-2-2c-15.55,7.78-32.16,14.51-52,18
				C117.44,249.08,156.47,226.98,161,213.22z"/>
			<path fill="#BF0000" d="M164,284.21c-13.47,8.53-25.42,18.59-29,37c-16.12-1.21-31.06-3.6-41.99-10
				C110.52,296.06,136.98,289.86,164,284.21z M133,318.21c1.26-12.74,8.79-19.21,15-27c-18.49,4.18-35.22,10.11-48.99,19
				C107.86,315.35,120.79,316.42,133,318.21z"/>
			<path fill="#BF0000" d="M70.01,120.24c6.78,11.09-5.89,30,5,36.99c-7.72,12.94-13.99,27.34-19,43
				C27.36,185,32.67,121.6,70.01,120.24z M71.01,157.23c-10.04-7.51,1.54-21.43-3-34c-28.85,3.97-37.56,55.51-13,71
				C58.85,180.4,64.46,168.35,71.01,157.23z"/>
		</g>
	</g>
</g>
</svg>
