<?xml version="1.0" encoding="utf-8"?>
<!-- Generator: Adobe Illustrator 14.0.0, SVG Export Plug-In . SVG Version: 6.00 Build 43363)  -->
<!DOCTYPE svg PUBLIC "-//W3C//DTD SVG 1.0//EN" "http://www.w3.org/TR/2001/REC-SVG-20010904/DTD/svg10.dtd">
<svg version="1.0" xmlns="http://www.w3.org/2000/svg" xmlns:xlink="http://www.w3.org/1999/xlink" x="0px" y="0px" width="612px"
	 height="792px" viewBox="0 0 612 792" enable-background="new 0 0 612 792" xml:space="preserve">
<g id="Layer_2_x23_F6C4BA">
	<g>
		<g>
			<path fill="#F6C4BA" d="M272.76,405.94c2,1.25,0.25,6.159,0.77,8.859c-5.66,2.69-9.57-1.78-12.33-4.59
				C264.61,409.63,271.07,410.51,272.76,405.94z"/>
			<path fill="none" d="M237.21,282.42c2.61,22.95-2.85,39.64-25.27,36.84c-21.98-2.74-28.05-39.97-17.82-58.66
				c4.32-7.89,15.9-15.82,26.69-9.39C228.95,256.07,235.79,269.88,237.21,282.42z M225.8,275.18c3.27,0.84,5.9,7.02,7.91,4.53
				c-3.62-10.42-12.45-27.32-25.34-25.12c-13.25,2.27-19.83,52.78-2.5,54.85C199.85,291.95,207.13,270.39,225.8,275.18z
				 M226.44,293.78c1.02-3.6,0.46-6.31-3.45-7.13C221.15,289.09,222.18,294.56,226.44,293.78z"/>
			<path fill="#F6C4BA" d="M374.82,654.28c0.27,5.069-4.57,10.39-8.98,9.609c-4.729-0.83-8.71-13.489-12.16-17.859
				c-8.3-10.53-24.609-19.75-31.52-26.09c4.3-5.16,10.39-11.921,16.97-11.29c13.021,1.27,24.83,35.77,31.28,44.68
				C372.46,653.08,373.8,653.52,374.82,654.28z"/>
			<path fill="#F6C4BA" d="M212.52,609.63c7.72,15.46-9.7,17.08-19.76,21.87C191.57,616.79,206.24,613.71,212.52,609.63z"/>
			<path fill="#F6C4BA" d="M172.83,532.09c2.37,9.2-1.06,24.29,4.89,31.94c-17.94,11.109-11.14-21.57-28.97-18.98
				c-6.42,8.67-0.93,25.07-0.47,35.41c-4.73,1.78-6.29,2.45-12.41,1.6c-3.32-8.63-4.72-26.729-1.29-36.31
				c-15.15,3.88-16.59,21.84-32.2,25.25c-1.49-15.99,12.71-23.36,19.91-33.38c-1.68-4.26-4.05,1.87-7.1,1.68
				c2.88-6.31,7.92-10.41,11.72-15.78c2.01-1.199-1.73,5.54-1.88,7.94c8.84-10.37,15.51-22.95,26.96-30.63
				c7.95,0.42,13.26,3.41,19.41,5.57c-1.98,6.64-5.54,11.659-7.33,18.489C164.75,529.47,170.16,529.45,172.83,532.09z"/>
			<path fill="#F6C4BA" d="M420.25,365.4c8.53-2.27,30.54,0.38,19.31,12.65c-7.71,1.1-10.829-2.27-16.779-2.88
				c5.22,8.55-7.59,21.27-19.71,17.44c1.75-9.73,1.26-20.47,1.27-29.19c6.78-6.5,10.69-15.94,23.24-16.52
				c0.54,5.64-1.62,8.52-1.08,14.15C424.88,362.98,420.1,361.66,420.25,365.4z"/>
			<path fill="#F6C4BA" d="M345.39,336.08c0.92,37.59-37.939,58.55-69,62.82c-4.82,4.729-13.9,10.739-19.5,2.399
				c-31.32,1.82-70.6,8.38-91.1-6.52c-15.43-11.21-27.44-30.06-34.78-47.38c-21.13,2.02-31.16-13.76-31.41-34.94
				c2.41-2.61,4.37-5.68,8.06-6.97c5.57,0.78,13.36,12.11,14.94,8.16c3.94,1.13,8.53,9.16,15.8,9.95
				c5.54-6.27,14.08-9.48,18.81-16.57c-7,2.97-11.35,8.67-18.73,11.26c-4.07-10.6-6.46-22.83-5.7-38.14
				c1.17-4.88,2.76,2.48,6.19,0.97c-4.89-34.39,10.93-55.12,21.37-76.74c24.95-15.58,71.84-31.68,102.83-10.15
				c19.17-14.35,44.51-2.99,57.39,11.39c4.4,4.9,11.061,13.18,13.04,17.87c10.221,24.24,2.24,56.27-1.06,80.55
				c0.85,2.67-2,1.54-3.57,1.72C335.19,316.38,345.03,321.35,345.39,336.08z M333.5,365.13c2.46-8.24,2.97-24.22-5.85-26.63
				c-2.891,3.37,4.529,5.06,1.67,7.99c-52.94,5.01-117.73,6.57-171.68-4.93c0.53-2.16,3.45-1.84,2.73-5.28
				c-5.92,1.1-8.77,5.36-8.14,13.18c3.2,0.89,0.79-3.97,3.58-3.5c21.99,38.09,78.11,55.26,139.29,44.34
				c0.57-2.96,3.47-2.05,5.36-3.47c11.61-8.74,19.71-21.83,31.38-30.57C332.28,359.33,330.42,364.64,333.5,365.13z M327.85,257.06
				c9.86-26.75-31.76-40.63-36.979-15.54c8.18-6.27,32.31-8.46,33.55,6.64C323.77,252.87,324.52,256.22,327.85,257.06z
				 M292.6,311.48c36.38,9.46,37.55-46.97,21.209-64.35c-34.209-4.72-43.7,45.15-27.379,62.49c-1.4-0.27-6.99-3.19-6.2-0.08
				c11.11,4.27,16.27,14.88,2.39,20.4c3.87,3.78,9.66-2.27,12.46-5.15C296.63,318.6,292.29,313.55,292.6,311.48z M211.94,319.26
				c22.42,2.8,27.88-13.89,25.27-36.84c-1.42-12.54-8.26-26.35-16.4-31.21c-10.79-6.43-22.37,1.5-26.69,9.39
				C183.89,279.29,189.96,316.52,211.94,319.26z M228.02,241.57c0.85-12.44-11.97-20.96-23.64-19.79
				c-15.89,1.61-30.23,22.03-27.92,35.93c5.12-13.59,13.67-30.2,30.48-28.81C216.78,229.71,220.03,237.05,228.02,241.57z
				 M126.77,333.18c-3.46-7.11-11.11-10.15-19.31-12.64c0.87,7.17,17.61,6.33,9.55,14.29C120.46,334.48,124.02,334.25,126.77,333.18
				z"/>
		</g>
	</g>
</g>
<g id="Layer_3_x23_FFFFFF">
	<g>
		<g>
			<path fill="#FFFFFF" d="M591.84,242.85c-33.17,60.13-69.04,117.5-85.79,194.5c-5.55-1.909,1.32-6.64,1.03-10.609
				c-0.47-6.431-5.271-9.681-14.03-9.92c1.57-12.19-14.33-18.311-17.62-6.431c-10.35-9.449-31.05,6.87-37.09-7.569
				c-4.24,0.92-4.95,4.84-8.87,1.649c0.69,6.431,5,3.58,7.95,0.99c0.271,2.07,1.021,3.67,1.7,5.33c7.03-1.9,11.34,2.62,17.72-0.65
				c-2.25,3.811-3.359,7.83-1.95,13.261c-3.59-0.101-5.33,1.699-7.13,3.439c-0.72,5.37,0.75,8.601,2.51,11.54
				c-7.909,4.65-3.35,15.97,1.5,20.39c-1.279,1.07-1.72,3.021-1.84,5.28c-13.43,1.58-19.3-11.06-29.12-7.46
				c-0.47-1.59-0.399-3.689-1.71-4.45c-2.3,1.74,0.841,5.53,1.681,7.101c10.229-3.061,16.02,9.569,28.239,6.569
				c4.301,3.101,9.25,5.551,14.95,7.28c-0.989,1.97-1.52,4.42-2.729,6.16c-18.87-5.51-40.65-8.18-55.54-17.55
				c7.71-26.47,17.359-50.96,22.3-80.27c24.75,5.84,23.53-23.12,2.04-20.33c3.03-39.94,12.8-75.75,10.42-118.49
				C486.96,253.79,544.06,246.3,591.84,242.85z M480.82,336.98c13.64-6.91,29.34,4.14,40.689,2.31
				c-12.25-3.52-26.64-10.81-40.649-4.96c-3.29-1.74-6.5-3.57-12.36-2.82c0.28-2.31-0.27-3.81-2.61-3.58
				c-3.14,0.06-3.26,3.24-7.109,2.57c0.56-3.17-0.971-4.3-1.69-6.22c-5.03-0.98-4.64,3.61-8.899,3.42
				c-1.82-0.26-0.16-3.92-2.61-3.58c-0.84,2.22-1.78,6.05,1.689,6.22c2.25,1.67,5.301-3.49,8.9-3.42c-0.62,3.22,0.53,4.72,1.69,6.22
				c4.76,1.3,4.72-2.33,8-2.55C468.36,336.84,476.72,332.13,480.82,336.98z M522.83,306.56c-5.62-4.72-13.51,0.92-21.24-0.28
				c-1.59-1.43-9.27-5.05-9.71-1.9C500.1,311.91,513.28,307.71,522.83,306.56z M507.91,363.9c0.01-0.88,0.02-1.77,0.04-2.65
				c-8.53-0.69-12.311,3.51-21.28,2.37c-3.56-5.04-12.87-4.14-16.82-0.22c-4.3-2.07-6.739-1.3-12.38-1.05
				c-0.83-2.69-1.739-5.3-2.55-8c-4.76-1.31-4.72,2.32-8,2.55c-0.51-1.59,2.64-3.64,0.061-4.43c-1.301,1.95-2.28,4.24-1.881,7.94
				c4.74,0.68,3.94-4.33,8.03-4.32c1.21,2.32,1.15,5.87,2.55,8c5.561-0.17,10.74,0.03,14.141,1.96c3.279-1.41,4.649-4.79,9.79-4.29
				C486.44,370.08,498.99,362.6,507.91,363.9z M493.4,390.27c-11.2-3.25-22.381,1.06-30.95-3.07c-2.8-1.35-3.59-4.37-6.12-5.39
				c-2.25-0.9-5.69,0.46-7.07-0.98c-0.77,2.49,1.221,2.31,0.83,4.44c3.23,0.62,3.42-1.87,6.21-1.69
				C460.79,392.36,484.15,391.94,493.4,390.27z M458.26,303.05c7.78,1.08,15.99,1.69,23,1.19c-6.399-4.84-21.6-1.1-24.67-9.18
				c-2.3,1.22-7.01-0.02-7.13,3.44c2.01,2.87,3.97-1.83,7.1-0.79C456.29,300.3,458.52,300.46,458.26,303.05z M445.81,440.98
				c0.721-6.961-4.989-3-9.689-3.671c-0.2-2.72-1.87-4-2.58-6.229c-1.54-0.08-2.75,0.16-3.55,0.84c0.31-2.05-0.09-3.4-0.82-4.439
				c-3.52-0.801-2.47,5.439-5.35,2.59c-0.021,1.47-0.04,2.949-0.061,4.42c2.83,0.819,1.87-2.271,3.58-2.61
				c0.91,2.57,2.641,2.98,5.28,1.851C433.36,441.65,440.94,437.78,445.81,440.98z"/>
			<path fill="none" d="M237.21,282.42c2.61,22.95-2.85,39.64-25.27,36.84c-21.98-2.74-28.05-39.97-17.82-58.66
				c4.32-7.89,15.9-15.82,26.69-9.39C228.95,256.07,235.79,269.88,237.21,282.42z M225.8,275.18c3.27,0.84,5.9,7.02,7.91,4.53
				c-3.62-10.42-12.45-27.32-25.34-25.12c-13.25,2.27-19.83,52.78-2.5,54.85C199.85,291.95,207.13,270.39,225.8,275.18z
				 M226.44,293.78c1.02-3.6,0.46-6.31-3.45-7.13C221.15,289.09,222.18,294.56,226.44,293.78z"/>
			<path fill="#FFFFFF" d="M484.07,426.44c13.479,3.409,11.21,31.689,0.38,38.069c-9.36-0.47-19.97-4.37-21.95-13.569
				C459.7,437.97,471.18,423.18,484.07,426.44z"/>
			<path fill="#FFFFFF" d="M404.2,641.38c1.899-1.92,2.6,1.18,5.3,0.96c-0.19,2.79-0.69,5.271-3.61,5.26
				C406.07,644.81,403.58,644.62,404.2,641.38z"/>
			<path fill="#FFFFFF" d="M398,642.19c0.33,5.79,6.33,6.06,6.92,11.6c-3.939-2.86-9.15-4.48-12.28-8.13
				C392.38,642.4,395.9,643.03,398,642.19z"/>
			<path fill="#FFFFFF" d="M389.95,648.28c4.149,3.55,13.45,5.68,11.34,12.54c-3.01-2.891-7.84-4.021-11.42-6.351
				C389.89,652.41,389.92,650.34,389.95,648.28z"/>
			<path fill="#FFFFFF" d="M387.18,657.09c4.9,1.05,7.11,4.73,13.21,4.61c-1.83,6.96-9.42,5.77-16.88,5.08
				C385.19,664.03,386.46,660.84,387.18,657.09z"/>
			<path fill="#FFFFFF" d="M380.51,692.42c4.58-14.34,32.681-1.01,18.42,12.63c-3.529,0.86-7.569,1.19-11.52,1.62
				C383.34,703.34,378.35,699.18,380.51,692.42z"/>
			<path fill="#FFFFFF" d="M298.22,354.93c8.09-5.34,20.97-0.26,30.16-4.03c-7.29,9.26-15.38,17.71-24.24,25.35
				c-30.62,6.23-74.63,3.17-107.15,2.13c-13.8-8.41-25.8-18.56-35.89-30.58c7.55-0.64,19.42,2.06,26.5,4.78
				c17.89-3.05,37.23,2.16,58.41,0.77c3.31-0.89,1.7,3.01,3.5,3.59c2.39,0.66-0.58-4.18,1.81-3.52c9.09,0.87,20.21-3.81,22.98,2.96
				C278.09,351.23,291.85,351.99,298.22,354.93z"/>
			<path fill="#FFFFFF" d="M306.67,251.47c13.44,0.27,14.33,25.05,11,39.09c-3.4-20.56-31.46-15.69-31.04,4.02
				C279.1,277.41,293.72,251.2,306.67,251.47z"/>
			<path fill="#FFFFFF" d="M303.55,286.83c4.03-0.42,4.49,5.78,1.68,7.11C301.03,294.36,302.88,288.89,303.55,286.83z"/>
			<path fill="#FFFFFF" d="M233.71,279.71c-2.01,2.49-4.64-3.69-7.91-4.53c-18.67-4.79-25.95,16.77-19.93,34.26
				c-17.33-2.07-10.75-52.58,2.5-54.85C221.26,252.39,230.09,269.29,233.71,279.71z"/>
			<path fill="#FFFFFF" d="M222.99,286.65c3.91,0.82,4.47,3.53,3.45,7.13C222.18,294.56,221.15,289.09,222.99,286.65z"/>
			<path fill="#FFFFFF" d="M194.97,665.17c2.59,0.39,0.64,5.21,2.57,6.24c-2.37,2.35-5.81,3.6-9.79,4.29
				c-0.31-4.2,5.49-2.141,7.14-4.33c-2.27-3.42-7.43,2.439-8.86-0.12C187.38,667.55,193.51,668.76,194.97,665.17z"/>
			<path fill="#FFFFFF" d="M184.42,659.72c3.44,1.311,6.22,3.261,11.47,2.811c-0.69,2.47-7.1,2.33-9.81,5.18
				C183.83,666.7,184.41,662.94,184.42,659.72z"/>
			<path fill="#FFFFFF" d="M159.18,626.63c15.38,1.76,1.3,26.82-9.05,14.93C150.91,634.29,154.97,630.38,159.18,626.63z"/>
		</g>
	</g>
</g>
<g id="Layer_4_x23_0054A6">
	<g>
		<g>
			<path fill="none" d="M237.21,282.42c2.61,22.95-2.85,39.64-25.27,36.84c-21.98-2.74-28.05-39.97-17.82-58.66
				c4.32-7.89,15.9-15.82,26.69-9.39C228.95,256.07,235.79,269.88,237.21,282.42z M225.8,275.18c3.27,0.84,5.9,7.02,7.91,4.53
				c-3.62-10.42-12.45-27.32-25.34-25.12c-13.25,2.27-19.83,52.78-2.5,54.85C199.85,291.95,207.13,270.39,225.8,275.18z
				 M226.44,293.78c1.02-3.6,0.46-6.31-3.45-7.13C221.15,289.09,222.18,294.56,226.44,293.78z"/>
			<path fill="#0054A6" d="M366.93,314.23c0.971-3.01,6.311-3.35,7.971-0.78C374.85,317.85,367.68,317.84,366.93,314.23z"/>
			<path fill="#0054A6" d="M370.58,305.43c1.09,4.1-3.5,2.39-4.48,4.36c-7.67-8.84-5.149-27.6-5.619-43.45
				c0.96-3.79,2.949-1.32,2.71-4.39c-2.46-36.74,6.869-84.57-6.48-112.51c-5.94,1.82-14.49-6.09-16.68-9.96
				c9.47,1.54,19.359,2.69,27.359,5.67C371.39,199.51,357.75,258.42,370.58,305.43z"/>
			<path fill="#0054A6" d="M386.24,192.32c-2.59,6-10.63,6.42-14.311,11.32c-1.979-5.94-0.09-15.64-0.58-23.02
				C378.13,182.75,380.34,189.33,386.24,192.32z"/>
			<path fill="#0054A6" d="M371.56,164.68c8.83,4.51,17.171,9.5,16.511,23.24C378.13,185.02,368.51,174.47,371.56,164.68z"/>
			<path fill="#0054A6" d="M400.02,355.39c1.591-0.09,1.851,1.11,3.53,0.93c-2.81,30.01-6.88,58.73-16.14,82.121
				c-30.32-4.141-73.65-15.16-98.28,1.35c-1.54-9.56-4.5-17.75-4.93-28.39C342.12,416.15,366.05,378.24,400.02,355.39z
				 M378.6,435.67c5.551-10.75,9.16-28.27,8.53-42.38C385.22,407.46,377.83,426.86,378.6,435.67z"/>
			<path fill="#0054A6" d="M341.87,602.49c0.13,1.04-0.22,1.58-0.91,1.76c-12.43,1.92-27.33,15.12-40.2,26.91
				c-12.43,11.399-23.15,22.1-32.26,29.68c-2.85,2.37-10.75,4.98-16.85,2.43c-10.08-4.21-20.43-17.979-27.03-31.34
				c-7.44-15.069-20.55-44.689-4.62-52.3c0.7,9.75,3.65,21.11,10.26,27.58c-10.8-17.35-0.99-34.09,3.32-50.41
				c6.33-23.939,11.14-52.729,13.45-79.5c1.06-12.319,1.4-25.59-3.05-37.22c-3.55-0.66-5.06,0.78-7.98,0.78
				c-3.72-0.79,3.45-4.42,3.64-7.03c-25.23,17.16-38.61,54.26-48.12,90.54c-6.44,1.17-17.23,4.35-23.02,0.58
				c0.64-6.82,4.16-10.67,6.4-15.851c4.3,3.391,6.64,8.681,11.36,11.66c-2-16.43-23.15-21.71-39.48-27.08
				c-2.59,2.351,3.12,4.94-0.98,7.07c-16.01-16.18,8.71-26.23,20.8-33.36c19.86-11.71,34.84-23.27,51.83-36.5
				c8.43-6.56,18.05-14.109,28.51-13.79c4.89,15.33,6.54,33.83,11.75,48.851c2.53-0.09,1.66-3.67,1.85-6.17
				c3.11-0.12,2.87,3.02,5.26,3.609c-0.91-3.63,1.01-4.35,2.73-5.279c2.87-0.75,1.2,2.899,2.61,3.58
				c1.72-0.921,0.28-5.101,2.72-5.28c2.86-0.74,1.18,2.93,3.51,2.7c2.46,0.43-0.63-4.83,1.83-4.4c2.65-2.479,1.35,3.82,4.38,3.6
				c0.84-1.8-0.32-5.59,1.87-7.939c3.31-0.9,1.36,3.34,4.39,2.71c2.55-1.23-2.34-4.83,0.08-6.19
				c9.06,18.261,16.15,43.101,17.72,65.74c11.851,22.25,9.38,58.44,19.271,82.58c-4.69,3.56-12.98,3.42-19.54,5.06
				C317.02,610.54,335.85,588.01,341.87,602.49z M264.27,645.73c-5.09,3.56-14.71,0.109-17.7-0.23
				C249.9,648.72,261.09,649.9,264.27,645.73z M191.75,506.67c-2.74-7.52-7.67-12.91-14.83-16.13
				C180.56,497.18,186.34,501.75,191.75,506.67z"/>
			<path fill="#0054A6" d="M355.73,156.51c4.329,15.3,5.55,33.62,4.6,54.06c-8.91,3.11-14.66,9.47-22.311,13.87
				c2.16-4.21-0.829-16.97,4.62-14.99c-4.55-15.96-13.55-27.57-26.979-34.88c6.359,11.01,26.46,20.8,19.77,44.52
				c-11.109-20.58-42.67-49.37-71.33-28.39c-32.4-23.82-85.66-5.33-111.73,14.46c-20.07,15.23-33.11,36.89-40.62,58.78
				c-10.99-8.84-10.05-32.43-0.33-41.62c-8.51,5.13-14.25,16.02-10.13,29.08c-19.97-17.14-39.19-34.68-62.19-49.51
				c-7.47-4.81-16.72-7.13-23.73-13.59c12.31-2.42,25.53,8.74,39.7,10.26c-9.66-5.73-20.84-9.99-32.57-13.71
				c41.78-20.8,85.66-39.44,119.53-68.35c-40.53,24.47-84.79,49.9-129.25,67.34c1.82-5.57,8.96-7.46,13.4-9.56
				c75.18-35.67,139.63-85.13,207.98-129.15c0.32,5.12-0.49,9.06-1.06,13.26c-22.47,16.11-45.23,31.91-67.04,48.69
				c12.5-3.96,22.89-13.84,33.92-21.68c11.13-7.92,21.82-16.56,33.94-22.57c30.07,35.66,69.75,61.96,105.01,92.57
				c-27.689-34.78-75.4-57.62-102.3-96.08c0.43-4.03-0.77-9.76,1.04-12.38c3.09-2.86,5.79,5.55,7.86,8.07
				c14.97,18.23,34.49,35.69,53.3,52.94C317.26,124.84,334.61,144.32,355.73,156.51z M229.21,151.29c6.67-0.38,15.1,2.65,20.38-1.5
				c-19.72-4.16-45.09,1.88-63.85,8.89c-16.99,6.35-34.63,13.64-40.19,26.03C167.57,166,195.27,153.23,229.21,151.29z"/>
		</g>
	</g>
</g>
<g id="Layer_5_x23_FFF200">
	<g>
		<g>
			<path fill="#FFF200" d="M280.67,410.47c1.65,11.79,3.52,23.36,5.74,34.601c-5.66,7.05-14.32,11.01-26.71,11.149
				c-3.3-12.8-6.29-25.91-9.22-39.069c2.2,0.159,3.68-0.41,4.45-1.71C262.73,424,275.85,423.69,280.67,410.47z"/>
			<path fill="#FFF200" d="M511.23,514.44c-2.9,4.8-8.631,6.689-13.41,9.56c-2.891-15.82-7.811-29.67-11.801-44.42
				c-1.319-1.33-3.869-1.48-6.17-1.85c1.851-10.61,16.62-16.351,18.08-28.98c1.2-10.27-3.83-20.51-12.05-25.83
				c-18.45-2.28-30.37,12.46-26.939,28.86c1.89,8.979,12.489,12.63,19.25,17.069c-4.221,21.091-12.591,42.69-10.62,67.141
				c-5.67,3.46-17.38,0.7-24.82,2.33c7.17-23.74,15.26-46.53,25.67-66.94c-4.75-2.939-13.04-2.439-14.939-8.17
				c-0.561-4.16,3.859-3.21,4.51-6.13c-3.54-3.54-9.91-4.33-8.69-12.51c2.67-3.99,6.21,2.33,8.87-1.65
				c-2.25-5.09-7.8-6.97-6.88-15.14c3.85-2.721,5.43,0.67,8.87-0.771c-8.13-14.59,7.729-22.58,16.06-9.529
				c2.66-2.95,2.05-9.25,6.33-10.54c6.58,1.069,9.05,8.75,6.01,14.25c3.24,0.96,12.11-1.54,14.131,2.84
				c0.989,6.399-2.19,8.52-4.58,11.45c5.34,3.8,10.909,16.34,0.64,18.6c2.77,4.55,4.46,10.18,1.56,15.95
				c-4.96,0.46-5.17-3.7-8.79-4.54C492.5,483.76,504.66,498.7,511.23,514.44z"/>
			<path fill="#FFF200" d="M386.05,341.04c-3.609,4.28-3.99-7.86-8.75-8.08c-1.7,2.91,2.9,7.6,0.73,11.52
				c-2.811-2.51-2.771-7.79-6.061-9.82c-2.489-0.16-2.58,2.13-2.72,4.39c-2.7-5.2-3.35-13.86,0.25-18.59
				c4.74,0.38,6.25-2.55,11.53-1.62C385.54,323.48,384.2,333.81,386.05,341.04z"/>
			<path fill="#FFF200" d="M341.62,286.45C337.19,279.6,341.79,276.2,341.62,286.45L341.62,286.45z"/>
			<path fill="#FFF200" d="M339.61,237.74c1.319,1.19,4.84,8.06,0.77,8.86C341.05,242.74,338.94,241.59,339.61,237.74z"/>
			<path fill="#FFF200" d="M153.18,210.48c-9.83,18.02-19.77,35.92-17.69,66.16c-1.82-0.27-1.74-2.38-2.61-3.57
				c-7.9,11.66-0.57,29.77,2.08,43.4c-7.55,0.65-10.51-10.73-15.73-15.26c-3.48,0.08-2.64,3.94-1.86,6.18
				c-4.87-0.2-5.38-4.66-8.77-6.32C110.97,258.05,127.37,229.43,153.18,210.48z M119.53,278.2c0.21-2.34,1.74-16.78,0.12-8.85
				c-1.75,8.51-4.24,23.44,0.51,28.34C120.03,292.38,118.81,286.3,119.53,278.2z"/>
		</g>
	</g>
</g>
<g id="Layer_6_x23_F26522">
	<g>
		<g>
			<path fill="none" d="M237.21,282.42c2.61,22.95-2.85,39.64-25.27,36.84c-21.98-2.74-28.05-39.97-17.82-58.66
				c4.32-7.89,15.9-15.82,26.69-9.39C228.95,256.07,235.79,269.88,237.21,282.42z M225.8,275.18c3.27,0.84,5.9,7.02,7.91,4.53
				c-3.62-10.42-12.45-27.32-25.34-25.12c-13.25,2.27-19.83,52.78-2.5,54.85C199.85,291.95,207.13,270.39,225.8,275.18z
				 M226.44,293.78c1.02-3.6,0.46-6.31-3.45-7.13C221.15,289.09,222.18,294.56,226.44,293.78z"/>
			<path fill="#F26522" d="M403.41,634.29c2.01-27.29,39.79-16.29,39.71,9.38c-0.07,25.19-27,42.41-36.15,56.18
				c3.84-16.43-23.29-23.47-29.989-8.369c-2.341,9.569,5.17,14.18,5.96,17.789c-15.221-0.609-22.66-8.8-23.591-23.329
				c1.42-3.921,7.53-3.04,8.07-7.86c-5.06,0.78-8.17,3.57-15.08,2.46c-5.99-5.771-2.8-18.35,2.95-22.1
				c4.37,0.989,3.49,7.079,6.07,9.819c17.02,3.16,21.149-16.899,11.84-25.51c4.2,0.39,6.41-1.79,9.74,0.12
				c5.029,10.38-2,21.96-6.57,28.25c6.26-2.98,16.8,1.439,23.05-2.36c8.5-5.17,7.9-20.22,15.39-26.35
				C412.41,638.34,408.38,635.86,403.41,634.29z"/>
			<path fill="#F26522" d="M218.7,677.88c10.98,7.9,2.52,30.89-8.47,37.96c-36.76,23.65-76.02-27.78-61.93-69.87
				c16.96,10.66,29.01-16.64,14.47-22.83c3.23-2.659,6.51-5.279,10.71-6.939c-0.19,4.92-5.11,11.34-1.08,15.04
				c2.25-13,15.44-26.891,28.59-19.99c-7.54,3.79-14.64,12.26-10.95,24.65c7.47,0.479,10.17-3.92,16.01-5.11
				c6.06,19.46-8.91,36.59-24.22,23.59c-3.02,9.36,1.43,18.99,3.19,26.601C195.27,678.67,208.43,670.5,218.7,677.88z"/>
		</g>
	</g>
</g>
<g id="Layer_1_x23_000000">
	<g>
		<g>
			<path fill="none" d="M622.3,14.85c-3.31,250.19-6.62,500.38-9.93,750.57c-212.13-2.81-424.26-5.61-636.39-8.42
				c3.31-250.49,6.63-500.97,9.94-751.46c211.25,2.8,422.49,5.6,633.74,8.39C620.92,13.87,622.17,13.82,622.3,14.85z M601.72,232.35
				c-1.05-0.14-1.989-1.6-2.66-0.03c-22.38,2.45-48.3,9.94-75.39,11.39c-32.439,1.75-63.22-5.49-91.07-9.17
				c7.94,33.08,1,75.78-7.59,105.25c-12.83-0.68-14.63,16.31-25.79,9.39c-12.35,10.22-26.55,22.68-42.06,33.97
				c-18.17,13.24-42.92,28.97-68.44,21.23c14.96-5.05,25.72-11.01,37.44-19.87c18.04-13.63,34.47-38.14,20.37-67.89
				c-2.11-4.46-7.4-7.19-7.8-12.5c-0.461-6.09,1.35-9.53,7.199-8.76c-0.949-12.47-0.56-26.25-1.26-38.97
				c0.58-1.79,4.48-0.18,3.59-3.49c0.92-9.63-1.88-15.64-3.229-23.06c2.01-2.14,7.34-5.58,9.79-4.3
				c-1.641,23.35-4.931,55.97-0.12,76.14c1.45,6.09,5.56,11.46,6.84,17.79c2.83,13.94-1.021,27.79,11.95,33.8
				c4.109-3,11.26-2.11,16.83-0.66c-2.181-14.48,3.489-36.6-9.2-40.85c-14.13-20.9-11.39-65.89-6.65-99.23
				c4.73-6.81,11.73-11.28,18.8-15.69c0.11-8.56-0.34-17.69,2.08-23.87c-7.88-9.51-23.92-11.07-20.83-31.26
				c-12.55-5.79-24.619-4.05-37.069-8.46c-14.641-5.19-28.46-22.65-39.38-34.16c-12.35-13.03-28.49-23.61-38.48-35.92
				c-7.94-9.8-12.52-23.77-21.72-31.27c-10.81,11.51-24.47,17.84-37.53,26.94C138.92,101.63,74.57,146.02,4.01,177.52
				c0.86,5.86,1.32,12.11,3.32,16.87c3.11,1.05,5.48,2.81,9.7,2.78c27.78,17.11,66.14,34.56,83.24,64.84
				c5.01,8.87,5.77,20.31,4.86,33.71c-21.72,16.11-8.64,61.15,24.03,57.86c11.37,16.15,15.55,36.65,33.01,47.35
				c21.34,13.09,57.46,7.4,86.66,7.351c-18.18,2.779-26.15,11.6-39.24,21.609c-16.03,12.25-31.66,22.03-50,32.091
				c-9.19,5.039-21.32,11.26-25.01,16.489c-3.85,5.48,3.56,18.17,2.33,24.82c-2.22,12.03-20.84,19.86-27.89,34.15
				c-1.38,2.8-1.54,6.21-2.78,8.819c-5.31,11.19-18.74,28.521,1.34,32.771c5.85-5.41,11.44-15.681,18.81-16.57
				c-0.95,10.83,2.01,17.85,4.98,24.85c6.43,4.721,18.99,3.03,23.05-2.35c-0.15-9.51-5.84-24.44-0.47-30.99
				c5.68,1.511,3.88,8.311,7.8,12.5c6.22,6.65,18.35,7.37,23.91-0.569c-8.27-7.78-6.15-21.841-5.74-34.601
				c6.61-0.39,13.67-0.319,18.62-2.41c9.11-31.92,13.51-68.67,40.05-82.68c6.89,46.74-14.52,80.78-17.6,125.47
				c-4.02,5.87-14.1,6.03-16.11,13.07c-1.85,6.5,3.82,11.43,2.39,20.39c-18.21-12.85-33.13,7.21-47.09,12.65
				c-31.22,23.69-27.48,75.21-1.31,99.14c4.47,4.08,13.26,11.32,19.31,12.65c12.91,2.83,29.51-2.7,37.3-9.25
				c12.52-10.53,16.68-30.17,11.28-49.42c-5.25-5.28-18.58,0.83-22.07-4.72c-1.84-5.771,6.07-4.37,8.11-10.521
				c2.83-8.54-3.23-19.59,0.34-25.67c12.61,15.39,23.3,32.65,41.93,42.17c3.57-1.13,8.24-1.12,11.54-2.51
				c15.89-15.98,31.9-31.84,51.05-44.47c6.47,3.489,12.18,6.329,18.439,11.75c3.7,3.21,13.051,11.42,13.051,17
				c0.01,5.52-8.37,13.02-7.36,21.14c0.69,5.58,4.89,8.71,11.35,11.66c-0.31,21.22,14,26.85,27.96,27.819
				c27.271,1.881,54.96-35.25,65.37-55.8c11.44-22.58-5.5-48.689-30.39-45.55c-9.561,1.21-20.75,10.61-17.12,22.79
				c-4.18-0.1-5.21,3.03-8.02,4.32c-4.171-5.95-17.41-5.58-23-1.19c-6.5-17.26-20.04-27.66-24.16-47.229
				c-1.79-2.051-7.931,0.14-9.721-1.9c-13.88-46.48-23.159-97.43-37.04-143.91c22.78-19.93,66.58-3.31,94.74-1.399
				c5.811-13.171,9.46-28.561,12.971-44.091c4.42,0.32,10.729-2.109,13.289-0.71c-4.3,23.99-12.06,44.431-21.199,63.46
				c16.72,9.94,40.39,13.091,58.14,22.021c-5.91,19.06-17.16,37.38-20.22,56.38c11.85,4.26,25.22-1.47,37.18-0.39
				c1.05-14.03,0.03-36.721,5.08-49.511c13.78,5.511,11.21,26.95,17.18,40.07c9.78-2.81,12.851-12.53,24.08-13.85
				c-3.91-16.16-25.89-34.75-9.939-51.471c0.05-3.83-1.98-5.649-1.641-9.76c6.061-4.66,4.4-10.57,5.57-19.41
				c2.41-18.31,11.11-38.229,17.55-55.53C550.38,326.67,577.09,281.22,601.72,232.35z"/>
			<path d="M599.06,232.32c0.671-1.57,1.61-0.11,2.66,0.03c-24.63,48.87-51.34,94.32-71.92,149.55
				c-6.439,17.3-15.14,37.22-17.55,55.53c-1.17,8.84,0.49,14.75-5.57,19.41c-0.34,4.11,1.69,5.93,1.641,9.76
				c-15.95,16.721,6.029,35.311,9.939,51.471c-11.229,1.319-14.3,11.04-24.08,13.85c-5.97-13.12-3.399-34.56-17.18-40.07
				c-5.05,12.79-4.03,35.48-5.08,49.511c-11.96-1.08-25.33,4.649-37.18,0.39c3.06-19,14.31-37.32,20.22-56.38
				c-17.75-8.93-41.42-12.08-58.14-22.021c9.14-19.029,16.899-39.47,21.199-63.46c-2.56-1.399-8.869,1.03-13.289,0.71
				c-3.511,15.53-7.16,30.92-12.971,44.091c-28.16-1.91-71.96-18.53-94.74,1.399c13.88,46.48,23.16,97.43,37.04,143.91
				c1.79,2.04,7.931-0.15,9.721,1.9c4.12,19.569,17.66,29.97,24.16,47.229c5.59-4.39,18.829-4.76,23,1.19
				c2.81-1.29,3.84-4.42,8.02-4.32c-3.63-12.18,7.56-21.58,17.12-22.79c24.89-3.14,41.83,22.97,30.39,45.55
				c-10.41,20.55-38.1,57.681-65.37,55.8c-13.96-0.97-28.27-6.6-27.96-27.819c-6.46-2.95-10.659-6.08-11.35-11.66
				c-1.01-8.12,7.37-15.62,7.36-21.14c0-5.58-9.351-13.79-13.051-17c-6.26-5.421-11.97-8.261-18.439-11.75
				c-19.15,12.63-35.16,28.489-51.05,44.47c-3.3,1.39-7.97,1.38-11.54,2.51c-18.63-9.52-29.32-26.78-41.93-42.17
				c-3.57,6.08,2.49,17.13-0.34,25.67c-2.04,6.15-9.95,4.75-8.11,10.521c3.49,5.55,16.82-0.561,22.07,4.72
				c5.4,19.25,1.24,38.89-11.28,49.42c-7.79,6.55-24.39,12.08-37.3,9.25c-6.05-1.33-14.84-8.57-19.31-12.65
				c-26.17-23.93-29.91-75.449,1.31-99.14c13.96-5.44,28.88-25.5,47.09-12.65c1.43-8.96-4.24-13.89-2.39-20.39
				c2.01-7.04,12.09-7.2,16.11-13.07c3.08-44.689,24.49-78.729,17.6-125.47c-26.54,14.01-30.94,50.76-40.05,82.68
				c-4.95,2.091-12.01,2.021-18.62,2.41c-0.41,12.76-2.53,26.82,5.74,34.601c-5.56,7.939-17.69,7.22-23.91,0.569
				c-3.92-4.189-2.12-10.989-7.8-12.5c-5.37,6.55,0.32,21.48,0.47,30.99c-4.06,5.38-16.62,7.07-23.05,2.35
				c-2.97-7-5.93-14.02-4.98-24.85c-7.37,0.89-12.96,11.16-18.81,16.57c-20.08-4.25-6.65-21.58-1.34-32.771
				c1.24-2.609,1.4-6.02,2.78-8.819c7.05-14.29,25.67-22.12,27.89-34.15c1.23-6.65-6.18-19.34-2.33-24.82
				c3.69-5.229,15.82-11.45,25.01-16.489c18.34-10.061,33.97-19.841,50-32.091c13.09-10.01,21.06-18.83,39.24-21.609
				c-29.2,0.05-65.32,5.739-86.66-7.351c-17.46-10.7-21.64-31.2-33.01-47.35c-32.67,3.29-45.75-41.75-24.03-57.86
				c0.91-13.4,0.15-24.84-4.86-33.71c-17.1-30.28-55.46-47.73-83.24-64.84c-4.22,0.03-6.59-1.73-9.7-2.78
				c-2-4.76-2.46-11.01-3.32-16.87c70.56-31.5,134.91-75.89,196.33-118.68c13.06-9.1,26.72-15.43,37.53-26.94
				c9.2,7.5,13.78,21.47,21.72,31.27c9.99,12.31,26.13,22.89,38.48,35.92c10.92,11.51,24.74,28.97,39.38,34.16
				c12.45,4.41,24.52,2.67,37.069,8.46c-3.09,20.19,12.95,21.75,20.83,31.26c-2.42,6.18-1.97,15.31-2.08,23.87
				c-7.069,4.41-14.069,8.88-18.8,15.69c-4.739,33.34-7.479,78.33,6.65,99.23c12.689,4.25,7.02,26.37,9.2,40.85
				c-5.57-1.45-12.721-2.34-16.83,0.66c-12.971-6.01-9.12-19.86-11.95-33.8c-1.28-6.33-5.39-11.7-6.84-17.79
				c-4.811-20.17-1.521-52.79,0.12-76.14c-2.45-1.28-7.78,2.16-9.79,4.3c1.35,7.42,4.149,13.43,3.229,23.06
				c0.891,3.31-3.01,1.7-3.59,3.49c0.7,12.72,0.311,26.5,1.26,38.97c-5.85-0.77-7.66,2.67-7.199,8.76
				c0.399,5.31,5.689,8.04,7.8,12.5c14.1,29.75-2.33,54.26-20.37,67.89c-11.72,8.86-22.48,14.82-37.44,19.87
				c25.52,7.74,50.27-7.99,68.44-21.23c15.51-11.29,29.71-23.75,42.06-33.97c11.16,6.92,12.96-10.07,25.79-9.39
				c8.59-29.47,15.53-72.17,7.59-105.25c27.851,3.68,58.631,10.92,91.07,9.17C550.76,242.26,576.68,234.77,599.06,232.32z
				 M506.05,437.35c16.75-77,52.62-134.37,85.79-194.5c-47.78,3.45-104.88,10.94-151.38-0.24c2.38,42.74-7.39,78.55-10.42,118.49
				c21.49-2.79,22.71,26.17-2.04,20.33c-4.94,29.31-14.59,53.8-22.3,80.27c14.89,9.37,36.67,12.04,55.54,17.55
				c1.21-1.74,1.74-4.19,2.729-6.16c-5.7-1.729-10.649-4.18-14.95-7.28c-12.22,3-18.01-9.63-28.239-6.569
				c-0.84-1.57-3.98-5.36-1.681-7.101c1.311,0.761,1.24,2.86,1.71,4.45c9.82-3.6,15.69,9.04,29.12,7.46
				c0.12-2.26,0.561-4.21,1.84-5.28c-4.85-4.42-9.409-15.739-1.5-20.39c-1.76-2.939-3.229-6.17-2.51-11.54
				c1.8-1.74,3.54-3.54,7.13-3.439c-1.409-5.431-0.3-9.45,1.95-13.261c-6.38,3.271-10.689-1.25-17.72,0.65
				c-0.68-1.66-1.43-3.26-1.7-5.33c-2.95,2.59-7.26,5.44-7.95-0.99c3.92,3.19,4.63-0.729,8.87-1.649
				c6.04,14.439,26.74-1.88,37.09,7.569c3.29-11.88,19.19-5.76,17.62,6.431c8.76,0.239,13.561,3.489,14.03,9.92
				C507.37,430.71,500.5,435.44,506.05,437.35z M497.82,524c4.779-2.87,10.51-4.76,13.41-9.56
				c-6.57-15.74-18.73-30.681-19.711-48.95c3.62,0.84,3.83,5,8.79,4.54c2.9-5.771,1.21-11.4-1.56-15.95
				c10.27-2.26,4.7-14.8-0.64-18.6c2.39-2.931,5.569-5.051,4.58-11.45c-2.021-4.38-10.891-1.88-14.131-2.84
				c3.04-5.5,0.57-13.181-6.01-14.25c-4.28,1.29-3.67,7.59-6.33,10.54c-8.33-13.051-24.189-5.061-16.06,9.529
				c-3.44,1.44-5.021-1.95-8.87,0.771c-0.92,8.17,4.63,10.05,6.88,15.14c-2.66,3.98-6.2-2.34-8.87,1.65
				c-1.22,8.18,5.15,8.97,8.69,12.51c-0.65,2.92-5.07,1.97-4.51,6.13c1.899,5.73,10.189,5.23,14.939,8.17
				c-10.41,20.41-18.5,43.2-25.67,66.94c7.44-1.63,19.15,1.13,24.82-2.33c-1.971-24.45,6.399-46.05,10.62-67.141
				c-6.761-4.439-17.36-8.09-19.25-17.069c-3.431-16.4,8.489-31.141,26.939-28.86c8.22,5.32,13.25,15.561,12.05,25.83
				c-1.46,12.63-16.229,18.37-18.08,28.98c2.301,0.369,4.851,0.52,6.17,1.85C490.01,494.33,494.93,508.18,497.82,524z
				 M484.45,464.51c10.83-6.38,13.1-34.66-0.38-38.069c-12.891-3.261-24.37,11.529-21.57,24.5
				C464.48,460.14,475.09,464.04,484.45,464.51z M477.96,486.56c2.2-0.119,6.6,5,7.07,0.971c-2.36-1.49-0.28-7.3-5.23-6.261
				C478.24,482.06,477.81,484.01,477.96,486.56z M443.12,643.67c0.08-25.67-37.7-36.67-39.71-9.38c4.97,1.57,9,4.05,11.399,8.12
				c-7.489,6.13-6.89,21.18-15.39,26.35c-6.25,3.8-16.79-0.62-23.05,2.36c4.57-6.29,11.6-17.87,6.57-28.25
				c-3.33-1.91-5.54,0.27-9.74-0.12c9.31,8.61,5.18,28.67-11.84,25.51c-2.58-2.74-1.7-8.83-6.07-9.819
				c-5.75,3.75-8.94,16.329-2.95,22.1c6.91,1.11,10.021-1.68,15.08-2.46c-0.54,4.82-6.65,3.939-8.07,7.86
				c0.931,14.529,8.37,22.72,23.591,23.329c-0.79-3.609-8.301-8.22-5.96-17.789c6.699-15.101,33.829-8.061,29.989,8.369
				C416.12,686.08,443.05,668.86,443.12,643.67z M439.56,378.05c11.23-12.27-10.779-14.92-19.31-12.65
				c-0.15-3.74,4.63-2.42,6.25-4.35c-0.54-5.63,1.62-8.51,1.08-14.15c-12.55,0.58-16.46,10.02-23.24,16.52
				c-0.01,8.72,0.48,19.46-1.27,29.19c12.12,3.83,24.93-8.89,19.71-17.44C428.73,375.78,431.85,379.15,439.56,378.05z M409.5,642.34
				c-2.7,0.22-3.4-2.88-5.3-0.96c-0.62,3.24,1.87,3.43,1.689,6.22C408.81,647.61,409.31,645.13,409.5,642.34z M403.55,356.32
				c-1.68,0.18-1.939-1.02-3.53-0.93c-33.97,22.85-57.899,60.76-115.819,56.01c0.43,10.64,3.39,18.83,4.93,28.39
				c24.63-16.51,67.96-5.49,98.28-1.35C396.67,415.05,400.74,386.33,403.55,356.32z M404.92,653.79c-0.59-5.54-6.59-5.81-6.92-11.6
				c-2.1,0.84-5.62,0.21-5.36,3.47C395.77,649.31,400.98,650.93,404.92,653.79z M401.29,660.82c2.11-6.86-7.19-8.99-11.34-12.54
				c-0.03,2.06-0.061,4.13-0.08,6.189C393.45,656.8,398.28,657.93,401.29,660.82z M400.39,661.7c-6.1,0.12-8.31-3.561-13.21-4.61
				c-0.72,3.75-1.989,6.94-3.67,9.69C390.97,667.47,398.56,668.66,400.39,661.7z M398.93,705.05
				c14.261-13.64-13.84-26.97-18.42-12.63c-2.16,6.76,2.83,10.92,6.9,14.25C391.36,706.24,395.4,705.91,398.93,705.05z
				 M388.07,187.92c0.66-13.74-7.681-18.73-16.511-23.24C368.51,174.47,378.13,185.02,388.07,187.92z M377.3,332.96
				c4.76,0.22,5.141,12.36,8.75,8.08c-1.85-7.23-0.51-17.56-5.02-22.2c-5.28-0.93-6.79,2-11.53,1.62
				c-3.6,4.73-2.95,13.39-0.25,18.59c0.14-2.26,0.23-4.55,2.72-4.39c3.29,2.03,3.25,7.31,6.061,9.82
				C380.2,340.56,375.6,335.87,377.3,332.96z M371.93,203.64c3.681-4.9,11.721-5.32,14.311-11.32c-5.9-2.99-8.11-9.57-14.891-11.7
				C371.84,188,369.95,197.7,371.93,203.64z M365.84,663.89c4.41,0.78,9.25-4.54,8.98-9.609c-1.021-0.761-2.36-1.2-4.41-0.95
				c-6.45-8.91-18.26-43.41-31.28-44.68c-6.58-0.631-12.67,6.13-16.97,11.29c6.91,6.34,23.22,15.56,31.52,26.09
				C357.13,650.4,361.11,663.06,365.84,663.89z M374.9,313.45c-1.66-2.57-7-2.23-7.971,0.78
				C367.68,317.84,374.85,317.85,374.9,313.45z M366.1,309.79c0.98-1.97,5.57-0.26,4.48-4.36c-12.83-47.01,0.81-105.92-3.19-160.28
				c-8-2.98-17.89-4.13-27.359-5.67c2.189,3.87,10.739,11.78,16.68,9.96c13.35,27.94,4.021,75.77,6.48,112.51
				c0.239,3.07-1.75,0.6-2.71,4.39C360.95,282.19,358.43,300.95,366.1,309.79z M360.33,210.57c0.95-20.44-0.271-38.76-4.6-54.06
				c-21.12-12.19-38.471-31.67-56.9-48.56c-18.81-17.25-38.33-34.71-53.3-52.94c-2.07-2.52-4.77-10.93-7.86-8.07
				c-1.81,2.62-0.61,8.35-1.04,12.38c26.9,38.46,74.61,61.3,102.3,96.08c-35.26-30.61-74.939-56.91-105.01-92.57
				c-12.12,6.01-22.81,14.65-33.94,22.57c-11.03,7.84-21.42,17.72-33.92,21.68c21.81-16.78,44.57-32.58,67.04-48.69
				c0.57-4.2,1.38-8.14,1.06-13.26c-68.35,44.02-132.8,93.48-207.98,129.15c-4.44,2.1-11.58,3.99-13.4,9.56
				c44.46-17.44,88.72-42.87,129.25-67.34c-33.87,28.91-77.75,47.55-119.53,68.35c11.73,3.72,22.91,7.98,32.57,13.71
				c-14.17-1.52-27.39-12.68-39.7-10.26c7.01,6.46,16.26,8.78,23.73,13.59c23,14.83,42.22,32.37,62.19,49.51
				c-4.12-13.06,1.62-23.95,10.13-29.08c-9.72,9.19-10.66,32.78,0.33,41.62c7.51-21.89,20.55-43.55,40.62-58.78
				c26.07-19.79,79.33-38.28,111.73-14.46c28.66-20.98,60.22,7.81,71.33,28.39c6.69-23.72-13.41-33.51-19.77-44.52
				c13.43,7.31,22.43,18.92,26.979,34.88c-5.449-1.98-2.46,10.78-4.62,14.99C345.67,220.04,351.42,213.68,360.33,210.57z
				 M276.39,398.9c31.06-4.271,69.919-25.23,69-62.82c-0.359-14.73-10.199-19.7-16.42-30.32c1.57-0.18,4.42,0.95,3.57-1.72
				c3.3-24.28,11.28-56.31,1.06-80.55c-1.979-4.69-8.64-12.97-13.04-17.87c-12.88-14.38-38.22-25.74-57.39-11.39
				c-30.99-21.53-77.88-5.43-102.83,10.15c-10.44,21.62-26.26,42.35-21.37,76.74c-3.43,1.51-5.02-5.85-6.19-0.97
				c-0.76,15.31,1.63,27.54,5.7,38.14c7.38-2.59,11.73-8.29,18.73-11.26c-4.73,7.09-13.27,10.3-18.81,16.57
				c-7.27-0.79-11.86-8.82-15.8-9.95c-1.58,3.95-9.37-7.38-14.94-8.16c-3.69,1.29-5.65,4.36-8.06,6.97
				c0.25,21.18,10.28,36.96,31.41,34.94c7.34,17.32,19.35,36.17,34.78,47.38c20.5,14.9,59.78,8.34,91.1,6.52
				C262.49,409.64,271.57,403.63,276.39,398.9z M340.96,604.25c0.69-0.18,1.04-0.72,0.91-1.76c-6.021-14.48-24.851,8.05-34.5-2.221
				c6.56-1.64,14.85-1.5,19.54-5.06c-9.891-24.14-7.42-60.33-19.271-82.58c-1.57-22.64-8.66-47.479-17.72-65.74
				c-2.42,1.36,2.47,4.96-0.08,6.19c-3.03,0.63-1.08-3.61-4.39-2.71c-2.19,2.35-1.03,6.14-1.87,7.939
				c-3.03,0.221-1.73-6.079-4.38-3.6c-2.46-0.43,0.63,4.83-1.83,4.4c-2.33,0.229-0.65-3.44-3.51-2.7c-2.44,0.18-1,4.359-2.72,5.28
				c-1.41-0.681,0.26-4.33-2.61-3.58c-1.72,0.93-3.64,1.649-2.73,5.279c-2.39-0.59-2.15-3.729-5.26-3.609
				c-0.19,2.5,0.68,6.08-1.85,6.17c-5.21-15.021-6.86-33.521-11.75-48.851c-10.46-0.319-20.08,7.23-28.51,13.79
				c-16.99,13.23-31.97,24.79-51.83,36.5c-12.09,7.13-36.81,17.181-20.8,33.36c4.1-2.13-1.61-4.72,0.98-7.07
				c16.33,5.37,37.48,10.65,39.48,27.08c-4.72-2.979-7.06-8.27-11.36-11.66c-2.24,5.181-5.76,9.03-6.4,15.851
				c5.79,3.77,16.58,0.59,23.02-0.58c9.51-36.28,22.89-73.38,48.12-90.54c-0.19,2.61-7.36,6.24-3.64,7.03
				c2.92,0,4.43-1.44,7.98-0.78c4.45,11.63,4.11,24.9,3.05,37.22c-2.31,26.771-7.12,55.561-13.45,79.5
				c-4.31,16.32-14.12,33.061-3.32,50.41c-6.61-6.47-9.56-17.83-10.26-27.58c-15.93,7.61-2.82,37.23,4.62,52.3
				c6.6,13.36,16.95,27.13,27.03,31.34c6.1,2.551,14-0.06,16.85-2.43c9.11-7.58,19.83-18.28,32.26-29.68
				C313.63,619.37,328.53,606.17,340.96,604.25z M341.62,286.45C341.79,276.2,337.19,279.6,341.62,286.45L341.62,286.45z
				 M340.38,246.6c4.07-0.8,0.55-7.67-0.77-8.86C338.94,241.59,341.05,242.74,340.38,246.6z M286.41,445.07
				c-2.22-11.24-4.09-22.811-5.74-34.601c-4.82,13.221-17.94,13.53-25.74,4.971c-0.77,1.3-2.25,1.869-4.45,1.71
				c2.93,13.159,5.92,26.27,9.22,39.069C272.09,456.08,280.75,452.12,286.41,445.07z M273.53,414.8c-0.52-2.7,1.23-7.609-0.77-8.859
				c-1.69,4.569-8.15,3.689-11.56,4.27C263.96,413.02,267.87,417.49,273.53,414.8z M210.23,715.84
				c10.99-7.07,19.45-30.06,8.47-37.96c-10.27-7.38-23.43,0.79-33.68,3.101c-1.76-7.61-6.21-17.24-3.19-26.601
				c15.31,13,30.28-4.13,24.22-23.59c-5.84,1.19-8.54,5.59-16.01,5.11c-3.69-12.391,3.41-20.86,10.95-24.65
				c-13.15-6.9-26.34,6.99-28.59,19.99c-4.03-3.7,0.89-10.12,1.08-15.04c-4.2,1.66-7.48,4.28-10.71,6.939
				c14.54,6.19,2.49,33.49-14.47,22.83C134.21,688.06,173.47,739.49,210.23,715.84z M192.76,631.5
				c10.06-4.79,27.48-6.41,19.76-21.87C206.24,613.71,191.57,616.79,192.76,631.5z M197.54,671.41c-1.93-1.03,0.02-5.851-2.57-6.24
				c-1.46,3.59-7.59,2.38-8.94,6.08c1.43,2.56,6.59-3.3,8.86,0.12c-1.65,2.189-7.45,0.13-7.14,4.33
				C191.73,675.01,195.17,673.76,197.54,671.41z M195.89,662.53c-5.25,0.45-8.03-1.5-11.47-2.811c-0.01,3.221-0.59,6.98,1.66,7.99
				C188.79,664.86,195.2,665,195.89,662.53z M177.72,564.03c-5.95-7.65-2.52-22.74-4.89-31.94c-2.67-2.64-8.08-2.62-8.76-7.2
				c1.79-6.83,5.35-11.85,7.33-18.489c-6.15-2.16-11.46-5.15-19.41-5.57c-11.45,7.68-18.12,20.26-26.96,30.63
				c0.15-2.4,3.89-9.14,1.88-7.94c-3.8,5.37-8.84,9.471-11.72,15.78c3.05,0.19,5.42-5.939,7.1-1.68
				c-7.2,10.02-21.4,17.39-19.91,33.38c15.61-3.41,17.05-21.37,32.2-25.25c-3.43,9.58-2.03,27.68,1.29,36.31
				c6.12,0.851,7.68,0.181,12.41-1.6c-0.46-10.34-5.95-26.74,0.47-35.41C166.58,542.46,159.78,575.14,177.72,564.03z M150.13,641.56
				c10.35,11.891,24.43-13.17,9.05-14.93C154.97,630.38,150.91,634.29,150.13,641.56z M135.49,276.64
				c-2.08-30.24,7.86-48.14,17.69-66.16c-25.81,18.95-42.21,47.57-44.58,90.59c3.39,1.66,3.9,6.12,8.77,6.32
				c-0.78-2.24-1.62-6.1,1.86-6.18c5.22,4.53,8.18,15.91,15.73,15.26c-2.65-13.63-9.98-31.74-2.08-43.4
				C133.75,274.26,133.67,276.37,135.49,276.64z"/>
			<path d="M521.51,339.29c-11.35,1.83-27.05-9.22-40.689-2.31c-4.101-4.85-12.46-0.14-14.96-6.39c-3.28,0.22-3.24,3.85-8,2.55
				c-1.16-1.5-2.311-3-1.69-6.22c-3.6-0.07-6.65,5.09-8.9,3.42c-3.47-0.17-2.529-4-1.689-6.22c2.45-0.34,0.79,3.32,2.61,3.58
				c4.26,0.19,3.869-4.4,8.899-3.42c0.72,1.92,2.25,3.05,1.69,6.22c3.85,0.67,3.97-2.51,7.109-2.57c2.341-0.23,2.891,1.27,2.61,3.58
				c5.86-0.75,9.07,1.08,12.36,2.82C494.87,328.48,509.26,335.77,521.51,339.29z"/>
			<path d="M501.59,306.28c7.73,1.2,15.62-4.44,21.24,0.28c-9.55,1.15-22.73,5.35-30.95-2.18
				C492.32,301.23,500,304.85,501.59,306.28z"/>
			<path d="M507.95,361.25c-0.021,0.88-0.03,1.77-0.04,2.65c-8.92-1.3-21.47,6.18-28.3-2.14c-5.141-0.5-6.511,2.88-9.79,4.29
				c-3.4-1.93-8.58-2.13-14.141-1.96c-1.399-2.13-1.34-5.68-2.55-8c-4.09-0.01-3.29,5-8.03,4.32c-0.399-3.7,0.58-5.99,1.881-7.94
				c2.579,0.79-0.57,2.84-0.061,4.43c3.28-0.23,3.24-3.86,8-2.55c0.811,2.7,1.72,5.31,2.55,8c5.641-0.25,8.08-1.02,12.38,1.05
				c3.95-3.92,13.261-4.82,16.82,0.22C495.64,364.76,499.42,360.56,507.95,361.25z"/>
			<path d="M462.45,387.2c8.569,4.13,19.75-0.18,30.95,3.07c-9.25,1.67-32.61,2.09-37.101-6.69c-2.79-0.18-2.979,2.31-6.21,1.69
				c0.391-2.13-1.6-1.95-0.83-4.44c1.38,1.44,4.82,0.08,7.07,0.98C458.86,382.83,459.65,385.85,462.45,387.2z"/>
			<path d="M481.26,304.24c-7.01,0.5-15.22-0.11-23-1.19c0.26-2.59-1.97-2.75-1.7-5.34c-3.13-1.04-5.09,3.66-7.1,0.79
				c0.12-3.46,4.83-2.22,7.13-3.44C459.66,303.14,474.86,299.4,481.26,304.24z"/>
			<path d="M436.12,437.31c4.7,0.671,10.41-3.29,9.689,3.671c-4.869-3.2-12.449,0.67-13.189-7.25c-2.64,1.13-4.37,0.72-5.28-1.851
				c-1.71,0.34-0.75,3.43-3.58,2.61c0.021-1.471,0.04-2.95,0.061-4.42c2.88,2.85,1.83-3.391,5.35-2.59
				c0.73,1.039,1.13,2.39,0.82,4.439c0.8-0.68,2.01-0.92,3.55-0.84C434.25,433.31,435.92,434.59,436.12,437.31z"/>
			<path d="M387.13,393.29c0.63,14.11-2.979,31.63-8.53,42.38C377.83,426.86,385.22,407.46,387.13,393.29z"/>
			<path d="M327.65,338.5c8.819,2.41,8.31,18.39,5.85,26.63c-3.08-0.49-1.22-5.8-1.66-8.87c-11.67,8.74-19.77,21.83-31.38,30.57
				c-1.89,1.42-4.79,0.51-5.36,3.47c-61.18,10.92-117.3-6.25-139.29-44.34c-2.79-0.47-0.38,4.39-3.58,3.5
				c-0.63-7.82,2.22-12.08,8.14-13.18c0.72,3.44-2.2,3.12-2.73,5.28c53.95,11.5,118.74,9.94,171.68,4.93
				C332.18,343.56,324.76,341.87,327.65,338.5z M328.38,350.9c-9.189,3.77-22.07-1.31-30.16,4.03c-6.37-2.94-20.13-3.7-23.92,1.45
				c-2.77-6.77-13.89-2.09-22.98-2.96c-2.39-0.66,0.58,4.18-1.81,3.52c-1.8-0.58-0.19-4.48-3.5-3.59
				c-21.18,1.39-40.52-3.82-58.41-0.77c-7.08-2.72-18.95-5.42-26.5-4.78c10.09,12.02,22.09,22.17,35.89,30.58
				c32.52,1.04,76.53,4.1,107.15-2.13C313,368.61,321.09,360.16,328.38,350.9z"/>
			<path d="M290.87,241.52c5.22-25.09,46.84-11.21,36.979,15.54c-3.33-0.84-4.08-4.19-3.43-8.9
				C323.18,233.06,299.05,235.25,290.87,241.52z"/>
			<path d="M313.81,247.13c16.341,17.38,15.171,73.81-21.209,64.35c-0.31,2.07,4.03,7.12,2.48,13.31c-2.8,2.88-8.59,8.93-12.46,5.15
				c13.88-5.52,8.72-16.13-2.39-20.4c-0.79-3.11,4.8-0.19,6.2,0.08C270.11,292.28,279.6,242.41,313.81,247.13z M317.67,290.56
				c3.33-14.04,2.44-38.82-11-39.09c-12.95-0.27-27.57,25.94-20.04,43.11C286.21,274.87,314.27,270,317.67,290.56z M305.23,293.94
				c2.81-1.33,2.35-7.53-1.68-7.11C302.88,288.89,301.03,294.36,305.23,293.94z"/>
			<path d="M246.57,645.5c2.99,0.34,12.61,3.79,17.7,0.23C261.09,649.9,249.9,648.72,246.57,645.5z"/>
			<path d="M249.59,149.79c-5.28,4.15-13.71,1.12-20.38,1.5c-33.94,1.94-61.64,14.71-83.66,33.42c5.56-12.39,23.2-19.68,40.19-26.03
				C204.5,151.67,229.87,145.63,249.59,149.79z"/>
			<path d="M237.21,282.42c2.61,22.95-2.85,39.64-25.27,36.84c-21.98-2.74-28.05-39.97-17.82-58.66c4.32-7.89,15.9-15.82,26.69-9.39
				C228.95,256.07,235.79,269.88,237.21,282.42z M225.8,275.18c3.27,0.84,5.9,7.02,7.91,4.53c-3.62-10.42-12.45-27.32-25.34-25.12
				c-13.25,2.27-19.83,52.78-2.5,54.85C199.85,291.95,207.13,270.39,225.8,275.18z M226.44,293.78c1.02-3.6,0.46-6.31-3.45-7.13
				C221.15,289.09,222.18,294.56,226.44,293.78z"/>
			<path d="M204.38,221.78c11.67-1.17,24.49,7.35,23.64,19.79c-7.99-4.52-11.24-11.86-21.08-12.67
				c-16.81-1.39-25.36,15.22-30.48,28.81C174.15,243.81,188.49,223.39,204.38,221.78z"/>
			<path d="M176.92,490.54c7.16,3.22,12.09,8.61,14.83,16.13C186.34,501.75,180.56,497.18,176.92,490.54z"/>
			<path d="M119.65,269.35c1.62-7.93,0.09,6.51-0.12,8.85c-0.72,8.1,0.5,14.18,0.63,19.49C115.41,292.79,117.9,277.86,119.65,269.35
				z"/>
			<path d="M107.46,320.54c8.2,2.49,15.85,5.53,19.31,12.64c-2.75,1.07-6.31,1.3-9.76,1.65
				C125.07,326.87,108.33,327.71,107.46,320.54z"/>
		</g>
	</g>
</g>
</svg>
