<?xml version="1.0" encoding="utf-8"?>
<!-- Generator: Adobe Illustrator 14.0.0, SVG Export Plug-In . SVG Version: 6.00 Build 43363)  -->
<!DOCTYPE svg PUBLIC "-//W3C//DTD SVG 1.0//EN" "http://www.w3.org/TR/2001/REC-SVG-20010904/DTD/svg10.dtd">
<svg version="1.0" xmlns="http://www.w3.org/2000/svg" xmlns:xlink="http://www.w3.org/1999/xlink" x="0px" y="0px" width="612px"
	 height="792px" viewBox="0 0 612 792" enable-background="new 0 0 612 792" xml:space="preserve">
<g id="Layer_2_x23_808284">
	<g>
		<g>
			<path fill="none" d="M221.425,287.906c-2.235,1.464-1.215,5.487-4.235,6.335c0.375-1.936,0.233-4.277,0.953-5.942
				c-2.952,0.406-3.721,2.527-6.271,3.249c-1.637-3.966,5.001-7.329,7.946-10.109c-5.4-11.198-8.243-33.04,2.961-37.816
				c-4.812,8.468-7.692,23.954-0.794,35.059c6.817-2.308,10.147-7.373,19.008-8.105c1.271,0.906,0.841,3.975,2.954,3.809
				c-3.646,5.328-13.92,5.414-14.216,13.358c-3.661-0.446-4.099-2.075-4.728,2.231C222.457,291.008,223.057,288.058,221.425,287.906
				z"/>
			<path fill="#808285" d="M294.103,672.091c-14.032,3.606-29.595-0.061-32.136-11.134c-1.989-8.642,3.349-26.763,7.066-38.291
				c5.371-16.686,11.585-27.784,17.733-39.586c0.977-0.967,2.93-1.166,3.907-2.133c7.058-14.772,13.83-29.754,16.75-47.794
				c3.896,3.852,5.673,10.438,11.422,11.951c-1.628-3.309-8.167-8.525-9.354-15.528c4.759,3.384,6.061,11.205,11.619,13.592
				c1.465-4.13-3.271-5.297-5.087-7.715c-6.856-9.168-14.681-24.672-20.609-39.987c-8.353-21.51-17.199-42.788-19.749-67.544
				c-1.792-1.207-3.808-2.11-4.693-4.433c-23.969-3.77-60.739-0.317-88.109,8.062c0.226-4.051,1.851-6.985,2.923-10.34
				c-5.72,2.923-5.215,10.753-8.078,15.952c-9.708-8.219-12.925-31.871-10.628-47.01c32.248,5.414,75.654,0.889,108.725-9.699
				c5.205,16.373,11.227,31.746,17.292,47.044c2.044-0.887-1.326-5.998,1.774-6.04c3.217-0.94,3.56,1.776,3.873,4.531
				c3.174-1.733-1.05-3.551,0.855-6.763c3.214,0.049,3.825-1.949,7.288-1.705c0.938,3.199,2.481,5.651,2.821,9.651
				c1.78-2.659-0.675-7.949-1.278-10.669c2.309-0.416,3.239-1.915,5.548-2.33c0.804,3.372,2.301,5.881,3.544,8.732
				c2.023-2.653-1.54-6.197-1.902-8.929c3.606-1.751,8.546-3.8,10.045,0.461c1.563-0.274-1.648-2.907,0.329-4.202
				c3.004-0.117,5.318-0.775,7.288-1.705c2.836,2.678,3.1,8.646,5.578,11.818c1.215-3.181-2.758-7.821-3.116-12.114
				c2.697-0.357,3.921-1.874,7.288-1.705c0.702,2.239,1.707,4.113,2.428,6.368c2.281-2.094-1.358-4.537-0.885-7.386
				c3.367,0.169,4.573-1.346,7.271-1.704c0.822,1.792,1.237,4.101,2.33,5.548c2.828-1.292-2.154-5.239,0.132-5.843
				c4.028-0.396,3.271,5.297,6.532,5.877c-7.099-12.92-6.34-39.008-4.85-54.362c4.612-0.587,7.405-2.604,10.275-4.561
				c5.201,1.579,7.453,6.911,13.393,7.552c2.856-3.95-6.763-2.45-4.07-6.172c25.024-6.242,50.3-16.035,75.08-26.479
				c10.88-4.582,29.9-19.678,33.747-3.212c-3.646,0.836-6.205,0.328-9.126,0.261c-1.305-1.908,1.352-4.203-0.492-4.104
				c-9.222,14.806-9.635,36.535-14.223,54.983c-26.008-8.191-57.557,3.376-79.838,14.562c-3.272,1.641-8.523,3.12-9.16,6.925
				c1.54,3.301,4.527-1.444,7.288-1.706c0.628,33.606,3.584,78.83,19.054,103.424c0.251-4.418-5.119-9.862-5.349-16.842
				c7.199,0.3,9.552,6.765,14.508,9.916c-0.272-3.436-2.998-3.751-3.347-7.091c30.241-11.914,54.319-28.656,83.256-41.611
				c4.625,7.043,8.016,15.654,13.423,21.701c-0.991,3.449-0.935,7.691-4.762,8.896c-3.731-4.219-2.677-6.998-0.556-11.588
				c-5.548,2.33-5.984,8.678-9.292,12.768c0.172,3.032-0.752,3.281,0.688,5.745c-14.81,29.541-25.102,69.71-38.261,104.482
				c-3.832,10.137-8.604,25.606-16.156,31.905c-10.755,8.954-26.009,9.603-40.38,17.325c14.1-15.199,36.156-30.572,49.971-48.444
				c-23.08,17.109-36.038,45.891-72.213,50.261c0.343,2.716,2.702,2.867,5.301,2.694c-18.233,7.336-42.073,12.604-63.736,16.795
				c-1.221,0.233-2.441,0.466-3.664,0.682c-0.146-0.068-0.294-0.138-0.439-0.189c-0.227,0.131-0.454,0.262-0.683,0.376
				c-11.978,2.077-24.072,3.77-29.421,12.389c2.819,1.674,5.039-2.096,8.01-2.625C286.975,667.309,294.333,668.941,294.103,672.091z
				 M359.91,554.336c-2.892-0.104-2.068-4.956-4.792-5.254c5.009,15.894,21.043-0.094,27.197-9.086
				c7.266-10.583,12.49-22.413,11.232-31.315C386.271,526.982,382.712,548.221,359.91,554.336z M405.628,512.228
				c-1.764,10.757-4.496,24.716-5.094,33.91C402.336,535.411,406.982,522.957,405.628,512.228z M358.897,427.938
				c5.177-6.586,12.496-11.504,15.99-19.397C368.88,413.977,361.937,422.613,358.897,427.938z M232.467,414.784
				c6.434,0.721,16.911,6.09,19.761,5.124C246.021,418.328,239.414,412.252,232.467,414.784z"/>
			<path fill="#808285" d="M133.021,112.875c-4.099,3.717-8.013,11.001-14.61,10.075c9.535-6.259,14.913-17.101,22.688-26.028
				c6.1-6.992,15.284-13.278,23.376-20.283c22.408-19.387,50.734-36.431,77.679-53.413c0.422-1.542,1.473-0.298,2.462-0.295
				c0.063,0.53,0.129,1.077,0.196,1.642C204.863,50.849,167.711,81.506,133.021,112.875z"/>
			<path fill="#808285" d="M117.983,126.332c-6.288,11.645-16.23,20.433-25.56,29.702
				C94.585,143.826,106.486,132.132,117.983,126.332z"/>
			<path fill="#808285" d="M10.11,254.141c-2.19-7.421,2.915-9.108,3.252-14.542C20.985,242.57,13.546,250.971,10.11,254.141z"/>
			<path fill="#808285" d="M62.021,187.149c-6.802,8.654-10.858,17.066-18.059,22.976c0.54-9.968,9.982-17.43,16.122-25.241
				c6.351-8.08,12.87-16.197,19.7-23.173c-0.476-1.365,0.446-1.631,1.444-1.838C80.384,170.051,68.625,178.727,62.021,187.149z"/>
			<path fill="#808285" d="M80.144,171.658c-5.7,27.981,4.202,68.21-34.907,69.949c4.012-7.626,8.355-20.443,2.303-29.413
				c8.997-15.23,22.226-27.135,31.586-42.079C79.915,170.038,79.879,171.048,80.144,171.658z"/>
			<path fill="#808285" d="M90.29,152.127c-1.465,43.204,4.499,92.247-45.809,97.062c-3.075-1.782-5.908-3.854-8.994-5.583
				c-5.545,1.046-10.081,0.827-14.148,0.031c-0.76-4.314,3.344-4.806,4.039-7.976c-3.358,0.628-3.858,6.445-6.894,4.988
				c-3.393-2.836-4.375-10.888-3.608-16.217c1.93-0.249,2.579,1.113,5.022,0.231c-0.22-2.558-0.923-4.52-2.33-5.548
				c1.433-2.08,3.171,3.453,6.138,2.594c1.273-2.112-1.481-5.129-1.082-9.027c3.486,6.225,9.943-1.833,13.623,2.53
				c1.218-1.273,2.569-2.441,2.791-4.497c13.221,2.942,10.495,23.751,1.899,29.741c3.295,7.236,19.7,3.311,24.193,0.431
				c8.194-5.283,12.039-21.977,14.318-33.35c6.249-31.36,0.466-76.436,19.646-93.094c8.722-1.028,14.962,1.121,18.299,6.964
				c-20.253-10.823-25.373,14.036-29.138,27.634C88.751,150.283,90.921,149.433,90.29,152.127z"/>
			<path fill="#808285" d="M98.146,280.203c-0.508-2.506-2.672-2.906-3.873-4.531c-29.385-2.653-56.528-8.159-81.835-16
				c0.925-5.453,3.779-9.419,5.814-13.999c4.905,0.696,8.32,3.287,15.166,1.513c5.184,1.287,6.641,5.049,12.276,5.188
				c41.861,0.967,49.475-50.848,45.972-88.756c42.697-52.412,93.471-98.49,156.098-135.252
				c7.016,24.827,13.411,50.405,23.525,71.271c-22.206,7.326-34.743,22.252-48.064,36.562c-3.858-1.081-5.309-5.226-9.814-5.484
				c-0.653,3.668,4.587,3.977,6.729,7.519c1.991,3.299,1.871,7.511,3.116,12.114c-12.679,14.319-32.078,23.355-36.313,44.311
				c-21.323,10.499-32.881,28.671-38.812,51.252c-8.224,0.986-10.163-5.927-16.477-5.5
				C117.37,241.339,109.097,275.057,98.146,280.203z M115.44,223.204c-8.165,4.083,4.345,17.88,8.139,12.344
				C117.702,234.986,114.948,229.229,115.44,223.204z M122.141,195.762c-2.366,4.428-7.643,10.611-3.975,15.461
				c5.839-22.188,20.586-37.344,33.492-53.962C140.832,165.755,129.397,182.214,122.141,195.762z M201.921,132.09
				c-2.104-0.337-8.918-1.481-8.01,2.625C196.313,133.629,202.448,135.479,201.921,132.09z"/>
		</g>
	</g>
</g>
<g id="Layer_3_x23_FFC20E">
	<g>
		<g>
			<path fill="none" d="M330.201,264.881c-2.164,1.334,2.804,1.398,2.133,3.907c-5.716-1.24-8.901-5.68-15.641-5.618
				c3.942-5.311,16.249-4.063,24.21-6.231c-0.691-3.455-4.285-12.459-0.949-14.871c0.185,7.037,3.69,9.808,4.429,16.119
				c3.243-1.741,4.496,4.23,9.52,3.021c0.131,1.094,0.263,2.188,0.394,3.283C342.975,265.97,339.688,267.057,330.201,264.881z"/>
			<path fill="#FFC20E" d="M429.275,438.634c-9.485,10.294-19.555,26.121-41.235,24.088c-6.517-23.846-7.779-50.594-5.271-71.776
				c14.442-8.72,35.042-16.565,58.008-16.109c15.959,15.656,14.241,56.463-16.688,55.261c0.689,3.872,6.448,1.274,10.144,1.282
				C436.356,434.334,431.44,436.293,429.275,438.634z M394.422,397.874c-10.912,10.69,4.084,34.231,16.866,29.596
				C398.594,427.481,389.17,411.649,394.422,397.874z"/>
			<path fill="#FFC20E" d="M274.972,442.973c-5.611-3.265-9.507-8.712-11.912-16.037c4.126-1.171,5.593,1.081,9.225,0.56
				C271.519,432.391,273.787,437.859,274.972,442.973z"/>
			<path fill="#FFC20E" d="M279.45,369.195c-4.337,9.972-19.32,11.577-32.37,14.701c-3.281-4.654-5.041-11.241-6.365-18.384
				c-11.762-8.997-23.747-22.753-29.342-36.443c6.587-0.754,6.91,8.451,9.879,12.968
				C230.964,356.795,255.762,369.502,279.45,369.195z"/>
			<path fill="#FFC20E" d="M198.775,286.458c-5.071-0.485-9.203,2.803-11.392,2.198c-13.409-31.571-7.042-72.657,13.279-90.649
				c4.639-4.129,11.897-7.964,19.008-8.105c0.688,5.745,1.377,11.49,2.065,17.235C201.084,222.653,190.025,252.664,198.775,286.458z
				"/>
			<path fill="#FFC20E" d="M366.494,345.445c-4.373,4.461-9.799,7.088-16.742,6.168c18.843-16.427,37.479-32.986,39.074-62.956
				c5.285-1.05,6.933-4.958,10.801-7.122c-0.484,17.956-4.894,32.828-10.184,47.006c8.442-6.544,9.13-31.341,13.073-50.683
				c1.218-5.904,4.299-11.598,3.778-17.102c-0.855-9.159-8.448-21.43-15.064-21.504c-8.665-0.089-9.414,9.436-14.118,14.179
				c-4.101-6.429-8.699-12.243-14.474-16.58c0.276-2.756,5.551-1.584,5.253-4.792c-9.01-1.227-17.951,4.042-27.805,4.165
				c-18.855,0.265-35.327-7.075-44.688-18.77c0.938,7.103,9.043,9.756,9.252,14.691c-45.855,23.74-95.557-9.95-80.415-52.782
				c5.218-14.777,25.03-30.072,46.389-29.701c18.7,0.326,42.462-8.349,60.483-2.253c12.436,4.198,28.553,14.373,39.355,22.755
				c25.467,19.737,51.098,52.428,52.933,94.369c0.393,8.919-1.538,18.135-1.679,27.673c-0.172,12.022-1.833,26.234,2.062,38.047
				c-11.405,4.835-34.583,19.684-50.229,18.506C370.086,348.5,369.059,346.872,366.494,345.445z M285.157,215.353
				c-0.093-1.064,0.906-1.271,0.525-2.56c-9.609-2.04-13.806-18.1-19.954-27.578c-1.646,5.227,3.142,12.18,6.267,17.563
				C275.078,208.098,278.933,215.371,285.157,215.353z"/>
		</g>
	</g>
</g>
<g id="Layer_4_x23_F2C9C9">
	<g>
		<g>
			<path fill="#F2C9C9" d="M326.982,376.819c-4.974,2.781-8.568,6.646-16.645,6.989c-2.311-3.365-3.721-7.896-5.579-11.818
				c6.782-0.865,14.483-1.007,17.76-4.626C325.089,369.12,326.637,372.195,326.982,376.819z"/>
			<path fill="#F2C9C9" d="M339.109,672.525c6.976,4.522,6.83,14.738,1.638,20.615c-16.879-9.146-38.927-15.558-52.847-31.129
				c5.765-2.841,12.831-4.659,18.325-7.729c0.374-0.062,0.748-0.124,1.122-0.187C319.108,658.74,326.91,668.42,339.109,672.525z"/>
			<path fill="#F2C9C9" d="M494.615,553.178c-4.687,1.272-6.539,4.772-12.738,4.856c-6.132-29.026,1.346-62.874,8.55-88.435
				c12.882,12.123-0.41,41.447,1.204,65.621C492.007,540.969,493.064,546.895,494.615,553.178z"/>
			<path fill="#F2C9C9" d="M556.28,359.331c-9.17,3.943-25.329,2.532-29.789-5.588C534.051,346.923,557.354,347.01,556.28,359.331z"
				/>
			<path fill="#F2C9C9" d="M554.053,333.791c2.42,2.398,4.77,7.961,2.197,11.392c-13.475,1.597-34.077,4.361-35.598-12.384
				C533.623,331.921,540.901,339.824,554.053,333.791z"/>
			<path fill="#F2C9C9" d="M556.057,322.729c-1.312,12.645-21.57,13.061-25.522,2.226c0.709-2.912,4.175-3.657,4.138-7.155
				C543.805,316.878,551.301,318.061,556.057,322.729z"/>
			<path fill="#F2C9C9" d="M474.198,355.015c-2.545,5.681-6.431,10.309-8.898,16.051c-0.147-14.256,4.313-31.301,8.837-44.348
				c7.741-0.095,16.25-4.063,23.309-6.956c1.066-13.534,38.864-21.151,32.499,0.268c-5.566,3.338-15.294,5.093-22.061,3.476
				c0.002,2.185,1.45,2.549,3.578,2.068c-2.823,11.178-6.225,21.87-11.232,31.315c-4.728-2.399-4.491-10.995-4.527-16.939
				c-2.755,0.312-1.833,3.515-2.692,5.317c-9.813,2.199-20.066,4.052-24.557,10.435
				C469.893,359.034,471.812,355.214,474.198,355.015z"/>
			<path fill="#F2C9C9" d="M141.764,428.983c-4.431,10.348-14.667,23.35-29.104,20.97c4.409-7.934,11.593-13.686,12.938-24.027
				c-11.412-0.869-30.31,2.8-40.278-2.665c4.517-12.96,26.372-8.312,39.624-9.743c-9.134-4.005-19.938-3.854-29.28-8.146
				c-8.314-3.825-17.03-9.111-19.595-17.631c18.267,3.222,31.226,13.237,51.602,13.796c3.288-1.365,2.761-5.76,6.698-6.63
				c-4.492,7.094-0.802,23.701,7.562,21.571c-6.044-2.536-9.079-19.03-2.129-24.719c-10.78-1.674-22.57-21.905-9.367-29.679
				c3.103,14.023,13.429,18.856,22.925,24.725c1.236,5.679,0.059,9.462,0.031,14.148c2.02,2.238,0.978-4.141,2.791-4.497
				c2.867,0.767,4.575,3.008,7.878,3.219c-1.29,9.936,2.776,20.999,4.459,30.267C161.09,436.414,146.109,438.903,141.764,428.983z"
				/>
			<path fill="#F2C9C9" d="M194.078,302.838c9.042,4.831,20.265,6,20.283,23.376c-18.136,2.069-31.802-16.741-24.943-34.472
				c2.913-1.893,6.549-2.953,10.571-2.099c0.937,6.374,4.057,9.972,5.972,15.101C202.093,304.011,199.86,301.157,194.078,302.838z"
				/>
			<path fill="#F2C9C9" d="M333.552,355.22c-10.244,6.274-13.2,14.746-31.746,12.961c-2.632-0.257-4.949-2.078-7.78-2.397
				c-12.114-1.375-22.242,0.22-32.793-2.73c-19.827-5.533-44.612-19.004-43.849-46.359c-24.798-27.622-24.681-87.713,4.845-105.455
				c8.66,22.913,37.327,36.942,63.71,31.474c7.396-1.528,14.861-7.833,23.112-8.597c8.304-0.752,17.798,5.533,27.326,5.882
				c7.998,0.308,13.749-2.064,22.159-2.655c8.253,5.914,14.26,14.646,20.283,23.376c4.397-5.417,3.255-16.259,11.263-17.167
				c9.925-1.12,16.844,19.712,10.4,31.22c-2.714,4.852-9.624,10.865-13.985,8.335c-1.249,22.575-12.479,44.646-30.342,59.412
				C350.728,347.022,341.306,350.458,333.552,355.22z M287.495,359.907c6.287,6.444,22.479,6.533,25.343-3.87
				C305.156,361.692,294.865,360.046,287.495,359.907z M296.03,354.721c34.639-2.573,43.067-41.356,51.696-68.631
				c1.304,2.48,3.783,8.409,7.254,4.958c-5.812-5.512-9.67-13.548-19.201-14.348c0.276,5.343,7.021,2.437,7.549,7.42
				c-8.441,3.509-17.62,7.384-27.1,9.907c-29.445,7.847-61.216,14.95-89.194,19.846c0.326-3.213,1.82-5.508,2.299-8.6
				c-6.203,3.379-8.104,13.857-6.667,20.778c3.729-0.291,0.699-5.894,3.317-7.057c6.083,5.601,11.532,12.146,18.676,16.909
				C258.115,344.853,279.166,355.962,296.03,354.721z M268.961,274.717c-14.687,0.026-15.501,23.762-1.315,16.807
				c-2.617-1.715-6.392-1.957-8.075-4.859C261.171,281.496,267.535,280.039,268.961,274.717z M217.19,294.241
				c3.02-0.848,2-4.871,4.235-6.335c1.631,0.151,1.031,3.102,3.578,2.068c0.628-4.307,1.066-2.677,4.728-2.231
				c0.296-7.944,10.571-8.03,14.216-13.358c-2.113,0.167-1.684-2.903-2.954-3.809c-8.861,0.732-12.191,5.797-19.008,8.105
				c-6.898-11.105-4.019-26.591,0.794-35.059c-11.204,4.777-8.361,26.618-2.961,37.816c-2.944,2.781-9.583,6.143-7.946,10.109
				c2.55-0.722,3.319-2.843,6.271-3.249C217.423,289.964,217.565,292.306,217.19,294.241z M392.082,253.304
				c-5.452,4.295-12.543,14.736-7.292,22.518c2.43-2.303-0.349-8.699,2.924-10.34c1.963,0.025,1.881,2.671,4.398,1.97
				c-0.449-2.877-2.781-3.378-3.249-6.271C389.419,258.149,391.852,256.592,392.082,253.304z M332.334,268.788
				c0.671-2.508-4.297-2.572-2.133-3.907c9.487,2.176,12.773,1.088,24.095-0.39c-0.131-1.094-0.263-2.188-0.394-3.283
				c-5.023,1.209-6.276-4.763-9.52-3.021c-0.738-6.311-4.244-9.082-4.429-16.119c-3.336,2.412,0.258,11.416,0.949,14.871
				c-7.961,2.168-20.268,0.92-24.21,6.231C323.433,263.108,326.618,267.548,332.334,268.788z"/>
		</g>
	</g>
</g>
<g id="Layer_5_x23_FFFFFF">
	<g>
		<g>
			<path fill="#FFFFFF" d="M524.515,399.767c-1.67,4.883-4.967,8.486-3.058,16.166c-7.835-1.697-13.11-6.649-21.695-7.373
				c0.151-4.094,4.323-5.026,3.842-9.617C510.757,395.969,519.251,397.38,524.515,399.767z"/>
			<path fill="#FFFFFF" d="M520.209,419.412c-19.404,11.309-34.894-3.172-39.059-20.276c14.672-21.425,24.786-46.433,32.871-73.035
				c5.739-0.011,7.642-0.205,13.952-1.672c-0.395,3.655,1.451,4.439,2.428,6.369c-16.91-9.125-15.062,18.316-1.315,16.807
				c-1.482,1.808-4.975,2.053-5.253,4.792c-0.035,8.242,5.886,8.885,11.225,10.31c-0.809,12.498-1.962,24.724-2.14,37.718
				c-11.248-8.764-32.016-6.223-48.288-0.041c3.036,2.758,11.715,0.07,15.691-1.048c-0.17,4.807-3.918,6.817-4.467,11.357
				C504.594,409.663,512.665,415.945,520.209,419.412z"/>
			<path fill="#FFFFFF" d="M540.121,314.648c-1.367,0.164-2.735,0.328-4.104,0.492c-3.886-6.09-6.96-13.214-15.722-13.1
				c1.632-28.934,10.479-52.21,7.302-84.955c18.617-0.653,39.18,4.358,52.405,13.699
				C561.936,254.993,548.675,282.978,540.121,314.648z"/>
			<path fill="#FFFFFF" d="M527.873,525.051c0.225,7.084,6.712,15.047,0.621,19.072C527.34,539.995,523.383,527.236,527.873,525.051
				z"/>
			<path fill="#FFFFFF" d="M513.786,553.378c-0.199-7.59-1.737-16.233,0.726-21.731c1.094-0.131,2.188-0.262,3.282-0.394
				C515.348,537.755,519.2,549.208,513.786,553.378z"/>
			<path fill="#FFFFFF" d="M479.903,583.245c-2.967-6.669-2.589-16.825-0.095-21.633c9.38-0.31,13.15-5.027,19.008-8.105
				c-1.646-7.226-5.42-21.932-1.604-27.279c2.424-0.897,3.092,0.479,5.022,0.23c4.587,9.475-2.022,15.4-1.974,25.211
				c5.434-4.154,3.782-13.877,10.441-17.068c0.84,7.443-1.072,16.379,1.933,23.077c13.211-2.502,1.244-24.793,10.51-30.396
				c1.167,6.693,0.95,15.165,3.279,20.419c9.499-1.347,8.633-10.313,4.599-17.201c2.825-0.737,6.256,5.894,11.456,5.287
				C527.077,555.896,504.419,570.3,479.903,583.245z"/>
			<path fill="#FFFFFF" d="M338.512,709.226c-0.161,1.112-1.297,1.474-1.346,2.658c-4.08-2.061-6.865-5.768-10.931-7.847
				C330.463,701.83,333.626,709.117,338.512,709.226z"/>
			<path fill="#FFFFFF" d="M302.534,707.71c6.506-8.376,26.478,9.366,25.964,15.203C319.918,717.749,312.618,710.958,302.534,707.71
				z"/>
			<path fill="#FFFFFF" d="M348.326,714.709c-5.743,8.371-8.212,19.316-16.023,26.062c-11.304-9.953-21.685-25.949-41.72-21.64
				c2.66-3.857,4.879-8.061,9.587-10.307c11.932,4.051,20.056,12.945,30.559,18.814c1.048-2.397,0.028-6.42,1.479-8.502
				c-5.085-7.403-14.172-9.713-20.219-15.891c12.761-4.374,17.274,8.544,25.668,12.74c2.014-1.871,3.469-4.196,4.138-7.155
				c-5.406-4.156-11.986-6.819-18.611-9.425c-0.093-3.526-1.815-8.35-0.458-10.767c6.907,0.039,10.264,4.597,15.756,6.437
				c0.29,2.705-1.965,3.427-4.53,3.873c7.015,3.252,16.153-11.232,14.349-19.202c-1.019-4.439-5.358-3.901-6.007-8.438
				c3.397-1.031,6.062-2.669,10.473-2.92c9.106,12.888,2.274,33.6-1.156,45.925C350.282,713.521,349.428,713.623,348.326,714.709z"
				/>
			<path fill="#FFFFFF" d="M376.461,706.343c-10.644,9.601-21.611-6.377-17.231-18.747
				C369.56,687.832,378.072,693.888,376.461,706.343z"/>
			<path fill="#FFFFFF" d="M500.285,607.441c-15.93-2.097-15.291-24.841,5.552-23.142
				C514.99,592.082,507.538,603.711,500.285,607.441z"/>
			<path fill="#FFFFFF" d="M353.814,399.41c-21.713,5.221-41.93,11.633-60.979,18.962c-5.817-12.796-11.359-25.902-14.962-41.496
				c4.58-5.925,14.975-7.171,22.684-5.216c2.182,4.456,4.501,8.757,5.874,14.281c10.527,5.069,32.991-8.064,20.191-19.069
				c4.373-7.218,15.626-15.782,26.082-11.45C351.675,368.969,352.696,384.144,353.814,399.41z"/>
			<path fill="#FFFFFF" d="M326.498,331.091c-18.409,4.131-37.05,14.724-58.402,12.826c-13.446-1.198-30.391-18.141-37.287-26.333
				c37.717-9.012,76.872-16.878,111.468-28.342C341.243,306.518,331.957,317.308,326.498,331.091z"/>
			<path fill="#FFFFFF" d="M321.244,335.883c-5.097,12.317-31.011,20.105-46.09,11.351
				C290.613,343.525,309.327,342.375,321.244,335.883z"/>
		</g>
	</g>
</g>
<g id="Layer_6_x23_ED1C24">
	<g>
		<g>
			<path fill="#ED1C24" d="M506.752,605.834c2.033-2.862,6.173-4.069,7.42-7.549c-0.245-8.851-3.691-13.588-7.908-17.366
				c-4.925,0.729-8.383,0.675-12.212,2.296c-4.657,1.945-7.038,8.127-10.079,6.202c-4.28-4.17,3.25-5.298,5.057-6.434
				c20.392-12.919,45.226-27.982,58.473-46.966c-2.575-4.842-13.764-5.443-16.543-13.002c6.249-5.743,17.67-7.407,17.828-17.953
				c-4.436,5.683-9.922,10.554-17.499,13.751c4.932-12.974,10.172-25.689,30.976-26.188c10.148,6.675,18.416,9.674,19.562,24.295
				c0.937,11.872-4.213,30.267-10.873,41.262C556.537,582.039,534.683,595.186,506.752,605.834z"/>
			<path fill="#ED1C24" d="M332.757,772.351c-14.18,5.845-34.372,3.495-42.313-5.751c-9.795-11.4-7.547-34.615-1.306-45.63
				c20.915-3.634,31.015,13.938,43.656,23.905c11.18-11.78,18.319-26.736,24.004-42.836c2.71,7.566,11.263,13.514,19.334,8.506
				c1.691,15.856-7.273,35.835-18.687,45.527C350.596,761.871,339.269,769.663,332.757,772.351z"/>
		</g>
	</g>
</g>
<g id="Layer_1_x23_000000">
	<g>
		<g>
			<path d="M322.776,779.374c-56.528,11.231-57.169-78.929-6.453-81.642c3.467-8.845-1.916-10.055-10.798-13.69
				c-3.408-1.378-9.56-4.665-12.276-5.188c-6.617-1.236-14.566,1.901-19.893,0.719c-6.911-1.514-17.206-11.154-17.33-19.568
				c-0.097-6.596,4.586-14.268,5.75-21.483c2.144-13.368,7.407-39.354,15.437-51.798c4.693-7.292,13.347-12.509,15.892-20.22
				c3.879-11.772,0.658-23.891,6.833-33.285c-2.598-4.597-1.273-5.848-0.458-10.768c-4.781-11.237-9.205-22.83-14.175-34.93
				c-4.992-12.132-6.74-26.577-12.731-36.769c-5.355-9.088-17.361-13.025-19.46-23.457c-26.159-2.068-57.224,5.574-74.52,17.255
				c-3.711-1.585-5.572-5.541-9.913-6.305c-7.807,3.884-20.455,4.429-25.834-0.234c-5.794,10.269-31.25,27.228-41.248,9.938
				c7.842,1.471,11.452-11.97,16.187-17.757c-20.645,6.602-55.024-6.466-26.456-19.307c-4.109-3.462-7.224-6.297-12.144-11.032
				c-3.156-3.038-11.142-7.874-9.977-13.789c0.663-3.444,7.042-5.787,11.818-5.579c9.153,0.395,39.039,26.765,48.845,11.629
				c-9.946-9.041-16.262-31.645,2.418-35.254c7.319,8.974,11.043,22.541,23.763,24.625c2.883,4.667,2.613,7.474,4.856,12.737
				c3.92-1.875,1.714-8.564,4.466-11.357c24.836,0.874,47.791,4.142,75.141,1.818c-3.674-22.696-27.112-30.865-34.689-53.284
				c-13.11-3.32-25.336-11.706-25.173-29.45c0.037-3.456,2.932-7.375,2.825-11.161c-0.108-3.941-3.155-8.814-4.036-12.836
				c-6.287-28.869-5.625-60.114,10.027-76.107c-21.208,8.854-34.28,24.087-35.824,48.397c-9.692,1.612-15.184-2.1-22.125-4.009
				c-13.537,10.918-20.05,27.342-30.945,40.337c-31.075-8.364-65.3-12.761-92.962-25.489c-6.158-9.998-2.074-20.928,4.438-25.489
				c-2.249-9.217-0.455-14.358-4.395-22.783c3.147-0.221,2.532,4.344,5.514,4.334c-0.747-5.218,0.258-7.107-1.377-11.49
				c3.601,1.39,4.103,6.741,7.647,8.241c1.487-7.271-2.608-11.342-3.083-18.777c5.163,4.151,4.366,15.883,12.734,15.956
				c4.056-6.244-4.196-12.002-5.447-17.662c3.407-1.241,6.988,4.765,8.566,8.963c1.568-2.98-0.789-9.045-0.753-13.229
				c2.525,3.704,3.262,9.703,4.331,15.298c7.976-6.384,13.022-17.534,20.127-26.554c7.058-8.98,15.102-17.401,22.786-25.208
				c0.13-6.728,3.524-15.025,7.095-24.16c2.742-7.075,6.026-18.603,11.69-20.548c5.997-2.054,13.82,2.732,20.466,4.208
				c40.6-38.216,83.748-74.414,137.597-102.217c-0.754,2.675,0.663,7.847-2.791,4.497c2.231,34.541,15.498,61.879,25.687,89.309
				c-17.352,11.653-36.641,21.751-48.787,37.48c1.78,8.337-1.534,12.671-2.76,18.646c-17.151,7.831-30.874,18.355-34.737,36.629
				c5.998-2.488,11.568-11.723,22.62-12.701c6.13-7.169,7.864-18.025,15.301-25.143c6.439-6.183,25.083-18.493,42.021-17.522
				c2.462,0.139,3.793,1.696,6.861,1.675c14.76-0.139,27.569-6.859,40.918-5.736c14.873,1.235,34.048,11.893,43.985,19.703
				c9.19,7.224,18.611,17.385,28.26,27.415c9.327,9.67,20.04,19.174,26.09,30.155c17.693,32.15,6.732,69.78,10.815,111.088
				c15.782-3.47,30.865-17.851,50.229-18.506c4.832,1.398,6.344,7.062,9.583,10.506c11.613-2.519,8.447-16.639,23.868-16.18
				c10.155-24.96,10.829-57.403,11.734-89.649c26.82-7.168,47.794,7.35,64.682,18.888c-4.549,11.107-15.069,18.837-22.295,29.311
				c-6.705,9.752-12.035,24.318-14.941,35.09c-0.791,2.956-2.425,10.887-1.611,14.345c1.636,6.846,16.437,12.113,7.58,21.569
				c1.776,5.129,5.704,5.924,6.202,10.079c0.71,5.777-6.1,10.461-1.119,18.449c-5.012,5.214-12.894,8.188-22.077,10.138
				c-2.896,11.43-2.638,28.205-2.766,39.441c-3.816,2.312-5.516-5.357-11.257-3.629c-4.029,3.865-0.591,11.864,1.866,15.576
				c-2.233,1.481-4.603,2.841-6.074,4.891c-15.321,3.119-30.012,1.81-37.389-6.342c-2.836-3.112-9.046-14.265-9.022-19.714
				c0.005-5.03,5.25-7.861,8.472-12.67c5.438-8.178,9.175-19.102,11.822-26.391c-1.066-3.688-3.908-5.116-5.186-8.536
				c-17.322,2.492-14.961,20.455-25.773,28.063c-3.69-0.98-8.436-0.637-12.605-0.987c8.931,21.268,5.309,47.63-13.503,54.047
				c-7.619,18.048-22.321,30.528-44.684,36.988c-0.617,4.254,3.206,2.877,3.972,5.352c34.76-11.831,62.244-29.381,94.745-42.987
				c0.669,10.065,12.042,20.305,12.667,29.283c0.376,5.314-4.812,8.034-5.091,13.098c-0.791,14.818-4.13,31.383-5.26,46.416
				c5.131,0.703,12.178-0.991,11.652,6.929c5.769-4.403,12.681-4.606,17.269-8.729c7.029-6.322,8.968-22.129,19.208-27.276
				c44.047-20.158,51.266,35.88,35.853,63.135c-10.375,18.344-34.37,45.188-48.739,51.627c-27.704,12.39-51.877,3.008-58.134-19.673
				c-3.131-11.366,1.709-21.78,1.713-34.337c-0.001-12.019-3.251-22.938,0.269-32.499c-0.033-0.273-0.066-0.547-0.099-0.82
				c-8.086,21.243-15.685,45.394-23.318,69.393c-2.43,7.662-3.985,16.676-8.112,22.616c-10.119,14.55-33.435,20.292-53.448,26.367
				c-21.283,6.487-43.938,11.092-64.557,16.894c4.271,10.032,16.97,10.922,26.621,6.799c5.513,0.554,6.555,6.794,8.861,11.426
				c16.347,2.533,27.427,35.51,23.299,55.481C380.123,748.048,347.948,774.363,322.776,779.374z M290.444,766.6
				c7.941,9.246,28.133,11.596,42.313,5.751c6.512-2.688,17.839-10.479,24.688-16.278c11.413-9.692,20.378-29.671,18.687-45.527
				c-8.071,5.008-16.624-0.939-19.334-8.506c-5.685,16.1-12.824,31.056-24.004,42.836c-12.641-9.967-22.741-27.539-43.656-23.905
				C282.896,731.984,280.649,755.199,290.444,766.6z M332.303,740.771c7.812-6.746,10.28-17.691,16.023-26.062
				c1.102-1.086,1.956-1.188,3.283-0.394c3.431-12.325,10.263-33.037,1.156-45.925c-4.41,0.251-7.075,1.889-10.473,2.92
				c0.648,4.536,4.988,3.998,6.007,8.438c1.805,7.97-7.334,22.454-14.349,19.202c2.565-0.446,4.82-1.168,4.53-3.873
				c-5.492-1.84-8.849-6.397-15.756-6.437c-1.357,2.417,0.365,7.24,0.458,10.767c6.625,2.605,13.205,5.269,18.611,9.425
				c-0.669,2.959-2.124,5.284-4.138,7.155c-8.394-4.196-12.907-17.114-25.668-12.74c6.047,6.178,15.134,8.487,20.219,15.891
				c-1.45,2.082-0.431,6.104-1.479,8.502c-10.503-5.869-18.627-14.764-30.559-18.814c-4.708,2.246-6.928,6.449-9.587,10.307
				C310.618,714.822,320.999,730.818,332.303,740.771z M328.498,722.913c0.514-5.837-19.458-23.579-25.964-15.203
				C312.618,710.958,319.918,717.749,328.498,722.913z M359.229,687.596c-4.38,12.37,6.588,28.348,17.231,18.747
				C378.072,693.888,369.56,687.832,359.229,687.596z M337.166,711.884c0.049-1.185,1.185-1.546,1.346-2.658
				c-4.886-0.108-8.049-7.396-12.276-5.188C330.301,706.116,333.086,709.823,337.166,711.884z M359.755,685.035
				c7.306-3.147,11.377,7.378,13.819,4.172c-4.519-3.413-8.088-8.015-13.687-10.015
				C359.846,681.157,358.959,682.442,359.755,685.035z M340.747,693.141c5.192-5.877,5.338-16.093-1.638-20.615
				c-12.199-4.105-20.001-13.785-31.762-18.429c1.223-0.216,2.443-0.448,3.664-0.682c21.663-4.191,45.503-9.459,63.736-16.795
				c-2.599,0.173-4.958,0.021-5.301-2.694c36.175-4.37,49.133-33.151,72.213-50.261c-13.814,17.872-35.871,33.245-49.971,48.444
				c14.371-7.723,29.625-8.371,40.38-17.325c7.553-6.299,12.324-21.769,16.156-31.905c13.159-34.772,23.451-74.941,38.261-104.482
				c-1.44-2.464-0.517-2.713-0.688-5.745c3.308-4.09,3.744-10.438,9.292-12.768c-2.121,4.59-3.176,7.369,0.556,11.588
				c3.827-1.204,3.771-5.446,4.762-8.896c-5.407-6.047-8.798-14.658-13.423-21.701c-28.937,12.955-53.015,29.697-83.256,41.611
				c0.349,3.34,3.074,3.655,3.347,7.091c-4.956-3.151-7.309-9.616-14.508-9.916c0.229,6.979,5.6,12.424,5.349,16.842
				c-15.47-24.595-18.426-69.818-19.054-103.424c-2.761,0.262-5.748,5.007-7.288,1.706c0.637-3.805,5.888-5.284,9.16-6.925
				c22.281-11.186,53.83-22.753,79.838-14.562c4.588-18.448,5.001-40.177,14.223-54.983c1.844-0.1-0.812,2.196,0.492,4.104
				c2.921,0.066,5.479,0.575,9.126-0.261c-3.847-16.466-22.867-1.37-33.747,3.212c-24.78,10.444-50.056,20.237-75.08,26.479
				c-2.692,3.722,6.927,2.222,4.07,6.172c-5.939-0.641-8.191-5.973-13.393-7.552c-2.87,1.957-5.663,3.974-10.275,4.561
				c-1.49,15.354-2.249,41.442,4.85,54.362c-3.261-0.58-2.504-6.272-6.532-5.877c-2.286,0.604,2.696,4.551-0.132,5.843
				c-1.093-1.447-1.508-3.756-2.33-5.548c-2.697,0.358-3.903,1.873-7.271,1.704c-0.474,2.849,3.166,5.292,0.885,7.386
				c-0.721-2.255-1.726-4.129-2.428-6.368c-3.367-0.169-4.591,1.348-7.288,1.705c0.358,4.293,4.331,8.934,3.116,12.114
				c-2.479-3.172-2.742-9.141-5.578-11.818c-1.97,0.93-4.284,1.588-7.288,1.705c-1.978,1.295,1.234,3.928-0.329,4.202
				c-1.499-4.261-6.438-2.212-10.045-0.461c0.362,2.731,3.926,6.275,1.902,8.929c-1.243-2.852-2.74-5.36-3.544-8.732
				c-2.309,0.415-3.239,1.914-5.548,2.33c0.604,2.72,3.059,8.01,1.278,10.669c-0.34-4-1.883-6.452-2.821-9.651
				c-3.463-0.244-4.074,1.754-7.288,1.705c-1.905,3.212,2.319,5.029-0.855,6.763c-0.312-2.755-0.655-5.472-3.873-4.531
				c-3.1,0.042,0.271,5.153-1.774,6.04c-6.065-15.298-12.087-30.671-17.292-47.044c-33.071,10.588-76.477,15.113-108.725,9.699
				c-2.296,15.139,0.92,38.791,10.628,47.01c2.863-5.199,2.358-13.029,8.078-15.952c-1.072,3.354-2.698,6.289-2.923,10.34
				c27.37-8.379,64.14-11.831,88.109-8.062c0.885,2.322,2.901,3.226,4.693,4.433c2.55,24.756,11.396,46.034,19.749,67.544
				c5.928,15.315,13.752,30.819,20.609,39.987c1.815,2.418,6.552,3.585,5.087,7.715c-5.559-2.387-6.86-10.208-11.619-13.592
				c1.187,7.003,7.726,12.22,9.354,15.528c-5.749-1.514-7.526-8.1-11.422-11.951c-2.92,18.04-9.692,33.021-16.75,47.794
				c-0.977,0.967-2.93,1.166-3.907,2.133c-6.147,11.802-12.362,22.9-17.733,39.586c-3.718,11.528-9.056,29.649-7.066,38.291
				c2.541,11.073,18.104,14.74,32.136,11.134c0.23-3.149-7.128-4.782-9.289-8.044c-2.972,0.529-5.191,4.299-8.01,2.625
				c5.35-8.619,17.443-10.312,29.421-12.389c-5.494,3.069-12.561,4.888-18.325,7.729
				C301.82,677.583,323.868,683.994,340.747,693.141z M514.172,598.285c-1.247,3.479-5.387,4.687-7.42,7.549
				c27.931-10.648,49.785-23.795,64.2-47.652c6.66-10.995,11.81-29.39,10.873-41.262c-1.146-14.621-9.413-17.62-19.562-24.295
				c-20.804,0.499-26.044,13.215-30.976,26.188c7.577-3.197,13.063-8.068,17.499-13.751c-0.158,10.546-11.579,12.21-17.828,17.953
				c2.779,7.559,13.968,8.16,16.543,13.002c-13.247,18.983-38.081,34.047-58.473,46.966c-1.807,1.136-9.337,2.264-5.057,6.434
				c3.041,1.925,5.422-4.257,10.079-6.202c3.829-1.621,7.287-1.567,12.212-2.296C510.48,584.697,513.927,589.435,514.172,598.285z
				 M505.837,584.3c-20.843-1.699-21.481,21.045-5.552,23.142C507.538,603.711,514.99,592.082,505.837,584.3z M479.809,561.612
				c-2.494,4.808-2.872,14.964,0.095,21.633c24.516-12.945,47.174-27.35,62.576-47.458c-5.2,0.606-8.631-6.024-11.456-5.287
				c4.034,6.888,4.9,15.854-4.599,17.201c-2.329-5.254-2.112-13.726-3.279-20.419c-9.266,5.603,2.701,27.894-10.51,30.396
				c-3.005-6.698-1.093-15.634-1.933-23.077c-6.659,3.191-5.008,12.914-10.441,17.068c-0.049-9.811,6.561-15.736,1.974-25.211
				c-1.931,0.248-2.599-1.128-5.022-0.23c-3.816,5.348-0.043,20.054,1.604,27.279C492.959,556.585,489.188,561.303,479.809,561.612z
				 M481.877,558.034c6.199-0.084,8.052-3.584,12.738-4.856c-1.551-6.283-2.608-12.209-2.984-17.957
				c-1.614-24.174,11.678-53.498-1.204-65.621C483.223,495.16,475.745,529.008,481.877,558.034z M514.512,531.646
				c-2.463,5.498-0.925,14.142-0.726,21.731c5.414-4.17,1.562-15.623,4.008-22.125C516.7,531.385,515.605,531.516,514.512,531.646z
				 M528.494,544.123c6.091-4.025-0.396-11.988-0.621-19.072C523.383,527.236,527.34,539.995,528.494,544.123z M388.04,462.722
				c21.681,2.033,31.75-13.794,41.235-24.088c2.165-2.341,7.081-4.3,4.958-7.254c-3.695-0.008-9.454,2.59-10.144-1.282
				c30.929,1.202,32.646-39.604,16.688-55.261c-22.966-0.457-43.565,7.389-58.008,16.109
				C380.261,412.128,381.523,438.876,388.04,462.722z M481.15,399.136c4.165,17.104,19.654,31.585,39.059,20.276
				c-7.544-3.467-15.615-9.749-24.354-8.719c0.549-4.54,4.297-6.551,4.467-11.357c-3.977,1.118-12.655,3.806-15.691,1.048
				c16.272-6.182,37.04-8.723,48.288,0.041c0.178-12.995,1.331-25.221,2.14-37.718c-5.339-1.424-11.26-2.067-11.225-10.31
				c0.278-2.739,3.771-2.984,5.253-4.792c-13.746,1.509-15.595-25.932,1.315-16.807c-0.977-1.929-2.822-2.714-2.428-6.369
				c-6.311,1.467-8.213,1.661-13.952,1.672C505.937,352.703,495.822,377.71,481.15,399.136z M521.457,415.933
				c-1.909-7.68,1.388-11.283,3.058-16.166c-5.264-2.387-13.758-3.797-20.911-0.824c0.481,4.591-3.69,5.523-3.842,9.617
				C508.347,409.283,513.622,414.235,521.457,415.933z M263.06,426.936c2.404,7.325,6.3,12.772,11.912,16.037
				c-1.185-5.113-3.453-10.582-2.687-15.478C268.653,428.017,267.187,425.765,263.06,426.936z M112.66,449.953
				c14.438,2.38,24.673-10.622,29.104-20.97c4.345,9.92,19.326,7.431,26.754,0.956c-1.683-9.268-5.749-20.331-4.459-30.267
				c-3.303-0.211-5.011-2.452-7.878-3.219c-1.813,0.356-0.771,6.735-2.791,4.497c0.028-4.686,1.205-8.469-0.031-14.148
				c-9.496-5.869-19.822-10.702-22.925-24.725c-13.203,7.774-1.414,28.005,9.367,29.679c-6.949,5.689-3.915,22.183,2.129,24.719
				c-8.364,2.13-12.054-14.477-7.562-21.571c-3.937,0.871-3.41,5.265-6.698,6.63c-20.376-0.559-33.335-10.574-51.602-13.796
				c2.564,8.52,11.28,13.806,19.595,17.631c9.342,4.292,20.146,4.142,29.28,8.146c-13.252,1.432-35.106-3.217-39.624,9.743
				c9.968,5.465,28.866,1.796,40.278,2.665C124.253,436.268,117.069,442.02,112.66,449.953z M292.836,418.372
				c19.049-7.329,39.266-13.741,60.979-18.962c-1.118-15.267-2.14-30.441-1.109-43.988c-10.456-4.332-21.709,4.232-26.082,11.45
				c12.8,11.005-9.664,24.138-20.191,19.069c-1.373-5.524-3.692-9.825-5.874-14.281c-7.709-1.955-18.104-0.709-22.684,5.216
				C281.477,392.47,287.019,405.576,292.836,418.372z M526.491,353.743c4.46,8.12,20.619,9.531,29.789,5.588
				C557.354,347.01,534.051,346.923,526.491,353.743z M310.338,383.808c8.076-0.343,11.671-4.208,16.645-6.989
				c-0.346-4.624-1.894-7.699-4.463-9.455c-3.277,3.619-10.979,3.761-17.76,4.626C306.617,375.912,308.027,380.443,310.338,383.808z
				 M465.3,371.066c2.468-5.742,6.354-10.37,8.898-16.051c-2.387,0.199-4.306,4.019-5.745,0.688
				c4.49-6.383,14.743-8.236,24.557-10.435c0.859-1.803-0.062-5.005,2.692-5.317c0.036,5.944-0.2,14.54,4.527,16.939
				c5.008-9.445,8.409-20.138,11.232-31.315c-2.128,0.48-3.576,0.117-3.578-2.068c6.767,1.617,16.494-0.138,22.061-3.476
				c6.365-21.419-31.433-13.802-32.499-0.268c-7.059,2.893-15.567,6.86-23.309,6.956C469.613,339.765,465.152,356.81,465.3,371.066z
				 M247.081,383.896c13.049-3.125,28.032-4.729,32.37-14.701c-23.688,0.307-48.486-12.4-58.198-27.158
				c-2.969-4.518-3.292-13.723-9.879-12.968c5.595,13.69,17.58,27.446,29.342,36.443C242.04,372.655,243.8,379.243,247.081,383.896z
				 M556.25,345.183c2.572-3.43,0.223-8.993-2.197-11.392c-13.151,6.033-20.43-1.87-33.4-0.992
				C522.173,349.543,542.775,346.78,556.25,345.183z M301.806,368.181c18.546,1.784,21.502-6.687,31.746-12.961
				c7.754-4.762,17.176-8.198,22.603-12.698c17.863-14.767,29.093-36.837,30.342-59.412c4.361,2.53,11.271-3.484,13.985-8.335
				c6.443-11.508-0.476-32.34-10.4-31.22c-8.008,0.908-6.865,11.749-11.263,17.167c-6.023-8.73-12.03-17.462-20.283-23.376
				c-8.41,0.591-14.161,2.963-22.159,2.655c-9.528-0.35-19.022-6.635-27.326-5.882c-8.251,0.763-15.716,7.069-23.112,8.597
				c-26.383,5.468-55.05-8.561-63.71-31.474c-29.525,17.742-29.643,77.833-4.845,105.455c-0.763,27.355,24.022,40.826,43.849,46.359
				c10.551,2.95,20.679,1.354,32.793,2.73C296.856,366.104,299.173,367.924,301.806,368.181z M349.752,351.613
				c6.943,0.92,12.369-1.708,16.742-6.168c2.564,1.427,3.592,3.056,7.058,3.316c15.646,1.178,38.823-13.67,50.229-18.506
				c-3.896-11.812-2.234-26.025-2.062-38.047c0.141-9.538,2.071-18.753,1.679-27.673c-1.835-41.941-27.466-74.632-52.933-94.369
				c-10.803-8.383-26.92-18.557-39.355-22.755c-18.021-6.096-41.783,2.579-60.483,2.253c-21.359-0.372-41.171,14.923-46.389,29.701
				c-15.142,42.832,34.56,76.522,80.415,52.782c-0.209-4.935-8.315-7.588-9.252-14.691c9.362,11.695,25.833,19.035,44.688,18.77
				c9.854-0.123,18.795-5.392,27.805-4.165c0.298,3.208-4.977,2.036-5.253,4.792c5.774,4.337,10.373,10.151,14.474,16.58
				c4.704-4.744,5.453-14.268,14.118-14.179c6.616,0.074,14.209,12.345,15.064,21.504c0.521,5.504-2.561,11.198-3.778,17.102
				c-3.943,19.342-4.631,44.139-13.073,50.683c5.29-14.179,9.699-29.05,10.184-47.006c-3.868,2.163-5.516,6.072-10.801,7.122
				C387.231,318.627,368.595,335.186,349.752,351.613z M530.534,324.955c3.952,10.834,24.211,10.418,25.522-2.226
				c-4.756-4.667-12.252-5.851-21.385-4.929C534.709,321.298,531.243,322.043,530.534,324.955z M536.018,315.14
				c1.368-0.164,2.736-0.328,4.104-0.492c8.554-31.67,21.814-59.656,39.882-83.864c-13.226-9.341-33.788-14.352-52.405-13.699
				c3.178,32.745-5.67,56.021-7.302,84.955C529.058,301.926,532.132,309.05,536.018,315.14z M214.361,326.214
				c-0.018-17.375-11.241-18.545-20.283-23.376c5.782-1.681,8.015,1.173,11.883,1.906c-1.916-5.129-5.035-8.727-5.972-15.101
				c-4.022-0.854-7.658,0.207-10.571,2.099C182.56,309.473,196.226,328.283,214.361,326.214z M187.384,288.656
				c2.188,0.605,6.321-2.683,11.392-2.198c-8.75-33.794,2.309-63.805,22.961-79.322c-0.688-5.745-1.377-11.49-2.065-17.235
				c-7.111,0.141-14.369,3.977-19.008,8.105C180.342,215.999,173.975,257.085,187.384,288.656z M94.273,275.672
				c1.201,1.625,3.364,2.025,3.873,4.531c10.952-5.146,19.225-38.864,33.508-39.795c6.314-0.427,8.252,6.486,16.477,5.5
				c5.931-22.581,17.489-40.753,38.812-51.252c4.235-20.956,23.635-29.992,36.313-44.311c-1.245-4.603-1.125-8.814-3.116-12.114
				c-2.142-3.542-7.381-3.85-6.729-7.519c4.505,0.258,5.956,4.403,9.814,5.484c13.322-14.309,25.859-29.235,48.064-36.562
				c-10.114-20.866-16.509-46.444-23.525-71.271c-62.626,36.763-113.401,82.841-156.098,135.252
				c3.502,37.909-4.111,89.724-45.972,88.756c-5.636-0.14-7.093-3.902-12.276-5.188c-6.846,1.774-10.261-0.817-15.166-1.513
				c-2.035,4.58-4.89,8.546-5.814,13.999C37.745,267.513,64.888,273.019,94.273,275.672z M44.481,249.189
				c50.308-4.815,44.344-53.858,45.809-97.062c0.631-2.694-1.539-1.845-2.035-3.086c3.765-13.598,8.885-38.457,29.138-27.634
				c-3.336-5.844-9.577-7.992-18.299-6.964c-19.18,16.659-13.397,61.734-19.646,93.094c-2.279,11.373-6.124,28.067-14.318,33.35
				c-4.494,2.88-20.898,6.806-24.193-0.431c8.595-5.99,11.322-26.799-1.899-29.741c-0.222,2.056-1.573,3.224-2.791,4.497
				c-3.679-4.363-10.137,3.695-13.623-2.53c-0.4,3.898,2.355,6.915,1.082,9.027c-2.967,0.859-4.705-4.674-6.138-2.594
				c1.407,1.028,2.11,2.99,2.33,5.548c-2.444,0.882-3.093-0.479-5.022-0.231c-0.766,5.33,0.216,13.381,3.608,16.217
				c3.036,1.457,3.536-4.36,6.894-4.988c-0.695,3.17-4.799,3.662-4.039,7.976c4.067,0.796,8.603,1.016,14.148-0.031
				C38.573,245.336,41.406,247.407,44.481,249.189z M13.362,239.599c-0.337,5.434-5.442,7.121-3.252,14.542
				C13.546,250.971,20.985,242.57,13.362,239.599z M45.237,241.606c39.109-1.738,29.207-41.967,34.907-69.949
				c-0.264-0.61-0.229-1.62-1.018-1.543c-9.361,14.944-22.589,26.849-31.586,42.079C53.592,221.163,49.249,233.98,45.237,241.606z
				 M43.962,210.125c7.2-5.91,11.256-14.322,18.059-22.976c6.604-8.422,18.364-17.098,19.208-27.276
				c-0.999,0.207-1.92,0.473-1.444,1.838c-6.83,6.976-13.35,15.093-19.7,23.173C53.944,192.695,44.502,200.157,43.962,210.125z
				 M92.423,156.034c9.33-9.27,19.272-18.057,25.56-29.702C106.486,132.132,94.585,143.826,92.423,156.034z M106.297,126.067
				c-4.809,0.68-8.39,6.26-7.206,9.188C101.711,132.375,104.404,129.52,106.297,126.067z M118.411,122.951
				c6.597,0.926,10.511-6.358,14.61-10.075c34.691-31.369,71.843-62.027,111.792-88.302c-0.067-0.564-0.133-1.111-0.196-1.642
				c-0.989-0.002-2.04-1.247-2.462,0.295c-26.945,16.982-55.271,34.025-77.679,53.413c-8.092,7.005-17.277,13.291-23.376,20.283
				C133.323,105.85,127.945,116.692,118.411,122.951z"/>
			<path d="M307.348,654.097c-0.374,0.062-0.748,0.125-1.122,0.187c0.229-0.114,0.456-0.245,0.683-0.376
				C307.054,653.959,307.201,654.028,307.348,654.097z"/>
			<path d="M355.118,549.082c2.724,0.298,1.9,5.149,4.792,5.254c22.802-6.115,26.361-27.354,33.638-45.655
				c1.258,8.902-3.967,20.732-11.232,31.315C376.161,548.988,360.127,564.976,355.118,549.082z"/>
			<path d="M400.534,546.138c0.598-9.194,3.33-23.153,5.094-33.91C406.982,522.957,402.336,535.411,400.534,546.138z"/>
			<path d="M411.288,427.47c-12.782,4.636-27.778-18.905-16.866-29.596C389.17,411.649,398.594,427.481,411.288,427.47z"/>
			<path d="M374.888,408.54c-3.494,7.894-10.813,12.812-15.99,19.397C361.937,422.613,368.88,413.977,374.888,408.54z"/>
			<path d="M252.229,419.908c-2.85,0.966-13.327-4.403-19.761-5.124C239.414,412.252,246.021,418.328,252.229,419.908z"/>
			<path d="M312.838,356.037c-2.864,10.402-19.056,10.313-25.343,3.87C294.865,360.046,305.156,361.692,312.838,356.037z"/>
			<path d="M347.727,286.09c-8.629,27.274-17.058,66.058-51.696,68.631c-16.865,1.241-37.916-9.869-51.371-18.818
				c-7.144-4.763-12.593-11.308-18.676-16.909c-2.618,1.164,0.412,6.767-3.317,7.057c-1.436-6.921,0.465-17.399,6.667-20.778
				c-0.479,3.092-1.973,5.387-2.299,8.6c27.978-4.896,59.749-11.999,89.194-19.846c9.479-2.523,18.658-6.398,27.1-9.907
				c-0.527-4.983-7.272-2.077-7.549-7.42c9.531,0.8,13.39,8.836,19.201,14.348C351.51,294.5,349.03,288.57,347.727,286.09z
				 M275.154,347.233c15.08,8.755,40.994,0.967,46.09-11.351C309.327,342.375,290.613,343.525,275.154,347.233z M268.096,343.917
				c21.352,1.898,39.993-8.694,58.402-12.826c5.459-13.783,14.745-24.573,15.779-41.85c-34.597,11.464-73.751,19.331-111.468,28.342
				C237.705,325.775,254.65,342.718,268.096,343.917z"/>
			<path d="M267.646,291.524c-14.186,6.955-13.371-16.781,1.315-16.807c-1.426,5.322-7.79,6.778-9.39,11.948
				C261.254,289.568,265.029,289.809,267.646,291.524z"/>
			<path d="M221.425,287.906c-2.235,1.464-1.215,5.487-4.235,6.335c0.375-1.936,0.233-4.277,0.953-5.942
				c-2.952,0.406-3.721,2.527-6.271,3.249c-1.637-3.966,5.001-7.329,7.946-10.109c-5.4-11.198-8.243-33.04,2.961-37.816
				c-4.812,8.468-7.692,23.954-0.794,35.059c6.817-2.308,10.147-7.373,19.008-8.105c1.271,0.906,0.841,3.975,2.954,3.809
				c-3.646,5.328-13.92,5.414-14.216,13.358c-3.661-0.446-4.099-2.075-4.728,2.231C222.457,291.008,223.057,288.058,221.425,287.906
				z"/>
			<path d="M384.79,275.822c-5.251-7.782,1.84-18.223,7.292-22.518c-0.23,3.288-2.663,4.846-3.219,7.878
				c0.468,2.892,2.8,3.393,3.249,6.271c-2.518,0.701-2.436-1.945-4.398-1.97C384.441,267.123,387.22,273.519,384.79,275.822z"/>
			<path d="M330.201,264.881c-2.164,1.334,2.804,1.398,2.133,3.907c-5.716-1.24-8.901-5.68-15.641-5.618
				c3.942-5.311,16.249-4.063,24.21-6.231c-0.691-3.455-4.285-12.459-0.949-14.871c0.185,7.037,3.69,9.808,4.429,16.119
				c3.243-1.741,4.496,4.23,9.52,3.021c0.131,1.094,0.263,2.188,0.394,3.283C342.975,265.97,339.688,267.057,330.201,264.881z"/>
			<path d="M123.579,235.548c-3.794,5.536-16.304-8.262-8.139-12.344C114.948,229.229,117.702,234.986,123.579,235.548z"/>
			<path d="M285.682,212.793c0.38,1.29-0.618,1.496-0.525,2.56c-6.224,0.018-10.079-7.255-13.162-12.575
				c-3.125-5.383-7.913-12.337-6.267-17.563C271.876,194.693,276.073,210.753,285.682,212.793z"/>
			<path d="M118.167,211.223c-3.668-4.85,1.609-11.033,3.975-15.461c7.256-13.547,18.69-30.006,29.518-38.501
				C138.752,173.878,124.006,189.035,118.167,211.223z"/>
			<path d="M193.911,134.715c-0.908-4.106,5.906-2.962,8.01-2.625C202.448,135.479,196.313,133.629,193.911,134.715z"/>
		</g>
	</g>
</g>
</svg>
