<?xml version="1.0" encoding="utf-8"?>
<!-- Generator: Adobe Illustrator 14.0.0, SVG Export Plug-In . SVG Version: 6.00 Build 43363)  -->
<!DOCTYPE svg PUBLIC "-//W3C//DTD SVG 1.0//EN" "http://www.w3.org/TR/2001/REC-SVG-20010904/DTD/svg10.dtd">
<svg version="1.0" id="Layer_1_x23_000000" xmlns="http://www.w3.org/2000/svg" xmlns:xlink="http://www.w3.org/1999/xlink" x="0px"
	 y="0px" width="612px" height="792px" viewBox="0 0 612 792" enable-background="new 0 0 612 792" xml:space="preserve">
<g>
	<g>
		<path d="M498.95,426.96c0,0.66,0,1.33,0,2c-8.28,9.71-18.04,17.95-27,26.99c2.84,35.41-16.75,56.39-36.99,71.99
			c1.17,4.829,5.39,6.609,7,11c5.69-3.5,8.021,0.17,14-1c16.71,13.85-11.93,32.1-21,15c-2.32,0.81-2.19,3.54-5,0
			c1.88-2.021,0.29-3.301,4-2c-0.55-3.11-0.82-6.521-2-9c-4.85,1.18-11.07,3.96-16,2c-13.15,11.27-27.61,28.17-40,34
			c3.43,0.409-0.47,1.14,1,3c-7.229,7.439-24.11,22.109-37.99,35.989c-16.05,16.051-32.67,26.86-40.99,48
			c1.5,3.49,2.2,7.79,7.99,6.99c3.99-1.53-2.58-5.86,0-5.99c4.81,0.86,8.129,3.2,8,8.99c1.59-0.08,3.82,0.49,4-1
			c8.88,16.94-16.4,21.3-23.99,10c0.48-3.15-1.81-3.53-1-7c-7.7-8.53-14.97,1.25-28,7c-13.04,5.76-26.28,10.09-44,12c-1,0-2,0-3,0
			c-7.69-1.63-17.14-1.52-19.99-8c1.52-7.14,8.08-9.25,12-14c-1.06-5.27-2.71-9.96-6-12.99c-5.85-29.229,27.5-23.3,28.99-42
			c-3.52-0.81-4.82-3.84-4-9c5.59-3.41,10.82-7.18,16-11c-1.32-11.05-12.3-21.84-7-32.989c6.41,1.239,5.09,9.63,7,14
			c0.71,1.609,3.6,2.93,4,4c2.5,6.54,1.35,15.189,2,23.989c7.29-3.699,2.22-19.779,14-18.989c3.02-6.58-7.97-22.33,1-25
			c0.73-18.221,2.8-33.73,6-51c3.23-17.431,7.52-27.4-4-34.99c4.47-10.69-5.95-14.16-8-22c-4.32-16.521,2.15-48.61,11-56.99
			c9.8-9.28,20.05-7.88,27-19c-3.62-3.38-12.29-1.71-15-6c-3.15-0.48-0.75,4.59-3,5c-13.99-8.66-40.55-21.3-50-36.99
			c-3.39-5.65-3.25-12.86-2-22c8.76-11.91,14.01-27.32,24-38c9.23-1.79,20.33-1.54,26,3c0.69-8.15-14.67-8.57-17-16.99
			c-5.8,1.88-11.2-4.62-15-8c-5.6,2.48-6.45-1.92-13-1c-0.6-2.4-1.43-4.57-1-8c-1.99,2.34-0.37,8.29-3,10c-3.26,0.26-2.12-3.88-5-4
			c-6.28,12.51-15.52,8.81-34.99,5c-5.12-1.01-11.95-1.7-16-3c-8.91-2.86-16.57-10.48-24-13c-2.61-0.89-5.9-0.12-8-1
			c-5.23-2.2-11.88-9.17-18.99-4c-5.03-3.55-8.61-2.59-16-4c-3.38-6.76-2.59-11.9-7-18c0.49-4.17,3.73-5.6,5-9
			c-0.18-2.82-4.75-1.24-4-5c11.74-2.75,9.39-11.63,11-21.99c1.63-1.41,3.65-3.9,4-9c2,0,4,0,6,0c0.16-3.17-2.66-3.34-2-7
			c3.08-0.75,1.92,2.74,5,2c5.92-9.18,20.09-20.28,27.99-11c3.74,1.07,2.85-2.48,6-2c2.54,2.44-2.11,2.13-1,6c2.34,0,4.67,0,7,0
			c10.78,4.89,16.67,14.66,25,22c7.22-1.23,8.12,3.87,13,5c0.95,1.86-3,3.34,0,3.99c9.9-20.95,31.47-38.37,54.99-48.99
			c3.9-0.23,5.18,2.15,8,3c1.28-17.38,11.05-26.28,16-39.99c-4.96-4.72-9.2-10.14-16-13c-1.33-13.87,12.96-21.62,21-21
			c20.45,1.57,25.48,51.12,15.99,68.99c31.6-0.98,73.1-3.31,92.99,13c17.53,0.47,31.26,4.74,39,15c3,0,6,0,9,0
			c10.6,6,29.4,19.89,15,32.99c0.16,7.5,3.021,12.31,6.99,16c4.54,0.54,0.68-7.33,5-7c0.17,1.17,1.83,0.85,3,1
			c0.28,4.28-3.05,4.95-2,10c6.7-1.29,5.63-11.11,13-9c-1.12,6.55-3.38,11.95-8,15c7.24,9.09,12.6,20.06,13,36
			c-2.09,2.18-2.851-0.5-6,0c0.62,0.89,1.21,1.78,0,2c-0.42,3.74,3,3.07,4,1c1.63-1.23-1.601,8.18,1,4.99
			c-7.641,19.94-34.92,36.89-48.99,57c-3.99-0.32-7.39-0.06-9,2c0,3.33,0,6.66,0,10c-10.03,6.3-18.69,13.97-27,21.99
			c16.21,12.19,37.76,23.04,54,38c1.21-0.58-0.66-3.78,1-6C475.49,402.42,485.81,416.1,498.95,426.96z M410.96,447.95
			c3.14-8.86,9.84-14.16,9-26.99c-7.19-1.3-21.83,15.95-12,5c7.15-7.979-2.729-0.54-11-4c2.53-6.81,23.37-0.63,23-7
			c-0.06,0.61-0.15,1.18-1,1c-5.41-3.26-9.86-7.47-13-13c-11.55,1.3-13.12-9.28-29-10c0.19,2.18-0.81,3.18-2.99,3
			c1.511,33.37-4.029,59.7-6,92.99c0.9,1.77,2.41,2.92,3,5c-6.21,5.71-5.34,19.91-2,27.99c13.87-8.79,24.57-20.75,36.99-30.99
			C392.77,477.04,416.99,462.78,410.96,447.95z M335.97,509.95c4.23-20.01,0.19-39.94,2-62c-9.38,3.62-0.319,25.67-10,29
			c0.271,2.06,4.431,0.24,4,3c0.3,2.63-3.88,0.79-3,4c-4.68,35.31-23.86,56.12-33.99,85.99c4.27,4.909-0.67,12.6-1,19
			c2.71,1.14,3.58-0.61,4,1.989c4.25-5.34,27.65-23.739,28.99-28.989c2.07-8.08-3.3-16.051-2-25
			C326.26,528.09,333.9,519.77,335.97,509.95z"/>
		<path d="M466.95,203.98c-2.17,1.5-1.59,5.74-5,6c-1.37-1.29-0.99-4.34-0.99-7C464,201.73,464.84,202.22,466.95,203.98z"/>
	</g>
</g>
</svg>
