<?xml version="1.0" encoding="utf-8"?>
<!-- Generator: Adobe Illustrator 14.0.0, SVG Export Plug-In . SVG Version: 6.00 Build 43363)  -->
<!DOCTYPE svg PUBLIC "-//W3C//DTD SVG 1.0//EN" "http://www.w3.org/TR/2001/REC-SVG-20010904/DTD/svg10.dtd">
<svg version="1.0" xmlns="http://www.w3.org/2000/svg" xmlns:xlink="http://www.w3.org/1999/xlink" x="0px" y="0px" width="360px"
	 height="432px" viewBox="0 0 360 432" enable-background="new 0 0 360 432" xml:space="preserve">
<g id="Layer_3_x23_FFFFFF">
	<g>
		<g>
			<path fill="#FFFFFF" d="M213.771,56.765c1.723,4.434,9.844,3.437,12.717,7.361c-15.833,8.273-29.499,23.572-49.603,18.188
				c-7.891,15.374-17.5,25.242-29.791,26.508c6.302,4.227,12.641-4.018,18.452-6.208c-3.219,6.466-5.074,14.319-8.861,19.527
				c-8.714-0.945-19.549-3.808-27.244-6.002c-6.794,1.943-13.961,2.693-21.392,2.594c-4.105-4.61-0.641-11.58-4.609-16.232
				c2.927-2.763,3.06-6.492,5.967-11.375c7.42-0.905,16.064,2.075,24.793,5.407c10.753-4.26,22.465-5.446,31.745-14.432
				c-5.708,1.189-13.114,0.969-16.259,5.977c-4.214,0.61-9.169,2.117-14.012,3.011c-4.355,0.804-10.412,2.731-13.391-0.808
				c8.383-5.081,18.083-5.941,26.222-11.803c-6.972-1.047-12.277,3.25-19.456,1.537c8.358-8.106,21.86-12.229,30.564-24.03
				c-7.746,0.83-13.646,7.578-21.498,8.064c4.252-3.315,7.581-9.589,11.748-13.179c-7.655,1.645-13.933,15.333-20.548,15.47
				c0.229-4.753,8.208-9.394,10.975-15.656c-6.006-0.292-10.582,11.468-16.543,6.519c-9.889,7.074-1.605,15.717-6.18,22.316
				c-2.305-0.691,2.254-2.578,0.08-4.103c-10.978,0.151-22.442-1.257-29.241,12.291c-1.278-4.22,0.943-8.235,1.065-12.565
				c0.157-5.712-0.998-10.06,3.622-17.44c5.326-8.508,13.895-11.822,22.714-14.333c12.923-3.678,28.605-4.604,45.465-2.399
				C179.511,43.361,197.396,51.879,213.771,56.765z"/>
		</g>
	</g>
</g>
<g id="Layer_2_x23_F9D12D">
	<g>
		<g>
			<path fill="#F9D12D" d="M86.921,65.517c-0.927,1.951,0.279,3.235-0.648,5.186c-6.339-1.962-19.541-0.387-15.229,9.28
				c3.758,1.396,6.585-0.191,10.372,1.296c-6.344,3.388-13.195,5.147-18.043,13.33c1.065,3.859-1.489,6.606,4.511,7.202
				c-1.891,3.459,1.837,5.166,3.686,7.459c-1.598,2.461-1.44,2.161-2.557,4.875c-5.401-0.166-16.601-6.137-17.823-12.111
				c-1.131-5.524-6.581-18.034,1.331-26.24c-0.741-4.073,5.912-5.016,7.85-9.697C68.876,64.802,77.591,64.173,86.921,65.517z"/>
		</g>
	</g>
</g>
<g id="Layer_1__x23_000000">
	<g>
		<g>
			<path d="M213.823,54.03c5.598,2.936,11.195,5.872,16.793,8.808c-0.095,0.181-0.189,0.361-0.284,0.542
				c4.483,7.437,10.35,13.007,11.882,22.12c0.457,2.714-0.707,7.054-0.496,11.481c0.195,4.017,2.37,7.844,1.438,10.425
				c-1.661,4.558-7.945,8.016-10.895,11.553c-6.584,7.905-11.529,18.358-18.31,27.005c-6.702,8.534-13.366,16.301-16.604,23.754
				c6.163,4.749,12.188,13.051,19.989,13.248c1.226,5.747,5.833,7.645,13.463,11.206c7.84-11.583,16.104-22.617,26.514-26.845
				c14.907-6.034,35.73-6.739,52.25,0.468c28.962,12.639,43.625,41.858,33.063,72.601c-1.705,3.25-3.409,6.5-5.114,9.75
				c-0.181-0.095-0.361-0.189-0.542-0.284c-6.924,9.799-13.89,18.981-23.726,24.164c-21.954,11.566-59.399,6.065-76.263-17.898
				c-10.039,3.118-25.462,27.876-37.757,14.04c-5.972,0.667-10.308,2.825-16.543,6.519c-7.796,4.622-15.035,13.009-22.013,6.413
				c-3.583,0.136-6.492,2.427-10.94-0.213c-3.24-4.577,3.729-12.339,6.384-18.755c-21.805-1.153-43.095-0.655-64.557-0.707
				c0.386,3.982,2.562,13.661,5.693,16.8c14.875,2.623,34.056,7.829,43.672,19.454c4.344,5.253,8.499,15.146,11.314,23.203
				c6.877,19.628,3.824,48.457-18.333,70.508c-9.394,9.348-34.72,15.385-48.44,14.654c-5.208-0.276-10.41-1.662-15.815-2.771
				c-2.528-1.325-5.056-2.651-7.584-3.978c0.261-0.534-0.441-0.769-0.799-1.11c-21.304-14.397-33.226-34.14-31.473-55.88
				c1.231-15.26,9.993-35.914,21.674-45.271c9.264-7.42,22.732-10.198,30.999-18.276c-0.64-4.634-0.041-9.653-4.947-12.956
				c3.691-8.099-3.192-12.898-2.621-20.024c-3.314-0.376-8.998,5.814-13.728,2.47c-3.171-2.258-1.938-9.036-3.038-12.645
				c-1.352-4.374-4.056-9.898-6.519-16.544c-2.159-5.833-3.52-13.262-6.519-16.542c-2.642-2.901-6.524-4.132-8.898-6.74
				c-6.273-6.878-8.309-20.226,2.956-25.388c11.245-15.476,23.876-39.338,32.906-60.101c-4.548,7.976-14.553-0.86-20.69-5.327
				c-4.997-10.008-7.14-22.491-0.419-34.756c4.444-1.449,5.766-6.128,9.732-8.019c7.449-3.557,18.358-0.175,27.093-0.294
				c11.174-23.168,33.112-26.109,52.497-26.34C163.494,37.281,190.831,42.813,213.823,54.03z M226.487,64.125
				c-2.873-3.924-10.994-2.927-12.717-7.361c-16.375-4.886-34.259-13.404-52.499-15.795c-16.86-2.205-32.542-1.279-45.465,2.399
				c-8.819,2.512-17.388,5.826-22.714,14.333c-4.62,7.381-3.465,11.728-3.622,17.44c-0.122,4.33-2.343,8.345-1.065,12.565
				c6.799-13.548,18.263-12.14,29.241-12.291c2.174,1.524-2.385,3.412-0.08,4.103c4.575-6.599-3.709-15.242,6.18-22.316
				c5.961,4.95,10.537-6.81,16.543-6.519c-2.767,6.262-10.746,10.903-10.975,15.656c6.615-0.137,12.893-13.825,20.548-15.47
				c-4.167,3.59-7.496,9.864-11.748,13.179c7.853-0.486,13.752-7.234,21.498-8.064c-8.704,11.801-22.206,15.924-30.564,24.03
				c7.179,1.713,12.484-2.584,19.456-1.537c-8.14,5.861-17.839,6.722-26.222,11.803c2.979,3.539,9.036,1.612,13.391,0.808
				c4.843-0.894,9.798-2.401,14.012-3.011c3.145-5.008,10.551-4.788,16.259-5.977c-9.28,8.986-20.992,10.172-31.745,14.432
				c-8.729-3.332-17.373-6.312-24.793-5.407c-2.907,4.883-3.04,8.613-5.967,11.375c3.968,4.652,0.504,11.623,4.609,16.232
				c7.431,0.099,14.598-0.651,21.392-2.594c7.694,2.194,18.529,5.057,27.244,6.002c3.788-5.208,5.643-13.062,8.861-19.527
				c-5.811,2.189-12.15,10.434-18.452,6.208c12.291-1.266,21.9-11.134,29.791-26.508C196.988,87.698,210.654,72.398,226.487,64.125z
				 M86.273,70.703c0.927-1.951-0.279-3.235,0.648-5.186c-9.33-1.344-18.044-0.715-26.551,0.579
				c-1.938,4.682-8.591,5.624-7.85,9.697c-7.912,8.206-2.462,20.716-1.331,26.24c1.222,5.975,12.422,11.946,17.823,12.111
				c1.117-2.714,0.959-2.414,2.557-4.875c-1.848-2.293-5.577-4-3.686-7.459c-6-0.596-3.446-3.343-4.511-7.202
				c4.848-8.182,11.7-9.941,18.043-13.33c-3.787-1.487-6.614,0.1-10.372-1.296C66.732,70.316,79.934,68.741,86.273,70.703z
				 M309.99,188.05c-14.406-8.785-28.195-6.711-42.597-4.385c-5.925,5.699-13.145,7.246-17.839,16.891
				c3.149,1.019,6.576,5.752,10.807,7.05c7.064,2.151,19.662-3.137,27.608,1.357c5.119,2.896,8.896,8.753,4.866,17.058
				c-4.228,8.719-11.892,6.541-17.244,14.44c-6.521,2.335-13.277,3.914-18.789,9.484c5.13,6.644,10.824,6.579,17.618,8.551
				c9.81,2.843,17.165,1.77,23.815-0.632c7.93-2.863,11.239-3.027,17.707-10.053c2.577-2.793,6.344-5.767,7.538-7.788
				c5.265-8.866,5.356-24.551,2.032-34.162C323.219,199.191,315.759,191.575,309.99,188.05z M156.089,124.592
				c-8.034-1.547-16.21-3.553-24.251-5.123c-1.25,6.846-5.717,12.581-9.119,18.702c-5.458,9.82-6.277,19.904-10.157,29.899
				c-6.584,16.942-23.295,27.402-30.19,47.021c-0.621,2.61,2.36,4.097,1.234,6.864c-3.704,3.257-10.046,5.398-11.952,9.618
				c4.194,0.856,7.25-1.935,11.251-1.697c1.506,3.457,2.622,7.036,2.522,10.994c24.822-6.609,49.321-14.25,73.499-22.923
				c-4.29-15.451-5.72-33.393-11.351-49.47c-1.786-5.119-5.389-11.71-4.61-16.232C144.601,142.837,152.889,135.558,156.089,124.592z
				 M90.69,153.145c6.24-16.067,19.34-32.738,12.359-44.631c-7.409,16.356-13.459,30.048-24.045,40.574
				c-7.099,7.059-20.237,14.769-21.87,27.209c-0.293,2.206,1.133,4.681,1.235,6.864c0.291,6.139-0.639,11.752-4.475,19.065
				c1.575,3.436,3.953,6.621,7.477,9.448C80.656,201.72,84.169,169.928,90.69,153.145z M220.82,229
				c-4.176-1.039-10.334-6.782-15.452-7.414c1.235,5.655,2.356,11.347,3.5,17.031c6.621,1.861,3.654,6.714,7.478,9.448
				c2.733,0.532,4.837-0.955,7.148-1.776c-0.217-2.953,0.324-6.143,1.553-9.546C221.573,234.806,220.968,231.975,220.82,229z
				 M167.248,240.271c-4.551-2.81-4.193-7.15-6.083-10.789c-19.616,7.804-42.256,13.657-60.338,21.536
				c20.145,0.187,40.333,0.473,60.712,1.454C163.258,248.463,166.882,243.858,167.248,240.271z M47.348,187.05
				c3.58-5.874-8.496-11.383-8.436-2.353C38.959,190.9,46.194,188.958,47.348,187.05z M124.583,309.759
				c-5.656-2.238-13.355-9.691-20.069-9.146c0.416,14.973,4.594,28.772,7.097,43.094c-9.082,3.084-14.179,15.473-26.116,6.333
				c-2.959-6.138,0.454-16.302,2.903-22.653c-1.14-8.253,0.015-17.222-3.625-24.694c-21.393,1.097-39.887,32.513-34.993,54.861
				c2.165,9.847,11.784,21.723,19.182,26.639c10.655,7.086,23.156,6.333,35.218,3.968c2.208-2.123,4.951-2.525,7.716-2.859
				c10.093-4.683,17.292-13.724,22.359-24.189C143.488,342.047,135.021,322.524,124.583,309.759z"/>
		</g>
	</g>
</g>
</svg>
