<?xml version="1.0" encoding="utf-8"?>
<!-- Generator: Adobe Illustrator 14.0.0, SVG Export Plug-In . SVG Version: 6.00 Build 43363)  -->
<!DOCTYPE svg PUBLIC "-//W3C//DTD SVG 1.0//EN" "http://www.w3.org/TR/2001/REC-SVG-20010904/DTD/svg10.dtd">
<svg version="1.0" xmlns="http://www.w3.org/2000/svg" xmlns:xlink="http://www.w3.org/1999/xlink" x="0px" y="0px" width="504px"
	 height="504px" viewBox="0 0 504 504" enable-background="new 0 0 504 504" xml:space="preserve">
<g id="Layer_1_x23_663927">
	<g>
		<g>
			<path fill="#663927" d="M437.265,96.049c14.439,36.472,24.534,78.758,21.377,130.513
				C451.829,339.012,386.229,423.271,300,470.713c-25.877,14.252-76.539,35.41-108.011,24.753
				c-22.252-7.501-39.16-34.098-50.63-57.381c-17.752-36.035-25.44-74.383-30.378-120.388c0-11.251,0-22.502,0-33.754
				c11.626-115.512,70.757-183.519,146.265-235.149c34.504-11.688,77.977-45.817,122.638-29.253
				C405.262,28.979,427.139,70.421,437.265,96.049z M455.267,199.56c-3.844-19.439,1.094-36.816-5.626-51.755
				c-2.875-6.438-19.658-17.346-28.128-22.502c-29.753-18.064-79.383-37.66-112.512-47.255
				c-10.345,13.689-20.158,27.878-29.253,42.754C342.349,141.71,403.167,165.556,455.267,199.56z M325.878,451.586
				c14.127-11.376,30.754-20.252,40.505-36.004c-60.632-9.907-122.138-39.004-180.019-61.881c-1.469,17.658-6.47,31.784-6.751,50.63
				C222.68,425.396,274.748,445.68,325.878,451.586z M277.498,119.677c8.032-15.596,19.064-28.19,28.128-42.755
				c-19.846-5.782-42.098-14.72-67.507-11.251c-9.188,8.47-22.127,18.971-31.503,27.003c-2.969,2.562-9.095,5.813-6.75,9.001
				C227.336,101.675,253.652,112.363,277.498,119.677z M278.623,164.681c2.594-9.438-10.47-10.782-16.877-13.501
				c-8.345-3.531-17.158-7.563-25.877-7.875c-0.344,2.656-3.907,2.094-3.375,5.625c3.938,3.219,11.688,2.562,14.626,6.75
				c-3.657,2.719-3.688,9.063-7.876,11.251c-3.907-1-15.189-7.345-16.877,0c0.312,6.688,10.845,5.063,13.501,9.001
				c-3.062,3.688-3.344,10.157-7.875,12.376c-4.563-1.688-15.596-6.938-16.877,1.125c3,4.5,11.438,3.563,14.626,7.876
				c-4.219,8.313-5.032,10.501-7.876,16.877c-4.282-2.813-9.22-5-16.876-4.5c-1.782,10.438,10.22,7.063,13.501,12.376
				c-2.094,5.813-4.063,11.689-6.751,16.877c-3.438-3.313-8.626-4.844-14.626-5.625c-0.531,1.344-1.188,2.562-2.25,3.375
				c1.188,7.063,11.157,5.344,14.626,10.126c-2.407,4.719-3.282,10.97-6.751,14.626c-3.875-2.844-8.032-5.438-14.626-5.626
				c-4.313,9.188,8.313,9.157,12.376,13.502c-1.188,5.562-2.375,11.126-4.5,15.751c-4.375-1.969-8.251-3.969-10.126-5.625
				c-4.125-0.375-5.782,1.75-6.751,4.5c3.375,4.907,10.188,6.313,14.626,10.126c-0.781,5.22-2.25,9.751-4.5,13.502
				c-2.844-3.532-10.657-8.907-14.626-4.501c0.562,7.907,11.689,12.439,19.127,15.752c7.532,3.375,19.565,10.47,25.878,3.375
				c0.625-5.125-11.97-6.219-14.626-9.001c1.719-4.281,1.312-10.688,4.5-13.501c4.25,1.406,10.626,5.345,15.751,2.25
				c0.719-9.313-11.126-6.125-14.626-11.251c2.563-4.562,2.5-11.751,5.625-15.752c4.938,0.812,14.251,8.376,16.877,1.125
				c-1.938-5.938-10.345-5.375-14.626-9c2.719-4.407,2.844-11.408,6.75-14.627c5,0.969,11.095,5.688,15.751,3.375
				c-0.031-1.531,0.532-2.469,1.125-3.375c-2.969-4.907-11.439-4.282-14.626-9.001c2.156-5.688,3.75-12.001,6.75-16.877
				c4.563,2.219,10.751,6.157,15.751,4.5c0.25-0.875,0.031-2.219,1.125-2.25c-0.969-6.907-10.345-5.375-13.501-10.126
				c2.406-5.845,4.407-12.064,7.875-16.877c5.595,2.125,11.251,7.563,16.877,3.375c-0.219-8.376-10.501-6.751-14.626-11.251
				c3.532-3.562,4.344-9.907,7.876-13.501c4.75,1.594,10.532,7.032,16.876,3.375c0.906-9.501-10.501-6.719-13.501-12.376
				c3.312-3.438,4.156-9.345,7.876-12.376C267.247,161.837,271.903,164.275,278.623,164.681z M176.238,402.081
				c2.906-16.971,4.531-35.223,9-50.63c-26.471-9.908-51.88-26.847-72.007-39.38c6.219,17.627,0.688,35.66,5.625,50.631
				C125.514,382.86,161.173,391.986,176.238,402.081z"/>
		</g>
	</g>
</g>
<g id="Layer_2_x23_FFFFFF">
	<g>
		<g>
			<path fill="#FFFFFF" d="M261.746,151.18c6.407,2.719,19.471,4.063,16.877,13.501c-6.72-0.406-11.376-2.844-15.751-5.625
				c-3.72,3.032-4.563,8.938-7.876,12.376c3,5.657,14.407,2.875,13.501,12.376c-6.345,3.657-12.126-1.781-16.876-3.375
				c-3.532,3.594-4.344,9.938-7.876,13.501c4.125,4.5,14.408,2.875,14.626,11.251c-5.625,4.188-11.282-1.25-16.877-3.375
				c-3.469,4.813-5.469,11.032-7.875,16.877c3.156,4.75,12.532,3.219,13.501,10.126c-1.094,0.031-0.875,1.375-1.125,2.25
				c-5,1.657-11.188-2.281-15.751-4.5c-3,4.875-4.594,11.189-6.75,16.877c3.188,4.719,11.657,4.094,14.626,9.001
				c-0.594,0.906-1.157,1.844-1.125,3.375c-4.657,2.313-10.751-2.406-15.751-3.375c-3.907,3.219-4.032,10.22-6.75,14.627
				c4.282,3.625,12.688,3.062,14.626,9c-2.625,7.251-11.939-0.312-16.877-1.125c-3.125,4.001-3.062,11.189-5.625,15.752
				c3.5,5.126,15.345,1.938,14.626,11.251c-5.125,3.095-11.501-0.844-15.751-2.25c-3.188,2.812-2.782,9.22-4.5,13.501
				c2.656,2.782,15.251,3.876,14.626,9.001c-6.313,7.095-18.346,0-25.878-3.375c-7.438-3.312-18.564-7.845-19.127-15.752
				c3.969-4.406,11.783,0.969,14.626,4.501c2.25-3.751,3.719-8.282,4.5-13.502c-4.438-3.812-11.251-5.219-14.626-10.126
				c0.969-2.75,2.625-4.875,6.751-4.5c1.875,1.656,5.75,3.656,10.126,5.625c2.125-4.625,3.313-10.188,4.5-15.751
				c-4.063-4.345-16.689-4.313-12.376-13.502c6.595,0.188,10.751,2.782,14.626,5.626c3.469-3.656,4.344-9.907,6.751-14.626
				c-3.469-4.782-13.439-3.063-14.626-10.126c1.062-0.813,1.719-2.032,2.25-3.375c6,0.781,11.189,2.312,14.626,5.625
				c2.688-5.188,4.657-11.063,6.751-16.877c-3.282-5.313-15.283-1.938-13.501-12.376c7.657-0.5,12.595,1.688,16.876,4.5
				c2.844-6.376,3.657-8.563,7.876-16.877c-3.188-4.313-11.626-3.375-14.626-7.876c1.281-8.063,12.314-2.812,16.877-1.125
				c4.532-2.219,4.813-8.688,7.875-12.376c-2.656-3.938-13.189-2.313-13.501-9.001c1.688-7.345,12.97-1,16.877,0
				c4.188-2.188,4.219-8.532,7.876-11.251c-2.938-4.188-10.689-3.531-14.626-6.75c-0.532-3.532,3.031-2.969,3.375-5.625
				C244.588,143.617,253.401,147.648,261.746,151.18z"/>
			<path fill="#FFFFFF" d="M366.383,415.582c-9.751,15.752-26.378,24.628-40.505,36.004c-51.13-5.906-103.198-26.19-146.265-47.255
				c0.281-18.846,5.282-32.972,6.751-50.63C244.245,376.578,305.751,405.675,366.383,415.582z"/>
			<path fill="#FFFFFF" d="M185.238,351.451c-4.469,15.407-6.094,33.659-9,50.63c-15.064-10.095-50.724-19.221-57.381-39.379
				c-4.938-14.971,0.594-33.004-5.625-50.631C133.358,324.604,158.767,341.543,185.238,351.451z"/>
			<path fill="#FFFFFF" d="M305.626,76.922c-9.063,14.564-20.096,27.159-28.128,42.755c-23.846-7.313-50.162-18.002-77.633-18.002
				c-2.344-3.188,3.781-6.438,6.75-9.001c9.376-8.032,22.315-18.533,31.503-27.003C263.528,62.202,285.78,71.14,305.626,76.922z"/>
			<path fill="#FFFFFF" d="M449.641,147.805c6.72,14.939,1.782,32.316,5.626,51.755c-52.1-34.004-112.918-57.85-175.519-78.758
				c9.095-14.876,18.908-29.065,29.253-42.754c33.129,9.595,82.759,29.19,112.512,47.255
				C429.982,130.459,446.766,141.366,449.641,147.805z"/>
		</g>
	</g>
</g>
</svg>
