<?xml version="1.0" encoding="utf-8"?>
<!-- Generator: Adobe Illustrator 14.0.0, SVG Export Plug-In . SVG Version: 6.00 Build 43363)  -->
<!DOCTYPE svg PUBLIC "-//W3C//DTD SVG 1.0//EN" "http://www.w3.org/TR/2001/REC-SVG-20010904/DTD/svg10.dtd">
<svg version="1.0" xmlns="http://www.w3.org/2000/svg" xmlns:xlink="http://www.w3.org/1999/xlink" x="0px" y="0px" width="720px"
	 height="720px" viewBox="0 0 720 720" enable-background="new 0 0 720 720" xml:space="preserve">
<g id="Layer_1_x23_000000">
	<g>
		<g>
			<path fill="none" d="M589.94,100c0,180.98,0,361.96,0,542.93c-149.98,0-299.96,0-449.94,0c0-93.319,0-186.64,0-279.96
				c5.72,28.48,7.79,52.61,22,77.99c1.33,0.93,1.19,2.41,1.04,4.01c-0.01,0-0.03-0.01-0.04-0.01c0.01,0.021,0.02,0.05,0.03,0.07
				c-0.18,2.109-0.34,4.42,2.97,5.93c6.06,12.87,16.63,24.68,24.99,36.99c3.52,5.18,7.29,8.95,12,14c3.45,3.689,6.45,4.01,7,9
				c0.95,8.64-6.67,11.359-9,18c-6.98,19.95,1.8,46.89,17,44.99c15.52-1.94,10.13-34.601,24-40.99
				c24.02,18.52,59.24,30.439,92.99,35.99c10.41-3.171,14.23,1.26,26.99,2c0.21,25.21-4.12,45.869-11,63.989
				c4.84,7.62,33.48,9.7,39,1c-2.46-9.199-6.06-17.27-10-24.989c1.54-14.471,1.511-30.49,6-42c12.36-1.931,25.75-1.891,33.99-8
				c3,0,6,0,9,0c6.83-2.421,8.7-5.091,18-6c13.24-6.271,23.57-14.771,35-17.99c2.271-1.55,1.89-2.09,1-5c2.33,0,4.66,0,7,0
				c7.94-9.061,20.06-13.94,26.99-24c10.75-6.25,15.74-18.26,25-26c11.93-19.94,25.26-35.92,31-60.99c3.54-2.46,2.95-9.05,6-12
				c-1.87-3.67,0.66-5.53-1-9c6.689,3.09-1.33-7.13,5-7c-0.33-3.67,0.85-8.85-1-11c4.99-5.03,5.24-21.88,1.99-26.99
				c10.67-6.51-0.971-26.7-0.99-35c-0.01-1.59,2.89-2.63,2.99-2c-0.681-3.96-3.69-4.06-3.99-7c-0.2-1.82,1.069-4.3,1-6
				c-0.34-7.83-2.521-14.53-7-20.99c0.399-3.42,2.7-1.27,1-5c-8.86-15.14-11.09-36.91-25-47c-0.67-10.97-10.22-17.92-17-26.99
				c-9.4-12.58-23.021-25.64-35.99-36c-1.01-2.66-4.04-3.3-6-5c-4.67-0.88-6.67-7.45-11-3c-1.01-3.32-0.229-3.54-3-6
				c-21.28-10.73-40.64-20.75-68.99-25.99c6.88-33.42-48.63-35.89-48-6c-8.35,1.63-17.32-2.2-21.99,4c-10.09-2.79-28.45,3.33-42,6
				c-5.51,1.84-11.01,2.44-14.2,4.94c-0.22,0.02-0.42,0.17-0.6,0.53c-0.47,0.45-0.87,0.95-1.2,1.53
				c-14.06,2.64-18.34,9.92-29.99,12.99c-2.58,0.24,1.37,1.72,0,4c-4.76-1.65-3.7,0.46-8,1c-36.79,24.21-65.13,56.87-84.99,97.99
				c-3.6,14.11-13.25,31.56-12,44c1.47,3.8-4.47,0.19-3,3.99c-0.29,9-0.93,15.43-4,26c0-76.66,0-153.31,0-229.97
				C289.98,100,439.96,100,589.94,100z"/>
			<path fill="none" d="M589.94,100c0,180.98,0,361.96,0,542.93c-149.98,0-299.96,0-449.94,0c0-93.319,0-186.64,0-279.96
				c5.72,28.48,7.79,52.61,22,77.99c1.33,0.93,1.19,2.41,1.04,4.01c-0.01,0-0.03-0.01-0.04-0.01c0.01,0.021,0.02,0.05,0.03,0.07
				c-0.18,2.109-0.34,4.42,2.97,5.93c6.06,12.87,16.63,24.68,24.99,36.99c3.52,5.18,7.29,8.95,12,14c3.45,3.689,6.45,4.01,7,9
				c0.95,8.64-6.67,11.359-9,18c-6.98,19.95,1.8,46.89,17,44.99c15.52-1.94,10.13-34.601,24-40.99
				c24.02,18.52,59.24,30.439,92.99,35.99c10.41-3.171,14.23,1.26,26.99,2c0.21,25.21-4.12,45.869-11,63.989
				c4.84,7.62,33.48,9.7,39,1c-2.46-9.199-6.06-17.27-10-24.989c1.54-14.471,1.511-30.49,6-42c12.36-1.931,25.75-1.891,33.99-8
				c3,0,6,0,9,0c6.83-2.421,8.7-5.091,18-6c13.24-6.271,23.57-14.771,35-17.99c2.271-1.55,1.89-2.09,1-5c2.33,0,4.66,0,7,0
				c7.94-9.061,20.06-13.94,26.99-24c10.75-6.25,15.74-18.26,25-26c11.93-19.94,25.26-35.92,31-60.99c3.54-2.46,2.95-9.05,6-12
				c-1.87-3.67,0.66-5.53-1-9c6.689,3.09-1.33-7.13,5-7c-0.33-3.67,0.85-8.85-1-11c4.99-5.03,5.24-21.88,1.99-26.99
				c10.67-6.51-0.971-26.7-0.99-35c-0.01-1.59,2.89-2.63,2.99-2c-0.681-3.96-3.69-4.06-3.99-7c-0.2-1.82,1.069-4.3,1-6
				c-0.34-7.83-2.521-14.53-7-20.99c0.399-3.42,2.7-1.27,1-5c-8.86-15.14-11.09-36.91-25-47c-0.67-10.97-10.22-17.92-17-26.99
				c-9.4-12.58-23.021-25.64-35.99-36c-1.01-2.66-4.04-3.3-6-5c-4.67-0.88-6.67-7.45-11-3c-1.01-3.32-0.229-3.54-3-6
				c-21.28-10.73-40.64-20.75-68.99-25.99c6.88-33.42-48.63-35.89-48-6c-8.35,1.63-17.32-2.2-21.99,4c-10.09-2.79-28.45,3.33-42,6
				c-5.51,1.84-11.01,2.44-14.2,4.94c-0.22,0.02-0.42,0.17-0.6,0.53c-0.47,0.45-0.87,0.95-1.2,1.53
				c-14.06,2.64-18.34,9.92-29.99,12.99c-2.58,0.24,1.37,1.72,0,4c-4.76-1.65-3.7,0.46-8,1c-36.79,24.21-65.13,56.87-84.99,97.99
				c-3.6,14.11-13.25,31.56-12,44c1.47,3.8-4.47,0.19-3,3.99c-0.29,9-0.93,15.43-4,26c0-76.66,0-153.31,0-229.97
				C289.98,100,439.96,100,589.94,100z"/>
			<path fill="#020202" d="M585.94,317.97c-0.101-0.63-3,0.41-2.99,2c0.02,8.3,11.66,28.49,0.99,35c3.25,5.11,3,21.959-1.99,26.99
				c1.85,2.15,0.67,7.33,1,11c-6.33-0.13,1.689,10.09-5,7c1.66,3.47-0.87,5.33,1,9c-3.05,2.95-2.46,9.54-6,12
				c-5.74,25.07-19.07,41.05-31,60.99c-9.26,7.74-14.25,19.75-25,26c-6.931,10.06-19.05,14.939-26.99,24c-2.34,0-4.67,0-7,0
				c0.89,2.91,1.271,3.45-1,5c-11.43,3.22-21.76,11.72-35,17.99c-9.3,0.909-11.17,3.579-18,6c-3,0-6,0-9,0
				c-8.24,6.109-21.63,6.069-33.99,8c-4.489,11.51-4.46,27.529-6,42c3.94,7.72,7.54,15.79,10,24.989c-5.52,8.7-34.16,6.62-39-1
				c6.88-18.12,11.209-38.779,11-63.989c-12.76-0.74-16.58-5.171-26.99-2c-33.75-5.551-68.97-17.471-92.99-35.99
				c-13.87,6.39-8.48,39.05-24,40.99c-15.2,1.899-23.98-25.04-17-44.99c2.33-6.641,9.95-9.36,9-18c-0.55-4.99-3.55-5.311-7-9
				c-4.71-5.05-8.48-8.82-12-14c-8.36-12.311-18.93-24.12-24.99-36.99c-0.95-2.03-2.02-3.92-2.97-5.93
				c0.01-0.021,0.01-0.04,0.01-0.061c3.79,0.71,1.8-5.319-1.04-4.01c-14.21-25.38-16.28-49.51-22-77.99c0-11,0-22,0-33
				c3.07-10.57,3.71-17,4-26c-1.47-3.8,4.47-0.19,3-3.99c-1.25-12.44,8.4-29.89,12-44c19.86-41.12,48.2-73.78,84.99-97.99
				c4.3-0.54,3.24-2.65,8-1c1.37-2.28-2.58-3.76,0-4c11.65-3.07,15.93-10.35,29.99-12.99c0.61-0.06,1.19-0.15,1-1
				c0.06-0.21,0.13-0.39,0.2-0.53c0.19-0.19,0.39-0.36,0.6-0.53c0.95-0.09,2.35,2.03,4.2,1.06c-0.86-6.2,9.12-1.56,10-6
				c13.55-2.67,31.91-8.79,42-6c4.67-6.2,13.64-2.37,21.99-4c-0.63-29.89,54.88-27.42,48,6c28.351,5.24,47.71,15.26,68.99,25.99
				c2.771,2.46,1.99,2.68,3,6c4.33-4.45,6.33,2.12,11,3c-1.16,1.48-1.16,2.52,0,4c3.87-0.43,3.55-1.09,6,1
				c12.97,10.36,26.59,23.42,35.99,36c6.78,9.07,16.33,16.02,17,26.99c13.91,10.09,16.14,31.86,25,47c1.7,3.73-0.601,1.58-1,5
				c4.479,6.46,6.66,13.16,7,20.99c0.069,1.7-1.2,4.18-1,6C582.25,313.91,585.26,314.01,585.94,317.97z M579.95,343.97
				c-0.63-5.61,2.3-12.4,2-17c-0.07-0.9-2.7-3.75-3-5c-2.44-10.04-0.47-22.34-5-26.99c-14.58,6.72-32.63,5.92-50,9.99
				c2.18,5.49,2.22,13.12,2,21c-6.22,19.87-29.07,33.41-52.99,24c-13.95-5.49-19.43-20.67-25-33c-4.229,3.85-14.18,5.92-21,4
				c-4.12,5.21-15.15,3.52-23.99,4c-0.76,3.91-5.1,4.24-5,9c0.891,2.11,3.04,2.96,3,6c-4.72,16.53,2.13,28.94,0,44.99
				c4.11,0.22,8.5,0.16,10,3c0.55,21.8,1.49,30.91,2,48c12.761,5.2,4.521,19.68-8,19c13.91,14.91,35.8,18.07,51.99,28.99
				c1.81-4.04,4.05,3.439,9,0c3.46,1.54,4.96,5.04,10,5c1.87-0.24-0.57-1.65,1-2c7.82,6.06,15.33,2.149,22,7c0.21,1.12,1.1,1.56,2,2
				c3.04-1.76-2.729-3.101,0-4c6.49,1.84,14.62,2.04,20.99,4c5.91-5.431,8.479-14.181,17-17c-2.22-5.05,3.689-9.22,7-9
				c-1.34-0.65-1.86-2.13-2-4c1.99-1.66,1.27,0.09,4,0c-0.37-7.73,6.09-15.41,11-20.99c0.87-7.93,3.88-11.45,7-15
				c-1.811-4.78,1.79-10.18,5-13c-1.74-3.33,0.5-4.43,0-9c1.979-1.66,1.27,0.09,4,0c0.479-3.15-3.07-2.26-2-6
				c1.17-0.15,2.83,0.17,3-1c-1.561-13.22,6.6-32.66,4-43.99C585.19,358.06,580.51,349.06,579.95,343.97z M573.95,292.98
				c0.2-11.52-8.44-22.48-10-33c0.39-4.06-0.37-6.97-4-7c-11-21.33-23.141-41.52-40-56.99c1.18-0.16,2.84,0.17,3-1
				c-1.16-0.17-1.08-1.58-1-3c-1.66,0-3.33,0-5,0c-8.681-7.65-18-14.66-24.99-24c-1.97-0.3-1.99,1.35-3,2
				c-6.64-9.01-16.7-9.08-24-18c-0.11,1.22-0.3,2.37-2,2c-5.51-6.5-13.1-6.47-23-10c-13.99-4.98-21.88-8.89-27.99,5
				c-0.779,1.78-4.26,3.59-5,5c-4.55,8.7-6.97,14.48-10,23c11.221,13.49,36.721,31.85,20,54.99c-0.1,8.24-2.87,13.8-3,22
				c-1.34,0-2.67,0-4,0c0.971,5.97-2.359,7.64-2,13c11.2,11.12,23.91,20.75,41.99,25c2.33-2.35,2.66-6.67,6-8
				c9.32-3.76,15.12-10.54,26-11c19.23-0.82,33.771,13.76,39.99,28C544.19,299.84,553.33,296.2,573.95,292.98z M483.96,529.95
				c8.17-11.16,23.03-15.641,29.99-28c-22.69-4.96-48.23-8.681-68.99-18c0-0.66,0-1.33,0-2c-1.96-0.3-1.979,1.35-3,2
				c-15.24-9.601-28.91-14.601-41.99-25.99c-12.779,26.79-4.62,70.6-12,103.98c20.9,1.529,41.521-10.841,60.99-13
				C459.51,541.5,470.22,534.21,483.96,529.95z M451.96,307.97c-19.33,0.01-33.43-5.22-51.99-6c-3.43,7.5-0.27,12.5,0,21
				c16.37,0.21,28.95-7.29,49.99-7C451.01,313.69,450.6,309.94,451.96,307.97z M410.97,139c2.83,0.73,5.91-3.29,3-5
				c-0.85,2.93-2.52-1.3-5,0C408.22,137.08,412.41,135.21,410.97,139z M354.97,165.99c6.47-1.53,5.8-10.2,8-16
				c-6.8-2.45-6.59-16.45,0-18.99c-5.22-6.63-21.64,2.39-30.99-2c-3.1,4.45-11.44,4.77-19,4c-12.54,6.96-31.26,9.05-44,17.99
				c-2.29,30.22-2.41,47.77,1,76.99c-2.59-0.59-3.59,0.41-3,3c5.76,2.78,7.15-6.61,8-11.99c3.73-3.28,9.24-4.77,13-8
				c8.07-27.26,34.3-36.36,54.99-51C347.93,161.04,350.41,164.56,354.97,165.99z M359.97,562.94c-9.13-30.66,7.89-62.53-5-91.99
				c-13.05-2.271-16.09-14.57-20.99-24.99c-8.54,7.45-8.04,23.96-14,33.99c3.13,10.43,3.69,17.439,10,24c-0.02,1.99-2.73,1.27-2,4
				C341.96,522.97,342.55,551.37,359.97,562.94z M348.97,563.94c-9.34-22.65-23.65-40.33-27.99-67.99c-5.65,0.99-2.83-6.51-7-7
				c-6.03,23.3-33.06,25.6-60.99,27c-3.67,3.99-6.99,8.34-9,14C276.19,547.57,307.12,562.14,348.97,563.94z M281.98,327.97
				c2.4-3.94,8.59-4.08,8-11c-1.96-1.7-6.18-1.15-8-3c-3.2-7.43,2.63-13.86,3-20.99c-3.24-1.79-7.22-8.08-11-6
				C275.23,298.95,279,317.57,281.98,327.97z M273.98,345.97c2.71-12.87-1.82-22.44-4-35c1.18-0.15,2.84,0.18,3-1
				c-3.87-0.12-2.76-5.23-4-8c1.58-0.09,3.47,0.14,3-1.99c-5.66-8.64-3.3-27.76-18.99-31c0-1-0.81-1.19-1-2
				c2.24-11.75,7.54-20.46,11.99-30c-3.71-28.32-3.42-50.35-1-71.99c-3.2-2.85,1.77-10.35-4.99-11c-1.73,3.05-4.13,6.96-8,5
				c-22.8,17.86-46.65,34.68-62,60c-1.35,0.31-1.91,1.42-4,0.99c-0.23,5.44-4.13,7.21-5.99,11c3.43,7.57,11.93,10.06,13.99,19
				c6.77,1.9,10.3,7.04,12,14c6.1,3.35,12.62,11.22,12,18c16.81,14.89,22.09,45.39,28,67.99c4.14-1.15,3.89,2.1,7,2
				C255.48,346.8,266.83,348.49,273.98,345.97z M272.98,471.95c4.2-13.181-3.23-26.351-4-38.99c-0.16-2.68,1.84-5.36,2-8
				c1.44-23.87-9.15-49.16,0-73.99c-10.69-0.45-14.29,2.52-25.99,4c3.86,11.69,1.67,23.589,4,35.99c-1.5,0.17-3.69-0.35-4,1
				c3.82,2.72,3.22,21.35,2,24c-1.32,2.85-2.35-1.75-3,2c-1.2,6.85,0.79,12.69-2,19c-0.22-0.78-0.84-1.16-2-1
				c-0.05,1.37,0.47,2.19,1,3c-1.59,12.97-7.65,17.76-8,27.99c-1.35,0.319-1.91,1.43-4,1c1.64,3.25,0.39,6.189-1,9
				c3.69,0.97,5.74,3.59,11,3c2.45,2.22,2.16,7.17,4,10C254.58,485.54,257.44,472.4,272.98,471.95z M239.99,399.96c1,0,2,0,3,0
				c-2.43-9.6-0.18-22.4-4-35.99c1.46-2.319,3.17,1.95,3-2c-3.27-2.07-2.73-7.94-8-8c-2.81-0.43,2.5,3.73-1,4
				c-3.19,0.86-3.09-1.58-5-2c-11.69,6.08-31.26,6.83-44,9c-13.76,2.15-23.25,4.83-35.99,7c0.52,18.511,4.24,31.141,10,45.99
				c-1.28-0.05-1.39-1.28-3-1c5.51,8.73,13.95,24.15,16,36c14.65,13.84,21.54,35.55,37.99,44.99c4.73-4.271,4.66-13.34,11-16
				c0.9-4.09-0.27-10.26,5-10c0.83-2.82-1.41-2.59-1-5c7.45-5.58,5.57-21.07,12-24.99C234.15,432.44,241.97,416.2,239.99,399.96z
				 M238.99,351.97c-3.26-12.94-3.57-20.09-10-32c1.18-0.15,2.84,0.17,3-1c-2.8-2.42-9.52-8.57-5-12
				c-15.06-25.27-28.52-52.14-51.99-68.99c-5.05,0.96-1.16,10.85-8,10c-0.46,7.21-1.89,13.45-7,16c-0.19,11.77-8.22,18.89-7,29
				c-1,0-2,0-3,0c0.76,17.41-5.04,28.9-4,44.99c-1.43-0.24-1.69-1.65-3-2c3.28,9.91,2.18,19.45,4,32
				c12.94,0.271,24.77-6.399,40.99-5c3.15-4.63,15.11-4.29,20-4c5.49-5.48,11.97-1.1,18-5c3.38-1.6,4.27,4.24,6,1
				C228.04,351.59,238.33,354.05,238.99,351.97z"/>
			<path fill="#020202" d="M492.96,163.99c1.96,1.7,4.99,2.34,6,5c-2.45-2.09-2.13-1.43-6-1
				C491.8,166.51,491.8,165.47,492.96,163.99z"/>
			<path fill="#020202" d="M283.78,137.94c3.19-2.5,8.69-3.1,14.2-4.94c-0.88,4.44-10.86-0.2-10,6
				C286.13,139.97,284.73,137.85,283.78,137.94z"/>
			<path fill="#020202" d="M162,440.96c2.84-1.31,4.83,4.72,1.04,4.01C163.19,443.37,163.33,441.89,162,440.96z"/>
		</g>
	</g>
</g>
<g id="Layer_2_x23_5DC9E5">
	<g>
		<g>
			<path fill="none" d="M242.99,399.96c-1,0-2,0-3,0c1.98,16.24-5.84,32.48-4,42c-6.43,3.92-4.55,19.41-12,24.99
				c-0.41,2.41,1.83,2.18,1,5c-5.27-0.26-4.1,5.91-5,10c-6.34,2.66-6.27,11.729-11,16c-16.45-9.44-23.34-31.15-37.99-44.99
				c-2.05-11.85-10.49-27.27-16-36c1.61-0.28,1.72,0.95,3,1c-5.76-14.85-9.48-27.479-10-45.99c12.74-2.17,22.23-4.85,35.99-7
				c12.74-2.17,32.31-2.92,44-9c1.91,0.42,1.81,2.86,5,2c3.5-0.27-1.81-4.43,1-4c5.27,0.06,4.73,5.93,8,8c0.17,3.95-1.54-0.319-3,2
				C242.81,377.56,240.56,390.36,242.99,399.96z"/>
			<path fill="none" d="M585.94,317.97c-0.101-0.63-3,0.41-2.99,2c0.02,8.3,11.66,28.49,0.99,35c3.25,5.11,3,21.959-1.99,26.99
				c1.85,2.15,0.67,7.33,1,11c-6.33-0.13,1.689,10.09-5,7c1.66,3.47-0.87,5.33,1,9c-3.05,2.95-2.46,9.54-6,12
				c-5.74,25.07-19.07,41.05-31,60.99c-9.26,7.74-14.25,19.75-25,26c-6.931,10.06-19.05,14.939-26.99,24c-2.34,0-4.67,0-7,0
				c0.89,2.91,1.271,3.45-1,5c-11.43,3.22-21.76,11.72-35,17.99c-9.3,0.909-11.17,3.579-18,6c-3,0-6,0-9,0
				c-8.24,6.109-21.63,6.069-33.99,8c-4.489,11.51-4.46,27.529-6,42c3.94,7.72,7.54,15.79,10,24.989c-5.52,8.7-34.16,6.62-39-1
				c6.88-18.12,11.209-38.779,11-63.989c-12.76-0.74-16.58-5.171-26.99-2c-33.75-5.551-68.97-17.471-92.99-35.99
				c-13.87,6.39-8.48,39.05-24,40.99c-15.2,1.899-23.98-25.04-17-44.99c2.33-6.641,9.95-9.36,9-18c-0.55-4.99-3.55-5.311-7-9
				c-4.71-5.05-8.48-8.82-12-14c-8.36-12.311-18.93-24.12-24.99-36.99c-0.95-2.03-2.02-3.92-2.97-5.93
				c0.01-0.021,0.01-0.04,0.01-0.061c3.79,0.71,1.8-5.319-1.04-4.01c-14.21-25.38-16.28-49.51-22-77.99c0-11,0-22,0-33
				c3.07-10.57,3.71-17,4-26c-1.47-3.8,4.47-0.19,3-3.99c-1.25-12.44,8.4-29.89,12-44c19.86-41.12,48.2-73.78,84.99-97.99
				c4.3-0.54,3.24-2.65,8-1c1.37-2.28-2.58-3.76,0-4c11.65-3.07,15.93-10.35,29.99-12.99c0.61-0.06,1.19-0.15,1-1
				c0.06-0.21,0.13-0.39,0.2-0.53c0.19-0.19,0.39-0.36,0.6-0.53c0.95-0.09,2.35,2.03,4.2,1.06c-0.86-6.2,9.12-1.56,10-6
				c13.55-2.67,31.91-8.79,42-6c4.67-6.2,13.64-2.37,21.99-4c-0.63-29.89,54.88-27.42,48,6c28.351,5.24,47.71,15.26,68.99,25.99
				c2.771,2.46,1.99,2.68,3,6c4.33-4.45,6.33,2.12,11,3c-1.16,1.48-1.16,2.52,0,4c3.87-0.43,3.55-1.09,6,1
				c12.97,10.36,26.59,23.42,35.99,36c6.78,9.07,16.33,16.02,17,26.99c13.91,10.09,16.14,31.86,25,47c1.7,3.73-0.601,1.58-1,5
				c4.479,6.46,6.66,13.16,7,20.99c0.069,1.7-1.2,4.18-1,6C582.25,313.91,585.26,314.01,585.94,317.97z M579.95,343.97
				c-0.63-5.61,2.3-12.4,2-17c-0.07-0.9-2.7-3.75-3-5c-2.44-10.04-0.47-22.34-5-26.99c-14.58,6.72-32.63,5.92-50,9.99
				c2.18,5.49,2.22,13.12,2,21c-6.22,19.87-29.07,33.41-52.99,24c-13.95-5.49-19.43-20.67-25-33c-4.229,3.85-14.18,5.92-21,4
				c-4.12,5.21-15.15,3.52-23.99,4c-0.76,3.91-5.1,4.24-5,9c0.891,2.11,3.04,2.96,3,6c-4.72,16.53,2.13,28.94,0,44.99
				c4.11,0.22,8.5,0.16,10,3c0.55,21.8,1.49,30.91,2,48c12.761,5.2,4.521,19.68-8,19c13.91,14.91,35.8,18.07,51.99,28.99
				c1.81-4.04,4.05,3.439,9,0c3.46,1.54,4.96,5.04,10,5c1.87-0.24-0.57-1.65,1-2c7.82,6.06,15.33,2.149,22,7c0.21,1.12,1.1,1.56,2,2
				c3.04-1.76-2.729-3.101,0-4c6.49,1.84,14.62,2.04,20.99,4c5.91-5.431,8.479-14.181,17-17c-2.22-5.05,3.689-9.22,7-9
				c-1.34-0.65-1.86-2.13-2-4c1.99-1.66,1.27,0.09,4,0c-0.37-7.73,6.09-15.41,11-20.99c0.87-7.93,3.88-11.45,7-15
				c-1.811-4.78,1.79-10.18,5-13c-1.74-3.33,0.5-4.43,0-9c1.979-1.66,1.27,0.09,4,0c0.479-3.15-3.07-2.26-2-6
				c1.17-0.15,2.83,0.17,3-1c-1.561-13.22,6.6-32.66,4-43.99C585.19,358.06,580.51,349.06,579.95,343.97z M573.95,292.98
				c0.2-11.52-8.44-22.48-10-33c0.39-4.06-0.37-6.97-4-7c-11-21.33-23.141-41.52-40-56.99c1.18-0.16,2.84,0.17,3-1
				c-1.16-0.17-1.08-1.58-1-3c-1.66,0-3.33,0-5,0c-8.681-7.65-18-14.66-24.99-24c-1.97-0.3-1.99,1.35-3,2
				c-6.64-9.01-16.7-9.08-24-18c-0.11,1.22-0.3,2.37-2,2c-5.51-6.5-13.1-6.47-23-10c-13.99-4.98-21.88-8.89-27.99,5
				c-0.779,1.78-4.26,3.59-5,5c-4.55,8.7-6.97,14.48-10,23c11.221,13.49,36.721,31.85,20,54.99c-0.1,8.24-2.87,13.8-3,22
				c-1.34,0-2.67,0-4,0c0.971,5.97-2.359,7.64-2,13c11.2,11.12,23.91,20.75,41.99,25c2.33-2.35,2.66-6.67,6-8
				c9.32-3.76,15.12-10.54,26-11c19.23-0.82,33.771,13.76,39.99,28C544.19,299.84,553.33,296.2,573.95,292.98z M483.96,529.95
				c8.17-11.16,23.03-15.641,29.99-28c-22.69-4.96-48.23-8.681-68.99-18c0-0.66,0-1.33,0-2c-1.96-0.3-1.979,1.35-3,2
				c-15.24-9.601-28.91-14.601-41.99-25.99c-12.779,26.79-4.62,70.6-12,103.98c20.9,1.529,41.521-10.841,60.99-13
				C459.51,541.5,470.22,534.21,483.96,529.95z M451.96,307.97c-19.33,0.01-33.43-5.22-51.99-6c-3.43,7.5-0.27,12.5,0,21
				c16.37,0.21,28.95-7.29,49.99-7C451.01,313.69,450.6,309.94,451.96,307.97z M410.97,139c2.83,0.73,5.91-3.29,3-5
				c-0.85,2.93-2.52-1.3-5,0C408.22,137.08,412.41,135.21,410.97,139z M354.97,165.99c6.47-1.53,5.8-10.2,8-16
				c-6.8-2.45-6.59-16.45,0-18.99c-5.22-6.63-21.64,2.39-30.99-2c-3.1,4.45-11.44,4.77-19,4c-12.54,6.96-31.26,9.05-44,17.99
				c-2.29,30.22-2.41,47.77,1,76.99c-2.59-0.59-3.59,0.41-3,3c5.76,2.78,7.15-6.61,8-11.99c3.73-3.28,9.24-4.77,13-8
				c8.07-27.26,34.3-36.36,54.99-51C347.93,161.04,350.41,164.56,354.97,165.99z M359.97,562.94c-9.13-30.66,7.89-62.53-5-91.99
				c-13.05-2.271-16.09-14.57-20.99-24.99c-8.54,7.45-8.04,23.96-14,33.99c3.13,10.43,3.69,17.439,10,24c-0.02,1.99-2.73,1.27-2,4
				C341.96,522.97,342.55,551.37,359.97,562.94z M348.97,563.94c-9.34-22.65-23.65-40.33-27.99-67.99c-5.65,0.99-2.83-6.51-7-7
				c-6.03,23.3-33.06,25.6-60.99,27c-3.67,3.99-6.99,8.34-9,14C276.19,547.57,307.12,562.14,348.97,563.94z M281.98,327.97
				c2.4-3.94,8.59-4.08,8-11c-1.96-1.7-6.18-1.15-8-3c-3.2-7.43,2.63-13.86,3-20.99c-3.24-1.79-7.22-8.08-11-6
				C275.23,298.95,279,317.57,281.98,327.97z M273.98,345.97c2.71-12.87-1.82-22.44-4-35c1.18-0.15,2.84,0.18,3-1
				c-3.87-0.12-2.76-5.23-4-8c1.58-0.09,3.47,0.14,3-1.99c-5.66-8.64-3.3-27.76-18.99-31c0-1-0.81-1.19-1-2
				c2.24-11.75,7.54-20.46,11.99-30c-3.71-28.32-3.42-50.35-1-71.99c-3.2-2.85,1.77-10.35-4.99-11c-1.73,3.05-4.13,6.96-8,5
				c-22.8,17.86-46.65,34.68-62,60c-1.35,0.31-1.91,1.42-4,0.99c-0.23,5.44-4.13,7.21-5.99,11c3.43,7.57,11.93,10.06,13.99,19
				c6.77,1.9,10.3,7.04,12,14c6.1,3.35,12.62,11.22,12,18c16.81,14.89,22.09,45.39,28,67.99c4.14-1.15,3.89,2.1,7,2
				C255.48,346.8,266.83,348.49,273.98,345.97z M272.98,471.95c4.2-13.181-3.23-26.351-4-38.99c-0.16-2.68,1.84-5.36,2-8
				c1.44-23.87-9.15-49.16,0-73.99c-10.69-0.45-14.29,2.52-25.99,4c3.86,11.69,1.67,23.589,4,35.99c-1.5,0.17-3.69-0.35-4,1
				c3.82,2.72,3.22,21.35,2,24c-1.32,2.85-2.35-1.75-3,2c-1.2,6.85,0.79,12.69-2,19c-0.22-0.78-0.84-1.16-2-1
				c-0.05,1.37,0.47,2.19,1,3c-1.59,12.97-7.65,17.76-8,27.99c-1.35,0.319-1.91,1.43-4,1c1.64,3.25,0.39,6.189-1,9
				c3.69,0.97,5.74,3.59,11,3c2.45,2.22,2.16,7.17,4,10C254.58,485.54,257.44,472.4,272.98,471.95z M239.99,399.96c1,0,2,0,3,0
				c-2.43-9.6-0.18-22.4-4-35.99c1.46-2.319,3.17,1.95,3-2c-3.27-2.07-2.73-7.94-8-8c-2.81-0.43,2.5,3.73-1,4
				c-3.19,0.86-3.09-1.58-5-2c-11.69,6.08-31.26,6.83-44,9c-13.76,2.15-23.25,4.83-35.99,7c0.52,18.511,4.24,31.141,10,45.99
				c-1.28-0.05-1.39-1.28-3-1c5.51,8.73,13.95,24.15,16,36c14.65,13.84,21.54,35.55,37.99,44.99c4.73-4.271,4.66-13.34,11-16
				c0.9-4.09-0.27-10.26,5-10c0.83-2.82-1.41-2.59-1-5c7.45-5.58,5.57-21.07,12-24.99C234.15,432.44,241.97,416.2,239.99,399.96z
				 M238.99,351.97c-3.26-12.94-3.57-20.09-10-32c1.18-0.15,2.84,0.17,3-1c-2.8-2.42-9.52-8.57-5-12
				c-15.06-25.27-28.52-52.14-51.99-68.99c-5.05,0.96-1.16,10.85-8,10c-0.46,7.21-1.89,13.45-7,16c-0.19,11.77-8.22,18.89-7,29
				c-1,0-2,0-3,0c0.76,17.41-5.04,28.9-4,44.99c-1.43-0.24-1.69-1.65-3-2c3.28,9.91,2.18,19.45,4,32
				c12.94,0.271,24.77-6.399,40.99-5c3.15-4.63,15.11-4.29,20-4c5.49-5.48,11.97-1.1,18-5c3.38-1.6,4.27,4.24,6,1
				C228.04,351.59,238.33,354.05,238.99,351.97z"/>
			<path fill="none" d="M585.94,317.97c-0.101-0.63-3,0.41-2.99,2c0.02,8.3,11.66,28.49,0.99,35c3.25,5.11,3,21.959-1.99,26.99
				c1.85,2.15,0.67,7.33,1,11c-6.33-0.13,1.689,10.09-5,7c1.66,3.47-0.87,5.33,1,9c-3.05,2.95-2.46,9.54-6,12
				c-5.74,25.07-19.07,41.05-31,60.99c-9.26,7.74-14.25,19.75-25,26c-6.931,10.06-19.05,14.939-26.99,24c-2.34,0-4.67,0-7,0
				c0.89,2.91,1.271,3.45-1,5c-11.43,3.22-21.76,11.72-35,17.99c-9.3,0.909-11.17,3.579-18,6c-3,0-6,0-9,0
				c-8.24,6.109-21.63,6.069-33.99,8c-4.489,11.51-4.46,27.529-6,42c3.94,7.72,7.54,15.79,10,24.989c-5.52,8.7-34.16,6.62-39-1
				c6.88-18.12,11.209-38.779,11-63.989c-12.76-0.74-16.58-5.171-26.99-2c-33.75-5.551-68.97-17.471-92.99-35.99
				c-13.87,6.39-8.48,39.05-24,40.99c-15.2,1.899-23.98-25.04-17-44.99c2.33-6.641,9.95-9.36,9-18c-0.55-4.99-3.55-5.311-7-9
				c-4.71-5.05-8.48-8.82-12-14c-8.36-12.311-18.93-24.12-24.99-36.99c-0.95-2.03-2.02-3.92-2.97-5.93
				c0.01-0.021,0.01-0.04,0.01-0.061c3.79,0.71,1.8-5.319-1.04-4.01c-14.21-25.38-16.28-49.51-22-77.99c0-11,0-22,0-33
				c3.07-10.57,3.71-17,4-26c-1.47-3.8,4.47-0.19,3-3.99c-1.25-12.44,8.4-29.89,12-44c19.86-41.12,48.2-73.78,84.99-97.99
				c4.3-0.54,3.24-2.65,8-1c1.37-2.28-2.58-3.76,0-4c11.65-3.07,15.93-10.35,29.99-12.99c0.61-0.06,1.19-0.15,1-1
				c0.06-0.21,0.13-0.39,0.2-0.53c0.19-0.19,0.39-0.36,0.6-0.53c0.95-0.09,2.35,2.03,4.2,1.06c-0.86-6.2,9.12-1.56,10-6
				c13.55-2.67,31.91-8.79,42-6c4.67-6.2,13.64-2.37,21.99-4c-0.63-29.89,54.88-27.42,48,6c28.351,5.24,47.71,15.26,68.99,25.99
				c2.771,2.46,1.99,2.68,3,6c4.33-4.45,6.33,2.12,11,3c-1.16,1.48-1.16,2.52,0,4c3.87-0.43,3.55-1.09,6,1
				c12.97,10.36,26.59,23.42,35.99,36c6.78,9.07,16.33,16.02,17,26.99c13.91,10.09,16.14,31.86,25,47c1.7,3.73-0.601,1.58-1,5
				c4.479,6.46,6.66,13.16,7,20.99c0.069,1.7-1.2,4.18-1,6C582.25,313.91,585.26,314.01,585.94,317.97z M579.95,343.97
				c-0.63-5.61,2.3-12.4,2-17c-0.07-0.9-2.7-3.75-3-5c-2.44-10.04-0.47-22.34-5-26.99c-14.58,6.72-32.63,5.92-50,9.99
				c2.18,5.49,2.22,13.12,2,21c-6.22,19.87-29.07,33.41-52.99,24c-13.95-5.49-19.43-20.67-25-33c-4.229,3.85-14.18,5.92-21,4
				c-4.12,5.21-15.15,3.52-23.99,4c-0.76,3.91-5.1,4.24-5,9c0.891,2.11,3.04,2.96,3,6c-4.72,16.53,2.13,28.94,0,44.99
				c4.11,0.22,8.5,0.16,10,3c0.55,21.8,1.49,30.91,2,48c12.761,5.2,4.521,19.68-8,19c13.91,14.91,35.8,18.07,51.99,28.99
				c1.81-4.04,4.05,3.439,9,0c3.46,1.54,4.96,5.04,10,5c1.87-0.24-0.57-1.65,1-2c7.82,6.06,15.33,2.149,22,7c0.21,1.12,1.1,1.56,2,2
				c3.04-1.76-2.729-3.101,0-4c6.49,1.84,14.62,2.04,20.99,4c5.91-5.431,8.479-14.181,17-17c-2.22-5.05,3.689-9.22,7-9
				c-1.34-0.65-1.86-2.13-2-4c1.99-1.66,1.27,0.09,4,0c-0.37-7.73,6.09-15.41,11-20.99c0.87-7.93,3.88-11.45,7-15
				c-1.811-4.78,1.79-10.18,5-13c-1.74-3.33,0.5-4.43,0-9c1.979-1.66,1.27,0.09,4,0c0.479-3.15-3.07-2.26-2-6
				c1.17-0.15,2.83,0.17,3-1c-1.561-13.22,6.6-32.66,4-43.99C585.19,358.06,580.51,349.06,579.95,343.97z M573.95,292.98
				c0.2-11.52-8.44-22.48-10-33c0.39-4.06-0.37-6.97-4-7c-11-21.33-23.141-41.52-40-56.99c1.18-0.16,2.84,0.17,3-1
				c-1.16-0.17-1.08-1.58-1-3c-1.66,0-3.33,0-5,0c-8.681-7.65-18-14.66-24.99-24c-1.97-0.3-1.99,1.35-3,2
				c-6.64-9.01-16.7-9.08-24-18c-0.11,1.22-0.3,2.37-2,2c-5.51-6.5-13.1-6.47-23-10c-13.99-4.98-21.88-8.89-27.99,5
				c-0.779,1.78-4.26,3.59-5,5c-4.55,8.7-6.97,14.48-10,23c11.221,13.49,36.721,31.85,20,54.99c-0.1,8.24-2.87,13.8-3,22
				c-1.34,0-2.67,0-4,0c0.971,5.97-2.359,7.64-2,13c11.2,11.12,23.91,20.75,41.99,25c2.33-2.35,2.66-6.67,6-8
				c9.32-3.76,15.12-10.54,26-11c19.23-0.82,33.771,13.76,39.99,28C544.19,299.84,553.33,296.2,573.95,292.98z M483.96,529.95
				c8.17-11.16,23.03-15.641,29.99-28c-22.69-4.96-48.23-8.681-68.99-18c0-0.66,0-1.33,0-2c-1.96-0.3-1.979,1.35-3,2
				c-15.24-9.601-28.91-14.601-41.99-25.99c-12.779,26.79-4.62,70.6-12,103.98c20.9,1.529,41.521-10.841,60.99-13
				C459.51,541.5,470.22,534.21,483.96,529.95z M451.96,307.97c-19.33,0.01-33.43-5.22-51.99-6c-3.43,7.5-0.27,12.5,0,21
				c16.37,0.21,28.95-7.29,49.99-7C451.01,313.69,450.6,309.94,451.96,307.97z M410.97,139c2.83,0.73,5.91-3.29,3-5
				c-0.85,2.93-2.52-1.3-5,0C408.22,137.08,412.41,135.21,410.97,139z M354.97,165.99c6.47-1.53,5.8-10.2,8-16
				c-6.8-2.45-6.59-16.45,0-18.99c-5.22-6.63-21.64,2.39-30.99-2c-3.1,4.45-11.44,4.77-19,4c-12.54,6.96-31.26,9.05-44,17.99
				c-2.29,30.22-2.41,47.77,1,76.99c-2.59-0.59-3.59,0.41-3,3c5.76,2.78,7.15-6.61,8-11.99c3.73-3.28,9.24-4.77,13-8
				c8.07-27.26,34.3-36.36,54.99-51C347.93,161.04,350.41,164.56,354.97,165.99z M359.97,562.94c-9.13-30.66,7.89-62.53-5-91.99
				c-13.05-2.271-16.09-14.57-20.99-24.99c-8.54,7.45-8.04,23.96-14,33.99c3.13,10.43,3.69,17.439,10,24c-0.02,1.99-2.73,1.27-2,4
				C341.96,522.97,342.55,551.37,359.97,562.94z M348.97,563.94c-9.34-22.65-23.65-40.33-27.99-67.99c-5.65,0.99-2.83-6.51-7-7
				c-6.03,23.3-33.06,25.6-60.99,27c-3.67,3.99-6.99,8.34-9,14C276.19,547.57,307.12,562.14,348.97,563.94z M281.98,327.97
				c2.4-3.94,8.59-4.08,8-11c-1.96-1.7-6.18-1.15-8-3c-3.2-7.43,2.63-13.86,3-20.99c-3.24-1.79-7.22-8.08-11-6
				C275.23,298.95,279,317.57,281.98,327.97z M273.98,345.97c2.71-12.87-1.82-22.44-4-35c1.18-0.15,2.84,0.18,3-1
				c-3.87-0.12-2.76-5.23-4-8c1.58-0.09,3.47,0.14,3-1.99c-5.66-8.64-3.3-27.76-18.99-31c0-1-0.81-1.19-1-2
				c2.24-11.75,7.54-20.46,11.99-30c-3.71-28.32-3.42-50.35-1-71.99c-3.2-2.85,1.77-10.35-4.99-11c-1.73,3.05-4.13,6.96-8,5
				c-22.8,17.86-46.65,34.68-62,60c-1.35,0.31-1.91,1.42-4,0.99c-0.23,5.44-4.13,7.21-5.99,11c3.43,7.57,11.93,10.06,13.99,19
				c6.77,1.9,10.3,7.04,12,14c6.1,3.35,12.62,11.22,12,18c16.81,14.89,22.09,45.39,28,67.99c4.14-1.15,3.89,2.1,7,2
				C255.48,346.8,266.83,348.49,273.98,345.97z M272.98,471.95c4.2-13.181-3.23-26.351-4-38.99c-0.16-2.68,1.84-5.36,2-8
				c1.44-23.87-9.15-49.16,0-73.99c-10.69-0.45-14.29,2.52-25.99,4c3.86,11.69,1.67,23.589,4,35.99c-1.5,0.17-3.69-0.35-4,1
				c3.82,2.72,3.22,21.35,2,24c-1.32,2.85-2.35-1.75-3,2c-1.2,6.85,0.79,12.69-2,19c-0.22-0.78-0.84-1.16-2-1
				c-0.05,1.37,0.47,2.19,1,3c-1.59,12.97-7.65,17.76-8,27.99c-1.35,0.319-1.91,1.43-4,1c1.64,3.25,0.39,6.189-1,9
				c3.69,0.97,5.74,3.59,11,3c2.45,2.22,2.16,7.17,4,10C254.58,485.54,257.44,472.4,272.98,471.95z M239.99,399.96c1,0,2,0,3,0
				c-2.43-9.6-0.18-22.4-4-35.99c1.46-2.319,3.17,1.95,3-2c-3.27-2.07-2.73-7.94-8-8c-2.81-0.43,2.5,3.73-1,4
				c-3.19,0.86-3.09-1.58-5-2c-11.69,6.08-31.26,6.83-44,9c-13.76,2.15-23.25,4.83-35.99,7c0.52,18.511,4.24,31.141,10,45.99
				c-1.28-0.05-1.39-1.28-3-1c5.51,8.73,13.95,24.15,16,36c14.65,13.84,21.54,35.55,37.99,44.99c4.73-4.271,4.66-13.34,11-16
				c0.9-4.09-0.27-10.26,5-10c0.83-2.82-1.41-2.59-1-5c7.45-5.58,5.57-21.07,12-24.99C234.15,432.44,241.97,416.2,239.99,399.96z
				 M238.99,351.97c-3.26-12.94-3.57-20.09-10-32c1.18-0.15,2.84,0.17,3-1c-2.8-2.42-9.52-8.57-5-12
				c-15.06-25.27-28.52-52.14-51.99-68.99c-5.05,0.96-1.16,10.85-8,10c-0.46,7.21-1.89,13.45-7,16c-0.19,11.77-8.22,18.89-7,29
				c-1,0-2,0-3,0c0.76,17.41-5.04,28.9-4,44.99c-1.43-0.24-1.69-1.65-3-2c3.28,9.91,2.18,19.45,4,32
				c12.94,0.271,24.77-6.399,40.99-5c3.15-4.63,15.11-4.29,20-4c5.49-5.48,11.97-1.1,18-5c3.38-1.6,4.27,4.24,6,1
				C228.04,351.59,238.33,354.05,238.99,351.97z"/>
			<path fill="#5DCAE5" d="M581.95,326.97c0.3,4.6-2.63,11.39-2,17c0.56,5.09,5.24,14.09,0,13c2.6,11.33-5.561,30.77-4,43.99
				c-0.17,1.17-1.83,0.85-3,1c-1.07,3.74,2.479,2.85,2,6c-2.73,0.09-2.021-1.66-4,0c0.5,4.57-1.74,5.67,0,9
				c-3.21,2.82-6.811,8.22-5,13c-3.12,3.55-6.13,7.07-7,15c-4.91,5.58-11.37,13.26-11,20.99c-2.73,0.09-2.01-1.66-4,0
				c0.14,1.87,0.66,3.35,2,4c-3.311-0.22-9.22,3.95-7,9c-8.521,2.819-11.09,11.569-17,17c-6.37-1.96-14.5-2.16-20.99-4
				c-2.729,0.899,3.04,2.24,0,4c-0.9-0.44-1.79-0.88-2-2c-6.67-4.851-14.18-0.94-22-7c-1.57,0.35,0.87,1.76-1,2
				c-5.04,0.04-6.54-3.46-10-5c-4.95,3.439-7.19-4.04-9,0c-16.19-10.92-38.08-14.08-51.99-28.99c12.521,0.68,20.761-13.8,8-19
				c-0.51-17.09-1.45-26.2-2-48c-1.5-2.84-5.89-2.78-10-3c2.13-16.05-4.72-28.46,0-44.99c0.04-3.04-2.109-3.89-3-6
				c-0.1-4.76,4.24-5.09,5-9c8.84-0.48,19.87,1.21,23.99-4c6.82,1.92,16.771-0.15,21-4c5.57,12.33,11.05,27.51,25,33
				c23.92,9.41,46.771-4.13,52.99-24c0.22-7.88,0.18-15.51-2-21c17.37-4.07,35.42-3.27,50-9.99c4.53,4.65,2.56,16.95,5,26.99
				C579.25,323.22,581.88,326.07,581.95,326.97z"/>
			<path fill="#5DCAE5" d="M413.97,134c2.91,1.71-0.17,5.73-3,5c1.44-3.79-2.75-1.92-2-5C411.45,132.7,413.12,136.93,413.97,134z"/>
			<path fill="#5DCAE5" d="M362.97,149.99c-2.2,5.8-1.529,14.47-8,16c-4.56-1.43-7.04-4.95-12-6c-20.69,14.64-46.92,23.74-54.99,51
				c-3.76,3.23-9.27,4.72-13,8c-0.85,5.38-2.24,14.77-8,11.99c-0.59-2.59,0.41-3.59,3-3c-3.41-29.22-3.29-46.77-1-76.99
				c12.74-8.94,31.46-11.03,44-17.99c7.56,0.77,15.9,0.45,19-4c9.35,4.39,25.77-4.63,30.99,2
				C356.38,133.54,356.17,147.54,362.97,149.99z"/>
			<path fill="#5DCAE5" d="M320.98,495.95c4.34,27.66,18.65,45.34,27.99,67.99c-41.85-1.801-72.78-16.37-104.98-33.99
				c2.01-5.66,5.33-10.01,9-14c27.93-1.4,54.96-3.7,60.99-27C318.15,489.44,315.33,496.94,320.98,495.95z"/>
			<path fill="#5DCAE5" d="M289.98,316.97c0.59,6.92-5.6,7.06-8,11c-2.98-10.4-6.75-29.02-8-40.99c3.78-2.08,7.76,4.21,11,6
				c-0.37,7.13-6.2,13.56-3,20.99C283.8,315.82,288.02,315.27,289.98,316.97z"/>
			<path fill="#5DCAE5" d="M283.18,138.47c-0.07,0.14-0.14,0.32-0.2,0.53c0.19,0.85-0.39,0.94-1,1
				C282.31,139.42,282.71,138.92,283.18,138.47z"/>
			<path fill="#5DCAE5" d="M268.98,432.96c0.77,12.64,8.2,25.81,4,38.99c-15.54,0.45-18.4,13.59-29.99,18c-1.84-2.83-1.55-7.78-4-10
				c-5.26,0.59-7.31-2.03-11-3c1.39-2.811,2.64-5.75,1-9c2.09,0.43,2.65-0.681,4-1c0.35-10.23,6.41-15.021,8-27.99
				c-0.53-0.81-1.05-1.63-1-3c1.16-0.16,1.78,0.22,2,1c2.79-6.31,0.8-12.15,2-19c0.65-3.75,1.68,0.85,3-2c1.22-2.65,1.82-21.28-2-24
				c0.31-1.35,2.5-0.83,4-1c-2.33-12.4-0.14-24.3-4-35.99c11.7-1.48,15.3-4.45,25.99-4c-9.15,24.83,1.44,50.12,0,73.99
				C270.82,427.6,268.82,430.28,268.98,432.96z"/>
			<path fill="#5DCAE5" d="M228.99,319.97c6.43,11.91,6.74,19.06,10,32c-0.66,2.08-10.95-0.38-7,3c-1.73,3.24-2.62-2.6-6-1
				c-6.03,3.9-12.51-0.48-18,5c-4.89-0.29-16.85-0.63-20,4c-16.22-1.399-28.05,5.271-40.99,5c-1.82-12.55-0.72-22.09-4-32
				c1.31,0.35,1.57,1.76,3,2c-1.04-16.09,4.76-27.58,4-44.99c1,0,2,0,3,0c-1.22-10.11,6.81-17.23,7-29c5.11-2.55,6.54-8.79,7-16
				c6.84,0.85,2.95-9.04,8-10c23.47,16.85,36.93,43.72,51.99,68.99c-4.52,3.43,2.2,9.58,5,12
				C231.83,320.14,230.17,319.82,228.99,319.97z"/>
			<path fill="#5DCAE5" d="M163.03,445.03c0.95,2.01,2.02,3.899,2.97,5.93C162.69,449.45,162.85,447.14,163.03,445.03z"/>
		</g>
	</g>
</g>
<g id="Layer_3_x23_EB2729">
	<g>
		<g>
			<path fill="none" d="M362.97,149.99c-2.2,5.8-1.529,14.47-8,16c-4.56-1.43-7.04-4.95-12-6c-20.69,14.64-46.92,23.74-54.99,51
				c-3.76,3.23-9.27,4.72-13,8c-0.85,5.38-2.24,14.77-8,11.99c-0.59-2.59,0.41-3.59,3-3c-3.41-29.22-3.29-46.77-1-76.99
				c12.74-8.94,31.46-11.03,44-17.99c7.56,0.77,15.9,0.45,19-4c9.35,4.39,25.77-4.63,30.99,2
				C356.38,133.54,356.17,147.54,362.97,149.99z"/>
			<path fill="none" d="M585.94,317.97c-0.101-0.63-3,0.41-2.99,2c0.02,8.3,11.66,28.49,0.99,35c3.25,5.11,3,21.959-1.99,26.99
				c1.85,2.15,0.67,7.33,1,11c-6.33-0.13,1.689,10.09-5,7c1.66,3.47-0.87,5.33,1,9c-3.05,2.95-2.46,9.54-6,12
				c-5.74,25.07-19.07,41.05-31,60.99c-9.26,7.74-14.25,19.75-25,26c-6.931,10.06-19.05,14.939-26.99,24c-2.34,0-4.67,0-7,0
				c0.89,2.91,1.271,3.45-1,5c-11.43,3.22-21.76,11.72-35,17.99c-9.3,0.909-11.17,3.579-18,6c-3,0-6,0-9,0
				c-8.24,6.109-21.63,6.069-33.99,8c-4.489,11.51-4.46,27.529-6,42c3.94,7.72,7.54,15.79,10,24.989c-5.52,8.7-34.16,6.62-39-1
				c6.88-18.12,11.209-38.779,11-63.989c-12.76-0.74-16.58-5.171-26.99-2c-33.75-5.551-68.97-17.471-92.99-35.99
				c-13.87,6.39-8.48,39.05-24,40.99c-15.2,1.899-23.98-25.04-17-44.99c2.33-6.641,9.95-9.36,9-18c-0.55-4.99-3.55-5.311-7-9
				c-4.71-5.05-8.48-8.82-12-14c-8.36-12.311-18.93-24.12-24.99-36.99c-0.95-2.03-2.02-3.92-2.97-5.93
				c0.01-0.021,0.01-0.04,0.01-0.061c3.79,0.71,1.8-5.319-1.04-4.01c-14.21-25.38-16.28-49.51-22-77.99c0-11,0-22,0-33
				c3.07-10.57,3.71-17,4-26c-1.47-3.8,4.47-0.19,3-3.99c-1.25-12.44,8.4-29.89,12-44c19.86-41.12,48.2-73.78,84.99-97.99
				c4.3-0.54,3.24-2.65,8-1c1.37-2.28-2.58-3.76,0-4c11.65-3.07,15.93-10.35,29.99-12.99c0.61-0.06,1.19-0.15,1-1
				c0.06-0.21,0.13-0.39,0.2-0.53c0.19-0.19,0.39-0.36,0.6-0.53c0.95-0.09,2.35,2.03,4.2,1.06c-0.86-6.2,9.12-1.56,10-6
				c13.55-2.67,31.91-8.79,42-6c4.67-6.2,13.64-2.37,21.99-4c-0.63-29.89,54.88-27.42,48,6c28.351,5.24,47.71,15.26,68.99,25.99
				c2.771,2.46,1.99,2.68,3,6c4.33-4.45,6.33,2.12,11,3c-1.16,1.48-1.16,2.52,0,4c3.87-0.43,3.55-1.09,6,1
				c12.97,10.36,26.59,23.42,35.99,36c6.78,9.07,16.33,16.02,17,26.99c13.91,10.09,16.14,31.86,25,47c1.7,3.73-0.601,1.58-1,5
				c4.479,6.46,6.66,13.16,7,20.99c0.069,1.7-1.2,4.18-1,6C582.25,313.91,585.26,314.01,585.94,317.97z M579.95,343.97
				c-0.63-5.61,2.3-12.4,2-17c-0.07-0.9-2.7-3.75-3-5c-2.44-10.04-0.47-22.34-5-26.99c-14.58,6.72-32.63,5.92-50,9.99
				c2.18,5.49,2.22,13.12,2,21c-6.22,19.87-29.07,33.41-52.99,24c-13.95-5.49-19.43-20.67-25-33c-4.229,3.85-14.18,5.92-21,4
				c-4.12,5.21-15.15,3.52-23.99,4c-0.76,3.91-5.1,4.24-5,9c0.891,2.11,3.04,2.96,3,6c-4.72,16.53,2.13,28.94,0,44.99
				c4.11,0.22,8.5,0.16,10,3c0.55,21.8,1.49,30.91,2,48c12.761,5.2,4.521,19.68-8,19c13.91,14.91,35.8,18.07,51.99,28.99
				c1.81-4.04,4.05,3.439,9,0c3.46,1.54,4.96,5.04,10,5c1.87-0.24-0.57-1.65,1-2c7.82,6.06,15.33,2.149,22,7c0.21,1.12,1.1,1.56,2,2
				c3.04-1.76-2.729-3.101,0-4c6.49,1.84,14.62,2.04,20.99,4c5.91-5.431,8.479-14.181,17-17c-2.22-5.05,3.689-9.22,7-9
				c-1.34-0.65-1.86-2.13-2-4c1.99-1.66,1.27,0.09,4,0c-0.37-7.73,6.09-15.41,11-20.99c0.87-7.93,3.88-11.45,7-15
				c-1.811-4.78,1.79-10.18,5-13c-1.74-3.33,0.5-4.43,0-9c1.979-1.66,1.27,0.09,4,0c0.479-3.15-3.07-2.26-2-6
				c1.17-0.15,2.83,0.17,3-1c-1.561-13.22,6.6-32.66,4-43.99C585.19,358.06,580.51,349.06,579.95,343.97z M573.95,292.98
				c0.2-11.52-8.44-22.48-10-33c0.39-4.06-0.37-6.97-4-7c-11-21.33-23.141-41.52-40-56.99c1.18-0.16,2.84,0.17,3-1
				c-1.16-0.17-1.08-1.58-1-3c-1.66,0-3.33,0-5,0c-8.681-7.65-18-14.66-24.99-24c-1.97-0.3-1.99,1.35-3,2
				c-6.64-9.01-16.7-9.08-24-18c-0.11,1.22-0.3,2.37-2,2c-5.51-6.5-13.1-6.47-23-10c-13.99-4.98-21.88-8.89-27.99,5
				c-0.779,1.78-4.26,3.59-5,5c-4.55,8.7-6.97,14.48-10,23c11.221,13.49,36.721,31.85,20,54.99c-0.1,8.24-2.87,13.8-3,22
				c-1.34,0-2.67,0-4,0c0.971,5.97-2.359,7.64-2,13c11.2,11.12,23.91,20.75,41.99,25c2.33-2.35,2.66-6.67,6-8
				c9.32-3.76,15.12-10.54,26-11c19.23-0.82,33.771,13.76,39.99,28C544.19,299.84,553.33,296.2,573.95,292.98z M483.96,529.95
				c8.17-11.16,23.03-15.641,29.99-28c-22.69-4.96-48.23-8.681-68.99-18c0-0.66,0-1.33,0-2c-1.96-0.3-1.979,1.35-3,2
				c-15.24-9.601-28.91-14.601-41.99-25.99c-12.779,26.79-4.62,70.6-12,103.98c20.9,1.529,41.521-10.841,60.99-13
				C459.51,541.5,470.22,534.21,483.96,529.95z M451.96,307.97c-19.33,0.01-33.43-5.22-51.99-6c-3.43,7.5-0.27,12.5,0,21
				c16.37,0.21,28.95-7.29,49.99-7C451.01,313.69,450.6,309.94,451.96,307.97z M410.97,139c2.83,0.73,5.91-3.29,3-5
				c-0.85,2.93-2.52-1.3-5,0C408.22,137.08,412.41,135.21,410.97,139z M354.97,165.99c6.47-1.53,5.8-10.2,8-16
				c-6.8-2.45-6.59-16.45,0-18.99c-5.22-6.63-21.64,2.39-30.99-2c-3.1,4.45-11.44,4.77-19,4c-12.54,6.96-31.26,9.05-44,17.99
				c-2.29,30.22-2.41,47.77,1,76.99c-2.59-0.59-3.59,0.41-3,3c5.76,2.78,7.15-6.61,8-11.99c3.73-3.28,9.24-4.77,13-8
				c8.07-27.26,34.3-36.36,54.99-51C347.93,161.04,350.41,164.56,354.97,165.99z M359.97,562.94c-9.13-30.66,7.89-62.53-5-91.99
				c-13.05-2.271-16.09-14.57-20.99-24.99c-8.54,7.45-8.04,23.96-14,33.99c3.13,10.43,3.69,17.439,10,24c-0.02,1.99-2.73,1.27-2,4
				C341.96,522.97,342.55,551.37,359.97,562.94z M348.97,563.94c-9.34-22.65-23.65-40.33-27.99-67.99c-5.65,0.99-2.83-6.51-7-7
				c-6.03,23.3-33.06,25.6-60.99,27c-3.67,3.99-6.99,8.34-9,14C276.19,547.57,307.12,562.14,348.97,563.94z M281.98,327.97
				c2.4-3.94,8.59-4.08,8-11c-1.96-1.7-6.18-1.15-8-3c-3.2-7.43,2.63-13.86,3-20.99c-3.24-1.79-7.22-8.08-11-6
				C275.23,298.95,279,317.57,281.98,327.97z M273.98,345.97c2.71-12.87-1.82-22.44-4-35c1.18-0.15,2.84,0.18,3-1
				c-3.87-0.12-2.76-5.23-4-8c1.58-0.09,3.47,0.14,3-1.99c-5.66-8.64-3.3-27.76-18.99-31c0-1-0.81-1.19-1-2
				c2.24-11.75,7.54-20.46,11.99-30c-3.71-28.32-3.42-50.35-1-71.99c-3.2-2.85,1.77-10.35-4.99-11c-1.73,3.05-4.13,6.96-8,5
				c-22.8,17.86-46.65,34.68-62,60c-1.35,0.31-1.91,1.42-4,0.99c-0.23,5.44-4.13,7.21-5.99,11c3.43,7.57,11.93,10.06,13.99,19
				c6.77,1.9,10.3,7.04,12,14c6.1,3.35,12.62,11.22,12,18c16.81,14.89,22.09,45.39,28,67.99c4.14-1.15,3.89,2.1,7,2
				C255.48,346.8,266.83,348.49,273.98,345.97z M272.98,471.95c4.2-13.181-3.23-26.351-4-38.99c-0.16-2.68,1.84-5.36,2-8
				c1.44-23.87-9.15-49.16,0-73.99c-10.69-0.45-14.29,2.52-25.99,4c3.86,11.69,1.67,23.589,4,35.99c-1.5,0.17-3.69-0.35-4,1
				c3.82,2.72,3.22,21.35,2,24c-1.32,2.85-2.35-1.75-3,2c-1.2,6.85,0.79,12.69-2,19c-0.22-0.78-0.84-1.16-2-1
				c-0.05,1.37,0.47,2.19,1,3c-1.59,12.97-7.65,17.76-8,27.99c-1.35,0.319-1.91,1.43-4,1c1.64,3.25,0.39,6.189-1,9
				c3.69,0.97,5.74,3.59,11,3c2.45,2.22,2.16,7.17,4,10C254.58,485.54,257.44,472.4,272.98,471.95z M239.99,399.96c1,0,2,0,3,0
				c-2.43-9.6-0.18-22.4-4-35.99c1.46-2.319,3.17,1.95,3-2c-3.27-2.07-2.73-7.94-8-8c-2.81-0.43,2.5,3.73-1,4
				c-3.19,0.86-3.09-1.58-5-2c-11.69,6.08-31.26,6.83-44,9c-13.76,2.15-23.25,4.83-35.99,7c0.52,18.511,4.24,31.141,10,45.99
				c-1.28-0.05-1.39-1.28-3-1c5.51,8.73,13.95,24.15,16,36c14.65,13.84,21.54,35.55,37.99,44.99c4.73-4.271,4.66-13.34,11-16
				c0.9-4.09-0.27-10.26,5-10c0.83-2.82-1.41-2.59-1-5c7.45-5.58,5.57-21.07,12-24.99C234.15,432.44,241.97,416.2,239.99,399.96z
				 M238.99,351.97c-3.26-12.94-3.57-20.09-10-32c1.18-0.15,2.84,0.17,3-1c-2.8-2.42-9.52-8.57-5-12
				c-15.06-25.27-28.52-52.14-51.99-68.99c-5.05,0.96-1.16,10.85-8,10c-0.46,7.21-1.89,13.45-7,16c-0.19,11.77-8.22,18.89-7,29
				c-1,0-2,0-3,0c0.76,17.41-5.04,28.9-4,44.99c-1.43-0.24-1.69-1.65-3-2c3.28,9.91,2.18,19.45,4,32
				c12.94,0.271,24.77-6.399,40.99-5c3.15-4.63,15.11-4.29,20-4c5.49-5.48,11.97-1.1,18-5c3.38-1.6,4.27,4.24,6,1
				C228.04,351.59,238.33,354.05,238.99,351.97z"/>
			<path fill="#EB2729" d="M563.95,259.98c1.56,10.52,10.2,21.48,10,33c-20.62,3.22-29.76,6.86-52,8
				c-6.22-14.24-20.76-28.82-39.99-28c-10.88,0.46-16.68,7.24-26,11c-3.34,1.33-3.67,5.65-6,8c-18.08-4.25-30.79-13.88-41.99-25
				c-0.359-5.36,2.971-7.03,2-13c1.33,0,2.66,0,4,0c0.13-8.2,2.9-13.76,3-22c16.721-23.14-8.779-41.5-20-54.99
				c3.03-8.52,5.45-14.3,10-23c0.74-1.41,4.221-3.22,5-5c6.11-13.89,14-9.98,27.99-5c9.9,3.53,17.49,3.5,23,10
				c1.7,0.37,1.89-0.78,2-2c7.3,8.92,17.36,8.99,24,18c1.01-0.65,1.03-2.3,3-2c6.99,9.34,16.31,16.35,24.99,24
				c-1.58,3.91,2.6,2.07,3,4c16.859,15.47,29,35.66,40,56.99C561.29,255.3,559.81,260.45,563.95,259.98z"/>
			<path fill="#EB2729" d="M559.95,252.98c3.63,0.03,4.39,2.94,4,7C559.81,260.45,561.29,255.3,559.95,252.98z"/>
			<path fill="#EB2729" d="M522.95,194.99c-0.16,1.17-1.82,0.84-3,1c-0.4-1.93-4.58-0.09-3-4c1.67,0,3.34,0,5,0
				C521.87,193.41,521.79,194.82,522.95,194.99z"/>
			<path fill="#EB2729" d="M513.95,501.95c-6.96,12.359-21.82,16.84-29.99,28c-13.74,4.26-24.45,11.55-35,18.99
				c-19.47,2.159-40.09,14.529-60.99,13c7.38-33.381-0.779-77.19,12-103.98c13.08,11.39,26.75,16.39,41.99,25.99
				c1.021-0.65,1.04-2.3,3-2c0,0.67,0,1.34,0,2C465.72,493.27,491.26,496.99,513.95,501.95z"/>
			<path fill="#EB2729" d="M399.97,301.97c18.561,0.78,32.66,6.01,51.99,6c-1.36,1.97-0.95,5.72-2,8c-21.04-0.29-33.62,7.21-49.99,7
				C399.7,314.47,396.54,309.47,399.97,301.97z"/>
			<path fill="#EB2729" d="M354.97,470.95c12.89,29.46-4.13,61.33,5,91.99c-17.42-11.57-18.01-39.971-31.99-54.99
				c-0.73-2.73,1.98-2.01,2-4c-6.31-6.561-6.87-13.57-10-24c5.96-10.03,5.46-26.54,14-33.99
				C338.88,456.38,341.92,468.68,354.97,470.95z"/>
			<path fill="#EB2729" d="M269.98,310.97c2.18,12.56,6.71,22.13,4,35c-7.15,2.52-18.5,0.83-22.99,6c-3.11,0.1-2.86-3.15-7-2
				c-5.91-22.6-11.19-53.1-28-67.99c0.62-6.78-5.9-14.65-12-18c-1.7-6.96-5.23-12.1-12-14c-2.06-8.94-10.56-11.43-13.99-19
				c1.86-3.79,5.76-5.56,5.99-11c2.09,0.43,2.65-0.68,4-0.99c15.35-25.32,39.2-42.14,62-60c3.87,1.96,6.27-1.95,8-5
				c6.76,0.65,1.79,8.15,4.99,11c-2.42,21.64-2.71,43.67,1,71.99c-4.45,9.54-9.75,18.25-11.99,30c0.19,0.81,1,1,1,2
				c15.69,3.24,13.33,22.36,18.99,31c0.47,2.13-1.42,1.9-3,1.99c1.24,2.77,0.13,7.88,4,8C272.82,311.15,271.16,310.82,269.98,310.97
				z"/>
			<path fill="#EB2729" d="M242.99,399.96c-1,0-2,0-3,0c1.98,16.24-5.84,32.48-4,42c-6.43,3.92-4.55,19.41-12,24.99
				c-0.41,2.41,1.83,2.18,1,5c-5.27-0.26-4.1,5.91-5,10c-6.34,2.66-6.27,11.729-11,16c-16.45-9.44-23.34-31.15-37.99-44.99
				c-2.05-11.85-10.49-27.27-16-36c1.61-0.28,1.72,0.95,3,1c-5.76-14.85-9.48-27.479-10-45.99c12.74-2.17,22.23-4.85,35.99-7
				c12.74-2.17,32.31-2.92,44-9c1.91,0.42,1.81,2.86,5,2c3.5-0.27-1.81-4.43,1-4c5.27,0.06,4.73,5.93,8,8c0.17,3.95-1.54-0.319-3,2
				C242.81,377.56,240.56,390.36,242.99,399.96z"/>
		</g>
	</g>
</g>
</svg>
