<?xml version="1.0" encoding="utf-8"?>
<!-- Generator: Adobe Illustrator 14.0.0, SVG Export Plug-In . SVG Version: 6.00 Build 43363)  -->
<!DOCTYPE svg PUBLIC "-//W3C//DTD SVG 1.0//EN" "http://www.w3.org/TR/2001/REC-SVG-20010904/DTD/svg10.dtd">
<svg version="1.0" xmlns="http://www.w3.org/2000/svg" xmlns:xlink="http://www.w3.org/1999/xlink" x="0px" y="0px" width="360px"
	 height="504px" viewBox="0 0 360 504" enable-background="new 0 0 360 504" xml:space="preserve">
<g id="Layer_3_x23_ED2024">
	<g>
		<g>
			<path fill="#ED2024" d="M150.017,86.359c-1.677,13.788-2.946,30.173,0.982,42.222c3.191,9.881,12.458,17.307,15.711,25.53
				c-3.375-10.76-18.207-23.935-15.22-39.768c0.695-3.703,2.598-5.871,4.418-9.328c13.276,4.357,32.035,4.071,40.259-4.418
				c0.736-2.844,2.291-4.889,4.419-6.383c1.309,4.419,2.209,9.247,4.418,12.765c5.688,0.041,12.11,0.123,16.692,2.455
				c-10.085,9.737-23.402,18.82-24.057,36.331c6.587-1.248,8.02-7.671,14.729-8.837c-1.084,11.21-8.06,16.508-12.765,24.057
				c5.4-1.473,9.758-3.989,12.765-7.855c-0.245,15.956-16.569,15.854-18.165,30.439c4.459-2.966,8.653-10.065,15.22-11.783
				c8.489-2.209,17.49,0.45,26.021,1.473c-5.973,7.446-21.643,5.196-26.512,13.747c2.476,0.9,4.337-2.373,6.874-2.946
				c2.25-0.491,5.113,0.655,7.854,0.491c8.899-0.471,15.2-8.449,28.967-6.383c2.721,0.409,4.746,1.862,7.855,3.437
				c-4.03,5.646-12.561,6.771-17.184,11.783c-8.734,0.737-16.488,5.339-24.057,7.855c-3.724,1.248-8.858,0.123-10.802,4.419
				c6.097,2.373,12.581-2.598,19.639-3.437c4.89-0.573,10.372,2.209,14.238-0.982c8.224-0.532,13.153,2.23,19.147,3.928
				c-10.29,5.135-34.552-1.187-33.877,13.256c5.135,2.68,8.653-4.582,12.766-5.4c2.803-0.552,8.571,0.102,11.292,0.491
				c4.971,0.737,11.537,3.642,17.184,5.892c5.482,2.189,11.169,4.194,15.711,6.874c4.152,2.455,7.937,6.607,12.765,9.819
				c9.635,6.423,15.854,11.415,26.021,18.656c4.275,3.068,11.292,7.65,11.783,10.311c0.389,2.25-2.373,5.871-0.981,7.364
				c1.411,0.409,3.396-2.332,4.909-3.437c-1.779-10.72,2.373-26.737,0-36.332c-0.553-2.189-2.577-3.334-3.437-4.91
				c-2.618-13.91-4.214-29.846-8.838-43.695c-4.521-13.481-7.896-26.921-16.201-35.84c-3.764-4.01-8.285-6.342-12.765-9.329
				c-12.908-8.571-28.087-20.088-42.223-28.476c-15.179-9.001-35.656-12.663-47.133-23.075c-1.902-1.719-3.068-4.808-5.4-4.419
				c-3.15,0.532-7.159,14.217-10.31,15.22c-3.866,0.287-7.446,2.905-11.292,3.437c-2.762,0.389-7.896,0.634-10.311,0
				c-10.965-2.864-7.896-19.209-13.256-27.985c-0.614,11.988,2.884,20.068,8.837,28.476
				C157.483,100.494,150.569,96.607,150.017,86.359z"/>
			<path fill="#FFFFFF" d="M341,234.628c-0.818,8.837-0.818,21.112,0,29.949C341,254.594,341,244.611,341,234.628z"/>
		</g>
	</g>
</g>
<g id="Layer_2_x23_FFFFFF">
	<g>
		<g>
			<path fill="#FFFFFF" d="M222.679,401.063c2.577-0.307,2.945,0.205,5.4,1.474c1.187-1.146-0.736-0.9-0.491-2.455
				c7.119-6.157,18.104-1.104,21.111,5.4c-2.904,4.685-10.433,4.051-16.692,2.946c-1.514-0.45-0.859-3.069-1.964-3.928
				c-1.8-0.164-2.741,0.552-3.928,0.981c-0.593,2.844-1.473,5.421-1.964,8.347c6.506,4.786,15.22,7.385,23.075,10.801
				c-0.103,2.188-2.864,1.739-3.437,3.437c0.9,5.81,3.15,10.27,3.928,16.202c1.493-0.348,1.779,0.511,2.945,0.49
				c2.864-3.252-2.598-10.474,1.474-13.256c6.157-1.084,1.902,8.244,5.4,9.819c3.068-1.125,0.245-7.303,0-9.819
				c1.022-1.923,1.228-4.664,2.454-6.382c-0.04-1.269-2.106-0.512-1.473-2.455c3.866-3.068,8.265-11.66,1.964-15.22
				c-0.041-5.196-2.312-8.162-4.419-11.292c-8.673-1.473-19.536-5.81-26.021,0c-1.719,0.409-1.902-0.716-3.437-0.491
				C225.093,397.279,222.74,398.016,222.679,401.063z"/>
			<path fill="#FFFFFF" d="M102.884,365.224c-2.721,12.684-24.67,8.694-23.075,24.058c3.887,1.595,9.226-1.289,11.292,1.964
				c5.155-3.396,12.09,0.757,16.202,2.945c9.267-0.675,18.35-0.736,26.021-3.928c-0.409-3.048,2.25-2.905,2.945-5.892
				c-0.9-0.736-1.166-2.106-1.963-2.945c-2.005-0.103-4.746,0.49-5.401-0.982c2.803-8.366,18.043-6.362,19.147,0.982
				c1.166,7.896-8.408,5.523-9.328,12.273c-2.046,0.573-4.848,0.409-5.892,1.964c2.394,4.644,12.929,1.146,12.765,8.347
				c2.864-7.753,3.723-17.531,5.4-26.512c-1.964-1.801-2.557-4.972-3.928-7.364c-7.61,2.147-11.619-3.867-19.147-2.946
				c-6.014,0.757-9.206,7.896-14.729,6.383C109.042,372.445,107.017,367.535,102.884,365.224z M104.357,385.354
				c-2.741-3.765-1.084-8.592,2.455-9.328c3.519-0.717,9.369,3.743,10.801-1.474c-0.082,1.064,1.739,0.226,2.455,0.491
				c0.593,4.357,6.853,2.005,8.347,4.419c-4.971-1.678-9.308,3.109-12.274,6.382c-0.246,1.719,2.659,0.287,2.945,1.474
				C113.051,389.69,110.085,384.903,104.357,385.354z"/>
			<path fill="#FFFFFF" d="M192.239,63.284c0.021,0.838-0.368,1.268-0.982,1.473c1.474,7.364,3.601,14.074,8.347,18.166
				c3.846-7.303-2.639-13.911-4.909-19.638C193.876,63.284,193.058,63.284,192.239,63.284z"/>
			<path fill="#FFFFFF" d="M118.104,33.826c2.68,2.025,3.499-2.025,6.383-1.473c5.073,2.782,5.584,10.126,10.31,13.256
				c0.573-3.007-0.246-7.426,2.455-8.346c2.168,0.123,2.578,2.005,4.419,2.455c1.841-0.102,2.066-1.841,3.928-1.964
				c7.139,2.353,15.485,3.499,18.656,9.819c14.197-1.023,17.532,15.854,29.949,11.783c1.166-3.396-1.719-6.71-1.473-10.801
				c-7.569-13.113-28.906-17.92-47.624-21.602c-3.334-0.655-9.165-2.291-11.783-1.964C127.003,25.807,123.443,32.987,118.104,33.826
				z"/>
			<path fill="#FFFFFF" d="M226.606,222.354c-3.416,4.746-0.512,9.737,2.455,13.256c6.464,7.753,19.863,13.686,28.966,20.62
				c3.273,2.517,5.831,6.526,9.819,6.383c2.005-1.616,1.085-3.784,0.982-6.873c4.357,1.206,10.597,4.786,15.711,6.873
				c0.838,3.089,0.061,7.794,1.473,10.311c11.026,5.298,30.092,9.164,43.695,3.437c0.634-2.599,1.678-4.951,1.473-7.364
				c-23.668-1.105-45.373-7.405-61.86-16.693c-4.604-2.578-8.94-6.689-13.747-9.819c-9.287-5.994-18.268-13.338-26.512-20.129
				C228.243,222.354,227.425,222.354,226.606,222.354z"/>
			<path fill="#FFFFFF" d="M341,234.628c-0.818,8.837-0.818,21.112,0,29.949C341,254.594,341,244.611,341,234.628z"/>
		</g>
	</g>
</g>
<g id="Layer_1__x23_000000">
	<g>
		<g>
			<path d="M18.439,376.516c0,0.491,0,0.982,0,1.473c8.776,9.41,22.175,17.327,36.331,24.058
				c4.459,2.127,14.974,3.784,12.765,11.783c-16.304,2.803-5.216,16.999,0.982,23.565c2.435,2.599,4.685,4.174,5.892,4.419
				c11.763,2.455,21.868-11.292,11.783-17.675c4.603,1.146,7.63-2.577,11.783-3.437c0.634-1.637,0.123-4.439,1.964-4.909
				c14.544,0.572,26.553,7.753,40.258,10.801c1.125,8.203,9.062,9.594,14.729,13.256c-0.327,3.498-5.278,6.301-2.455,9.819
				c8.122-1.371,10.638-8.326,16.693-11.783c14.054,4.623,29.458,7.855,43.695,12.274c-0.961,3.723,0.409,7.486-0.491,11.782
				c-0.899,4.215-3.805,5.605-2.945,9.819c0.961,4.787,6.505,7.405,12.765,4.419c3.989,3.334,5.871,9.922,12.274,9.328
				c7.609-0.695,14.278-19.577,2.454-21.111c1.085-2.844,3.724-4.111,6.383-5.4c14.586,5.605,44.248,10.249,50.569-5.892
				c-0.9-2.536-5.401-1.473-7.855-2.455c-8.183,4.746-25.96,3.621-33.386-0.981c0-1.637,0-3.273,0-4.91
				c2.312-1.104,5.953-0.899,7.855-2.454c-0.88-8.061-0.695-15.67,4.419-20.62c17.266,7.405,21.315-17.204,17.184-29.949
				c3.354-3.989,6.096-8.633,7.364-14.729c-2.721-4.808-7.364-7.691-9.819-12.765c4.808-7.242,10.352-13.624,15.22-22.094
				c4.337-7.548,6.607-18.432,12.274-25.039c1.759-2.045,4.889-3.702,7.364-5.892c8.407-7.405,23.116-18.901,17.675-35.349
				c3.784-1.779,7.527-3.58,8.837-7.855c0-1.146,0-2.291,0-3.437c-0.818-8.837-0.818-21.111,0-29.949c0-0.818,0-1.636,0-2.455
				c-5.4-4.951-4.685-12.561-5.892-19.147c-2.557-13.747-6.566-26.021-10.311-38.786c-4.091-13.91-8.632-24.405-18.656-32.403
				c-6.464-5.134-14.463-9.43-21.602-14.238c-13.727-9.226-28.271-21.029-44.678-27.002c-9.758-3.539-22.175-6.771-29.458-13.747
				c-2.106-2.005-3.416-4.93-5.892-6.382c-1.043-6.771-5.093-11.374-6.873-17.675c-1.207-4.234-0.512-9.471-2.455-14.238
				c-3.19-7.753-17.224-16.14-25.53-19.147c-5.584-2.005-11.865-2.394-18.656-3.437c-6.301-0.961-13.849-4.071-18.656-3.437
				c-2.966,0.389-8.694,5.155-12.274,7.365c-3.784,2.353-9.574,4.725-12.274,7.364c-2.639,2.598-7.426,9.165-7.855,12.274
				c-0.614,4.398,1.943,9.696,1.963,13.747c-2.107,4.582-11.783,5.032-10.801,11.292c1.084,7.119,15.179,3.457,18.166-0.982
				c4.03,6.137,16.508,11.149,12.274-2.946c4.153,1.412,5.339,5.789,10.801,5.892c4.909-3.375,3.314-13.46,1.964-19.639
				c2.577,1.125,6.28,0.409,5.891-2.946c2.844,2.476,6.096,6.158,10.311,8.837c3.334,2.127,7.773,3.069,9.819,6.383
				c-2.557,4.152-6.464,4.275-8.837,7.855c-5.012,7.508-5.094,20.764-4.419,33.385c0.327,6.199,0.512,13.911,1.964,18.657
				c1.616,5.319,7.221,11.067,10.801,16.692c7.323,11.558,14.258,21.254,22.584,31.913c6.219,7.978,11.64,13.419,13.747,24.548
				c-7.201-0.655-11.783-10.372-18.657-11.292c-3.907-0.511-10.392,1.596-15.22,1.964c-20.968,1.637-47.685-1.207-58.915,12.274
				c-8.714,10.453-6.689,33.181-8.346,51.06c-0.757,8.081-3.396,16.243-3.928,24.058c-0.593,8.571,0.634,19.74,1.473,30.93
				c0.818,11.047,0.757,26.737,6.874,31.422c0.736,0.573,3.375,0.532,2.946,2.455c0.143,4.091-1.023,7.262-1.473,10.801
				c-0.491,3.662,0.246,8.183-0.981,11.292c-2.782,7.058-13.993,6.465-19.639,11.292c-5.094,4.337-6.587,10.311-5.4,19.639
				c-24.998-0.859-34.592-17.143-51.551-26.021C21.508,373.386,20.301,375.268,18.439,376.516z M79.81,389.281
				c-1.596-15.363,20.354-11.374,23.075-24.058c4.132,2.312,6.158,7.222,10.311,8.347c5.523,1.514,8.714-5.626,14.729-6.383
				c7.528-0.921,11.538,5.094,19.147,2.946c1.371,2.393,1.964,5.563,3.928,7.364c-1.677,8.98-2.537,18.759-5.4,26.512
				c0.164-7.201-10.372-3.703-12.765-8.347c1.043-1.555,3.846-1.391,5.892-1.964c0.92-6.75,10.494-4.378,9.328-12.273
				c-1.104-7.345-16.345-9.349-19.147-0.982c0.655,1.473,3.396,0.88,5.401,0.982c0.797,0.839,1.063,2.209,1.963,2.945
				c-0.695,2.986-3.354,2.844-2.945,5.892c-7.671,3.191-16.754,3.253-26.021,3.928c-4.112-2.188-11.047-6.342-16.202-2.945
				C89.035,387.992,83.696,390.876,79.81,389.281z M93.065,404.501c0-0.328,0-0.655,0-0.982c3.273-1.616,9.696-1.923,11.783,0.491
				c3.109-0.859,4.644-4.623,8.347-3.437C111.231,407.364,99.243,408.633,93.065,404.501z M112.704,399.591
				c-0.757-3.642,5.667-2.332,6.874-2.455C118.922,399.407,115.077,400.675,112.704,399.591z M124.487,32.353
				c-2.884-0.552-3.703,3.498-6.383,1.473c5.339-0.839,8.899-8.019,15.22-8.837c2.618-0.327,8.448,1.309,11.783,1.964
				c18.718,3.682,40.054,8.489,47.624,21.602c-0.246,4.091,2.639,7.405,1.473,10.801c-12.417,4.071-15.752-12.806-29.949-11.783
				c-3.171-6.321-11.517-7.467-18.656-9.819c-1.862,0.123-2.087,1.862-3.928,1.964c-1.841-0.45-2.25-2.332-4.419-2.455
				c-2.7,0.92-1.882,5.339-2.455,8.346C130.071,42.479,129.56,35.135,124.487,32.353z M141.67,301.89
				c-0.716-2.986,3.068-3.375,3.928-6.873c1.432-5.933-0.655-14.381,0.491-21.111c9.185-0.307,12.745,5.974,19.147,8.347
				c6.853,2.557,14.893,2.209,21.603,5.4c5.687,2.721,10.597,6.484,16.201,8.837c6.178,2.618,12.213,4.275,18.166,6.874
				c-0.368,5.195-1.023,10.105-1.474,15.22c-12.56,10.739-18.86,26.348-26.021,41.731c-7.221,15.485-17.797,28.435-27.002,41.24
				c-4.173,1.76-8.592,1.514-12.274,3.437c-3.211,1.678-4.5,6.792-8.346,5.892c3.805-9.758,4.48-22.666,6.874-33.876
				c6.382-0.062,7.814-1.984,9.819-4.909c3.907-5.708,8.183-19.25,3.928-27.003c-1.31-2.332-6.239-6.26-9.329-7.855
				c-3.559-1.821-10.985-2.905-11.783-5.4c-1.432-4.419,5.359-7.692,5.892-11.292c1.146-7.794-2.496-8.879-3.928-15.22
				C145.598,304.181,141.67,304.999,141.67,301.89z M150.999,128.581c-3.928-12.049-2.659-28.435-0.982-42.222
				c0.552,10.249,7.467,14.135,16.693,15.71c-5.953-8.408-9.451-16.488-8.837-28.476c5.359,8.776,2.291,25.121,13.256,27.985
				c2.414,0.634,7.548,0.389,10.311,0c3.846-0.532,7.426-3.15,11.292-3.437c3.15-1.002,7.159-14.688,10.31-15.22
				c2.332-0.389,3.498,2.7,5.4,4.419c11.477,10.412,31.954,14.074,47.133,23.075c14.136,8.387,29.314,19.904,42.223,28.476
				c4.479,2.987,9.001,5.319,12.765,9.329c8.306,8.919,11.681,22.359,16.201,35.84c4.624,13.849,6.22,29.785,8.838,43.695
				c0.859,1.575,2.884,2.721,3.437,4.91c2.373,9.594-1.779,25.612,0,36.332c-1.514,1.104-3.498,3.846-4.909,3.437
				c-1.392-1.493,1.37-5.114,0.981-7.364c-0.491-2.66-7.508-7.242-11.783-10.311c-10.167-7.242-16.386-12.233-26.021-18.656
				c-4.828-3.212-8.612-7.365-12.765-9.819c-4.542-2.68-10.229-4.685-15.711-6.874c-5.646-2.25-12.213-5.155-17.184-5.892
				c-2.721-0.389-8.489-1.043-11.292-0.491c-4.112,0.818-7.631,8.08-12.766,5.4c-0.675-14.442,23.587-8.121,33.877-13.256
				c-5.994-1.698-10.924-4.459-19.147-3.928c-3.866,3.191-9.349,0.409-14.238,0.982c-7.058,0.839-13.542,5.81-19.639,3.437
				c1.943-4.296,7.078-3.171,10.802-4.419c7.568-2.516,15.322-7.119,24.057-7.855c4.623-5.012,13.153-6.137,17.184-11.783
				c-3.109-1.575-5.135-3.028-7.855-3.437c-13.767-2.066-20.067,5.912-28.967,6.383c-2.741,0.164-5.604-0.982-7.854-0.491
				c-2.537,0.573-4.398,3.846-6.874,2.946c4.869-8.551,20.539-6.301,26.512-13.747c-8.53-1.022-17.531-3.682-26.021-1.473
				c-6.566,1.718-10.761,8.817-15.22,11.783c1.596-14.586,17.92-14.483,18.165-30.439c-3.007,3.866-7.364,6.382-12.765,7.855
				c4.705-7.548,11.681-12.847,12.765-24.057c-6.709,1.166-8.142,7.589-14.729,8.837c0.654-17.511,13.972-26.594,24.057-36.331
				c-4.582-2.332-11.005-2.414-16.692-2.455c-2.209-3.519-3.109-8.346-4.418-12.765c-2.128,1.494-3.683,3.539-4.419,6.383
				c-8.224,8.489-26.982,8.776-40.259,4.418c-1.821,3.457-3.723,5.625-4.418,9.328c-2.987,15.833,11.844,29.008,15.22,39.768
				C163.457,145.888,154.19,138.462,150.999,128.581z M181.929,429.539c3.232-4.418,2.353-8.693,3.928-14.237
				c1.657-5.892,7.61-12.049,12.274-17.675c9.41-11.333,18.718-20.743,26.021-33.876c3.13-5.605,7.446-14.975,11.783-17.675
				c-0.082,0.062,0.062,0.43,0,0.491c-1.248,5.38-2.271,9.594-4.419,14.729c-1.923,4.562-6.32,8.285-6.873,12.274
				c-0.982,6.976,4.623,9.349,4.909,17.184c-1.596,2.741-4.786,2.945-6.873,5.4c-3.825,4.5-2.188,10.412-3.928,17.675
				c-0.43,1.779-1.943,3.58-2.455,5.4c-1.8,6.26-1.432,12.888-1.964,18.165C203.327,434.981,193.426,431.463,181.929,429.539z
				 M191.257,64.756c0.614-0.205,1.003-0.634,0.982-1.473c0.818,0,1.637,0,2.455,0c2.271,5.728,8.755,12.335,4.909,19.638
				C194.857,78.831,192.73,72.121,191.257,64.756z M216.787,435.431c-0.695-1.636-0.798-4.827,0.491-5.892
				C218.056,430.808,218.178,434.817,216.787,435.431z M218.26,423.157c-0.368-5.748,2.312-8.47,3.928-12.274
				c-0.572,2.046,1.023,1.923,0.982,3.437C221.288,417.04,220.612,420.928,218.26,423.157z M228.079,402.537
				c-2.455-1.269-2.823-1.78-5.4-1.474c0.062-3.048,2.414-3.784,3.928-5.4c1.534-0.225,1.718,0.9,3.437,0.491
				c6.484-5.81,17.348-1.473,26.021,0c2.107,3.13,4.378,6.096,4.419,11.292c6.301,3.56,1.902,12.151-1.964,15.22
				c-0.634,1.943,1.433,1.187,1.473,2.455c-1.227,1.718-1.432,4.459-2.454,6.382c0.245,2.517,3.068,8.694,0,9.819
				c-3.498-1.575,0.757-10.903-5.4-9.819c-4.071,2.782,1.391,10.004-1.474,13.256c-1.166,0.021-1.452-0.838-2.945-0.49
				c-0.777-5.933-3.027-10.393-3.928-16.202c0.572-1.697,3.334-1.248,3.437-3.437c-7.855-3.416-16.569-6.015-23.075-10.801
				c0.491-2.926,1.371-5.503,1.964-8.347c1.187-0.43,2.128-1.146,3.928-0.981c1.104,0.858,0.45,3.478,1.964,3.928
				c6.26,1.104,13.788,1.738,16.692-2.946c-3.007-6.505-13.992-11.558-21.111-5.4C227.343,401.637,229.266,401.392,228.079,402.537z
				 M229.062,235.61c-2.967-3.519-5.871-8.51-2.455-13.256c0.818,0,1.637,0,2.455,0c8.244,6.792,17.225,14.136,26.512,20.129
				c4.807,3.13,9.144,7.242,13.747,9.819c16.487,9.288,38.192,15.587,61.86,16.693c0.205,2.413-0.839,4.766-1.473,7.364
				c-13.604,5.728-32.669,1.861-43.695-3.437c-1.412-2.517-0.635-7.222-1.473-10.311c-5.114-2.087-11.354-5.667-15.711-6.873
				c0.103,3.089,1.022,5.257-0.982,6.873c-3.988,0.144-6.546-3.866-9.819-6.383C248.925,249.296,235.525,243.363,229.062,235.61z"/>
			<path d="M93.065,403.519c0,0.327,0,0.654,0,0.982c6.178,4.132,18.166,2.863,20.129-3.928c-3.703-1.187-5.237,2.577-8.347,3.437
				C102.762,401.596,96.338,401.902,93.065,403.519z"/>
			<path d="M106.812,376.025c-3.539,0.736-5.196,5.563-2.455,9.328c5.728-0.45,8.694,4.337,14.729,1.964
				c-0.286-1.187-3.191,0.245-2.945-1.474c2.966-3.272,7.303-8.06,12.274-6.382c-1.494-2.414-7.753-0.062-8.347-4.419
				c-0.716-0.266-2.537,0.573-2.455-0.491C116.181,379.769,110.331,375.309,106.812,376.025z"/>
			<path d="M119.577,397.136c-1.207,0.123-7.63-1.187-6.874,2.455C115.077,400.675,118.922,399.407,119.577,397.136z"/>
			<path d="M217.278,429.539c-1.289,1.064-1.187,4.256-0.491,5.892C218.178,434.817,218.056,430.808,217.278,429.539z"/>
			<path d="M222.188,410.883c-1.616,3.805-4.296,6.526-3.928,12.274c2.353-2.229,3.028-6.117,4.91-8.838
				C223.211,412.806,221.615,412.929,222.188,410.883z"/>
			<path fill="#FFFFFF" d="M341,234.628c-0.818,8.837-0.818,21.112,0,29.949C341,254.594,341,244.611,341,234.628z"/>
		</g>
	</g>
</g>
</svg>
