<?xml version="1.0" encoding="utf-8"?>
<!-- Generator: Adobe Illustrator 14.0.0, SVG Export Plug-In . SVG Version: 6.00 Build 43363)  -->
<!DOCTYPE svg PUBLIC "-//W3C//DTD SVG 1.0//EN" "http://www.w3.org/TR/2001/REC-SVG-20010904/DTD/svg10.dtd">
<svg version="1.0" xmlns="http://www.w3.org/2000/svg" xmlns:xlink="http://www.w3.org/1999/xlink" x="0px" y="0px" width="504px"
	 height="504px" viewBox="0 0 504 504" enable-background="new 0 0 504 504" xml:space="preserve">
<g id="Layer_1_x23_000000_copy">
	<g>
		<g>
			<path d="M488.688,253.804c0,37.878-7.606,70.315-19.729,98.329c-5.819,13.439-13.152,26.07-20.354,38.518
				c-35.83,61.991-99.217,97.926-184.76,109.916c-8.768,0-17.536,0-26.304,0C168.569,494.029,115.49,469.33,77.52,431.36
				S13.233,341.877,8,271.653c0-7.411,0-14.822,0-22.234c1.514-16.167,4.162-35.256,8.455-50.73
				c12.63-45.485,35.386-84.603,65.762-110.855c5.219-4.515,10.751-8.873,15.658-13.779c34.29-34.29,83.181-54.606,150.312-56.054
				c1.566,0,3.131,0,4.697,0c0.222,0,0.431,0,0.652,0c76.762,0,126.735,29.998,165.944,69.207
				c19.39,19.389,35.503,42.915,47.599,70.459C479.137,185.132,488.688,216.147,488.688,253.804z M475.223,328.96
				c12.421-31.603,15.462-84.212,5.323-120.876c-1.932,8.82-5.036,16.466-7.829,24.426c4.346,26.109,4.437,63.348-3.131,85.803
				C471.36,321.966,472.756,325.998,475.223,328.96z M476.162,214.973c1.213-3.966,3.51-8.898,3.444-12.839
				c-0.053-3.105-2.153-8.651-3.444-12.839c-19.142-62.2-59.226-109.42-108.664-139.353c-2.896,0.235-6.615,2.349-10.021,3.132
				c2.597,9.551,3.653,19.011,4.07,30.062c0.131,3.483-0.482,8.024,0.313,11.273c0.418,1.696,2.962,4.201,4.384,6.263
				c22.404,32.62,43.502,64.457,61.065,100.835c17.054,6.237,31.693,16.532,44.78,25.678
				C473.174,223.18,474.883,219.161,476.162,214.973z M473.656,332.404c-1.983-3.34-3.131-7.516-5.637-10.334
				c-7.555,14.549-22.951,22.481-36.951,30.062c-4.006,2.166-11.183,4.775-14.092,7.829c-1.396,1.475-2.688,4.566-4.071,6.89
				c-20.955,35.216-43.45,67.602-72.338,93.945c2.518,3.496,2.805,10.308,2.191,15.971c27.244-11.718,50.444-27.753,71.086-46.66
				c20.863-19.102,32.803-45.876,49.478-69.206C464.522,349.158,470.877,342.569,473.656,332.404z M420.421,221.549
				c2.14-5.154,5.885-11.717,5.011-17.85c-0.588-4.058-4.763-9.969-7.203-14.718c-15.175-29.541-32.28-54.802-50.417-81.106
				c-2.701-3.915-6.12-11.143-9.395-12.839c-3.093-1.592-9.042-1.84-13.779-2.505c-26.317-3.68-53.248-2.101-78.287-0.313
				c0.652,2.231-1.462,4.136-2.506,5.95c-19.271,33.285-38.791,67.092-57.62,100.208c14.914,24.608,31.394,50.052,49.165,73.591
				c2.102,2.778,5.611,8.977,8.143,9.707c3.653,1.057,10.66,0.144,15.657,0.313c37.317,1.292,74.896,0.718,111.169,2.192
				c2.57-5.063,6.511-10.139,9.395-15.345C407.412,255.043,413.648,237.859,420.421,221.549z M415.724,356.518
				c0.065-2.075-2.205-6.028-3.132-8.769c-7.438-22.155-13.309-42.484-22.859-61.064c-41.741-1.057-83.795-1.801-125.888-2.505
				c-21.176,24.647-39.992,51.656-59.185,78.287c13.648,33.847,26.722,68.268,41.022,101.461c7.92-4.019,17.889-0.626,27.871,0
				c18.372,1.162,37.305-0.6,53.549-2.818c3.354-0.456,7.542-0.639,10.021-1.565c3.497-1.305,8.208-6.954,11.9-10.647
				c23.043-23.042,41.153-49.308,58.56-77.661C409.291,368.456,415.646,359.271,415.724,356.518z M355.911,51.195
				c2.532-1.436,6.055-1.879,8.455-3.445c-24.151-13.009-53.183-22.808-86.116-25.992c0,0.313,0,0.626,0,0.939
				C309.853,26.482,332.19,39.53,355.911,51.195z M271.674,22.385c1.109,0.013,3.354,0.874,4.071-0.626
				c-12.044-2.375-27.519-2.271-41.023-1.566c-61.13,3.21-104.41,27.375-136.534,59.499c-0.744,0.744-2.832,1.553-2.192,3.131
				c8.038,0.274,11.848-3.471,18.476-6.576c4.502-2.114,9.251-3.901,13.152-5.637c24.204-10.751,48.917-21.307,77.975-25.991
				c2.714-0.431,6.015-0.444,8.455-1.253c3.601-1.2,7.528-5.088,10.96-7.202C237.762,28.321,252.128,22.176,271.674,22.385z
				 M265.098,91.591c-12.748-14.301-27.57-30.52-44.781-41.649c-3.588-2.322-6.55-3.862-10.021-3.444
				c-21.294,2.544-40.436,9.342-58.873,16.597c-12.148,4.776-26.957,11.496-39.144,17.224c-4.292,2.022-9.799,3.966-12.839,6.263
				c-1.996,1.5-3.966,4.75-5.95,7.203c-12.278,15.149-21.712,30.35-28.81,50.417c-1.2,3.379-3.392,8.194-3.131,10.334
				c0.261,2.114,4.71,6.681,6.576,9.081c16.675,21.529,32.098,42.302,48.852,62.63c27.479-11.039,57.307-19.729,86.743-28.81
				C224.062,162.037,244.26,126.495,265.098,91.591z M214.054,483.344c11.534-3.967,21.672-10.309,29.436-18.163
				c-14.47-33.429-27.74-68.084-41.336-102.4c-33.103-7.398-60.269-20.733-86.743-34.76c-22.194,13.4-43.88,27.31-66.075,40.71
				c16.793,26.422,28.432,58.794,53.236,80.166c11.73,10.112,25.9,17.263,41.649,25.053c10.464,5.18,23.317,10.308,36.013,13.778
				c4.436,1.214,10.151,2.962,13.778,2.505c3.041-0.378,4.945-2.87,7.516-3.758C205.755,485.026,210.101,484.7,214.054,483.344z
				 M113.532,240.651c0.457-3.719,2.284-8.364,1.879-10.96c-0.339-2.166-4.658-6.889-6.576-9.395
				c-16.544-21.66-32.776-41.845-48.852-62.943c-14.131,6.524-24.908,24.125-35.699,36.326c-1.735,1.97-3.849,3.353-4.697,5.01
				c-2.766,5.415-3.836,14.457-5.01,21.607c-6.485,39.261-3.888,88.061,10.334,116.179c6.106,12.082,14.849,21.164,23.173,30.376
				c21.777-14.235,44.65-27.375,66.388-41.649C111.497,299.38,110.296,267.047,113.532,240.651z"/>
		</g>
	</g>
</g>
<g id="Layer_2_x23_FFFFFF">
	<g>
		<g>
			<path fill="#FFFFFF" d="M480.546,208.083c10.139,36.665,7.098,89.274-5.323,120.876c-2.467-2.962-3.862-6.994-5.637-10.647
				c7.567-22.455,7.477-59.694,3.131-85.803C475.51,224.55,478.614,216.904,480.546,208.083z"/>
			<path fill="#FFFFFF" d="M468.02,322.07c2.506,2.818,3.653,6.994,5.637,10.334c-2.779,10.165-9.134,16.754-10.334,28.497
				c-16.675,23.33-28.614,50.104-49.478,69.206c-20.642,18.907-43.842,34.942-71.086,46.66c0.613-5.663,0.326-12.475-2.191-15.971
				c28.888-26.344,51.383-58.729,72.338-93.945c1.383-2.323,2.675-5.415,4.071-6.89c2.909-3.054,10.086-5.663,14.092-7.829
				C445.068,344.552,460.465,336.619,468.02,322.07z"/>
			<path fill="#FFFFFF" d="M412.592,347.749c0.927,2.74,3.197,6.693,3.132,8.769c-0.078,2.753-6.433,11.938-8.142,14.718
				c-17.406,28.354-35.517,54.619-58.56,77.661c-3.692,3.693-8.403,9.343-11.9,10.647c-2.479,0.927-6.667,1.109-10.021,1.565
				c-16.244,2.219-35.177,3.98-53.549,2.818c-9.981-0.626-19.95-4.019-27.871,0c-14.3-33.193-27.375-67.614-41.022-101.461
				c19.193-26.631,38.009-53.64,59.185-78.287c42.093,0.704,84.146,1.448,125.888,2.505
				C399.283,305.265,405.154,325.594,412.592,347.749z"/>
			<path fill="#FFFFFF" d="M243.49,465.181c-7.764,7.854-17.902,14.196-29.436,18.163c-3.954,1.356-8.299,1.683-12.526,3.131
				c-2.57,0.888-4.475,3.38-7.516,3.758c-3.627,0.457-9.342-1.291-13.778-2.505c-12.696-3.471-25.548-8.599-36.013-13.778
				c-15.749-7.79-29.919-14.94-41.649-25.053c-24.804-21.372-36.443-53.744-53.236-80.166c22.195-13.4,43.88-27.31,66.075-40.71
				c26.475,14.026,53.641,27.361,86.743,34.76C215.75,397.097,229.02,431.752,243.49,465.181z"/>
			<path fill="#FFFFFF" d="M115.411,229.691c0.405,2.597-1.422,7.242-1.879,10.96c-3.236,26.396-2.035,58.729,0.939,84.551
				c-21.738,14.274-44.611,27.414-66.388,41.649c-8.325-9.212-17.067-18.294-23.173-30.376
				c-14.222-28.118-16.819-76.918-10.334-116.179c1.174-7.15,2.244-16.192,5.01-21.607c0.848-1.657,2.962-3.04,4.697-5.01
				c10.791-12.2,21.568-29.802,35.699-36.326c16.075,21.099,32.307,41.284,48.852,62.943
				C110.753,222.802,115.072,227.525,115.411,229.691z"/>
			<path fill="#FFFFFF" d="M364.366,47.75c-2.4,1.566-5.923,2.009-8.455,3.445C332.19,39.53,309.853,26.482,278.25,22.698
				c0-0.313,0-0.626,0-0.939C311.184,24.942,340.215,34.741,364.366,47.75z"/>
			<path fill="#FFFFFF" d="M425.432,203.699c0.874,6.133-2.871,12.696-5.011,17.85c-6.772,16.31-13.009,33.494-20.668,47.286
				c-2.884,5.206-6.824,10.281-9.395,15.345c-36.273-1.475-73.852-0.9-111.169-2.192c-4.997-0.17-12.004,0.743-15.657-0.313
				c-2.531-0.73-6.041-6.929-8.143-9.707c-17.771-23.539-34.25-48.982-49.165-73.591c18.829-33.116,38.348-66.923,57.62-100.208
				c1.044-1.814,3.158-3.719,2.506-5.95c25.039-1.788,51.97-3.366,78.287,0.313c4.737,0.665,10.687,0.913,13.779,2.505
				c3.274,1.696,6.693,8.925,9.395,12.839c18.137,26.305,35.242,51.565,50.417,81.106
				C420.669,193.73,424.844,199.642,425.432,203.699z"/>
			<path fill="#FFFFFF" d="M479.606,202.134c0.065,3.94-2.231,8.873-3.444,12.839c-1.279,4.188-2.988,8.208-4.071,12.213
				c-13.087-9.146-27.727-19.441-44.78-25.678c-17.563-36.378-38.661-68.215-61.065-100.835c-1.422-2.062-3.966-4.566-4.384-6.263
				c-0.796-3.249-0.183-7.79-0.313-11.273c-0.417-11.052-1.474-20.512-4.07-30.062c3.405-0.783,7.124-2.897,10.021-3.132
				c49.438,29.932,89.522,77.153,108.664,139.353C477.453,193.483,479.554,199.028,479.606,202.134z"/>
			<path fill="#FFFFFF" d="M220.317,49.942c17.21,11.13,32.033,27.349,44.781,41.649c-20.837,34.903-41.036,70.446-61.377,105.845
				c-29.437,9.081-59.264,17.771-86.743,28.81c-16.753-20.329-32.176-41.101-48.852-62.63c-1.866-2.4-6.315-6.967-6.576-9.081
				c-0.261-2.14,1.931-6.955,3.131-10.334c7.098-20.068,16.532-35.269,28.81-50.417c1.983-2.453,3.954-5.702,5.95-7.203
				c3.041-2.296,8.547-4.24,12.839-6.263c12.187-5.728,26.996-12.448,39.144-17.224c18.437-7.254,37.578-14.053,58.873-16.597
				C213.767,46.08,216.729,47.62,220.317,49.942z"/>
			<path fill="#FFFFFF" d="M275.745,21.758c-0.718,1.5-2.962,0.64-4.071,0.626c-19.546-0.209-33.912,5.937-46.66,13.779
				c-3.432,2.114-7.359,6.002-10.96,7.202c-2.44,0.809-5.741,0.822-8.455,1.253c-29.058,4.684-53.771,15.24-77.975,25.991
				c-3.901,1.735-8.65,3.523-13.152,5.637c-6.628,3.105-10.438,6.85-18.476,6.576c-0.64-1.579,1.448-2.388,2.192-3.131
				c32.124-32.124,75.404-56.289,136.534-59.499C248.227,19.488,263.701,19.384,275.745,21.758z"/>
		</g>
	</g>
</g>
</svg>
