<?xml version="1.0" encoding="utf-8"?>
<!-- Generator: Adobe Illustrator 14.0.0, SVG Export Plug-In . SVG Version: 6.00 Build 43363)  -->
<!DOCTYPE svg PUBLIC "-//W3C//DTD SVG 1.0//EN" "http://www.w3.org/TR/2001/REC-SVG-20010904/DTD/svg10.dtd">
<svg version="1.0" xmlns="http://www.w3.org/2000/svg" xmlns:xlink="http://www.w3.org/1999/xlink" x="0px" y="0px" width="720px"
	 height="720px" viewBox="0 0 720 720" enable-background="new 0 0 720 720" xml:space="preserve">
<g id="Layer_1_x23_000000">
	<g>
		<g>
			<path fill="#090607" d="M581.97,412c4.59,67.34-23.689,124.32-59.989,163.98C484.43,616.99,434.13,646.02,369,648.97
				c-72.39,3.29-122.91-24.67-163.98-59.989c-3.25-4.08-6.92-7.75-11-11c-32.05-36.601-57.06-80.25-59.99-145.98c0-4.66,0-9.33,0-14
				c2.98-65.67,27.4-109.9,59.99-145.98c-8.17-13.83-27.9-21.42-40-28c-1.57-5.17,7.58-2.92,9-1.99c0.6-3.97-12.76-7.87-10-14
				c2.2-6.05,10.9,2.73,12,1c0-8.39-12.72-8.08-9-17c6.37-3.57,10.77,11.2,16,3c5.82,1.85,7.6,7.73,12,11
				c4.58,5.41,9.58,10.41,15,15c3.12,3.26,3.97,16.13,9,16.99c2.25,0.39,12-9.69,14.99-12c14.71-11.3,35.5-23.74,51-28.99
				c-7.68-14.65-12.6-32.06-11-55.99c0-5.67,0-11.34,0-17c2.08-7.92,0.98-19.02,6-24c-38.96-19.1-25.27-80.74,18-80.99
				c32.85-0.19,47.68,31.76,37.99,60.99c-4.4,13.29-5.75,13.88-17,22c-8.88,6.41-14.36,12.05-26.99,15
				c0.23,22.17,9.6,65.74,24.99,68.99c11.13,2.35,32.59-4.97,29-19c11.65-10.87,33.45-24.36,50.99-12c3.25,4.09,6.92,7.75,11,11
				c2.47,6.2,8.35,8.98,7,19c42.029,9.63,75.04,28.28,102.99,51.99c4.579,5.42,9.579,10.42,15,15
				C553.43,308.21,577.78,350.56,581.97,412z M517.98,571.98c34.399-38.9,62.5-97.33,55.989-171.971c-0.7-8.06-2.05-18.96-7-25
				c-47.79,8.2-94.91,17.07-142.979,25c8.3,14.57,5.84,29.13,6,41.99c0.029,2.6,2.27,4.85,2,7c-0.34,2.67-3.24,5.51-4,9
				c-0.971,4.42,0.029,9.98-1,13c-2.54,7.39-10.07,11.77-13,18.99c-1.69,4.16-1.181,11.08-3,16c-1.8,4.88-4.7,6.88-5,11
				c-0.601,8.22,6.6,14.45,3,23C439.01,556.96,471.64,571.33,517.98,571.98z M567.97,369.01
				c-15.939-56.69-51.27-103.38-99.989-131.98c-12.891-7.58-44.41-25.98-57.99-17c6.62,9.65,1.89,20.72-7,22c-6.99,1-16.79-9-19,1
				c26.38,11.06,10.95,43.01,11,73.99c0.029,16.23,1.14,30.8-2,41.99c6.83,0.84,10.649,4.69,16,7c0.04,11.57,12.939,17.29,15,30
				C471.3,386.32,522.16,380.19,567.97,369.01z M488.98,596.98c7.05-5.311,15.93-10.091,19-18c-39.721-2.61-69.15-15.5-96.99-29.99
				c-0.98,4.68-0.13,11.2-4,13c-4.33,0-8.66,0-13,0c-2.51,13.479-10.311,21.68-9,38.99c7.99,12.68,13.2,28.13,28,34
				C442.48,627.28,468.51,612.41,488.98,596.98z M408.99,213.03c-1.74,0.07-3.11-0.22-4-1c-1.15,1.18-1.13,3.53-1,6
				C407.4,218.1,407.72,215.09,408.99,213.03z M353,641.98c4,0,8,0,12,0c-3.67-5.33-7.23-10.78-14-13
				C352.02,632.96,352.45,637.52,353,641.98z M333,586.98c-1.56-16.5-5.17-27.62-7-41.99c-3.64,3.68-7.41,7.25-12,10
				C317.29,568.7,322.17,580.81,333,586.98z M322,210.03c-3.93-0.27-6.95,0.38-8,3c1.91,0.43,2.51,2.15,5,2
				C319.59,212.95,321.1,211.8,322,210.03z M316,445c1.19-7.55-2.32-18.32-5-21c-7.04-7.02-19.89,2.25-31.99,2
				c3.15,19.52,8.41,36.92,12,56C296.3,474.82,314.52,454.38,316,445z M317,256.02c-5.78-4.41-12.47-5.49-21-12
				c-12.96-9.88-18.01-31.39-32.99-13.99c-0.72,20.01-2.28,44.27,0,63.99C288.14,288.49,306.75,276.44,317,256.02z M299,394.01
				c6.6-25.52-5.67-46.53-5.99-70.99c-10.05,1.28-19.6,3.06-28,5.99c3.14,31.85,7.13,62.86,13,91.99c8.17-0.16,14.22-2.44,21.99-3
				C291.91,410.1,297.08,401.43,299,394.01z M316,637.98c-12.81-19.75-30.02-34.971-42.99-53c-4.18-5.801-9.66-14.881-11-22.99
				c-3.11-18.811,5.16-35.66,12-47c2-3.311,6.28-5.34,8-9c10.86-23.141-10.13-53.65-10-77.99c-11.86,0.48-21.18,3.49-32,5
				c9.4,62.39-10.23,112.18-32.99,148.98C235.95,608.05,270.2,628.78,316,637.98z M270.01,423c-4.07-31.26-10.3-60.36-12-93.99
				c-3.44,0.44-5.6-0.39-8-1c-19.38-15.28-38.18-31.14-51.99-51.99c-8.43,11.57-19.05,20.95-25,35
				c31.13,29.86,56.61,65.38,65.99,116.98C250.04,427.03,259.95,424.94,270.01,423z M255.01,290.02c-0.68-19.35,1-41.66,0-57.99
				c-14.36,10.3-31.66,17.66-41.99,31.99C227.75,271.95,237.15,285.22,255.01,290.02z M203.02,575.98
				c21.65-33.921,39.36-85.801,28.99-141.98c-29.33,6-59.61,11.05-89.99,16C148.85,505.5,171.21,545.46,203.02,575.98z M232.01,430
				c-9.34-49.65-30.7-87.28-62.99-113.98c-18.68,32.5-33.95,78.45-27,129.98C171.66,440.3,202,435.32,232.01,430z"/>
		</g>
	</g>
</g>
<g id="Layer_2_x23_EB2729">
	<g>
		<g>
			<path fill="#EB2729" d="M573.97,400.01c6.511,74.641-21.59,133.07-55.989,171.971c-46.341-0.65-78.971-15.021-108.99-31.99
				c3.6-8.55-3.601-14.78-3-23c0.3-4.12,3.2-6.12,5-11c1.819-4.92,1.31-11.84,3-16c2.93-7.221,10.46-11.601,13-18.99
				c1.029-3.02,0.029-8.58,1-13c0.76-3.49,3.66-6.33,4-9c0.27-2.15-1.971-4.4-2-7c-0.16-12.86,2.3-27.42-6-41.99
				c48.069-7.93,95.189-16.8,142.979-25C571.92,381.05,573.27,391.95,573.97,400.01z"/>
			<path fill="#EB2729" d="M404.99,212.03c0.89,0.78,2.26,1.07,4,1c-1.271,2.06-1.59,5.07-5,5
				C403.86,215.56,403.84,213.21,404.99,212.03z"/>
			<path fill="#EB2729" d="M314,213.03c1.05-2.62,4.07-3.27,8-3c-0.9,1.77-2.41,2.92-3,5C316.51,215.18,315.91,213.46,314,213.03z"
				/>
			<path fill="#EB2729" d="M296,244.02c8.53,6.51,15.22,7.59,21,12c-10.25,20.42-28.86,32.47-53.99,38
				c-2.28-19.72-0.72-43.98,0-63.99C277.99,212.63,283.04,234.14,296,244.02z"/>
			<path fill="#EB2729" d="M293.01,323.02c0.32,24.46,12.59,45.47,5.99,70.99c-1.92,7.42-7.09,16.09,1,23.99
				c-7.77,0.56-13.82,2.84-21.99,3c-5.87-29.13-9.86-60.14-13-91.99C273.41,326.08,282.96,324.3,293.01,323.02z"/>
			<path fill="#EB2729" d="M273.01,584.98c12.97,18.029,30.18,33.25,42.99,53c-45.8-9.2-80.05-29.931-108.98-56
				c22.76-36.801,42.39-86.591,32.99-148.98c10.82-1.51,20.14-4.52,32-5c-0.13,24.34,20.86,54.85,10,77.99c-1.72,3.66-6,5.689-8,9
				c-6.84,11.34-15.11,28.189-12,47C263.35,570.1,268.83,579.18,273.01,584.98z"/>
			<path fill="#EB2729" d="M169.02,316.02c32.29,26.7,53.65,64.33,62.99,113.98c-30.01,5.32-60.35,10.3-89.99,16
				C135.07,394.47,150.34,348.52,169.02,316.02z"/>
		</g>
	</g>
</g>
<g id="Layer_3_x23_5DC9E5">
	<g>
		<g>
			<path fill="none" d="M296,244.02c8.53,6.51,15.22,7.59,21,12c-10.25,20.42-28.86,32.47-53.99,38c-2.28-19.72-0.72-43.98,0-63.99
				C277.99,212.63,283.04,234.14,296,244.02z"/>
			<path fill="#5DCAE5" d="M467.98,237.03c48.72,28.6,84.05,75.29,99.989,131.98c-45.81,11.181-96.67,17.311-143.979,27
				c-2.061-12.71-14.96-18.43-15-30c-5.351-2.31-9.17-6.16-16-7c3.14-11.19,2.029-25.76,2-41.99c-0.05-30.98,15.38-62.93-11-73.99
				c2.21-10,12.01,0,19-1c8.89-1.28,13.62-12.35,7-22C423.57,211.05,455.09,229.45,467.98,237.03z"/>
			<path fill="#5DCAE5" d="M506.98,257.02c5.42,4.59,10.409,9.58,15,15C516.56,267.44,511.56,262.44,506.98,257.02z"/>
			<path fill="#5DCAE5" d="M507.98,578.98c-3.07,7.909-11.95,12.689-19,18c-20.471,15.43-46.5,30.3-75.99,38
				c-14.8-5.87-20.01-21.32-28-34c-1.311-17.311,6.49-25.511,9-38.99c4.34,0,8.67,0,13,0c3.87-1.8,3.02-8.32,4-13
				C438.83,563.48,468.26,576.37,507.98,578.98z"/>
			<path fill="#5DCAE5" d="M385.99,175.03c4.09,3.25,7.75,6.92,11,11C392.91,182.78,389.24,179.12,385.99,175.03z"/>
			<path fill="#5DCAE5" d="M365,641.98c-4,0-8,0-12,0c-0.55-4.461-0.98-9.021-2-13C357.77,631.2,361.33,636.65,365,641.98z"/>
			<path fill="#5DCAE5" d="M326,544.99c1.83,14.37,5.44,25.49,7,41.99c-10.83-6.171-15.71-18.28-19-31.99
				C318.59,552.24,322.36,548.67,326,544.99z"/>
			<path fill="#5DCAE5" d="M311,424c2.68,2.68,6.19,13.45,5,21c-1.48,9.38-19.7,29.82-24.99,37c-3.59-19.08-8.85-36.48-12-56
				C291.11,426.25,303.96,416.98,311,424z"/>
			<path fill="#5DCAE5" d="M258.01,329.01c1.7,33.63,7.93,62.73,12,93.99c-10.06,1.94-19.97,4.03-31,5
				c-9.38-51.6-34.86-87.12-65.99-116.98c5.95-14.05,16.57-23.43,25-35c13.81,20.85,32.61,36.71,51.99,51.99
				C252.41,328.62,254.57,329.45,258.01,329.01z"/>
			<path fill="#5DCAE5" d="M263.01,144.04c0,5.66,0,11.33,0,17C261.35,157.67,261.35,147.4,263.01,144.04z"/>
			<path fill="#5DCAE5" d="M255.01,232.03c1,16.33-0.68,38.64,0,57.99c-17.86-4.8-27.26-18.07-41.99-26
				C223.35,249.69,240.65,242.33,255.01,232.03z"/>
			<path fill="#5DCAE5" d="M232.01,434c10.37,56.18-7.34,108.06-28.99,141.98c-31.81-30.521-54.17-70.48-61-125.98
				C172.4,445.05,202.68,440,232.01,434z"/>
			<path fill="#5DCAE5" d="M194.02,577.98c4.08,3.25,7.75,6.92,11,11C200.93,585.73,197.27,582.07,194.02,577.98z"/>
			<path fill="#5DCAE5" d="M184.02,226.03c5.42,4.58,10.42,9.58,15,15C193.6,236.44,188.6,231.44,184.02,226.03z"/>
			<path fill="#5DCAE5" d="M134.03,418c0,4.67,0,9.34,0,14c-0.34,0-0.67,0-1,0c0-4.66,0-9.33,0-14C133.36,418,133.69,418,134.03,418
				z"/>
		</g>
	</g>
</g>
</svg>
