<?xml version="1.0" encoding="utf-8"?>
<!-- Generator: Adobe Illustrator 14.0.0, SVG Export Plug-In . SVG Version: 6.00 Build 43363)  -->
<!DOCTYPE svg PUBLIC "-//W3C//DTD SVG 1.0//EN" "http://www.w3.org/TR/2001/REC-SVG-20010904/DTD/svg10.dtd">
<svg version="1.0" xmlns="http://www.w3.org/2000/svg" xmlns:xlink="http://www.w3.org/1999/xlink" x="0px" y="0px" width="720px"
	 height="720px" viewBox="0 0 720 720" enable-background="new 0 0 720 720" xml:space="preserve">
<g id="Layer_1_x23_000000">
	<g>
		<g>
			<path fill="none" d="M375.01,312.12c-6.97,7.72-14.81,14.57-21.79,22.29c-7.63-7.22-15.06-14.65-22.29-22.29
				c7.06-7.47,14.33-14.73,21.8-21.79C360.44,297.31,367.3,305.15,375.01,312.12z"/>
			<path d="M699.9,362.61c-0.08,0-0.33,3.779-0.061,3.199c-1.16,3.75-5.35,4.96-8.35,8.721c-3.181,2.76-6.15,5.729-8.91,8.91
				c-3.43,2.68-5.99,6.239-9.41,8.92c-4.01,3.59-7.8,7.39-11.39,11.39c-4.42,3.67-7.971,8.21-12.391,11.89
				c-5.319,4.91-10.439,10.021-15.35,15.351c-7.22,6.479-13.58,13.83-20.8,20.3c-14.24,13.83-28.271,27.86-42.101,42.1
				c-11.93,11.521-23.649,23.24-35.159,35.17c-21.011,20.591-41.811,41.391-62.41,62.4c-18.2,18.95-37.271,37.021-55.471,55.97
				c-21.42,20.67-41.97,42.221-63.39,62.9c-0.17,0-0.33,0-0.5,0c-1.35-2.12-3.59-3.34-4.95-5.45c-2.93-3.35-6.07-6.479-9.41-9.41
				c-2.85-3.59-6.56-6.319-9.41-9.91c-3.43-3.84-7.06-7.47-10.9-10.89c-4-4.75-8.87-8.63-12.87-13.38
				c-5.08-5.49-10.36-10.771-15.85-15.84c-6.81-7.561-14.49-14.24-21.3-21.8c-42.22-42.631-84.65-85.061-127.28-127.28
				c-14.82-14.08-28.77-29.021-43.59-43.09C73.86,427.81,46.93,400.56,21.39,375.02c-3.46-3.46-11.05-9.319-10.4-11.88
				c2.2-2.43,2.1-7.149,1.98-11.89c0-3.63,0-7.26,0-10.9c5.1-101.71,44.74-168.88,96.08-224.35c4.34-3.92,8.47-8.05,12.39-12.38
				C177.07,52.6,246.75,15.63,349.26,11.5c8.42,0,16.84,0,25.26,0c97.58,7.25,164.101,45.55,218.41,96.08
				c2.44,2.85,5.08,5.49,7.931,7.92c0.87,0.45,1.529,1.11,1.979,1.98c2.271,2.69,4.74,5.16,7.43,7.43
				c48.23,53.3,81.94,121.12,87.66,216.93c0,2.81,0,5.61,0,8.42C696.36,355.75,699.52,359.88,699.9,362.61z M695.95,363.63
				c-3.12-5.92-1.92-12.68-1.98-18.82c-0.069-7.03-0.81-13.97-1.489-20.8c-9.521-95.58-47.171-158.12-99.551-210.49
				C564.32,84.91,529.1,59.18,487.44,41.71C446.3,24.45,391.63,11.78,334.9,15.95c-100.32,7.38-173.83,49.54-226.34,106.98
				c-46.65,51.03-82.54,112.29-90.64,201.08c-1.14,12.56-0.25,25.49-2.47,38.63c12.94,15.48,28.03,29.021,42.1,43.091
				c71,71,141.92,141.93,212.96,212.97c24.16,24.149,49.06,50.54,73.8,75.28c2.26,2.26,9.74,10.449,10.89,10.399
				c1.21-0.05,7.689-8.189,10.399-10.899c40-40,77.841-78.33,116.891-117.381c43-43,85.66-85.159,128.27-127.779
				c24.91-24.91,50.91-49.42,75.28-73.79C689.44,371.13,693.38,367.78,695.95,363.63z"/>
			<path d="M550.34,485.47c-7.64,8.38-16.14,15.891-23.77,24.271c-8.38-7.641-15.891-16.141-24.271-23.78
				c7.63-8.38,16.141-15.89,23.771-24.26C534.45,469.33,541.96,477.83,550.34,485.47z M548.36,485.47
				c-3.061-3.21-6.011-6.5-10.9-11.39c-1.57-1.58-9.78-10.97-11.39-10.9c-0.551,0.03-3.74,4.24-4.95,5.45
				c-5.62,5.62-13.101,12.37-16.84,16.84c5.569,7.141,14.569,15.15,21.79,22.29c0.17,0,0.33,0,0.5,0
				C533.79,500.62,542.79,492.61,548.36,485.47z"/>
			<path d="M354.21,275.47c71.51,68.65,141.22,139.11,210.49,210c-69.25,70.41-140.141,139.181-209.5,209.5
				c-6.03-2.45-9.22-8.43-13.37-12.88c-12.36-13.26-26.46-25.97-39.62-39.13c-52.14-52.14-104.85-104.69-157.5-157
				C212.97,414.23,284.14,345.4,354.21,275.47z M561.24,485.47C493.18,416,424.79,346.87,354.71,279.44
				c-68.96,66.75-139.08,136.62-206.53,206.52C217.53,554.3,286.1,623.42,355.2,692C422.87,622.14,492.97,554.72,561.24,485.47z"/>
			<path d="M409.19,467.14c0.149,11.841-11.271,18.521-20.311,22.29c-20.16,8.4-50.61,8.9-71.81,0
				c-9.67-4.06-20.17-11.05-20.31-21.79c-0.14-10.819,9.56-17.399,17.83-21.3c10.08-4.74,18.97-6.01,32.19-6.93
				c14.25-0.99,27.81,0.479,39.63,4.95C394.9,447.58,409.03,454.54,409.19,467.14z M356.69,494.38
				c21.09-0.5,51.73-8.399,51.51-27.24c-0.22-18.279-29.891-25.819-49.03-26.739c-2.98-0.83-9.41-0.83-12.39,0
				c-12.53,0.77-23.36,2.51-33.18,7.43c-7.26,3.64-15.96,10.55-15.85,19.81c0.24,19.24,32.05,26.2,51.01,26.74
				C350.27,495.21,355.19,495.21,356.69,494.38z"/>
			<path d="M377,312.12c-7.64,8.38-16.14,15.89-23.78,24.27c-8.38-7.63-15.89-16.14-24.27-23.77c7.64-8.38,16.14-15.89,23.78-24.27
				C361.11,295.99,368.62,304.49,377,312.12z M353.22,334.91c7.14-7.89,15.15-14.9,22.29-22.79c-7.8-6.72-15.4-16.3-22.78-21.79
				c-7.47,7.06-14.74,14.32-21.8,21.79C336.67,319.43,345.83,327.6,353.22,334.91z"/>
			<path d="M205.63,485.47c-7.63,8.38-16.14,15.891-23.77,24.271c-8.38-7.641-15.89-16.141-24.27-23.78
				c7.64-8.38,16.14-15.89,23.77-24.26C189.74,469.33,197.25,477.83,205.63,485.47z M203.65,485.47c-3.05-3.21-6-6.5-10.9-11.39
				c-1.57-1.58-9.77-10.97-11.39-10.9c-0.54,0.03-3.74,4.24-4.95,5.45c-5.62,5.62-13.1,12.37-16.84,16.84
				c5.57,7.141,14.57,15.15,21.79,22.29c0.17,0,0.33,0,0.5,0C189.08,500.62,198.08,492.61,203.65,485.47z"/>
		</g>
	</g>
</g>
<g id="Layer_2_x23_FFFFFF">
	<g>
		<g>
			<path fill="none" d="M354.21,275.47c71.51,68.65,141.22,139.11,210.49,210c-69.25,70.41-140.141,139.181-209.5,209.5
				c-6.03-2.45-9.22-8.43-13.37-12.88c-12.36-13.26-26.46-25.97-39.62-39.13c-52.14-52.14-104.85-104.69-157.5-157
				C212.97,414.23,284.14,345.4,354.21,275.47z M561.24,485.47C493.18,416,424.79,346.87,354.71,279.44
				c-68.96,66.75-139.08,136.62-206.53,206.52C217.53,554.3,286.1,623.42,355.2,692C422.87,622.14,492.97,554.72,561.24,485.47z"/>
			<path fill="#FFFFFF" d="M537.46,474.08c4.89,4.89,7.84,8.18,10.9,11.39c-6.98,7.721-14.82,14.57-21.79,22.29
				c-0.17,0-0.33,0-0.5,0c-6.971-7.72-14.82-14.569-21.79-22.29c3.739-4.47,11.22-11.22,16.84-16.84c1.21-1.21,4.399-5.42,4.95-5.45
				C527.68,463.11,535.89,472.5,537.46,474.08z"/>
			<path fill="#FFFFFF" d="M408.2,467.14c0.22,18.841-30.42,26.74-51.51,27.24c-2.64,0-5.28,0-7.93,0
				c-18.96-0.54-50.77-7.5-51.01-26.74c-0.11-9.26,8.59-16.17,15.85-19.81c9.82-4.92,20.65-6.66,33.18-7.43c4.13,0,8.26,0,12.39,0
				C378.31,441.32,407.98,448.86,408.2,467.14z"/>
			<path fill="#FFFFFF" d="M375.01,312.12c-6.97,7.72-14.81,14.57-21.79,22.29c-7.63-7.22-15.06-14.65-22.29-22.29
				c7.06-7.47,14.33-14.73,21.8-21.79C360.44,297.31,367.3,305.15,375.01,312.12z"/>
			<path fill="#FFFFFF" d="M192.75,474.08c4.9,4.89,7.85,8.18,10.9,11.39c-6.97,7.721-14.82,14.57-21.79,22.29c-0.17,0-0.33,0-0.5,0
				c-6.97-7.72-14.81-14.569-21.79-22.29c3.74-4.47,11.22-11.22,16.84-16.84c1.21-1.21,4.41-5.42,4.95-5.45
				C182.98,463.11,191.18,472.5,192.75,474.08z"/>
		</g>
	</g>
</g>
<g id="Layer_3_x23_E4BC96">
	<g>
		<g>
			<path fill="none" d="M693.97,344.81c0.061,6.14-1.14,12.9,1.98,18.82c-2.57,4.15-6.51,7.5-9.91,10.9
				c-24.37,24.37-50.37,48.88-75.28,73.79C568.15,490.94,525.49,533.1,482.49,576.1C443.44,615.15,405.6,653.48,365.6,693.48
				c-2.71,2.71-9.189,10.85-10.399,10.899c-1.15,0.05-8.63-8.14-10.89-10.399c-24.74-24.74-49.64-51.131-73.8-75.28
				c-71.04-71.04-141.96-141.97-212.96-212.97c-14.07-14.07-29.16-27.61-42.1-43.091c2.22-13.14,1.33-26.07,2.47-38.63
				c8.1-88.79,43.99-150.05,90.64-201.08c52.51-57.44,126.02-99.6,226.34-106.98c56.73-4.17,111.4,8.5,152.541,25.76
				c41.659,17.47,76.88,43.2,105.489,71.81c52.38,52.37,90.03,114.91,99.551,210.49C693.16,330.84,693.9,337.78,693.97,344.81z
				 M564.7,485.47c-69.271-70.89-138.98-141.35-210.49-210c-70.07,69.93-141.24,138.76-209.5,210.49
				c52.65,52.31,105.36,104.86,157.5,157c13.16,13.16,27.26,25.87,39.62,39.13c4.15,4.45,7.34,10.43,13.37,12.88
				C424.56,624.65,495.45,555.88,564.7,485.47z"/>
			<path fill="none" d="M354.21,275.47c71.51,68.65,141.22,139.11,210.49,210c-69.25,70.41-140.141,139.181-209.5,209.5
				c-6.03-2.45-9.22-8.43-13.37-12.88c-12.36-13.26-26.46-25.97-39.62-39.13c-52.14-52.14-104.85-104.69-157.5-157
				C212.97,414.23,284.14,345.4,354.21,275.47z M561.24,485.47C493.18,416,424.79,346.87,354.71,279.44
				c-68.96,66.75-139.08,136.62-206.53,206.52C217.53,554.3,286.1,623.42,355.2,692C422.87,622.14,492.97,554.72,561.24,485.47z"/>
			<path fill="none" d="M408.2,467.14c0.22,18.841-30.42,26.74-51.51,27.24c-2.64,0-5.28,0-7.93,0
				c-18.96-0.54-50.77-7.5-51.01-26.74c-0.11-9.26,8.59-16.17,15.85-19.81c9.82-4.92,20.65-6.66,33.18-7.43c4.13,0,8.26,0,12.39,0
				C378.31,441.32,407.98,448.86,408.2,467.14z"/>
			<path fill="#E4BC96" d="M354.71,279.44C424.79,346.87,493.18,416,561.24,485.47C492.97,554.72,422.87,622.14,355.2,692
				c-69.1-68.58-137.67-137.7-207.02-206.04C215.63,416.06,285.75,346.19,354.71,279.44z M526.57,509.74
				c7.63-8.38,16.13-15.891,23.77-24.271c-8.38-7.64-15.89-16.14-24.27-23.77c-7.63,8.37-16.141,15.88-23.771,24.26
				C510.68,493.6,518.19,502.1,526.57,509.74z M388.88,489.43c9.04-3.77,20.46-10.449,20.311-22.29
				c-0.16-12.6-14.29-19.56-22.78-22.779c-11.82-4.471-25.38-5.94-39.63-4.95c-13.22,0.92-22.11,2.189-32.19,6.93
				c-8.27,3.9-17.97,10.48-17.83,21.3c0.14,10.74,10.64,17.73,20.31,21.79C338.27,498.33,368.72,497.83,388.88,489.43z
				 M353.22,336.39c7.64-8.38,16.14-15.89,23.78-24.27c-8.38-7.63-15.89-16.13-24.27-23.77c-7.64,8.38-16.14,15.89-23.78,24.27
				C337.33,320.25,344.84,328.76,353.22,336.39z M181.86,509.74c7.63-8.38,16.14-15.891,23.77-24.271
				c-8.38-7.64-15.89-16.14-24.27-23.77c-7.63,8.37-16.13,15.88-23.77,24.26C165.97,493.6,173.48,502.1,181.86,509.74z"/>
		</g>
	</g>
</g>
<g id="Layer_4_x23_00A33D">
	<g>
		<g>
			<path fill="none" d="M409.19,467.14c0.149,11.841-11.271,18.521-20.311,22.29c-20.16,8.4-50.61,8.9-71.81,0
				c-9.67-4.06-20.17-11.05-20.31-21.79c-0.14-10.819,9.56-17.399,17.83-21.3c10.08-4.74,18.97-6.01,32.19-6.93
				c14.25-0.99,27.81,0.479,39.63,4.95C394.9,447.58,409.03,454.54,409.19,467.14z M356.69,494.38
				c21.09-0.5,51.73-8.399,51.51-27.24c-0.22-18.279-29.891-25.819-49.03-26.739c-2.98-0.83-9.41-0.83-12.39,0
				c-12.53,0.77-23.36,2.51-33.18,7.43c-7.26,3.64-15.96,10.55-15.85,19.81c0.24,19.24,32.05,26.2,51.01,26.74
				C350.27,495.21,355.19,495.21,356.69,494.38z"/>
			<path fill="none" d="M408.2,467.14c0.22,18.841-30.42,26.74-51.51,27.24c-2.64,0-5.28,0-7.93,0
				c-18.96-0.54-50.77-7.5-51.01-26.74c-0.11-9.26,8.59-16.17,15.85-19.81c9.82-4.92,20.65-6.66,33.18-7.43c4.13,0,8.26,0,12.39,0
				C378.31,441.32,407.98,448.86,408.2,467.14z"/>
			<path fill="none" d="M354.71,279.44C424.79,346.87,493.18,416,561.24,485.47C492.97,554.72,422.87,622.14,355.2,692
				c-69.1-68.58-137.67-137.7-207.02-206.04C215.63,416.06,285.75,346.19,354.71,279.44z M526.57,509.74
				c7.63-8.38,16.13-15.891,23.77-24.271c-8.38-7.64-15.89-16.14-24.27-23.77c-7.63,8.37-16.141,15.88-23.771,24.26
				C510.68,493.6,518.19,502.1,526.57,509.74z M388.88,489.43c9.04-3.77,20.46-10.449,20.311-22.29
				c-0.16-12.6-14.29-19.56-22.78-22.779c-11.82-4.471-25.38-5.94-39.63-4.95c-13.22,0.92-22.11,2.189-32.19,6.93
				c-8.27,3.9-17.97,10.48-17.83,21.3c0.14,10.74,10.64,17.73,20.31,21.79C338.27,498.33,368.72,497.83,388.88,489.43z
				 M353.22,336.39c7.64-8.38,16.14-15.89,23.78-24.27c-8.38-7.63-15.89-16.13-24.27-23.77c-7.64,8.38-16.14,15.89-23.78,24.27
				C337.33,320.25,344.84,328.76,353.22,336.39z M181.86,509.74c7.63-8.38,16.14-15.891,23.77-24.271
				c-8.38-7.64-15.89-16.14-24.27-23.77c-7.63,8.37-16.13,15.88-23.77,24.26C165.97,493.6,173.48,502.1,181.86,509.74z"/>
			<path fill="#00A33D" d="M693.97,344.81c0.061,6.14-1.14,12.9,1.98,18.82c-2.57,4.15-6.51,7.5-9.91,10.9
				c-24.37,24.37-50.37,48.88-75.28,73.79C568.15,490.94,525.49,533.1,482.49,576.1C443.44,615.15,405.6,653.48,365.6,693.48
				c-2.71,2.71-9.189,10.85-10.399,10.899c-1.15,0.05-8.63-8.14-10.89-10.399c-24.74-24.74-49.64-51.131-73.8-75.28
				c-71.04-71.04-141.96-141.97-212.96-212.97c-14.07-14.07-29.16-27.61-42.1-43.091c2.22-13.14,1.33-26.07,2.47-38.63
				c8.1-88.79,43.99-150.05,90.64-201.08c52.51-57.44,126.02-99.6,226.34-106.98c56.73-4.17,111.4,8.5,152.541,25.76
				c41.659,17.47,76.88,43.2,105.489,71.81c52.38,52.37,90.03,114.91,99.551,210.49C693.16,330.84,693.9,337.78,693.97,344.81z
				 M564.7,485.47c-69.271-70.89-138.98-141.35-210.49-210c-70.07,69.93-141.24,138.76-209.5,210.49
				c52.65,52.31,105.36,104.86,157.5,157c13.16,13.16,27.26,25.87,39.62,39.13c4.15,4.45,7.34,10.43,13.37,12.88
				C424.56,624.65,495.45,555.88,564.7,485.47z"/>
		</g>
	</g>
</g>
</svg>
