<?xml version="1.0" encoding="utf-8"?>
<!-- Generator: Adobe Illustrator 14.0.0, SVG Export Plug-In . SVG Version: 6.00 Build 43363)  -->
<!DOCTYPE svg PUBLIC "-//W3C//DTD SVG 1.0//EN" "http://www.w3.org/TR/2001/REC-SVG-20010904/DTD/svg10.dtd">
<svg version="1.0" xmlns="http://www.w3.org/2000/svg" xmlns:xlink="http://www.w3.org/1999/xlink" x="0px" y="0px" width="576px"
	 height="720px" viewBox="0 0 576 720" enable-background="new 0 0 576 720" xml:space="preserve">
<g id="Layer_1_x23_FFFFFF">
	<g>
		<g>
			<path fill="#FFFFFF" d="M360.198,469.188c23.895,57.346,2.34,134.473-27.542,168.845c-24.604,27.287-55.062,50.849-96.198,60.273
				c0.188-2.195,1.508-3.271,1.597-5.588c-4.746,0.743-7.396,6.963-14.37,6.786c2.195-3.271,8.593-4.413,7.584-9.58
				c-4.225,0.665-11.72,9.668-16.366,2.794c3.171-2.572,8.127-5.411,7.185-10.777c-5.377,2.173-11.443,10.645-16.765,3.593
				c3.592-1.785,8.859-3.814,6.786-9.979c-4.834,3.803-13.316,8.826-18.361,1.597c4.202-2.528,11.043-6.397,7.983-13.571
				c-4.823,5.987-12.984,15.068-19.559,5.188c3.503-3.115,10.145-8.216,6.786-14.369c-5.71,1.475-6.176,8.205-9.979,11.575
				c-4.014-1.43-6.841-4.069-10.378-5.987c1.885-5.977,8.859-8.948,7.584-16.765c-6.464,2.051-10.4,6.631-11.176,14.37
				c-3.393-1.397-5.777-3.804-8.382-5.987c1.264-7.374,8.826-8.461,7.584-18.362c-6.808,2.518-11.698,6.941-11.975,15.967
				c-16.665-3.803-6.819-13.737-4.391-24.748c-6.309,2.351-10.888,6.409-10.777,15.168c-3.748-0.798-8.394-4.091-11.975-6.387
				c-1.219-8.038,9.225-9.879,7.983-17.962c-7.362,1.508-11.708,7.872-11.176,15.967c-4.313-2.739-10.001-4.103-13.572-7.584
				c0.743-6.964,3.98-11.443,7.185-15.967c-7.95-4.059-11.321,6.397-10.777,14.769c-3.337-2.25-7.828-3.337-10.777-5.987
				c0.909-7.195,3.98-12.252,7.584-16.765c-7.983-2.672-12.507,6.364-10.777,14.77c-3.326-0.799-6.287-1.963-8.782-3.593
				c-0.133-7.318,3.049-11.32,5.588-15.967c-7.717-2.728-10.988,6.941-9.979,14.37c-3.149-0.843-5.377-2.605-8.382-3.593
				c0.477-7.229,3.016-12.407,6.387-16.765c-8.36-3.459-11.643,8.893-8.383,15.967c-3.77-0.344-6.009-2.229-9.181-3.193
				c-1.641-7.584,3.171-11.908,4.391-17.963c-7.928-1.386-9.735,10.39-7.584,16.766c-3.149-0.71-6.752-0.965-8.382-3.193
				c-0.632-6.231,3.937-10.678,5.189-16.366c-7.185,1.331-9.425,7.617-8.782,16.765c-1.83,0.544-5.111,0.056-7.185-0.398
				c-1.929-6.997,2.506-11.044,3.593-16.366c-7.795-1.763-9.569,9.48-6.786,15.967c-3.138-2.972-4.069-9.17-2.794-14.37
				c-0.843-1.485-2.362,0.045-4.391-0.398C2.118,513.35,28.828,434.815,69.21,402.128c0.554,0.51,0.166,1.963,1.197,1.996
				c4.136-2.506,6.231-7.063,11.576-8.383c0.355,1.431-0.455,4.768-1.197,6.387c-8.061-1.153-15.334,7.174-12.773,13.971
				c4.513-3.471,6.487-11.587,12.374-12.374c-0.587,3.282-1.197,6.531-1.996,9.58c-6.63,1.375-14.802,7.085-11.975,13.971
				c4.147-3.183,6.453-10.29,11.975-10.777c0.543,1.12-0.377,3.16,0.399,4.79c4.624-4.68,9.957-8.671,16.366-11.576
				c-5.876-4.557-12.529,2.895-15.567,6.387c-0.066-2.185-0.044-4.291,0.399-5.987c3.858-4.38,10.29-6.198,16.765-7.983
				c-3.304-5.045-10.744,0.233-14.769,0.799c2.96-6.343,11.177-7.44,17.962-9.979c-2.595-4.391-11.21-0.898-13.571,1.197
				c0.388-6.131,9.757-6.73,15.567-8.781c-0.587-2.206-2.594-2.994-5.588-2.794c1.341-2.106,5.067-1.841,7.584-2.794
				c0.432-2.562-2.75-1.509-2.794-3.593c85.321-56.87,226.524-11.498,248.278,73.047c-1.663-2.062-1.974-5.478-4.789-6.387
				c-1.464,3.515,3.691,14.78-0.799,18.761c-0.145-5.444-1.209-9.969-4.79-11.976c0.211,5.699,3.149,19.438-4.391,20.757
				c-0.1-4.956,0.333-10.444-3.193-11.975c-2.129,6.397,1.054,18.084-5.987,19.559c0.077-5.389,0.244-10.889-3.193-12.773
				c-0.953,8.116,0.077,21.61-9.181,21.156c1.752-4.868,2.417-13.517-2.395-15.967c-1.764,10.345-1.176,23.052-11.576,24.748
				c0.644-3.992,2.185-14.203-2.395-16.366c-2.961,8.36-0.322,22.298-11.576,22.354c1.275-4.624,2.894-14.913-1.996-16.765
				c-1.297,6.563-1.386,14.314-3.992,19.559c-3.06,1.342-5.777,3.016-9.58,3.593c1.431-4.269,4.657-17.907-1.996-20.357
				c-1.641,11.687-1.785,26.943-16.366,24.349c2.351-5.499,3.116-15.899-0.399-20.756c-5.544,3.902-2.828,16.077-5.588,22.752
				c-3.327,2.384-8.061,1.164-13.572,1.597c3.127-5.755,4.679-16.543,0.399-22.354c-5.866,3.859-2.273,17.153-6.387,22.753
				c-2.982-0.1-8.604,1.053-12.374,0c2.838-5.622,6.187-16.166,1.597-22.354c-6.508,3.604-1.719,18.517-7.584,22.752
				c-4.036-1.286-9.303-1.341-12.773-3.192c0.377-7.107,7.618-12.818,5.189-22.753c-7.551,2.806-10.378,13.316-9.979,21.555
				c-4.535,0.255-10.456-1.485-15.168-2.395c-1.829-9.514,8.028-14.725,5.588-23.551c-7.019,3.271-10.799,11.32-9.58,21.555
				c-4.291-1.696-8.948-3.016-12.773-5.189c-0.499-8.149,8.05-12.64,5.987-22.353c-7.373,2.539-10.744,12.229-9.181,21.155
				c-4.113-1.342-7.905-3.005-11.176-5.188c1.208-8.904,10.123-12.208,9.58-21.555c-8.482,2.428-12.241,9.591-12.374,20.356
				c-3.426-2.284-8.094-3.348-10.777-6.386c1.309-8.538,9.159-12.651,9.58-20.757c-8.394,0.41-11.797,9.225-12.773,18.361
				c-3.991-1.187-7.207-3.171-9.979-5.588c0.965-9.536,6.631-14.381,9.979-21.555c-8.67-1.187-14.037,10.212-12.374,19.559
				c-4.746-1.907-7.961-5.345-10.777-9.181c2.395-7.973,6.975-13.782,11.975-19.16c-8.083-2.506-14.581,6.631-14.769,15.967
				c-3.238-1.021-4.724-3.792-6.786-5.987c0.499-9.214,6.752-12.674,10.378-18.761c-7.75-1.818-12.108,6.476-12.773,14.37
				c-12.518-8.449,1.164-18.717,7.584-25.147c-8.493-2.827-12.884,5.156-15.168,11.177c-7.784-10.955,5.233-16.81,10.777-22.752
				c-5.91-4.425-11.72,3.604-14.37,7.584c-5.411-1.153-17.097,3.193-15.567,11.575c4.801-2.517,7.462-7.163,13.172-8.781
				c0.887,3.016,3.216,6.563,3.193,9.181c-9.225,0.776-16.665,5.399-15.567,15.168c6.575-3.127,7.861-11.564,16.765-12.374
				c0.133,3.87,1.962,6.021,3.193,8.781c-7.529,1.841-16.222,9.503-11.975,17.963c4.602-5.233,6.863-12.817,13.172-16.366
				c3.016,3.371,4.701,8.083,7.983,11.177c-5.455,3.537-14.813,12.496-8.782,19.958c3.98-13.615,13.827-23.329,21.555-6.785
				c-8.161,1.23-13.105,16.199-7.185,22.752c1.729-8.25,5.3-14.647,8.382-21.555c4.535,1.719,7.551,4.956,11.576,7.185
				c-5.167,4.235-14.747,15.944-7.185,23.95c2.539-7.962,7.54-13.483,8.782-22.753c8.161,4.746,16.31,9.503,25.147,13.572
				c-3.858,4.944-12.463,17.552-4.391,24.349c1.364-8.615,6.575-13.372,7.185-22.752c4.679,1.84,9.891,3.148,13.971,5.588
				c-5.488,3.492-12.307,17.43-5.189,23.551c1.552-8.427,6.431-13.517,6.786-23.151c5.145,1.508,8.382,4.923,15.168,4.79
				c-3.393,4.9-5.588,16.465-5.189,25.146c9.392-1.108,8.726-17.142,6.786-24.748c6.098,1.22,12.241,2.406,17.962,3.992
				c-2.284,5.322-1.863,16.765-4.391,23.151c8.881,0.433,9.214-13.339,7.584-22.354c5.455,1.464,11.742-0.332,17.563,0.799
				c-1.874,7.052-1.286,16.543-3.991,22.752c8.826,0.632,8.903-14.026,7.185-22.752c3.914-0.111,7.75-1.52,13.172-1.198
				c-2.207,7.685,1.585,16.787,0,23.95c8.427-2.206,6.253-16.965,3.193-23.551c5.977-1.342,10.667-3.958,17.164-4.79
				c2.716,6.276,1.463,16.499,0.399,23.551c8.017-1.363,8.549-18.728,2.794-24.349c9.269,0.698,18.905-7.374,29.139-9.58
				c1.563,5.877,2.018,15.334,1.197,21.155c7.518-2.595,6.442-19.126,0-21.953c4.646-1.209,7.44-4.258,11.975-5.589
				c3.238,5.022,4.901,11.598,5.589,19.16c5.644-4.003,2.838-18.883-2.794-20.357c3.759-3.027,7.562-5.999,12.772-7.584
				c1.852,6.265,4.458,11.786,4.79,19.559c5.478-3.914,3.326-19.647-3.193-20.357c1.952-2.694,4.513-4.801,7.584-6.387
				c3.826,3.759,4.547,10.623,6.387,16.366c4.923-5.111,0.255-15.257-3.592-17.962c1.984-1.874,2.971-4.746,5.987-5.589
				c4.18,3.138,5.776,8.859,7.584,14.37c4.9-4.568-0.898-13.749-4.391-16.366c1.319-1.995,2.527-4.113,4.79-5.188
				c3.958,3.637,6.508,8.659,7.982,14.769c4.446-5.178-0.854-14.847-5.987-16.765c0.311-1.275,1.453-1.74,1.996-2.794
				c5.5,2.218,7.151,8.282,9.979,13.172C360.454,472.913,359.301,470.019,360.198,469.188z M278.77,530.658
				c7.241-3.249,7.019-21.854-1.597-23.551C277.229,514.403,279.103,522.53,278.77,530.658z M135.87,494.733
				c-7.928-0.366-14.658,16.022-7.584,21.954C131.291,509.847,134.706,503.415,135.87,494.733z"/>
			<path fill="#FFFFFF" d="M351.417,456.414c1.143-0.078,2.174-0.044,1.996,1.197C352.271,457.689,351.229,457.667,351.417,456.414z
				"/>
			<path fill="#FFFFFF" d="M262.404,696.311c17.463-10.39,34.561-20.136,47.101,0.398
				C294.858,698.351,276.552,698.494,262.404,696.311z"/>
			<path fill="#FFFFFF" d="M215.702,695.911c6.209,0.831,2.539,7.617-2.794,6.785C214.017,700.623,215.48,698.883,215.702,695.911z"
				/>
			<path fill="#FFFFFF" d="M207.719,689.924c2.406,1.064,4.735,2.195,6.387,3.991c-4.091,10.634-22.442,11.487-39.118,9.58
				c-65.352-7.44-113.695-46.846-138.11-95.799c2.75,2.972,4.302,7.141,9.58,7.584c-1.563-4.59-12.695-20.202,2.794-15.168
				c-3.648,8.394-0.056,18.494,7.185,20.756c-1.108-4.778-5.466-11.797-3.991-19.159c1.718-0.277,4.945,1.098,6.786,1.996
				c-4.502,7.518-0.699,18.738,7.185,20.756c-1.02-5.389-5.688-12.651-4.79-19.958c4.169,1.286,8.67,2.24,11.975,4.391
				c-6.065,2.384-6.619,16.599,0.399,18.361c0.61-3.925-1.275-11.908,0.399-17.562c4.258,0.266,6.043,3.005,9.979,3.592
				c-5.622,4.059-5.987,20.734,2.395,21.954c-0.421-4.502-2.628-13.327-0.798-20.756c4.701,1.02,7.628,3.813,11.576,5.588
				c-4.103,3.715-7.096,18.106,1.198,19.559c-0.333-5.677-0.444-13.017,1.996-17.962c3.881,2.771,9.458,3.848,13.172,6.786
				c-5.91,3.525-7.873,19.791,0,22.752c-0.433-6.774-0.044-15.135,2.395-21.155c5.211,1.441,8.515,4.789,12.773,7.185
				c-3.493,4.712-9.546,16.688-1.597,21.155c0.943-6.741,4.103-13.039,4.391-19.159c4.934,2.117,9.313,4.789,13.571,7.584
				c-3.238,3.637-11.476,13.981-3.592,18.76c0.587-6.863,5.555-9.336,5.987-16.365c4.79,0.677,7.318,3.593,10.777,5.588
				c-2.617,4.402-11.609,14.57-3.592,19.56c1.208-6.498,5-10.423,6.786-16.366c4.169,1.165,6.774,3.881,10.378,5.589
				c-3.126,4.091-11.31,11.687-5.588,17.164c3.371-4.469,6.808-8.882,8.781-14.77c3.127,1.94,6.564,3.56,9.181,5.987
				c-2.539,4.247-5.51,8.062-6.786,13.572c5.478,1.885,8.904-4.835,9.181-10.777c2.95,0.909,4.79,2.927,7.185,4.391
				c-0.898,5.754-2.672,10.644-5.588,14.369c5.61,3.438,10.057-5.466,8.382-11.975c3.26,0.743,4.635,3.349,7.185,4.79
				c-0.621,6.564-4.812,9.558-7.584,13.971C202.541,702.253,207.442,696.344,207.719,689.924z"/>
			<path fill="#FFFFFF" d="M84.378,390.553c0,0.532,0,1.064,0,1.597c-0.931,0-1.863,0-2.794,0
				C82.094,391.195,82.881,390.53,84.378,390.553z"/>
			<path fill="#FFFFFF" d="M36.08,598.915c1.818,0.11,0.311,2.672,0,3.193C35.026,601.687,35.026,599.347,36.08,598.915z"/>
		</g>
	</g>
</g>
<g id="Layer_2_x23_ED1C24">
	<g>
		<g>
			<path fill="none" d="M551.796,66.433c7.229,61.072-16.133,106.454-43.907,141.303c-11.477,14.403-38.608,42.644-27.542,71.45
				c6.431,16.742,36.634,16.055,50.294,5.588c-5.256,49.175-16.909,83.092-43.109,116.556
				c-22.985,29.36-71.86,48.354-66.261,102.584c1.907,18.473,21.066,22.397,39.517,15.567
				c-32.121,69.632-49.873,166.517-158.467,154.476c49.43-35.902,87.072-104.913,68.655-193.194
				c35.626-14.625,71.051-43.32,71.051-93.803c0-18.45-2.272-36.778,3.593-51.093c1.52-3.692,8.482-10.478,6.786-15.567
				c-1.054-3.16-41.202-10.866-45.904-13.571c-24.393-13.993-32.72-52.789-18.361-84.623c3.071-6.819,37.532-43.22,13.572-35.126
				c-20.092,6.797-46.381,33.995-60.273,52.29c-16.632,21.921-25.469,48.919-41.912,70.652
				c-13.793,18.228-71.273,32.487-88.215,9.181c-5.566-7.64-4.734-31.8-17.164-31.534c-15.944,0.344-15.922,40.692-13.971,56.681
				C96.486,354.506,46.879,398.824,20.911,466.792c-3.215-56.215,39.506-74.056,40.315-124.938
				c14.314,2.55,27.376-2.029,35.525-9.181c43.143-37.843,36.202-136.103,88.614-162.858c-10.677,44.141,8.383,76.938,39.517,88.215
				c41.025,14.88,70.197-13.749,86.219-39.916c34.683-56.659,55.473-122.853,120.147-147.69
				c-23.883,37.433,6.265,78.391,49.896,65.462c34.239-10.146,49.341-48.01,70.253-69.853
				C551.741,65.967,551.774,66.189,551.796,66.433z"/>
			<path fill="#ED1C24" d="M563.372,15.34c1.064,0,2.129,0,3.193,0c-0.3,66.594-2.384,157.702-49.496,190.4
				c-2.783,21.621-39.65,37.931-27.144,69.853c11.632,29.705,50.927-16.133,56.682-25.945c1.763-3.005,7.195-20.624,14.769-16.366
				c7.263,4.091-11.154,31.977-12.773,35.126c-6.242,12.097-8.149,27.232-10.378,40.715
				c-10.146,61.404-35.703,97.084-74.244,130.126c-13.283,11.388-42.478,39.728-36.323,65.063c1.862,7.662,11.01,12.02,19.958,9.58
				c9.069-2.473,36.39-32.499,44.307-23.151c8.593,10.167-19.271,30.591-23.151,36.723c-19.437,30.746-26.111,80.542-51.891,107.374
				c-9.059,9.437-21.654,15.202-27.542,25.147c-12.208,20.635-43.498,26.467-75.841,25.945c0.122,10.057,23.806,4.347,23.55,13.173
				c-0.188,6.52-33.807,11.842-43.508,11.975c-28.984,0.433-56.071-17.962-77.438,0.399c-2.262,0-4.524,0-6.786,0
				C94.291,705.236,27.73,649.509,11.332,545.826c0-12.773,0-25.546,0-38.319c3.559-21.888-4.524-62.769,5.189-85.021
				c9.48-21.721,31.068-35.825,33.53-59.874c1.031-10.068-5.2-48.565,5.588-47.899c6.764,0.421,4.702,18.261,14.37,19.958
				c5.278,0.931,9.181-1.064,12.374-3.193c30.802-20.535,36.756-78.757,56.282-114.56c14.979-27.464,36.889-48.875,57.08-71.051
				c1.386-1.519,22.741-22.486,24.748-9.979c1.164,7.274-11.232,11.953-14.37,15.966c-10.512,13.461-20.602,51.813-9.58,72.647
				c14.703,27.797,63.833,35.16,87.417,11.576c21.477-21.477,34.672-54.142,48.299-81.03c13.937-27.509,34.283-52.512,57.479-71.849
				c23.062-19.215,49.763-40.659,83.425-43.908c-11.587,16.51-54.319,36.069-41.912,71.051c4.191,11.82,23.973,17.607,37.122,17.164
				C522.247,125.708,543.524,51.609,563.372,15.34z M507.889,207.736c27.774-34.849,51.137-80.231,43.907-141.303
				c-0.021-0.244-0.055-0.466-0.398-0.399c-20.912,21.843-36.014,59.708-70.253,69.853c-43.631,12.929-73.778-28.03-49.896-65.462
				c-64.675,24.837-85.465,91.031-120.147,147.69c-16.021,26.167-45.194,54.796-86.219,39.916
				c-31.134-11.276-50.194-44.074-39.517-88.215c-52.412,26.755-45.471,125.015-88.614,162.858
				c-8.149,7.152-21.211,11.731-35.525,9.181c-0.809,50.882-43.531,68.723-40.315,124.938
				c25.968-67.968,75.575-112.286,159.266-122.542c-1.951-15.988-1.974-56.337,13.971-56.681
				c12.43-0.266,11.598,23.894,17.164,31.534c16.942,23.307,74.421,9.047,88.215-9.181c16.443-21.732,25.28-48.731,41.912-70.652
				c13.893-18.295,40.182-45.493,60.273-52.29c23.96-8.094-10.501,28.307-13.572,35.126c-14.358,31.833-6.031,70.63,18.361,84.623
				c4.702,2.706,44.851,10.412,45.904,13.571c1.696,5.089-5.267,11.875-6.786,15.567c-5.865,14.314-3.593,32.643-3.593,51.093
				c0,50.482-35.425,79.178-71.051,93.803c18.417,88.281-19.226,157.292-68.655,193.194
				c108.594,12.041,126.346-84.844,158.467-154.476c-18.45,6.83-37.609,2.905-39.517-15.567
				c-5.6-54.23,43.275-73.224,66.261-102.584c26.2-33.464,37.854-67.381,43.109-116.556c-13.66,10.467-43.863,11.154-50.294-5.588
				C469.28,250.38,496.412,222.14,507.889,207.736z M332.656,638.032c29.882-34.372,51.437-111.499,27.542-168.845
				c-0.897,0.831,0.256,3.726-1.597,3.592c-2.827-4.89-4.479-10.954-9.979-13.172c-0.543,1.054-1.686,1.519-1.996,2.794
				c5.134,1.918,10.434,11.587,5.987,16.765c-1.475-6.109-4.024-11.132-7.982-14.769c-2.263,1.075-3.471,3.193-4.79,5.188
				c3.492,2.617,9.291,11.798,4.391,16.366c-1.808-5.511-3.404-11.232-7.584-14.37c-3.017,0.843-4.003,3.715-5.987,5.589
				c3.847,2.705,8.515,12.851,3.592,17.962c-1.84-5.743-2.561-12.607-6.387-16.366c-3.071,1.586-5.632,3.692-7.584,6.387
				c6.52,0.71,8.671,16.443,3.193,20.357c-0.332-7.772-2.938-13.294-4.79-19.559c-5.211,1.585-9.014,4.557-12.772,7.584
				c5.632,1.475,8.438,16.354,2.794,20.357c-0.688-7.562-2.351-14.138-5.589-19.16c-4.534,1.331-7.329,4.38-11.975,5.589
				c6.442,2.827,7.518,19.358,0,21.953c0.82-5.821,0.366-15.278-1.197-21.155c-10.234,2.206-19.87,10.278-29.139,9.58
				c5.754,5.621,5.222,22.985-2.794,24.349c1.064-7.052,2.317-17.274-0.399-23.551c-6.498,0.832-11.188,3.448-17.164,4.79
				c3.06,6.586,5.233,21.345-3.193,23.551c1.585-7.163-2.207-16.266,0-23.95c-5.422-0.321-9.258,1.087-13.172,1.198
				c1.719,8.726,1.641,23.384-7.185,22.752c2.705-6.209,2.118-15.7,3.991-22.752c-5.821-1.131-12.108,0.665-17.563-0.799
				c1.63,9.015,1.297,22.786-7.584,22.354c2.528-6.387,2.106-17.829,4.391-23.151c-5.721-1.586-11.864-2.772-17.962-3.992
				c1.94,7.606,2.605,23.64-6.786,24.748c-0.399-8.682,1.796-20.246,5.189-25.146c-6.786,0.133-10.023-3.282-15.168-4.79
				c-0.354,9.635-5.233,14.725-6.786,23.151c-7.118-6.121-0.299-20.059,5.189-23.551c-4.08-2.439-9.292-3.748-13.971-5.588
				c-0.61,9.38-5.821,14.137-7.185,22.752c-8.072-6.797,0.532-19.404,4.391-24.349c-8.837-4.069-16.986-8.826-25.147-13.572
				c-1.242,9.27-6.243,14.791-8.782,22.753c-7.562-8.006,2.018-19.715,7.185-23.95c-4.025-2.229-7.041-5.466-11.576-7.185
				c-3.083,6.907-6.653,13.305-8.382,21.555c-5.921-6.553-0.976-21.521,7.185-22.752c-7.728-16.544-17.574-6.83-21.555,6.785
				c-6.032-7.462,3.327-16.421,8.782-19.958c-3.282-3.094-4.967-7.806-7.983-11.177c-6.309,3.549-8.571,11.133-13.172,16.366
				c-4.247-8.46,4.446-16.122,11.975-17.963c-1.231-2.761-3.061-4.911-3.193-8.781c-8.904,0.81-10.19,9.247-16.765,12.374
				c-1.098-9.769,6.342-14.392,15.567-15.168c0.022-2.617-2.306-6.165-3.193-9.181c-5.71,1.618-8.371,6.265-13.172,8.781
				c-1.53-8.382,10.156-12.729,15.567-11.575c2.65-3.98,8.46-12.009,14.37-7.584c-5.544,5.942-18.561,11.797-10.777,22.752
				c2.284-6.021,6.675-14.004,15.168-11.177c-6.42,6.431-20.102,16.698-7.584,25.147c0.665-7.895,5.023-16.188,12.773-14.37
				c-3.625,6.087-9.879,9.547-10.378,18.761c2.062,2.195,3.548,4.967,6.786,5.987c0.188-9.336,6.686-18.473,14.769-15.967
				c-5,5.378-9.58,11.188-11.975,19.16c2.816,3.836,6.032,7.273,10.777,9.181c-1.663-9.347,3.704-20.745,12.374-19.559
				c-3.348,7.174-9.014,12.019-9.979,21.555c2.772,2.417,5.988,4.401,9.979,5.588c0.976-9.137,4.38-17.951,12.773-18.361
				c-0.421,8.105-8.271,12.219-9.58,20.757c2.684,3.038,7.352,4.102,10.777,6.386c0.133-10.766,3.892-17.929,12.374-20.356
				c0.543,9.347-8.371,12.65-9.58,21.555c3.271,2.184,7.063,3.847,11.176,5.188c-1.563-8.926,1.808-18.616,9.181-21.155
				c2.062,9.713-6.486,14.203-5.987,22.353c3.825,2.174,8.482,3.493,12.773,5.189c-1.22-10.234,2.561-18.283,9.58-21.555
				c2.439,8.826-7.417,14.037-5.588,23.551c4.712,0.909,10.633,2.649,15.168,2.395c-0.399-8.238,2.428-18.749,9.979-21.555
				c2.428,9.935-4.812,15.646-5.189,22.753c3.471,1.852,8.737,1.906,12.773,3.192c5.865-4.235,1.076-19.148,7.584-22.752
				c4.59,6.188,1.242,16.731-1.597,22.354c3.77,1.053,9.392-0.1,12.374,0c4.114-5.6,0.521-18.894,6.387-22.753
				c4.28,5.811,2.728,16.599-0.399,22.354c5.511-0.433,10.245,0.787,13.572-1.597c2.761-6.675,0.044-18.85,5.588-22.752
				c3.515,4.856,2.75,15.257,0.399,20.756c14.581,2.595,14.725-12.662,16.366-24.349c6.653,2.45,3.426,16.089,1.996,20.357
				c3.803-0.577,6.52-2.251,9.58-3.593c2.605-5.244,2.694-12.995,3.992-19.559c4.89,1.852,3.271,12.141,1.996,16.765
				c11.254-0.056,8.615-13.993,11.576-22.354c4.579,2.163,3.038,12.374,2.395,16.366c10.4-1.696,9.812-14.403,11.576-24.748
				c4.812,2.45,4.146,11.099,2.395,15.967c9.258,0.454,8.228-13.04,9.181-21.156c3.438,1.885,3.271,7.385,3.193,12.773
				c7.041-1.475,3.858-13.161,5.987-19.559c3.526,1.53,3.094,7.019,3.193,11.975c7.54-1.319,4.602-15.058,4.391-20.757
				c3.581,2.007,4.646,6.531,4.79,11.976c4.49-3.98-0.665-15.246,0.799-18.761c2.815,0.909,3.126,4.324,4.789,6.387
				c-21.754-84.545-162.958-129.917-248.278-73.047c0.044,2.084,3.227,1.031,2.794,3.593c-2.517,0.953-6.243,0.688-7.584,2.794
				c2.994-0.2,5,0.588,5.588,2.794c-5.81,2.051-15.179,2.65-15.567,8.781c2.361-2.096,10.977-5.588,13.571-1.197
				c-6.786,2.539-15.002,3.637-17.962,9.979c4.025-0.565,11.465-5.844,14.769-0.799c-6.475,1.785-12.906,3.604-16.765,7.983
				c-0.443,1.696-0.466,3.803-0.399,5.987c3.038-3.492,9.691-10.943,15.567-6.387c-6.409,2.905-11.742,6.896-16.366,11.576
				c-0.776-1.63,0.145-3.67-0.399-4.79c-5.522,0.487-7.828,7.595-11.975,10.777c-2.827-6.886,5.345-12.596,11.975-13.971
				c0.798-3.049,1.408-6.298,1.996-9.58c-5.887,0.787-7.861,8.903-12.374,12.374c-2.561-6.797,4.712-15.124,12.773-13.971
				c0.743-1.619,1.552-4.956,1.197-6.387c-5.344,1.319-7.44,5.877-11.576,8.383c-1.031-0.033-0.643-1.486-1.197-1.996
				C28.828,434.815,2.118,513.35,25.302,582.15c2.029,0.443,3.548-1.087,4.391,0.398c-1.275,5.2-0.344,11.398,2.794,14.37
				c-2.783-6.486-1.009-17.729,6.786-15.967c-1.087,5.322-5.522,9.369-3.593,16.366c2.074,0.454,5.355,0.942,7.185,0.398
				c-0.643-9.147,1.597-15.434,8.782-16.765c-1.253,5.688-5.821,10.135-5.189,16.366c1.63,2.229,5.233,2.483,8.382,3.193
				c-2.151-6.376-0.343-18.151,7.584-16.766c-1.22,6.055-6.032,10.379-4.391,17.963c3.171,0.965,5.411,2.85,9.181,3.193
				c-3.26-7.074,0.022-19.426,8.383-15.967c-3.371,4.357-5.91,9.536-6.387,16.765c3.005,0.987,5.233,2.75,8.382,3.593
				c-1.009-7.429,2.262-17.098,9.979-14.37c-2.539,4.646-5.721,8.648-5.588,15.967c2.495,1.63,5.456,2.794,8.782,3.593
				c-1.729-8.405,2.794-17.441,10.777-14.77c-3.604,4.513-6.675,9.569-7.584,16.765c2.949,2.65,7.44,3.737,10.777,5.987
				c-0.543-8.371,2.827-18.827,10.777-14.769c-3.205,4.523-6.442,9.003-7.185,15.967c3.57,3.481,9.258,4.845,13.572,7.584
				c-0.532-8.095,3.814-14.459,11.176-15.967c1.242,8.083-9.203,9.924-7.983,17.962c3.582,2.296,8.228,5.589,11.975,6.387
				c-0.111-8.759,4.468-12.817,10.777-15.168c-2.428,11.011-12.274,20.945,4.391,24.748c0.277-9.025,5.167-13.449,11.975-15.967
				c1.242,9.901-6.32,10.988-7.584,18.362c2.605,2.184,4.989,4.59,8.382,5.987c0.776-7.739,4.712-12.319,11.176-14.37
				c1.275,7.816-5.699,10.788-7.584,16.765c3.537,1.918,6.364,4.558,10.378,5.987c3.803-3.37,4.269-10.101,9.979-11.575
				c3.359,6.153-3.282,11.254-6.786,14.369c6.575,9.88,14.735,0.799,19.559-5.188c3.061,7.174-3.781,11.043-7.983,13.571
				c5.045,7.229,13.527,2.206,18.361-1.597c2.073,6.165-3.193,8.194-6.786,9.979c5.322,7.052,11.387-1.42,16.765-3.593
				c0.942,5.366-4.014,8.205-7.185,10.777c4.646,6.874,12.141-2.129,16.366-2.794c1.009,5.167-5.389,6.309-7.584,9.58
				c6.974,0.177,9.624-6.043,14.37-6.786c-0.089,2.317-1.408,3.393-1.597,5.588C277.594,688.881,308.053,665.319,332.656,638.032z
				 M353.413,457.611c0.178-1.241-0.854-1.275-1.996-1.197C351.229,457.667,352.271,457.689,353.413,457.611z M309.505,696.709
				c-12.54-20.534-29.638-10.788-47.101-0.398C276.552,698.494,294.858,698.351,309.505,696.709z M212.908,702.696
				c5.333,0.832,9.003-5.954,2.794-6.785C215.48,698.883,214.017,700.623,212.908,702.696z M214.105,693.915
				c-1.652-1.796-3.98-2.927-6.387-3.991c-0.277,6.42-5.178,12.329-11.176,10.378c2.772-4.413,6.963-7.406,7.584-13.971
				c-2.55-1.441-3.925-4.047-7.185-4.79c1.674,6.509-2.772,15.412-8.382,11.975c2.916-3.726,4.69-8.615,5.588-14.369
				c-2.395-1.464-4.235-3.481-7.185-4.391c-0.277,5.942-3.703,12.662-9.181,10.777c1.275-5.511,4.247-9.325,6.786-13.572
				c-2.617-2.428-6.054-4.047-9.181-5.987c-1.974,5.888-5.411,10.301-8.781,14.77c-5.722-5.478,2.461-13.073,5.588-17.164
				c-3.604-1.708-6.209-4.424-10.378-5.589c-1.785,5.943-5.577,9.868-6.786,16.366c-8.017-4.989,0.976-15.157,3.592-19.56
				c-3.459-1.995-5.987-4.911-10.777-5.588c-0.433,7.029-5.4,9.502-5.987,16.365c-7.884-4.778,0.354-15.123,3.592-18.76
				c-4.258-2.795-8.637-5.467-13.571-7.584c-0.289,6.12-3.448,12.418-4.391,19.159c-7.95-4.468-1.896-16.443,1.597-21.155
				c-4.258-2.396-7.562-5.743-12.773-7.185c-2.439,6.021-2.828,14.381-2.395,21.155c-7.873-2.961-5.91-19.227,0-22.752
				c-3.714-2.938-9.292-4.015-13.172-6.786c-2.439,4.945-2.329,12.285-1.996,17.962c-8.294-1.452-5.3-15.844-1.198-19.559
				c-3.947-1.774-6.875-4.568-11.576-5.588c-1.83,7.429,0.377,16.254,0.798,20.756c-8.382-1.22-8.017-17.896-2.395-21.954
				c-3.936-0.587-5.721-3.326-9.979-3.592c-1.674,5.654,0.211,13.638-0.399,17.562c-7.019-1.763-6.464-15.978-0.399-18.361
				c-3.304-2.15-7.806-3.104-11.975-4.391c-0.898,7.307,3.77,14.569,4.79,19.958c-7.883-2.018-11.687-13.238-7.185-20.756
				c-1.841-0.898-5.067-2.273-6.786-1.996c-1.475,7.362,2.883,14.381,3.991,19.159c-7.24-2.262-10.833-12.362-7.185-20.756
				c-15.49-5.034-4.357,10.578-2.794,15.168c-5.278-0.443-6.83-4.612-9.58-7.584c24.415,48.953,72.758,88.358,138.11,95.799
				C191.664,705.402,210.014,704.549,214.105,693.915z M84.378,392.149c0-0.532,0-1.064,0-1.597
				c-1.497-0.022-2.284,0.643-2.794,1.597C82.515,392.149,83.447,392.149,84.378,392.149z M36.08,602.108
				c0.311-0.521,1.818-3.083,0-3.193C35.026,599.347,35.026,601.687,36.08,602.108z"/>
			<path fill="#ED1C24" d="M277.173,507.107c8.615,1.696,8.837,20.302,1.597,23.551C279.103,522.53,277.229,514.403,277.173,507.107
				z"/>
			<path fill="#ED1C24" d="M128.286,516.688c-7.074-5.932-0.344-22.32,7.584-21.954
				C134.706,503.415,131.291,509.847,128.286,516.688z"/>
		</g>
	</g>
</g>
<g id="Layer_3_x23_FFF200">
	<g>
		<g>
			<path fill="none" d="M563.372,15.34c1.064,0,2.129,0,3.193,0c-0.3,66.594-2.384,157.702-49.496,190.4
				c-2.783,21.621-39.65,37.931-27.144,69.853c11.632,29.705,50.927-16.133,56.682-25.945c1.763-3.005,7.195-20.624,14.769-16.366
				c7.263,4.091-11.154,31.977-12.773,35.126c-6.242,12.097-8.149,27.232-10.378,40.715
				c-10.146,61.404-35.703,97.084-74.244,130.126c-13.283,11.388-42.478,39.728-36.323,65.063c1.862,7.662,11.01,12.02,19.958,9.58
				c9.069-2.473,36.39-32.499,44.307-23.151c8.593,10.167-19.271,30.591-23.151,36.723c-19.437,30.746-26.111,80.542-51.891,107.374
				c-9.059,9.437-21.654,15.202-27.542,25.147c-12.208,20.635-43.498,26.467-75.841,25.945c0.122,10.057,23.806,4.347,23.55,13.173
				c-0.188,6.52-33.807,11.842-43.508,11.975c-28.984,0.433-56.071-17.962-77.438,0.399c-2.262,0-4.524,0-6.786,0
				C94.291,705.236,27.73,649.509,11.332,545.826c0-12.773,0-25.546,0-38.319c3.559-21.888-4.524-62.769,5.189-85.021
				c9.48-21.721,31.068-35.825,33.53-59.874c1.031-10.068-5.2-48.565,5.588-47.899c6.764,0.421,4.702,18.261,14.37,19.958
				c5.278,0.931,9.181-1.064,12.374-3.193c30.802-20.535,36.756-78.757,56.282-114.56c14.979-27.464,36.889-48.875,57.08-71.051
				c1.386-1.519,22.741-22.486,24.748-9.979c1.164,7.274-11.232,11.953-14.37,15.966c-10.512,13.461-20.602,51.813-9.58,72.647
				c14.703,27.797,63.833,35.16,87.417,11.576c21.477-21.477,34.672-54.142,48.299-81.03c13.937-27.509,34.283-52.512,57.479-71.849
				c23.062-19.215,49.763-40.659,83.425-43.908c-11.587,16.51-54.319,36.069-41.912,71.051c4.191,11.82,23.973,17.607,37.122,17.164
				C522.247,125.708,543.524,51.609,563.372,15.34z M507.889,207.736c27.774-34.849,51.137-80.231,43.907-141.303
				c-0.021-0.244-0.055-0.466-0.398-0.399c-20.912,21.843-36.014,59.708-70.253,69.853c-43.631,12.929-73.778-28.03-49.896-65.462
				c-64.675,24.837-85.465,91.031-120.147,147.69c-16.021,26.167-45.194,54.796-86.219,39.916
				c-31.134-11.276-50.194-44.074-39.517-88.215c-52.412,26.755-45.471,125.015-88.614,162.858
				c-8.149,7.152-21.211,11.731-35.525,9.181c-0.809,50.882-43.531,68.723-40.315,124.938
				c25.968-67.968,75.575-112.286,159.266-122.542c-1.951-15.988-1.974-56.337,13.971-56.681
				c12.43-0.266,11.598,23.894,17.164,31.534c16.942,23.307,74.421,9.047,88.215-9.181c16.443-21.732,25.28-48.731,41.912-70.652
				c13.893-18.295,40.182-45.493,60.273-52.29c23.96-8.094-10.501,28.307-13.572,35.126c-14.358,31.833-6.031,70.63,18.361,84.623
				c4.702,2.706,44.851,10.412,45.904,13.571c1.696,5.089-5.267,11.875-6.786,15.567c-5.865,14.314-3.593,32.643-3.593,51.093
				c0,50.482-35.425,79.178-71.051,93.803c18.417,88.281-19.226,157.292-68.655,193.194
				c108.594,12.041,126.346-84.844,158.467-154.476c-18.45,6.83-37.609,2.905-39.517-15.567
				c-5.6-54.23,43.275-73.224,66.261-102.584c26.2-33.464,37.854-67.381,43.109-116.556c-13.66,10.467-43.863,11.154-50.294-5.588
				C469.28,250.38,496.412,222.14,507.889,207.736z M332.656,638.032c29.882-34.372,51.437-111.499,27.542-168.845
				c-0.897,0.831,0.256,3.726-1.597,3.592c-2.827-4.89-4.479-10.954-9.979-13.172c-0.543,1.054-1.686,1.519-1.996,2.794
				c5.134,1.918,10.434,11.587,5.987,16.765c-1.475-6.109-4.024-11.132-7.982-14.769c-2.263,1.075-3.471,3.193-4.79,5.188
				c3.492,2.617,9.291,11.798,4.391,16.366c-1.808-5.511-3.404-11.232-7.584-14.37c-3.017,0.843-4.003,3.715-5.987,5.589
				c3.847,2.705,8.515,12.851,3.592,17.962c-1.84-5.743-2.561-12.607-6.387-16.366c-3.071,1.586-5.632,3.692-7.584,6.387
				c6.52,0.71,8.671,16.443,3.193,20.357c-0.332-7.772-2.938-13.294-4.79-19.559c-5.211,1.585-9.014,4.557-12.772,7.584
				c5.632,1.475,8.438,16.354,2.794,20.357c-0.688-7.562-2.351-14.138-5.589-19.16c-4.534,1.331-7.329,4.38-11.975,5.589
				c6.442,2.827,7.518,19.358,0,21.953c0.82-5.821,0.366-15.278-1.197-21.155c-10.234,2.206-19.87,10.278-29.139,9.58
				c5.754,5.621,5.222,22.985-2.794,24.349c1.064-7.052,2.317-17.274-0.399-23.551c-6.498,0.832-11.188,3.448-17.164,4.79
				c3.06,6.586,5.233,21.345-3.193,23.551c1.585-7.163-2.207-16.266,0-23.95c-5.422-0.321-9.258,1.087-13.172,1.198
				c1.719,8.726,1.641,23.384-7.185,22.752c2.705-6.209,2.118-15.7,3.991-22.752c-5.821-1.131-12.108,0.665-17.563-0.799
				c1.63,9.015,1.297,22.786-7.584,22.354c2.528-6.387,2.106-17.829,4.391-23.151c-5.721-1.586-11.864-2.772-17.962-3.992
				c1.94,7.606,2.605,23.64-6.786,24.748c-0.399-8.682,1.796-20.246,5.189-25.146c-6.786,0.133-10.023-3.282-15.168-4.79
				c-0.354,9.635-5.233,14.725-6.786,23.151c-7.118-6.121-0.299-20.059,5.189-23.551c-4.08-2.439-9.292-3.748-13.971-5.588
				c-0.61,9.38-5.821,14.137-7.185,22.752c-8.072-6.797,0.532-19.404,4.391-24.349c-8.837-4.069-16.986-8.826-25.147-13.572
				c-1.242,9.27-6.243,14.791-8.782,22.753c-7.562-8.006,2.018-19.715,7.185-23.95c-4.025-2.229-7.041-5.466-11.576-7.185
				c-3.083,6.907-6.653,13.305-8.382,21.555c-5.921-6.553-0.976-21.521,7.185-22.752c-7.728-16.544-17.574-6.83-21.555,6.785
				c-6.032-7.462,3.327-16.421,8.782-19.958c-3.282-3.094-4.967-7.806-7.983-11.177c-6.309,3.549-8.571,11.133-13.172,16.366
				c-4.247-8.46,4.446-16.122,11.975-17.963c-1.231-2.761-3.061-4.911-3.193-8.781c-8.904,0.81-10.19,9.247-16.765,12.374
				c-1.098-9.769,6.342-14.392,15.567-15.168c0.022-2.617-2.306-6.165-3.193-9.181c-5.71,1.618-8.371,6.265-13.172,8.781
				c-1.53-8.382,10.156-12.729,15.567-11.575c2.65-3.98,8.46-12.009,14.37-7.584c-5.544,5.942-18.561,11.797-10.777,22.752
				c2.284-6.021,6.675-14.004,15.168-11.177c-6.42,6.431-20.102,16.698-7.584,25.147c0.665-7.895,5.023-16.188,12.773-14.37
				c-3.625,6.087-9.879,9.547-10.378,18.761c2.062,2.195,3.548,4.967,6.786,5.987c0.188-9.336,6.686-18.473,14.769-15.967
				c-5,5.378-9.58,11.188-11.975,19.16c2.816,3.836,6.032,7.273,10.777,9.181c-1.663-9.347,3.704-20.745,12.374-19.559
				c-3.348,7.174-9.014,12.019-9.979,21.555c2.772,2.417,5.988,4.401,9.979,5.588c0.976-9.137,4.38-17.951,12.773-18.361
				c-0.421,8.105-8.271,12.219-9.58,20.757c2.684,3.038,7.352,4.102,10.777,6.386c0.133-10.766,3.892-17.929,12.374-20.356
				c0.543,9.347-8.371,12.65-9.58,21.555c3.271,2.184,7.063,3.847,11.176,5.188c-1.563-8.926,1.808-18.616,9.181-21.155
				c2.062,9.713-6.486,14.203-5.987,22.353c3.825,2.174,8.482,3.493,12.773,5.189c-1.22-10.234,2.561-18.283,9.58-21.555
				c2.439,8.826-7.417,14.037-5.588,23.551c4.712,0.909,10.633,2.649,15.168,2.395c-0.399-8.238,2.428-18.749,9.979-21.555
				c2.428,9.935-4.812,15.646-5.189,22.753c3.471,1.852,8.737,1.906,12.773,3.192c5.865-4.235,1.076-19.148,7.584-22.752
				c4.59,6.188,1.242,16.731-1.597,22.354c3.77,1.053,9.392-0.1,12.374,0c4.114-5.6,0.521-18.894,6.387-22.753
				c4.28,5.811,2.728,16.599-0.399,22.354c5.511-0.433,10.245,0.787,13.572-1.597c2.761-6.675,0.044-18.85,5.588-22.752
				c3.515,4.856,2.75,15.257,0.399,20.756c14.581,2.595,14.725-12.662,16.366-24.349c6.653,2.45,3.426,16.089,1.996,20.357
				c3.803-0.577,6.52-2.251,9.58-3.593c2.605-5.244,2.694-12.995,3.992-19.559c4.89,1.852,3.271,12.141,1.996,16.765
				c11.254-0.056,8.615-13.993,11.576-22.354c4.579,2.163,3.038,12.374,2.395,16.366c10.4-1.696,9.812-14.403,11.576-24.748
				c4.812,2.45,4.146,11.099,2.395,15.967c9.258,0.454,8.228-13.04,9.181-21.156c3.438,1.885,3.271,7.385,3.193,12.773
				c7.041-1.475,3.858-13.161,5.987-19.559c3.526,1.53,3.094,7.019,3.193,11.975c7.54-1.319,4.602-15.058,4.391-20.757
				c3.581,2.007,4.646,6.531,4.79,11.976c4.49-3.98-0.665-15.246,0.799-18.761c2.815,0.909,3.126,4.324,4.789,6.387
				c-21.754-84.545-162.958-129.917-248.278-73.047c0.044,2.084,3.227,1.031,2.794,3.593c-2.517,0.953-6.243,0.688-7.584,2.794
				c2.994-0.2,5,0.588,5.588,2.794c-5.81,2.051-15.179,2.65-15.567,8.781c2.361-2.096,10.977-5.588,13.571-1.197
				c-6.786,2.539-15.002,3.637-17.962,9.979c4.025-0.565,11.465-5.844,14.769-0.799c-6.475,1.785-12.906,3.604-16.765,7.983
				c-0.443,1.696-0.466,3.803-0.399,5.987c3.038-3.492,9.691-10.943,15.567-6.387c-6.409,2.905-11.742,6.896-16.366,11.576
				c-0.776-1.63,0.145-3.67-0.399-4.79c-5.522,0.487-7.828,7.595-11.975,10.777c-2.827-6.886,5.345-12.596,11.975-13.971
				c0.798-3.049,1.408-6.298,1.996-9.58c-5.887,0.787-7.861,8.903-12.374,12.374c-2.561-6.797,4.712-15.124,12.773-13.971
				c0.743-1.619,1.552-4.956,1.197-6.387c-5.344,1.319-7.44,5.877-11.576,8.383c-1.031-0.033-0.643-1.486-1.197-1.996
				C28.828,434.815,2.118,513.35,25.302,582.15c2.029,0.443,3.548-1.087,4.391,0.398c-1.275,5.2-0.344,11.398,2.794,14.37
				c-2.783-6.486-1.009-17.729,6.786-15.967c-1.087,5.322-5.522,9.369-3.593,16.366c2.074,0.454,5.355,0.942,7.185,0.398
				c-0.643-9.147,1.597-15.434,8.782-16.765c-1.253,5.688-5.821,10.135-5.189,16.366c1.63,2.229,5.233,2.483,8.382,3.193
				c-2.151-6.376-0.343-18.151,7.584-16.766c-1.22,6.055-6.032,10.379-4.391,17.963c3.171,0.965,5.411,2.85,9.181,3.193
				c-3.26-7.074,0.022-19.426,8.383-15.967c-3.371,4.357-5.91,9.536-6.387,16.765c3.005,0.987,5.233,2.75,8.382,3.593
				c-1.009-7.429,2.262-17.098,9.979-14.37c-2.539,4.646-5.721,8.648-5.588,15.967c2.495,1.63,5.456,2.794,8.782,3.593
				c-1.729-8.405,2.794-17.441,10.777-14.77c-3.604,4.513-6.675,9.569-7.584,16.765c2.949,2.65,7.44,3.737,10.777,5.987
				c-0.543-8.371,2.827-18.827,10.777-14.769c-3.205,4.523-6.442,9.003-7.185,15.967c3.57,3.481,9.258,4.845,13.572,7.584
				c-0.532-8.095,3.814-14.459,11.176-15.967c1.242,8.083-9.203,9.924-7.983,17.962c3.582,2.296,8.228,5.589,11.975,6.387
				c-0.111-8.759,4.468-12.817,10.777-15.168c-2.428,11.011-12.274,20.945,4.391,24.748c0.277-9.025,5.167-13.449,11.975-15.967
				c1.242,9.901-6.32,10.988-7.584,18.362c2.605,2.184,4.989,4.59,8.382,5.987c0.776-7.739,4.712-12.319,11.176-14.37
				c1.275,7.816-5.699,10.788-7.584,16.765c3.537,1.918,6.364,4.558,10.378,5.987c3.803-3.37,4.269-10.101,9.979-11.575
				c3.359,6.153-3.282,11.254-6.786,14.369c6.575,9.88,14.735,0.799,19.559-5.188c3.061,7.174-3.781,11.043-7.983,13.571
				c5.045,7.229,13.527,2.206,18.361-1.597c2.073,6.165-3.193,8.194-6.786,9.979c5.322,7.052,11.387-1.42,16.765-3.593
				c0.942,5.366-4.014,8.205-7.185,10.777c4.646,6.874,12.141-2.129,16.366-2.794c1.009,5.167-5.389,6.309-7.584,9.58
				c6.974,0.177,9.624-6.043,14.37-6.786c-0.089,2.317-1.408,3.393-1.597,5.588C277.594,688.881,308.053,665.319,332.656,638.032z
				 M353.413,457.611c0.178-1.241-0.854-1.275-1.996-1.197C351.229,457.667,352.271,457.689,353.413,457.611z M309.505,696.709
				c-12.54-20.534-29.638-10.788-47.101-0.398C276.552,698.494,294.858,698.351,309.505,696.709z M212.908,702.696
				c5.333,0.832,9.003-5.954,2.794-6.785C215.48,698.883,214.017,700.623,212.908,702.696z M214.105,693.915
				c-1.652-1.796-3.98-2.927-6.387-3.991c-0.277,6.42-5.178,12.329-11.176,10.378c2.772-4.413,6.963-7.406,7.584-13.971
				c-2.55-1.441-3.925-4.047-7.185-4.79c1.674,6.509-2.772,15.412-8.382,11.975c2.916-3.726,4.69-8.615,5.588-14.369
				c-2.395-1.464-4.235-3.481-7.185-4.391c-0.277,5.942-3.703,12.662-9.181,10.777c1.275-5.511,4.247-9.325,6.786-13.572
				c-2.617-2.428-6.054-4.047-9.181-5.987c-1.974,5.888-5.411,10.301-8.781,14.77c-5.722-5.478,2.461-13.073,5.588-17.164
				c-3.604-1.708-6.209-4.424-10.378-5.589c-1.785,5.943-5.577,9.868-6.786,16.366c-8.017-4.989,0.976-15.157,3.592-19.56
				c-3.459-1.995-5.987-4.911-10.777-5.588c-0.433,7.029-5.4,9.502-5.987,16.365c-7.884-4.778,0.354-15.123,3.592-18.76
				c-4.258-2.795-8.637-5.467-13.571-7.584c-0.289,6.12-3.448,12.418-4.391,19.159c-7.95-4.468-1.896-16.443,1.597-21.155
				c-4.258-2.396-7.562-5.743-12.773-7.185c-2.439,6.021-2.828,14.381-2.395,21.155c-7.873-2.961-5.91-19.227,0-22.752
				c-3.714-2.938-9.292-4.015-13.172-6.786c-2.439,4.945-2.329,12.285-1.996,17.962c-8.294-1.452-5.3-15.844-1.198-19.559
				c-3.947-1.774-6.875-4.568-11.576-5.588c-1.83,7.429,0.377,16.254,0.798,20.756c-8.382-1.22-8.017-17.896-2.395-21.954
				c-3.936-0.587-5.721-3.326-9.979-3.592c-1.674,5.654,0.211,13.638-0.399,17.562c-7.019-1.763-6.464-15.978-0.399-18.361
				c-3.304-2.15-7.806-3.104-11.975-4.391c-0.898,7.307,3.77,14.569,4.79,19.958c-7.883-2.018-11.687-13.238-7.185-20.756
				c-1.841-0.898-5.067-2.273-6.786-1.996c-1.475,7.362,2.883,14.381,3.991,19.159c-7.24-2.262-10.833-12.362-7.185-20.756
				c-15.49-5.034-4.357,10.578-2.794,15.168c-5.278-0.443-6.83-4.612-9.58-7.584c24.415,48.953,72.758,88.358,138.11,95.799
				C191.664,705.402,210.014,704.549,214.105,693.915z M84.378,392.149c0-0.532,0-1.064,0-1.597
				c-1.497-0.022-2.284,0.643-2.794,1.597C82.515,392.149,83.447,392.149,84.378,392.149z M36.08,602.108
				c0.311-0.521,1.818-3.083,0-3.193C35.026,599.347,35.026,601.687,36.08,602.108z"/>
			<path fill="none" d="M360.198,469.188c23.895,57.346,2.34,134.473-27.542,168.845c-24.604,27.287-55.062,50.849-96.198,60.273
				c0.188-2.195,1.508-3.271,1.597-5.588c-4.746,0.743-7.396,6.963-14.37,6.786c2.195-3.271,8.593-4.413,7.584-9.58
				c-4.225,0.665-11.72,9.668-16.366,2.794c3.171-2.572,8.127-5.411,7.185-10.777c-5.377,2.173-11.443,10.645-16.765,3.593
				c3.592-1.785,8.859-3.814,6.786-9.979c-4.834,3.803-13.316,8.826-18.361,1.597c4.202-2.528,11.043-6.397,7.983-13.571
				c-4.823,5.987-12.984,15.068-19.559,5.188c3.503-3.115,10.145-8.216,6.786-14.369c-5.71,1.475-6.176,8.205-9.979,11.575
				c-4.014-1.43-6.841-4.069-10.378-5.987c1.885-5.977,8.859-8.948,7.584-16.765c-6.464,2.051-10.4,6.631-11.176,14.37
				c-3.393-1.397-5.777-3.804-8.382-5.987c1.264-7.374,8.826-8.461,7.584-18.362c-6.808,2.518-11.698,6.941-11.975,15.967
				c-16.665-3.803-6.819-13.737-4.391-24.748c-6.309,2.351-10.888,6.409-10.777,15.168c-3.748-0.798-8.394-4.091-11.975-6.387
				c-1.219-8.038,9.225-9.879,7.983-17.962c-7.362,1.508-11.708,7.872-11.176,15.967c-4.313-2.739-10.001-4.103-13.572-7.584
				c0.743-6.964,3.98-11.443,7.185-15.967c-7.95-4.059-11.321,6.397-10.777,14.769c-3.337-2.25-7.828-3.337-10.777-5.987
				c0.909-7.195,3.98-12.252,7.584-16.765c-7.983-2.672-12.507,6.364-10.777,14.77c-3.326-0.799-6.287-1.963-8.782-3.593
				c-0.133-7.318,3.049-11.32,5.588-15.967c-7.717-2.728-10.988,6.941-9.979,14.37c-3.149-0.843-5.377-2.605-8.382-3.593
				c0.477-7.229,3.016-12.407,6.387-16.765c-8.36-3.459-11.643,8.893-8.383,15.967c-3.77-0.344-6.009-2.229-9.181-3.193
				c-1.641-7.584,3.171-11.908,4.391-17.963c-7.928-1.386-9.735,10.39-7.584,16.766c-3.149-0.71-6.752-0.965-8.382-3.193
				c-0.632-6.231,3.937-10.678,5.189-16.366c-7.185,1.331-9.425,7.617-8.782,16.765c-1.83,0.544-5.111,0.056-7.185-0.398
				c-1.929-6.997,2.506-11.044,3.593-16.366c-7.795-1.763-9.569,9.48-6.786,15.967c-3.138-2.972-4.069-9.17-2.794-14.37
				c-0.843-1.485-2.362,0.045-4.391-0.398C2.118,513.35,28.828,434.815,69.21,402.128c0.554,0.51,0.166,1.963,1.197,1.996
				c4.136-2.506,6.231-7.063,11.576-8.383c0.355,1.431-0.455,4.768-1.197,6.387c-8.061-1.153-15.334,7.174-12.773,13.971
				c4.513-3.471,6.487-11.587,12.374-12.374c-0.587,3.282-1.197,6.531-1.996,9.58c-6.63,1.375-14.802,7.085-11.975,13.971
				c4.147-3.183,6.453-10.29,11.975-10.777c0.543,1.12-0.377,3.16,0.399,4.79c4.624-4.68,9.957-8.671,16.366-11.576
				c-5.876-4.557-12.529,2.895-15.567,6.387c-0.066-2.185-0.044-4.291,0.399-5.987c3.858-4.38,10.29-6.198,16.765-7.983
				c-3.304-5.045-10.744,0.233-14.769,0.799c2.96-6.343,11.177-7.44,17.962-9.979c-2.595-4.391-11.21-0.898-13.571,1.197
				c0.388-6.131,9.757-6.73,15.567-8.781c-0.587-2.206-2.594-2.994-5.588-2.794c1.341-2.106,5.067-1.841,7.584-2.794
				c0.432-2.562-2.75-1.509-2.794-3.593c85.321-56.87,226.524-11.498,248.278,73.047c-1.663-2.062-1.974-5.478-4.789-6.387
				c-1.464,3.515,3.691,14.78-0.799,18.761c-0.145-5.444-1.209-9.969-4.79-11.976c0.211,5.699,3.149,19.438-4.391,20.757
				c-0.1-4.956,0.333-10.444-3.193-11.975c-2.129,6.397,1.054,18.084-5.987,19.559c0.077-5.389,0.244-10.889-3.193-12.773
				c-0.953,8.116,0.077,21.61-9.181,21.156c1.752-4.868,2.417-13.517-2.395-15.967c-1.764,10.345-1.176,23.052-11.576,24.748
				c0.644-3.992,2.185-14.203-2.395-16.366c-2.961,8.36-0.322,22.298-11.576,22.354c1.275-4.624,2.894-14.913-1.996-16.765
				c-1.297,6.563-1.386,14.314-3.992,19.559c-3.06,1.342-5.777,3.016-9.58,3.593c1.431-4.269,4.657-17.907-1.996-20.357
				c-1.641,11.687-1.785,26.943-16.366,24.349c2.351-5.499,3.116-15.899-0.399-20.756c-5.544,3.902-2.828,16.077-5.588,22.752
				c-3.327,2.384-8.061,1.164-13.572,1.597c3.127-5.755,4.679-16.543,0.399-22.354c-5.866,3.859-2.273,17.153-6.387,22.753
				c-2.982-0.1-8.604,1.053-12.374,0c2.838-5.622,6.187-16.166,1.597-22.354c-6.508,3.604-1.719,18.517-7.584,22.752
				c-4.036-1.286-9.303-1.341-12.773-3.192c0.377-7.107,7.618-12.818,5.189-22.753c-7.551,2.806-10.378,13.316-9.979,21.555
				c-4.535,0.255-10.456-1.485-15.168-2.395c-1.829-9.514,8.028-14.725,5.588-23.551c-7.019,3.271-10.799,11.32-9.58,21.555
				c-4.291-1.696-8.948-3.016-12.773-5.189c-0.499-8.149,8.05-12.64,5.987-22.353c-7.373,2.539-10.744,12.229-9.181,21.155
				c-4.113-1.342-7.905-3.005-11.176-5.188c1.208-8.904,10.123-12.208,9.58-21.555c-8.482,2.428-12.241,9.591-12.374,20.356
				c-3.426-2.284-8.094-3.348-10.777-6.386c1.309-8.538,9.159-12.651,9.58-20.757c-8.394,0.41-11.797,9.225-12.773,18.361
				c-3.991-1.187-7.207-3.171-9.979-5.588c0.965-9.536,6.631-14.381,9.979-21.555c-8.67-1.187-14.037,10.212-12.374,19.559
				c-4.746-1.907-7.961-5.345-10.777-9.181c2.395-7.973,6.975-13.782,11.975-19.16c-8.083-2.506-14.581,6.631-14.769,15.967
				c-3.238-1.021-4.724-3.792-6.786-5.987c0.499-9.214,6.752-12.674,10.378-18.761c-7.75-1.818-12.108,6.476-12.773,14.37
				c-12.518-8.449,1.164-18.717,7.584-25.147c-8.493-2.827-12.884,5.156-15.168,11.177c-7.784-10.955,5.233-16.81,10.777-22.752
				c-5.91-4.425-11.72,3.604-14.37,7.584c-5.411-1.153-17.097,3.193-15.567,11.575c4.801-2.517,7.462-7.163,13.172-8.781
				c0.887,3.016,3.216,6.563,3.193,9.181c-9.225,0.776-16.665,5.399-15.567,15.168c6.575-3.127,7.861-11.564,16.765-12.374
				c0.133,3.87,1.962,6.021,3.193,8.781c-7.529,1.841-16.222,9.503-11.975,17.963c4.602-5.233,6.863-12.817,13.172-16.366
				c3.016,3.371,4.701,8.083,7.983,11.177c-5.455,3.537-14.813,12.496-8.782,19.958c3.98-13.615,13.827-23.329,21.555-6.785
				c-8.161,1.23-13.105,16.199-7.185,22.752c1.729-8.25,5.3-14.647,8.382-21.555c4.535,1.719,7.551,4.956,11.576,7.185
				c-5.167,4.235-14.747,15.944-7.185,23.95c2.539-7.962,7.54-13.483,8.782-22.753c8.161,4.746,16.31,9.503,25.147,13.572
				c-3.858,4.944-12.463,17.552-4.391,24.349c1.364-8.615,6.575-13.372,7.185-22.752c4.679,1.84,9.891,3.148,13.971,5.588
				c-5.488,3.492-12.307,17.43-5.189,23.551c1.552-8.427,6.431-13.517,6.786-23.151c5.145,1.508,8.382,4.923,15.168,4.79
				c-3.393,4.9-5.588,16.465-5.189,25.146c9.392-1.108,8.726-17.142,6.786-24.748c6.098,1.22,12.241,2.406,17.962,3.992
				c-2.284,5.322-1.863,16.765-4.391,23.151c8.881,0.433,9.214-13.339,7.584-22.354c5.455,1.464,11.742-0.332,17.563,0.799
				c-1.874,7.052-1.286,16.543-3.991,22.752c8.826,0.632,8.903-14.026,7.185-22.752c3.914-0.111,7.75-1.52,13.172-1.198
				c-2.207,7.685,1.585,16.787,0,23.95c8.427-2.206,6.253-16.965,3.193-23.551c5.977-1.342,10.667-3.958,17.164-4.79
				c2.716,6.276,1.463,16.499,0.399,23.551c8.017-1.363,8.549-18.728,2.794-24.349c9.269,0.698,18.905-7.374,29.139-9.58
				c1.563,5.877,2.018,15.334,1.197,21.155c7.518-2.595,6.442-19.126,0-21.953c4.646-1.209,7.44-4.258,11.975-5.589
				c3.238,5.022,4.901,11.598,5.589,19.16c5.644-4.003,2.838-18.883-2.794-20.357c3.759-3.027,7.562-5.999,12.772-7.584
				c1.852,6.265,4.458,11.786,4.79,19.559c5.478-3.914,3.326-19.647-3.193-20.357c1.952-2.694,4.513-4.801,7.584-6.387
				c3.826,3.759,4.547,10.623,6.387,16.366c4.923-5.111,0.255-15.257-3.592-17.962c1.984-1.874,2.971-4.746,5.987-5.589
				c4.18,3.138,5.776,8.859,7.584,14.37c4.9-4.568-0.898-13.749-4.391-16.366c1.319-1.995,2.527-4.113,4.79-5.188
				c3.958,3.637,6.508,8.659,7.982,14.769c4.446-5.178-0.854-14.847-5.987-16.765c0.311-1.275,1.453-1.74,1.996-2.794
				c5.5,2.218,7.151,8.282,9.979,13.172C360.454,472.913,359.301,470.019,360.198,469.188z M278.77,530.658
				c7.241-3.249,7.019-21.854-1.597-23.551C277.229,514.403,279.103,522.53,278.77,530.658z M135.87,494.733
				c-7.928-0.366-14.658,16.022-7.584,21.954C131.291,509.847,134.706,503.415,135.87,494.733z"/>
			<path fill="#FFF200" d="M551.796,66.433c7.229,61.072-16.133,106.454-43.907,141.303c-11.477,14.403-38.608,42.644-27.542,71.45
				c6.431,16.742,36.634,16.055,50.294,5.588c-5.256,49.175-16.909,83.092-43.109,116.556
				c-22.985,29.36-71.86,48.354-66.261,102.584c1.907,18.473,21.066,22.397,39.517,15.567
				c-32.121,69.632-49.873,166.517-158.467,154.476c49.43-35.902,87.072-104.913,68.655-193.194
				c35.626-14.625,71.051-43.32,71.051-93.803c0-18.45-2.272-36.778,3.593-51.093c1.52-3.692,8.482-10.478,6.786-15.567
				c-1.054-3.16-41.202-10.866-45.904-13.571c-24.393-13.993-32.72-52.789-18.361-84.623c3.071-6.819,37.532-43.22,13.572-35.126
				c-20.092,6.797-46.381,33.995-60.273,52.29c-16.632,21.921-25.469,48.919-41.912,70.652
				c-13.793,18.228-71.273,32.487-88.215,9.181c-5.566-7.64-4.734-31.8-17.164-31.534c-15.944,0.344-15.922,40.692-13.971,56.681
				C96.486,354.506,46.879,398.824,20.911,466.792c-3.215-56.215,39.506-74.056,40.315-124.938
				c14.314,2.55,27.376-2.029,35.525-9.181c43.143-37.843,36.202-136.103,88.614-162.858c-10.677,44.141,8.383,76.938,39.517,88.215
				c41.025,14.88,70.197-13.749,86.219-39.916c34.683-56.659,55.473-122.853,120.147-147.69
				c-23.883,37.433,6.265,78.391,49.896,65.462c34.239-10.146,49.341-48.01,70.253-69.853
				C551.741,65.967,551.774,66.189,551.796,66.433z"/>
		</g>
	</g>
</g>
</svg>
