<?xml version="1.0" encoding="utf-8"?>
<!-- Generator: Adobe Illustrator 14.0.0, SVG Export Plug-In . SVG Version: 6.00 Build 43363)  -->
<!DOCTYPE svg PUBLIC "-//W3C//DTD SVG 1.0//EN" "http://www.w3.org/TR/2001/REC-SVG-20010904/DTD/svg10.dtd">
<svg version="1.0" xmlns="http://www.w3.org/2000/svg" xmlns:xlink="http://www.w3.org/1999/xlink" x="0px" y="0px" width="792px"
	 height="792px" viewBox="0 0 792 792" enable-background="new 0 0 792 792" xml:space="preserve">
<g id="Layer_1_x23_000000">
	<g>
		<g>
			<path d="M751.591,25.774c39.477,25.777-12.222,46.222-36.939,57.818c-56.935,26.692-132.049,49.209-181.451,73.862
				c7.741,19.915,42.207,35.975,46.56,72.256c1.959,16.317-3.983,38.786-4.818,59.424c-0.835,20.847,2.955,38.144-11.227,41.757
				c-20.975,5.332-36.248-15.466-46.575-25.697c-16.831,11.194-33.357,26.227-30.515,61.014c2.312,28.122,15.868,53.336,8.03,83.514
				c-2.088,8.047-8.239,19.626-12.849,27.287c-5.043,8.399-15.289,14.566-16.061,22.484c-1.316,13.877,12.833,38.272,16.061,57.818
				c3.421,20.686,4.754,45.756,16.061,54.589c10.166,7.95,35.397,6.971,53,11.243c16.188,3.935,30.836,14.936,43.347,19.272
				c19.24,6.681,51.41,15.032,69.061,14.454c6.648-0.225,13.282-4.786,20.878-4.818c15.258-0.064,30.018,5.477,41.741,11.242
				c-9.748,27.945-8.688,63.006-9.636,96.348c-10.118,10.23-22.517,18.164-43.348,17.666c-7.692-6.762-6.006-22.902-8.03-35.333
				c-3.806-3.55-6.376,10.278-12.848,4.818c-3.662-12.383-6.954-25.151-11.243-36.923c-29.486-5.847-57.897-11.371-89.922-16.061
				c-31.334-4.594-67.872,0.225-94.757-11.242c-16.559-7.083-37.341-37.598-49.771-54.606
				c-21.04-28.748-38.818-52.244-46.576-89.922c-14.695,6.392-34.354,5.477-48.166,14.454
				c-13.186,8.561-20.814,31.189-30.515,46.575c-29.134,46.19-76.593,83.435-104.377,122.044c3.469,15.867,7.677,33.936-1.606,46.56
				c-55.425,5.091-127.938,8.094-157.376-22.485c8.014-16.317,27.014-15.37,41.757-24.074c7.87-4.658,13.137-16.302,22.468-20.879
				c10.6-5.22,26.131-2.586,38.545-8.03c14.775-6.488,25.648-27.318,38.545-44.97c24.573-33.63,47.652-61.238,65.832-101.164
				c9.299-20.43,15.82-41.308,27.303-56.212c10.552-13.684,29.471-26.403,46.576-41.741c12.463-11.194,42.48-32.667,44.953-41.758
				c5.204-19.015-11.467-74.729-6.424-104.377c3.518-20.669,10.68-31.302,12.849-51.394
				c-14.872-27.399-22.437-62.122-25.697-101.165c17.49-10.359,49.964-5.702,62.636-20.879c3.919-6.119-10.648-7.484-6.424-19.272
				c-19.658,2.023-32.33-9.861-30.515-24.075c1.654-12.977,13.458-10.503,20.878-19.272c5.798-20.975,15.723-37.823,35.333-44.969
				c9.636,0,19.272,0,28.908,0c1.253,0,2.506,0,3.759,0c49.948,1.654,61.029,65.526,41.195,107.589
				c18.212,0.53,31.302,6.184,44.969,11.242C603.529,104.68,664.848,52.515,751.591,25.774z M759.621,56.29
				c7.564-10.295-1.831-24.107-12.849-25.697c6.697,6.857-4.271,3.469-3.212,12.848C745.247,51.391,752.683,53.591,759.621,56.29z
				 M705.016,61.107c9.042-0.064,13.86-4.353,17.666-9.636C716.338,54.218,709.175,56.161,705.016,61.107z M713.046,759.643
				c-1.285-36.618,0.562-70.104,9.636-96.348c-15.338-0.048-34.626-11.916-48.165-3.212c6.022,5.22,14.358,8.127,14.454,19.272
				c-1.493,4.385-4.931,6.842-6.424,11.242c5.942,5.686,1.943,10.327,9.636,3.213c2.137,2.666-0.594,10.214,4.818,9.636
				c1.061-6.183-7.468-14.31,1.606-14.454c-0.354,13.282,3.372,23.416-1.606,33.727c1.35-15.241-4.448-16.285-9.636-22.484
				c-2.185,7.452,5.669,32.603-1.606,33.728c0.643,8.447,8.608,9.571,14.454,12.832c-3.035,0.723-9.684-2.185-8.03,3.212
				C694.93,757.378,705.529,761.987,713.046,759.643z M692.183,54.683c10.745-2.634,20.51-6.263,27.287-12.848
				C709.432,45.175,699.924,49.03,692.183,54.683z M705.016,762.854c-4.689-0.819-16.028-0.145-9.62,4.818
				C694.255,761.554,703.747,769.358,705.016,762.854z M685.759,729.144c-0.803-7.773,2.265-19.401-3.212-22.485
				C684.266,717.065,679.849,724.229,685.759,729.144z M669.698,695.416c5.733-3.18,10.183-16.992,1.606-20.878
				c-0.257,1.895,0.272,4.561-1.606,4.817c-1.478-6.022-8.352-6.648-9.636-12.848c0.16-4.128,6.264-2.297,6.424-6.425
				c-63.326-0.369-91.802-35.605-154.165-36.938c-45.596-13.812-28.153-90.678-52.999-125.256
				c15.804-18.261,30.868-36.04,33.727-61.014c3.02-26.355-5.557-47.106-17.409-68.595c2.345,3.822-3.405-12.977-3.469-16.526
				c7.757,0.289,1.638,14.438,9.636,14.455c2.2-8.849,0.707-11.869-1.605-19.256c2.296,0.61,2.714,1.927,4.817,0
				c-4.015-26.468,18.679-33.053,33.728-48.182c-4.192-1.156-4.931-5.782-9.637-6.424c-4.304,18.213-9.379,22.662-27.303,22.485
				c2.538,4.545,8.608-3.63,11.242,1.606c-3.79,6.376-8.672,11.676-12.848,17.667c2.569-6.328-6.938-0.562-6.425-4.818
				c1.51-3.196,13.379,0.498,8.03-4.818c4.834-3.116-5.509,2.811-4.818-3.212c0.482-1.911,6.473-6.071,1.606-8.03
				c-1.028,6.906-9.861-0.53-12.351-0.241c8.384-4.111,13.668-2.056,17.169-11.001c-9.251,2.008-25.713,5.284-33.728,3.212
				c15.097-2.586,26.886-8.464,36.939-16.061c-10.407-1.494-20.767,13.009-28.909,3.212c10.295,2.987,25.151-2.425,22.485-17.667
				c8.736,1.237,8.158-6.826,12.848-9.636c-11.402-16.43-22.228-28.491-33.727-41.757c14.133-1.734,26.5-10.809,30.515-17.65
				c-1.172,4.369,3.196,3.228,3.212,6.424c-4.513,8.672-0.401,17.426-8.03,24.075c4.497-0.851,8.352-2.345,12.849-3.212
				c-1.221,4.674-5.718,6.071-9.636,8.03c16.285,2.12,25.6,1.253,30.515,14.455c-4.079,3.02-0.739,3.421-4.818,6.424
				c24.043,7.917,30.997,37.549,57.817,48.181c-1.927-15.321,1.896-28.363,3.196-36.939c8.143-53.208-13.779-78.568-43.347-105.983
				c0.24-3.999-2.521-4.979-3.213-8.03c-6.713,1.317-10.407,5.653-14.454,9.636c6.135,9.813-32.475,22.437-43.363,20.878
				c1.253,0.354,3.18,0.032,3.212,1.606c-3.212-0.658-11.9-3.983-14.454,0c4.24-0.498,4.144,3.341,4.818,6.424
				c-7.854-2.088-10.648-0.369-17.65-1.606c-2.137-14.085,7.966-22.196,16.044-30.515c-17.409,0.787-32.908,3.485-43.348,11.243
				c-20.316,4.641-31.125,9.09-44.969,19.272c7.275-0.225,8.399-6.585,16.061-6.424c-8.03,8.095-23.882,18.807-35.333,9.636
				c1.253-0.369,3.164-0.048,3.212-1.606c-3.036-0.369-3.533,1.799-6.424,1.606c0.723-1.59-16.735-13.33-16.414-18.309
				c0.112-0.321,0.225-0.643,0.353-0.964c-0.208,0.289-0.321,0.61-0.353,0.964c-8.866,25.536,15.659,42.945,18.02,69.686
				c1.59,17.988-10.809,37.598-12.848,59.424c-2.104,22.549,2.2,56.838,9.636,72.256c-0.498-7.677-3.052-11.74,0-17.667
				c0.369,2.859-1.622,8.046,3.212,6.424c5.011-4.947,6.103-10.15,14.455-14.455c-2.377-18.02,12.206-28.218,19.272-41.741
				c15.531-29.76,20.895-63.856,38.545-93.151c-1.141-3.774-3.694-10.182,3.212-9.62c-4.144,3.983,1.076,5.717,3.212,8.014
				c-11.499,7.372-19.497,39.509-28.908,62.636c-13.572,33.293-31.688,51.715-33.728,80.287c3.822,2.088,6.585,5.204,8.03,9.636
				c-0.514,3.774-2.538,6.039-1.606,11.242c-11.66,5.236-21.505,12.351-27.303,1.606c2.875,10.199-3.678,13.941-1.606,27.303
				c-17.699,12.142-38.336,35.478-56.196,49.787c-7.548,6.022-18.004,8.785-16.061,17.65c-4.915-1.156-5.862,1.654-9.636,1.606
				c-2.763,5.798-10.134,7.002-9.636,16.061c-28.267,45.081-50.302,96.362-80.287,139.71c-15.466,14.519-26.66,33.31-40.151,49.787
				c11.098,9.878,32.153,18.021,33.727,32.121c-4.031-1.863-5.38-6.408-11.243-6.424c-3.79,10.134-1.525,10.246-8.03,16.061
				c6.713,2.762,9.508-0.112,16.061,1.605c-2.778,7.243-4.706,18.053-3.212,20.863c-6.793,1.782-20.911-3.774-22.485,3.212
				c6.842-0.017,9.604-2.345,14.455,1.605c-2.409,0.273-5.926-0.562-6.424,1.606c10.118,0.064,10.969,9.379,24.091,6.424
				c8.962-13.651,4.353-30.691-1.606-44.953c24.396-29.808,53.61-53.305,78.68-81.908c26.5-30.21,38.77-71.887,59.424-86.711
				c14.808-10.632,36.297-11.419,54.589-17.666c11.323,52.389,41.42,85.987,70.667,120.438c6.536-0.354,17.907,1.027,27.286,4.818
				c0.161,7.645-8.014,6.97-11.242,11.242c4.514,4.642,7.469-4.128,12.849,0c-2.763-0.08-4.111,1.236-4.818,3.212
				c12.014-7.806,22.485-9.7,38.546-4.818c-1.896,0.257-4.562-0.272-4.818,1.606c11.74,9.411,31.205,5.026,44.969,9.636
				c0.241-1.895-0.272-4.561,1.606-4.817c0,2.136,0,4.288,0,6.424c6.408,1.59,4.834-4.802,11.242-3.212
				c6.826,14.519,37.373-2.394,46.56,11.242c9.46-10.15,19.706,4.159,27.303,9.636c1.478-9.073,6.665,0.659,6.424-9.636
				c1.253,3.565,0.932,8.705,4.818,9.636c8.576,1.462,13.507-0.723,16.061,6.425c3.951-6.231,5.509-14.84,8.03-22.484
				C661.652,689.008,665.522,688.093,669.698,695.416z M496.262,178.333c4.191-16.703,10.455-28.475,25.696-30.515
				c-8.865-14.133-25.504-9.861-43.363-11.242c-3.774-5.702-3.565-15.659-1.606-19.272c-22.163,2.473-39.509,9.732-52.983,20.878
				c-3.678-1.67-9.685-1.012-12.849-3.212c4.931-6.504-5.011-9.235-8.029-12.849c-0.193,4.063,6.777,9.106,3.212,11.243
				c-3.036-0.723-14.664-0.097-8.03,3.212c-8.271,0.835-17.281,0.932-22.485,4.818c34.241,1.06,78.359-4.192,101.165-3.212
				c-7.741,5.637-13.073,13.684-14.454,25.697c5.638-0.947,5.284,7.597,9.637,3.212c-0.98-14.375,1.22-25.552,12.848-27.303
				c-6.344,7.565-10.615,17.217-9.636,32.121c7.564,0.996,8.11,9.026,14.454,11.242c2.891-6.022-2.505-10.327,3.212-12.848
				C492.809,174.286,493.885,176.968,496.262,178.333z M481.807,78.774c13.475-38.16-42.062-63.76-75.468-44.969
				c6.504,4.08,9.588-6.954,20.878-3.212c-4.127,5.3,5.686,7.388,9.637,9.636c-4.995,4.304,11.451,18.839,4.818,30.515
				c5.926,1.06,10.358,4.609,8.014,9.636c10.424-2.489,9.652,4.24,12.849,1.606c2.858,3.019,5.3,6.472,4.818,12.832
				c-4.545,0.273-6.682,2.955-11.242,3.212c-4.658-3.357-4.995-11.05-9.62-14.438c0.289,7.725,6.359,12.736,3.195,19.256
				c4.771,3.116,7.935-2.136,9.637,3.212c-7.003-0.787-3.405,4.962-9.637,1.606c3.662,12.045,23.271,7.339,32.121,3.212
				C486.946,103.234,485.484,86.772,481.807,78.774z M411.156,56.29c3.839,3.726,19.626-2.747,16.061-6.424
				C421.74,55.856,412.249,53.206,411.156,56.29z M372.612,73.956c10.632-1.285,14.277-26.548,12.848-28.909
				C376.723,50.234,380.706,68.126,372.612,73.956z M330.854,160.667c7.87-0.321,30.129-11.772,32.121-16.061
				C354.046,150.854,327.771,147.689,330.854,160.667z M146.191,722.719c2.811-1.478,5.573-2.987,4.818-8.03
				c-3.758,0-7.5,0-11.242,0C140.762,718.495,141.919,722.157,146.191,722.719z M120.494,764.46c0,0.899,1.301,1.831,1.606,0
				c-5.284-0.626-14.101-2.987-19.272,1.606c5.027,0.337,11.789-1.076,14.455,1.606C117.458,765.713,117.764,763.882,120.494,764.46
				z M86.767,762.854c0.69,8.447,12.318-1.365,14.455,3.212C99.246,759.08,90.525,766.275,86.767,762.854z M80.343,706.658
				c8.48-3.806,15.868,4.851,16.061,1.606c-1.494-1.719-5.926-0.498-4.818-4.818c4.625,0.321,8.159-0.417,9.636-3.212
				C94.171,702.274,85.354,702.563,80.343,706.658z M70.707,719.507c1.959-0.192,3.807-0.481,3.212-3.212
				c-5.525,2.489-10.568,5.477-14.438,9.637c4.288-1.076,10.021-0.675,12.832-3.213C71.06,722.35,70.45,721.37,70.707,719.507z"/>
			<path d="M708.228,687.386c3.63,1.188,0.643,9.01,1.606,12.849C707.874,697.183,705.866,689.956,708.228,687.386z"/>
			<path d="M700.213,685.78c5.269,4.448,5.558,14.695,3.196,22.484C699.956,703.157,703.023,691.529,700.213,685.78z"/>
			<path d="M571.745,276.286c-4.754-3.822-7.645-9.492-11.242-14.454c-2.858,1.172-0.24,2.923,0,4.818
				c-2.328,4.272-2.36-7.115-6.424-6.424C559.202,256.435,569.417,267.501,571.745,276.286z"/>
			<path d="M499.474,199.211c5.315,2.409-3.341,3.919-1.606,8.03c-3.807-1.558-7.886-2.827-6.424-9.636
				C492.343,201.637,498.831,208.318,499.474,199.211z"/>
			<path d="M485.019,144.606c5.959,2.281-6.006,13.169,4.818,11.242c-0.305,4.513-2.794,6.842-8.03,6.424
				C479.992,155.575,481.903,150.243,485.019,144.606z"/>
			<path d="M483.413,98.031c-6.136-2.409-2.441-14.68-8.03-17.651C480.49,77.473,482.706,91.205,483.413,98.031z"/>
			<path d="M478.595,200.818c1.221,6.039-8.528,1.108-6.424,8.03C464.959,206.311,472.492,199.661,478.595,200.818z"/>
			<path d="M456.11,210.454c7.612,0.803,17.104,3.308,24.091,0c-3.373,6.248-18.068,1.205-19.273,9.62
				c-2.473-2.023-5.781-10.198-8.03-3.196c-1.975-6.263-1.445-6.745-3.212-14.454C451.918,205.009,457.331,204.415,456.11,210.454z"
				/>
			<path d="M466.244,312.984c-0.16,0.064-0.337,0.161-0.498,0.241C465.858,313.081,466.02,313,466.244,312.984z"/>
			<path d="M422.399,510.736c4.336,10.118,10.471,18.438,16.061,27.304c-12.688-8.77-11.901-26.661-27.304-24.091
				c2.875,7.837,11.066,10.343,17.667,14.454c-7.741,1.413-24.38-13.041-33.727-1.606c-5.686-0.176,3.405-5.3-1.606-4.817
				c11.339-9.011,26.259-14.423,41.757-19.272C431.457,505.887,428.839,510.223,422.399,510.736z"/>
			<path d="M414.369,348.558c5.283,2.746,2.537,13.507,3.212,20.862c-12.271,0.578-19.963,5.734-30.515,8.03
				c-1.365-6.135-2.714-12.27-3.212-19.272C394.293,355.239,405.102,352.669,414.369,348.558z"/>
			<path d="M387.066,354.966c2.216-4.208,5.894-6.938,12.848-6.408C399.144,354.211,392.35,353.826,387.066,354.966z"/>
			<path d="M393.49,231.316c-2.762,14.92-14.92,34.321-19.272,53C375.31,267.742,385.572,246.429,393.49,231.316z"/>
			<path d="M382.248,205.636c4.336,4.031-10.793,15.226-1.606,19.256c-1.301,6.2-12.864,2.136-14.454,8.03
				C363.618,222.291,377.703,214.485,382.248,205.636z"/>
			<path d="M232.901,595.857c-0.787,8.319-11.387,20.702-17.667,28.893C216.969,617.362,227.923,605.333,232.901,595.857z"/>
		</g>
	</g>
</g>
<g id="Layer_2_x23_FFFFFF">
	<g>
		<g>
			<path fill="#FFFFFF" d="M746.772,30.593c11.018,1.59,20.413,15.402,12.849,25.697c-6.938-2.698-14.374-4.898-16.061-12.849
				C742.501,34.062,753.47,37.45,746.772,30.593z"/>
			<path fill="#FFFFFF" d="M722.682,51.471c-3.806,5.284-8.624,9.572-17.666,9.636C709.175,56.161,716.338,54.218,722.682,51.471z"
				/>
			<path fill="#FFFFFF" d="M722.682,663.295c-9.074,26.243-10.921,59.729-9.636,96.348c-7.517,2.345-18.116-2.265-20.863-9.637
				c-1.653-5.396,4.995-2.489,8.03-3.212c-5.846-3.261-13.812-4.385-14.454-12.832c7.275-1.125-0.578-26.275,1.606-33.728
				c5.188,6.199,10.985,7.243,9.636,22.484c4.979-10.311,1.253-20.444,1.606-33.727c-9.074,0.145-0.546,8.271-1.606,14.454
				c-5.412,0.578-2.682-6.97-4.818-9.636c-7.692,7.114-3.693,2.473-9.636-3.213c1.493-4.4,4.931-6.857,6.424-11.242
				c-0.096-11.146-8.432-14.053-14.454-19.272C688.056,651.379,707.344,663.247,722.682,663.295z M709.834,700.234
				c-0.964-3.839,2.023-11.66-1.606-12.849C705.866,689.956,707.874,697.183,709.834,700.234z M703.409,708.265
				c2.361-7.789,2.072-18.036-3.196-22.484C703.023,691.529,699.956,703.157,703.409,708.265z"/>
			<path fill="#FFFFFF" d="M719.47,41.835c-6.777,6.585-16.542,10.214-27.287,12.848C699.924,49.03,709.432,45.175,719.47,41.835z"
				/>
			<path fill="#FFFFFF" d="M695.396,767.673c-6.408-4.963,4.931-5.638,9.62-4.818C703.747,769.358,694.255,761.554,695.396,767.673z
				"/>
			<path fill="#FFFFFF" d="M682.547,706.658c5.477,3.084,2.409,14.712,3.212,22.485
				C679.849,724.229,684.266,717.065,682.547,706.658z"/>
			<path fill="#FFFFFF" d="M475.64,368.28c11.853,21.489,20.429,42.239,17.409,68.595c-2.858,24.974-17.923,42.753-33.727,61.014
				c24.846,34.578,7.403,111.443,52.999,125.256c62.363,1.333,90.839,36.569,154.165,36.938c-0.16,4.128-6.264,2.297-6.424,6.425
				c1.284,6.199,8.158,6.825,9.636,12.848c1.879-0.257,1.35-2.923,1.606-4.817c8.576,3.886,4.127,17.698-1.606,20.878
				c-4.176-7.323-8.046-6.408-11.242-12.848c-2.521,7.645-4.079,16.253-8.03,22.484c-2.554-7.147-7.484-4.963-16.061-6.425
				c-3.887-0.931-3.565-6.07-4.818-9.636c0.241,10.295-4.946,0.562-6.424,9.636c-7.597-5.477-17.843-19.786-27.303-9.636
				c-9.187-13.636-39.733,3.276-46.56-11.242c-6.408-1.59-4.834,4.802-11.242,3.212c0-2.136,0-4.288,0-6.424
				c-1.879,0.257-1.365,2.923-1.606,4.817c-13.764-4.609-33.229-0.225-44.969-9.636c0.257-1.879,2.923-1.35,4.818-1.606
				c-16.061-4.882-26.532-2.987-38.546,4.818c0.707-1.976,2.056-3.292,4.818-3.212c-5.38-4.128-8.335,4.642-12.849,0
				c3.229-4.272,11.403-3.598,11.242-11.242c-9.379-3.791-20.75-5.172-27.286-4.818c-29.246-34.45-59.344-68.049-70.667-120.438
				c-18.292,6.247-39.782,7.034-54.589,17.666c-20.654,14.824-32.924,56.501-59.424,86.711
				c-25.07,28.604-54.285,52.101-78.68,81.908c5.958,14.262,10.568,31.302,1.606,44.953c-13.122,2.955-13.973-6.359-24.091-6.424
				c0.498-2.168,4.015-1.333,6.424-1.606c-4.85-3.95-7.613-1.622-14.455-1.605c1.574-6.986,15.691-1.43,22.485-3.212
				c-1.494-2.811,0.434-13.62,3.212-20.863c-6.553-1.718-9.347,1.156-16.061-1.605c6.505-5.814,4.24-5.927,8.03-16.061
				c5.862,0.016,7.211,4.561,11.243,6.424c-1.574-14.101-22.629-22.243-33.727-32.121c13.491-16.478,24.685-35.269,40.151-49.787
				c29.985-43.348,52.02-94.629,80.287-139.71c-0.498-9.059,6.874-10.263,9.636-16.061c3.774,0.048,4.722-2.763,9.636-1.606
				c-1.943-8.865,8.512-11.628,16.061-17.65c17.859-14.31,38.497-37.646,56.196-49.787c-2.072-13.362,4.48-17.104,1.606-27.303
				c5.798,10.745,15.643,3.63,27.303-1.606c-0.932-5.204,1.092-7.468,1.606-11.242c-1.445-4.433-4.208-7.548-8.03-9.636
				c2.04-28.572,20.156-46.993,33.728-80.287c9.411-23.127,17.409-55.264,28.908-62.636c-2.136-2.297-7.355-4.031-3.212-8.014
				c-6.906-0.562-4.353,5.846-3.212,9.62c-17.65,29.294-23.015,63.391-38.545,93.151c-7.066,13.523-21.649,23.721-19.272,41.741
				c-8.352,4.304-9.443,9.508-14.455,14.455c-4.834,1.622-2.843-3.565-3.212-6.424c-3.052,5.926-0.498,9.99,0,17.667
				c-7.436-15.418-11.74-49.707-9.636-72.256c2.04-21.826,14.438-41.436,12.848-59.424c-2.361-26.741-26.885-44.15-18.02-69.686
				c-0.321,4.979,17.136,16.719,16.414,18.309c2.891,0.193,3.389-1.975,6.424-1.606c-0.048,1.558-1.959,1.237-3.212,1.606
				c11.451,9.171,27.303-1.542,35.333-9.636c-7.661-0.161-8.785,6.2-16.061,6.424c13.844-10.182,24.652-14.631,44.969-19.272
				c10.439-7.757,25.938-10.456,43.348-11.243c-8.078,8.319-18.181,16.43-16.044,30.515c7.002,1.237,9.797-0.482,17.65,1.606
				c-0.675-3.083-0.578-6.922-4.818-6.424c2.554-3.983,11.242-0.658,14.454,0c-0.032-1.574-1.959-1.252-3.212-1.606
				c10.889,1.558,49.498-11.065,43.363-20.878c4.047-3.983,7.741-8.319,14.454-9.636c0.691,3.051,3.453,4.031,3.213,8.03
				c29.567,27.415,51.489,52.774,43.347,105.983c-1.301,8.576-5.123,21.618-3.196,36.939c-26.82-10.632-33.774-40.264-57.817-48.181
				c4.079-3.003,0.739-3.405,4.818-6.424c-4.915-13.202-14.229-12.334-30.515-14.455c3.918-1.959,8.415-3.356,9.636-8.03
				c-4.497,0.868-8.352,2.361-12.849,3.212c7.629-6.649,3.518-15.402,8.03-24.075c-0.016-3.196-4.384-2.056-3.212-6.424
				c-4.015,6.842-16.382,15.916-30.515,17.65c11.499,13.266,22.324,25.328,33.727,41.757c-4.689,2.811-4.111,10.873-12.848,9.636
				c2.666,15.242-12.19,20.654-22.485,17.667c8.143,9.797,18.502-4.706,28.909-3.212c-10.054,7.597-21.843,13.475-36.939,16.061
				c8.015,2.072,24.477-1.205,33.728-3.212c-3.501,8.946-8.785,6.89-17.169,11.001c-0.225,0.016-0.386,0.097-0.498,0.241
				c0.161-0.081,0.338-0.177,0.498-0.241c2.489-0.289,11.322,7.147,12.351,0.241c4.866,1.959-1.124,6.119-1.606,8.03
				c-0.69,6.022,9.652,0.096,4.818,3.212c5.349,5.316-6.521,1.622-8.03,4.818c-0.514,4.256,8.994-1.51,6.425,4.818
				c4.176-5.99,9.058-11.291,12.848-17.667c-2.634-5.236-8.704,2.939-11.242-1.606c17.924,0.177,22.999-4.272,27.303-22.485
				c4.706,0.643,5.444,5.268,9.637,6.424c-15.049,15.129-37.742,21.714-33.728,48.182c-2.104,1.927-2.521,0.61-4.817,0
				c2.312,7.388,3.806,10.407,1.605,19.256c-7.998-0.016-1.879-14.166-9.636-14.455C472.234,355.303,477.984,372.103,475.64,368.28z
				 M560.503,261.832c3.598,4.962,6.488,10.632,11.242,14.454c-2.328-8.785-12.543-19.851-17.666-16.06
				c4.063-0.691,4.096,10.696,6.424,6.424C560.263,264.754,557.645,263.004,560.503,261.832z M497.867,207.242
				c-1.734-4.111,6.922-5.621,1.606-8.03c-0.643,9.106-7.131,2.425-8.03-1.606C489.981,204.415,494.061,205.684,497.867,207.242z
				 M472.171,208.848c-2.104-6.922,7.645-1.991,6.424-8.03C472.492,199.661,464.959,206.311,472.171,208.848z M480.201,210.454
				c-6.986,3.308-16.479,0.803-24.091,0c1.221-6.039-4.192-5.445-6.425-8.03c1.767,7.709,1.237,8.191,3.212,14.454
				c2.249-7.002,5.558,1.173,8.03,3.196C462.133,211.659,476.828,216.702,480.201,210.454z M438.46,538.04
				c-5.59-8.866-11.725-17.186-16.061-27.304c6.439-0.514,9.058-4.85,12.848-8.029c-15.498,4.85-30.418,10.262-41.757,19.272
				c5.011-0.482-4.08,4.642,1.606,4.817c9.347-11.435,25.986,3.02,33.727,1.606c-6.601-4.111-14.792-6.617-17.667-14.454
				C426.559,511.379,425.771,529.271,438.46,538.04z M417.581,369.42c-0.675-7.355,2.071-18.116-3.212-20.862
				c-9.268,4.111-20.076,6.681-30.515,9.62c0.498,7.002,1.847,13.138,3.212,19.272C397.618,375.154,405.311,369.999,417.581,369.42z
				 M399.914,348.558c-6.954-0.53-10.632,2.2-12.848,6.408C392.35,353.826,399.144,354.211,399.914,348.558z M374.218,284.316
				c4.352-18.678,16.51-38.079,19.272-53C385.572,246.429,375.31,267.742,374.218,284.316z M380.642,224.892
				c-9.187-4.031,5.942-15.225,1.606-19.256c-4.545,8.85-18.63,16.655-16.061,27.287
				C367.777,227.028,379.341,231.092,380.642,224.892z M215.235,624.75c6.28-8.19,16.879-20.573,17.667-28.893
				C227.923,605.333,216.969,617.362,215.235,624.75z"/>
			<path fill="#FFFFFF" d="M521.958,147.818c-15.241,2.04-21.505,13.812-25.696,30.515c-2.377-1.365-3.453-4.047-3.213-8.03
				c-5.717,2.521-0.321,6.826-3.212,12.848c-6.344-2.216-6.89-10.247-14.454-11.242c-0.979-14.904,3.292-24.556,9.636-32.121
				c-11.628,1.751-13.828,12.929-12.848,27.303c-4.353,4.384-3.999-4.16-9.637-3.212c1.381-12.013,6.713-20.06,14.454-25.697
				c-22.806-0.979-66.924,4.272-101.165,3.212c5.204-3.887,14.213-3.983,22.485-4.818c-6.633-3.309,4.994-3.935,8.03-3.212
				c3.565-2.136-3.405-7.179-3.212-11.243c3.019,3.614,12.96,6.344,8.029,12.849c3.164,2.2,9.171,1.542,12.849,3.212
				c13.475-11.146,30.82-18.405,52.983-20.878c-1.959,3.614-2.168,13.571,1.606,19.272
				C496.454,137.957,513.093,133.685,521.958,147.818z M489.837,155.848c-10.824,1.927,1.141-8.961-4.818-11.242
				c-3.115,5.637-5.026,10.969-3.212,17.667C487.043,162.69,489.532,160.361,489.837,155.848z"/>
			<path fill="#FFFFFF" d="M406.339,33.805c33.405-18.791,88.942,6.81,75.468,44.969c3.678,7.998,5.14,24.46,0,32.105
				c-8.85,4.127-28.459,8.833-32.121-3.212c6.231,3.356,2.634-2.393,9.637-1.606c-1.702-5.348-4.866-0.097-9.637-3.212
				c3.164-6.521-2.906-11.531-3.195-19.256c4.625,3.389,4.962,11.082,9.62,14.438c4.561-0.257,6.697-2.939,11.242-3.212
				c0.481-6.36-1.96-9.813-4.818-12.832c-3.196,2.634-2.425-4.096-12.849-1.606c2.345-5.027-2.088-8.576-8.014-9.636
				c6.633-11.676-9.813-26.21-4.818-30.515c-3.951-2.249-13.764-4.336-9.637-9.636C415.927,26.851,412.843,37.884,406.339,33.805z
				 M475.383,80.38c5.589,2.971,1.895,15.242,8.03,17.651C482.706,91.205,480.49,77.473,475.383,80.38z"/>
			<path fill="#FFFFFF" d="M439.006,20.957c-1.253,0-2.506,0-3.759,0C436.517,20.924,437.769,20.924,439.006,20.957z"/>
			<path fill="#FFFFFF" d="M427.217,49.865c3.565,3.678-12.222,10.15-16.061,6.424C412.249,53.206,421.74,55.856,427.217,49.865z"/>
			<path fill="#FFFFFF" d="M385.46,45.047c1.429,2.361-2.216,27.624-12.848,28.909C380.706,68.126,376.723,50.234,385.46,45.047z"/>
			<path fill="#FFFFFF" d="M362.975,144.606c-1.991,4.288-24.251,15.739-32.121,16.061
				C327.771,147.689,354.046,150.854,362.975,144.606z"/>
			<path fill="#FFFFFF" d="M335.672,179.939c-0.128,0.321-0.241,0.643-0.353,0.964C335.351,180.549,335.464,180.228,335.672,179.939
				z"/>
			<path fill="#FFFFFF" d="M151.009,714.688c0.755,5.043-2.007,6.553-4.818,8.03c-4.272-0.562-5.429-4.224-6.424-8.03
				C143.509,714.688,147.251,714.688,151.009,714.688z"/>
			<path fill="#FFFFFF" d="M122.1,764.46c-0.305,1.831-1.606,0.899-1.606,0c-2.73-0.578-3.036,1.253-3.212,3.213
				c-2.666-2.683-9.428-1.27-14.455-1.606C107.999,761.473,116.816,763.834,122.1,764.46z"/>
			<path fill="#FFFFFF" d="M101.222,766.066c-2.136-4.577-13.764,5.235-14.455-3.212C90.525,766.275,99.246,759.08,101.222,766.066z
				"/>
			<path fill="#FFFFFF" d="M96.403,708.265c-0.193,3.244-7.581-5.412-16.061-1.606c5.011-4.095,13.828-4.384,20.879-6.424
				c-1.478,2.795-5.011,3.533-9.636,3.212C90.477,707.767,94.91,706.546,96.403,708.265z"/>
			<path fill="#FFFFFF" d="M73.919,716.295c0.594,2.73-1.253,3.02-3.212,3.212c-0.257,1.863,0.354,2.843,1.606,3.212
				c-2.811,2.538-8.544,2.137-12.832,3.213C63.351,721.771,68.394,718.784,73.919,716.295z"/>
		</g>
	</g>
</g>
</svg>
