<?xml version="1.0" encoding="utf-8"?>
<!-- Generator: Adobe Illustrator 14.0.0, SVG Export Plug-In . SVG Version: 6.00 Build 43363)  -->
<!DOCTYPE svg PUBLIC "-//W3C//DTD SVG 1.0//EN" "http://www.w3.org/TR/2001/REC-SVG-20010904/DTD/svg10.dtd">
<svg version="1.0" xmlns="http://www.w3.org/2000/svg" xmlns:xlink="http://www.w3.org/1999/xlink" x="0px" y="0px" width="432px"
	 height="540px" viewBox="0 0 432 540" enable-background="new 0 0 432 540" xml:space="preserve">
<g id="Layer_1_x23_000000">
	<g>
		<g>
			<path d="M379.825,363.733c0,5.325,0,10.65,0,15.977c-11.877,7.532-28.975-12.754-44.565-11.772
				c-6.728,0.421-12.823,7.603-18.5,6.727c-3.959-0.595-5.676-5.921-9.249-6.727c-7.988-1.787-23.404,5.57-31.953,8.409
				c-21.688,7.252-37.874,12.367-57.18,21.862c-14.084,6.938-26.172,15.906-38.68,5.045c-2.067-1.787-3.679-6.622-6.727-5.045
				c-4.765,31.567-32.548,47.019-49.611,73.155c-11.176,17.098-14.785,34.23-30.271,47.93c-7.848,6.973-12.894,13.664-24.385,15.977
				c-0.28,0-0.561,0-0.841,0C60.049,529.63,54.128,522.097,46,516.771c0-1.962,0-3.924,0-5.886
				c3.994-7.778,20.531-10.336,28.589-16.817c3.329-2.698,6.622-8.584,10.932-13.454c4.134-4.695,9.495-8.689,11.772-12.613
				c6.342-10.932,10.511-28.31,16.817-42.884c2.978-6.938,6.587-13.209,10.09-19.341c3.749-6.552,9.565-12.508,11.772-17.658
				c4.029-9.354,4.379-20.11,7.568-29.431c3.048-8.898,5.991-17.132,10.931-26.066c-9.25-33.775,5.466-69.127,4.205-99.223
				c-0.14-3.434-0.456-8.269-1.682-11.772c-3.118-8.934-15.135-16.187-15.977-24.385c-0.806-7.813,6.657-20.952,5.045-29.43
				c-3.889-1.717-6.447-4.765-8.409-8.409c-4.239,10.371-12.894,18.955-16.817,30.271c-2.453,7.078-1.962,15.276-6.727,21.863
				c31.568-9.32,47.369,28.589,36.158,56.338c-1.507,3.714-2.908,9.284-4.205,10.932c-1.857,2.382-12.613,8.829-15.977,9.249
				c-11.247,1.401-12.578-8.724-27.749-5.045c-4.345-10.161-19.726-14.646-23.544-25.226c-2.067-5.746-1.577-23.37-0.841-33.635
				c1.261-17.343,9.285-23.509,15.136-38.68c4.309-11.142,5.08-23.93,9.25-31.953c3.854-7.428,15.696-18.639,11.772-32.794
				c-1.962-7.042-9.67-7.603-10.931-14.295c-2.908-15.696,7.603-22.318,16.817-30.271c5.326-4.589,12.018-11.527,17.658-12.613
				c13.769-2.663,26.698,2.593,37.839,2.522C166.875,33.622,181.94,4.542,212.492,3c1.962,0,3.924,0,5.886,0c0,0.28,0,0.561,0,0.841
				c26.698,4.169,34.126,35.667,28.59,62.225c-2.348,3.258-5.886,0.666-5.045,7.568c29.57,2.733,67.76,21.232,57.179,58.02
				c-1.506,5.22-6.552,8.339-7.567,12.613c0.175,4.029,2.242,6.166,1.682,10.931c16.643,23.825,25.507,53.746,22.703,89.132
				c-0.455,5.816-3.924,12.087-5.886,18.499c-5.886,19.129-9.985,40.187-15.136,58.02c-10.581,4.135-21.267,5.921-25.226-5.045
				c-4.485,0.98-7.463,0.911-9.25-2.522c3.573-6.236,9.319-10.301,10.091-19.341c3.644-1.997,8.163-3.048,11.771-5.045
				c9.355-15.906,4.485-36.753,3.364-55.497c-0.386-6.342,1.156-13.524,0-19.34c-1.577-7.988-9.25-16.537-13.454-24.385
				c-4.87-9.109-8.094-17.798-12.613-24.385c-6.797,14.47,4.976,35.702-2.522,53.816c4.204,17.378,8.619,36.578,5.045,51.293
				c-5.781,23.685-29.78,40.467-39.521,58.861c-3.049,5.78-4.8,13.033-5.046,20.181c14.506-2.628,29.746-2.733,45.407-4.204
				c14.436-1.367,32.304-0.911,42.885-6.728c11.106-6.062,16.222-18.534,29.431-19.34
				C348.993,335.144,368.229,345.619,379.825,363.733z M374.78,362.893c0-1.121,0-2.242,0-3.364c-2.452-0.245-3.118,3.364-4.204,0
				c0.49-2.382,3.118-4.274-0.841-5.045c-0.631,5.676-5.746,7.183,0.841,10.091C372.117,362.297,371.172,362.156,374.78,362.893z
				 M367.213,351.12c-1.297-1.576-3.259,1.191-5.046-0.841c2.348-2.593-4.59-7.778-5.886-4.204
				c-1.262-0.981-3.749-0.736-3.363-3.364c1.261-0.14,3.118,0.315,3.363-0.841c-2.663-1.261-4.1-3.748-7.568-4.204
				c-1.962,7.147,8.339,8.97,10.091,15.136c-2.103-0.455-5.536-3.924-6.727-2.522c2.838,1.366-2.628,2.663,0,4.204
				c6.166,0,11.142,1.191,13.453,5.045C365.846,356.48,366.617,353.888,367.213,351.12z M341.986,367.097
				c2.103-0.525,5.781,3.854,5.886,0C347.768,365.695,342.092,365.695,341.986,367.097z M345.35,338.507
				c0.981-0.98,0.946-2.978,0.841-5.045c-1.962-0.28-3.223,0.14-4.204,0.841C341.776,337.035,342.968,338.367,345.35,338.507z
				 M340.305,333.462c1.717-0.806,1.822-3.224,1.682-5.886c-2.732-1.191-6.973-0.876-5.886-5.887
				c-10.091,1.401-16.188,6.797-21.863,12.613c5.922-2.487,8.129-8.689,15.977-9.25C333.543,327.891,335.68,331.92,340.305,333.462z
				 M335.26,361.211c2.768-1.121,5.711,1.19,8.408,2.522c-1.752-6.062-5.851-9.846-8.408-15.136c-1.577-0.806-2.804,2.522-3.364,0
				c1.156-1.437,2.733-3.294-0.841-3.363c-1.927,3.679-4.555,12.297,0,15.136c0.701-3.014,2.067-0.105,5.046-0.842
				C336.101,360.37,335.435,360.545,335.26,361.211z M326.01,362.052c0.28-13.734-14.785-12.123-16.817-23.545
				c-3.573,2.593-9.25,3.083-12.613,5.887c8.444,1.366,6.832,12.788,9.25,20.181c0.07-2.487,5.01-2.242,4.204,0.841
				c3.994-0.946,7.322-1.962,10.091,0C320.334,360.86,323.662,363.242,326.01,362.052z M293.216,203.127
				c12.823-0.07,19.095-12.228,10.932-21.863c-3.224,9.67-12.018,13.77-20.182,18.499c3.014-0.07,4.87-1.296,7.568-1.682
				C289.327,201.69,292.655,200.359,293.216,203.127z M299.942,293.1c1.227-4.099,3.469-7.182,3.364-12.612
				c-4.521-1.647-8.515-3.819-14.295-4.205c-1.682,3.645-2.522,8.129-4.204,11.772C290.729,288.86,295.703,290.612,299.942,293.1z
				 M264.626,87.928c6.622,1.366,11.352-0.21,16.817,3.363c-7.077-11.702-24.91-12.648-42.043-14.295
				c0.035-5.29-0.456-11.106,5.045-10.931c7.498-26.522-3.959-57.775-25.226-60.542c-28.064-3.679-48.876,21.372-43.726,55.497
				c1.611,2.348,3.223,4.625,5.045,6.727c-2.382,3.398,0.596,7.463,2.523,9.25c0.841-1.121,0.806-3.118,2.522-3.363
				c-0.14,5.746,5.991,5.22,6.727,10.09c-2.208,1.962-3.188-2.417-5.886-2.522c0.876,6.412,7.077,7.498,9.25,12.613
				c4.205-2.803,8.759,3.434,8.409-1.682c7.848,2.032,11.352-0.806,17.659,1.682c3.398-4.169,7.567-7.567,14.295-8.409
				c1.856-2.347,2.172-6.236,5.045-7.567c1.997,2.487,7.743,1.226,9.249,4.204c-1.226,0.456-4.344-0.981-4.204,0.841
				c2.173,0.771,5.115,2.417,5.887,0c2.452,4.029,7.848,3.469,13.453,2.522C265.432,86.491,264.381,86.561,264.626,87.928z
				 M254.536,281.328c9.915-12.789,6.236-39.066,1.682-55.498c-9.95,9.109-16.467,21.652-36.157,21.021
				c-7.498-4.835-17.729-4.45-26.067-5.886c-0.105,2.137-0.14,4.31-2.522,4.205c0-0.841,0-1.682,0-2.522
				c-17.133,4.029-22.984-11.247-31.953-20.181c3.118,8.935-0.666,20.987,2.522,28.59c-1.332,0.07-2.908-0.105-2.522,1.682
				c-3.574,25.752-8.549,54.061-3.364,81.564c-4.344,6.026-6.412,14.33-9.25,21.862c14.75-2.838,22.108,8.619,30.271,15.136
				c17.623-23.299,41.098-40.747,55.497-67.27c2.979,0.105-1.786,2.768,0.841,2.522c3.294-2.732,5.887-5.991,5.887-9.95
				c0.104,0.981-0.105,2.242,0.841,2.383c3.258-7.673,8.373-13.489,13.454-19.34C253.87,280.312,253.729,281.293,254.536,281.328z
				 M219.22,387.277c0-3.363,0-6.727,0-10.09c-1.402-1.402-1.542-4.029-3.364-5.046c-0.14,4.345,2.242,6.167,2.522,10.091
				C218.203,383.984,218.344,391.902,219.22,387.277z M219.22,329.258c-4.31,7.252-3.364,8.023-10.091,13.453
				c-0.14-1.121,3.434-2.522,0.841-3.363c-7.743,7.428-15.696,15.065-21.863,21.863c0.946,1.576,2.102,2.942,2.523,5.045
				c-1.367,1.717-2.803,3.363-5.886,3.363c-0.14-1.261,0.315-3.118-0.841-3.363c-9.39,4.31-8.409,23.965-20.181,26.066
				c-6.692,1.191-17.027-2.487-22.704-6.727c-1.822-0.7,0.315-5.36-1.682-5.886c-6.376,20.146,23.965,18.254,32.794,10.09
				c-0.876,2.138,2.838,3.714,3.364,1.682c-0.771-0.91-3.083-0.245-2.523-2.522c7.078,0.911,5.711-6.621,11.772-6.727
				c2.908,0.735,3.434,3.854,6.727,4.204c-2.768,1.997-8.094,1.437-9.25,5.045c2.733,0.981,5.186-2.558,6.727,0
				c-2.102-0.14-2.627,1.297-3.363,2.523c13.419-3.398,24.771-8.864,27.749-22.704c0.841,0,1.016,0.666,1.682,0.841
				C212.212,360.545,216.626,338.156,219.22,329.258z M191.471,107.268c0.42,3.224,3.013,4.274,6.727,4.205
				C197.497,108.529,194.063,108.319,191.471,107.268z M124.201,75.314c12.929-2.032,34.826,0.315,52.134-5.045
				C161.584,64.418,131.488,61.51,124.201,75.314z M134.292,252.738c0-1.682,2.277-1.051,1.682-3.363
				c-0.981-0.981-2.978-0.946-5.045-0.841C130.718,251.267,131.944,252.598,134.292,252.738z M104.861,498.272
				c6.937-1.752,5.641-11.737,10.09-15.977c-8.549-0.701-15.101-3.363-15.136-12.613c-8.654,5.291-9.74,11.598-17.658,20.181
				c-8.549,9.25-31.252,14.82-34.476,24.386c7.533,1.892,15.346,10.336,26.908,10.932c3.258-2.208,7.112-3.364,10.932-6.728
				c0.455,1.962-4.274,2.908-1.682,4.204c4.45-4.239,6.552-10.826,13.454-12.612c0.806-9.04-7.918-2.418-10.09-3.364
				c-0.14-2.662,4.695-0.35,3.363-4.204c2.733-0.07,5.186-0.42,6.727-1.682c-1.542-1.086-5.22-4.8-1.682-5.886
				c2.417,1.787,2.593,5.815,5.045,7.567c2.663,0.141,2.803-2.242,5.886-1.682C106.788,499.148,105.421,499.113,104.861,498.272z
				 M101.498,249.375c0.21-11.457-17.448-14.47-21.863-5.045c0.596,4.169-0.21,9.74,2.522,11.772
				C83.769,247.062,92.843,247.483,101.498,249.375z"/>
			<path d="M242.764,252.738c4.38-0.525,6.727,1.857,10.091,0c-2.173,3.153-4.976,5.676-5.887,10.09
				C243.814,259.36,245.741,255.961,242.764,252.738z"/>
			<path d="M239.4,49.248c1.856,3.644,0.104,7.708-0.841,10.931c-1.997,2.067-1.577-1.261-4.205-0.841
				c-1.821,0.701-1.366,3.679-2.522,5.045c-13.104-1.752-25.997-3.714-39.521-5.045c-0.175-4.59-2.417-7.112-5.886-8.409
				c0.21-2.593,0.841-4.765,1.682-6.727C206.571,41.82,225.456,44.518,239.4,49.248z"/>
			<path d="M236.037,71.11c3.433,2.172-1.227,5.22,0,10.09c-2.733,1.752-4.94,4.029-10.091,3.363
				C226.857,77.627,233.374,76.295,236.037,71.11z"/>
			<path d="M204.924,64.383c6.167-1.296,14.68,2.032,22.704,1.682c-0.49,8.199-2.452,14.925-7.567,18.499
				c-5.571-0.035-9.881-1.331-14.295-2.522C205.835,75.805,205.94,69.534,204.924,64.383z"/>
			<path d="M208.288,245.17c0,1.682,0,3.363,0,5.045c-2.593,0.07-2.523-2.523-2.523-5.045
				C206.606,245.17,207.447,245.17,208.288,245.17z"/>
			<path d="M203.243,253.579c0.841,2.522-1.857,1.506-3.363,1.682c0-1.401,0-2.803,0-4.204
				C200.405,252.493,202.437,252.458,203.243,253.579z"/>
			<path d="M201.561,62.702c2.347,4.239,2.102,15.101,1.682,19.34c-8.444-0.245-11.037-6.341-14.295-11.772
				C190.875,64.418,192.802,59.829,201.561,62.702z"/>
			<path d="M181.38,65.224c2.277,0.07,4.029,1.927,2.523,3.363C181.695,68.833,181.135,67.432,181.38,65.224z"/>
			<path d="M180.539,277.123c2.348-0.91-2.312,3.925-1.682,6.728c-5.571-2.487,2.208-3.328-2.522-5.886
				C177.561,277.509,180.679,278.945,180.539,277.123z"/>
			<path d="M203.243,338.507c-8.023,9.915-17.062,18.814-26.067,27.749c-1.051-4.31-2.978-2.593-5.045-5.886
				C190.524,361.105,190.419,343.342,203.243,338.507z"/>
			<path d="M172.971,283.01c2.558,0.455,5.396,3.434,3.364,5.886C175.284,286.863,172.656,286.408,172.971,283.01z"/>
		</g>
	</g>
</g>
<g id="Layer_2_x23_FFFFFF">
	<g>
		<g>
			<path fill="none" d="M379.825,363.733c0,5.325,0,10.65,0,15.977c-11.877,7.532-28.975-12.754-44.565-11.772
				c-6.728,0.421-12.823,7.603-18.5,6.727c-3.959-0.595-5.676-5.921-9.249-6.727c-7.988-1.787-23.404,5.57-31.953,8.409
				c-21.688,7.252-37.874,12.367-57.18,21.862c-14.084,6.938-26.172,15.906-38.68,5.045c-2.067-1.787-3.679-6.622-6.727-5.045
				c-4.765,31.567-32.548,47.019-49.611,73.155c-11.176,17.098-14.785,34.23-30.271,47.93c-7.848,6.973-12.894,13.664-24.385,15.977
				c-0.28,0-0.561,0-0.841,0C60.049,529.63,54.128,522.097,46,516.771c0-1.962,0-3.924,0-5.886
				c3.994-7.778,20.531-10.336,28.589-16.817c3.329-2.698,6.622-8.584,10.932-13.454c4.134-4.695,9.495-8.689,11.772-12.613
				c6.342-10.932,10.511-28.31,16.817-42.884c2.978-6.938,6.587-13.209,10.09-19.341c3.749-6.552,9.565-12.508,11.772-17.658
				c4.029-9.354,4.379-20.11,7.568-29.431c3.048-8.898,5.991-17.132,10.931-26.066c-9.25-33.775,5.466-69.127,4.205-99.223
				c-0.14-3.434-0.456-8.269-1.682-11.772c-3.118-8.934-15.135-16.187-15.977-24.385c-0.806-7.813,6.657-20.952,5.045-29.43
				c-3.889-1.717-6.447-4.765-8.409-8.409c-4.239,10.371-12.894,18.955-16.817,30.271c-2.453,7.078-1.962,15.276-6.727,21.863
				c31.568-9.32,47.369,28.589,36.158,56.338c-1.507,3.714-2.908,9.284-4.205,10.932c-1.857,2.382-12.613,8.829-15.977,9.249
				c-11.247,1.401-12.578-8.724-27.749-5.045c-4.345-10.161-19.726-14.646-23.544-25.226c-2.067-5.746-1.577-23.37-0.841-33.635
				c1.261-17.343,9.285-23.509,15.136-38.68c4.309-11.142,5.08-23.93,9.25-31.953c3.854-7.428,15.696-18.639,11.772-32.794
				c-1.962-7.042-9.67-7.603-10.931-14.295c-2.908-15.696,7.603-22.318,16.817-30.271c5.326-4.589,12.018-11.527,17.658-12.613
				c13.769-2.663,26.698,2.593,37.839,2.522C166.875,33.622,181.94,4.542,212.492,3c1.962,0,3.924,0,5.886,0c0,0.28,0,0.561,0,0.841
				c26.698,4.169,34.126,35.667,28.59,62.225c-2.348,3.258-5.886,0.666-5.045,7.568c29.57,2.733,67.76,21.232,57.179,58.02
				c-1.506,5.22-6.552,8.339-7.567,12.613c0.175,4.029,2.242,6.166,1.682,10.931c16.643,23.825,25.507,53.746,22.703,89.132
				c-0.455,5.816-3.924,12.087-5.886,18.499c-5.886,19.129-9.985,40.187-15.136,58.02c-10.581,4.135-21.267,5.921-25.226-5.045
				c-4.485,0.98-7.463,0.911-9.25-2.522c3.573-6.236,9.319-10.301,10.091-19.341c3.644-1.997,8.163-3.048,11.771-5.045
				c9.355-15.906,4.485-36.753,3.364-55.497c-0.386-6.342,1.156-13.524,0-19.34c-1.577-7.988-9.25-16.537-13.454-24.385
				c-4.87-9.109-8.094-17.798-12.613-24.385c-6.797,14.47,4.976,35.702-2.522,53.816c4.204,17.378,8.619,36.578,5.045,51.293
				c-5.781,23.685-29.78,40.467-39.521,58.861c-3.049,5.78-4.8,13.033-5.046,20.181c14.506-2.628,29.746-2.733,45.407-4.204
				c14.436-1.367,32.304-0.911,42.885-6.728c11.106-6.062,16.222-18.534,29.431-19.34
				C348.993,335.144,368.229,345.619,379.825,363.733z M374.78,362.893c0-1.121,0-2.242,0-3.364c-2.452-0.245-3.118,3.364-4.204,0
				c0.49-2.382,3.118-4.274-0.841-5.045c-0.631,5.676-5.746,7.183,0.841,10.091C372.117,362.297,371.172,362.156,374.78,362.893z
				 M367.213,351.12c-1.297-1.576-3.259,1.191-5.046-0.841c2.348-2.593-4.59-7.778-5.886-4.204
				c-1.262-0.981-3.749-0.736-3.363-3.364c1.261-0.14,3.118,0.315,3.363-0.841c-2.663-1.261-4.1-3.748-7.568-4.204
				c-1.962,7.147,8.339,8.97,10.091,15.136c-2.103-0.455-5.536-3.924-6.727-2.522c2.838,1.366-2.628,2.663,0,4.204
				c6.166,0,11.142,1.191,13.453,5.045C365.846,356.48,366.617,353.888,367.213,351.12z M341.986,367.097
				c2.103-0.525,5.781,3.854,5.886,0C347.768,365.695,342.092,365.695,341.986,367.097z M345.35,338.507
				c0.981-0.98,0.946-2.978,0.841-5.045c-1.962-0.28-3.223,0.14-4.204,0.841C341.776,337.035,342.968,338.367,345.35,338.507z
				 M340.305,333.462c1.717-0.806,1.822-3.224,1.682-5.886c-2.732-1.191-6.973-0.876-5.886-5.887
				c-10.091,1.401-16.188,6.797-21.863,12.613c5.922-2.487,8.129-8.689,15.977-9.25C333.543,327.891,335.68,331.92,340.305,333.462z
				 M335.26,361.211c2.768-1.121,5.711,1.19,8.408,2.522c-1.752-6.062-5.851-9.846-8.408-15.136c-1.577-0.806-2.804,2.522-3.364,0
				c1.156-1.437,2.733-3.294-0.841-3.363c-1.927,3.679-4.555,12.297,0,15.136c0.701-3.014,2.067-0.105,5.046-0.842
				C336.101,360.37,335.435,360.545,335.26,361.211z M326.01,362.052c0.28-13.734-14.785-12.123-16.817-23.545
				c-3.573,2.593-9.25,3.083-12.613,5.887c8.444,1.366,6.832,12.788,9.25,20.181c0.07-2.487,5.01-2.242,4.204,0.841
				c3.994-0.946,7.322-1.962,10.091,0C320.334,360.86,323.662,363.242,326.01,362.052z M293.216,203.127
				c12.823-0.07,19.095-12.228,10.932-21.863c-3.224,9.67-12.018,13.77-20.182,18.499c3.014-0.07,4.87-1.296,7.568-1.682
				C289.327,201.69,292.655,200.359,293.216,203.127z M299.942,293.1c1.227-4.099,3.469-7.182,3.364-12.612
				c-4.521-1.647-8.515-3.819-14.295-4.205c-1.682,3.645-2.522,8.129-4.204,11.772C290.729,288.86,295.703,290.612,299.942,293.1z
				 M264.626,87.928c6.622,1.366,11.352-0.21,16.817,3.363c-7.077-11.702-24.91-12.648-42.043-14.295
				c0.035-5.29-0.456-11.106,5.045-10.931c7.498-26.522-3.959-57.775-25.226-60.542c-28.064-3.679-48.876,21.372-43.726,55.497
				c1.611,2.348,3.223,4.625,5.045,6.727c-2.382,3.398,0.596,7.463,2.523,9.25c0.841-1.121,0.806-3.118,2.522-3.363
				c-0.14,5.746,5.991,5.22,6.727,10.09c-2.208,1.962-3.188-2.417-5.886-2.522c0.876,6.412,7.077,7.498,9.25,12.613
				c4.205-2.803,8.759,3.434,8.409-1.682c7.848,2.032,11.352-0.806,17.659,1.682c3.398-4.169,7.567-7.567,14.295-8.409
				c1.856-2.347,2.172-6.236,5.045-7.567c1.997,2.487,7.743,1.226,9.249,4.204c-1.226,0.456-4.344-0.981-4.204,0.841
				c2.173,0.771,5.115,2.417,5.887,0c2.452,4.029,7.848,3.469,13.453,2.522C265.432,86.491,264.381,86.561,264.626,87.928z
				 M254.536,281.328c9.915-12.789,6.236-39.066,1.682-55.498c-9.95,9.109-16.467,21.652-36.157,21.021
				c-7.498-4.835-17.729-4.45-26.067-5.886c-0.105,2.137-0.14,4.31-2.522,4.205c0-0.841,0-1.682,0-2.522
				c-17.133,4.029-22.984-11.247-31.953-20.181c3.118,8.935-0.666,20.987,2.522,28.59c-1.332,0.07-2.908-0.105-2.522,1.682
				c-3.574,25.752-8.549,54.061-3.364,81.564c-4.344,6.026-6.412,14.33-9.25,21.862c14.75-2.838,22.108,8.619,30.271,15.136
				c17.623-23.299,41.098-40.747,55.497-67.27c2.979,0.105-1.786,2.768,0.841,2.522c3.294-2.732,5.887-5.991,5.887-9.95
				c0.104,0.981-0.105,2.242,0.841,2.383c3.258-7.673,8.373-13.489,13.454-19.34C253.87,280.312,253.729,281.293,254.536,281.328z
				 M219.22,387.277c0-3.363,0-6.727,0-10.09c-1.402-1.402-1.542-4.029-3.364-5.046c-0.14,4.345,2.242,6.167,2.522,10.091
				C218.203,383.984,218.344,391.902,219.22,387.277z M219.22,329.258c-4.31,7.252-3.364,8.023-10.091,13.453
				c-0.14-1.121,3.434-2.522,0.841-3.363c-7.743,7.428-15.696,15.065-21.863,21.863c0.946,1.576,2.102,2.942,2.523,5.045
				c-1.367,1.717-2.803,3.363-5.886,3.363c-0.14-1.261,0.315-3.118-0.841-3.363c-9.39,4.31-8.409,23.965-20.181,26.066
				c-6.692,1.191-17.027-2.487-22.704-6.727c-1.822-0.7,0.315-5.36-1.682-5.886c-6.376,20.146,23.965,18.254,32.794,10.09
				c-0.876,2.138,2.838,3.714,3.364,1.682c-0.771-0.91-3.083-0.245-2.523-2.522c7.078,0.911,5.711-6.621,11.772-6.727
				c2.908,0.735,3.434,3.854,6.727,4.204c-2.768,1.997-8.094,1.437-9.25,5.045c2.733,0.981,5.186-2.558,6.727,0
				c-2.102-0.14-2.627,1.297-3.363,2.523c13.419-3.398,24.771-8.864,27.749-22.704c0.841,0,1.016,0.666,1.682,0.841
				C212.212,360.545,216.626,338.156,219.22,329.258z M191.471,107.268c0.42,3.224,3.013,4.274,6.727,4.205
				C197.497,108.529,194.063,108.319,191.471,107.268z M124.201,75.314c12.929-2.032,34.826,0.315,52.134-5.045
				C161.584,64.418,131.488,61.51,124.201,75.314z M134.292,252.738c0-1.682,2.277-1.051,1.682-3.363
				c-0.981-0.981-2.978-0.946-5.045-0.841C130.718,251.267,131.944,252.598,134.292,252.738z M104.861,498.272
				c6.937-1.752,5.641-11.737,10.09-15.977c-8.549-0.701-15.101-3.363-15.136-12.613c-8.654,5.291-9.74,11.598-17.658,20.181
				c-8.549,9.25-31.252,14.82-34.476,24.386c7.533,1.892,15.346,10.336,26.908,10.932c3.258-2.208,7.112-3.364,10.932-6.728
				c0.455,1.962-4.274,2.908-1.682,4.204c4.45-4.239,6.552-10.826,13.454-12.612c0.806-9.04-7.918-2.418-10.09-3.364
				c-0.14-2.662,4.695-0.35,3.363-4.204c2.733-0.07,5.186-0.42,6.727-1.682c-1.542-1.086-5.22-4.8-1.682-5.886
				c2.417,1.787,2.593,5.815,5.045,7.567c2.663,0.141,2.803-2.242,5.886-1.682C106.788,499.148,105.421,499.113,104.861,498.272z
				 M101.498,249.375c0.21-11.457-17.448-14.47-21.863-5.045c0.596,4.169-0.21,9.74,2.522,11.772
				C83.769,247.062,92.843,247.483,101.498,249.375z"/>
			<path fill="#FFFFFF" d="M374.78,359.528c0,1.122,0,2.243,0,3.364c-3.608-0.736-2.663-0.596-4.204,1.682
				c-6.587-2.908-1.472-4.415-0.841-10.091c3.959,0.771,1.331,2.663,0.841,5.045C371.662,362.893,372.328,359.283,374.78,359.528z"
				/>
			<path fill="#FFFFFF" d="M362.167,350.279c1.787,2.032,3.749-0.735,5.046,0.841c-0.596,2.768-1.367,5.36-1.683,8.408
				c-2.312-3.854-7.287-5.045-13.453-5.045c-2.628-1.541,2.838-2.838,0-4.204c1.19-1.401,4.624,2.067,6.727,2.522
				c-1.752-6.166-12.053-7.988-10.091-15.136c3.469,0.456,4.905,2.943,7.568,4.204c-0.245,1.156-2.103,0.701-3.363,0.841
				c-0.386,2.628,2.102,2.383,3.363,3.364C357.577,342.501,364.515,347.687,362.167,350.279z"/>
			<path fill="#FFFFFF" d="M347.872,367.097c-0.104,3.854-3.783-0.525-5.886,0C342.092,365.695,347.768,365.695,347.872,367.097z"/>
			<path fill="#FFFFFF" d="M346.19,333.462c0.105,2.067,0.141,4.064-0.841,5.045c-2.382-0.14-3.573-1.472-3.363-4.204
				C342.968,333.602,344.229,333.182,346.19,333.462z"/>
			<path fill="#FFFFFF" d="M341.986,327.576c0.141,2.662,0.035,5.08-1.682,5.886c-4.625-1.542-6.762-5.571-10.091-8.409
				c-7.848,0.561-10.055,6.763-15.977,9.25c5.676-5.816,11.772-11.212,21.863-12.613C335.014,326.7,339.254,326.385,341.986,327.576
				z"/>
			<path fill="#FFFFFF" d="M343.668,363.733c-2.697-1.332-5.641-3.644-8.408-2.522c0.175-0.666,0.841-0.841,0.841-1.683
				c-2.979,0.736-4.345-2.172-5.046,0.842c-4.555-2.839-1.927-11.457,0-15.136c3.574,0.069,1.997,1.927,0.841,3.363
				c0.561,2.522,1.787-0.806,3.364,0C337.817,353.888,341.916,357.672,343.668,363.733z"/>
			<path fill="#FFFFFF" d="M309.192,338.507c2.032,11.422,17.098,9.811,16.817,23.545c-2.348,1.19-5.676-1.191-5.886,3.363
				c-2.769-1.962-6.097-0.946-10.091,0c0.806-3.083-4.134-3.328-4.204-0.841c-2.418-7.393-0.806-18.814-9.25-20.181
				C299.942,341.59,305.619,341.1,309.192,338.507z"/>
			<path fill="#FFFFFF" d="M304.147,181.264c8.163,9.635,1.892,21.792-10.932,21.863c-0.561-2.768-3.889-1.437-1.682-5.045
				c-2.698,0.386-4.555,1.612-7.568,1.682C292.13,195.034,300.924,190.934,304.147,181.264z"/>
			<path fill="#FFFFFF" d="M303.307,280.487c0.104,5.431-2.138,8.514-3.364,12.612c-4.239-2.487-9.214-4.239-15.135-5.045
				c1.682-3.644,2.522-8.128,4.204-11.772C294.792,276.668,298.786,278.84,303.307,280.487z"/>
			<path fill="#FFFFFF" d="M239.4,296.604c0,3.959-2.593,7.218-5.887,9.95c-2.627,0.245,2.138-2.417-0.841-2.522
				c-14.399,26.522-37.874,43.971-55.497,67.27c-8.164-6.517-15.521-17.974-30.271-15.136c2.838-7.532,4.905-15.836,9.25-21.862
				c-5.185-27.504-0.21-55.812,3.364-81.564c-0.386-1.787,1.191-1.612,2.522-1.682c-3.188-7.603,0.596-19.655-2.522-28.59
				c8.969,8.935,14.82,24.21,31.953,20.181c0,0.841,0,1.682,0,2.522c2.382,0.105,2.417-2.067,2.522-4.205
				c8.338,1.437,18.569,1.051,26.067,5.886c19.69,0.631,26.207-11.912,36.157-21.021c4.555,16.432,8.233,42.709-1.682,55.498
				c-0.807-0.035-0.666-1.017-0.841-1.682c-5.081,5.851-10.196,11.667-13.454,19.34C239.295,298.846,239.505,297.585,239.4,296.604z
				 M252.854,252.738c-3.364,1.857-5.711-0.525-10.091,0c2.978,3.223,1.051,6.622,4.204,10.09
				C247.879,258.414,250.682,255.892,252.854,252.738z M208.288,250.216c0-1.682,0-3.364,0-5.045c-0.841,0-1.682,0-2.523,0
				C205.765,247.693,205.695,250.286,208.288,250.216z M199.879,255.261c1.506-0.175,4.204,0.841,3.363-1.682
				c-0.806-1.121-2.838-1.086-3.363-2.522C199.879,252.458,199.879,253.859,199.879,255.261z M178.857,283.851
				c-0.631-2.803,4.029-7.638,1.682-6.728c0.14,1.822-2.978,0.386-4.204,0.842C181.065,280.522,173.287,281.363,178.857,283.851z
				 M177.176,366.256c9.004-8.935,18.043-17.834,26.067-27.749c-12.823,4.835-12.718,22.599-31.112,21.863
				C174.198,363.663,176.125,361.946,177.176,366.256z M176.335,288.896c2.032-2.452-0.806-5.431-3.364-5.886
				C172.656,286.408,175.284,286.863,176.335,288.896z"/>
			<path fill="#FFFFFF" d="M219.22,377.188c0,3.363,0,6.727,0,10.09c-0.876,4.625-1.017-3.293-0.842-5.045
				c-0.28-3.924-2.662-5.746-2.522-10.091C217.678,373.158,217.817,375.785,219.22,377.188z"/>
			<path fill="#FFFFFF" d="M209.129,342.711c6.727-5.43,5.781-6.201,10.091-13.453c-2.593,8.898-7.008,31.287-4.205,42.884
				c-0.666-0.175-0.841-0.841-1.682-0.841c-2.978,13.84-14.33,19.306-27.749,22.704c0.736-1.227,1.261-2.663,3.363-2.523
				c-1.542-2.558-3.994,0.981-6.727,0c1.156-3.608,6.482-3.048,9.25-5.045c-3.293-0.351-3.819-3.469-6.727-4.204
				c-6.062,0.105-4.695,7.638-11.772,6.727c-0.561,2.277,1.752,1.612,2.523,2.522c-0.526,2.032-4.24,0.456-3.364-1.682
				c-8.829,8.164-39.17,10.056-32.794-10.09c1.997,0.525-0.14,5.186,1.682,5.886c5.676,4.239,16.012,7.918,22.704,6.727
				c11.772-2.102,10.792-21.757,20.181-26.066c1.156,0.245,0.701,2.103,0.841,3.363c3.083,0,4.52-1.646,5.886-3.363
				c-0.421-2.103-1.577-3.469-2.523-5.045c6.167-6.798,14.12-14.436,21.863-21.863C212.562,340.188,208.989,341.59,209.129,342.711z
				"/>
			<path fill="#FFFFFF" d="M198.197,111.472c-3.714,0.07-6.306-0.981-6.727-4.205C194.063,108.319,197.497,108.529,198.197,111.472z
				"/>
			<path fill="#FFFFFF" d="M176.335,70.27c-17.308,5.36-39.206,3.013-52.134,5.045C131.488,61.51,161.584,64.418,176.335,70.27z"/>
			<path fill="#FFFFFF" d="M135.973,249.375c0.596,2.312-1.682,1.682-1.682,3.363c-2.348-0.14-3.574-1.472-3.364-4.205
				C132.995,248.429,134.992,248.394,135.973,249.375z"/>
			<path fill="#FFFFFF" d="M114.951,482.296c-4.45,4.239-3.153,14.225-10.09,15.977c0.561,0.841,1.927,0.876,1.682,2.522
				c-3.083-0.561-3.223,1.822-5.886,1.682c-2.452-1.752-2.627-5.78-5.045-7.567c-3.539,1.086,0.14,4.8,1.682,5.886
				c-1.542,1.262-3.994,1.611-6.727,1.682c1.332,3.854-3.503,1.542-3.363,4.204c2.172,0.946,10.896-5.676,10.09,3.364
				c-6.902,1.786-9.004,8.373-13.454,12.612c-2.592-1.296,2.137-2.242,1.682-4.204c-3.819,3.363-7.673,4.52-10.932,6.728
				c-11.562-0.596-19.375-9.04-26.908-10.932c3.223-9.565,25.927-15.136,34.476-24.386c7.918-8.583,9.004-14.89,17.658-20.181
				C99.851,478.933,106.402,481.595,114.951,482.296z"/>
			<path fill="#FFFFFF" d="M79.635,244.33c4.415-9.425,22.073-6.412,21.863,5.045c-8.654-1.892-17.729-2.312-19.34,6.727
				C79.424,254.07,80.23,248.499,79.635,244.33z"/>
			<path fill="#FFFFFF" d="M281.443,91.291c-5.466-3.574-10.195-1.997-16.817-3.363c-0.245-1.367,0.806-1.437,0.841-2.523
				c-5.605,0.946-11.001,1.507-13.453-2.522c-0.771,2.417-3.714,0.771-5.887,0c-0.14-1.822,2.979-0.385,4.204-0.841
				c-1.506-2.978-7.252-1.717-9.249-4.204c-2.873,1.331-3.188,5.22-5.045,7.567c-6.728,0.841-10.896,4.24-14.295,8.409
				c-6.307-2.487-9.811,0.351-17.659-1.682c0.351,5.115-4.204-1.121-8.409,1.682c-2.172-5.115-8.374-6.201-9.25-12.613
				c2.698,0.105,3.679,4.484,5.886,2.522c-0.736-4.87-6.867-4.344-6.727-10.09c-1.717,0.245-1.682,2.242-2.522,3.363
				c-1.927-1.787-4.905-5.851-2.523-9.25c-1.822-2.102-3.434-4.379-5.045-6.727c-5.15-34.125,15.661-59.176,43.726-55.497
				c21.267,2.768,32.724,34.02,25.226,60.542c-5.501-0.175-5.01,5.641-5.045,10.931C256.533,78.643,274.366,79.589,281.443,91.291z
				 M238.56,60.179c0.945-3.223,2.697-7.288,0.841-10.931c-13.944-4.73-32.829-7.428-51.293-5.045
				c-0.841,1.962-1.471,4.134-1.682,6.727c3.469,1.296,5.711,3.819,5.886,8.409c13.524,1.332,26.417,3.293,39.521,5.045
				c1.156-1.367,0.701-4.345,2.522-5.045C236.982,58.917,236.562,62.246,238.56,60.179z M236.037,81.201
				c-1.227-4.87,3.433-7.918,0-10.09c-2.663,5.185-9.18,6.517-10.091,13.454C231.097,85.23,233.304,82.953,236.037,81.201z
				 M227.628,66.065c-8.023,0.351-16.537-2.978-22.704-1.682c1.016,5.15,0.911,11.422,0.841,17.658
				c4.415,1.191,8.724,2.488,14.295,2.522C225.176,80.99,227.138,74.264,227.628,66.065z M203.243,82.042
				c0.42-4.239,0.666-15.101-1.682-19.34c-8.759-2.873-10.686,1.717-12.613,7.568C192.206,75.7,194.799,81.796,203.243,82.042z
				 M183.903,68.587c1.506-1.437-0.246-3.293-2.523-3.363C181.135,67.432,181.695,68.833,183.903,68.587z"/>
		</g>
	</g>
</g>
</svg>
