<?xml version="1.0" encoding="utf-8"?>
<!-- Generator: Adobe Illustrator 14.0.0, SVG Export Plug-In . SVG Version: 6.00 Build 43363)  -->
<!DOCTYPE svg PUBLIC "-//W3C//DTD SVG 1.0//EN" "http://www.w3.org/TR/2001/REC-SVG-20010904/DTD/svg10.dtd">
<svg version="1.0" xmlns="http://www.w3.org/2000/svg" xmlns:xlink="http://www.w3.org/1999/xlink" x="0px" y="0px" width="432px"
	 height="504px" viewBox="0 0 432 504" enable-background="new 0 0 432 504" xml:space="preserve">
<g id="Layer_2_x23_FFFFFF">
	<g>
		<g>
			<path fill="none" d="M398.023,140.128c12.48,21.08,20.8,49.15,18.48,83.04c-2.19,32.2-15.55,52.76-32.641,69.84
				c-17.18,17.19-38.689,30.33-59.279,43.21c-31.79,19.87-60.33,41.13-84.48,69.12c-5.57,6.45-11.399,13.79-18,20.39
				c-2.35,2.351-4.939,5.29-7.44,5.28c-3.68,0-8.37-5.89-11.04-9.12c-9.2-11.12-18.43-22.069-28.56-31.67
				c-13.92-13.22-28.79-25.35-44.4-35.77c-32.54-21.7-69.36-37.851-93.36-67.2c-12.11-14.811-21.59-32.54-24.48-55.92
				c-3.06-24.81,0.81-50.77,7.92-70.32c12.09-33.23,34.86-60.36,72-68.4c18.9-4.08,40.57-1.72,56.16,4.8
				c31.49,13.19,51.17,38.61,64.8,69.36c11.88-24.03,25.62-41.99,46.08-56.4c9.841-6.92,21.62-12.91,35.28-16.08
				c13.15-3.04,30.65-3.06,45.36,0.96C366.943,102.498,385.283,118.608,398.023,140.128z M355.063,243.808
				c-1.149-1.58,1.12-2.44,0.24-4.32c-2.47,0.71-5.021-0.13-6.48-1.2c0.21,1.17-0.329,1.6-0.479,2.4
				c-3.43,1.77-5.22,5.18-10.561,5.04c-0.539-0.57-1.01-1.22-1.68-1.68c3.851-3.18,8.82-6.54,8.4-13.2
				c-0.94,0.27-1.12,1.28-0.96,2.64c-1.561,3.02-4.62,6.52-8.16,9.84c-3.24,3.05-6.72,6.99-10.8,7.44
				c-2.19,0.25-3.181-0.14-3.84-1.44c0.92-2.68,2.97-4.23,6-4.8c-0.16-1.11,0.38-1.54,0.479-2.4c-0.33-0.7-1.11,1.42-1.44,0.72
				c-0.09-0.73,0.631-1.22-0.239-1.44c-5.99,2.17-9.03,8.58-17.28,7.68c0.68-2.28,3.54-2.38,3.84-5.04
				c-0.06,0.7,0.061,0.83,0.48,0.48c0.42-0.22,0.529-0.75,0.479-1.44c-2.399,0.69-3.75,3.55-7.2,2.4
				c-3.729,4.56-15.35,2.35-19.199,0.24c6.35,5.1,17.3,5.73,28.319,6.24c6.59,0.31,13.57,0.03,18.96,1.92
				c3.271,0.73,5.71-1.4,8.4-2.4c2.979-1.1,6.21-1.28,8.4-3.12C351.783,246.458,353.964,245.668,355.063,243.808z M353.144,164.608
				c4.55-5.36,5.93-16.79,1.44-23.04c-2.141-1.53-3.721-3.63-5.761-5.28c0.08-0.56,0.29-0.99,0.48-1.44
				c-1.271-0.25-1.92-1.11-2.88-1.68c-0.23-1.92-0.92-6.13,1.2-6.48c-0.271-1.08-0.92-1.79-0.96-3.12c-2.4-0.32-5.2-0.24-7.92-0.24
				c0.109-0.37,0.76-0.2,0.479-0.96c-0.479,0-0.96,0-1.44,0c-0.84,0.07,0.851,0.65,0,0.72c-4.029,0.57-9.56,0.49-13.92,0
				c-0.529,0.99-2.149,0.89-3.6,0.96c-0.67,0.01,0.57,0.66-0.48,0.48c-2.56,0.56-6.029,0.05-8.88,0.24
				c-5.09,0.35-10.18,1.82-15.359,2.88c-15.721,3.25-30.19,5.88-39.84,15.6c-7.45,7.52-10.61,16.04-14.881,26.88
				c-1.97,5-4,9.58-7.199,13.68c-4.79,6.14-8.891,13.81-6,23.28c-0.021,0.38-0.61,0.19-0.48,0.72c0.14,0.75,1.13,0.64,1.2,1.44
				c-2.14,7.06-8.62,9.78-12.24,15.36c0.46,0.83,1.391,1.17,1.68,2.16c-0.3,1.07-1.41,1.32-1.439,2.64
				c2.11,2.23,4.68,3.36,5.04,7.44c0.18,2.05-0.38,4.53,0.96,5.76c1.11,1.03,2.57,0.15,3.6,1.44c0.12,3.99,2.65,7.58,2.16,12.96
				c0.03,0.85,0.8-0.51,0.72,0.24c-0.739,2.63-2.869,3.85-4.8,5.28c0.86,1.989-0.26,3.279,0,4.8c-0.42-0.221-0.83-0.44-0.72-1.2
				c-1.6,0.56-2.09,2.229-2.88,3.6c-0.83,0.181-2.271-0.26-2.4,0c3.45,3.99,0.01,7.98,0,11.521c-0.3-0.01-0.33-0.3-0.72-0.24
				c-0.06,1.03,0.88,1.05,1.2,1.68c1.069,0.19,0.47-1.279,1.439-1.199c4.431,2.239,11.261-2.46,13.44,1.199
				c3.229-0.399,6.91-0.93,9.12,0.721c0.34-0.141,0.04-0.92,0.479-0.96c1.38,0.63,2.86,1.149,4.32,1.68
				c1.49-1.06,2.71-2.41,5.28-2.4c0.399-0.75-0.891-0.979-0.24-1.199c1.22-0.171,1.9,0.189,2.16,0.96c0.43-0.45,0.18-1.58,0.24-2.4
				c-2.94-2.17-0.95-9.29-2.881-12.48c-2.42-0.609-2.85-3.22-5.52-3.6c-2.8,2.96-1.09,10.43-1.92,15.36
				c-1.7,1.54-5.88,2.02-6.96,0.96c-0.061-0.34-0.391-0.4-0.48-0.721c1.03-0.569,2.311-0.89,2.88-1.92
				c-0.029-1.01-0.93-1.149-0.96-2.159c1.721-3.62,3.19-8.341,3.36-12.24c0.2-4.51-2.51-9.42-2.4-13.92
				c6.391,5.22,5.851,17.35,16.32,18.48c0.55-0.17,0.53-0.91,1.2-0.96c2.37,0.391,3.57-1.13,4.8-1.68
				c3.7-1.63,7.95-2.25,11.521-4.08c3.319-1.69,6.17-3.84,9.119-6c0.971,0.08,0.95,1.13,2.16,0.96c0.511-2.22,3.98-2.46,5.761-4.08
				c-0.94,0.31-0.711-0.56-0.721-1.2c-2.25,0.02-2.3-2.18-4.319-2.4c0.79-1.36-1.29-1.67-1.44-2.88c-4.46-1.46-8.86-4.25-11.52-6.72
				c1.659-0.14,1.88,1.16,3.119,1.44c-1.569-1.51-0.81-1.99-0.96-4.08c-1.12-0.75-2.17,0.3-3.12,0.48
				c-2.729-1.55-5.43-2.94-7.439-5.76c-2.3-3.22-1.53-7.71-3.36-11.04c-0.41-0.74-1.18-1.19-1.68-1.92
				c-1.7-2.48-3.35-6.49-3.84-9.36c-2.73-16.08,6.59-25.14,13.92-33.84c2.81-0.15,4.78-1.14,6.72-2.16c1.88,0.72,3.46,1.27,5.04,0
				c1.66,0.82,1.43,3.54,2.64,4.8c2.74,0.52,2.881-1.36,4.08-2.64c1.92-2.03,5.2-3.77,5.761-5.76c0.409-1.43-0.311-2.82,0.239-3.84
				c0.92-1.67,4.49-1.7,5.521-3.36c-0.4-1.24,0.2-3.02,1.68-3.12c-0.91,1.58-0.399,4.56-1.92,5.52c0.86,2.94-1.17,5.07-2.399,6.72
				c-1.211,0.16-2.24,0.48-3.12,0.96c-0.261,4.14-5.53,3.27-6.721,6.48c0.08,0.57,1.141,0.15,0.96,0.96
				c-0.85,1.31-1.569,2.75-2.159,4.32c0.81,0.32,1.14,1.11,1.68,1.68c2.16-0.24,3.88-0.92,5.76-1.44c0.58,0.63,0.561,1.85,1.68,1.92
				c-1.439,0.88-2.859,1.78-4.8,2.16c-0.2,1-0.279,2.12-1.2,2.4c-0.68-0.12-0.069-1.53-1.199-1.2c-0.82,0.87,0.81,2.46,1.68,3.12
				c-0.06,0.74-1.07,0.53-1.2,1.2c0.79,2.42,2.17,6.43,0,8.4c0.38,0.66,1.34-0.68,1.68,0c-0.909,2.44-1.52,4.89-2.399,7.44
				c-0.79,2.31-2.74,4.03-2.88,5.76c-0.16,2.1,0.63,1.99,0.96,3.12c0.319,1.09,0.02,2.73,0.72,4.08c1.64-1.67,3.59-1.96,5.521-2.88
				c3.439-1.62,3.149-5.59,4.64-9.42c-0.05,0.41-0.07,0.83-0.08,1.26c2.69,7.81-8.91,8.85-5.04,17.04c3.86,0.42,4.66-3.49,8.4-2.4
				c0.97,0.09,0.37-1.38,1.439-1.2c1.891,2.86,3.22,6.66,6.48,8.16c0.85,0.4,2.13-0.25,2.64,0.96c0.98-0.78,2.33-1.19,4.08-1.2
				c2.17-2.72,6.02-2.21,9.84-2.88c3.09-0.54,5.66-2.94,7.92-3.84c3.01,0.88,5.471-2.25,8.16-3.84c2.75-1.61,6.42-5.12,4.8-8.88
				c1.73-4.53,1.431-10.77-1.439-13.68c0.72-3.91-3.53-5.1-3.36-8.88c0.04-0.9,1.23-3.24,1.44-5.04c0.319-2.72,5.229-1.9,5.52-5.04
				c-2.88-1.96-5.12,0.92-7.68,1.44c0.31-2.87,1.479-5.16,3.84-5.76c1.37-0.34,3.28,0.87,4.08-0.96c0.18-2.73-1.87-3.24-1.92-5.76
				c1.609-1.67,4.87-1.69,6.96-2.88c0.109,0.46-0.32,1.45,0.479,1.2C353.304,166.378,353.094,165.368,353.144,164.608z
				 M352.184,221.968c-1.17,0.51-3.34,0.02-3.6,1.44C350.334,223.478,351.943,223.408,352.184,221.968z M349.544,261.808
				c-0.23-0.56-1.03-0.56-1.44-0.96c0.04-0.84,0.69-1.069,0.72-1.92c-2.72-2.97-7.46-0.05-11.04-0.479
				c-1.939-0.23-3.029-1.99-5.039-1.44c-1.91-1.13-2.261-3.81-5.521-3.6c1.37,2.56,4.45,3.399,5.76,6
				c5.09,0.35,8.32,2.56,11.761,4.56c-3.82,2.351-5.851,6.47-11.28,7.2c-1.67,1.52-2.88,4.3-0.72,6c2.21,0.56,4.289-2.37,6.72-0.96
				C343.414,271.998,347.424,267.848,349.544,261.808z M344.504,229.648c0.819-1.74,2.66-3.74,2.64-5.52
				C346.004,225.558,344.014,227.398,344.504,229.648z M324.823,253.888c0.131,1.15,1.36,1.21,2.641,1.2
				C327.334,253.938,326.184,253.818,324.823,253.888z M321.224,278.368c0.16-2.08,2.05-2.431,2.64-4.08
				c-0.609-0.42-1.399-0.681-1.92-1.2c0.7,1.16-0.55,2.28-1.199,1.92c1.68-3.83-0.341-8.33,0-11.52c-2.83,2.85-2.86,8.5-4.08,12.96
				c1.5-0.221,1.96,0.609,2.159,1.68c-0.42,0.22-0.3,0.979-1.199,0.72c0.029,0.78,0.85,1.49,0.239,2.16
				c2.391,0.771,3.29-1.54,5.521-1.68c-0.96-0.04-1.67-0.34-1.2-1.2C321.414,277.647,321.434,279.078,321.224,278.368z
				 M319.544,263.248c0.47-0.891,0.96-1.76,1.92-2.16c-0.32-2.57-1.28-7.01-3.12-6.48
				C320.604,255.978,318.884,260.818,319.544,263.248z M309.464,256.048c-2.141-0.08-4.04,1.44-6.48,1.2
				c-0.989-0.09-1.7-0.9-2.64-0.72c-2.061,0.409-2.42,2.869-2.4,6c-1.34,2.1-3.489,3.399-4.56,5.76
				C302.903,268.368,306.494,262.518,309.464,256.048z M300.104,317.248c3.05-2.55,6.43-6.8,5.04-12.24
				c-1.649-0.66-3.42-1.21-6-0.96c1.96-6.979-0.42-13.55-2.88-18.24c-0.78-0.27-1.84-1.21-2.88-0.479
				c0.399,3.52,1.32,5.56-2.64,6.479c-0.681-2.279-1.841-4.069-3.36-5.52c-1.51,0.64-3.64-0.13-4.08,0
				c-1.94,0.609-3.4,3.319-4.56,4.319c-3.721,3.24-6.641,8.04-10.561,10.32c2.59-3.83,4.78-11.06,2.4-16.56
				c0.84,10.3-5.45,15.5-12,19.2c0-1.351,1.79-0.931,1.92-2.16c-0.96-0.53-1.641,0.149-2.4,0.479c-0.52-3.18-4.899-1.16-5.04,0.96
				c-2.43,0.51-5.41,0.15-7.92,0c-0.05-0.45,0.271-0.52,0.24-0.96c-5.84,1.771-13.771,1.431-19.68,3.12
				c-0.95-0.16-1.181-1.05-1.921-1.439c0.79-0.41,1.141-1.261,1.921-1.681c0.79,0.58,0.81,1.92,2.159,1.92
				c1.29-0.359,1.33-2.12,2.4-1.439c0.92-1.761,0.32-4.32-0.72-5.521c-0.891-0.05-2.74-0.189-4.08-0.479
				c-0.681,1.21,0.09,2.54-0.48,3.6c-0.84-1.96-1.31-4.29-4.319-4.08c-1.061,3.58,3.159,6.771,0.479,9.84
				c0.76,2.12,2.69,4.48,2.88,7.2c0.38,5.26-4.38,7.351-4.08,12.24c0.13,2.18,1.601,4.77,2.88,6.72
				c2.681,4.09,5.21,6.851,10.801,7.92c2.729-3.29,6.05-3.97,10.56-6.239c3.71-1.86,7.29-3.841,11.28-3.12
				c10.39-3.21,19.92-10.57,34.08-9.12c0.189-0.771-1.55-0.82-0.96-1.2C293.554,320.808,296.823,318.928,300.104,317.248z
				 M299.624,318.218c-1.311,1-3.28,1.351-4.801,2.15C297.014,320.397,299.403,319.357,299.624,318.218z M276.584,239.248
				c0.26,1.27,2.18,2.14,3.12,1.92C278.854,240.338,277.733,239.788,276.584,239.248z M264.104,287.008
				c-0.109-0.75,0.43-0.84,0.24-1.68c-0.99,0.13-1.49,0.76-2.16,1.2c-0.29-0.74-0.58-1.49-0.96-2.16
				c-4.77-1.87-3.16,4.609-3.12,7.68c1.82,1.19,5.021-0.57,4.08-2.88c0.24,0,0.48,0,0.72,0c0.24-1.12-0.96-0.79-0.72-1.92
				C262.813,286.838,263.794,285.728,264.104,287.008z M264.104,296.128c0.601-1.41-1.27-2.59-1.2-1.92
				c1.551,0.68-1.34,0.62-1.199,1.439c0.93,0.131,1.17-0.42,2.159-0.239C263.903,295.698,263.823,296.098,264.104,296.128z
				 M259.783,295.888c-2.229-0.28-3.3,1.24-2.64,3.12C259.244,299.188,259.744,297.768,259.783,295.888z M255.704,293.488
				c1.229-1.28,1.43-2.931,1.199-4.561c-0.77-5.47-8.87-6.49-8.64,0.24c0.08,2.17,1.51,3.21,3.12,4.32c0.54-2.04,1.13-4.4,0.96-6.48
				c1.74,0.75,1.45,3.521,1.439,6c0.681-0.12,1.021-0.58,1.681-0.72C255.594,292.638,255.184,293.538,255.704,293.488z
				 M253.544,299.968c0.42-0.7,0.569-1.67,0.479-2.88c-0.91,0.22-1.529-0.39-1.92,0
				C251.684,298.228,252.533,299.548,253.544,299.968z M250.664,296.128c-2.061-0.22-3.11,0.57-3.841,1.68
				c0.66,0.55-0.159,2.561,0.48,3.12c0.78-0.06,1.26-0.88,1.68,0C249.943,299.728,250.084,297.718,250.664,296.128z
				 M247.063,293.968c1.09-3.58,0.37-9.37-2.64-9.36c-3.09,0.021-3.83,5.381-3.84,9.36
				C242.514,295.818,245.744,293.238,247.063,293.968z M243.704,298.288c0.17-2.28-3.54-2.74-4.801-1.44
				c-0.75,1.98,1.271,2.55,1.2,4.561c0.72,0,1.44,0,2.16,0c-0.11-1.15,0.43-1.65,1.2-1.92c0.399-0.9-1.11-1.091-0.48-1.44
				C243.294,298.068,243.313,298.357,243.704,298.288z M242.023,336.218c-0.899,0.21-1.72,0.51-2.399,0.95
				C240.664,337.088,241.724,337.028,242.023,336.218z M234.823,301.888c1.351-0.859,3.69-2.56,2.16-4.8
				c-3.399-0.68-6.17-0.76-5.279,3.84c1.119,0.69,3.109,2.53,4.319,0.96C235.594,301.748,235.033,302.598,234.823,301.888z
				 M233.863,294.448c7.57,4.39,8.351-9.181,2.641-10.08c-1.67,0.819-2.26,2.7-2.88,4.56c-0.57-1.34-0.78-3.05-1.2-4.56
				c-0.59-0.4-1.92,0.46-1.92-0.96c-1.12,0.08-1.13,1.729-2.4,0.96c-0.31,0.81-0.67,1.569-1.2,2.16
				c-0.149-1.45-0.33-2.86-0.96-3.841c-2,0.08-3.149,1.011-4.08,2.16c-0.34-1.09-1.359-1.51-2.399-1.92
				c-1.66,3.08-1.76,9.76,0.479,12.24c1.351-2.32,4.761,0.939,6.24-0.96c1.71,2.14,7.64,2.08,7.68-1.44
				C233.863,293.328,233.863,293.888,233.863,294.448z M217.304,268.288c0.49-2.95,2-4.87,5.52-4.8
				C220.384,260.647,214.354,265.658,217.304,268.288z M213.464,228.448c0.19-1.54-1.43-1.28-1.2-2.88c0.16-1.2,1.53-1.19,1.68-2.4
				c-4.41-4.78-10.15-8.24-12.48-15.12c0.47-0.57,1.35-0.73,1.44-1.68c-0.72,0.25-0.42-0.53-0.48-0.96c2.37-9.69-1.23-16.23-6-22.08
				c-3.1-3.8-5.07-8.68-6.72-12.96c-3.97-10.3-7.07-17.82-13.44-25.68c-6.02-7.43-15.54-11.45-24.96-14.16
				c-12.46-3.57-26.44-6.65-41.52-6.96c-0.67,0,0.57-0.65-0.48-0.48c-1.13,0.1-1.65-0.42-2.88-0.24c-0.56-0.35,0.47-0.76-0.48-0.72
				c-4.44,0.47-10.01,0.54-14.16,0c0.21-0.42,0.9-0.83-0.24-0.72c-1.53-0.17-0.36,0.78-0.72,0.96c-2.65-0.01-5.35-0.07-7.68,0.24
				c-0.03,1.33-0.54,2.18-0.96,3.12c2.45,0.28,1.06,4.38,1.44,6.72c-1.47-0.03-1.59,1.29-2.88,1.44c-0.12,0.76,0.43,0.85,0.24,1.68
				c-2.12,1.32-3.35,3.53-5.52,4.8c-0.84,2.52-2.68,4.87-3.12,7.92c-0.82,5.78,2.27,11.96,4.32,15.6c-0.1,0.83,0.1,1.35,0.24,1.92
				c1.01,0.37,0.04-1.24,0.72-1.2c2.14,1.78,6.14,0.74,6.72,3.12c0.51,2.08-2.26,3.36-1.92,5.04c0.36,1.75,2.54,1.77,4.56,1.44
				c1.44,1.37,3.93,2.95,3.12,5.76c-2.18-0.8-4.25-3.07-7.2-1.68c0.36,2.13,1.87,3.1,4.08,3.36c0.83,2.07,2.41,4.44,2.64,6.48
				c0.43,3.84-3.83,5.41-3.36,9.6c-1.06,1.99-2.53,3.43-2.64,6c-0.11,2.58,1.08,5.38,1.2,7.68c0.07,1.21-0.58,2.23-0.24,3.36
				c0.54,1.82,3.83,4.29,5.28,5.28c2.45,1.67,4.8,4.59,8.16,3.84c1.93,0.83,3.97,2.85,6.48,3.6c4.05,1.23,8.92-0.11,11.28,3.12
				c1.84-0.08,2.87,0.66,4.08,1.2c0.03-0.37-0.03-0.83,0.48-0.72c5.08-0.68,6.34-5.18,8.64-8.64c0.54,0.34,0.47,1.29,1.2,1.44
				c3.84-1.24,5.06,3.38,8.88,2.16c0.87-1.65,0.08-4.24,0-5.52c-1.63-3.49-6.19-4.66-6-9.36c0.08-1.96,0.29-3.38,0-5.52
				c-0.59-4.37-4.4-6.38-4.8-10.32c0.7,0.34,0.76,1.32,1.2,1.92c3.7,0.02,3.77,5.65,4.56,9.36c0.18,0.74-0.83,0.3-0.48,1.2
				c1.15,3.41,1.18,6.55,3.36,8.64c1.94,1.86,5.28,1.54,6.72,4.08c0.59-1.59,0.5-3.1,0.96-4.56c0.23-0.7,0.92-1.03,0.96-1.92
				c0.11-2.15-1.89-4.64-2.88-6.96c-1.1-2.58-1.97-4.78-2.4-7.44c0.71-0.06,1.19,0.95,1.44,0c-2.34-1.96-0.48-5.8,0-8.4
				c-0.03-0.69-1.31-0.12-1.2-0.96c1.27-0.72,1.93-1.7,1.92-2.88c-1.08-0.96-0.64,1.14-1.68,0.96c-0.36-0.75-0.8-1.44-0.96-2.4
				c-1.92-0.32-3.18-1.29-4.56-2.16c1.16-0.12,0.82-1.73,1.68-2.16c1.7,0.87,3.49,1.64,6.24,1.44c-0.38-1.34,1.03-0.89,1.2-1.68
				c-0.96-1.35-1.57-3.06-2.4-4.56c0.56-0.08,1.04-0.24,1.2-0.72c-1.59-2.73-6.46-2.18-6.72-6.24c-1.24-0.27-1.99-1.04-3.6-0.96
				c-0.91-2.05-3.01-3.9-2.16-6.96c-1.43-0.88-1.07-3.56-1.68-5.28c1.31,0.38,1.88,1.49,1.68,3.36c2.68,1.73,6.56,2.25,5.76,7.44
				c1.56,2.18,3.97,3.68,5.76,5.52c1,1.04,1.67,3,3.84,2.4c1.46-1.1,0.85-4.27,2.88-4.8c0.91,0.05,0.91,1.01,1.92,0.96
				c1.11-0.25,1.87-0.84,3.12-0.96c1.83,1.13,3.95,1.98,6.72,2.16c7.18,8.91,16.7,17.9,13.68,34.32c-0.63,3.43-3.91,8.45-5.28,11.04
				c-1.6,3.04-1.52,8.21-3.36,10.8c-1.93,2.72-5.38,4.45-7.68,5.76c-0.85-0.27-2.06-1.17-3.12-0.48c0,1.97,0.57,2.64-0.96,4.08
				c1.24-0.12,1.9-2.09,3.36-1.2c-3.92,3.2-9.25,5-13.2,8.16c-0.27,0.76-0.02,0.55,0,1.44c-2.22-0.05-1.98,2.34-4.32,2.16
				c0.05,0.84,0.61,1.4-0.72,1.2c1.66,1.62,5.04,1.52,5.76,4.08c1.46,0.34,1.1-1.14,2.4-0.96c5.35,4.89,12.87,7.61,20.64,10.08
				c1,1.25,2.72,1.77,5.04,1.68c0.76-0.109,0.09,1.2,0.96,0.96c10.19-1.09,10.02-13.81,16.08-18.24
				c-1.94,8.65-3.22,18.99,0.96,26.16c-0.08,0.88-0.95,0.971-0.72,2.16c0.44,1.09,2.1,0.95,2.64,1.92
				c-1.49,1.83-6.07,1.19-7.44-0.96c-0.94-3.24,1.28-14.37-2.16-14.88c-2.08-0.3-2.46,3.49-5.04,3.36
				c-2.12,3.08-0.3,10.1-2.88,12.72c0.13,0.93-0.43,1.18-0.24,2.16c0.64,0.35,1-1.3,2.64-0.72c-0.1,0.46-0.51,0.609-0.48,1.199
				c2.94-0.21,3.69,1.75,5.76,2.4c1.22-0.7,2.77-1.07,4.08-1.68c0.1,0.46,0.09,1.04,0.72,0.96c1.84-1.98,5.86-0.88,8.88-0.721
				c2.01-3.689,9.09,1.07,13.44-1.199c0.49,0.329,0.79,1.55,1.44,0.96c2.21-2.24-1.82-5.381-1.44-8.641
				c0.21-1.779,1.84-2.54,1.44-4.319c-0.61,0.71-1.61-0.221-2.16,0.239c-0.5-1.58-1.42-2.729-2.64-3.6
				c-1.01,2.939-1.34-1.79-0.96-3.6c-1.93-1.5-4.13-2.74-4.8-5.521c0.66-0.02,0.49,0.4,0.96,0c-0.8-4.86,1.86-9.43,2.16-13.2
				c0.83-0.53,2.08-0.64,3.12-0.96c1.08-1.15,1.28-3.2,1.68-5.04C207.454,232.988,211.574,230.578,213.464,228.448z
				 M212.744,267.328c2.53-3.061-3.3-7.54-5.76-4.8C210.753,262.278,211.944,264.618,212.744,267.328z M209.864,294.208
				c2.34-2.62,2.48-9.36,0.24-12.24c-1.02,0.42-1.6,1.29-2.4,1.92c-0.54-1.45-1.92-2.08-3.84-2.16c-0.62,0.9-0.56,2.48-0.96,3.601
				c-0.41-0.54-0.99-0.92-0.96-1.92c-1.49,0.72-1.45-0.74-2.64-0.96c0.07,1.27-0.86,0.819-1.68,0.72c-0.72,1.45-0.58,3.75-1.68,4.8
				c-0.22-2.16-1.03-4.59-2.88-4.56c-4.65,0.1-5.13,15.279,2.88,10.08c0.15-0.49-0.29-1.57,0.24-1.681c0.29,1.99,1.34,2.66,2.4,2.88
				c2.14,0.46,3.86-1.27,5.28-1.439c-0.11,0.02,1.15,0.72,1.2,0.72C207.174,294.128,209.003,292.238,209.864,294.208z
				 M209.864,324.688c0.55-5.14-4.18-7.649-4.08-12.239c0.07-3.16,2.53-5.681,2.88-8.16c-2.27-3.021,1.37-5.63,0.72-9.36
				c-3.43-0.47-3.42,2.5-4.8,4.08c0.38-1.15,0.2-2.39,0-3.6c-1.44,0-2.85,0.76-4.08,0.239c-1.19,1.261-1.94,4.091-0.72,5.761
				c1.12-0.721,0.77,1.42,2.4,1.439c1.63-1.439,2.54-2.45,3.84,0c-1.74,1.86-3.64,0.7-6.72,0.24c-4.97-0.73-10.76-0.85-14.4-2.16
				c-1.15,2.061-5.85,1-8.4,0.96c-0.06-2.01-1.44-2.72-3.6-2.64c-0.78,0.27-0.9,1.18-1.44,1.68c-0.34-0.7-1.42-0.81-2.16-0.479
				c0.08,1.279,2.03,0.689,1.92,2.159c-6.67-3.81-12.28-8.67-12.24-19.199c-1.71,6.029,0.05,12.449,2.64,16.56
				c-4.13-2.41-6.98-7.52-10.32-10.32c-3.08-2.579-4.31-5.14-8.88-4.319c-1.53,1.43-2.55,3.38-3.36,5.52
				c-3.34-0.55-3.36-3.18-2.4-6.479c-4.12-0.8-4.34,3.649-5.52,7.2c-1.01,3.039-1.63,7.75-0.48,11.52c-2.37-0.32-3.5,0.24-5.52,0.72
				c0.08,0.99-0.61,1.03-0.72,1.92c-0.62,5.141,2.98,7.87,5.28,10.561c2.33-0.03,3.51,2.439,5.76,2.88c1.93,0.38,3.72-0.62,6,0
				c-0.36,0.45-1,0.6-1.2,1.2c4.78,0.069,10.55-0.21,14.4,1.2c2.78,1.029,5.85,2.039,8.4,3.359c3.06,1.59,6.8,3.3,9.84,3.601
				c0.28,0.77,1.41,0.68,1.92,1.199c0.97-0.52,2.32-0.699,3.36-0.479c5.2,1.14,10.56,5.84,15.84,7.2c0.42,1.1,1.44,1.609,2.16,2.399
				c2.26-0.609,4.07-0.97,5.52-1.92C204.854,334.878,209.434,328.798,209.864,324.688z M198.104,299.968c0-1.12,0-2.24,0-3.36
				c-1.13-1.659-3.04-0.31-5.28-0.479c0.02,0.42-0.18,0.62-0.48,0.72c-0.32,2.57,1.58,2.9,2.64,4.08c-0.08,0.8-1.04-0.63-1.2,0.24
				C195.424,302.168,196.874,300.738,198.104,299.968z M189.704,300.448c-0.08-1.95,1.81-2.101,1.44-3.841
				c-0.47-2.229-4.7-1.989-5.04,0.721c0.6,0.319,0.75-0.94,0.96-0.24c-0.07,0.57-0.83,0.45-0.72,1.2c0.56,0.569,1.47,0.77,1.2,2.16
				C188.264,300.448,188.984,300.448,189.704,300.448z M189.224,293.008c0.04-4.6-0.46-8.65-4.32-9.36
				c-2.5,1.301-3.55,6.811-1.68,9.601c0.04-0.28-0.04-0.68,0.24-0.72C184.744,293.647,187.664,294.147,189.224,293.008z
				 M182.744,299.968c0.02-1.1-0.1-2.34,0.24-3.12c-0.57-1.029-2.24-2.229-3.84-1.439c0.95,1.22,0.62,3.71,1.92,4.56
				C181.194,298.778,181.964,300.308,182.744,299.968z M178.424,292.288c4.86-1.141,3.13-8.891-0.72-9.12
				c-3.84-0.22-6.64,6.229-3.36,9.36c0.13-0.341-0.28-1.24,0.24-1.2c0.63,0.1,0.73,0.72,1.44,0.72c-0.02-2.45-0.21-6.26,1.92-5.76
				C176.724,288.288,178.253,290.258,178.424,292.288z M176.984,299.008c0.06-1.13,1.17-1.229,0.96-2.64
				c-0.42-0.63-1.38-0.271-2.16,0C175.994,297.448,175.764,298.958,176.984,299.008z M172.664,298.048
				c0.96-1.85-0.76-3.89-2.64-2.88C170.364,296.668,170.514,298.357,172.664,298.048z M171.944,290.848c-0.19-3,0.68-5.6-0.48-7.68
				c-1.13-0.09-2,0.08-2.88,0.24c-0.35,0.689-0.49,1.59-0.96,2.16c-0.52-0.511-1.11-0.961-1.92-1.2c-0.4,0.43-0.06,1.479,0.48,1.68
				c0.04-0.28-0.04-0.68,0.24-0.72c0.1,0.71,1.13,0.47,1.44,0.96c-0.11,0.85-1.07,0.85-0.96,1.92c1.22-0.34,0.55,1.21,0.72,1.92
				C168.624,291.078,170.684,292.208,171.944,290.848z M168.104,294.688c0.02-1.06-1.86-0.21-1.68-1.439
				c0.28-0.03,0.68,0.05,0.72-0.24c-1.16-0.189-1.88,1.311-1.2,2.16C165.753,293.748,167.464,294.768,168.104,294.688z
				 M150.583,240.448c0.91-0.61,2.26-0.77,2.64-1.92C152.134,238.808,150.124,239.428,150.583,240.448z M120.344,255.088
				c2.95,6.26,6.94,12.74,16.08,12c-1.33-2.58-4.28-3.2-4.8-6c-0.38-2.03,0.56-5.12-2.4-5.52c-1-0.131-1.77,0.659-2.64,0.72
				C124.454,256.448,122.974,255.107,120.344,255.088z M143.384,244.288c-4.22,3.26-15.54,4.35-19.68,0.24
				c-3.23,1.05-4.53-1.85-6.96-2.4c0,1.15,0.89,1.78,1.44,1.68c0.18,2.46,3.29,2,3.36,4.56c-8.69,0.22-11.06-5.89-17.52-7.92
				c-0.14,0.43,0.29,1.41-0.24,1.44c-0.48-0.24-0.38-1.06-1.2-0.96c0.15,0.89,0.65,1.43,0.48,2.64c3.29,0.48,5.2,2.33,6.24,5.04
				c-3.76,3.2-8.68-0.72-11.28-2.88c-4.38-3.63-9.63-9.16-11.76-13.68c0.14-1.17-0.02-2.05-0.96-2.16
				c-0.39,6.72,4.89,9.84,8.4,13.44c-1.06-0.02-0.83,1.25-1.68,1.44c-5.57-0.66-9.39-3.09-11.28-7.44c-1.2,1.31-3.9,1.75-6.24,1.2
				c-0.46,2.48,1.64,2.79,0.24,4.32c1.29,1.68,3.32,2.61,4.32,4.56c1.97,1.67,5.41,1.91,8.64,3.12c2.23,0.85,3.68,2.22,6,2.4
				c2.91,0.23,5.76-1.26,8.64-1.44C117.804,250.528,135.224,251.888,143.384,244.288z M111.224,277.168
				c-0.08-1.28,0.6-1.8,1.92-1.68c-1.23-4.521-0.96-10.561-4.32-12.96c-0.35,3.529-0.29,8.79,0,11.52c-1.23,0.19-0.69-1.38-1.2-1.92
				c-1.6,2.01,0.74,3.57,0.96,5.28c-1.27-0.66-0.65,1.13-2.16,1.199c2.6-0.289,3.19,2.221,5.52,1.44c-0.16-0.96,0.23-1.37,0.24-2.16
				C111.724,277.788,111.154,277.808,111.224,277.168z M110.264,256.048c0.2-1.229,1.25-2.27,0.96-2.64
				c-2.19,1.1-2.44,4.13-2.64,7.199c1.68-0.479,0.84,1.57,1.92,1.681C110.784,260.378,109.964,257.968,110.264,256.048z
				 M105.224,252.928c-1.42-0.06-2.75-0.03-2.88,1.2C103.804,254.238,104.784,253.848,105.224,252.928z M102.824,252.448
				c-3.01-0.54-3.84,2.72-6,3.6c-0.35,0.15-0.91-0.1-1.44,0c-1.19,0.24-2.51,1.35-3.6,1.44c-3.15,0.279-7.54-2.2-10.56,0.239
				c-0.22,1.11,0.6,1.16,0.48,2.16c-0.51,0.45-1.43,0.49-1.44,1.44c2.6,5.41,6.17,9.83,10.08,13.92c2.55-1.21,4.33,1.06,6.96,1.2
				c1.51-2.03,0.99-4.19-0.48-6c-5.4-1.07-8.33-4.62-11.52-7.92c3.89-1.391,6.56-3.99,11.76-4.08
				C98.204,255.668,101.394,254.938,102.824,252.448z M85.543,228.688c-0.07-2.88-1.72-4.19-3.12-5.76
				C83.234,225.088,84.234,227.048,85.543,228.688z M77.624,221.248c0.51,1.09,1.87,1.34,3.6,1.2
				C81.114,221.118,78.454,221.068,77.624,221.248z"/>
			<path fill="#FFFFFF" d="M402.344,141.088c12.1,22.17,20.33,49.71,17.52,84.96c-2.54,31.94-16.21,53.18-33.359,70.32
				c-17.4,17.41-38.811,30.18-60,43.439c-31.91,19.99-61.04,41.79-85.2,70.08c-3.73,4.37-7.58,9.04-12,13.92
				c-3.11,3.45-9.09,11.37-14.16,11.53c-4.25,0.12-8.99-5.1-12-8.41c-3.57-3.92-6.21-7.89-9.12-11.28
				c-18.75-21.81-40.59-41.859-64.56-57.84c-49.04-32.7-109.84-54.09-120-124.8c-3.6-25.05,0.81-51.55,7.68-71.52
				c6.81-19.77,17.02-37.03,31.44-50.16c14.46-13.16,32.82-23.53,57.84-24.72c30.67-1.45,50.95,8.83,67.92,21.6
				c17.25,12.98,29.95,29.69,39.36,49.92c19.21-33.44,42.66-60.86,87.36-68.16c14.41-2.35,31.34-1.4,45.36,3.36
				C372.134,102.058,390.104,118.648,402.344,141.088z M416.504,223.168c2.319-33.89-6-61.96-18.48-83.04
				c-12.74-21.52-31.08-37.63-57.6-44.88c-14.71-4.02-32.21-4-45.36-0.96c-13.66,3.17-25.439,9.16-35.28,16.08
				c-20.46,14.41-34.199,32.37-46.08,56.4c-13.63-30.75-33.31-56.17-64.8-69.36c-15.59-6.52-37.26-8.88-56.16-4.8
				c-37.14,8.04-59.91,35.17-72,68.4c-7.11,19.55-10.98,45.51-7.92,70.32c2.89,23.38,12.37,41.109,24.48,55.92
				c24,29.35,60.82,45.5,93.36,67.2c15.61,10.42,30.48,22.55,44.4,35.77c10.13,9.601,19.36,20.55,28.56,31.67
				c2.67,3.23,7.36,9.12,11.04,9.12c2.5,0.01,5.09-2.93,7.44-5.28c6.601-6.6,12.43-13.939,18-20.39
				c24.15-27.99,52.69-49.25,84.48-69.12c20.59-12.88,42.1-26.02,59.279-43.21C400.954,275.928,414.313,255.368,416.504,223.168z"/>
			<path fill="#FFFFFF" d="M355.304,239.488c0.88,1.88-1.39,2.74-0.24,4.32c-1.1,1.86-3.28,2.65-4.319,4.56
				c-2.19,1.84-5.421,2.02-8.4,3.12c-2.69,1-5.13,3.13-8.4,2.4c-5.39-1.89-12.37-1.61-18.96-1.92
				c-11.02-0.51-21.97-1.14-28.319-6.24c3.85,2.11,15.47,4.32,19.199-0.24c3.45,1.15,4.801-1.71,7.2-2.4
				c0.05,0.69-0.06,1.22-0.479,1.44c-0.42,0.35-0.54,0.22-0.48-0.48c-0.3,2.66-3.16,2.76-3.84,5.04c8.25,0.9,11.29-5.51,17.28-7.68
				c0.87,0.22,0.149,0.71,0.239,1.44c0.33,0.7,1.11-1.42,1.44-0.72c-0.1,0.86-0.64,1.29-0.479,2.4c-3.03,0.57-5.08,2.12-6,4.8
				c0.659,1.3,1.649,1.69,3.84,1.44c4.08-0.45,7.56-4.39,10.8-7.44c3.54-3.32,6.6-6.82,8.16-9.84c-0.16-1.36,0.02-2.37,0.96-2.64
				c0.42,6.66-4.55,10.02-8.4,13.2c0.67,0.46,1.141,1.11,1.68,1.68c5.341,0.14,7.131-3.27,10.561-5.04
				c0.15-0.8,0.689-1.23,0.479-2.4C350.283,239.358,352.834,240.198,355.304,239.488z"/>
			<path fill="#FFFFFF" d="M354.584,141.568c4.489,6.25,3.109,17.68-1.44,23.04c-0.05,0.76,0.16,1.77-0.24,2.16
				c-0.8,0.25-0.37-0.74-0.479-1.2c-2.09,1.19-5.351,1.21-6.96,2.88c0.05,2.52,2.1,3.03,1.92,5.76c-0.8,1.83-2.71,0.62-4.08,0.96
				c-2.36,0.6-3.53,2.89-3.84,5.76c2.56-0.52,4.8-3.4,7.68-1.44c-0.29,3.14-5.2,2.32-5.52,5.04c-0.21,1.8-1.4,4.14-1.44,5.04
				c-0.17,3.78,4.08,4.97,3.36,8.88c2.87,2.91,3.17,9.15,1.439,13.68c1.62,3.76-2.05,7.27-4.8,8.88c-2.689,1.59-5.15,4.72-8.16,3.84
				c-2.26,0.9-4.83,3.3-7.92,3.84c-3.82,0.67-7.67,0.16-9.84,2.88c-1.75,0.01-3.1,0.42-4.08,1.2c-0.51-1.21-1.79-0.56-2.64-0.96
				c-3.261-1.5-4.59-5.3-6.48-8.16c-1.069-0.18-0.47,1.29-1.439,1.2c-3.74-1.09-4.54,2.82-8.4,2.4c-3.87-8.19,7.73-9.23,5.04-17.04
				c0.01-0.43,0.03-0.85,0.08-1.26c0.04-0.14,0.1-0.28,0.16-0.42c-0.021-0.11-0.05-0.18-0.08-0.24c0.78-5,4.1-8.16,5.359-11.76
				c-0.579-0.41-1.149,0.8-1.199,1.68c-3.98-0.24-3.73,5.67-4.801,9.12c0.12,0.84,0.461,0.66,0.641,0.96
				c-0.03,0.22-0.061,0.43-0.08,0.66c-1.49,3.83-1.2,7.8-4.64,9.42c-1.931,0.92-3.881,1.21-5.521,2.88c-0.7-1.35-0.4-2.99-0.72-4.08
				c-0.33-1.13-1.12-1.02-0.96-3.12c0.14-1.73,2.09-3.45,2.88-5.76c0.88-2.55,1.49-5,2.399-7.44c-0.34-0.68-1.3,0.66-1.68,0
				c2.17-1.97,0.79-5.98,0-8.4c0.13-0.67,1.141-0.46,1.2-1.2c-0.87-0.66-2.5-2.25-1.68-3.12c1.13-0.33,0.52,1.08,1.199,1.2
				c0.921-0.28,1-1.4,1.2-2.4c1.94-0.38,3.36-1.28,4.8-2.16c-1.119-0.07-1.1-1.29-1.68-1.92c-1.88,0.52-3.6,1.2-5.76,1.44
				c-0.54-0.57-0.87-1.36-1.68-1.68c0.59-1.57,1.31-3.01,2.159-4.32c0.181-0.81-0.88-0.39-0.96-0.96c1.19-3.21,6.46-2.34,6.721-6.48
				c0.88-0.48,1.909-0.8,3.12-0.96c1.229-1.65,3.26-3.78,2.399-6.72c1.521-0.96,1.01-3.94,1.92-5.52c-1.479,0.1-2.08,1.88-1.68,3.12
				c-1.03,1.66-4.601,1.69-5.521,3.36c-0.55,1.02,0.17,2.41-0.239,3.84c-0.561,1.99-3.841,3.73-5.761,5.76
				c-1.199,1.28-1.34,3.16-4.08,2.64c-1.21-1.26-0.979-3.98-2.64-4.8c-1.58,1.27-3.16,0.72-5.04,0c-1.939,1.02-3.91,2.01-6.72,2.16
				c-7.33,8.7-16.65,17.76-13.92,33.84c0.49,2.87,2.14,6.88,3.84,9.36c0.5,0.73,1.27,1.18,1.68,1.92
				c1.83,3.33,1.061,7.82,3.36,11.04c2.01,2.82,4.71,4.21,7.439,5.76c0.95-0.18,2-1.23,3.12-0.48c0.15,2.09-0.609,2.57,0.96,4.08
				c-1.239-0.28-1.46-1.58-3.119-1.44c2.659,2.47,7.06,5.26,11.52,6.72c0.15,1.21,2.23,1.52,1.44,2.88
				c2.02,0.22,2.069,2.42,4.319,2.4c0.01,0.64-0.22,1.51,0.721,1.2c-1.78,1.62-5.25,1.86-5.761,4.08
				c-1.21,0.17-1.189-0.88-2.16-0.96c-2.949,2.16-5.8,4.31-9.119,6c-3.57,1.83-7.82,2.45-11.521,4.08
				c-1.229,0.55-2.43,2.07-4.8,1.68c-0.67,0.05-0.65,0.79-1.2,0.96c-10.47-1.13-9.93-13.26-16.32-18.48
				c-0.109,4.5,2.601,9.411,2.4,13.92c-0.17,3.899-1.64,8.62-3.36,12.24c0.03,1.01,0.931,1.149,0.96,2.159
				c-0.569,1.03-1.85,1.351-2.88,1.92c0.09,0.32,0.42,0.381,0.48,0.721c1.08,1.06,5.26,0.58,6.96-0.96
				c0.83-4.931-0.88-12.4,1.92-15.36c2.67,0.38,3.1,2.99,5.52,3.6c1.931,3.19-0.06,10.311,2.881,12.48
				c-0.061,0.82,0.189,1.95-0.24,2.4c-0.26-0.771-0.94-1.131-2.16-0.96c-0.65,0.22,0.64,0.449,0.24,1.199
				c-2.57-0.01-3.79,1.341-5.28,2.4c-1.46-0.53-2.94-1.05-4.32-1.68c-0.439,0.04-0.14,0.819-0.479,0.96
				c-2.21-1.65-5.891-1.12-9.12-0.721c-2.18-3.659-9.01,1.04-13.44-1.199c-0.97-0.08-0.37,1.39-1.439,1.199
				c-0.32-0.63-1.26-0.649-1.2-1.68c0.39-0.06,0.42,0.23,0.72,0.24c0.01-3.54,3.45-7.53,0-11.521c0.13-0.26,1.57,0.181,2.4,0
				c0.79-1.37,1.28-3.04,2.88-3.6c-0.11,0.76,0.3,0.979,0.72,1.2c-0.26-1.521,0.86-2.811,0-4.8c1.931-1.431,4.061-2.65,4.8-5.28
				c0.08-0.75-0.689,0.609-0.72-0.24c0.49-5.38-2.04-8.97-2.16-12.96c-1.029-1.29-2.489-0.41-3.6-1.44
				c-1.34-1.23-0.78-3.71-0.96-5.76c-0.36-4.08-2.93-5.21-5.04-7.44c0.03-1.32,1.14-1.57,1.439-2.64
				c-0.289-0.99-1.22-1.33-1.68-2.16c3.62-5.58,10.101-8.3,12.24-15.36c-0.07-0.8-1.061-0.69-1.2-1.44
				c-0.13-0.53,0.46-0.34,0.48-0.72c-2.891-9.47,1.21-17.14,6-23.28c3.199-4.1,5.229-8.68,7.199-13.68
				c4.271-10.84,7.431-19.36,14.881-26.88c9.649-9.72,24.119-12.35,39.84-15.6c5.18-1.06,10.27-2.53,15.359-2.88
				c2.851-0.19,6.32,0.32,8.88-0.24c1.051,0.18-0.189-0.47,0.48-0.48c1.45-0.07,3.07,0.03,3.6-0.96c4.36,0.49,9.891,0.57,13.92,0
				c0.851-0.07-0.84-0.65,0-0.72c0.48,0,0.961,0,1.44,0c0.28,0.76-0.37,0.59-0.479,0.96c2.72,0,5.52-0.08,7.92,0.24
				c0.04,1.33,0.689,2.04,0.96,3.12c-2.12,0.35-1.431,4.56-1.2,6.48c0.96,0.57,1.609,1.43,2.88,1.68c-0.19,0.45-0.4,0.88-0.48,1.44
				C350.863,137.938,352.443,140.038,354.584,141.568z M311.144,213.088c2.76-2.5,4.04-7.81,6.24-10.32
				c-3.34-3.75-8.811-2.66-12.48,1.2c-0.989,1.05-2.399,3.38-2.399,4.32c0,0.47,1.01,3,1.68,3.6c0.53,0.47,1.71,0.5,2.64,0.96
				C308.714,213.798,309.494,214.588,311.144,213.088z M251.624,227.488c0.35-4.29,0.02-8.62-1.44-10.56
				c-4.229-5.62-11.89-10.18-13.68-16.56c-1.75,0.09-1.53,2.15-3.601,1.92c-1.68,4.32-0.699,5.49,1.44,8.16
				c1.7,2.12,2.82,4.42,5.28,5.04c0.189,2.09,3.33,2.85,1.92,5.04c-3.57,0.38-2.7-4.97-6.24-3.84c0.58,0.88,1.56,1.39,2.16,2.4
				c0.319,0.55-0.25,1.8,0.96,1.68c-1.25,1.23-1.18-0.82-2.4-0.96c-1.02,0.76-0.91,2.89,0.24,3.36c-0.72,1.37-1.18,4.72-0.24,6.24
				c-2.84,5.35,2.471,12.8,7.2,11.04C247.794,238.768,251.153,233.258,251.624,227.488z M234.584,215.728
				c-0.811,0.02-0.36-1.23-1.2-1.2c-1.2,0.98-1.24,2.29-2.16,3.6c-0.38,0.55-1.14,1.09-1.68,1.68c-1.561,1.72-3.13,3.88-4.561,5.52
				c-1.67,1.92-4.16,3.33-2.88,6.72c3.26-6.02,8.23-10.33,11.521-16.32C233.773,215.798,234.554,216.328,234.584,215.728z"/>
			<path fill="#FFFFFF" d="M348.584,223.408c0.26-1.42,2.43-0.93,3.6-1.44C351.943,223.408,350.334,223.478,348.584,223.408z"/>
			<path fill="#FFFFFF" d="M348.104,260.848c0.41,0.4,1.21,0.4,1.44,0.96c-2.12,6.04-6.13,10.19-10.08,14.4
				c-2.431-1.41-4.51,1.52-6.72,0.96c-2.16-1.7-0.95-4.48,0.72-6c5.43-0.73,7.46-4.85,11.28-7.2c-3.44-2-6.671-4.21-11.761-4.56
				c-1.31-2.601-4.39-3.44-5.76-6c3.26-0.21,3.61,2.47,5.521,3.6c2.01-0.55,3.1,1.21,5.039,1.44c3.58,0.43,8.32-2.49,11.04,0.479
				C348.794,259.778,348.144,260.008,348.104,260.848z"/>
			<path fill="#FFFFFF" d="M347.144,224.128c0.021,1.78-1.82,3.78-2.64,5.52C344.014,227.398,346.004,225.558,347.144,224.128z"/>
			<path fill="#FFFFFF" d="M327.464,255.088c-1.28,0.01-2.51-0.05-2.641-1.2C326.184,253.818,327.334,253.938,327.464,255.088z"/>
			<path fill="#FFFFFF" d="M323.863,274.288c-0.59,1.649-2.479,2-2.64,4.08c0.21,0.71,0.19-0.721,0.96-0.24
				c-0.47,0.86,0.24,1.16,1.2,1.2c-2.23,0.14-3.13,2.45-5.521,1.68c0.61-0.67-0.21-1.38-0.239-2.16c0.899,0.26,0.779-0.5,1.199-0.72
				c-0.199-1.07-0.659-1.9-2.159-1.68c1.22-4.46,1.25-10.11,4.08-12.96c-0.341,3.189,1.68,7.689,0,11.52
				c0.649,0.36,1.899-0.76,1.199-1.92C322.464,273.607,323.254,273.868,323.863,274.288z"/>
			<path fill="#FFFFFF" d="M321.464,261.088c-0.96,0.4-1.45,1.27-1.92,2.16c-0.66-2.43,1.06-7.271-1.2-8.641
				C320.184,254.078,321.144,258.518,321.464,261.088z"/>
			<path fill="#FFFFFF" d="M302.983,257.248c2.44,0.24,4.34-1.28,6.48-1.2c-2.97,6.47-6.561,12.32-16.08,12.24
				c1.07-2.36,3.22-3.66,4.56-5.76c-0.02-3.131,0.34-5.591,2.4-6C301.283,256.348,301.994,257.158,302.983,257.248z"/>
			<path fill="#FFFFFF" d="M305.144,305.008c1.39,5.44-1.99,9.69-5.04,12.24c-3.28,1.68-6.55,3.56-11.52,2.88
				c-0.59,0.38,1.149,0.43,0.96,1.2c-14.16-1.45-23.69,5.91-34.08,9.12c-3.99-0.721-7.57,1.26-11.28,3.12
				c-4.51,2.27-7.83,2.949-10.56,6.239c-5.591-1.069-8.12-3.83-10.801-7.92c-1.279-1.95-2.75-4.54-2.88-6.72
				c-0.3-4.89,4.46-6.98,4.08-12.24c-0.189-2.72-2.12-5.08-2.88-7.2c2.68-3.069-1.54-6.26-0.479-9.84
				c3.01-0.21,3.479,2.12,4.319,4.08c0.57-1.06-0.2-2.39,0.48-3.6c1.34,0.29,3.189,0.43,4.08,0.479c1.04,1.2,1.64,3.76,0.72,5.521
				c-1.07-0.681-1.11,1.08-2.4,1.439c-1.35,0-1.369-1.34-2.159-1.92c-0.78,0.42-1.131,1.271-1.921,1.681
				c0.74,0.39,0.971,1.279,1.921,1.439c5.909-1.689,13.84-1.35,19.68-3.12c0.03,0.44-0.29,0.51-0.24,0.96
				c2.51,0.15,5.49,0.51,7.92,0c0.141-2.12,4.521-4.14,5.04-0.96c0.76-0.33,1.44-1.01,2.4-0.479c-0.13,1.229-1.92,0.81-1.92,2.16
				c6.55-3.7,12.84-8.9,12-19.2c2.38,5.5,0.189,12.729-2.4,16.56c3.92-2.28,6.84-7.08,10.561-10.32c1.159-1,2.619-3.71,4.56-4.319
				c0.44-0.13,2.57,0.64,4.08,0c1.52,1.45,2.68,3.24,3.36,5.52c3.96-0.92,3.039-2.96,2.64-6.479c1.04-0.73,2.1,0.21,2.88,0.479
				c2.46,4.69,4.84,11.261,2.88,18.24C301.724,303.798,303.494,304.348,305.144,305.008z"/>
			<path fill="#FFFFFF" d="M294.823,320.368c1.521-0.8,3.49-1.15,4.801-2.15C299.403,319.357,297.014,320.397,294.823,320.368z"/>
			<path fill="#FFFFFF" d="M279.704,241.168c-0.94,0.22-2.86-0.65-3.12-1.92C277.733,239.788,278.854,240.338,279.704,241.168z"/>
			<path fill="#FFFFFF" d="M264.344,285.328c0.189,0.84-0.35,0.93-0.24,1.68c-0.31-1.28-1.29-0.17-1.92,0.24
				c-0.24,1.13,0.96,0.8,0.72,1.92c-0.239,0-0.479,0-0.72,0c0.94,2.31-2.26,4.07-4.08,2.88c-0.04-3.07-1.649-9.55,3.12-7.68
				c0.38,0.67,0.67,1.42,0.96,2.16C262.854,286.088,263.354,285.458,264.344,285.328z"/>
			<path fill="#FFFFFF" d="M262.903,294.208c-0.069-0.67,1.801,0.51,1.2,1.92c-0.28-0.03-0.2-0.43-0.24-0.72
				c-0.989-0.181-1.229,0.37-2.159,0.239C261.563,294.828,264.454,294.888,262.903,294.208z"/>
			<path fill="#FFFFFF" d="M257.144,299.008c-0.66-1.88,0.41-3.4,2.64-3.12C259.744,297.768,259.244,299.188,257.144,299.008z"/>
			<path fill="#FFFFFF" d="M256.903,288.928c0.23,1.63,0.03,3.28-1.199,4.561c-0.521,0.05-0.11-0.851-0.24-1.2
				c-0.66,0.14-1,0.6-1.681,0.72c0.011-2.479,0.301-5.25-1.439-6c0.17,2.08-0.42,4.44-0.96,6.48c-1.61-1.11-3.04-2.15-3.12-4.32
				C248.033,282.438,256.134,283.458,256.903,288.928z"/>
			<path fill="#FFFFFF" d="M254.023,297.088c0.09,1.21-0.06,2.18-0.479,2.88c-1.011-0.42-1.86-1.74-1.44-2.88
				C252.494,296.698,253.113,297.308,254.023,297.088z"/>
			<path fill="#FFFFFF" d="M246.823,297.808c0.73-1.109,1.78-1.899,3.841-1.68c-0.58,1.59-0.721,3.6-1.681,4.8
				c-0.42-0.88-0.899-0.06-1.68,0C246.664,300.368,247.483,298.357,246.823,297.808z"/>
			<path fill="#FFFFFF" d="M244.424,284.607c3.01-0.01,3.729,5.78,2.64,9.36c-1.319-0.729-4.55,1.851-6.479,0
				C240.594,289.988,241.334,284.628,244.424,284.607z"/>
			<path fill="#FFFFFF" d="M238.903,296.848c1.261-1.3,4.971-0.84,4.801,1.44c-0.391,0.069-0.41-0.22-0.721-0.24
				c-0.63,0.35,0.88,0.54,0.48,1.44c-0.771,0.27-1.311,0.77-1.2,1.92c-0.72,0-1.44,0-2.16,0
				C240.174,299.397,238.153,298.828,238.903,296.848z"/>
			<path fill="#FFFFFF" d="M239.624,337.168c0.68-0.44,1.5-0.74,2.399-0.95C241.724,337.028,240.664,337.088,239.624,337.168z"/>
			<path fill="#FFFFFF" d="M236.983,297.088c1.53,2.24-0.81,3.94-2.16,4.8c0.21,0.71,0.771-0.14,1.2,0
				c-1.21,1.57-3.2-0.27-4.319-0.96C230.813,296.328,233.584,296.408,236.983,297.088z"/>
			<path fill="#FFFFFF" d="M236.504,284.368c5.71,0.899,4.93,14.47-2.641,10.08c0-0.561,0-1.12,0-1.681
				c-0.04,3.521-5.97,3.58-7.68,1.44c-1.479,1.899-4.89-1.36-6.24,0.96c-2.239-2.48-2.14-9.16-0.479-12.24
				c1.04,0.41,2.06,0.83,2.399,1.92c0.931-1.149,2.08-2.08,4.08-2.16c0.63,0.98,0.811,2.391,0.96,3.841
				c0.53-0.591,0.891-1.351,1.2-2.16c1.271,0.77,1.28-0.88,2.4-0.96c0,1.42,1.33,0.56,1.92,0.96c0.42,1.51,0.63,3.22,1.2,4.56
				C234.244,287.068,234.834,285.188,236.504,284.368z"/>
			<path fill="#FFFFFF" d="M222.823,263.488c-3.52-0.07-5.029,1.85-5.52,4.8C214.354,265.658,220.384,260.647,222.823,263.488z"/>
			<path fill="#FFFFFF" d="M206.984,262.528c2.46-2.74,8.29,1.739,5.76,4.8C211.944,264.618,210.753,262.278,206.984,262.528z"/>
			<path fill="#FFFFFF" d="M210.104,281.968c2.24,2.88,2.1,9.62-0.24,12.24c-0.86-1.97-2.69-0.08-4.8-0.24
				c-0.05,0-1.31-0.7-1.2-0.72c-1.42,0.17-3.14,1.899-5.28,1.439c-1.06-0.22-2.11-0.89-2.4-2.88c-0.53,0.11-0.09,1.19-0.24,1.681
				c-8.01,5.199-7.53-9.98-2.88-10.08c1.85-0.03,2.66,2.399,2.88,4.56c1.1-1.05,0.96-3.35,1.68-4.8c0.82,0.1,1.75,0.55,1.68-0.72
				c1.19,0.22,1.15,1.68,2.64,0.96c-0.03,1,0.55,1.38,0.96,1.92c0.4-1.12,0.34-2.7,0.96-3.601c1.92,0.08,3.3,0.71,3.84,2.16
				C208.503,283.258,209.083,282.388,210.104,281.968z"/>
			<path fill="#FFFFFF" d="M205.784,312.448c-0.1,4.59,4.63,7.1,4.08,12.239c-0.43,4.11-5.01,10.19-8.16,12.24
				c-1.45,0.95-3.26,1.311-5.52,1.92c-0.72-0.79-1.74-1.3-2.16-2.399c-5.28-1.36-10.64-6.061-15.84-7.2
				c-1.04-0.22-2.39-0.04-3.36,0.479c-0.51-0.52-1.64-0.43-1.92-1.199c-3.04-0.301-6.78-2.011-9.84-3.601
				c-2.55-1.32-5.62-2.33-8.4-3.359c-3.85-1.41-9.62-1.131-14.4-1.2c0.2-0.601,0.84-0.75,1.2-1.2c-2.28-0.62-4.07,0.38-6,0
				c-2.25-0.44-3.43-2.91-5.76-2.88c-2.3-2.69-5.9-5.42-5.28-10.561c0.11-0.89,0.8-0.93,0.72-1.92c2.02-0.479,3.15-1.04,5.52-0.72
				c-1.15-3.77-0.53-8.48,0.48-11.52c1.18-3.551,1.4-8,5.52-7.2c-0.96,3.3-0.94,5.93,2.4,6.479c0.81-2.14,1.83-4.09,3.36-5.52
				c4.57-0.82,5.8,1.74,8.88,4.319c3.34,2.801,6.19,7.91,10.32,10.32c-2.59-4.11-4.35-10.53-2.64-16.56
				c-0.04,10.529,5.57,15.39,12.24,19.199c0.11-1.47-1.84-0.88-1.92-2.159c0.74-0.33,1.82-0.221,2.16,0.479
				c0.54-0.5,0.66-1.41,1.44-1.68c2.16-0.08,3.54,0.63,3.6,2.64c2.55,0.04,7.25,1.101,8.4-0.96c3.64,1.311,9.43,1.43,14.4,2.16
				c3.08,0.46,4.98,1.62,6.72-0.24c-1.3-2.45-2.21-1.439-3.84,0c-1.63-0.02-1.28-2.16-2.4-1.439c-1.22-1.67-0.47-4.5,0.72-5.761
				c1.23,0.521,2.64-0.239,4.08-0.239c0.2,1.21,0.38,2.449,0,3.6c1.38-1.58,1.37-4.55,4.8-4.08c0.65,3.73-2.99,6.34-0.72,9.36
				C208.313,306.768,205.854,309.288,205.784,312.448z"/>
			<path fill="#FFFFFF" d="M198.104,296.607c0,1.12,0,2.24,0,3.36c-1.23,0.771-2.68,2.2-4.32,1.2c0.16-0.87,1.12,0.56,1.2-0.24
				c-1.06-1.18-2.96-1.51-2.64-4.08c0.3-0.1,0.5-0.3,0.48-0.72C195.063,296.298,196.974,294.948,198.104,296.607z"/>
			<path fill="#FFFFFF" d="M191.144,296.607c0.37,1.74-1.52,1.891-1.44,3.841c-0.72,0-1.44,0-2.16,0c0.27-1.391-0.64-1.591-1.2-2.16
				c-0.11-0.75,0.65-0.63,0.72-1.2c-0.21-0.7-0.36,0.56-0.96,0.24C186.444,294.618,190.674,294.378,191.144,296.607z"/>
			<path fill="#FFFFFF" d="M184.904,283.647c3.86,0.71,4.36,4.761,4.32,9.36c-1.56,1.14-4.48,0.64-5.76-0.479
				c-0.28,0.04-0.2,0.439-0.24,0.72C181.354,290.458,182.404,284.948,184.904,283.647z"/>
			<path fill="#FFFFFF" d="M182.984,296.848c-0.34,0.78-0.22,2.021-0.24,3.12c-0.78,0.34-1.55-1.189-1.68,0
				c-1.3-0.85-0.97-3.34-1.92-4.56C180.744,294.618,182.414,295.818,182.984,296.848z"/>
			<path fill="#FFFFFF" d="M177.704,283.168c3.85,0.229,5.58,7.979,0.72,9.12c-0.17-2.03-1.7-4-0.48-6
				c-2.13-0.5-1.94,3.31-1.92,5.76c-0.71,0-0.81-0.62-1.44-0.72c-0.52-0.04-0.11,0.859-0.24,1.2
				C171.063,289.397,173.864,282.948,177.704,283.168z"/>
			<path fill="#FFFFFF" d="M177.944,296.368c0.21,1.41-0.9,1.51-0.96,2.64c-1.22-0.05-0.99-1.56-1.2-2.64
				C176.563,296.098,177.523,295.738,177.944,296.368z"/>
			<path fill="#FFFFFF" d="M170.023,295.168c1.88-1.01,3.6,1.03,2.64,2.88C170.514,298.357,170.364,296.668,170.023,295.168z"/>
			<path fill="#FFFFFF" d="M171.464,283.168c1.16,2.08,0.29,4.68,0.48,7.68c-1.26,1.36-3.32,0.23-4.32-0.72
				c-0.17-0.71,0.5-2.26-0.72-1.92c-0.11-1.07,0.85-1.07,0.96-1.92c-0.31-0.49-1.34-0.25-1.44-0.96c-0.28,0.04-0.2,0.439-0.24,0.72
				c-0.54-0.2-0.88-1.25-0.48-1.68c0.81,0.239,1.4,0.689,1.92,1.2c0.47-0.57,0.61-1.471,0.96-2.16
				C169.464,283.248,170.333,283.078,171.464,283.168z"/>
			<path fill="#FFFFFF" d="M166.424,293.248c-0.18,1.229,1.7,0.38,1.68,1.439c-0.64,0.08-2.35-0.939-2.16,0.48
				c-0.68-0.85,0.04-2.35,1.2-2.16C167.104,293.298,166.704,293.218,166.424,293.248z"/>
			<path fill="#FFFFFF" d="M153.224,238.528c-0.38,1.15-1.73,1.31-2.64,1.92C150.124,239.428,152.134,238.808,153.224,238.528z"/>
			<path fill="#FFFFFF" d="M136.424,267.088c-9.14,0.74-13.13-5.74-16.08-12c2.63,0.02,4.11,1.36,6.24,1.2
				c0.87-0.061,1.64-0.851,2.64-0.72c2.96,0.399,2.02,3.489,2.4,5.52C132.144,263.888,135.094,264.508,136.424,267.088z"/>
			<path fill="#FFFFFF" d="M123.704,244.528c4.14,4.11,15.46,3.02,19.68-0.24c-8.16,7.6-25.58,6.24-41.04,7.2
				c-2.88,0.18-5.73,1.67-8.64,1.44c-2.32-0.18-3.77-1.55-6-2.4c-3.23-1.21-6.67-1.45-8.64-3.12c-1-1.95-3.03-2.88-4.32-4.56
				c1.4-1.53-0.7-1.84-0.24-4.32c2.34,0.55,5.04,0.11,6.24-1.2c1.89,4.35,5.71,6.78,11.28,7.44c0.85-0.19,0.62-1.46,1.68-1.44
				c-3.51-3.6-8.79-6.72-8.4-13.44c0.94,0.11,1.1,0.99,0.96,2.16c2.13,4.52,7.38,10.05,11.76,13.68c2.6,2.16,7.52,6.08,11.28,2.88
				c-1.04-2.71-2.95-4.56-6.24-5.04c0.17-1.21-0.33-1.75-0.48-2.64c0.82-0.1,0.72,0.72,1.2,0.96c0.53-0.03,0.1-1.01,0.24-1.44
				c6.46,2.03,8.83,8.14,17.52,7.92c-0.07-2.56-3.18-2.1-3.36-4.56c-0.55,0.1-1.44-0.53-1.44-1.68
				C119.174,242.678,120.474,245.578,123.704,244.528z"/>
			<path fill="#FFFFFF" d="M113.144,275.488c-1.32-0.12-2,0.399-1.92,1.68c-0.07,0.64,0.5,0.62,0.96,0.72
				c-0.01,0.79-0.4,1.2-0.24,2.16c-2.33,0.78-2.92-1.729-5.52-1.44c1.51-0.069,0.89-1.859,2.16-1.199
				c-0.22-1.71-2.56-3.271-0.96-5.28c0.51,0.54-0.03,2.11,1.2,1.92c-0.29-2.729-0.35-7.99,0-11.52
				C112.184,264.928,111.914,270.968,113.144,275.488z"/>
			<path fill="#FFFFFF" d="M111.224,253.408c0.29,0.37-0.76,1.41-0.96,2.64c-0.3,1.92,0.52,4.33,0.24,6.24
				c-1.08-0.11-0.24-2.16-1.92-1.681C108.784,257.538,109.034,254.508,111.224,253.408z"/>
			<path fill="#FFFFFF" d="M102.344,254.128c0.13-1.23,1.46-1.26,2.88-1.2C104.784,253.848,103.804,254.238,102.344,254.128z"/>
			<path fill="#FFFFFF" d="M96.824,256.048c2.16-0.88,2.99-4.14,6-3.6c-1.43,2.49-4.62,3.22-5.76,6c-5.2,0.09-7.87,2.689-11.76,4.08
				c3.19,3.3,6.12,6.85,11.52,7.92c1.47,1.81,1.99,3.97,0.48,6c-2.63-0.141-4.41-2.41-6.96-1.2c-3.91-4.09-7.48-8.51-10.08-13.92
				c0.01-0.95,0.93-0.99,1.44-1.44c0.12-1-0.7-1.05-0.48-2.16c3.02-2.439,7.41,0.04,10.56-0.239c1.09-0.091,2.41-1.2,3.6-1.44
				C95.914,255.948,96.474,256.198,96.824,256.048z"/>
			<path fill="#FFFFFF" d="M82.424,222.928c1.4,1.57,3.05,2.88,3.12,5.76C84.234,227.048,83.234,225.088,82.424,222.928z"/>
			<path fill="#FFFFFF" d="M81.224,222.448c-1.73,0.14-3.09-0.11-3.6-1.2C78.454,221.068,81.114,221.118,81.224,222.448z"/>
			<path fill="#FFFFFF" d="M212.264,225.568c-0.23,1.6,1.39,1.34,1.2,2.88c-1.89,2.13-6.01,4.54-4.56,8.4
				c-0.4,1.84-0.6,3.89-1.68,5.04c-1.04,0.32-2.29,0.43-3.12,0.96c-0.3,3.77-2.96,8.34-2.16,13.2c-0.47,0.4-0.3-0.02-0.96,0
				c0.67,2.78,2.87,4.021,4.8,5.521c-0.38,1.81-0.05,6.539,0.96,3.6c1.22,0.87,2.14,2.02,2.64,3.6c0.55-0.46,1.55,0.471,2.16-0.239
				c0.4,1.779-1.23,2.54-1.44,4.319c-0.38,3.26,3.65,6.4,1.44,8.641c-0.65,0.59-0.95-0.631-1.44-0.96
				c-4.35,2.27-11.43-2.49-13.44,1.199c-3.02-0.159-7.04-1.26-8.88,0.721c-0.63,0.08-0.62-0.5-0.72-0.96
				c-1.31,0.609-2.86,0.979-4.08,1.68c-2.07-0.65-2.82-2.61-5.76-2.4c-0.03-0.59,0.38-0.739,0.48-1.199
				c-1.64-0.58-2,1.069-2.64,0.72c-0.19-0.98,0.37-1.23,0.24-2.16c2.58-2.62,0.76-9.64,2.88-12.72c2.58,0.13,2.96-3.66,5.04-3.36
				c3.44,0.51,1.22,11.64,2.16,14.88c1.37,2.15,5.95,2.79,7.44,0.96c-0.54-0.97-2.2-0.83-2.64-1.92c-0.23-1.189,0.64-1.28,0.72-2.16
				c-4.18-7.17-2.9-17.51-0.96-26.16c-6.06,4.43-5.89,17.15-16.08,18.24c-0.87,0.24-0.2-1.069-0.96-0.96
				c-2.32,0.09-4.04-0.43-5.04-1.68c-7.77-2.47-15.29-5.19-20.64-10.08c-1.3-0.18-0.94,1.3-2.4,0.96c-0.72-2.56-4.1-2.46-5.76-4.08
				c1.33,0.2,0.77-0.36,0.72-1.2c2.34,0.18,2.1-2.21,4.32-2.16c-0.02-0.89-0.27-0.68,0-1.44c3.95-3.16,9.28-4.96,13.2-8.16
				c-1.46-0.89-2.12,1.08-3.36,1.2c1.53-1.44,0.96-2.11,0.96-4.08c1.06-0.69,2.27,0.21,3.12,0.48c2.3-1.31,5.75-3.04,7.68-5.76
				c1.84-2.59,1.76-7.76,3.36-10.8c1.37-2.59,4.65-7.61,5.28-11.04c3.02-16.42-6.5-25.41-13.68-34.32
				c-2.77-0.18-4.89-1.03-6.72-2.16c-1.25,0.12-2.01,0.71-3.12,0.96c-1.01,0.05-1.01-0.91-1.92-0.96c-2.03,0.53-1.42,3.7-2.88,4.8
				c-2.17,0.6-2.84-1.36-3.84-2.4c-1.79-1.84-4.2-3.34-5.76-5.52c0.8-5.19-3.08-5.71-5.76-7.44c0.2-1.87-0.37-2.98-1.68-3.36
				c0.61,1.72,0.25,4.4,1.68,5.28c-0.85,3.06,1.25,4.91,2.16,6.96c1.61-0.08,2.36,0.69,3.6,0.96c0.26,4.06,5.13,3.51,6.72,6.24
				c-0.16,0.48-0.64,0.64-1.2,0.72c0.83,1.5,1.44,3.21,2.4,4.56c-0.17,0.79-1.58,0.34-1.2,1.68c-2.75,0.2-4.54-0.57-6.24-1.44
				c-0.86,0.43-0.52,2.04-1.68,2.16c1.38,0.87,2.64,1.84,4.56,2.16c0.16,0.96,0.6,1.65,0.96,2.4c1.04,0.18,0.6-1.92,1.68-0.96
				c0.01,1.18-0.65,2.16-1.92,2.88c-0.11,0.84,1.17,0.27,1.2,0.96c-0.48,2.6-2.34,6.44,0,8.4c-0.25,0.95-0.73-0.06-1.44,0
				c0.43,2.66,1.3,4.86,2.4,7.44c0.99,2.32,2.99,4.81,2.88,6.96c-0.04,0.89-0.73,1.22-0.96,1.92c-0.46,1.46-0.37,2.97-0.96,4.56
				c-1.44-2.54-4.78-2.22-6.72-4.08c-2.18-2.09-2.21-5.23-3.36-8.64c-0.35-0.9,0.66-0.46,0.48-1.2c-0.79-3.71-0.86-9.34-4.56-9.36
				c-0.44-0.6-0.5-1.58-1.2-1.92c0.4,3.94,4.21,5.95,4.8,10.32c0.29,2.14,0.08,3.56,0,5.52c-0.19,4.7,4.37,5.87,6,9.36
				c0.08,1.28,0.87,3.87,0,5.52c-3.82,1.22-5.04-3.4-8.88-2.16c-0.73-0.15-0.66-1.1-1.2-1.44c-2.3,3.46-3.56,7.96-8.64,8.64
				c-0.51-0.11-0.45,0.35-0.48,0.72c-1.21-0.54-2.24-1.28-4.08-1.2c-2.36-3.23-7.23-1.89-11.28-3.12c-2.51-0.75-4.55-2.77-6.48-3.6
				c-3.36,0.75-5.71-2.17-8.16-3.84c-1.45-0.99-4.74-3.46-5.28-5.28c-0.34-1.13,0.31-2.15,0.24-3.36c-0.12-2.3-1.31-5.1-1.2-7.68
				c0.11-2.57,1.58-4.01,2.64-6c-0.47-4.19,3.79-5.76,3.36-9.6c-0.23-2.04-1.81-4.41-2.64-6.48c-2.21-0.26-3.72-1.23-4.08-3.36
				c2.95-1.39,5.02,0.88,7.2,1.68c0.81-2.81-1.68-4.39-3.12-5.76c-2.02,0.33-4.2,0.31-4.56-1.44c-0.34-1.68,2.43-2.96,1.92-5.04
				c-0.58-2.38-4.58-1.34-6.72-3.12c-0.68-0.04,0.29,1.57-0.72,1.2c-0.14-0.57-0.34-1.09-0.24-1.92c-2.05-3.64-5.14-9.82-4.32-15.6
				c0.44-3.05,2.28-5.4,3.12-7.92c2.17-1.27,3.4-3.48,5.52-4.8c0.19-0.83-0.36-0.92-0.24-1.68c1.29-0.15,1.41-1.47,2.88-1.44
				c-0.38-2.34,1.01-6.44-1.44-6.72c0.42-0.94,0.93-1.79,0.96-3.12c2.33-0.31,5.03-0.25,7.68-0.24c0.36-0.18-0.81-1.13,0.72-0.96
				c1.14-0.11,0.45,0.3,0.24,0.72c4.15,0.54,9.72,0.47,14.16,0c0.95-0.04-0.08,0.37,0.48,0.72c1.23-0.18,1.75,0.34,2.88,0.24
				c1.05-0.17-0.19,0.48,0.48,0.48c15.08,0.31,29.06,3.39,41.52,6.96c9.42,2.71,18.94,6.73,24.96,14.16
				c6.37,7.86,9.47,15.38,13.44,25.68c1.65,4.28,3.62,9.16,6.72,12.96c4.77,5.85,8.37,12.39,6,22.08c0.06,0.43-0.24,1.21,0.48,0.96
				c-0.09,0.95-0.97,1.11-1.44,1.68c2.33,6.88,8.07,10.34,12.48,15.12C213.793,224.378,212.424,224.368,212.264,225.568z
				 M207.944,231.088c-0.22-8.73-8.27-9.64-10.32-16.56c-0.94,0.07-0.73-1.02-1.68-0.96c0.21,0.93-0.58,0.86-0.72,1.44
				c0.83,0.2,1.02-0.44,1.44,0C199.654,221.138,204.644,225.278,207.944,231.088z M188.023,219.328c1.53-7.36,12.26-8.23,9.12-18
				c-2.13,0.22-2.32-1.51-3.6-2.16c-1.38,3.74-3.84,6.39-6.48,9.12c-2.48,2.58-7.32,6.35-8.4,9.6c-2.99,9.04,2.33,19.2,7.44,21.36
				c5.82,2.47,10.47-6.41,7.92-11.04c1.04-1.97,0.04-4.63-0.48-6.48c0.95,0.15,1.07-0.53,1.2-1.2c-0.18-0.69-0.57-1.19-0.96-1.68
				c-1.03,0.27-1.48,2.34-2.4,0.72c0.35-0.13,1.24,0.28,1.2-0.24c-1.01-1.98,1.68-2.32,1.92-3.84
				C190.714,214.998,191.704,220.508,188.023,219.328z M125.624,210.928c0.75-0.66,1.94-3.37,1.92-3.84
				c-0.09-2.12-5.09-6.46-6.72-7.2c-2.79-1.26-6.41-0.3-8.16,2.16c0.97,2.09,2.21,3.71,3.6,6c1.03,1.7,2.41,4.98,4.56,5.04
				C121.634,213.118,124.914,211.558,125.624,210.928z"/>
		</g>
	</g>
</g>
<g id="Layer_1_x23_D60F1E">
	<g>
		<g>
			<path fill="#D62027" d="M422.744,204.928c0,5.2,0,10.4,0,15.6c-3.66,66.041-48.971,92.67-91.921,119.52
				c-32.51,20.33-63.75,41.94-87.84,70.56c-7.87,9.36-14.55,20.381-25.92,26.881c-1.2,0-2.4,0-3.6,0
				c-11.64-6.11-18.56-17.19-26.88-26.4c-24.94-27.61-55.56-50.43-88.8-70.32c-44.06-26.359-87.93-53.989-92.16-120
				c0-4.08,0-8.16,0-12.24c1.06-16.51,4.12-33.61,9.12-47.76c4.98-14.06,11.71-26.51,19.44-36.72
				c16.22-21.42,39.1-37.18,72.72-39.84c3.92,0,7.84,0,11.76,0c49.64,5.16,75.35,34.25,96,68.4
				c17.331-31.24,41.62-56.79,83.28-64.32c13.78-2.49,29.71-2.48,43.92,1.2c25.561,6.63,43.811,21.77,56.881,41.28
				C411.954,150.498,421.184,174.108,422.744,204.928z M419.863,226.048c2.811-35.25-5.42-62.79-17.52-84.96
				c-12.24-22.44-30.21-39.03-55.92-47.76c-14.021-4.76-30.95-5.71-45.36-3.36c-44.7,7.3-68.149,34.72-87.36,68.16
				c-9.41-20.23-22.11-36.94-39.36-49.92c-16.97-12.77-37.25-23.05-67.92-21.6c-25.02,1.19-43.38,11.56-57.84,24.72
				c-14.42,13.13-24.63,30.39-31.44,50.16c-6.87,19.97-11.28,46.47-7.68,71.52c10.16,70.71,70.96,92.1,120,124.8
				c23.97,15.98,45.81,36.03,64.56,57.84c2.91,3.391,5.55,7.36,9.12,11.28c3.01,3.311,7.75,8.53,12,8.41
				c5.07-0.16,11.05-8.08,14.16-11.53c4.42-4.88,8.27-9.55,12-13.92c24.16-28.29,53.29-50.09,85.2-70.08
				c21.189-13.26,42.6-26.029,60-43.439C403.653,279.228,417.323,257.988,419.863,226.048z"/>
			<path fill="#D62027" d="M398.023,140.128c12.48,21.08,20.8,49.15,18.48,83.04c-2.19,32.2-15.55,52.76-32.641,69.84
				c-17.18,17.19-38.689,30.33-59.279,43.21c-31.79,19.87-60.33,41.13-84.48,69.12c-5.57,6.45-11.399,13.79-18,20.39
				c-2.35,2.351-4.939,5.29-7.44,5.28c-3.68,0-8.37-5.89-11.04-9.12c-9.2-11.12-18.43-22.069-28.56-31.67
				c-13.92-13.22-28.79-25.35-44.4-35.77c-32.54-21.7-69.36-37.851-93.36-67.2c-12.11-14.811-21.59-32.54-24.48-55.92
				c-3.06-24.81,0.81-50.77,7.92-70.32c12.09-33.23,34.86-60.36,72-68.4c18.9-4.08,40.57-1.72,56.16,4.8
				c31.49,13.19,51.17,38.61,64.8,69.36c11.88-24.03,25.62-41.99,46.08-56.4c9.841-6.92,21.62-12.91,35.28-16.08
				c13.15-3.04,30.65-3.06,45.36,0.96C366.943,102.498,385.283,118.608,398.023,140.128z M355.063,243.808
				c-1.149-1.58,1.12-2.44,0.24-4.32c-2.47,0.71-5.021-0.13-6.48-1.2c0.21,1.17-0.329,1.6-0.479,2.4
				c-3.43,1.77-5.22,5.18-10.561,5.04c-0.539-0.57-1.01-1.22-1.68-1.68c3.851-3.18,8.82-6.54,8.4-13.2
				c-0.94,0.27-1.12,1.28-0.96,2.64c-1.561,3.02-4.62,6.52-8.16,9.84c-3.24,3.05-6.72,6.99-10.8,7.44
				c-2.19,0.25-3.181-0.14-3.84-1.44c0.92-2.68,2.97-4.23,6-4.8c-0.16-1.11,0.38-1.54,0.479-2.4c-0.33-0.7-1.11,1.42-1.44,0.72
				c-0.09-0.73,0.631-1.22-0.239-1.44c-5.99,2.17-9.03,8.58-17.28,7.68c0.68-2.28,3.54-2.38,3.84-5.04
				c-0.06,0.7,0.061,0.83,0.48,0.48c0.42-0.22,0.529-0.75,0.479-1.44c-2.399,0.69-3.75,3.55-7.2,2.4
				c-3.729,4.56-15.35,2.35-19.199,0.24c6.35,5.1,17.3,5.73,28.319,6.24c6.59,0.31,13.57,0.03,18.96,1.92
				c3.271,0.73,5.71-1.4,8.4-2.4c2.979-1.1,6.21-1.28,8.4-3.12C351.783,246.458,353.964,245.668,355.063,243.808z M353.144,164.608
				c4.55-5.36,5.93-16.79,1.44-23.04c-2.141-1.53-3.721-3.63-5.761-5.28c0.08-0.56,0.29-0.99,0.48-1.44
				c-1.271-0.25-1.92-1.11-2.88-1.68c-0.23-1.92-0.92-6.13,1.2-6.48c-0.271-1.08-0.92-1.79-0.96-3.12c-2.4-0.32-5.2-0.24-7.92-0.24
				c0.109-0.37,0.76-0.2,0.479-0.96c-0.479,0-0.96,0-1.44,0c-0.84,0.07,0.851,0.65,0,0.72c-4.029,0.57-9.56,0.49-13.92,0
				c-0.529,0.99-2.149,0.89-3.6,0.96c-0.67,0.01,0.57,0.66-0.48,0.48c-2.56,0.56-6.029,0.05-8.88,0.24
				c-5.09,0.35-10.18,1.82-15.359,2.88c-15.721,3.25-30.19,5.88-39.84,15.6c-7.45,7.52-10.61,16.04-14.881,26.88
				c-1.97,5-4,9.58-7.199,13.68c-4.79,6.14-8.891,13.81-6,23.28c-0.021,0.38-0.61,0.19-0.48,0.72c0.14,0.75,1.13,0.64,1.2,1.44
				c-2.14,7.06-8.62,9.78-12.24,15.36c0.46,0.83,1.391,1.17,1.68,2.16c-0.3,1.07-1.41,1.32-1.439,2.64
				c2.11,2.23,4.68,3.36,5.04,7.44c0.18,2.05-0.38,4.53,0.96,5.76c1.11,1.03,2.57,0.15,3.6,1.44c0.12,3.99,2.65,7.58,2.16,12.96
				c0.03,0.85,0.8-0.51,0.72,0.24c-0.739,2.63-2.869,3.85-4.8,5.28c0.86,1.989-0.26,3.279,0,4.8c-0.42-0.221-0.83-0.44-0.72-1.2
				c-1.6,0.56-2.09,2.229-2.88,3.6c-0.83,0.181-2.271-0.26-2.4,0c3.45,3.99,0.01,7.98,0,11.521c-0.3-0.01-0.33-0.3-0.72-0.24
				c-0.06,1.03,0.88,1.05,1.2,1.68c1.069,0.19,0.47-1.279,1.439-1.199c4.431,2.239,11.261-2.46,13.44,1.199
				c3.229-0.399,6.91-0.93,9.12,0.721c0.34-0.141,0.04-0.92,0.479-0.96c1.38,0.63,2.86,1.149,4.32,1.68
				c1.49-1.06,2.71-2.41,5.28-2.4c0.399-0.75-0.891-0.979-0.24-1.199c1.22-0.171,1.9,0.189,2.16,0.96c0.43-0.45,0.18-1.58,0.24-2.4
				c-2.94-2.17-0.95-9.29-2.881-12.48c-2.42-0.609-2.85-3.22-5.52-3.6c-2.8,2.96-1.09,10.43-1.92,15.36
				c-1.7,1.54-5.88,2.02-6.96,0.96c-0.061-0.34-0.391-0.4-0.48-0.721c1.03-0.569,2.311-0.89,2.88-1.92
				c-0.029-1.01-0.93-1.149-0.96-2.159c1.721-3.62,3.19-8.341,3.36-12.24c0.2-4.51-2.51-9.42-2.4-13.92
				c6.391,5.22,5.851,17.35,16.32,18.48c0.55-0.17,0.53-0.91,1.2-0.96c2.37,0.391,3.57-1.13,4.8-1.68
				c3.7-1.63,7.95-2.25,11.521-4.08c3.319-1.69,6.17-3.84,9.119-6c0.971,0.08,0.95,1.13,2.16,0.96c0.511-2.22,3.98-2.46,5.761-4.08
				c-0.94,0.31-0.711-0.56-0.721-1.2c-2.25,0.02-2.3-2.18-4.319-2.4c0.79-1.36-1.29-1.67-1.44-2.88c-4.46-1.46-8.86-4.25-11.52-6.72
				c1.659-0.14,1.88,1.16,3.119,1.44c-1.569-1.51-0.81-1.99-0.96-4.08c-1.12-0.75-2.17,0.3-3.12,0.48
				c-2.729-1.55-5.43-2.94-7.439-5.76c-2.3-3.22-1.53-7.71-3.36-11.04c-0.41-0.74-1.18-1.19-1.68-1.92
				c-1.7-2.48-3.35-6.49-3.84-9.36c-2.73-16.08,6.59-25.14,13.92-33.84c2.81-0.15,4.78-1.14,6.72-2.16c1.88,0.72,3.46,1.27,5.04,0
				c1.66,0.82,1.43,3.54,2.64,4.8c2.74,0.52,2.881-1.36,4.08-2.64c1.92-2.03,5.2-3.77,5.761-5.76c0.409-1.43-0.311-2.82,0.239-3.84
				c0.92-1.67,4.49-1.7,5.521-3.36c-0.4-1.24,0.2-3.02,1.68-3.12c-0.91,1.58-0.399,4.56-1.92,5.52c0.86,2.94-1.17,5.07-2.399,6.72
				c-1.211,0.16-2.24,0.48-3.12,0.96c-0.261,4.14-5.53,3.27-6.721,6.48c0.08,0.57,1.141,0.15,0.96,0.96
				c-0.85,1.31-1.569,2.75-2.159,4.32c0.81,0.32,1.14,1.11,1.68,1.68c2.16-0.24,3.88-0.92,5.76-1.44c0.58,0.63,0.561,1.85,1.68,1.92
				c-1.439,0.88-2.859,1.78-4.8,2.16c-0.2,1-0.279,2.12-1.2,2.4c-0.68-0.12-0.069-1.53-1.199-1.2c-0.82,0.87,0.81,2.46,1.68,3.12
				c-0.06,0.74-1.07,0.53-1.2,1.2c0.79,2.42,2.17,6.43,0,8.4c0.38,0.66,1.34-0.68,1.68,0c-0.909,2.44-1.52,4.89-2.399,7.44
				c-0.79,2.31-2.74,4.03-2.88,5.76c-0.16,2.1,0.63,1.99,0.96,3.12c0.319,1.09,0.02,2.73,0.72,4.08c1.64-1.67,3.59-1.96,5.521-2.88
				c3.439-1.62,3.149-5.59,4.64-9.42c-0.05,0.41-0.07,0.83-0.08,1.26c2.69,7.81-8.91,8.85-5.04,17.04c3.86,0.42,4.66-3.49,8.4-2.4
				c0.97,0.09,0.37-1.38,1.439-1.2c1.891,2.86,3.22,6.66,6.48,8.16c0.85,0.4,2.13-0.25,2.64,0.96c0.98-0.78,2.33-1.19,4.08-1.2
				c2.17-2.72,6.02-2.21,9.84-2.88c3.09-0.54,5.66-2.94,7.92-3.84c3.01,0.88,5.471-2.25,8.16-3.84c2.75-1.61,6.42-5.12,4.8-8.88
				c1.73-4.53,1.431-10.77-1.439-13.68c0.72-3.91-3.53-5.1-3.36-8.88c0.04-0.9,1.23-3.24,1.44-5.04c0.319-2.72,5.229-1.9,5.52-5.04
				c-2.88-1.96-5.12,0.92-7.68,1.44c0.31-2.87,1.479-5.16,3.84-5.76c1.37-0.34,3.28,0.87,4.08-0.96c0.18-2.73-1.87-3.24-1.92-5.76
				c1.609-1.67,4.87-1.69,6.96-2.88c0.109,0.46-0.32,1.45,0.479,1.2C353.304,166.378,353.094,165.368,353.144,164.608z
				 M352.184,221.968c-1.17,0.51-3.34,0.02-3.6,1.44C350.334,223.478,351.943,223.408,352.184,221.968z M349.544,261.808
				c-0.23-0.56-1.03-0.56-1.44-0.96c0.04-0.84,0.69-1.069,0.72-1.92c-2.72-2.97-7.46-0.05-11.04-0.479
				c-1.939-0.23-3.029-1.99-5.039-1.44c-1.91-1.13-2.261-3.81-5.521-3.6c1.37,2.56,4.45,3.399,5.76,6
				c5.09,0.35,8.32,2.56,11.761,4.56c-3.82,2.351-5.851,6.47-11.28,7.2c-1.67,1.52-2.88,4.3-0.72,6c2.21,0.56,4.289-2.37,6.72-0.96
				C343.414,271.998,347.424,267.848,349.544,261.808z M344.504,229.648c0.819-1.74,2.66-3.74,2.64-5.52
				C346.004,225.558,344.014,227.398,344.504,229.648z M324.823,253.888c0.131,1.15,1.36,1.21,2.641,1.2
				C327.334,253.938,326.184,253.818,324.823,253.888z M321.224,278.368c0.16-2.08,2.05-2.431,2.64-4.08
				c-0.609-0.42-1.399-0.681-1.92-1.2c0.7,1.16-0.55,2.28-1.199,1.92c1.68-3.83-0.341-8.33,0-11.52c-2.83,2.85-2.86,8.5-4.08,12.96
				c1.5-0.221,1.96,0.609,2.159,1.68c-0.42,0.22-0.3,0.979-1.199,0.72c0.029,0.78,0.85,1.49,0.239,2.16
				c2.391,0.771,3.29-1.54,5.521-1.68c-0.96-0.04-1.67-0.34-1.2-1.2C321.414,277.647,321.434,279.078,321.224,278.368z
				 M319.544,263.248c0.47-0.891,0.96-1.76,1.92-2.16c-0.32-2.57-1.28-7.01-3.12-6.48
				C320.604,255.978,318.884,260.818,319.544,263.248z M309.464,256.048c-2.141-0.08-4.04,1.44-6.48,1.2
				c-0.989-0.09-1.7-0.9-2.64-0.72c-2.061,0.409-2.42,2.869-2.4,6c-1.34,2.1-3.489,3.399-4.56,5.76
				C302.903,268.368,306.494,262.518,309.464,256.048z M300.104,317.248c3.05-2.55,6.43-6.8,5.04-12.24
				c-1.649-0.66-3.42-1.21-6-0.96c1.96-6.979-0.42-13.55-2.88-18.24c-0.78-0.27-1.84-1.21-2.88-0.479
				c0.399,3.52,1.32,5.56-2.64,6.479c-0.681-2.279-1.841-4.069-3.36-5.52c-1.51,0.64-3.64-0.13-4.08,0
				c-1.94,0.609-3.4,3.319-4.56,4.319c-3.721,3.24-6.641,8.04-10.561,10.32c2.59-3.83,4.78-11.06,2.4-16.56
				c0.84,10.3-5.45,15.5-12,19.2c0-1.351,1.79-0.931,1.92-2.16c-0.96-0.53-1.641,0.149-2.4,0.479c-0.52-3.18-4.899-1.16-5.04,0.96
				c-2.43,0.51-5.41,0.15-7.92,0c-0.05-0.45,0.271-0.52,0.24-0.96c-5.84,1.771-13.771,1.431-19.68,3.12
				c-0.95-0.16-1.181-1.05-1.921-1.439c0.79-0.41,1.141-1.261,1.921-1.681c0.79,0.58,0.81,1.92,2.159,1.92
				c1.29-0.359,1.33-2.12,2.4-1.439c0.92-1.761,0.32-4.32-0.72-5.521c-0.891-0.05-2.74-0.189-4.08-0.479
				c-0.681,1.21,0.09,2.54-0.48,3.6c-0.84-1.96-1.31-4.29-4.319-4.08c-1.061,3.58,3.159,6.771,0.479,9.84
				c0.76,2.12,2.69,4.48,2.88,7.2c0.38,5.26-4.38,7.351-4.08,12.24c0.13,2.18,1.601,4.77,2.88,6.72
				c2.681,4.09,5.21,6.851,10.801,7.92c2.729-3.29,6.05-3.97,10.56-6.239c3.71-1.86,7.29-3.841,11.28-3.12
				c10.39-3.21,19.92-10.57,34.08-9.12c0.189-0.771-1.55-0.82-0.96-1.2C293.554,320.808,296.823,318.928,300.104,317.248z
				 M299.624,318.218c-1.311,1-3.28,1.351-4.801,2.15C297.014,320.397,299.403,319.357,299.624,318.218z M276.584,239.248
				c0.26,1.27,2.18,2.14,3.12,1.92C278.854,240.338,277.733,239.788,276.584,239.248z M264.104,287.008
				c-0.109-0.75,0.43-0.84,0.24-1.68c-0.99,0.13-1.49,0.76-2.16,1.2c-0.29-0.74-0.58-1.49-0.96-2.16
				c-4.77-1.87-3.16,4.609-3.12,7.68c1.82,1.19,5.021-0.57,4.08-2.88c0.24,0,0.48,0,0.72,0c0.24-1.12-0.96-0.79-0.72-1.92
				C262.813,286.838,263.794,285.728,264.104,287.008z M264.104,296.128c0.601-1.41-1.27-2.59-1.2-1.92
				c1.551,0.68-1.34,0.62-1.199,1.439c0.93,0.131,1.17-0.42,2.159-0.239C263.903,295.698,263.823,296.098,264.104,296.128z
				 M259.783,295.888c-2.229-0.28-3.3,1.24-2.64,3.12C259.244,299.188,259.744,297.768,259.783,295.888z M255.704,293.488
				c1.229-1.28,1.43-2.931,1.199-4.561c-0.77-5.47-8.87-6.49-8.64,0.24c0.08,2.17,1.51,3.21,3.12,4.32c0.54-2.04,1.13-4.4,0.96-6.48
				c1.74,0.75,1.45,3.521,1.439,6c0.681-0.12,1.021-0.58,1.681-0.72C255.594,292.638,255.184,293.538,255.704,293.488z
				 M253.544,299.968c0.42-0.7,0.569-1.67,0.479-2.88c-0.91,0.22-1.529-0.39-1.92,0
				C251.684,298.228,252.533,299.548,253.544,299.968z M250.664,296.128c-2.061-0.22-3.11,0.57-3.841,1.68
				c0.66,0.55-0.159,2.561,0.48,3.12c0.78-0.06,1.26-0.88,1.68,0C249.943,299.728,250.084,297.718,250.664,296.128z
				 M247.063,293.968c1.09-3.58,0.37-9.37-2.64-9.36c-3.09,0.021-3.83,5.381-3.84,9.36
				C242.514,295.818,245.744,293.238,247.063,293.968z M243.704,298.288c0.17-2.28-3.54-2.74-4.801-1.44
				c-0.75,1.98,1.271,2.55,1.2,4.561c0.72,0,1.44,0,2.16,0c-0.11-1.15,0.43-1.65,1.2-1.92c0.399-0.9-1.11-1.091-0.48-1.44
				C243.294,298.068,243.313,298.357,243.704,298.288z M242.023,336.218c-0.899,0.21-1.72,0.51-2.399,0.95
				C240.664,337.088,241.724,337.028,242.023,336.218z M234.823,301.888c1.351-0.859,3.69-2.56,2.16-4.8
				c-3.399-0.68-6.17-0.76-5.279,3.84c1.119,0.69,3.109,2.53,4.319,0.96C235.594,301.748,235.033,302.598,234.823,301.888z
				 M233.863,294.448c7.57,4.39,8.351-9.181,2.641-10.08c-1.67,0.819-2.26,2.7-2.88,4.56c-0.57-1.34-0.78-3.05-1.2-4.56
				c-0.59-0.4-1.92,0.46-1.92-0.96c-1.12,0.08-1.13,1.729-2.4,0.96c-0.31,0.81-0.67,1.569-1.2,2.16
				c-0.149-1.45-0.33-2.86-0.96-3.841c-2,0.08-3.149,1.011-4.08,2.16c-0.34-1.09-1.359-1.51-2.399-1.92
				c-1.66,3.08-1.76,9.76,0.479,12.24c1.351-2.32,4.761,0.939,6.24-0.96c1.71,2.14,7.64,2.08,7.68-1.44
				C233.863,293.328,233.863,293.888,233.863,294.448z M217.304,268.288c0.49-2.95,2-4.87,5.52-4.8
				C220.384,260.647,214.354,265.658,217.304,268.288z M213.464,228.448c0.19-1.54-1.43-1.28-1.2-2.88c0.16-1.2,1.53-1.19,1.68-2.4
				c-4.41-4.78-10.15-8.24-12.48-15.12c0.47-0.57,1.35-0.73,1.44-1.68c-0.72,0.25-0.42-0.53-0.48-0.96c2.37-9.69-1.23-16.23-6-22.08
				c-3.1-3.8-5.07-8.68-6.72-12.96c-3.97-10.3-7.07-17.82-13.44-25.68c-6.02-7.43-15.54-11.45-24.96-14.16
				c-12.46-3.57-26.44-6.65-41.52-6.96c-0.67,0,0.57-0.65-0.48-0.48c-1.13,0.1-1.65-0.42-2.88-0.24c-0.56-0.35,0.47-0.76-0.48-0.72
				c-4.44,0.47-10.01,0.54-14.16,0c0.21-0.42,0.9-0.83-0.24-0.72c-1.53-0.17-0.36,0.78-0.72,0.96c-2.65-0.01-5.35-0.07-7.68,0.24
				c-0.03,1.33-0.54,2.18-0.96,3.12c2.45,0.28,1.06,4.38,1.44,6.72c-1.47-0.03-1.59,1.29-2.88,1.44c-0.12,0.76,0.43,0.85,0.24,1.68
				c-2.12,1.32-3.35,3.53-5.52,4.8c-0.84,2.52-2.68,4.87-3.12,7.92c-0.82,5.78,2.27,11.96,4.32,15.6c-0.1,0.83,0.1,1.35,0.24,1.92
				c1.01,0.37,0.04-1.24,0.72-1.2c2.14,1.78,6.14,0.74,6.72,3.12c0.51,2.08-2.26,3.36-1.92,5.04c0.36,1.75,2.54,1.77,4.56,1.44
				c1.44,1.37,3.93,2.95,3.12,5.76c-2.18-0.8-4.25-3.07-7.2-1.68c0.36,2.13,1.87,3.1,4.08,3.36c0.83,2.07,2.41,4.44,2.64,6.48
				c0.43,3.84-3.83,5.41-3.36,9.6c-1.06,1.99-2.53,3.43-2.64,6c-0.11,2.58,1.08,5.38,1.2,7.68c0.07,1.21-0.58,2.23-0.24,3.36
				c0.54,1.82,3.83,4.29,5.28,5.28c2.45,1.67,4.8,4.59,8.16,3.84c1.93,0.83,3.97,2.85,6.48,3.6c4.05,1.23,8.92-0.11,11.28,3.12
				c1.84-0.08,2.87,0.66,4.08,1.2c0.03-0.37-0.03-0.83,0.48-0.72c5.08-0.68,6.34-5.18,8.64-8.64c0.54,0.34,0.47,1.29,1.2,1.44
				c3.84-1.24,5.06,3.38,8.88,2.16c0.87-1.65,0.08-4.24,0-5.52c-1.63-3.49-6.19-4.66-6-9.36c0.08-1.96,0.29-3.38,0-5.52
				c-0.59-4.37-4.4-6.38-4.8-10.32c0.7,0.34,0.76,1.32,1.2,1.92c3.7,0.02,3.77,5.65,4.56,9.36c0.18,0.74-0.83,0.3-0.48,1.2
				c1.15,3.41,1.18,6.55,3.36,8.64c1.94,1.86,5.28,1.54,6.72,4.08c0.59-1.59,0.5-3.1,0.96-4.56c0.23-0.7,0.92-1.03,0.96-1.92
				c0.11-2.15-1.89-4.64-2.88-6.96c-1.1-2.58-1.97-4.78-2.4-7.44c0.71-0.06,1.19,0.95,1.44,0c-2.34-1.96-0.48-5.8,0-8.4
				c-0.03-0.69-1.31-0.12-1.2-0.96c1.27-0.72,1.93-1.7,1.92-2.88c-1.08-0.96-0.64,1.14-1.68,0.96c-0.36-0.75-0.8-1.44-0.96-2.4
				c-1.92-0.32-3.18-1.29-4.56-2.16c1.16-0.12,0.82-1.73,1.68-2.16c1.7,0.87,3.49,1.64,6.24,1.44c-0.38-1.34,1.03-0.89,1.2-1.68
				c-0.96-1.35-1.57-3.06-2.4-4.56c0.56-0.08,1.04-0.24,1.2-0.72c-1.59-2.73-6.46-2.18-6.72-6.24c-1.24-0.27-1.99-1.04-3.6-0.96
				c-0.91-2.05-3.01-3.9-2.16-6.96c-1.43-0.88-1.07-3.56-1.68-5.28c1.31,0.38,1.88,1.49,1.68,3.36c2.68,1.73,6.56,2.25,5.76,7.44
				c1.56,2.18,3.97,3.68,5.76,5.52c1,1.04,1.67,3,3.84,2.4c1.46-1.1,0.85-4.27,2.88-4.8c0.91,0.05,0.91,1.01,1.92,0.96
				c1.11-0.25,1.87-0.84,3.12-0.96c1.83,1.13,3.95,1.98,6.72,2.16c7.18,8.91,16.7,17.9,13.68,34.32c-0.63,3.43-3.91,8.45-5.28,11.04
				c-1.6,3.04-1.52,8.21-3.36,10.8c-1.93,2.72-5.38,4.45-7.68,5.76c-0.85-0.27-2.06-1.17-3.12-0.48c0,1.97,0.57,2.64-0.96,4.08
				c1.24-0.12,1.9-2.09,3.36-1.2c-3.92,3.2-9.25,5-13.2,8.16c-0.27,0.76-0.02,0.55,0,1.44c-2.22-0.05-1.98,2.34-4.32,2.16
				c0.05,0.84,0.61,1.4-0.72,1.2c1.66,1.62,5.04,1.52,5.76,4.08c1.46,0.34,1.1-1.14,2.4-0.96c5.35,4.89,12.87,7.61,20.64,10.08
				c1,1.25,2.72,1.77,5.04,1.68c0.76-0.109,0.09,1.2,0.96,0.96c10.19-1.09,10.02-13.81,16.08-18.24
				c-1.94,8.65-3.22,18.99,0.96,26.16c-0.08,0.88-0.95,0.971-0.72,2.16c0.44,1.09,2.1,0.95,2.64,1.92
				c-1.49,1.83-6.07,1.19-7.44-0.96c-0.94-3.24,1.28-14.37-2.16-14.88c-2.08-0.3-2.46,3.49-5.04,3.36
				c-2.12,3.08-0.3,10.1-2.88,12.72c0.13,0.93-0.43,1.18-0.24,2.16c0.64,0.35,1-1.3,2.64-0.72c-0.1,0.46-0.51,0.609-0.48,1.199
				c2.94-0.21,3.69,1.75,5.76,2.4c1.22-0.7,2.77-1.07,4.08-1.68c0.1,0.46,0.09,1.04,0.72,0.96c1.84-1.98,5.86-0.88,8.88-0.721
				c2.01-3.689,9.09,1.07,13.44-1.199c0.49,0.329,0.79,1.55,1.44,0.96c2.21-2.24-1.82-5.381-1.44-8.641
				c0.21-1.779,1.84-2.54,1.44-4.319c-0.61,0.71-1.61-0.221-2.16,0.239c-0.5-1.58-1.42-2.729-2.64-3.6
				c-1.01,2.939-1.34-1.79-0.96-3.6c-1.93-1.5-4.13-2.74-4.8-5.521c0.66-0.02,0.49,0.4,0.96,0c-0.8-4.86,1.86-9.43,2.16-13.2
				c0.83-0.53,2.08-0.64,3.12-0.96c1.08-1.15,1.28-3.2,1.68-5.04C207.454,232.988,211.574,230.578,213.464,228.448z
				 M212.744,267.328c2.53-3.061-3.3-7.54-5.76-4.8C210.753,262.278,211.944,264.618,212.744,267.328z M209.864,294.208
				c2.34-2.62,2.48-9.36,0.24-12.24c-1.02,0.42-1.6,1.29-2.4,1.92c-0.54-1.45-1.92-2.08-3.84-2.16c-0.62,0.9-0.56,2.48-0.96,3.601
				c-0.41-0.54-0.99-0.92-0.96-1.92c-1.49,0.72-1.45-0.74-2.64-0.96c0.07,1.27-0.86,0.819-1.68,0.72c-0.72,1.45-0.58,3.75-1.68,4.8
				c-0.22-2.16-1.03-4.59-2.88-4.56c-4.65,0.1-5.13,15.279,2.88,10.08c0.15-0.49-0.29-1.57,0.24-1.681c0.29,1.99,1.34,2.66,2.4,2.88
				c2.14,0.46,3.86-1.27,5.28-1.439c-0.11,0.02,1.15,0.72,1.2,0.72C207.174,294.128,209.003,292.238,209.864,294.208z
				 M209.864,324.688c0.55-5.14-4.18-7.649-4.08-12.239c0.07-3.16,2.53-5.681,2.88-8.16c-2.27-3.021,1.37-5.63,0.72-9.36
				c-3.43-0.47-3.42,2.5-4.8,4.08c0.38-1.15,0.2-2.39,0-3.6c-1.44,0-2.85,0.76-4.08,0.239c-1.19,1.261-1.94,4.091-0.72,5.761
				c1.12-0.721,0.77,1.42,2.4,1.439c1.63-1.439,2.54-2.45,3.84,0c-1.74,1.86-3.64,0.7-6.72,0.24c-4.97-0.73-10.76-0.85-14.4-2.16
				c-1.15,2.061-5.85,1-8.4,0.96c-0.06-2.01-1.44-2.72-3.6-2.64c-0.78,0.27-0.9,1.18-1.44,1.68c-0.34-0.7-1.42-0.81-2.16-0.479
				c0.08,1.279,2.03,0.689,1.92,2.159c-6.67-3.81-12.28-8.67-12.24-19.199c-1.71,6.029,0.05,12.449,2.64,16.56
				c-4.13-2.41-6.98-7.52-10.32-10.32c-3.08-2.579-4.31-5.14-8.88-4.319c-1.53,1.43-2.55,3.38-3.36,5.52
				c-3.34-0.55-3.36-3.18-2.4-6.479c-4.12-0.8-4.34,3.649-5.52,7.2c-1.01,3.039-1.63,7.75-0.48,11.52c-2.37-0.32-3.5,0.24-5.52,0.72
				c0.08,0.99-0.61,1.03-0.72,1.92c-0.62,5.141,2.98,7.87,5.28,10.561c2.33-0.03,3.51,2.439,5.76,2.88c1.93,0.38,3.72-0.62,6,0
				c-0.36,0.45-1,0.6-1.2,1.2c4.78,0.069,10.55-0.21,14.4,1.2c2.78,1.029,5.85,2.039,8.4,3.359c3.06,1.59,6.8,3.3,9.84,3.601
				c0.28,0.77,1.41,0.68,1.92,1.199c0.97-0.52,2.32-0.699,3.36-0.479c5.2,1.14,10.56,5.84,15.84,7.2c0.42,1.1,1.44,1.609,2.16,2.399
				c2.26-0.609,4.07-0.97,5.52-1.92C204.854,334.878,209.434,328.798,209.864,324.688z M198.104,299.968c0-1.12,0-2.24,0-3.36
				c-1.13-1.659-3.04-0.31-5.28-0.479c0.02,0.42-0.18,0.62-0.48,0.72c-0.32,2.57,1.58,2.9,2.64,4.08c-0.08,0.8-1.04-0.63-1.2,0.24
				C195.424,302.168,196.874,300.738,198.104,299.968z M189.704,300.448c-0.08-1.95,1.81-2.101,1.44-3.841
				c-0.47-2.229-4.7-1.989-5.04,0.721c0.6,0.319,0.75-0.94,0.96-0.24c-0.07,0.57-0.83,0.45-0.72,1.2c0.56,0.569,1.47,0.77,1.2,2.16
				C188.264,300.448,188.984,300.448,189.704,300.448z M189.224,293.008c0.04-4.6-0.46-8.65-4.32-9.36
				c-2.5,1.301-3.55,6.811-1.68,9.601c0.04-0.28-0.04-0.68,0.24-0.72C184.744,293.647,187.664,294.147,189.224,293.008z
				 M182.744,299.968c0.02-1.1-0.1-2.34,0.24-3.12c-0.57-1.029-2.24-2.229-3.84-1.439c0.95,1.22,0.62,3.71,1.92,4.56
				C181.194,298.778,181.964,300.308,182.744,299.968z M178.424,292.288c4.86-1.141,3.13-8.891-0.72-9.12
				c-3.84-0.22-6.64,6.229-3.36,9.36c0.13-0.341-0.28-1.24,0.24-1.2c0.63,0.1,0.73,0.72,1.44,0.72c-0.02-2.45-0.21-6.26,1.92-5.76
				C176.724,288.288,178.253,290.258,178.424,292.288z M176.984,299.008c0.06-1.13,1.17-1.229,0.96-2.64
				c-0.42-0.63-1.38-0.271-2.16,0C175.994,297.448,175.764,298.958,176.984,299.008z M172.664,298.048
				c0.96-1.85-0.76-3.89-2.64-2.88C170.364,296.668,170.514,298.357,172.664,298.048z M171.944,290.848c-0.19-3,0.68-5.6-0.48-7.68
				c-1.13-0.09-2,0.08-2.88,0.24c-0.35,0.689-0.49,1.59-0.96,2.16c-0.52-0.511-1.11-0.961-1.92-1.2c-0.4,0.43-0.06,1.479,0.48,1.68
				c0.04-0.28-0.04-0.68,0.24-0.72c0.1,0.71,1.13,0.47,1.44,0.96c-0.11,0.85-1.07,0.85-0.96,1.92c1.22-0.34,0.55,1.21,0.72,1.92
				C168.624,291.078,170.684,292.208,171.944,290.848z M168.104,294.688c0.02-1.06-1.86-0.21-1.68-1.439
				c0.28-0.03,0.68,0.05,0.72-0.24c-1.16-0.189-1.88,1.311-1.2,2.16C165.753,293.748,167.464,294.768,168.104,294.688z
				 M150.583,240.448c0.91-0.61,2.26-0.77,2.64-1.92C152.134,238.808,150.124,239.428,150.583,240.448z M120.344,255.088
				c2.95,6.26,6.94,12.74,16.08,12c-1.33-2.58-4.28-3.2-4.8-6c-0.38-2.03,0.56-5.12-2.4-5.52c-1-0.131-1.77,0.659-2.64,0.72
				C124.454,256.448,122.974,255.107,120.344,255.088z M143.384,244.288c-4.22,3.26-15.54,4.35-19.68,0.24
				c-3.23,1.05-4.53-1.85-6.96-2.4c0,1.15,0.89,1.78,1.44,1.68c0.18,2.46,3.29,2,3.36,4.56c-8.69,0.22-11.06-5.89-17.52-7.92
				c-0.14,0.43,0.29,1.41-0.24,1.44c-0.48-0.24-0.38-1.06-1.2-0.96c0.15,0.89,0.65,1.43,0.48,2.64c3.29,0.48,5.2,2.33,6.24,5.04
				c-3.76,3.2-8.68-0.72-11.28-2.88c-4.38-3.63-9.63-9.16-11.76-13.68c0.14-1.17-0.02-2.05-0.96-2.16
				c-0.39,6.72,4.89,9.84,8.4,13.44c-1.06-0.02-0.83,1.25-1.68,1.44c-5.57-0.66-9.39-3.09-11.28-7.44c-1.2,1.31-3.9,1.75-6.24,1.2
				c-0.46,2.48,1.64,2.79,0.24,4.32c1.29,1.68,3.32,2.61,4.32,4.56c1.97,1.67,5.41,1.91,8.64,3.12c2.23,0.85,3.68,2.22,6,2.4
				c2.91,0.23,5.76-1.26,8.64-1.44C117.804,250.528,135.224,251.888,143.384,244.288z M111.224,277.168
				c-0.08-1.28,0.6-1.8,1.92-1.68c-1.23-4.521-0.96-10.561-4.32-12.96c-0.35,3.529-0.29,8.79,0,11.52c-1.23,0.19-0.69-1.38-1.2-1.92
				c-1.6,2.01,0.74,3.57,0.96,5.28c-1.27-0.66-0.65,1.13-2.16,1.199c2.6-0.289,3.19,2.221,5.52,1.44c-0.16-0.96,0.23-1.37,0.24-2.16
				C111.724,277.788,111.154,277.808,111.224,277.168z M110.264,256.048c0.2-1.229,1.25-2.27,0.96-2.64
				c-2.19,1.1-2.44,4.13-2.64,7.199c1.68-0.479,0.84,1.57,1.92,1.681C110.784,260.378,109.964,257.968,110.264,256.048z
				 M105.224,252.928c-1.42-0.06-2.75-0.03-2.88,1.2C103.804,254.238,104.784,253.848,105.224,252.928z M102.824,252.448
				c-3.01-0.54-3.84,2.72-6,3.6c-0.35,0.15-0.91-0.1-1.44,0c-1.19,0.24-2.51,1.35-3.6,1.44c-3.15,0.279-7.54-2.2-10.56,0.239
				c-0.22,1.11,0.6,1.16,0.48,2.16c-0.51,0.45-1.43,0.49-1.44,1.44c2.6,5.41,6.17,9.83,10.08,13.92c2.55-1.21,4.33,1.06,6.96,1.2
				c1.51-2.03,0.99-4.19-0.48-6c-5.4-1.07-8.33-4.62-11.52-7.92c3.89-1.391,6.56-3.99,11.76-4.08
				C98.204,255.668,101.394,254.938,102.824,252.448z M85.543,228.688c-0.07-2.88-1.72-4.19-3.12-5.76
				C83.234,225.088,84.234,227.048,85.543,228.688z M77.624,221.248c0.51,1.09,1.87,1.34,3.6,1.2
				C81.114,221.118,78.454,221.068,77.624,221.248z"/>
			<path fill="#D62027" d="M317.384,202.768c-2.2,2.51-3.48,7.82-6.24,10.32c-1.649,1.5-2.43,0.71-4.32-0.24
				c-0.93-0.46-2.109-0.49-2.64-0.96c-0.67-0.6-1.68-3.13-1.68-3.6c0-0.94,1.41-3.27,2.399-4.32
				C308.573,200.108,314.044,199.018,317.384,202.768z"/>
			<path fill="#D62027" d="M300.584,198.208c0.05-0.88,0.62-2.09,1.199-1.68c-1.26,3.6-4.579,6.76-5.359,11.76
				c-0.18-0.3-0.521-0.12-0.641-0.96C296.854,203.878,296.604,197.968,300.584,198.208z"/>
			<path fill="#D62027" d="M296.504,208.528c-0.061,0.14-0.12,0.28-0.16,0.42c0.02-0.23,0.05-0.44,0.08-0.66
				C296.454,208.348,296.483,208.418,296.504,208.528z"/>
			<path fill="#D62027" d="M250.184,216.928c1.46,1.94,1.79,6.27,1.44,10.56c-0.471,5.77-3.83,11.28-8.4,12.96
				c-4.729,1.76-10.04-5.69-7.2-11.04c-0.939-1.52-0.479-4.87,0.24-6.24c-1.15-0.47-1.26-2.6-0.24-3.36
				c1.221,0.14,1.15,2.19,2.4,0.96c-1.21,0.12-0.641-1.13-0.96-1.68c-0.601-1.01-1.58-1.52-2.16-2.4c3.54-1.13,2.67,4.22,6.24,3.84
				c1.41-2.19-1.73-2.95-1.92-5.04c-2.46-0.62-3.58-2.92-5.28-5.04c-2.14-2.67-3.12-3.84-1.44-8.16c2.07,0.23,1.851-1.83,3.601-1.92
				C238.294,206.748,245.954,211.308,250.184,216.928z"/>
			<path fill="#D62027" d="M233.384,214.528c0.84-0.03,0.39,1.22,1.2,1.2c-0.03,0.6-0.811,0.07-0.96,0
				c-3.29,5.99-8.261,10.3-11.521,16.32c-1.28-3.39,1.21-4.8,2.88-6.72c1.431-1.64,3-3.8,4.561-5.52c0.54-0.59,1.3-1.13,1.68-1.68
				C232.144,216.818,232.184,215.508,233.384,214.528z"/>
			<path fill="#D62027" d="M197.624,214.528c2.05,6.92,10.1,7.83,10.32,16.56c-3.3-5.81-8.29-9.95-11.28-16.08
				c-0.42-0.44-0.61,0.2-1.44,0c0.14-0.58,0.93-0.51,0.72-1.44C196.894,213.508,196.684,214.598,197.624,214.528z"/>
			<path fill="#D62027" d="M197.144,201.328c3.14,9.77-7.59,10.64-9.12,18c3.68,1.18,2.69-4.33,6.48-3.84
				c-0.24,1.52-2.93,1.86-1.92,3.84c0.04,0.52-0.85,0.11-1.2,0.24c0.92,1.62,1.37-0.45,2.4-0.72c0.39,0.49,0.78,0.99,0.96,1.68
				c-0.13,0.67-0.25,1.35-1.2,1.2c0.52,1.85,1.52,4.51,0.48,6.48c2.55,4.63-2.1,13.51-7.92,11.04c-5.11-2.16-10.43-12.32-7.44-21.36
				c1.08-3.25,5.92-7.02,8.4-9.6c2.64-2.73,5.1-5.38,6.48-9.12C194.824,199.818,195.014,201.548,197.144,201.328z"/>
			<path fill="#D62027" d="M127.543,207.088c0.02,0.47-1.17,3.18-1.92,3.84c-0.71,0.63-3.99,2.19-4.8,2.16
				c-2.15-0.06-3.53-3.34-4.56-5.04c-1.39-2.29-2.63-3.91-3.6-6c1.75-2.46,5.37-3.42,8.16-2.16
				C122.454,200.628,127.454,204.968,127.543,207.088z"/>
		</g>
	</g>
</g>
</svg>
