<?xml version="1.0" encoding="UTF-8"?>
<!DOCTYPE svg PUBLIC "-//W3C//DTD SVG 1.1//EN" "http://www.w3.org/Graphics/SVG/1.1/DTD/svg11.dtd">
<!-- Creator: CorelDRAW -->
<svg xmlns="http://www.w3.org/2000/svg" xml:space="preserve" width="4.57836in" height="4.15874in" shape-rendering="geometricPrecision" text-rendering="geometricPrecision" image-rendering="optimizeQuality" fill-rule="evenodd" clip-rule="evenodd"
viewBox="0 0 5.60384 5.09023"
 xmlns:xlink="http://www.w3.org/1999/xlink">
 <g id="Layer_x0020_1">
  <metadata id="CorelCorpID_0Corel-Layer"/>
  <path fill="#FFF212" stroke="#373435" stroke-width="0.0424973" d="M4.62161 4.17804l0.0127506 -0.182745c0,0 -0.184865,-0.110515 -0.138118,-0.510011 0.0467475,-0.399496 0.633243,-0.46324 0.85849,-0.165744 0.225247,0.297496 0.0382519,0.57374 0.0127506,0.616243 0,0 0.135997,0.216751 0.131747,0.356999 -0.00425021,0.140247 -0.293246,0.259249 -0.293246,0.259249l-0.233747 0.00425021c0,0 -0.37825,-0.153003 -0.350628,-0.37824z"/>
  <path fill="#FE9F05" d="M4.61293 4.18197l0.0108087 -0.162366c0.00212511,-0.0573731 -0.156689,-0.0981886 -0.117069,-0.453135 0.0396205,-0.354946 0.536732,-0.411577 0.727644,-0.147259 0.190913,0.264318 0.0324211,0.509756 0.0108038,0.547521 0,0 0.115271,0.19258 0.111667,0.317186 -0.00359967,0.124606 -0.248551,0.230336 -0.248551,0.230336l-0.198117 0.00377797c0,0 -0.320597,-0.135939 -0.297187,-0.336061z"/>
  <ellipse fill="#373435" cx="4.7555" cy="3.57984" rx="0.0722488" ry="0.0711839"/>
  <ellipse fill="#373435" cx="4.97225" cy="3.56709" rx="0.0722488" ry="0.0711839"/>
  <path fill="#FE4904" stroke="#ED3237" stroke-width="0.0424973" d="M5.01158 3.80413c0,0 -0.142623,0.0203692 -0.239838,0.018726 -0.049316,-0.000833659 -0.0869559,-0.00733909 -0.0883678,-0.0250387 -0.00421166,-0.052588 -0.00631268,-0.1052 0.206179,-0.122027 0.212487,-0.0168274 0.239838,0.0946757 0.248257,0.113614 0.00841369,0.0189332 0.00210101,0.117811 -0.157793,0.138855 -0.159894,0.021039 -0.223016,0.0357606 -0.279815,-0.00210583 -0.0568045,-0.0378664 -0.0190681,-0.0981694 0.0408927,-0.104733 0,0 0.0963912,0.00901605 0.270486,-0.01729z"/>
  <path fill="none" stroke="#373435" stroke-width="0.0424973" d="M4.62161 4.17804l0.0127506 -0.182745c0,0 -0.184865,-0.110515 -0.138118,-0.510011 0.0467475,-0.399496 0.633243,-0.46324 0.85849,-0.165744 0.225247,0.297496 0.0382519,0.57374 0.0127506,0.616243 0,0 0.135997,0.216751 0.131747,0.356999 -0.00425021,0.140247 -0.293246,0.259249 -0.293246,0.259249l-0.233747 0.00425021c0,0 -0.37825,-0.153003 -0.350628,-0.37824z"/>
  <path fill="#D9995B" d="M5.60384 4.28705l-5.31244 0c0,0 0.182851,0.447516 0.607848,0.600519 0.424997,0.153003 0.857305,0.139505 1.02508,0.0305322 0.167777,-0.108973 0.806659,-0.213287 1.4314,-0.0432876 0.624743,0.169999 2.00174,0.301736 2.2481,-0.587763z"/>
  <line fill="none" stroke="#373435" stroke-width="0.0424973" x1="5.60384" y1="4.28706" x2="0.291405" y2= "4.28706" />
  <path fill="#77432E" d="M0.890507 2.96124l-0.255639 0.213494c0,0 -0.244908,0.443858 -0.00738246,0.890801 0.237525,0.446942 0.547425,0.53597 0.917343,0.51908 0.369918,-0.01689 0.442133,-0.194296 0.430693,-0.297558 -0.0114399,-0.103263 -0.00365268,-0.293674 -0.261711,-0.312502 0,0 -0.0734005,-0.280384 -0.0541686,-0.418415 0.019232,-0.138031 0.118004,-0.142334 0.319364,-0.183757 0.20136,-0.0414227 0.639243,-0.0267253 0.639243,-0.0267253 0,0 -0.152796,-0.284495 -0.15083,-0.345101 0.00196609,-0.0606065 0.040324,-0.0295539 0.137351,-0.0798963 0.0970273,-0.0503424 0.142864,-0.0813275 0.142864,-0.0813275 0,0 -0.118876,-0.131318 -0.162019,-0.207292 -0.0431431,-0.0759738 -0.366954,0.140016 -0.37758,0.154892 -0.0106255,0.0148758 -0.150873,0.0828744 -0.161499,0.0934999 -0.0106255,0.0106255 -1.15603,0.0808071 -1.15603,0.0808071z"/>
  <path fill="#FEFEFE" d="M2.5312 4.89748l0 -0.348494c0.678112,-0.00425021 0.641257,-1.00724 0.643585,-1.0242 0.0023275,-0.109759 -0.336364,-0.184995 -0.754167,-0.184995 -0.417803,0 -0.756495,0.0752365 -0.759714,0.184995 -0.00146493,0.00771496 -0.0110303,0.219537 0.052588,0.448542 0.0817034,0.0116038 0.17955,0.0372255 0.203842,0.093789 0.0435141,0.101321 0.0695744,0.15521 0.0566503,0.252724 -0.00330572,0.0249471 -0.0115363,0.0485691 -0.0219353,0.069931 0.105904,0.0947576 0.249794,0.158149 0.44513,0.15921l0 0.348494 0.134022 0z"/>
  <path fill="#01A9F4" d="M1.76109 3.5902c0,0 0.00147938,0.204805 0.0786338,0.4143 0.036416,0.0148276 0.0657627,0.0350426 0.0776074,0.0626208 0.0317947,0.0740366 0.0542746,0.122755 0.0590308,0.181665 0.0989211,0.118143 0.243236,0.203408 0.453988,0.199355 0.66299,-0.0127458 0.68601,-0.654702 0.661752,-0.862847 0,0 -0.734058,-0.244932 -1.33101,0.00490558z"/>
  <path fill="#FEFEFE" stroke="#373435" stroke-width="0.0424973" stroke-linecap="round" d="M3.41054 1.10629c-0.461346,0.038435 -0.850433,0.321831 -0.958192,0.747546 -0.0888594,0.351057 0.0344691,0.716359 0.295284,0.9855 0.159441,0.164525 0.37027,0.29312 0.615404,0.36055 0.646143,0.177738 1.28601,-0.136739 1.4292,-0.702403 0.0981549,-0.387781 -0.0626353,-0.792887 -0.381618,-1.0666 0.127208,-0.170081 0.302074,-0.430934 0.350079,-0.636082 0,0 0.0133,-0.21027 -0.163893,-0.174312 -0.129829,0.0263494 -0.392027,0.400918 -0.52294,0.599304 -0.0479474,-0.0210535 -0.09762,-0.0397024 -0.148936,-0.0555949 0.0639219,-0.231083 0.171083,-0.666358 0.106405,-0.78031 -0.0892497,-0.157248 -0.242248,-0.0127506 -0.242248,-0.0127506 -0.212024,0.168274 -0.33608,0.573673 -0.378544,0.735152z"/>
  <path fill="#ED3237" d="M2.54802 1.33159c0.197625,-0.157248 0.318747,-0.446248 0.203996,-0.520622 -0.114751,-0.0743739 -0.203996,0.0679986 -0.203996,0.0679986 0,0 -0.0892449,-0.142373 -0.203996,-0.0679986 -0.114751,0.0743739 0.0063705,0.363374 0.203996,0.520622zm-0.161518 -0.440933c0,0 -0.018061,-0.0159359 -0.0265614,0.0127506 -0.00850043,0.0286865 -0.0159359,0.137062 0.0212511,0.149813 0.037187,0.0127506 0.0809661,-0.0228654 0.0265614,-0.0467524 0,0 -0.00212511,-0.105186 -0.0212511,-0.115811z"/>
  <path fill="#ED3237" d="M2.98047 0.963324c0.130957,-0.104203 0.211224,-0.295718 0.135183,-0.345 -0.0760461,-0.0492871 -0.135183,0.0450609 -0.135183,0.0450609 0,0 -0.0591416,-0.094348 -0.135188,-0.0450609 -0.0760413,0.0492823 0.00422612,0.240797 0.135188,0.345zm-0.107036 -0.292195c0,0 -0.01197,-0.0105581 -0.0176032,0.00845224 -0.00563322,0.0190103 -0.0105581,0.0908254 0.0140855,0.0992777 0.0246435,0.00844742 0.0536529,-0.0151552 0.0175984,-0.0309851 0,0 -0.0014071,-0.0697045 -0.0140806,-0.0767448z"/>
  <path fill="#ED3237" d="M2.77491 0.419523c0.152931,-0.12168 0.246657,-0.345323 0.15786,-0.402874 -0.0888015,-0.0575562 -0.15786,0.0526169 -0.15786,0.0526169 0,0 -0.0690588,-0.110173 -0.15786,-0.0526169 -0.0887967,0.0575514 0.00492967,0.281194 0.15786,0.402874zm-0.124986 -0.341207c0,0 -0.0139794,-0.0123314 -0.0205572,0.00986416 -0.00657771,0.0222004 -0.0123314,0.106067 0.0164467,0.115932 0.0287733,0.00986898 0.0626545,-0.0176948 0.0205523,-0.0361798 0,0 -0.00164322,-0.081395 -0.0164419,-0.0896159z"/>
  <path fill="#77432E" stroke="#373435" stroke-width="0.0424973" stroke-linecap="round" d="M1.61995 0.677225c0.177213,0 0.320872,0.152516 0.320872,0.340653 0,0.0267783 -0.00292022,0.0528289 -0.00842333,0.077829 0.415201,0.142623 0.72496,0.465611 0.783871,0.878185 0.0898858,0.629557 -0.438326,1.22927 -1.17979,1.3395 -0.741465,0.110226 -1.41541,-0.310776 -1.50531,-0.940329 -0.0403626,-0.282697 0.0439671,-0.559347 0.216216,-0.788391 -0.0465307,-0.0591175 -0.0745522,-0.135231 -0.0745522,-0.218298 0,-0.188137 0.143659,-0.340653 0.320872,-0.340653 0.109258,0 0.20574,0.0579851 0.263687,0.146536 0.138036,-0.0666108 0.290643,-0.114481 0.453563,-0.138701 0.0295154,-0.00438996 0.0589103,-0.00784025 0.0881799,-0.0105677 -2.40942e-005,-0.00170587 -6.26449e-005,-0.0034021 -6.26449e-005,-0.00511279 0,-0.188137 0.143659,-0.340653 0.320872,-0.340653z"/>
  <path fill="#5B2C26" d="M0.493709 1.16557c0.0578839,0 0.109686,0.0276119 0.144382,0.0711019 -0.113787,0.0682492 -0.2152,0.149967 -0.301332,0.241809 -0.0203259,-0.0320164 -0.0321995,-0.0705863 -0.0321995,-0.112101 0,-0.110906 0.0846863,-0.200811 0.189149,-0.200811z"/>
  <path fill="#5B2C26" d="M1.61995 0.795113c0.115888,0 0.209831,0.0997355 0.209831,0.222765 0,0.0156853 -0.00153721,0.0309899 -0.00444297,0.0457597 -0.131174,-0.0338909 -0.270925,-0.0504388 -0.415205,-0.0471282 0.000693913,-0.122398 0.0943625,-0.221397 0.209817,-0.221397z"/>
  <path fill="none" stroke="#373435" stroke-width="0.0424973" stroke-linecap="round" d="M0.635605 3.17328c-0.0512965,0.100617 -0.138874,0.315547 -0.102049,0.563968 0.0509351,0.343622 0.255003,0.773486 0.730998,0.832989 0.475995,0.059503 0.730989,-0.055248 0.709742,-0.310246 -0.0212463,-0.254998 -0.131747,-0.2805 -0.288995,-0.286875 -0.157248,-0.00637532 -0.414367,-0.0701141 -0.461119,-0.303866"/>
  <ellipse fill="#FEFEFE" cx="2.46833" cy="4.91811" rx="0.543996" ry="0.150873"/>
  <g id="_210766032">
   <polyline id="_210766440" fill="none" stroke="#373435" stroke-width="0.0424973" stroke-linecap="round" points="3.37152,1.53358 3.49902,1.9012 3.12715,1.95433 "/>
   <line id="_210766704" fill="none" stroke="#373435" stroke-width="0.0424973" stroke-linecap="round" x1="3.16752" y1="1.70995" x2="3.49902" y2= "1.9012" />
  </g>
  <g id="_210766368">
   <polyline id="_210766296" fill="none" stroke="#373435" stroke-width="0.0424973" stroke-linecap="round" points="4.15563,1.91224 3.77962,2.01236 3.94374,2.35025 "/>
   <line id="_210766392" fill="none" stroke="#373435" stroke-width="0.0424973" stroke-linecap="round" x1="4.12365" y1="2.18001" x2="3.77962" y2= "2.01236" />
  </g>
  <line fill="none" stroke="#373435" stroke-width="0.0424973" stroke-linecap="round" x1="3.64351" y1="1.46295" x2="3.62864" y2= "1.85183" />
  <line fill="none" stroke="#373435" stroke-width="0.0424973" stroke-linecap="round" x1="4.12158" y1="1.70127" x2="3.73271" y2= "1.90315" />
  <ellipse fill="none" stroke="#373435" stroke-width="0.0424973" stroke-linecap="round" transform="matrix(0.82941 0.313711 -0.274028 0.949519 3.54217 2.1281)" rx="0.124312" ry="0.0828744"/>
  <path fill="none" stroke="#373435" stroke-width="0.0424973" stroke-linecap="round" d="M3.50656 2.20122l-0.152039 0.253061c0,0 -0.107311,-0.114737 -0.18275,-0.00317561 0,0 -0.0425021,0.116871 0.113686,0.142373 0,0 -0.159388,0.00106978 -0.128576,0.130692 0,0 0.0456826,0.095625 0.162559,0.0159359"/>
  <ellipse fill="#373435" cx="1.19339" cy="2.10479" rx="0.0828744" ry="0.09456"/>
  <ellipse fill="#373435" cx="1.55889" cy="1.98898" rx="0.0828744" ry="0.09456"/>
  <path fill="#EEC8B3" d="M1.65242 2.11649c0,0 -0.159378,-0.0722537 -0.342123,0.0297467 -0.182745,0.102 -0.225242,0.384625 -0.0934951,0.546124 0.131747,0.161499 0.327242,0.210371 0.524868,0.0467475 0.197625,-0.163624 0.125377,-0.537618 -0.0892497,-0.622618z"/>
  <path fill="#373435" d="M1.33899 2.26312c0,0 -0.0340017,-0.018061 -0.00319007,-0.0414372 0.0308116,-0.0233762 0.114746,-0.0754389 0.165749,-0.0733138 0.0510026,0.00212511 0.0393169,0.0977453 0.00106496,0.159373 0,0 0.0308309,0.0966948 0.0488919,0.119011 0.018061,0.022316 0.0754389,0.0669385 0.0754389,0.0669385 0,0 -0.0648182,-0.0127458 -0.0743788,0.0191308 -0.00956057,0.0318766 -0.0308116,0.0626883 -0.0286865,0.134937 0.00212511,0.0722488 -0.0648134,0.0509978 -0.0456874,-0.0106255 0.019126,-0.0616233 0.0393314,-0.165744 0.032956,-0.200811 -0.00637532,-0.0350667 -0.0308165,-0.0977501 -0.0425021,-0.108376 0,0 -0.105186,-0.0350619 -0.129656,-0.0648278z"/>
  <path fill="none" stroke="#373435" stroke-width="0.0424973" stroke-linecap="round" d="M2.60976 3.33646c0,0 -0.138093,-0.291279 -0.142344,-0.335902 -0.00425021,-0.0446224 0.139684,-0.0568237 0.280215,-0.161224"/>
  <line fill="none" stroke="#373435" stroke-width="0.0424973" stroke-linecap="round" x1="2.69693" y1="3.00483" x2="2.5769" y2= "3.26552" />
  <path fill="none" stroke="#373435" stroke-width="0.0424973" stroke-linecap="round" d="M2.39718 4.89748l0 -0.348494c-0.195336,-0.00106014 -0.339227,-0.064452 -0.44513,-0.15921m-0.238557 -0.416444c-0.0636183,-0.229006 -0.0540529,-0.440827 -0.052588,-0.448542 0.00321898,-0.109759 0.341911,-0.184995 0.759714,-0.184995 0.417803,0 0.756495,0.0752365 0.754167,0.184995 -0.0023275,0.0169527 0.034527,1.01995 -0.643585,1.0242l0 0.348494"/>
  <path fill="#FCBEC1" d="M4.13038 2.39109c0,0 -0.125377,-0.0637484 -0.193375,-0.00850043 -0.0679986,0.055248 0.0509978,0.187 0.216746,0.169999 0,0 0.127502,-0.055248 -0.0233714,-0.161499z"/>
  <path fill="#FCBEC1" d="M2.97171 1.91775c0,0 -0.0722488,-0.0223112 -0.102,0.0148758 -0.0297515,0.037187 -0.0244363,0.153003 0.221002,0.1955 0,0 0.0764942,0.0116857 0.0626834,-0.0669385 -0.0138108,-0.0786242 -0.181685,-0.143438 -0.181685,-0.143438z"/>
  <path fill="#FC6F91" d="M3.58924 1.06392l0.18912 0.0467524c0,0 0.165744,-0.429252 0.150873,-0.550374 -0.0148709,-0.121121 -0.102,-0.09137 -0.146623,-0.0191211 -0.0446224,0.0722488 -0.0934999,0.144498 -0.19337,0.522743zm0.588048 0.206386l0.172693 0.0901701c0,0 0.262598,-0.377855 0.276804,-0.499053 0.0142108,-0.121203 -0.0774869,-0.11291 -0.137934,-0.0532674 -0.0604475,0.0596379 -0.125034,0.118274 -0.311562,0.462151z"/>
  <path fill="none" stroke="#373435" stroke-width="0.0424973" stroke-linecap="round" d="M2.53107 4.76823c0.270886,0.00862572 0.481257,0.0724416 0.481257,0.14988 0,0.0833225 -0.243554,0.150873 -0.543994,0.150873 -0.300445,0 -0.543999,-0.0675505 -0.543999,-0.150873 0,-0.0763834 0.20467,-0.13951 0.470203,-0.149495"/>
  <path fill="none" stroke="#373435" stroke-width="0.0424973" d="M3.17861 3.52317c-0.154921,0.0683552 -0.443511,0.114308 -0.773939,0.114308 -0.309784,0 -0.5828,-0.0403915 -0.743364,-0.101764"/>
  <path fill="#FEFEFE" stroke="#373435" stroke-width="0.0424973" d="M2.13812 3.58917l0.000660181 0.0376062 0.00146493 0.0835153c0,0 -0.114751,0.0786242 -0.167874,0.095625 -0.0531229,0.0170009 -0.121121,0 -0.121121,0 0,0 -0.0276264,-0.322997 0.284745,-0.329372 0,0 0.183969,-0.0141529 0.232812,0.160752l-0.198743 -0.00778724c0,0 -0.043225,0.0153191 -0.0319441,-0.0403385z"/>
  <path fill="#FFF212" d="M2.00867 3.52934c0,0 0.0644279,0.0226389 0.0313417,0.0461452 -0.0330861,0.0235063 -0.0940252,0.110568 -0.0713911,0.203721 0,0 -0.0861945,0.0304743 -0.0957696,-0.0017396 -0.00957503,-0.0322139 0.00870764,-0.188927 0.135819,-0.248127z"/>
  <polygon fill="#FEFEFE" stroke="#373435" stroke-width="0.0424973" points="4.50011,4.12935 4.57873,4.56072 4.9251,4.57985 4.9251,4.12298 "/>
  <polygon fill="#03C123" points="4.58936,4.208 4.62973,4.49487 4.86135,4.49699 4.88048,4.21437 "/>
  <path fill="#FE9F05" d="M5.22298 4.03566c0,0 -0.339993,0.127502 -0.363369,0.161499 -0.0233762,0.0339969 0.0807444,0.242248 0.254994,0.237998 0.174249,-0.00425021 0.221006,-0.146618 0.233752,-0.214621 0,0 -0.168891,-0.0552046 -0.125377,-0.184875z"/>
  <path fill="none" stroke="#373435" stroke-width="0.0424973" stroke-linecap="round" d="M5.22298 4.03566c0,0 -0.339993,0.127502 -0.363369,0.161499 -0.0233762,0.0339969 0.0807444,0.242248 0.254994,0.237998 0.174249,-0.00425021 0.221006,-0.146618 0.233752,-0.214621"/>
  <path fill="#FEFEFE" d="M3.24998 4.04207l-0.128302 -0.0545348c0,0 -0.0205523,-0.104492 -0.146936,-0.10254 -0.126384,0.00195163 -0.078735,0.164674 0.0134831,0.199307 0,0 -0.12556,0.0184706 -0.133535,0.0565201 -0.00797518,0.0380495 -0.0145095,0.139751 0.106453,0.128875 0,0 -0.0812842,0.0127073 -0.0772845,0.0805035 0.00399964,0.0677962 0.122731,0.146102 0.242301,0.0124856 0.31401,0.0937601 0.622623,-0.075622 0.622623,-0.075622l-0.498803 -0.244995z"/>
  <path fill="none" stroke="#373435" stroke-width="0.0424973" stroke-linecap="round" d="M3.64251 3.47229c0,0 -0.149577,0.474549 -0.441319,0.515124 -0.0254242,0.00353221 -0.0519278,0.00377797 -0.079506,0.000120471 0,0 -0.0529253,-0.14549 -0.182547,-0.0923675 0,0 -0.129627,0.0828792 0.0594982,0.1955 0,0 -0.151914,-0.0199885 -0.151914,0.088204 0,0 -0.018061,0.111566 0.138127,0.0881895 0,0 -0.153003,0.025535 -0.0823443,0.137612 0,0 0.100415,0.0929506 0.223662,-0.0419865 0,0 0.28475,0.11439 0.622623,-0.075622 0.337873,-0.190012 0.604581,-0.61672 0.48185,-1.14286"/>
  <g id="_210762984">
   <path id="_210763104" fill="none" stroke="#ED3237" stroke-width="0.0594982" stroke-linecap="round" d="M1.55727 2.49961c0,0 0.66299,0.127497 0.990237,0.327247 0,0 0.276254,-0.165749 0.633248,-0.229497"/>
   <path id="_210763032" fill="none" stroke="#ED3237" stroke-width="0.0594982" stroke-linecap="round" d="M2.46251 3.5876c0,0 0.0212463,-0.552499 0.0849995,-0.760745"/>
  </g>
 </g>
</svg>
