<?xml version="1.0" encoding="UTF-8"?>
<!DOCTYPE svg PUBLIC "-//W3C//DTD SVG 1.1//EN" "http://www.w3.org/Graphics/SVG/1.1/DTD/svg11.dtd">
<!-- Creator: CorelDRAW -->
<svg xmlns="http://www.w3.org/2000/svg" xml:space="preserve" width="8.74487in" height="8.73745in" style="shape-rendering:geometricPrecision; text-rendering:geometricPrecision; image-rendering:optimizeQuality; fill-rule:evenodd; clip-rule:evenodd"
viewBox="0 0 4.18936 4.18581"
 xmlns:xlink="http://www.w3.org/1999/xlink">
 <defs>
  <style type="text/css">
   <![CDATA[
    .str4 {stroke:#373435;stroke-width:0.00332705}
    .str0 {stroke:#373435;stroke-width:0.00665222}
    .str5 {stroke:#727376;stroke-width:0.00798379;stroke-linecap:round}
    .str1 {stroke:#373435;stroke-width:0.00997927}
    .str3 {stroke:#373435;stroke-width:0.00997927;stroke-linecap:round}
    .str2 {stroke:#373435;stroke-width:0.0133063}
    .fil1 {fill:none}
    .fil2 {fill:#373435}
    .fil3 {fill:#ED3237}
    .fil4 {fill:#FEFEFE}
    .fil0 {fill:#C8D0D9}
   ]]>
  </style>
 </defs>
 <g id="Layer_x0020_1">
  <metadata id="CorelCorpID_0Corel-Layer"/>
  <path class="fil0" d="M2.38912 2.20007l1.79359 0 0 0.377181c0,0 -0.168831,-0.0124727 -0.29359,0.130583 -0.124759,0.143056 -0.148882,0.187139 -0.456615,0.237043 -0.307733,0.0499039 -0.420851,0.144723 -0.540619,0.279461l0 0.954818 -0.797204 0 -0.797204 0 0 -0.954818c-0.119768,-0.134738 -0.232886,-0.229557 -0.540619,-0.279461 -0.307733,-0.0499039 -0.331856,-0.0939873 -0.456615,-0.237043 -0.124759,-0.143056 -0.29359,-0.130583 -0.29359,-0.130583l0 -0.377181 1.79359 0 0.0509261 -0.0509261 0.483471 0 0.0544757 0.0509261z"/>
  <path class="fil1 str0" d="M1.4372 2.40476l0 0.193789 0 0.207933c0,0 0.0174991,0.230215 -0.139717,0.417852"/>
  <path class="fil1 str0" d="M2.75028 2.40476l0 0.193789 0 0.207933c0,0 -0.0174991,0.230215 0.139717,0.417852"/>
  <path class="fil2" d="M0.436057 2.20007l0 0.645823c-0.0190249,-0.0134478 -0.0360977,-0.0285346 -0.053229,-0.045796l0 -0.600027 0.053229 0z"/>
  <path class="fil3" d="M0.436057 2.20007l0 0.645823c0.0422143,0.0298416 0.0941099,0.0516542 0.177763,0.0714656l0 -0.717289 -0.177763 0z"/>
  <path class="fil2" d="M0.61382 2.20007l0 0.717289c0.0164598,0.00389665 0.0341457,0.00771785 0.053229,0.011507l0 -0.728796 -0.053229 0z"/>
  <g id="_219335856">
   <path id="_219336072" class="fil2" d="M3.75078 2.20007l0 0.645823c0.0190249,-0.0134478 0.0360977,-0.0285346 0.053229,-0.045796l0 -0.600027 -0.053229 0z"/>
   <path id="_219336000" class="fil3" d="M3.75078 2.20007l0 0.645823c-0.0422143,0.0298416 -0.0941099,0.0516542 -0.177763,0.0714656l0 -0.717289 0.177763 0z"/>
   <path id="_219335904" class="fil2" d="M3.57301 2.20007l0 0.717289c-0.0164598,0.00389665 -0.0341457,0.00771785 -0.053229,0.011507l0 -0.728796 0.053229 0z"/>
  </g>
  <polygon class="fil3" points="2.89189,3.9301 1.29748,3.9301 1.29748,4.17915 2.09468,4.17915 2.89189,4.17915 "/>
  <polygon class="fil2" points="1.29748,3.88685 2.89189,3.88685 2.89189,3.9301 1.29748,3.9301 "/>
  <path class="fil3" d="M3.02476 2.20007l0 0.00888534c0,0.168312 -0.137748,0.224963 -0.306059,0.224959l-0.703317 -1.69747e-005 -0.0105904 0 -0.0123124 0 -0.521808 0c-0.168308,0 -0.30606,-0.056607 -0.30606,-0.224942l0 -0.00888534 0.635636 0 0.0509261 -0.0509261 0.483471 0 0.0544757 0.0509261 0.635636 0z"/>
  <polygon class="fil2" points="1.4372,2.43298 2.75217,2.43298 2.75217,2.48954 1.4372,2.48954 "/>
  <path class="fil1 str1" d="M1.79813 2.19562l0.0860827 0.15345c0,0 0.0374274,0.088993 0.159689,0.0998059"/>
  <path class="fil1 str1" d="M2.39016 2.19716l-0.0830235 0.151916c0,0 -0.0374274,0.088993 -0.159689,0.0998059"/>
  <path class="fil1 str2" d="M1.85037 2.14697c0,0 0.0904452,0.237047 0.244314,0.350991 0.153869,-0.113944 0.240883,-0.349635 0.240883,-0.349635"/>
  <path class="fil2" d="M1.8871 2.19522l0.429876 0c0,0 -0.0870729,0.20375 -0.222294,0.302737 0,0 -0.133676,-0.0995267 -0.223027,-0.301766l0.00473218 -0.000756319 0.010713 -0.000215013z"/>
  <path class="fil3" d="M2.18164 2.39157c0,0 -0.0374255,0.0740231 -0.0873294,0.103965 -0.0499039,-0.0299416 -0.0873294,-0.103965 -0.0873294,-0.103965l0.174659 0z"/>
  <path class="fil4" d="M2.0026 2.44629c0.0082667,0 0.0149698,0.00670314 0.0149698,0.0149698 0,0.0082667 -0.00670314,0.0149698 -0.0149698,0.0149698 -0.0082667,0 -0.0149698,-0.00670314 -0.0149698,-0.0149698 0,-0.0082667 0.00670314,-0.0149698 0.0149698,-0.0149698zm0 0.00649001c0.00468314,0 0.00847983,0.00379669 0.00847983,0.00847983 0,0.00468314 -0.00379669,0.00847983 -0.00847983,0.00847983 -0.00468314,0 -0.00847983,-0.00379669 -0.00847983,-0.00847983 0,-0.00468314 0.00379669,-0.00847983 0.00847983,-0.00847983z"/>
  <path class="fil4" d="M2.18324 2.44629c0.0082667,0 0.0149698,0.00670314 0.0149698,0.0149698 0,0.0082667 -0.00670314,0.0149698 -0.0149698,0.0149698 -0.0082667,0 -0.0149698,-0.00670314 -0.0149698,-0.0149698 0,-0.0082667 0.00670314,-0.0149698 0.0149698,-0.0149698zm0 0.00649001c0.00468314,0 0.00847983,0.00379669 0.00847983,0.00847983 0,0.00468314 -0.00379669,0.00847983 -0.00847983,0.00847983 -0.00468314,0 -0.00847983,-0.00379669 -0.00847983,-0.00847983 0,-0.00468314 0.00379669,-0.00847983 0.00847983,-0.00847983z"/>
  <path class="fil3" d="M1.9743 2.41762l0.00438514 0.0107676c0,0 0.0352471,0.0134365 0.0467617,0.0160562 0,0 -0.0126839,-0.0133101 -0.0187137,-0.0203791 -0.00602981,-0.00706904 -0.0324331,-0.00644475 -0.0324331,-0.00644475z"/>
  <path class="fil3" d="M2.21486 2.41762l-0.00457375 0.0112297c0,0 -0.00353263,0.00197096 -0.00956621,0.00413241 -0.0112807,0.00404376 -0.0295059,0.00975482 -0.0370068,0.0114617 0,0 0.0126839,-0.0133101 0.0187137,-0.0203791 0.00602981,-0.00706904 0.0324331,-0.00644475 0.0324331,-0.00644475z"/>
  <line class="fil1 str3" x1="2.0026" y1="2.46126" x2="2.0026" y2= "2.6854" />
  <line class="fil1 str3" x1="2.18362" y1="2.46126" x2="2.18362" y2= "2.6854" />
  <g id="_219309544">
   <circle id="_219309760" class="fil2" cx="2.04681" cy="2.53354" r="0.00706904"/>
   <circle id="_219309400" class="fil2" cx="2.14578" cy="2.53354" r="0.00706904"/>
   <circle id="_219309448" class="fil2" cx="2.05679" cy="2.59301" r="0.00706904"/>
   <circle id="_219309160" class="fil2" cx="2.13165" cy="2.59301" r="0.00706904"/>
  </g>
  <polyline class="fil1 str4" points="2.04842,2.53354 2.09522,2.51025 2.14578,2.53354 "/>
  <line class="fil1 str4" x1="2.05679" y1="2.59301" x2="2.14578" y2= "2.53354" />
  <line class="fil1 str4" x1="2.04839" y1="2.53515" x2="2.13165" y2= "2.59301" />
  <line class="fil1 str5" x1="2.04681" y1="2.53354" x2="2.14578" y2= "2.53354" />
  <line class="fil1 str5" x1="2.05679" y1="2.59352" x2="2.13165" y2= "2.59352" />
  <path class="fil0" d="M2.38912 0.0575802l1.79359 0 0 0.377181c0,0 -0.168831,-0.0124727 -0.29359,0.130583 -0.124759,0.143056 -0.148882,0.187139 -0.456615,0.237043 -0.307733,0.0499039 -0.420851,0.144723 -0.540619,0.279461l0 0.954818 -0.797204 0 -0.797204 0 0 -0.954818c-0.119768,-0.134738 -0.232886,-0.229557 -0.540619,-0.279461 -0.307733,-0.0499039 -0.331856,-0.0939873 -0.456615,-0.237043 -0.124759,-0.143056 -0.29359,-0.130583 -0.29359,-0.130583l0 -0.377181 1.79359 0 0.0509261 -0.0509261 0.483471 0 0.0544757 0.0509261z"/>
  <path class="fil1 str0" d="M1.4372 0.262273l0 0.193789 0 0.207933c0,0 0.0174991,0.230215 -0.139717,0.417852"/>
  <path class="fil1 str0" d="M2.75028 0.262273l0 0.193789 0 0.207933c0,0 -0.0174991,0.230215 0.139717,0.417852"/>
  <path class="fil2" d="M0.436057 0.0575802l0 0.645823c-0.0190249,-0.0134478 -0.0360977,-0.0285346 -0.053229,-0.045796l0 -0.600027 0.053229 0z"/>
  <path class="fil3" d="M0.436057 0.0575802l0 0.645823c0.0422143,0.0298416 0.0941099,0.0516542 0.177763,0.0714656l0 -0.717289 -0.177763 0z"/>
  <path class="fil2" d="M0.61382 0.0575802l0 0.717289c0.0164598,0.00389665 0.0341457,0.00771785 0.053229,0.011507l0 -0.728796 -0.053229 0z"/>
  <g id="_219268432">
   <path id="_219268960" class="fil2" d="M3.75078 0.0575802l0 0.645823c0.0190249,-0.0134478 0.0360977,-0.0285346 0.053229,-0.045796l0 -0.600027 -0.053229 0z"/>
   <path id="_219268456" class="fil3" d="M3.75078 0.0575802l0 0.645823c-0.0422143,0.0298416 -0.0941099,0.0516542 -0.177763,0.0714656l0 -0.717289 0.177763 0z"/>
   <path id="_219269056" class="fil2" d="M3.57301 0.0575802l0 0.717289c-0.0164598,0.00389665 -0.0341457,0.00771785 -0.053229,0.011507l0 -0.728796 0.053229 0z"/>
  </g>
  <polygon class="fil3" points="2.89189,1.78761 1.29748,1.78761 1.29748,2.03667 2.09468,2.03667 2.89189,2.03667 "/>
  <polygon class="fil2" points="1.29748,1.74436 2.89189,1.74436 2.89189,1.78761 1.29748,1.78761 "/>
  <path class="fil3" d="M3.02476 0.0575802l0 0.00888534c0,0.168312 -0.137748,0.224963 -0.306059,0.224959l-0.703317 -1.69747e-005 -0.0105904 0 -0.0123124 0 -0.521808 0c-0.168308,0 -0.30606,-0.056607 -0.30606,-0.224942l0 -0.00888534 0.635636 0 0.0509261 -0.0509261 0.483471 0 0.0544757 0.0509261 0.635636 0z"/>
  <polygon class="fil2" points="1.4372,0.290495 2.75217,0.290495 2.75217,0.548362 1.4372,0.548362 "/>
  <path class="fil1 str2" d="M2.38912 2.20007l1.79359 0 0 0.377181c0,0 -0.168831,-0.0124727 -0.29359,0.130583 -0.124759,0.143056 -0.148882,0.187139 -0.456615,0.237043 -0.307733,0.0499039 -0.420851,0.144723 -0.540619,0.279461l0 0.954818 -0.797204 0 -0.797204 0 0 -0.954818c-0.119768,-0.134738 -0.232886,-0.229557 -0.540619,-0.279461 -0.307733,-0.0499039 -0.331856,-0.0939873 -0.456615,-0.237043 -0.124759,-0.143056 -0.29359,-0.130583 -0.29359,-0.130583l0 -0.377181 1.79359 0 0.0509261 -0.0509261 0.483471 0 0.0544757 0.0509261z"/>
  <path class="fil1 str2" d="M2.38912 0.0575802l1.79359 0 0 0.377181c0,0 -0.168831,-0.0124727 -0.29359,0.130583 -0.124759,0.143056 -0.148882,0.187139 -0.456615,0.237043 -0.307733,0.0499039 -0.420851,0.144723 -0.540619,0.279461l0 0.954818 -0.797204 0 -0.797204 0 0 -0.954818c-0.119768,-0.134738 -0.232886,-0.229557 -0.540619,-0.279461 -0.307733,-0.0499039 -0.331856,-0.0939873 -0.456615,-0.237043 -0.124759,-0.143056 -0.29359,-0.130583 -0.29359,-0.130583l0 -0.377181 1.77519 0 0.0184006 0 0.0509261 -0.0509261 0.483471 0 0.0544757 0.0509261z"/>
  <line class="fil1 str2" x1="1.7752" y1="0.0576972" x2="2.43267" y2= "0.0576972" />
 </g>
</svg>
