<?xml version="1.0" encoding="utf-8"?>
<!-- Generator: Adobe Illustrator 14.0.0, SVG Export Plug-In . SVG Version: 6.00 Build 43363)  -->
<!DOCTYPE svg PUBLIC "-//W3C//DTD SVG 1.0//EN" "http://www.w3.org/TR/2001/REC-SVG-20010904/DTD/svg10.dtd">
<svg version="1.0" xmlns="http://www.w3.org/2000/svg" xmlns:xlink="http://www.w3.org/1999/xlink" x="0px" y="0px" width="720px"
	 height="432px" viewBox="0 0 720 432" enable-background="new 0 0 720 432" xml:space="preserve">
<g id="Layer_1_x23_000000">
	<g>
		<g>
			<path d="M680.751,116.934c3.318,0.99,19.575,1.453,19.388,6.312c-0.163,3.97-11.447,3.958-17.134,5.411
				c-41.293,10.558-87.596,21.417-126.696,33.816c-3.47,27.979,14.916,46.127,18.035,68.533c1.803,13.013-12.5,11.285-25.25,13.978
				c-6.399,1.353-11.948,4.972-16.683,5.861c-2.604,0.488-7.965,0.075-10.37,0.451c-13.476,2.116-27.103,10.044-41.932,13.075
				c-15.518,3.182-26,7.39-39.677,11.272c-11.535,3.281-21.417,10.169-30.66,12.173c-17.734,3.846-27.967,9.795-44.637,17.134
				c-3.194,1.402-13.739,7.564-17.584,6.764c-1.703-0.352-3.52-3.808-5.411-4.96c-30.985-18.899-72.817-25.963-106.407-39.678
				c1.015,11.485,9.631,23.12,12.174,34.267c4.747,20.892-1.879,50.098-3.607,73.944c-0.89,12.148-4.258,21.692-5.862,32.464
				c-7.74-2.48-15.179,18.311-18.486,2.705c-1.015,2.004-1.503,4.521-3.156,5.861c-7.139-4.146-4.534,6.863-10.821,4.509
				c-1.09-8.216,5.172-16.708,6.312-25.7c-8.654,2.041-6.162,21.467-16.683,21.643c-1.478-11.711,11.26-20.753,13.978-32.464
				c3.807-16.507,3.632-35.105,2.254-54.556c-2.43,7.201-0.702,18.548-5.861,22.994c-7.352-10.069,2.53-25.049,4.058-36.07
				c3.231-23.471-5.648-40.917-8.566-59.516c-11.56-3.319-19.188-3.808-31.562-6.312c-6.488-1.315-11.798-5.386-17.584-6.312
				c-7.014-1.102-20.314-1.327-23.446-6.312c-3.018-4.784,1.604-10.82,3.156-15.78c6.475-20.728,15.63-36.997,14.879-64.025
				c-36.521-8.93-78.528-22.13-115.425-30.209c-4.258-0.927-16.106-0.914-15.793-5.41c0.288-3.896,16.37-4.96,19.388-5.862
				c46.202-13.689,97.377-24.686,141.588-37.423c26.238-7.552,53.341-14.829,77.551-24.347
				c25.299-9.944,51.413-16.871,74.846-27.504c8.065-3.657,16.069-12.625,25.7-13.526c2.104,0,4.208,0,6.312,0
				c10.946,1.541,17.972,10.02,25.699,13.526c22.933,10.408,49.096,17.384,74.396,27.504
				C529.318,82.429,607.282,95.167,680.751,116.934z M670.381,122.795c-85.43-16.683-178.072-28.656-249.787-59.516
				c-14.315-6.149-32.376-16.758-44.187-26.602c-4.221-3.519-17.358-15.755-20.74-13.075
				c-18.198,14.416-38.337,30.196-60.869,39.677c-72.541,30.522-161.991,42.57-249.336,59.967
				c59.967,10.671,119.558,21.717,176.745,35.168c22.77-3.544,42.721-10.32,60.418-18.937c15.092-7.352,30.584-21.341,42.382-29.307
				c4.146-2.793,11.31-5.035,13.526-8.566c1.516-2.417,1.378-5.724,3.156-7.665c5.135-5.599,26.176-6.024,25.7,5.411
				c-0.413,9.807-11.898,6.099-20.289,8.116c-2.994,0.714-4.772,5.022-7.665,6.763c-14.954,8.98-32.839,24.297-51.851,33.816
				c-14.315,7.164-28.117,10.833-43.284,17.133c27.741,9.181,53.253,18.085,75.748,30.66c6.513,3.645,12.913,8.893,18.937,13.978
				c3.168,2.692,16.068,14.215,19.388,13.977c2.93-0.2,14.741-11.297,18.486-14.428c5.899-4.922,13.213-10.182,19.388-13.526
				C470.679,155.534,573.755,141.87,670.381,122.795z M520.238,241.376c10.908-1.565,19.212-1.54,27.503-7.214
				c-17.659-9.543-9.456-44.962-16.683-64.926c-0.3,0-0.601,0-0.901,0c-45.89,12.662-94.76,30.685-135.264,46.891
				c-11.686,4.672-23.871,16.52-37.423,16.231c-11.71-0.237-18.724-9.605-28.405-13.977c-29.37-13.239-64.075-22.457-96.939-34.267
				c6.863,8.817-2.893,19-2.254,26.151c0.275,3.156,4.221,5.912,4.959,9.018c2.968,12.587-7.615,21.918-2.705,35.619
				c40.617,13.928,82.21,26.902,119.483,44.187c26.451-11.097,57.299-25.111,86.118-33.365c14.327-4.107,25.449-8.316,40.128-11.271
				C492.408,251.521,505.697,243.468,520.238,241.376z M228.52,400.086c-0.263-1.203,1.328-2.818,0-3.607
				C228.043,396.954,227.58,399.697,228.52,400.086z M208.681,205.306c1.44-8.617-0.802-20.928,1.353-28.856
				c-9.631-3.269-26.201-8.642-36.972-10.37c-3.144-0.501-2.342,11.573-2.705,14.879c-1.804,16.207-3.043,49.096-15.33,53.655
				c12.888,6.5,31.299,7.477,45.99,12.174c1.416-1.741,0.889-5.411,1.353-8.116C195.004,229.064,197.734,208.425,208.681,205.306z"
				/>
		</g>
	</g>
</g>
<g id="Layer_2_x23_ED1C24">
	<g>
		<g>
			<path fill="#ED1C24" d="M420.594,63.279c71.715,30.86,164.357,42.833,249.787,59.516
				c-96.626,19.075-199.702,32.739-274.135,73.042c-6.175,3.344-13.488,8.604-19.388,13.526
				c-3.745,3.131-15.556,14.228-18.486,14.428c-3.319,0.238-16.219-11.285-19.388-13.977c-6.024-5.085-12.424-10.333-18.937-13.978
				c-22.494-12.574-48.006-21.479-75.748-30.66c15.167-6.3,28.969-9.969,43.284-17.133c19.012-9.519,36.897-24.836,51.851-33.816
				c2.893-1.741,4.671-6.049,7.665-6.763c8.391-2.017,19.876,1.691,20.289-8.116c0.477-11.435-20.565-11.009-25.7-5.411
				c-1.778,1.941-1.641,5.248-3.156,7.665c-2.217,3.532-9.381,5.773-13.526,8.566c-11.798,7.966-27.291,21.956-42.382,29.307
				c-17.697,8.617-37.648,15.393-60.418,18.937c-57.187-13.451-116.777-24.498-176.745-35.168
				c87.345-17.396,176.795-29.445,249.336-59.967c22.532-9.481,42.671-25.262,60.869-39.677c3.382-2.68,16.52,9.556,20.74,13.075
				C388.218,46.521,406.278,57.13,420.594,63.279z"/>
			<path fill="#ED1C24" d="M547.741,234.162c-8.291,5.674-16.595,5.648-27.503,7.214c-14.541,2.092-27.83,10.146-42.383,13.076
				c-14.679,2.955-25.801,7.164-40.128,11.271c-28.819,8.254-59.667,22.269-86.118,33.365
				c-37.273-17.284-78.866-30.259-119.483-44.187c-4.91-13.701,5.673-23.032,2.705-35.619c-0.739-3.106-4.684-5.861-4.959-9.018
				c-0.639-7.151,9.118-17.333,2.254-26.151c32.864,11.811,67.569,21.028,96.939,34.267c9.681,4.371,16.695,13.739,28.405,13.977
				c13.552,0.288,25.737-11.56,37.423-16.231c40.504-16.207,89.374-34.229,135.264-46.891c0.301,0,0.602,0,0.901,0
				C538.285,189.2,530.082,224.619,547.741,234.162z"/>
			<path fill="#ED1C24" d="M210.033,176.45c-2.154,7.928,0.088,20.24-1.353,28.856c-10.946,3.119-13.677,23.758-6.312,33.365
				c-0.463,2.705,0.063,6.375-1.353,8.116c-14.691-4.697-33.102-5.674-45.99-12.174c12.287-4.559,13.526-37.448,15.33-53.655
				c0.363-3.306-0.438-15.38,2.705-14.879C183.832,167.808,200.402,173.181,210.033,176.45z"/>
		</g>
	</g>
</g>
</svg>
