<?xml version="1.0" encoding="utf-8"?>
<!-- Generator: Adobe Illustrator 14.0.0, SVG Export Plug-In . SVG Version: 6.00 Build 43363)  -->
<!DOCTYPE svg PUBLIC "-//W3C//DTD SVG 1.0//EN" "http://www.w3.org/TR/2001/REC-SVG-20010904/DTD/svg10.dtd">
<svg version="1.0" xmlns="http://www.w3.org/2000/svg" xmlns:xlink="http://www.w3.org/1999/xlink" x="0px" y="0px" width="1008px"
	 height="1008px" viewBox="0 0 1008 1008" enable-background="new 0 0 1008 1008" xml:space="preserve">
<g id="Layer_1_x23_000000">
	<g>
		<g>
			<path d="M788.868,559.846c1.013,21.179-1.753,47.021-2.602,70.26c-0.127,3.344-1.717,7.012-2.603,10.409
				c-1.337,5.114-1.048,9.65-3.903,13.445c-1.301,5.71-2.566,11.438-4.771,16.48c-2.061,4.717-3.958,9.938-7.373,13.444
				c-3.055-1.843-4.662-5.204-6.939-7.807c-15.632-17.908-34.063-33.358-56.815-45.104c-9.451-4.88-19.806-9.271-29.926-13.445
				c-20.998-8.674-45.123-11.349-69.826-13.011c-14.746-0.994-28.733-0.435-42.503,0.434c-2.024,0.126-4.916,0.289-6.939,0.867
				c-2.439,0.705-3.596,2.837-6.506,3.47c-1.409,14.583-2.602,29.456-4.337,44.672c1.301,1.445,3.506,1.987,5.639,2.602
				c-0.886-4.987,2.656-12.722,8.674-13.444c10.554-1.283,15.125,15.396,3.903,19.517c7.409,3.181,1.355,15.306,5.638,22.119
				c3.614,3.126,15.324,7.518,7.373,13.011c7.789,9.993,13.571,21.992,21.252,32.094c31.443,0.072,69.718,1.681,99.752,1.302
				c0.614-2.422,1.645-4.428,2.603-6.506c-1.193-1.807-2.566-3.65-4.337-5.204c-1.392-1.247-3.181-3.308-4.771-4.337
				c-3.307-2.169-8.529-2.386-8.24-7.373c1.012-3.524,5.097-5.566,8.674-8.241c5.295-3.957,8.133-9.794,16.481-10.408
				c-5.259-7.807,0.415-17.999,8.674-17.782c7.301,0.199,11.729,9.289,6.072,16.047c1.554-0.181,3.361-0.108,3.903-1.301
				c12.975,5.837,31.353,8.349,47.273,7.807c0.38,1.645,3.162,0.886,3.47,2.603c0.217,5.349-7.789,3.759-10.409,3.035
				c-2.439,0.741-3.487,2.874-5.638,3.903c-8.548-1.409-23.312,0.182-32.528-1.734c-5.674,7.771-5.529,21.649-2.168,30.359
				c9.722,1.139,22.408-0.344,29.491,0.867c-4.229,14.854-11.511,26.655-19.083,38.166c-5.06,12.812-13.3,23.637-20.817,34.263
				c-7.572,10.698-14.168,22.102-24.287,30.359c-4.808,8.023-11.602,14.493-18.216,21.252c-6.379,6.505-12.035,14.041-18.216,20.817
				c-6.181,6.795-12.849,13.427-19.517,19.95c-7.572,7.409-15.018,14.565-23.854,20.385c-1.049,1.698-3.325,2.168-3.903,4.337
				c-2.024-0.434-1.446,1.734-3.47,1.301c-1.338,2.422-3.65,3.867-5.639,5.639c-20.222-1.988-40.497-5.783-62.02-7.373
				c-14.077-1.048-27.306-3.795-42.069-5.639c-9.867-1.229-19.661-3.253-28.625-6.505c-0.705-4.934,4.41-6.922,5.639-11.276
				c-7.607-0.796-14.963-4.103-21.686-4.337c-1.283-0.435-1.645-1.825-3.035-2.169c-42.829-8.782-82.188-17.547-118.402-31.66
				c-35.943-14.006-67.838-33.143-101.053-49.442c-3.307-3.633-8.078-5.241-12.145-7.807c-11.998-7.554-24.685-14.873-36.864-22.553
				c-6.162-3.886-11.457-9.162-17.349-13.445c-5.891-4.282-11.203-9.107-16.48-13.878c-4.283-0.741-9.957-1.627-13.445-0.868
				c-6.09-8.511-10.191-19.011-16.047-27.757c6.036-7.084,12.578-15.18,16.915-25.155c-3.38,1.916-5.512,3.633-9.542,2.603
				c-5.836-1.5-8.385-12.324-5.204-16.047c3.903-4.554,18.144-2.819,18.216,4.771c0.957,0.308,3.613-0.85,5.639-0.867
				c5.438,3.162,6.938,10.265,9.541,16.047c2.476,5.512,6.451,10.499,6.939,16.047c24.631-0.108,57.393,0.579,81.103,1.302
				c0.542-3.091-0.47-5.042-1.302-8.675c-4.535-3.36-13.932-4.029-15.18-9.541c-0.993-4.428,4.445-8.602,8.675-11.71
				c4.987-3.687,11.331-9.921,17.782-6.506c0.596,6.921-11.837,7.645-15.18,13.445c1.934,2.403,4.843,3.831,8.674,4.337
				c1.174-3.416,0.885-6.036,2.602-8.24c8.385-10.734,23.944,7.265,10.844,12.577c12.215-1.175,26.328-1.066,37.731,0.434
				c0.271,1.192,1.554,3.633,0.868,4.337c-2.766,3.578-9.055,3.687-14.312,4.337c-5.312,0.651-11.439,0.561-16.48,0
				c-1.627,2.097,1.318,3.741,0,5.639c20.672-0.127,39.955,1.084,62.887,0.867c6.668-6.198,16.155-9.577,23.42-15.18
				c-2.15-1.03-5.566-0.018-8.674-0.867c-0.434-1.88-1.861-2.765-1.735-5.205c0.362-1.084,1.97-0.921,1.735-2.602
				c5.33-0.108,6.596,0.542,10.408,0c3.506-8.638,2.693-21.595,9.976-26.456c9.849,0.705,18.216,2.892,26.022,5.638
				c4.373-5.349,8.24-11.638,12.144-17.781c1.139-1.808,2.458-4.211,4.771-4.771c-2.331-2.276-5.746-5.366-3.902-10.408
				c-23.023,6.162-47.926,11.077-73.297,13.011c-18.649,1.409-37.244,4.717-55.947,5.639c-17.041,0.849-38.673,0.397-56.816,0.434
				c-19.209,0.036-39.051-2.766-57.682-6.939c-6.199-1.392-17.512-2.476-16.048-7.807c0.958-3.524,10.771-5.819,14.312-7.373
				c10.824-4.753,19.173-8.818,28.624-14.746c21.451-13.463,41.221-29.474,59.852-43.37c24.721-22.842,45.864-49.262,66.791-75.898
				c12.414-15.794,25.66-31.245,37.299-47.708c11.637-16.463,24.612-31.895,35.997-48.574
				c11.493-16.824,22.986-33.865,33.396-51.611c10.246-17.475,22.643-33.811,33.828-50.744
				c11.223-16.986,22.029-34.371,34.263-50.742c12.145-16.283,22.896-33.469,34.263-50.311c5.801-8.584,11.729-16.914,16.481-26.021
				c14.258-27.396,29.13-54.557,47.273-79.803c-0.542-2.295-1.192-5.927,1.301-7.807c-3.307-4.174-7.969-14.222,0-16.48
				c-3.054-6.704-1.734-16.697,6.506-17.781c-8.782-3.471-11.728-23.492-0.867-26.891c8.909-1.807,16.083-0.903,21.686,3.471
				c3.867,5.186,3.614,15.125-0.434,19.949c15.486-0.921,28.244,2.747,36.864,10.409c6.397,5.675,10.12,16.698,24.722,13.445
				c5.06-1.12,9.541-5.386,14.746-7.373c22.498-8.62,53.743-9.307,75.897-2.169c1.663,0.543,3.578,1.555,5.205,2.169
				c8.204,3.09,16.444,6.036,19.517,14.745c-1.952,3.182-5.548,1.5-7.807-0.434c-11.963-2.06-19.986-4.301-31.227-4.336
				c-3.561-0.019-7.915,0.668-11.276,1.301c-15.975,3.054-31.787,8.24-45.539,14.312c-7.698,3.396-15.107,10.499-27.757,7.807
				c-6.795-1.446-11.132-7.789-18.649-8.24c-17.511-1.049-31.444,7.77-49.009,8.24c-2.982,20.998-4.445,47.129-7.373,70.693
				c5.132,4.12,8.168,10.337,14.746,13.012c6.198,8.186,14.475,14.222,21.685,21.685c2.404,2.494,3.813,5.53,6.072,8.241
				c3.47,4.174,8.403,7.48,12.577,11.275c4.156,3.777,7.861,7.807,11.71,11.711c7.698,7.807,16.012,15.775,22.986,23.854
				c4.319,4.987,8.729,10.264,13.012,15.613c4.789,5.963,10.119,12.486,15.18,19.083c3.523,4.59,7.734,8.837,10.843,13.444
				c2.981,4.41,4.969,10.409,7.807,15.613c8.005,14.691,15.107,30.414,22.553,46.84c0.74,1.482-0.471,2.693,0.434,4.338
				c9.324,19.842,17.564,43.153,24.287,67.225c0.939,3.361,2.928,6.414,3.47,9.541c0.325,1.825-0.308,3.812,0,5.638
				c0.759,4.446,2.964,8.62,3.903,13.012c2.205,10.265,3.65,20.854,4.771,31.66c0.397,3.831,2.061,7.5,2.603,11.276
				C788.778,534.04,788.272,547.594,788.868,559.846z M783.664,571.122c0.452-15.288,0.994-33.992-2.169-46.406
				c-0.451-1.771-1.843-3.361-2.168-5.205c-1.319-7.644-1.084-15.378-2.169-22.553c-3.234-21.486-8.077-41.473-13.878-60.718
				c-2.006-6.688-5.133-13.337-7.373-19.951c-7.066-20.836-15.288-40.334-23.854-58.983c-8.565-18.649-18.179-37.751-30.358-52.479
				c-3.091-3.741-7.445-7.21-9.976-10.843c-0.976-1.391-1.066-3.307-2.169-4.771c-4.843-6.38-11.818-10.499-16.914-17.349
				c-5.837-7.86-11.945-14.005-18.216-21.251c-4.897-5.675-11.276-9.523-16.48-14.746c-4.103-4.12-7.211-8.837-11.276-12.577
				c-2.133-1.952-4.301-3.904-6.506-5.639c-8.457-6.668-14.872-14.564-22.986-21.252c-0.018-0.271-0.072-0.506-0.434-0.434
				c4.59,12.723,8.295,26.836,11.71,41.637c12.36,53.58,19.752,116.738,13.011,176.084c-2.349,20.654-6.849,42.629-12.144,59.417
				c-3.687,11.674-6.451,22.824-8.674,33.396c-9.324,28.606-23.854,52.262-37.732,75.465c-3.596,6.018-7.246,12.161-10.843,17.781
				c-1.211,1.88-3.487,3.578-3.47,6.072c3.181-1.12,7.825-3.253,12.578-3.47c14.239-0.633,27.521-1.211,40.768-0.434
				c12.217,0.705,24.613,1.445,36.432,3.036c10.607,1.428,21.179,5.24,31.227,8.674c4.951,1.698,9.47,4.084,14.312,6.072
				c5.15,2.132,10.626,3.451,15.18,5.638c27.179,13.047,48.647,32.004,66.79,52.045c9.776-16.824,12.578-38.654,15.613-63.321
				C783.212,600.126,783.303,583.283,783.664,571.122z M776.725,84.939c0.614,0.704,2.964,1.915,3.47,1.301
				c-9.035-6.85-23.059-10.59-34.696-13.445c-20.294-2.457-43.714-0.217-59.418,7.373c-5.312,2.566-10.77,6.867-16.48,7.373
				c-4.265,0.379-10.896-1.319-13.879-3.036c-5.71-3.271-9.668-10.337-14.312-14.745c-3.397-0.182-5.873-3.506-9.108-4.771
				c-6.379-2.494-12.035-1.879-17.781-1.734c-0.868,0.018-1.844-0.922-2.603-0.867c-6.74,0.434-10.59,1.265-15.18,3.035
				c-4.734,1.825-7.698,2.043-9.542,5.639c-1.012,3.523,1.41,6.975,0.868,9.541c-0.633,2.982-4.156,3.759-4.337,7.373
				c1.427,2.603,4.698,5.711,4.771,9.107c0.054,2.477-2.692,3.977-1.735,6.506c2.477,0.182,3.65,0.398,5.639,1.734
				c1.337-0.107,1.951-0.939,3.036-1.301c11.963,1.392,21.179-4.192,31.66-5.638c8.187-1.12,19.969-2.837,26.022-0.434
				c3.776,1.499,8.457,6.542,12.144,7.372c11.366,2.585,18.631-4.77,26.456-8.24c6.181-2.746,12.938-5.475,19.517-7.373
				c14.258-4.102,29.221-8.402,45.539-7.807C764.653,82.191,769.026,84.83,776.725,84.939z M747.232,739.833
				c0.597-0.867-0.072-2.566,1.735-3.903c-10.337-2.801-23.203-1.139-35.998-1.734c-37.895-1.771-79.35-2.404-117.533-2.603
				c-25.155-0.127-50.906-1.156-76.332-1.301c-53.545-0.29-100.023-1.229-149.194-3.036c-25.029-0.922-49.931,0.162-74.598-0.867
				c-45.594-1.916-90.211-0.85-134.015-2.603c-6.452-0.253-13.265-0.777-19.517,1.301c-2.169-1.951-6.253-1.698-9.976-1.734
				c-4.536-0.036-9.704,0.451-12.144,0.434c-0.397,1.843,3.488,3.162,3.035,6.506c52.75,0.921,103.945,3.469,156.568,3.469
				c106.528,0,208.955,5.061,316.171,5.639c39.34,0.217,82.187,1.518,117.968,2.168
				C721.301,741.713,744.576,743.664,747.232,739.833z M722.078,783.638c7.879-12.812,16.824-24.703,22.119-39.468
				c-128.432-3.289-259.193-4.987-388.6-7.807c-77.922-1.698-151.652-2.548-231.165-3.47c-0.271,0.019-0.506,0.072-0.434,0.434
				c2.223,2.439,6.867,13.12,9.542,14.312c2.023,0.903,4.824-0.234,7.373,0.434c1.68,0.434,3.018,1.428,4.336,1.735
				c5.621,1.319,12.687,0.108,19.518,0.434c6.867,0.325,13.842,0.596,20.384,0.867c41.763,1.662,83.181,0.217,121.438,2.169
				c49.479,2.529,90.952,1.662,134.015,3.035c6.324,0.199,13.084-1.174,19.083,1.302c-11.005-0.344-22.21,0.596-32.962-1.302
				c-44.074,1.266-92.271-1.337-137.484-1.734c-46.912-0.416-89.668-1.753-139.652-2.169c9.506,8.422,23.113,16.499,33.395,25.589
				c8.783,2.783,14.204,8.006,21.252,12.144c12.849,7.536,26.148,14.33,38.6,22.119c8.259,5.168,17.529,8.963,26.456,13.879
				c26.294,14.475,53.688,28.479,83.271,38.166c15.415,5.042,31.299,7.644,48.142,11.71c5.457,1.319,11.275,2.187,16.914,3.47
				c11.023,2.512,27.686,8.475,39.033,10.843c4.392,0.921,20.096,1.771,21.686,5.204c2.403,5.204-6.451,8.331-6.072,12.577
				c6.072-0.506,11.457,3.162,17.349,4.337c12.343,2.458,26.312,3,40.334,4.771c23.457,2.945,45.016,4.571,66.791,5.204
				c15.089-11.873,30.829-23.366,43.804-37.732c12.939-14.33,27.522-27.323,39.034-42.503
				c11.385-14.999,25.878-28.354,35.563-45.105C717.669,792.709,719.422,787.938,722.078,783.638z M699.525,712.51
				c1.283-2.295,0.741-5.114-0.434-6.506c-0.903,1.699-3.488,1.717-3.903,3.903C696.652,710.757,698.297,711.426,699.525,712.51z
				 M615.387,435.807c3.831-21.27,6.632-43.1,6.506-66.791c-0.289-52.081-9.776-107.758-20.818-150.062
				c-3.325-12.758-6.126-23.131-12.577-32.094c-0.019-0.271-0.072-0.506-0.434-0.434c-12.867,138.424-26.095,273.523-38.6,410.285
				c5.71-6.488,9.722-14.476,14.745-22.119c9.85-14.981,19.391-32.112,26.456-49.442c3.759-9.198,6.108-18.849,9.108-29.059
				C605.556,476.43,611.592,456.877,615.387,435.807z M604.978,57.182c3.939-4.463,4.951-13.571-0.434-16.914
				c-5.367-3.344-12.921-0.922-17.349,2.602C583.672,53.206,593.593,63.94,604.978,57.182z M591.533,729.424
				c-1.789-4.915-6.036-9.975-9.108-15.613c-2.565-4.717-6.469-13.427-10.843-15.18c-4.662-1.879-15.18-0.922-22.986-1.301
				c-8.294-0.397-12.938-0.289-19.517-0.434c-48.213-1.084-109.401-2.458-147.46-3.47c-10.553,3.018-19.064,10.318-28.624,16.48
				c-7.626,4.915-15.577,9.253-21.685,14.746C413.371,726.425,498.431,728.015,591.533,729.424z M593.268,108.793
				c-2.295-0.597-5.114-0.669-7.373-1.301c-0.217-1.248-0.65,0.704-0.867,0.867c-7.174,69.5-14.529,138.984-21.252,209.045
				c-7.427,77.344-16.336,157.345-22.986,235.502c-1.626,19.065-4.337,39.142-6.071,58.116c-0.308,3.452-1.266,7.572,0.434,10.843
				c-2.819,4.229-2.548,10.246-3.036,15.613c-1.698,18.975-3.451,38.708-5.204,57.249c3.47-0.289,8.096,0.578,10.843-0.434
				C556.765,501.693,574.998,305.242,593.268,108.793z M581.558,116.166c-0.018-0.271-0.072-0.506-0.434-0.434
				c-3.108,6.288-6.903,11.98-9.976,18.215c-2.909,5.928-5.927,11.837-9.107,17.348c-9.018,15.614-16.77,31.824-26.456,45.539
				c-6.668,9.434-12.234,19.59-18.649,28.625c-1.337,1.879-3.271,3.361-4.337,5.205c-1.681,2.945-2.367,5.908-4.337,8.674
				c-5.53,7.789-10.463,16.246-16.047,23.854c-3.687,5.006-8.331,9.523-11.71,14.746c-3.452,5.331-6.939,10.662-11.71,14.746
				c-4.645,9.812-10.717,18.197-16.915,26.455c-7.065,14.133-17.745,25.951-26.456,39.034c-4.355,6.542-7.969,13.571-12.577,19.95
				c-4.808,6.633-7.987,13.789-12.577,20.385c-4.266,6.144-9.325,11.926-13.445,18.215c-4.301,6.561-8.674,12.65-13.445,18.649
				c-14.24,17.927-27.395,36.485-41.201,54.213c-4.753,6.108-8.801,12.578-13.445,18.649c-9.217,12.054-19.553,23.041-29.059,34.696
				c-14.511,17.818-30.16,33.685-47.273,48.142c-11.547,9.74-24.197,18.378-36.865,26.89c-6.396,4.301-12.035,9.687-18.648,13.445
				c-13.662,7.771-27.233,16.336-42.504,21.685c18.541,5.566,39.124,9.162,59.852,9.976c20.564,0.795,42.25,1.211,64.188,0.434
				c18.722-0.669,38.364-3.65,56.815-5.638c8.945-0.958,16.264-1.247,24.287-2.603c17.98-3.054,34.263-5.909,49.442-10.843
				c2.909-2.15,4.97-5.62,9.108-5.638c3.343-0.019,5.457,3.126,8.24,3.469c4.084,0.507,10.408-1.12,15.18-2.168
				c32.563-7.156,62.436-22.842,100.619-19.95C548.361,451.672,565.836,286.033,581.558,116.166z M568.547,695.161
				c-4.103-1.681-6.325-5.24-9.976-7.373c-0.795-2.963-0.633-6.885-1.734-9.541c-0.091-0.344-0.362-0.506-0.868-0.434
				c-2.692,2.493-4.987,5.891-7.807,8.674c-2.692,2.656-7.951,4.192-7.373,8.674C551.614,694.963,561.228,695.631,568.547,695.161z
				 M528.212,659.164c1.03-12.126,2.331-23.98,3.47-35.998c-45.322-4.156-75.031,16.807-113.631,20.818
				c1.049,4.554,1.734,6.957,0,11.276c8.783,7.373,0.958,26.709,6.072,36.865c20.022,0.379,41.906,1.68,60.719,0.867
				c-4.446-1.482-8.747-3.108-9.108-8.675c4.337-4.716,9.234,0.958,14.312,1.735c5.945-4.464,9.903-10.915,16.047-15.18
				c6.668,2.584,12.74,5.765,19.95,7.807c0.543-2.783,0.326-6.325,0.868-9.107C516.141,670.639,519.772,655.17,528.212,659.164z
				 M524.309,694.728c0.542-1.337,0.669-3.09,0.867-4.771c-5.24-3-10.987-5.493-16.48-8.24c-4.084,3.867-9.253,6.65-11.71,12.144
				C505.895,694.258,517.026,694.077,524.309,694.728z M416.75,692.126c-2.367-6.597-2.367-13.554-5.639-18.649
				c-4.843,4.318-11.294,10.228-14.746,17.348c-0.65-0.687-1.824,0.019-2.168,0.867C403.612,691.529,408.762,691.944,416.75,692.126
				z M359.066,702.534c5.422-3,12.145-7.969,18.217-11.71c-3.977-1.373-8.006-2.692-11.711-4.337
				C363.024,691.457,362.193,698.144,359.066,702.534z M126.602,721.184c4.789,0.217,7.662-0.307,11.71,0.434
				c-1.337-3.723-3.434-6.686-5.204-9.975C130.703,714.588,128.535,717.769,126.602,721.184z"/>
		</g>
	</g>
</g>
<g id="Layer_2_x23_ED1E25">
	<g>
		<g>
			<g>
				<g>
					<path fill="none" d="M601.07,218.95c-3.32-12.75-6.12-23.13-12.57-32.09c-0.02-0.27-0.08-0.51-0.44-0.43
						c-12.859,138.42-26.09,273.52-38.6,410.28c5.71-6.49,9.73-14.47,14.75-22.12c9.85-14.979,19.39-32.109,26.46-49.439
						c3.75-9.2,6.1-18.851,9.1-29.061c5.79-19.66,11.82-39.21,15.62-60.28c3.83-21.27,6.63-43.1,6.5-66.79
						C621.6,316.93,612.12,261.26,601.07,218.95z M546.09,609.09c13.78-141.99,27.22-285.76,40.62-429.77l1.79,0.17
						c5.13,4.12,8.17,10.33,14.74,13.01c6.2,8.18,14.479,14.22,21.689,21.68c2.4,2.5,3.811,5.53,6.07,8.24
						c3.47,4.18,8.4,7.48,12.58,11.28c4.15,3.78,7.86,7.81,11.71,11.71c7.7,7.81,16.01,15.78,22.979,23.85
						c4.32,4.99,8.73,10.27,13.021,15.62c4.78,5.96,10.11,12.48,15.17,19.08c3.53,4.59,7.74,8.84,10.85,13.44
						c2.98,4.41,4.971,10.41,7.801,15.62c8.01,14.69,15.109,30.41,22.56,46.84c0.74,1.48-0.47,2.69,0.43,4.34
						c9.32,19.84,17.57,43.15,24.29,67.22c0.94,3.36,2.931,6.41,3.471,9.54c0.319,1.83-0.311,3.81,0,5.64
						c0.76,4.44,2.96,8.62,3.899,13.01c2.21,10.27,3.65,20.85,4.771,31.66c0.399,3.83,2.06,7.5,2.6,11.28
						c1.65,11.49,1.14,25.04,1.74,37.3c1.01,21.17-1.75,47.021-2.601,70.261c-0.13,3.34-1.72,7.01-2.609,10.399
						c-1.33,5.12-1.04,9.66-3.9,13.45c-1.3,5.71-2.569,11.44-4.77,16.48c-2.061,4.72-3.96,9.939-7.37,13.439
						c-3.061-1.84-4.66-5.2-6.94-7.8c-15.63-17.91-34.069-33.36-56.819-45.11c-9.45-4.88-19.801-9.27-29.92-13.439
						c-21-8.681-45.131-11.351-69.83-13.011c-14.75-1-28.73-0.439-42.5,0.431c-2.03,0.13-4.92,0.29-6.94,0.87
						c-2.439,0.699-3.6,2.84-6.51,3.47L546.09,609.09z M561.17,602.35c14.24-0.63,27.53-1.21,40.771-0.43
						c12.22,0.7,24.609,1.44,36.43,3.03c10.61,1.43,21.18,5.24,31.229,8.67c4.95,1.7,9.471,4.09,14.311,6.08
						c5.149,2.13,10.63,3.45,15.18,5.63c27.18,13.05,48.65,32.01,66.79,52.05c9.78-16.82,12.58-38.649,15.62-63.32
						c1.71-13.93,1.8-30.779,2.16-42.939c0.46-15.29,1-33.99-2.16-46.4c-0.46-1.779-1.85-3.37-2.17-5.21
						c-1.32-7.64-1.09-15.38-2.17-22.55c-3.24-21.49-8.08-41.47-13.88-60.72c-2.011-6.69-5.13-13.34-7.37-19.95
						c-7.07-20.84-15.29-40.33-23.86-58.98c-8.56-18.65-18.18-37.76-30.359-52.48c-3.091-3.74-7.44-7.21-9.971-10.85
						c-0.979-1.39-1.069-3.3-2.17-4.77c-4.84-6.38-11.819-10.5-16.91-17.34c-5.84-7.87-11.949-14.01-18.22-21.26
						c-4.9-5.67-11.28-9.52-16.479-14.74c-4.101-4.12-7.21-8.84-11.28-12.58c-2.13-1.95-4.3-3.9-6.5-5.64
						c-8.46-6.67-14.87-14.56-22.99-21.25c-0.02-0.27-0.07-0.51-0.43-0.43c4.59,12.72,8.29,26.83,11.71,41.63
						c12.359,53.58,19.75,116.74,13.01,176.09c-2.35,20.65-6.85,42.63-12.15,59.41c-3.68,11.68-6.449,22.83-8.67,33.4
						c-9.319,28.61-23.85,52.26-37.729,75.46c-3.601,6.021-7.25,12.17-10.84,17.79c-1.221,1.88-3.49,3.57-3.471,6.07
						C551.78,604.7,556.42,602.57,561.17,602.35z"/>
					<path fill="none" d="M601.07,218.95c-3.32-12.75-6.12-23.13-12.57-32.09c-0.02-0.27-0.08-0.51-0.44-0.43
						c-12.859,138.42-26.09,273.52-38.6,410.28c5.71-6.49,9.73-14.47,14.75-22.12c9.85-14.979,19.39-32.109,26.46-49.439
						c3.75-9.2,6.1-18.851,9.1-29.061c5.79-19.66,11.82-39.21,15.62-60.28c3.83-21.27,6.63-43.1,6.5-66.79
						C621.6,316.93,612.12,261.26,601.07,218.95z M546.09,609.09c13.78-141.99,27.22-285.76,40.62-429.77l1.79,0.17
						c5.13,4.12,8.17,10.33,14.74,13.01c6.2,8.18,14.479,14.22,21.689,21.68c2.4,2.5,3.811,5.53,6.07,8.24
						c3.47,4.18,8.4,7.48,12.58,11.28c4.15,3.78,7.86,7.81,11.71,11.71c7.7,7.81,16.01,15.78,22.979,23.85
						c4.32,4.99,8.73,10.27,13.021,15.62c4.78,5.96,10.11,12.48,15.17,19.08c3.53,4.59,7.74,8.84,10.85,13.44
						c2.98,4.41,4.971,10.41,7.801,15.62c8.01,14.69,15.109,30.41,22.56,46.84c0.74,1.48-0.47,2.69,0.43,4.34
						c9.32,19.84,17.57,43.15,24.29,67.22c0.94,3.36,2.931,6.41,3.471,9.54c0.319,1.83-0.311,3.81,0,5.64
						c0.76,4.44,2.96,8.62,3.899,13.01c2.21,10.27,3.65,20.85,4.771,31.66c0.399,3.83,2.06,7.5,2.6,11.28
						c1.65,11.49,1.14,25.04,1.74,37.3c1.01,21.17-1.75,47.021-2.601,70.261c-0.13,3.34-1.72,7.01-2.609,10.399
						c-1.33,5.12-1.04,9.66-3.9,13.45c-1.3,5.71-2.569,11.44-4.77,16.48c-2.061,4.72-3.96,9.939-7.37,13.439
						c-3.061-1.84-4.66-5.2-6.94-7.8c-15.63-17.91-34.069-33.36-56.819-45.11c-9.45-4.88-19.801-9.27-29.92-13.439
						c-21-8.681-45.131-11.351-69.83-13.011c-14.75-1-28.73-0.439-42.5,0.431c-2.03,0.13-4.92,0.29-6.94,0.87
						c-2.439,0.699-3.6,2.84-6.51,3.47L546.09,609.09z M561.17,602.35c14.24-0.63,27.53-1.21,40.771-0.43
						c12.22,0.7,24.609,1.44,36.43,3.03c10.61,1.43,21.18,5.24,31.229,8.67c4.95,1.7,9.471,4.09,14.311,6.08
						c5.149,2.13,10.63,3.45,15.18,5.63c27.18,13.05,48.65,32.01,66.79,52.05c9.78-16.82,12.58-38.649,15.62-63.32
						c1.71-13.93,1.8-30.779,2.16-42.939c0.46-15.29,1-33.99-2.16-46.4c-0.46-1.779-1.85-3.37-2.17-5.21
						c-1.32-7.64-1.09-15.38-2.17-22.55c-3.24-21.49-8.08-41.47-13.88-60.72c-2.011-6.69-5.13-13.34-7.37-19.95
						c-7.07-20.84-15.29-40.33-23.86-58.98c-8.56-18.65-18.18-37.76-30.359-52.48c-3.091-3.74-7.44-7.21-9.971-10.85
						c-0.979-1.39-1.069-3.3-2.17-4.77c-4.84-6.38-11.819-10.5-16.91-17.34c-5.84-7.87-11.949-14.01-18.22-21.26
						c-4.9-5.67-11.28-9.52-16.479-14.74c-4.101-4.12-7.21-8.84-11.28-12.58c-2.13-1.95-4.3-3.9-6.5-5.64
						c-8.46-6.67-14.87-14.56-22.99-21.25c-0.02-0.27-0.07-0.51-0.43-0.43c4.59,12.72,8.29,26.83,11.71,41.63
						c12.359,53.58,19.75,116.74,13.01,176.09c-2.35,20.65-6.85,42.63-12.15,59.41c-3.68,11.68-6.449,22.83-8.67,33.4
						c-9.319,28.61-23.85,52.26-37.729,75.46c-3.601,6.021-7.25,12.17-10.84,17.79c-1.221,1.88-3.49,3.57-3.471,6.07
						C551.78,604.7,556.42,602.57,561.17,602.35z"/>
					<path fill="#ED1E25" d="M604.54,40.27c5.39,3.34,4.38,12.45,0.44,16.91c-11.391,6.76-21.311-3.97-17.78-14.31
						C591.62,39.35,599.18,36.92,604.54,40.27z"/>
					<path fill="#ED1E25" d="M745.5,72.79c11.64,2.86,25.66,6.6,34.69,13.45c-0.5,0.61-2.851-0.6-3.471-1.3
						c-7.689-0.11-12.069-2.75-19.95-3.04c-16.31-0.59-31.279,3.71-45.529,7.81c-6.58,1.9-13.34,4.63-19.521,7.37
						c-7.83,3.47-15.09,10.83-26.46,8.24c-3.68-0.83-8.359-5.87-12.14-7.37c-6.05-2.4-17.84-0.69-26.021,0.43
						c-10.479,1.45-19.699,7.03-31.659,5.64c-1.091,0.36-1.7,1.19-3.04,1.3c-1.99-1.33-3.16-1.55-5.641-1.73
						c-0.96-2.53,1.79-4.03,1.74-6.51c-0.08-3.39-3.35-6.5-4.77-9.11c0.18-3.61,3.699-4.39,4.329-7.37
						c0.551-2.56-1.88-6.02-0.859-9.54c1.84-3.6,4.8-3.81,9.54-5.64c4.59-1.77,8.439-2.6,15.18-3.03c0.76-0.06,1.73,0.88,2.6,0.86
						c5.75-0.14,11.4-0.76,17.78,1.74c3.24,1.26,5.71,4.59,9.11,4.77c4.64,4.41,8.6,11.47,14.31,14.74
						c2.98,1.72,9.61,3.42,13.88,3.04c5.71-0.5,11.17-4.81,16.48-7.37C701.78,72.58,725.2,70.34,745.5,72.79z"/>
					<path fill="#ED1E25" d="M582.42,713.81c3.08,5.641,7.32,10.7,9.11,15.61c-81.19-1.229-156.26-2.6-228.56-4.09
						c-10.61-0.23-21.16-0.45-31.66-0.68c6.11-5.49,14.06-9.83,21.69-14.74c9.55-6.16,18.07-13.47,28.62-16.48
						c19.55,0.521,45.21,1.13,72.07,1.761c24.63,0.569,50.28,1.14,73.17,1.659c0.739,0.021,1.479,0.03,2.22,0.051
						c6.58,0.14,11.22,0.029,19.52,0.43c7.801,0.38,18.32-0.58,22.98,1.3C575.96,700.38,579.86,709.09,582.42,713.81z"/>
					<path fill="#ED1E25" d="M355.6,736.36c129.4,2.819,260.169,4.52,388.6,7.81c-5.3,14.76-14.24,26.66-22.12,39.47
						c-2.66,4.301-4.41,9.07-6.94,13.44c-9.689,16.75-24.18,30.11-35.56,45.11c-11.521,15.18-26.1,28.17-39.04,42.5
						c-12.97,14.369-28.71,25.859-43.8,37.729c-21.78-0.63-43.34-2.26-66.79-5.2c-14.03-1.77-27.99-2.31-40.34-4.77
						c-5.89-1.181-11.27-4.851-17.35-4.34c-0.38-4.25,8.48-7.37,6.08-12.58c-1.59-3.431-17.3-4.28-21.69-5.2
						c-11.35-2.37-28.01-8.33-39.03-10.84c-5.64-1.29-11.46-2.15-16.92-3.471c-16.84-4.069-32.72-6.67-48.14-11.71
						c-29.58-9.689-56.98-23.689-83.27-38.17c-8.93-4.92-18.2-8.71-26.46-13.88c-12.45-7.79-25.75-14.58-38.6-22.12
						c-7.04-4.14-12.46-9.359-21.25-12.14c-10.28-9.09-23.89-17.17-33.39-25.59c49.98,0.42,92.74,1.75,139.65,2.17
						c45.21,0.4,93.41,3,137.48,1.729c10.76,1.9,21.96,0.96,32.97,1.311c-6-2.48-12.76-1.11-19.09-1.311
						c-4.64-0.149-9.26-0.27-13.87-0.369c-38.22-0.851-75.99-0.4-120.14-2.66c-38.26-1.95-79.68-0.511-121.44-2.17
						c-6.54-0.271-13.52-0.54-20.38-0.87c-6.83-0.32-13.9,0.89-19.52-0.431c-1.32-0.31-2.66-1.3-4.34-1.739
						c-2.54-0.66-5.35,0.47-7.37-0.431c-2.67-1.189-7.32-11.87-9.54-14.31c-0.07-0.36,0.16-0.42,0.43-0.44
						C203.95,733.82,277.68,734.67,355.6,736.36z"/>
					<path fill="#ED1E25" d="M593.27,108.79c-2.189,23.51-4.369,47.03-6.56,70.53c-13.4,144.01-26.84,287.78-40.62,429.77
						c-2.77,28.48-5.54,56.88-8.34,85.2c-2.74,1.02-7.37,0.15-10.84,0.44c0.56-5.91,1.12-11.95,1.67-18.04
						c1.2-13.011,2.38-26.29,3.54-39.21c0.479-5.37,0.21-11.391,3.03-15.61c-1.7-3.28-0.74-7.4-0.431-10.851
						c1.73-18.97,4.44-39.05,6.07-58.109c6.65-78.16,15.56-158.16,22.99-235.51c6.72-70.06,14.069-139.54,21.25-209.04
						c0.21-0.16,0.649-2.12,0.859-0.87C588.15,108.12,590.97,108.2,593.27,108.79z"/>
					<path fill="#ED1E25" d="M581.56,116.17c-15.72,169.86-33.199,335.5-49.439,503.96c-38.19-2.89-68.06,12.79-100.62,19.95
						c-2.86,0.63-6.27,1.46-9.42,1.93c-2.12,0.3-4.12,0.44-5.76,0.24c-2.79-0.34-4.9-3.49-8.24-3.47c-4.14,0.02-6.2,3.489-9.11,5.64
						c-15.18,4.93-31.46,7.79-49.44,10.84c-8.03,1.36-15.35,1.65-24.29,2.601c-6.92,0.75-14,1.64-21.15,2.489
						c-11.91,1.41-23.97,2.73-35.67,3.15c-21.94,0.78-43.62,0.36-64.19-0.43c-20.72-0.82-41.31-4.41-59.85-9.98
						c15.27-5.35,28.84-13.91,42.51-21.68c6.61-3.76,12.25-9.15,18.65-13.45c12.66-8.51,25.31-17.15,36.86-26.89
						c17.11-14.45,32.76-30.32,47.27-48.141c9.51-11.649,19.85-22.64,29.06-34.699c4.65-6.07,8.69-12.541,13.45-18.65
						c13.8-17.72,26.96-36.28,41.2-54.21c4.77-6,9.14-12.09,13.44-18.65c4.12-6.29,9.18-12.07,13.45-18.21
						c4.59-6.6,7.77-13.75,12.58-20.39c4.61-6.38,8.22-13.41,12.57-19.95c8.71-13.08,19.39-24.9,26.46-39.03
						c6.2-8.26,12.27-16.64,16.91-26.46c4.78-4.08,8.26-9.41,11.71-14.74c3.38-5.23,8.03-9.74,11.71-14.75
						c5.59-7.61,10.52-16.06,16.05-23.85c1.971-2.77,2.66-5.73,4.34-8.68c1.07-1.84,3-3.32,4.341-5.2
						c6.409-9.04,11.979-19.19,18.64-28.63c9.689-13.71,17.439-29.92,26.46-45.54c3.18-5.51,6.2-11.41,9.11-17.34
						c3.069-6.24,6.869-11.93,9.97-18.22C581.49,115.66,581.54,115.89,581.56,116.17z"/>
					<path fill="#ED1E25" d="M597.17,196.4c8.12,6.69,14.53,14.58,22.99,21.25c2.2,1.74,4.37,3.69,6.5,5.64
						c4.07,3.74,7.18,8.46,11.28,12.58c5.199,5.22,11.579,9.07,16.479,14.74c6.271,7.25,12.38,13.39,18.22,21.26
						c5.091,6.84,12.07,10.96,16.91,17.34c1.101,1.47,1.19,3.38,2.17,4.77c2.53,3.64,6.88,7.11,9.971,10.85
						c12.18,14.72,21.8,33.83,30.359,52.48c8.57,18.65,16.79,38.14,23.86,58.98c2.24,6.61,5.359,13.26,7.37,19.95
						c5.8,19.25,10.64,39.23,13.88,60.72c1.08,7.17,0.85,14.91,2.17,22.55c0.32,1.84,1.71,3.431,2.17,5.21
						c3.16,12.41,2.62,31.11,2.16,46.4c-0.36,12.16-0.45,29.01-2.16,42.939c-3.04,24.671-5.84,46.5-15.62,63.32
						c-18.14-20.04-39.61-39-66.79-52.05c-4.55-2.18-10.03-3.5-15.18-5.63c-4.84-1.99-9.36-4.38-14.311-6.08
						c-10.05-3.43-20.619-7.24-31.229-8.67c-11.82-1.59-24.21-2.33-36.43-3.03c-13.24-0.78-26.53-0.2-40.771,0.43
						c-4.75,0.221-9.39,2.351-12.57,3.471c-0.02-2.5,2.25-4.19,3.471-6.07c3.59-5.62,7.239-11.77,10.84-17.79
						c13.88-23.2,28.41-46.85,37.729-75.46c2.221-10.57,4.99-21.72,8.67-33.4c5.301-16.78,9.801-38.76,12.15-59.41
						c6.74-59.35-0.65-122.51-13.01-176.09c-3.42-14.8-7.12-28.91-11.71-41.63C597.1,195.89,597.15,196.13,597.17,196.4z"/>
				</g>
			</g>
		</g>
	</g>
</g>
</svg>
