<?xml version="1.0" encoding="utf-8"?>
<!-- Generator: Adobe Illustrator 14.0.0, SVG Export Plug-In . SVG Version: 6.00 Build 43363)  -->
<!DOCTYPE svg PUBLIC "-//W3C//DTD SVG 1.0//EN" "http://www.w3.org/TR/2001/REC-SVG-20010904/DTD/svg10.dtd">
<svg version="1.0" xmlns="http://www.w3.org/2000/svg" xmlns:xlink="http://www.w3.org/1999/xlink" x="0px" y="0px" width="756px"
	 height="432px" viewBox="0 0 756 432" enable-background="new 0 0 756 432" xml:space="preserve">
<g id="Layer_1_x23_000000">
	<g>
		<g>
			<path d="M735.572,256.822c0,3.649,0,7.298,0,10.946c-3.108,9.915-0.068,32.972-8.514,38.918
				c-9.104,6.419-29.661,3.007-44.999-1.216c-26.3,10.186-51.891,21.08-82.701,26.756c-7.956,20.979-16.688,49.56-38.918,60.81
				c-12.787,6.486-34.965,11.098-54.729,6.081c-10.574-2.687-15.675-15.371-25.54-17.027c-3.97-0.658-16.874,3.396-25.54,4.865
				c-24.29,4.139-53.073,12.348-75.403,15.811c-33.091,5.135-76.705,4.864-119.187,4.864c-40.759,0-86.164,1.014-120.403-3.648
				c-15.963-2.162-39.239-6.301-60.81-8.513c-21.098-2.162-47.668-5.439-51.08-17.027c-2.551-8.631,2.229-16.976,1.216-25.54
				c-0.676-5.658-3.48-10.388-4.865-17.026c-1.993-9.611-1.959-27.955-3.648-42.566c0-2.027,0-4.054,0-6.081
				c6.436-44.83,10.506-80.42,38.918-102.16c42.887-32.82,109.068-25.219,182.428-26.756c-9.527-5.439-21.401-0.642-24.324-10.946
				c-5.372-18.918,17.263-25.05,37.702-19.459c3.328,5.591-1.571,19.408,3.648,23.107c24.78-18.665,36.688-56.468,62.025-70.539
				c-3.547-5.439,2.027-8.277,4.865-10.946c34.847-32.702,107.7-16.587,177.563-21.891c30.591-2.314,61.536-8.919,77.837,3.648
				c48.9-11.402,94.001-4.949,111.889,31.621c4.511,9.206,4.662,22.719,10.946,30.405c4.695,5.743,11.452,7.01,15.811,12.162
				c16.688,19.729,5.186,55.185,9.729,85.133c0.743,4.831,4.239,9.021,4.864,13.378
				C736.028,235.506,731.248,245.995,735.572,256.822z M727.059,166.825c-0.389-2.922,1.047-13.902-1.216-10.946
				C726.23,158.801,724.812,169.781,727.059,166.825z M725.843,304.254c11.199-28.175,8.429-79.17-4.865-103.376
				c-1.216,0-2.433,0-3.648,0c-12.938,33.175-5.523,78.343,2.433,103.376C722.785,304.119,723.528,301.974,725.843,304.254z
				 M725.843,148.582c0.422-10.236-8.801-15.861-8.514-17.027c4.729-0.034-14.426-11.892-18.243-12.162
				c-1.824,5.068-2.618,11.166-4.864,15.811c-2.736-26.756-8.361-60.218-20.676-71.755c-9.78-9.155-47.312-8.243-72.971-6.081
				c-7.854,0.659-17.602-2.196-21.892,1.216c-7.905-11.655-35.523-7.534-54.729-6.081c-44.188,3.328-93.225,5.304-138.646,2.432
				c-7.905,5.236-19.966,3.209-23.108,4.865c-8.243,4.358-29.053,4.308-36.486,19.459c63.09-2.821,155.099-14.864,226.212-6.081
				c7.736,0.963,15.455,5.659,23.107,7.297c17.517,13.294,16.401,45.219,26.756,65.674c-0.439-22.888-13.192-48.394-15.811-69.323
				c8.496-6.773,25.388-2.567,34.054,1.216c0.507,2.939-2.213,2.652-1.217,6.081c9.814,8.024,13.328,22.348,19.459,34.054
				c-4.746,1.334-9.392,2.77-14.594,3.648c-1.521-20.371-9.155-34.627-19.459-46.215c-7.027-0.541-12.433,0.541-15.811,3.648
				c6.199,21.368,12.246,42.888,17.026,65.674c3.75,0.304,6.875,1.233,9.729,2.433c2.618-6.301,4.646-13.209,7.297-19.459
				c6.504-0.896,4.206,1.486,7.298-3.649c2.956,0.355,14.543-0.861,18.242,2.433c4.967,0.895,4.189-3.919,9.729-2.433
				c5.456,2.247,10.558,4.848,15.811,7.297c-2.938-11.638-19.121-10.067-26.756-17.027c0.828,4.071-2.044,4.443-4.864,4.865
				c-7.18-12.28-12.854-26.063-19.46-38.918c6.081,1.503,9.611,11.081,14.595,9.729c-9.526-13.006-30.354-18.344-46.215-27.972
				c19.864,11.182,51.975-1.149,72.971,10.946c16.588,9.543,14.071,31.114,19.459,52.296c-5.54,2.095-3.834-1.807-7.297,0
				c-0.727,4.527,2.956,11.757,1.217,17.027c-5.22,15.878-34.645,7.517-52.297,12.162c-1.857,6.723,5.405,4.324,4.865,9.729
				c-10.372,7.061-2.517,26.858-10.946,34.054c0.102,9.425,3.108,30.1-3.648,36.486c1.183-27.534-7.804-44.898-12.162-66.891
				c2.062-2.399,6.132-2.787,4.865-8.514c-30.371,0.355-65.032-3.446-103.376-1.216c-14.814,0.861-28.513,4.797-38.918,2.432
				c-4.24-0.963-7.044-4.291-10.946-4.865c-7.364-1.081-14.966,0.405-21.892,0c-29.222-1.689-56.552-5.963-83.917-3.648
				c-8.834,0.743-14.054,1.875-19.459,1.216c-27.77-3.362-54.763,7.128-80.269,8.513c2.314,2.534-10.878,7.5-10.946,1.216
				c1.436-0.186,3.446,0.203,3.648-1.216c-9.003,1.537-22.516,5.034-31.621,2.432c2.517-0.726,7.989,1.503,8.513-1.216
				c-69.205,0.895-126.281,4.02-164.186,38.918c-1.064,2.128-4.071,4.679,0,2.432c3.699,5.118,13.665,1.419,20.675,2.433
				c10.607,1.537,45.59,16.52,44.999,26.756c-0.591,10.169-25.321,12.229-38.918,10.946c-14.797-1.402-30.236-4.342-47.431-4.865
				c-9.459,17.044-3.412,41.52,12.162,47.432c2.771,13.53,6.841,23.361,0,32.837c-3.969,5.507-13.479,5.507-14.594,12.162
				c-0.659,3.952,4.933,7.5,2.433,12.162c15.793,6.824,26.993,20.86,24.324,42.566c16.942,7.787,47.6,1.858,63.242,10.945
				c52.938,1.571,94.137,2.669,148.375,3.648c2.804,0.372,1.351-3.513,3.648-3.648c39.273,3.514,87.295-2.263,130.132-7.297
				c19.662-2.314,34.357-9.882,55.945-14.594c17.668-3.852,35.827-4.933,42.566-12.162c4.561-4.882,10.32-21.419,10.945-30.405
				c1.031-14.645-0.743-26.063,1.217-37.701c-5.287-4.037-15.794-2.855-17.026-10.946c5.017,2.923,11.739,5.625,18.242,3.648
				c5.676-4.307,4.308-17.415-1.216-20.675c-7.247-0.354-13.294,0.489-17.026,3.648c-3.21,3.699,1.469,9.746-1.217,12.162
				c-9.07-16.03,16.959-25.523,29.188-17.027c-1.739-12.432,6.993-23.259,10.946-35.269c2.382-7.23,1.351-15.743,4.864-21.892
				c6.639-11.587,21.892-17.668,34.054-8.513c22.448,16.908,16.08,61.519,21.892,91.214c6.216-4.577,6.723-10.033,13.378-12.161
				c5.945-11.892,4.882-30.794,10.945-42.567c-3.412,12.331-2.264,33.209-7.297,47.432c-2.585,7.314-11.064,9.561-9.729,15.811
				c16.604-27.989,65.083-24.104,88.781-44.999c6.437-17.888-3.243-51.891,10.946-62.025c0.76-19.104,10.371-29.358,12.162-47.432
				C719.086,149.241,723.325,147.433,725.843,148.582z M697.87,282.362c-0.743-2.905,1.521-8.817-1.216-9.729
				C695.016,274.407,694.171,282.262,697.87,282.362z M688.141,299.39c7.482,0.574,9.003-11.233,7.297-15.811
				c-2.787,3.699-1.436,11.537-6.081,13.378c-1.165-2.044-4.037-3.801-4.864,0C686.4,297.075,688.715,296.788,688.141,299.39z
				 M686.925,300.605c-2.433,0.271-4.916-5.422-7.298-1.216C681.52,299.659,685.303,304.068,686.925,300.605z M662.601,106.015
				c4.189,4.561,6.639,12.719,12.162,10.946c-2.5-13.108-9.933-31.266-18.243-42.567c-9.933,0.203-21.385-1.115-26.756,3.649
				C641.993,85.593,653.378,95.948,662.601,106.015z M645.574,99.934c6.959,3.581,9.864,17.686,17.026,17.027
				c-4.054-5.118-9.864-10.777-14.595-18.243C647.719,100.999,645.996,98.025,645.574,99.934z M621.25,307.902
				c1.622,0,3.243,0,4.865,0c-1.402-7.888,5.033-7.938,6.081-13.378c-13.986,1.419-22.095,8.716-34.054,12.162
				c-0.625,7.482,1.233,11.993,0,17.026c7.026-3.445,15.607-13.006,25.54-6.081C619.713,313.358,621.622,310.994,621.25,307.902z
				 M598.143,153.447c-8.007-39.864-8.767-72.414-49.864-77.836c-42.972-5.675-102.937,0.084-143.51-1.216
				c-4.426,5.237-15.676,6.942-21.892,14.595c-7.044,8.665-20.574,49.239-18.243,54.729c1.199,2.821,3.868,2.466,1.216,4.865
				c30.928-2.365,55.59,1.74,79.052,3.648C498.348,156.571,549.766,151.352,598.143,153.447z M559.225,382.09
				c17.415-3.311,26.992-27.263,25.54-41.35C581.809,360.081,572.399,372.969,559.225,382.09z M584.765,301.821
				c0.827-14.154-6.419-26.283-7.229-35.539c0.202,1.47,1.114,2.264,2.364,2.702c-1.52-8.648-5.625-3.479-7.297-8.513
				c0.017-3.412,3.311,2.888,2.433-2.433c-14.544-23.007-46.992-16.977-47.432,7.297c-0.102,5.236,2.922,7.551,2.433,12.162
				c-0.49,4.595-4.747,7.415-6.081,12.162c-6.132,21.959-2.179,50.793-3.648,65.674c8.885,6.723,11.401,19.273,23.107,20.676
				c30.388,3.648,37.634-51.841,32.837-82.701c-3.463-22.331-16.942-36.773-27.973-43.783c0.203,1.993-7.499,1.993-7.297,0
				C572.012,245.691,576.623,278.731,584.765,301.821z M545.847,379.658c28.985-0.271,38.664-32.584,36.485-55.945
				C579.984,352.176,570.829,373.83,545.847,379.658z M532.469,376.01c4.949,1.047-3.328-9.764-4.865-6.081
				C528.617,372.563,532.198,372.631,532.469,376.01z M346.391,148.582c5.034,0.169,9.392-0.338,12.162-2.433
				C353.773,146.234,349.415,146.741,346.391,148.582z M249.096,136.42c0.726-2.517,1.875-4.611,6.081-3.648
				C255.042,124.258,244.535,133.312,249.096,136.42z M87.343,241.013c5.828-5.118,22.55,0.658,26.756-6.081
				c-4.341-23.497-71.012-37.381-75.404-1.217c15.033,5.085,27.482,7.551,48.647,4.865
				C88.812,238.833,88.086,239.932,87.343,241.013z M42.344,315.2c-1.706-6.942,1.267-15.067-1.216-23.108
				c-2.263-1.063-7.533-5.32-8.513-3.648c3.75,2.28-3.074,4.104-3.648,6.081c-0.338-2.128,3.429-6.063,0-7.297
				C17.986,300.386,26.787,332.396,42.344,315.2z"/>
			<path fill="#FFFFFF" d="M725.843,155.879c2.263-2.956,0.827,8.023,1.216,10.946C724.812,169.781,726.23,158.801,725.843,155.879z
				"/>
			<path d="M696.654,272.633c2.736,0.912,0.473,6.824,1.216,9.729C694.171,282.262,695.016,274.407,696.654,272.633z"/>
			<path d="M695.438,283.579c1.706,4.577,0.186,16.385-7.297,15.811c0.574-2.602-1.74-2.314-3.648-2.433
				c0.827-3.801,3.699-2.044,4.864,0C694.002,295.116,692.65,287.278,695.438,283.579z"/>
			<path d="M679.627,299.39c2.382-4.206,4.865,1.486,7.298,1.216C685.303,304.068,681.52,299.659,679.627,299.39z"/>
			<path d="M601.791,310.335c1.773,1.064,3.852,1.824,3.648,4.865c-1.03,0.219-1.148-0.474-1.216-1.217
				c-3.227-0.389,1.132,6.808-3.648,4.865C599.983,315.014,602.771,314.558,601.791,310.335z"/>
			<path d="M577.467,265.336c0.018,0.271,0.034,0.558,0.051,0.845C577.467,265.91,577.45,265.64,577.467,265.336z"/>
			<path fill="#FFFFFF" d="M527.604,369.929c1.537-3.683,9.814,7.128,4.865,6.081C532.198,372.631,528.617,372.563,527.604,369.929z
				"/>
			<path d="M460.713,202.094c26.013-2.466,54.492-0.355,51.08,26.756c-42.533,18.344-119.203,21.654-169.05,10.945
				C361.594,221.52,419.177,206.03,460.713,202.094z M505.712,222.77c3.26-20.456-35.151-17.263-51.08-15.811
				c-31.316,2.838-73.714,11.419-92.43,21.892c-3.682,2.061-10.979,8.074-9.729,10.945c27.043,6.183,77.093,0.71,103.376-2.433
				c15.709-1.875,34.188,0.136,44.999-7.297C502.267,229.087,505.61,223.445,505.712,222.77z"/>
			<path d="M487.47,306.687c-2.298,4.189-4.933,8.04-3.649,15.811c-10.996,6.014-14.848,25.86-36.485,20.675
				c-9.172-2.195-37.11-25.709-37.702-31.621c0-0.456,8.412-18.107,10.946-20.675c5.287-5.354,14.408-9.933,20.675-8.514
				c-4.139-1.469,6.486-4.526,12.162-3.648c3.192,0.49,1.875,3.345,4.864,4.865c1.622,0.827,5.338-0.558,7.298,0
				C478.382,287.177,484.581,300.268,487.47,306.687z M478.956,315.2c5.422-21.841-16.148-30.794-34.054-29.188
				c-1.063,3.901,3.159,2.517,3.648,4.864c-12.297,7.922-6.199,30.286,6.081,32.837c2.602-1.452,6.791-1.317,8.514-3.648
				c1.639,1.301,3.463,8.581,6.081,4.865C467.977,322.007,475.324,317.277,478.956,315.2z M454.632,337.091
				c12.838-0.557,24.121-9.121,24.324-18.242C473.534,327.615,464.074,332.345,454.632,337.091z M455.849,328.578
				c-2.838,0.405-5.018,1.47-7.298,2.433c3.666-4.189-14.746-5.592-6.08-10.946c0.118,1.909-0.169,4.223,2.432,3.648
				c1.655-5.304-4.713-2.584-3.648-7.297c-6.081,0.912-5.912,0.405-9.729-2.433c0.676-1.757,1.892-2.973,3.648-3.648
				c1.217,0.659,5.372,6.301,4.865,1.216c-3.328-4.577-6.25-4.324-9.729-4.864c1.857-3.429,0.929-9.611,8.513-7.297
				c2.298-5.271,2.974-8.97,3.649-13.378c-11.368,4.223-22.771,11.503-23.108,23.107c1.437,0.591,2.754,1.301,3.648,2.432
				C417.336,328.983,449.379,340.875,455.849,328.578z"/>
			<path d="M363.418,380.874c13.75-16.655,37.263-23.547,66.891-24.324C423.112,378.982,391.153,383.036,363.418,380.874z"/>
			<path d="M357.337,306.687c-0.473,8.04-1.791,15.236-3.648,21.892c-18.429,1.47-47.516,5.625-65.674,1.216
				c-2.99-0.727-8.057,0.761-13.378,1.217c-16.503,1.401-39.695-3.97-51.08,3.648c13.936,4.307,44.796,5.912,59.593,2.432
				c2.213-0.523,5.388,0.643,4.865-3.648c14.172,8.092,41.452-0.135,60.81,1.217c-0.102,12.061-9.003,15.32-12.162,24.323
				c-10.253,5.135-33.377,10.253-43.783,1.217c-14.425,4.864-47.668-0.305-69.323,4.864c-1.115-2.128-2.264-4.223-6.081-3.648
				c-1.74-15.253,1.419-28.04-6.081-37.702c-13.716,3.311-3.243,30.811-10.946,40.135c-14.982-1.166-47.769-8.159-64.458,0
				c-43.411,2.871-56.249-31.317-62.025-62.026c13.446-3.868,37.094-1.857,57.161-2.432c4.409-1.166,1.014,5.473,4.865,4.864
				c17.872,0.777,38.868-1.57,54.729,1.217c3.209,0.371,3.142-2.534,3.649-4.865c3.834,3.361,16.503,3.345,21.891,1.216
				c4.155-0.912,1.537,4.949,6.081,3.649c20.354-1.943,48.8,4.206,63.242-3.649C299.686,307.683,339.871,297.413,357.337,306.687z
				 M137.207,334.659c14.51-0.355,52.887,9.341,59.593-3.648c-17.5-2.011-43.31-2.011-60.81,0
				C135.94,332.683,136.565,333.679,137.207,334.659z"/>
			<path fill="#FFFFFF" d="M358.553,146.149c-2.771,2.095-7.128,2.602-12.162,2.433
				C349.415,146.741,353.773,146.234,358.553,146.149z"/>
			<path fill="#FFFFFF" d="M255.177,132.771c-4.206-0.963-5.355,1.132-6.081,3.648C244.535,133.312,255.042,124.258,255.177,132.771
				z"/>
		</g>
	</g>
</g>
<g id="Layer_2_x23_FFFFFF">
	<g>
		<g>
			<path fill="#FFFFFF" d="M725.843,155.879c2.263-2.956,0.827,8.023,1.216,10.946C724.812,169.781,726.23,158.801,725.843,155.879z
				"/>
			<path fill="#FFFFFF" d="M720.978,200.878c13.294,24.206,16.064,75.201,4.865,103.376c-2.314-2.28-3.058-0.135-6.081,0
				c-7.956-25.033-15.371-70.201-2.433-103.376C718.545,200.878,719.762,200.878,720.978,200.878z"/>
			<path fill="#FFFFFF" d="M662.601,116.961c-7.162,0.659-10.067-13.446-17.026-17.027c0.422-1.909,2.145,1.064,2.432-1.216
				C652.736,106.184,658.547,111.843,662.601,116.961z"/>
			<path fill="#FFFFFF" d="M626.115,307.902c-1.622,0-3.243,0-4.865,0c0.372,3.092-1.537,5.456,2.433,9.729
				c-9.933-6.925-18.514,2.636-25.54,6.081c1.233-5.033-0.625-9.544,0-17.026c11.959-3.446,20.067-10.743,34.054-12.162
				C631.148,299.964,624.713,300.015,626.115,307.902z M605.439,315.2c0.203-3.041-1.875-3.801-3.648-4.865
				c0.979,4.223-1.808,4.679-1.216,8.514c4.78,1.942,0.422-5.254,3.648-4.865C604.291,314.727,604.409,315.419,605.439,315.2z"/>
			<path fill="#FFFFFF" d="M548.278,75.61c41.098,5.422,41.857,37.972,49.864,77.836c-48.377-2.095-99.795,3.125-153.24-1.216
				c-23.462-1.909-48.124-6.014-79.052-3.648c2.652-2.399-0.017-2.044-1.216-4.865c-2.331-5.49,11.199-46.063,18.243-54.729
				c6.216-7.652,17.466-9.358,21.892-14.595C445.342,75.695,505.307,69.935,548.278,75.61z"/>
			<path fill="#FFFFFF" d="M584.765,340.74c1.452,14.087-8.125,38.039-25.54,41.35C572.399,372.969,581.809,360.081,584.765,340.74z
				"/>
			<path fill="#FFFFFF" d="M577.518,266.181c-0.017-0.287-0.033-0.574-0.051-0.845C577.45,265.64,577.467,265.91,577.518,266.181z
				 M577.535,266.282c0.811,9.256,8.057,21.385,7.229,35.539c-8.142-23.09-12.753-56.13-43.783-52.296
				c-0.202,1.993,7.5,1.993,7.297,0c11.03,7.01,24.51,21.452,27.973,43.783c4.797,30.86-2.449,86.35-32.837,82.701
				c-11.706-1.402-14.223-13.953-23.107-20.676c1.47-14.881-2.483-43.715,3.648-65.674c1.334-4.747,5.591-7.567,6.081-12.162
				c0.489-4.611-2.534-6.926-2.433-12.162c0.439-24.273,32.888-30.304,47.432-7.297c0.878,5.32-2.416-0.979-2.433,2.433
				c1.672,5.033,5.777-0.136,7.297,8.513C578.649,268.546,577.737,267.752,577.535,266.282z"/>
			<path fill="#FFFFFF" d="M582.332,323.713c2.179,23.361-7.5,55.675-36.485,55.945C570.829,373.83,579.984,352.176,582.332,323.713
				z"/>
			<path d="M577.467,265.336c0.018,0.271,0.034,0.558,0.051,0.845C577.467,265.91,577.45,265.64,577.467,265.336z"/>
			<path fill="#FFFFFF" d="M527.604,369.929c1.537-3.683,9.814,7.128,4.865,6.081C532.198,372.631,528.617,372.563,527.604,369.929z
				"/>
			<path fill="#FFFFFF" d="M454.632,206.959c15.929-1.453,54.34-4.645,51.08,15.811c-0.102,0.676-3.445,6.317-4.864,7.297
				c-10.811,7.433-29.29,5.422-44.999,7.297c-26.283,3.143-76.333,8.615-103.376,2.433c-1.25-2.871,6.047-8.885,9.729-10.945
				C380.918,218.378,423.315,209.797,454.632,206.959z"/>
			<path fill="#FFFFFF" d="M444.902,286.012c17.905-1.605,39.476,7.348,34.054,29.188c-3.632,2.077-10.979,6.807-9.729,9.729
				c-2.618,3.716-4.442-3.564-6.081-4.865c-1.723,2.331-5.912,2.196-8.514,3.648c-12.28-2.551-18.378-24.915-6.081-32.837
				C448.062,288.528,443.839,289.913,444.902,286.012z"/>
			<path fill="#FFFFFF" d="M448.551,331.011c2.28-0.963,4.46-2.027,7.298-2.433c-6.47,12.297-38.513,0.405-32.838-17.027
				c-0.895-1.131-2.212-1.841-3.648-2.432c0.338-11.604,11.74-18.885,23.108-23.107c-0.676,4.408-1.352,8.107-3.649,13.378
				c-7.584-2.314-6.655,3.868-8.513,7.297c3.479,0.54,6.401,0.287,9.729,4.864c0.507,5.085-3.648-0.557-4.865-1.216
				c-1.757,0.676-2.973,1.892-3.648,3.648c3.817,2.838,3.648,3.345,9.729,2.433c-1.064,4.713,5.304,1.993,3.648,7.297
				c-2.601,0.574-2.313-1.739-2.432-3.648C433.805,325.419,452.217,326.821,448.551,331.011z"/>
			<path fill="#FFFFFF" d="M358.553,146.149c-2.771,2.095-7.128,2.602-12.162,2.433
				C349.415,146.741,353.773,146.234,358.553,146.149z"/>
			<path fill="#FFFFFF" d="M255.177,132.771c-4.206-0.963-5.355,1.132-6.081,3.648C244.535,133.312,255.042,124.258,255.177,132.771
				z"/>
			<path fill="#FFFFFF" d="M196.8,331.011c-6.706,12.989-45.083,3.293-59.593,3.648c-0.642-0.98-1.267-1.977-1.216-3.648
				C153.49,329,179.3,329,196.8,331.011z"/>
			<path fill="#FFFFFF" d="M114.099,234.932c-4.206,6.739-20.929,0.963-26.756,6.081c0.743-1.081,1.47-2.18,0-2.433
				c-21.165,2.686-33.614,0.22-48.647-4.865C43.087,197.55,109.758,211.435,114.099,234.932z"/>
			<path fill="#FFFFFF" d="M41.127,292.092c2.483,8.041-0.49,16.166,1.216,23.108c-15.557,17.195-24.357-14.814-13.378-27.973
				c3.429,1.233-0.338,5.169,0,7.297c0.574-1.977,7.398-3.801,3.648-6.081C33.594,286.771,38.864,291.028,41.127,292.092z"/>
		</g>
	</g>
</g>
<g id="Layer_3_x23_ED1C4E">
	<g>
		<g>
			<path fill="#ED1C4E" d="M725.843,155.879c2.263-2.956,0.827,8.023,1.216,10.946C724.812,169.781,726.23,158.801,725.843,155.879z
				"/>
			<path fill="#ED1C4E" d="M717.329,131.555c-0.287,1.166,8.936,6.791,8.514,17.027c-2.518-1.149-6.757,0.659-9.729-2.433
				c-1.791,18.074-11.402,28.327-12.162,47.432c-14.189,10.135-4.51,44.138-10.946,62.025
				c-23.698,20.895-72.177,17.01-88.781,44.999c-1.335-6.25,7.145-8.496,9.729-15.811c5.033-14.223,3.885-35.101,7.297-47.432
				c-6.063,11.773-5,30.676-10.945,42.567c-6.655,2.128-7.162,7.584-13.378,12.161c-5.812-29.695,0.557-74.306-21.892-91.214
				c-12.162-9.155-27.415-3.074-34.054,8.513c-3.514,6.149-2.482,14.662-4.864,21.892c-3.953,12.01-12.686,22.837-10.946,35.269
				c-12.229-8.496-38.259,0.997-29.188,17.027c2.686-2.416-1.993-8.463,1.217-12.162c3.732-3.159,9.779-4.003,17.026-3.648
				c5.523,3.26,6.892,16.368,1.216,20.675c-6.503,1.977-13.226-0.726-18.242-3.648c1.232,8.091,11.739,6.909,17.026,10.946
				c-1.96,11.638-0.186,23.057-1.217,37.701c-0.625,8.986-6.385,25.523-10.945,30.405c-6.739,7.229-24.898,8.311-42.566,12.162
				c-21.588,4.712-36.283,12.279-55.945,14.594c-42.836,5.034-90.859,10.811-130.132,7.297c-2.297,0.136-0.845,4.021-3.648,3.648
				c-54.239-0.979-95.438-2.077-148.375-3.648c-15.642-9.087-46.299-3.158-63.242-10.945c2.669-21.706-8.53-35.742-24.324-42.566
				c2.5-4.662-3.091-8.21-2.433-12.162c1.115-6.655,10.625-6.655,14.594-12.162c6.841-9.476,2.771-19.307,0-32.837
				c-15.574-5.912-21.621-30.388-12.162-47.432c17.195,0.523,32.634,3.463,47.431,4.865c13.598,1.283,38.327-0.777,38.918-10.946
				c0.591-10.236-34.392-25.219-44.999-26.756c-7.01-1.014-16.976,2.686-20.675-2.433c-4.071,2.247-1.064-0.304,0-2.432
				c37.904-34.898,94.981-38.023,164.186-38.918c-0.524,2.719-5.997,0.49-8.513,1.216c9.104,2.602,22.618-0.895,31.621-2.432
				c-0.203,1.419-2.213,1.03-3.648,1.216c0.067,6.284,13.26,1.317,10.946-1.216c25.506-1.385,52.499-11.875,80.269-8.513
				c5.405,0.659,10.625-0.473,19.459-1.216c27.364-2.314,54.695,1.959,83.917,3.648c6.926,0.405,14.527-1.081,21.892,0
				c3.902,0.574,6.706,3.902,10.946,4.865c10.405,2.365,24.104-1.571,38.918-2.432c38.344-2.23,73.005,1.571,103.376,1.216
				c1.267,5.727-2.804,6.115-4.865,8.514c4.358,21.993,13.345,39.357,12.162,66.891c6.757-6.386,3.75-27.061,3.648-36.486
				c8.43-7.196,0.574-26.993,10.946-34.054c0.54-5.405-6.723-3.006-4.865-9.729c17.652-4.645,47.077,3.716,52.297-12.162
				c1.739-5.27-1.943-12.5-1.217-17.027c3.463-1.807,1.757,2.095,7.297,0c-5.388-21.182-2.871-42.752-19.459-52.296
				c-20.996-12.095-53.106,0.236-72.971-10.946c15.86,9.628,36.688,14.966,46.215,27.972c-4.983,1.352-8.514-8.226-14.595-9.729
				c6.605,12.854,12.28,26.638,19.46,38.918c2.82-0.422,5.692-0.793,4.864-4.865c7.635,6.959,23.817,5.389,26.756,17.027
				c-5.253-2.449-10.354-5.051-15.811-7.297c-5.54-1.486-4.763,3.328-9.729,2.433c-3.699-3.294-15.286-2.078-18.242-2.433
				c-3.092,5.135-0.794,2.753-7.298,3.649c-2.651,6.25-4.679,13.158-7.297,19.459c-2.854-1.199-5.979-2.128-9.729-2.433
				c-4.78-22.787-10.827-44.306-17.026-65.674c3.378-3.108,8.783-4.189,15.811-3.648c10.304,11.588,17.938,25.844,19.459,46.215
				c5.202-0.878,9.848-2.314,14.594-3.648c-6.131-11.706-9.645-26.03-19.459-34.054c-0.996-3.429,1.724-3.142,1.217-6.081
				c-8.666-3.784-25.558-7.99-34.054-1.216c2.618,20.929,15.371,46.435,15.811,69.323c-10.354-20.456-9.239-52.38-26.756-65.674
				c-7.652-1.638-15.371-6.334-23.107-7.297c-71.113-8.784-163.122,3.26-226.212,6.081c7.433-15.151,28.243-15.101,36.486-19.459
				c3.142-1.655,15.203,0.372,23.108-4.865c45.421,2.872,94.457,0.896,138.646-2.432c19.205-1.453,46.823-5.574,54.729,6.081
				c4.29-3.412,14.037-0.558,21.892-1.216c25.658-2.162,63.19-3.074,72.971,6.081c12.314,11.537,17.939,44.999,20.676,71.755
				c2.246-4.645,3.04-10.743,4.864-15.811C702.903,119.664,722.059,131.521,717.329,131.555z M511.793,228.851
				c3.412-27.111-25.067-29.223-51.08-26.756c-41.536,3.936-99.119,19.425-117.97,37.702
				C392.59,250.505,469.26,247.194,511.793,228.851z M483.82,322.497c-1.283-7.771,1.352-11.621,3.649-15.811
				c-2.889-6.419-9.088-19.51-21.892-23.107c-1.96-0.558-5.676,0.827-7.298,0c-2.989-1.521-1.672-4.375-4.864-4.865
				c-5.676-0.878-16.301,2.18-12.162,3.648c-6.267-1.419-15.388,3.159-20.675,8.514c-2.534,2.567-10.946,20.219-10.946,20.675
				c0.592,5.912,28.53,29.426,37.702,31.621C468.973,348.357,472.824,328.511,483.82,322.497z M430.309,356.55
				c-29.628,0.777-53.141,7.669-66.891,24.324C391.153,383.036,423.112,378.982,430.309,356.55z M353.688,328.578
				c1.858-6.655,3.175-13.852,3.648-21.892c-17.466-9.273-57.651,0.996-71.755-4.865c-14.442,7.855-42.887,1.706-63.242,3.649
				c-4.544,1.3-1.926-4.562-6.081-3.649c-5.388,2.129-18.057,2.146-21.891-1.216c-0.507,2.331-0.439,5.236-3.649,4.865
				c-15.861-2.787-36.857-0.439-54.729-1.217c-3.851,0.608-0.456-6.03-4.865-4.864c-20.067,0.574-43.715-1.437-57.161,2.432
				c5.777,30.709,18.614,64.897,62.025,62.026c16.689-8.159,49.476-1.166,64.458,0c7.703-9.324-2.77-36.824,10.946-40.135
				c7.5,9.662,4.341,22.449,6.081,37.702c3.817-0.574,4.966,1.521,6.081,3.648c21.655-5.169,54.897,0,69.323-4.864
				c10.405,9.036,33.53,3.918,43.783-1.217c3.159-9.003,12.061-12.263,12.162-24.323c-19.358-1.352-46.638,6.875-60.81-1.217
				c0.523,4.291-2.652,3.125-4.865,3.648c-14.797,3.48-45.658,1.875-59.593-2.432c11.385-7.618,34.577-2.247,51.08-3.648
				c5.321-0.456,10.388-1.943,13.378-1.217C306.172,334.203,335.26,330.048,353.688,328.578z"/>
			<path fill="#ED1C4E" d="M662.601,116.961c-7.162,0.659-10.067-13.446-17.026-17.027c0.422-1.909,2.145,1.064,2.432-1.216
				C652.736,106.184,658.547,111.843,662.601,116.961z"/>
			<path fill="#ED1C4E" d="M626.115,307.902c-1.622,0-3.243,0-4.865,0c0.372,3.092-1.537,5.456,2.433,9.729
				c-9.933-6.925-18.514,2.636-25.54,6.081c1.233-5.033-0.625-9.544,0-17.026c11.959-3.446,20.067-10.743,34.054-12.162
				C631.148,299.964,624.713,300.015,626.115,307.902z M605.439,315.2c0.203-3.041-1.875-3.801-3.648-4.865
				c0.979,4.223-1.808,4.679-1.216,8.514c4.78,1.942,0.422-5.254,3.648-4.865C604.291,314.727,604.409,315.419,605.439,315.2z"/>
			<path d="M577.467,265.336c0.018,0.271,0.034,0.558,0.051,0.845C577.467,265.91,577.45,265.64,577.467,265.336z"/>
			<path fill="#FFFFFF" d="M527.604,369.929c1.537-3.683,9.814,7.128,4.865,6.081C532.198,372.631,528.617,372.563,527.604,369.929z
				"/>
			<path fill="#ED1C4E" d="M358.553,146.149c-2.771,2.095-7.128,2.602-12.162,2.433
				C349.415,146.741,353.773,146.234,358.553,146.149z"/>
			<path fill="#ED1C4E" d="M255.177,132.771c-4.206-0.963-5.355,1.132-6.081,3.648C244.535,133.312,255.042,124.258,255.177,132.771
				z"/>
			<path fill="#ED1C4E" d="M196.8,331.011c-6.706,12.989-45.083,3.293-59.593,3.648c-0.642-0.98-1.267-1.977-1.216-3.648
				C153.49,329,179.3,329,196.8,331.011z"/>
		</g>
	</g>
</g>
</svg>
