<?xml version="1.0" encoding="utf-8"?>
<!-- Generator: Adobe Illustrator 14.0.0, SVG Export Plug-In . SVG Version: 6.00 Build 43363)  -->
<!DOCTYPE svg PUBLIC "-//W3C//DTD SVG 1.0//EN" "http://www.w3.org/TR/2001/REC-SVG-20010904/DTD/svg10.dtd">
<svg version="1.0" id="Layer_1_x23_000000" xmlns="http://www.w3.org/2000/svg" xmlns:xlink="http://www.w3.org/1999/xlink" x="0px"
	 y="0px" width="720px" height="720px" viewBox="0 0 720 720" enable-background="new 0 0 720 720" xml:space="preserve">
<g>
	<g>
		<path d="M626.05,597.72c6.641-12.01,39.7-24.67,45.44-3.239C686.58,558.6,626.05,577.27,626.05,597.72z M679.06,578.8
			c4.57,13.08-6.01,26.65-17.31,24.88c12.04-11.189-4.19-21.16-20.01-14.06c-21.09,9.45-31.32,39.93-62.21,40.56
			c-10.41,0.221-26.09-2.46-24.88-14.6c7.92,2.65,9.52,8.3,17.85,9.2c39.57,4.27,46.55-38.61,71.4-51.391
			C655.02,567.67,674.72,566.38,679.06,578.8z"/>
		<path d="M626.05,597.72c0-20.45,60.53-39.12,45.44-3.239C665.75,573.05,632.69,585.71,626.05,597.72z"/>
		<path d="M640.66,182.3c-0.79,7.54-8.76,12.5-13.53,17.85c-76.76-1.07-149.45,8.06-208.79,30.84
			c-32.78,12.58-65.02,33.82-95.74,52.47c-67.29,40.83-130.47,106.3-159.57,183.91c-6.16,16.42-7.63,35.82-17.31,50.3
			c29.21-151.58,133.83-241.21,266.129-299.12c29.73-13.02,62.351-24.36,95.2-30.84C548.38,179.56,596.14,175.56,640.66,182.3z"/>
		<path d="M609.82,208.81c0.18,0,0.359,0,0.55,0c-1.19,13.09-10.59,24.37-16.771,36.24c-44.35,85.24-72.939,199.72-72.489,319.141
			c0.02,3.659,1.83,6.279,1.09,9.739c-0.58,2.69-13.601,20.271-18.4,17.311c-3.14-1.95-1.06-6.8-0.54-12.44
			c3.811-40.81,4.62-75.34,11.36-111.43c12.14-64.95,34.56-141.77,61.67-199.6C585.29,248.57,597.21,220.48,609.82,208.81z"/>
		<path d="M603.33,580.96c3.5,29.18-41.67,41.08-43.271,9.74c5.631,0.16,4.971,6.09,8.11,8.109c9.38,6.021,20.43-2.56,19.48-11.899
			c-1.681-16.51-28.24-10.92-38.41-4.87c-28.92,17.229-55.11,53.15-85.46,70.32c-14.42,8.159-35.851,14.699-51.931,8.12
			c77.37,4.829,93.12-90.511,157.41-98.45C585.31,560.05,601.83,568.4,603.33,580.96z M588.73,578.26
			c5.22,5.82,3.81,15.521-0.54,21.63c-2.65,1.511-5.721,2.58-7.57,4.87c20.72-2.109,21.26-30.029,7.03-36.24
			c-32.561-14.21-64.431,25.45-77.9,38.95C523.49,597.64,565.22,552.03,588.73,578.26z"/>
		<path d="M588.19,599.89c4.35-6.109,5.76-15.81,0.54-21.63c-23.511-26.229-65.24,19.38-78.98,29.21
			c13.47-13.5,45.34-53.16,77.9-38.95c14.229,6.211,13.689,34.131-7.03,36.24C582.47,602.47,585.54,601.4,588.19,599.89z"/>
		<path d="M556.27,293.73c-2.92,12.41-8.869,21.79-11.899,34.08c-170.4,27.75-292.94,108.05-387.84,213.12
			c29.44-55.18,86.92-99.029,138.48-135.229c66.46-46.65,148.431-74.16,243.41-89.25c1.41-2.73,3.061-5.23,3.79-8.65
			c-175.97,20.39-303.45,101.51-386.22,216.91C230.93,394.98,369.73,308.24,556.27,293.73z"/>
		<path d="M548.16,222.33c10.78,19.61-3.13,58-27.05,42.73C510.71,242.81,525.97,213.38,548.16,222.33z M532.47,263.98
			c12.011,3.23,20.96-30.24,11.36-38.4C533.71,224.5,522.12,261.2,532.47,263.98z"/>
		<path d="M543.83,225.58c9.6,8.16,0.65,41.63-11.36,38.4C522.12,261.2,533.71,224.5,543.83,225.58z"/>
		<path d="M390.75,551.21c32.8-28.77,74.72,5.41,74.11,40.57c-0.79,45.71-52.591,62.64-96.28,49.22
			c-42.06-12.91-66.42-41.42-91.42-64.37c-4.28-3.92-14-11.17-20.56-11.899c-25.11-2.79-42.42,28.75-24.88,46.52
			c-36.89-3.15-31.06-59.33,2.71-62.74c24.63-2.5,44.33,13.25,56.79,24.88c26.44,24.66,46.74,58.641,85.47,63.29
			c43.77,16.74,88.79-29.01,63.29-63.83c-8.41-11.47-41.811-13.02-40.57,7.03c0.64,10.46,14.189,12.45,24.34,12.98
			C393.32,623.39,363.42,575.18,390.75,551.21z M427.54,636.13c44.85-11.38,41.95-90.68-8.66-89.79
			c-37.6,0.67-48.899,53.57-7.57,50.851c-28.04-9.431-13.06-41.421,15.141-38.41C461.56,562.53,454.99,626.94,427.54,636.13z
			 M246.33,560.95c34-7.92,46.9,38.01,68.15,45.43c-20.84-14.42-38.13-60.46-81.13-53c-15.67,2.71-34.62,32.01-14.61,44.89
			C221.12,578.92,229.7,564.82,246.33,560.95z"/>
		<path d="M462.15,173.11c14.35,7.96-5.62,41.76-3.78,11.9C337.64,225.3,245.48,294.15,179.25,388.94c0.49,6.979,2.49,17.35,0,23.8
			c-1.81-0.51-3.41,1.939-4.32,0.54c-10.65-29.73,14.85-51.11,30.83-68.7c34.49-37.98,67.33-70.91,110.89-100.61
			C360.62,213.98,414.71,195.39,462.15,173.11z"/>
		<path d="M459.45,244.51c4.05,15.12,2.29,37.54-7.57,44.36C419.13,311.5,427.01,220.14,459.45,244.51z M442.68,286.16
			c16.391-2.01,17.2-27.64,12.44-40.03C443.27,248.72,436.23,272.14,442.68,286.16z"/>
		<path d="M455.12,246.13c4.76,12.39,3.95,38.02-12.44,40.03C436.23,272.14,443.27,248.72,455.12,246.13z"/>
		<path d="M418.88,546.34c50.61-0.89,53.51,78.41,8.66,89.79c27.45-9.189,34.02-73.6-1.09-77.35
			c-28.2-3.011-43.181,28.979-15.141,38.41C369.98,599.91,381.28,547.01,418.88,546.34z"/>
		<path d="M407.52,83.32c-4.02,28.62,6.771,73.39-2.159,101.15c-0.891,2.77-3.301,5.07-6.49,6.49
			c-5.75-29.53,3.78-69.15,0.54-102.78c-26.78-6.9-81.39-9.66-76.81,29.76c15.88-6.07,48.75-17.73,69.78-8.12
			c-23.85,2.6-57.32,1.83-69.78,15.69c18.57-1.22,53.14-17.72,71.4-3.25c-25.55-2.03-50.52,1.46-70.32,9.2
			c-2.02,30.07-4.94,72.08-7.03,97.36c-0.86,10.35-7.27,14.42-8.12,3.79c-1.03-12.91,3-30.69,3.79-48.14
			c1.49-32.89-1.36-59.75,2.16-88.71c5.18-4.75,11.77-8.07,18.39-11.36c-3.8-4.03,0.85-10.7,0-15.15
			c11.76-10.85,43.8-19.16,58.96-6.49c1.84,11.72-10.69,14.71-9.19,2.71c-14.199-2.79-31.03,0.9-42.189,5.95
			c-0.19,5.39-2.36,8.82-4.87,11.9C355.94,74.46,386.37,75.84,407.52,83.32z"/>
		<path d="M362.08,285.08c4.47,10.7,2.92,29.45-5.95,34.62c-2.26,0.1-1.67-2.66-4.32-2.17
			C352.25,303.73,350.29,287.53,362.08,285.08z"/>
		<path d="M351.27,280.21c25.1-8.55,20.81,42.71,4.32,44.36C335.6,326.56,340.58,287.51,351.27,280.21z M356.13,319.7
			c8.87-5.17,10.42-23.92,5.95-34.62c-11.79,2.45-9.83,18.65-10.27,32.45C354.46,317.04,353.87,319.8,356.13,319.7z"/>
		<path d="M250.11,618.83c3.17-26.82,48.24-14.37,43.82,17.3c-2.27,16.25-21.09,32.16-40.57,25.43
			c-64.85-22.39-63.65-119.8-143.88-126.579c-37.66-3.181-68.49,11.89-74.11,42.739c-8.64,47.45,47.81,66.19,82.76,45.971
			c-4.62,15.069-25.68,21.27-46.52,19.479c-26.15-2.25-51.96-18.49-57.34-43.82C5.23,556.74,41.68,522.9,79.72,519.84
			c22.17-1.79,48.64,5.05,65.46,15.68c43.6,27.57,54.65,89.881,97.36,109.811c12.57,5.87,31.14,3.95,35.7-9.74
			C284.73,616.13,261.37,604.02,250.11,618.83z M277.16,612.88c19.46,20.43-8.66,50.9-33.54,38.4
			C270.5,677.6,309.01,627.05,277.16,612.88z M30.5,576.63c6.36-43.97,70.01-57.18,109.81-37.86
			C92.46,509.18,23.07,528.06,18.06,582.58c-3.28,35.64,33.51,62.92,71.4,53.55C51.99,637.06,25.32,612.43,30.5,576.63z"/>
		<path d="M288.52,332.14c9.13,10.3,0.86,40.54-15.15,37.32C258.61,359.85,275.2,317.11,288.52,332.14z M280.95,364.05
			c5.26-5.59,9.19-19.54,4.32-28.67c-8.74,2.74-7.48,16.71-8.11,25.97C279.26,361.41,278.83,364,280.95,364.05z"/>
		<path d="M285.27,335.38c4.87,9.13,0.94,23.08-4.32,28.67c-2.12-0.05-1.69-2.64-3.79-2.7
			C277.79,352.09,276.53,338.12,285.27,335.38z"/>
		<path d="M243.62,651.28c24.88,12.5,53-17.971,33.54-38.4C309.01,627.05,270.5,677.6,243.62,651.28z"/>
		<path d="M259.31,222.33c-0.75,19.68,4.47,44-1.62,63.29c-6.01-14.8-1.4-39.25-5.41-58.42c-22.98-0.42-46.26,3.5-58.96,15.15
			c0.16,5.57,0.02,8.2,0,14.06c14.1-7.06,39.77-16.14,57.88-10.28c-16.4,5.12-45.78,3.07-56.8,16.77
			c14.63-6.13,35.81-11.39,53.55-10.82c-12.94,9.11-41.22,5.49-54.09,16.23c-0.28,18.03-0.99,43.26-1.62,64.37
			c-0.14,4.63,1.99,24.68-3.25,24.88c-6.57,0.26-3.32-24.17-3.25-29.75c0.41-31.3,1.43-59.73,1.63-88.71
			c12.85-12.03,30.59-19.17,54.63-20.01c0.2-1.3-3.41-3.43-2.16-7.58c-8.31-3.83-24.23-5.75-32.46-0.54
			c-1.56,6.38,0.79,16.66-8.11,15.69c-7.01-26.01,24.64-30.65,44.35-25.42c0.99,6.52,3.94,12.45,0,17.85
			C248.81,220.21,256.45,218.89,259.31,222.33z"/>
		<path d="M314.48,606.38c-21.25-7.42-34.15-53.35-68.15-45.43c-16.63,3.87-25.21,17.97-27.59,37.319
			c-20.01-12.88-1.06-42.18,14.61-44.89C276.35,545.92,293.64,591.96,314.48,606.38z"/>
		<path d="M233.89,378.66c3.81,11.359,3.17,31.76-4.87,37.859c-2.53,0-5.05,0-7.58,0C213.1,405.27,216.96,370.64,233.89,378.66z
			 M226.85,411.65c5.91-4.61,8.27-25.21,1.63-30.83C224.67,388.3,222.17,403.55,226.85,411.65z"/>
		<path d="M228.48,380.82c6.64,5.62,4.28,26.22-1.63,30.83C222.17,403.55,224.67,388.3,228.48,380.82z"/>
		<path d="M193.32,432.21c1.68,6.78,0.77,18.26-2.71,23.26c-5.37-6.569,1.15-15.33,1.08-23.26
			C192.24,432.21,192.78,432.21,193.32,432.21z"/>
		<path d="M189.53,427.88c16.27-6.399,8.16,51.57-6.49,28.67C182.28,445.77,180.82,431.31,189.53,427.88z M190.61,455.47
			c3.48-5,4.39-16.479,2.71-23.26c-0.54,0-1.08,0-1.63,0C191.76,440.14,185.24,448.9,190.61,455.47z"/>
		<path d="M140.31,538.77c-39.8-19.319-103.45-6.109-109.81,37.86c-5.18,35.8,21.49,60.43,58.96,59.5
			c-37.89,9.37-74.68-17.91-71.4-53.55C23.07,528.06,92.46,509.18,140.31,538.77z"/>
	</g>
</g>
</svg>
