<?xml version="1.0" encoding="utf-8"?>
<!-- Generator: Adobe Illustrator 14.0.0, SVG Export Plug-In . SVG Version: 6.00 Build 43363)  -->
<!DOCTYPE svg PUBLIC "-//W3C//DTD SVG 1.0//EN" "http://www.w3.org/TR/2001/REC-SVG-20010904/DTD/svg10.dtd">
<svg version="1.0" xmlns="http://www.w3.org/2000/svg" xmlns:xlink="http://www.w3.org/1999/xlink" x="0px" y="0px" width="792px"
	 height="792px" viewBox="0 0 792 792" enable-background="new 0 0 792 792" xml:space="preserve">
<g id="Layer_1_x23_000000">
	<g>
		<g>
			<path d="M622.219,558.032c0.208-1.366,0.232-2.806,0.024-4.331C622.207,555.141,622.207,556.58,622.219,558.032z M615.156,572.28
				c-0.208,0.134-0.306,0.427-0.232,0.927C614.961,572.914,615.034,572.609,615.156,572.28z M482.312,708.747
				c6.331,2.806,9.563,1.537,13.077,4.732c1.488,1.354,2.073,0.977,2.439,1.22c0.684,0.439,7.063,11.65,15.858,4.88
				c0,1.22,0.988,1.452,1.22,2.439c-2.659-0.22-3.879,1.001-3.659,3.66c12.406,1.28,10.149,9.93,21.957,10.979
				c0,1.622,0,3.245,0,4.88c4.794-0.732,4.526,3.599,7.319,4.879c3.647-4.306-6.709-3.135-2.439-8.539
				c-6.478,0.135-11.662-9.819-19.518-12.198c0.17-1.439,2.171-2.77,0-3.66c-0.501,1.537-1.574,2.489-3.66,2.44
				c0.293-1.745,2.013-2.062,2.439-3.66c-4.916-3.428-7.465-0.561-10.979-2.439c0.11-1.695,8.771-0.744,4.88-2.439
				c-3.831,1.391-2.965-1.916-4.88-2.44c-0.207,1.415-1.928,1.33-3.659,1.22c-3.696-8.588-10.43-4.55-10.979-12.198
				c-2.866,1.452-6.478,0.964-6.099-1.22c-1.379,2.684-8.039,0.085-8.527,3.659C480.507,703.428,485.753,710.064,482.312,708.747z
				 M149.813,557.349c-4.392-0.194,0.171-0.842,0.402-2.427c-5.489-1.025-3.208,5.733-9.759,3.659c-1.171,2.269,3.647,4.074,0,4.88
				c-2.818-4.1,0.049-10.516-2.44-13.419c5.282,1.684,3.489,5.624,3.66,7.319c3.989-2.342,0.927-8.075,6.1-3.66
				c-1.086-2.976,5.44-6.282,0-6.099c-1.123,0.842-2.159,2.854-4.879-2.44c-0.269,0.939-0.037,2.403-1.22,2.44
				c0-4.074,3.965-4.172,3.66-8.539c-2.171-1.293-4.196-2.732-6.478-3.916c6.404,2.513,10.43-0.329,13.797,3.916
				c-2.769-2.354-3.647-2.794-4.879,1.22c2.781-0.342,4.586,0.293,4.879,2.439c0.219,7.612,1.708,25.251,3.66,4.88
				c4.464,5.16,3.464,11.759,12.199,10.979c-3.172-0.5-3.526-3.806-4.88-6.1c3.416,2.257,8.063,3.318,9.759,7.319
				c-1.793-1.757-3.867-0.939-3.66,2.439c4.489-0.792,5.721,3.478,7.319,8.527c1.585-0.342,3.769-2.257,6.099-4.88
				c0.049,4.014,2.135,6.002,4.867,7.319c-0.744,2.916-5.306,2.013-3.647,7.319c2.501-0.427,4.928-7.136,8.527-2.439
				c-5.026-0.586,1.159,3.062,1.22,4.879c0.231-1.805,2.952-1.109,4.879-1.22c1.537,1.415,0.781,11.296,4.879,6.1
				c-4.233-1.391,4.501-9.101,7.319-6.1c1.952,4.807-5.27,0.427-4.88,3.66c6.734,0.939,9.662,11.942,15.858,6.099
				c0,2.55-6.648,4.587-3.66,6.1c2.037-3.245,11.248,0.684,13.419-2.439c0.378,2.817-3.526,1.354-3.66,3.659
				c2.147,0.708,7.173-1.476,7.319,1.22c-3.025-0.183-5.916-0.219-6.099,2.44c5.331-1.415,7.319,3.062,13.418,6.099
				c0.378,2.818-3.525,1.354-3.66,3.66c3.379-0.866,9.808,0.28,4.879-3.66c3.025,1.586,5.917-2.72,6.1,0
				c0.903,5.526-3.354-1.866-2.44,3.66c2.94,0.5,2.647-2.232,6.1-1.22c-0.391,1.646-1.745,2.33-1.22,4.879
				c4.27-0.207,7.807,0.33,9.759,2.44c-3.782,3.269,3.196,4.635,0,7.318c2.818-1.305,7.355-0.78,4.879,2.44
				c8.625,0.658,7.502-2.501,10.771-5.893c-1.854,2.05,1.574,3.44-1.013,5.893c2.391,0.365,2.416-1.647,3.647-2.44
				c0.208,2.257-2.879,9.991,0,7.319c0.134-3.122,0.695-5.818,2.44-7.319c-0.061,2.281,0.939,2.587,2.439,1.221
				c0.671,1.769-1.415,6.307,1.22,6.099c0.525-2.33,0.452-5.257,3.66-4.879c0.891,3.33-2.415,2.452-2.439,4.879
				c1.927,0.11,4.233-0.171,3.66,2.44c3.33,0.89,2.464-2.428,4.879-2.44c0.476,3.185,3.916,3.403,2.439,8.539
				c7.758-3.817,12.516,2.965,17.078,6.1c-3.745-5.196,15.053-2.184,13.785,2.83c-0.146,0.256-0.269,0.524-0.366,0.829
				c0.195-0.28,0.317-0.561,0.366-0.829c0.598-1.049,1.61-1.659,3.293-1.61c-0.366,2.392,1.647,2.415,2.44,3.66
				c-1.439,0.183-3.464-0.22-3.66,1.22c3.367,0.817,2.781,0.22,4.879,3.659c0.195-1.439-0.207-3.464,1.22-3.659
				c-0.866,5.392,6.185,5.465,7.319,2.439c-1.439-0.195-3.464,0.207-3.66-1.22c0.586-1.452,1.306-2.77,2.44-3.66
				c0.622,7.71-0.037-0.756,3.66,0c-3.477,3.367,2.379,2.782,3.66,4.88c-2.977,0.769-0.183,5.697,1.22,6.1
				c1.085-3.782,3.367,2.073,7.319-2.44c3.757,8.332,5.111,4.087,10.979,9.747c-4.635-5.025,4.184-6.465,4.879-3.659
				c-0.146-0.586-4.623,0.683-3.659,1.22c2.976,1.695,10.405-1.915,6.087,3.659c4.44,1.195,0.573-5.94,6.099-3.659
				c-4.745,3.439,9.052,10.32,12.199,3.659c-1.537,3.574-0.829,8.796,2.44,7.319c-4.27-1.28,7.783-2.513,7.319,0
				c-1.428,0.195-3.465-0.207-3.66,1.22c3.904,0.83,2.306,4.062,3.66,4.88c2.988-1.622-2.196-3.672,1.22-4.88
				c1.439,0.195,3.465-0.207,3.659,1.22c-1.488,0.146-2.891,0.366-2.439,2.44c3.037,0.195,3.781-1.915,6.1-2.44
				c-3.135,3.282,4.172,3.001,4.879,6.1c-0.573-3.818,3.062-3.439,4.88-4.879c-0.378,1.646-1.732,2.329-1.22,4.879
				c8.49,0.062,3.55,2.232,14.639,0c-2.037,2.428,0.109,1.55,0,4.88c12.845,4.867,12.442,0.122,23.177,7.319
				c0.269-0.939,0.024-2.403,1.22-2.44c17.579,9.979,51.394-3.171,63.421-9.759c17.066-1.402,29.717-13.138,41.476-15.858
				c0.049-1.671-0.585-2.671-1.22-3.659c15.248-3.099,22.775-24.337,39.023-30.484c-0.878,3.721,1.244,4.44,1.22,7.319
				c8.405-0.159,1.33-7.283,3.66-9.76c5.623,9.674,1.939,6.979,4.879,17.078c-2.159,0.269-6.111-1.231-4.879,2.44
				c0.231,1.805,2.952,1.109,4.879,1.22c2.062-4.318-1.244-6.941,1.221-9.759c3.232,10.734-0.61,13.504,4.879,17.078
				c3.636-8.039-4.672-23.263-6.1-34.156c-4.403,0.512-7.685,8.515-12.198,4.879c4.831-3.269,21.872-13.309,25.617,1.22
				c-0.122-28.545-5.904-53.027-6.124-76.144c-1.012,6.429-5.892,11.113-7.051,14.224c0.83-0.5,3.306,1.378,3.416,2.146
				c-1.61,0.024-1.11,2.147-2.439,2.44c0.28-2.074-1.379-3.014-1.221,0c-3.61,2.037,4.673-1.586,3.66,3.659
				c-1.439-0.171-2.77-2.171-3.66,0c1.903,0.317,0.842,2.684,0,3.66c2.11,1.964,7.539,0.598,8.539,3.659
				c-2.72,0.537-4.343,2.159-4.879,4.88c2.269,1.171,4.074-3.647,4.879,0c-1.378,1.476-3.477,2.208-2.439,6.099
				c-1.622,0-3.257,0-4.879,0c2.024,4.904,3.928,4.392,3.659,9.759c-1.22,0-2.439,0-3.659,0c-1.537,8.223,2.524,4.489,2.439,9.76
				c-1.22,0-2.439,0-3.66,0c0.781-7.479-2.402-14.054-4.879-14.639c-1.671-4.929,2.184-4.318,3.659-6.1
				c-3.025,0.184-5.916,0.231-6.099-2.439c2.854-1.635,0.841-9.308-1.221-3.66c-1.78-2.28-0.049-8.075-2.439-9.759
				c-0.829,1.647-3.708-1.061-4.879,2.44c-2.037-7.734-27.216,6.465-30.485,10.979c-3.744-2.989-12.894,1.769-12.198,3.659
				c-20.688,2.94-43.988,13.724-70.752,14.639c-0.269,0.951-0.024,2.403-1.22,2.439c-39.976,4.429-71.313,14.748-107.336,4.88
				c-0.195-0.062,0.207-2.391,0-2.439c-63.787-16.371-123.67-45.331-168.317-76.84c0.952-0.28,2.416-0.036,2.44-1.22
				c-2.55-2.27-4.587-3.159-6.1-3.66c4.074-4.025-12.223-11.015-9.759-17.078c-2.391-0.365-2.416,1.647-3.66,2.44
				c-0.756-5.844-1.635-1.745-4.879-1.22c2.989-2.757,0.439-5.368,2.439-7.319c-1.061,2.513,3.172,5.477,3.66,2.439
				c-4.464-6.514-8.136-13.821-13.406-19.518c1.61,0.012,1.11,2.135,2.44,2.439c-10.918-28.63-21.848-81.805-3.66-110.996
				c-8.612,2.318-18.432-8.49-19.518-13.418c7.197,8.112,10.906,12.333,24.397,13.418c39.841-21.262,92.295-7.258,115.863,14.638
				c39.207-5.136,60.859,10.332,84.159,29.277c11.064,8.99,29.631,19.164,43.915,23.177c31.388,8.808,63.727-0.171,90.258-7.319
				c33.669-9.075,55.748-18.712,91.479-29.276c3.354-3.343,10.186-6.271,14.638-4.88c48.673-24.921,100.969-46.208,148.8-71.959
				c-5.758,0.537-7.307-8.722-6.16-7.417c-20.555-29.033-54.626-65.031-84.098-97.479c-11.003-12.125-21.641-26.764-31.704-37.816
				c-36.999-40.622-69.996-86.476-121.975-109.776c3.574,9.04,9.844,15.371,13.418,24.397
				C483.91,85.37,419.087,45.347,346.59,34.099C281.156,23.95,241.084,54.996,190.459,85.321
				c-34.266,20.531-65.897,43.708-90.258,63.433c-27.74,22.458-40.329,59.932-46.343,90.258
				c-5.331,26.837-9.271,51.381-10.979,80.499c-6.673,113.533,50.576,171.684,73.18,265.895c2.83,0.829,3.27,4.062,6.1,4.879
				c0.024-6.953-6.526-13.76-4.88-18.298c1.086,3.794,4.075,5.685,4.88,9.759c8.941,2.294,14.577,13.614,24.397,20.738
				c4.221-5.636,1.427-12.309-2.439-13.419c0.585-1.439,1.305-2.757,2.439-3.659c0.195,1.439-0.207,3.464,1.22,3.659
				c0.329-7.502-3.538-3.245-6.1-1.22c2.147-1.915,1.598-6.526,3.66-8.539c1.903,2.659,6.514,6.111,8.539,1.22
				c-0.329-4.27-5.404,2.208-4.879-1.22c1.805-0.22,1.122-2.939,1.22-4.88c3.892,1.05,3.77-1.915,6.1-2.439
				c-0.671-2.171-0.634-5.062-2.44-6.1c0.208,5.148-1.878-0.012-3.66,0c-3.391,1.83,2.11,4.989-1.22,6.1
				c-0.22-3.513-5.807-7.929-2.44-10.967C147.398,567.133,147.508,557.801,149.813,557.349z M149.899,557.349
				c0.11,0,0.207,0.013,0.317,0.013C150.106,557.337,149.997,557.324,149.899,557.349z M775.922,340.25c0,1.22,0,2.439,0,3.659
				c-0.402,0-0.805,0-1.22,0c-47.794,28.228-104.262,47.782-152.459,75.62c11.357,63.97,4.758,147.238,9.759,217.112
				c0.781,10.832,4.111,21.372,3.66,31.704c-1.598,36.413-24.604,62.018-39.036,84.171c0.83,43.184-53.003,27.837-91.478,21.945
				c-25.995-3.977-52.552-7.551-70.74-12.198c-44-11.211-82.438-29.424-120.754-45.123c-67.91-27.85-134.673-56.688-181.736-109.776
				c-7.051-7.941-16.846-15.37-19.518-21.957c-4.013-9.881-4.904-20.604-8.539-30.484C81.135,492.952,43.6,433.41,38,353.668
				c0-13.418,0-26.837,0-40.256c1.183-0.037,0.951-1.488,1.22-2.439c1.452-26.191,5.587-49.917,10.979-71.96
				c5.233-21.421,10.295-45.123,19.518-63.433c8.38-16.651,31.57-35.999,48.783-48.783c37.413-27.789,77.486-51.356,120.754-74.399
				C263.103,39.686,288.146,30.22,314.874,28c6.502,0,13.016,0,19.518,0c78.278,10.759,136.405,48.172,196.374,73.18
				c-2.55-4.672-10.638-11.564-4.88-17.078c45.416,16.249,71.717,50.441,101.237,82.951
				C678.602,223.728,727.799,282.44,775.922,340.25z M621.023,685.423c1.439-0.183,3.465,0.207,3.66-1.22
				c-4.245-1.854-7.563-4.623-13.419-4.88c-3.892,2.61-2.062,10.942-9.759,9.759c0.269,4.465,1.684,4.685,0,8.539
				c-3.05-0.146-3.818-2.329-4.88,1.221c2.037,1.622,1.903,5.428,3.66,7.318c-4.38,7.259-9.039,22.165-14.639,20.738
				c0.415,2.842,1.257,5.258,3.659,6.1c0.488-2.099-1.805-3.136,0-3.66c3.636,3.685,5.368,9.271,7.319,14.639
				c14.199-15.114,29.191-42.342,31.717-60.993c-1.476,3.415-3.916,5.855-7.319,7.319
				C623.061,687.887,620.914,688.753,621.023,685.423z M623.463,484.169c-3.244-22.36-1.231-49.99-8.539-68.3
				C616.62,439.79,616.705,465.31,623.463,484.169z M617.364,670.784c-0.61-2.379,2.659-7.782,0-4.879
				c-0.744,1.427-8.601,1.78-3.66,4.879C614.204,668.711,615.278,671.041,617.364,670.784z M616.145,665.905
				c0.598-3.843-2.196-4.307-1.221-8.527c-2.098,0.476-3.122-1.817-3.659,0C615.327,659.586,610.374,664.478,616.145,665.905z
				 M602.726,663.478c-6.709,2.977-5.94-7.795-9.759-3.66c1.646,0.83-1.062,3.709,2.439,4.868c0.013,1.231-0.988,1.451-1.22,2.439
				C598.834,667.71,601.799,666.612,602.726,663.478z M601.506,682.983c-4.453,0.793-6.49-0.817-8.539-2.44c0,1.635,0,3.258,0,4.88
				c8.063,0.354,1.854-0.195,1.22,3.659c1.635,0,3.257,0,4.88,0C598.017,685.191,600.993,685.313,601.506,682.983z M585.647,696.401
				c4.953-0.964,8.503,1.306,8.539-2.439c-1.5-1.049-7.344-3.879-8.539-1.22C587.733,693.242,585.392,694.315,585.647,696.401z
				 M586.867,742.757c0.671-7.21-2.013-17.456-7.319-14.639C585.221,729.765,582.158,740.158,586.867,742.757z M592.967,702.501
				c-10.345,6.331-17.786,15.554-28.045,21.958c-1.635-4.758-0.805-14.7-4.88-13.419c1.879-3.403,6.515-4.05,8.539-7.319
				c1.415-4.245-8.185-7.782-8.539-2.439c5.685,4.574-9.697,6.051-15.857,4.879c-1.818,1.439-1.903,4.611-3.66,6.1
				c2.135-5.489-0.927-5.709-3.123-8.905c0.062-0.256,0.135-0.512,0.208-0.756c3.903,0.171,9.844-5.172,4.135-6.197
				c-2.11,1.086-3.317,3.477-4.135,6.197c-0.257,0-0.5-0.037-0.744-0.098c0.171,0.305,0.341,0.586,0.536,0.854
				c-0.487,1.77-0.842,3.636-1.207,5.331c-7.051,0.879-2.854,0.464-6.648-2.525c-0.013,1.232-2.135,1.537-2.439,0
				c5.087-0.329,7.136-9.404,3.659-8.539c-0.488,2.099,1.806,3.123,0,3.66c-1.269-3.818-7.136,2.659-3.659-2.439
				c-3.404,3.757-5.978,3.599-8.539,6.099c0.951,0.269,2.402,0.037,2.439,1.22c-6.539,0.842-6.038-5.343-10.979-6.099
				c-0.269-0.939-0.037-2.403-1.221-2.44c-0.829,3.831,0.146,4.989-1.22,6.1c-2.903-3.696-2.988,0.866-3.659,1.22
				c-1.562-2.098-4.867-2.451-6.1-4.879c0.488,2.928-5.55-0.671-3.659,3.659c2.769,1.964,5.062,1.306,4.879,3.66
				c1.452-1.001,5.282-1.83,7.319,0c-0.012,2.427-3.33,1.549-2.439,4.879c1.635,0,3.257,0,4.879,0c1.586-3.025-3.574-5.062,0-6.1
				c-1.891,4.331,4.148,0.732,3.66,3.66c0.366,3.208-4.733,0.964-3.66,4.879c5.002,0.049,7.161-1.878,7.319-3.659
				c11.028,0.891,22.531,5.331,37.816,7.319c-0.184-3.83,3.123-4.196,6.099-4.88c0.122,4.392,6.063,9.308,2.44,13.419
				c-1.354-0.537-6.331-5.392-3.66-2.439c2.086,4.586,3.587,3.415,6.1,6.099C572.399,719.335,585.099,713.333,592.967,702.501z
				 M575.9,680.543c-5.685,1.074,1.672-3.159-2.439-3.659c0.513,3.428-4.55-3.05-4.88,1.22
				C570.631,678.604,574.059,683.85,575.9,680.543z M564.922,684.203c2.501,2.537,6.185,0,6.1-3.66
				C566.91,679.702,567.021,683.057,564.922,684.203z M555.163,759.822c7.746-0.793,13.735,4.892,17.078,0
				C568.996,759.444,560.604,754.517,555.163,759.822z M553.943,753.735c6.929-0.391,10.71-3.928,12.198-9.759
				c-2.757,2.891-10.796,2.61-12.198-2.439c-2.232,1.402-9.869-1.208-7.319,2.439C550.016,742.33,550.491,749.722,553.943,753.735z
				 M551.503,740.316c-2.062-1.744,6.979-2.708,6.1-7.318c-3.452,0.622-5.185,2.952-8.539,3.659
				C548.015,739.146,550.979,743.379,551.503,740.316z M544.185,741.537c2.257-1.074,5.892-7.002,2.439-9.76
				c0.683,2.647-1.379,2.562-2.794,3.111c2.574-2.159-1.305-5.465,0.354-3.111c-5.209,1.843-6.502-4.464-9.76-2.439
				c2.745-5.282,5.6-8.234,0-8.539c0.135-2.306,4.026-0.842,3.66-3.659c-3.025-2.879-7.661-0.488-6.1,4.879
				c6.062,2.732-1.049,4.551-1.22,9.759c3.574,1.099,3.745,1.099,7.319,0C534.62,736.548,545.392,738.707,544.185,741.537z
				 M550.283,698.842c-1.5-5.733-8.953-9.491-12.198-3.66C543.867,691.742,546.368,696.95,550.283,698.842z M530.766,756.175
				c1.244-2.817,8.161,0.024,7.319-4.879c-2.452-0.281-4.94,5.44-7.319,1.22c1.915-0.122,4.233,0.158,3.659-2.439
				c-4.403,0.085-9.771,0.378-4.879-2.44c-7.21-0.183-10.442,0.122-3.66,2.44c-2.037,0-4.062,0-6.099,0
				c0.341-2.781-0.293-4.587-2.44-4.88c0.793,4.428-7.94,0.72-9.759,0c1.915-0.122,4.233,0.158,3.66-2.439
				c-4.648-0.366-9.43,1.488-4.88,3.659c-2.513-0.744-8.466,1.964-7.319-2.439c2.635,2.647,5.489-0.708,6.1-3.66
				c-3.33,1.367-7.819,0.744-10.979-1.22c8.551-0.402-3.136-1.402-3.66-3.659c0.184,3.025,0.232,5.916-2.439,6.1
				c0.012-1.232-0.988-1.452-1.22-2.44c1.231-0.012,1.451,0.988,2.439,1.22c-0.695-2.146,1.477-7.172-1.22-7.318
				c-0.158,2.269-0.793,4.074-2.439,4.879c-0.086-2.122,0.28-3.794,1.22-4.879c-9.612,6.867-23.312-10.467-31.704-4.88
				c1.012-7.331-11.089,1.171-14.639-3.659c1.622-2.989,3.684,2.195,4.879-1.221c-4.037,1.477-2.988-8.246-6.099-3.659
				c1.476-0.378,4.208,3.525,1.22,3.659c-3.038-1.695-2.903-3.452-3.66-4.879c-0.256,1.366-1.354,1.903-2.439,2.439
				c-0.476-1.744-1.464-2.062,0-3.659c-2.122-0.354-6.551,3.892-6.1-1.22c-5.501-0.622-9.661,0.085-10.979,3.659
				c-3.074-5.258,5.587-4.794,2.439-6.1c-5.514,0.793-5.525-0.817-6.099-2.439c-0.488,1.964-7.161-0.049-8.539-1.22
				c0.951-0.269,2.403-0.037,2.439-1.22c-5.818,0.183-11.577-5.807-18.298-1.22c1.708-6.588-5.721-4.026-6.1-8.539
				c-10.771,2.769-6.941-1.05-15.846,1.22c-0.683-2.172-0.634-5.062-2.439-6.1c-4.879,1.476-4.989-0.707-9.759,0
				c-0.366,2.403,1.646,2.415,2.439,3.659c-0.952,0.281-2.403,0.037-2.439,1.221c8.332-0.61,15.272,0.183,15.858,7.318
				c3.879,1.037,4.624-1.061,6.087-2.439c-1.952,4.807,5.27,0.427,4.879,3.66c-1.781,0.012-9.979-0.464-6.087,1.22
				c5.282,0,10.564,0,15.846,0c-0.085,2.122,0.281,3.794,1.22,4.879c3.452,1.013,3.159-1.72,6.099-1.22
				c0,4.514,3.257,3.379,6.1,1.22c2.037,5.185,6.221,5.453,10.979,3.66c-1.232,8.856,14.919,2.195,7.319,8.539
				c10.601-2.184,15.09,7.917,20.737,1.22c-2.524,6.587,6.648,1.476,7.319,4.879c-14.004-1.061-3.684,3.514,2.439,0
				c-0.561,7.052,3.733,1.672,6.1,1.221c0.11,5.159,6.66,3.903,8.539,7.318c2.55-2.391,8.637-0.39,7.319-3.659
				c0.805,0,1.622,0,2.439,0c0.269,2.306-1.378,2.684-1.22,4.88c6.917-1.232,7.356,4.013,12.187,4.879
				c-0.171-4.379,3.135,0.122,6.1-2.439c6.855,5.978,12.918,9.832,21.957,6.1C519.579,756.639,527.533,750.259,530.766,756.175z
				 M350.25,696.401c4.831,2.074,6.478-7.562,2.44-3.659c-0.122-1.915,0.159-4.233-2.44-3.66
				C350.25,691.522,350.25,693.962,350.25,696.401z M347.81,689.082c-2.098-0.476-3.123,1.818-3.66,0
				c0.671,0.013,1.378-0.987,0-1.22C334.94,692.107,345.358,695.938,347.81,689.082z M342.931,686.643
				c-3.025,1.586-5.062-3.574-6.1,0c1.33,0.293,2.928,2.013,1.22,2.439c-3.514-2.793-2.903-6.489-7.319-3.659
				c-0.256-0.915-0.683-1.708-1.232-2.391c0-0.013,0.012-0.037,0.012-0.049c-0.012,0.012-0.024,0.012-0.037,0.024
				c-2.391-3.062-7.002-3.685-8.502-1.244c3.379,2.342,7.185,0.402,4.879,3.659c2.378,0.366,2.415-1.61,3.623-2.415
				c0.024,0.012,0.037,0.012,0.024,0.024c-1.891,6.185,8.807,2.086,2.452,6.05C336.148,689.839,339.991,691.425,342.931,686.643z
				 M235.594,662.258c3.331-6.526-3.416-14.724-8.539-12.199C233.655,650.364,232.886,658.049,235.594,662.258z M219.736,645.18
				c2.232,0.317,6.026,5.196,8.539,1.22C226.043,646.07,222.249,641.19,219.736,645.18z M195.339,630.541
				c11.137,4.136,11.369,3.903,2.439-2.439c-0.061,0.744-0.183,1.439-1.22,1.22C195.814,629.395,195.119,629.504,195.339,630.541z
				 M188.02,636.641c1.33-3.965,3.147-7.441,6.1-9.759c-14.48-6.429-17.469-11.931-25.605-18.299
				c-0.269,5.746-4.05,7.503-5.563,9.003c-0.268,0-0.512,0.256-0.537,0.757c0.098-0.257,0.281-0.501,0.537-0.757
				c0.415,0.013,0.891,0.659,0.683,1.977c2.391,0.365,2.416-1.647,3.66-2.44C167.453,626.296,180.579,630.907,188.02,636.641z
				 M161.195,591.505c0.939-0.268,2.403-0.036,2.439-1.22c-5.172,0.573-4.94,4.233-7.319-1.22c-1.708,4.209-5.062,2.135-7.319,3.66
				c1.805,0.231,1.122,2.951,1.22,4.879c5.538-2.281,1.659,4.843,6.1,3.66c-0.098-2.123,0.268-3.794,1.22-4.88
				c-1.562-3.11-5.978,1.135-6.099-1.22c2.427-0.013,1.549-3.33,4.879-2.439c-0.378,3.22,2.549,3.146,4.879,3.659
				C163.22,593.97,161.085,594.836,161.195,591.505z M152.656,608.583c0.341-2.879,3.257,1.403,4.879,1.221
				c-0.524-2.733-2.623-3.892-3.66-6.1c-0.269,0.951-1.024,1.415-2.439,1.22c0,0.817,0,1.622,0,2.439
				C151.497,608.107,151.619,608.803,152.656,608.583z M145.336,541.503c-1.939,5.673,6.307,4.233,4.879,0
				C148.594,541.503,146.959,541.503,145.336,541.503z"/>
			<path d="M589.307,157.293c-2.062,2.769-6.27-2.586-6.099-6.099C587.746,150.719,585.465,157.062,589.307,157.293z"/>
			<path d="M575.9,176.799c1.062-3.916-3.171-2.525-3.659-4.867c-1.513,0.524-2.513,1.549-2.439,3.647
				c-5.587-6.795,9.173-4.099,9.746,0c-4.794,3.745-6.831,10.247-14.626,10.979C572.681,181.179,569.167,181.215,575.9,176.799z"/>
			<path d="M567.361,176.799c-1.085-0.744-2.184-1.464-2.439,0c-2.513-4.086-2.525-0.854-6.1,0
				C558.603,171.847,567.13,172.566,567.361,176.799z"/>
			<path d="M546.624,641.52c0.451,3.696-3.977,2.525-6.1,3.66c0.744-1.086,1.477-2.184,0-2.44
				C542.354,640.117,543.501,643.605,546.624,641.52z"/>
			<path d="M543.83,734.889c-0.231,0.195-0.512,0.378-0.866,0.549C543.184,735.182,543.489,735.022,543.83,734.889z"/>
			<path d="M536.194,708.686c0.207-0.024,0.438-0.061,0.671-0.085c-0.171,0.707-0.72,1.024-1.013,1.598
				C535.975,709.723,536.084,709.21,536.194,708.686z"/>
			<path d="M536.865,201.197c-1.915,4.464-1.817-2.83-4.88-1.22c2.501-12.784-6.429-24.373-9.759-35.364
				c-3.013-3.903-8.575-5.258-12.198-8.539c-2.452-2.732,6.978,4.208,12.198,4.879C528.521,172.944,533.278,186.485,536.865,201.197
				z"/>
			<path d="M535.853,710.198c-0.062,0.293-0.134,0.573-0.207,0.842C535.646,710.687,535.73,710.418,535.853,710.198z"/>
			<path d="M539.305,641.52c-2.879,3.428-7.551,4.526-10.979,1.22c-2.343,0.135,1.427,4.087,0,7.319
				c-17.884,7.722-28.74,24.727-47.562,24.386c-32.656-0.586-60.201-36.572-89.051-34.145c-0.524-5.465,7.893-2.61,12.199-2.439
				C432.384,638.946,491.047,643.667,539.305,641.52z"/>
			<path d="M495.39,196.317c6.66,5.55,10.088,14.321,13.418,23.177C504.271,214.676,499.464,205.039,495.39,196.317z"/>
			<path d="M495.39,195.097c-3.685-1.671-4.355,0.585-9.759,0c0.39-2.854,1.927-4.574,1.22-8.539
				c-1.062-0.878-4.721-2.342-8.527-3.66c-1.524,3.013-5.44,6.246-1.22,8.539c-4.306,0.695-8.002-3.916-9.759-10.979
				c3.818,1.391,3.221-0.342,6.1,1.22c0-2.025,0-4.062,0-6.099c-1.623,1.232-4.551,1.159-4.88,3.66
				c-3.196-3.66,3.77-7.551,3.66-12.187c2.854,0.305,0.695,5.355,0,6.099c0.805,0,1.622,0,2.439,0c2.72-0.183-1.586-3.074,0-6.099
				C483.337,174.64,489.083,185.143,495.39,195.097z"/>
			<path d="M390.493,636.641c-5.001,4.562-19.384-1.439-25.605,1.22c0.244-3.94-3.111,0.513-3.66-3.66
				C366.925,634.848,381.649,635.262,390.493,636.641z"/>
			<path d="M355.129,631.761c1.915,0.524,1.037,3.83,4.879,2.439c-2.891,2.806-10.955,0.439-15.858,1.221
				c0.451-2.074-0.952-2.306-2.44-2.44c1.696-2.781,8.49-0.451,12.199-1.22C350.738,633.884,355.874,636.03,355.129,631.761z"/>
			<path d="M305.115,54.837c0.061,4.16-8.808,9.869-10.979,15.858c-3.513-0.146-7.978,0.659-9.759-1.22
				C288.805,62.107,298.601,60.107,305.115,54.837z"/>
			<path d="M198.999,573.207c-0.988,4.221,2.281,5.16,0,7.319c-3.196-0.866-5.478-2.647-4.879-7.319
				C195.753,573.207,197.376,573.207,198.999,573.207z"/>
			<path d="M159.975,497.588c1.769,0.549-0.122,1.073,0,2.439c-0.817,0-1.635,0-2.44,0c1.037-2.488-1.927-6.722-2.44-3.659
				c-2.916-4.209,1.928-2.94,4.88-1.22c0.341,1.976-1.159,2.098-1.22,3.659C159.792,499.039,159.902,498.332,159.975,497.588z"/>
			<path d="M155.095,298.774c13.138,1.61,8.82,24.678,3.66,31.716c-7.697-0.939-4.221,1.72-7.319,4.879
				c-5.929,0.744-6.271,0.744-12.199,0c3.867-0.805,5.208-5.587-1.22-4.879c2.245,4.099,0.146,0.598-3.66,1.22
				c-1.659-6.465-5.001-11.272-4.879-19.518c8.173-0.573,12.626,4.66,8.539,9.759c4.587,0.927,0.842-6.478,6.1-4.879
				c-6.112,7.661,7.051,1.049,4.879,12.199c0.891-2.769,5.16-2.159,7.319-3.66c-4.343-2.135-3.721-8.124-10.979-9.759
				c0.427-1.598,2.147-1.916,2.44-3.66c-4.562,0.11-3.477,1.366-7.319,0c0.049-3.708-2.574-4.745-3.66-7.319
				c-2.428,0.012-1.549,3.331-4.879,2.44c1.915-4.55,9.832-8.356,14.638-6.1c-2.256,2.354-2.232,0.964-1.22,4.88
				c3.843,0.183,2.367-4.941,4.879-6.1c0.452,6.368,3.452,11.381,3.66,19.518c6.355-0.83,4.489,2.196,3.66,4.879
				C167.245,317.718,158.511,305.898,155.095,298.774z"/>
			<path d="M152.656,367.086c-1.867,0.805-11.552-11.052-14.639-17.078C144.043,354.558,147.544,361.622,152.656,367.086z"/>
			<path d="M142.897,559.801c1.83,2.635,2.074,6.855,2.439,10.967c-1.183-0.024-0.952-1.488-1.22-2.439
				c-0.232-1.379-1.22-0.671-1.22,0C139.213,566.485,143.909,562.984,142.897,559.801z"/>
			<path d="M142.897,531.744c-0.183,2.72-3.074-1.586-6.1,0c-0.22-1.037,0.476-1.146,1.22-1.22c-4.953-2.696-4.953-0.964,0-3.66
				C141.238,530.194,140.616,525.449,142.897,531.744z"/>
			<path d="M135.578,508.566c1.22,0,2.439,0,3.66,0c-1.025-1.415-1.61-3.27-1.22-6.1c3.062,2.952,2.806,6.259,0,9.76
				c-1.391-0.232-0.683-1.221,0-1.221c-0.378-1.658-3.049-1.012-4.879-1.22c1.366-1.756,1.317-2.977-1.22-3.659
				C132.406,503.089,137.505,505.2,135.578,508.566z"/>
			<path d="M136.797,534.184c0.72,0.293,1.403,0.622,2.062,0.964C138.2,534.892,137.517,534.574,136.797,534.184z"/>
			<path d="M133.138,531.744c3.367,1.586,2.44,6.587,1.22,9.759C129.088,539.746,136.834,535.952,133.138,531.744z"/>
			<path d="M124.599,498.808c3.05,1.244,6.026,4.892,2.44,6.1C125.233,503.87,124.416,501.833,124.599,498.808z"/>
			<path d="M119.719,513.446c2.525,0.731,4.624,1.891,3.66,6.099c-3.94,1.513-0.927-3.952-4.879-2.439
				C119.146,516.13,119.78,515.13,119.719,513.446z"/>
		</g>
	</g>
</g>
<g id="Layer_2_x23_FFF200">
	<g>
		<g>
			<path fill="none" d="M622.219,558.032c0.208-1.366,0.232-2.806,0.024-4.331C622.207,555.141,622.207,556.58,622.219,558.032z
				 M615.156,572.28c-0.208,0.134-0.306,0.427-0.232,0.927C614.961,572.914,615.034,572.609,615.156,572.28z M482.312,708.747
				c6.331,2.806,9.563,1.537,13.077,4.732c1.488,1.354,2.073,0.977,2.439,1.22c0.684,0.439,7.063,11.65,15.858,4.88
				c0,1.22,0.988,1.452,1.22,2.439c-2.659-0.22-3.879,1.001-3.659,3.66c12.406,1.28,10.149,9.93,21.957,10.979
				c0,1.622,0,3.245,0,4.88c4.794-0.732,4.526,3.599,7.319,4.879c3.647-4.306-6.709-3.135-2.439-8.539
				c-6.478,0.135-11.662-9.819-19.518-12.198c0.17-1.439,2.171-2.77,0-3.66c-0.501,1.537-1.574,2.489-3.66,2.44
				c0.293-1.745,2.013-2.062,2.439-3.66c-4.916-3.428-7.465-0.561-10.979-2.439c0.11-1.695,8.771-0.744,4.88-2.439
				c-3.831,1.391-2.965-1.916-4.88-2.44c-0.207,1.415-1.928,1.33-3.659,1.22c-3.696-8.588-10.43-4.55-10.979-12.198
				c-2.866,1.452-6.478,0.964-6.099-1.22c-1.379,2.684-8.039,0.085-8.527,3.659C480.507,703.428,485.753,710.064,482.312,708.747z
				 M149.813,557.349c-4.392-0.194,0.171-0.842,0.402-2.427c-5.489-1.025-3.208,5.733-9.759,3.659c-1.171,2.269,3.647,4.074,0,4.88
				c-2.818-4.1,0.049-10.516-2.44-13.419c5.282,1.684,3.489,5.624,3.66,7.319c3.989-2.342,0.927-8.075,6.1-3.66
				c-1.086-2.976,5.44-6.282,0-6.099c-1.123,0.842-2.159,2.854-4.879-2.44c-0.269,0.939-0.037,2.403-1.22,2.44
				c0-4.074,3.965-4.172,3.66-8.539c-2.171-1.293-4.196-2.732-6.478-3.916c6.404,2.513,10.43-0.329,13.797,3.916
				c-2.769-2.354-3.647-2.794-4.879,1.22c2.781-0.342,4.586,0.293,4.879,2.439c0.219,7.612,1.708,25.251,3.66,4.88
				c4.464,5.16,3.464,11.759,12.199,10.979c-3.172-0.5-3.526-3.806-4.88-6.1c3.416,2.257,8.063,3.318,9.759,7.319
				c-1.793-1.757-3.867-0.939-3.66,2.439c4.489-0.792,5.721,3.478,7.319,8.527c1.585-0.342,3.769-2.257,6.099-4.88
				c0.049,4.014,2.135,6.002,4.867,7.319c-0.744,2.916-5.306,2.013-3.647,7.319c2.501-0.427,4.928-7.136,8.527-2.439
				c-5.026-0.586,1.159,3.062,1.22,4.879c0.231-1.805,2.952-1.109,4.879-1.22c1.537,1.415,0.781,11.296,4.879,6.1
				c-4.233-1.391,4.501-9.101,7.319-6.1c1.952,4.807-5.27,0.427-4.88,3.66c6.734,0.939,9.662,11.942,15.858,6.099
				c0,2.55-6.648,4.587-3.66,6.1c2.037-3.245,11.248,0.684,13.419-2.439c0.378,2.817-3.526,1.354-3.66,3.659
				c2.147,0.708,7.173-1.476,7.319,1.22c-3.025-0.183-5.916-0.219-6.099,2.44c5.331-1.415,7.319,3.062,13.418,6.099
				c0.378,2.818-3.525,1.354-3.66,3.66c3.379-0.866,9.808,0.28,4.879-3.66c3.025,1.586,5.917-2.72,6.1,0
				c0.903,5.526-3.354-1.866-2.44,3.66c2.94,0.5,2.647-2.232,6.1-1.22c-0.391,1.646-1.745,2.33-1.22,4.879
				c4.27-0.207,7.807,0.33,9.759,2.44c-3.782,3.269,3.196,4.635,0,7.318c2.818-1.305,7.355-0.78,4.879,2.44
				c8.625,0.658,7.502-2.501,10.771-5.893c-1.854,2.05,1.574,3.44-1.013,5.893c2.391,0.365,2.416-1.647,3.647-2.44
				c0.208,2.257-2.879,9.991,0,7.319c0.134-3.122,0.695-5.818,2.44-7.319c-0.061,2.281,0.939,2.587,2.439,1.221
				c0.671,1.769-1.415,6.307,1.22,6.099c0.525-2.33,0.452-5.257,3.66-4.879c0.891,3.33-2.415,2.452-2.439,4.879
				c1.927,0.11,4.233-0.171,3.66,2.44c3.33,0.89,2.464-2.428,4.879-2.44c0.476,3.185,3.916,3.403,2.439,8.539
				c7.758-3.817,12.516,2.965,17.078,6.1c-3.745-5.196,15.053-2.184,13.785,2.83c-0.146,0.256-0.269,0.524-0.366,0.829
				c0.195-0.28,0.317-0.561,0.366-0.829c0.598-1.049,1.61-1.659,3.293-1.61c-0.366,2.392,1.647,2.415,2.44,3.66
				c-1.439,0.183-3.464-0.22-3.66,1.22c3.367,0.817,2.781,0.22,4.879,3.659c0.195-1.439-0.207-3.464,1.22-3.659
				c-0.866,5.392,6.185,5.465,7.319,2.439c-1.439-0.195-3.464,0.207-3.66-1.22c0.586-1.452,1.306-2.77,2.44-3.66
				c0.622,7.71-0.037-0.756,3.66,0c-3.477,3.367,2.379,2.782,3.66,4.88c-2.977,0.769-0.183,5.697,1.22,6.1
				c1.085-3.782,3.367,2.073,7.319-2.44c3.757,8.332,5.111,4.087,10.979,9.747c-4.635-5.025,4.184-6.465,4.879-3.659
				c-0.146-0.586-4.623,0.683-3.659,1.22c2.976,1.695,10.405-1.915,6.087,3.659c4.44,1.195,0.573-5.94,6.099-3.659
				c-4.745,3.439,9.052,10.32,12.199,3.659c-1.537,3.574-0.829,8.796,2.44,7.319c-4.27-1.28,7.783-2.513,7.319,0
				c-1.428,0.195-3.465-0.207-3.66,1.22c3.904,0.83,2.306,4.062,3.66,4.88c2.988-1.622-2.196-3.672,1.22-4.88
				c1.439,0.195,3.465-0.207,3.659,1.22c-1.488,0.146-2.891,0.366-2.439,2.44c3.037,0.195,3.781-1.915,6.1-2.44
				c-3.135,3.282,4.172,3.001,4.879,6.1c-0.573-3.818,3.062-3.439,4.88-4.879c-0.378,1.646-1.732,2.329-1.22,4.879
				c8.49,0.062,3.55,2.232,14.639,0c-2.037,2.428,0.109,1.55,0,4.88c12.845,4.867,12.442,0.122,23.177,7.319
				c0.269-0.939,0.024-2.403,1.22-2.44c17.579,9.979,51.394-3.171,63.421-9.759c17.066-1.402,29.717-13.138,41.476-15.858
				c0.049-1.671-0.585-2.671-1.22-3.659c15.248-3.099,22.775-24.337,39.023-30.484c-0.878,3.721,1.244,4.44,1.22,7.319
				c8.405-0.159,1.33-7.283,3.66-9.76c5.623,9.674,1.939,6.979,4.879,17.078c-2.159,0.269-6.111-1.231-4.879,2.44
				c0.231,1.805,2.952,1.109,4.879,1.22c2.062-4.318-1.244-6.941,1.221-9.759c3.232,10.734-0.61,13.504,4.879,17.078
				c3.636-8.039-4.672-23.263-6.1-34.156c-4.403,0.512-7.685,8.515-12.198,4.879c4.831-3.269,21.872-13.309,25.617,1.22
				c-0.122-28.545-5.904-53.027-6.124-76.144c-1.012,6.429-5.892,11.113-7.051,14.224c0.83-0.5,3.306,1.378,3.416,2.146
				c-1.61,0.024-1.11,2.147-2.439,2.44c0.28-2.074-1.379-3.014-1.221,0c-3.61,2.037,4.673-1.586,3.66,3.659
				c-1.439-0.171-2.77-2.171-3.66,0c1.903,0.317,0.842,2.684,0,3.66c2.11,1.964,7.539,0.598,8.539,3.659
				c-2.72,0.537-4.343,2.159-4.879,4.88c2.269,1.171,4.074-3.647,4.879,0c-1.378,1.476-3.477,2.208-2.439,6.099
				c-1.622,0-3.257,0-4.879,0c2.024,4.904,3.928,4.392,3.659,9.759c-1.22,0-2.439,0-3.659,0c-1.537,8.223,2.524,4.489,2.439,9.76
				c-1.22,0-2.439,0-3.66,0c0.781-7.479-2.402-14.054-4.879-14.639c-1.671-4.929,2.184-4.318,3.659-6.1
				c-3.025,0.184-5.916,0.231-6.099-2.439c2.854-1.635,0.841-9.308-1.221-3.66c-1.78-2.28-0.049-8.075-2.439-9.759
				c-0.829,1.647-3.708-1.061-4.879,2.44c-2.037-7.734-27.216,6.465-30.485,10.979c-3.744-2.989-12.894,1.769-12.198,3.659
				c-20.688,2.94-43.988,13.724-70.752,14.639c-0.269,0.951-0.024,2.403-1.22,2.439c-39.976,4.429-71.313,14.748-107.336,4.88
				c-0.195-0.062,0.207-2.391,0-2.439c-63.787-16.371-123.67-45.331-168.317-76.84c0.952-0.28,2.416-0.036,2.44-1.22
				c-2.55-2.27-4.587-3.159-6.1-3.66c4.074-4.025-12.223-11.015-9.759-17.078c-2.391-0.365-2.416,1.647-3.66,2.44
				c-0.756-5.844-1.635-1.745-4.879-1.22c2.989-2.757,0.439-5.368,2.439-7.319c-1.061,2.513,3.172,5.477,3.66,2.439
				c-4.464-6.514-8.136-13.821-13.406-19.518c1.61,0.012,1.11,2.135,2.44,2.439c-10.918-28.63-21.848-81.805-3.66-110.996
				c-8.612,2.318-18.432-8.49-19.518-13.418c7.197,8.112,10.906,12.333,24.397,13.418c39.841-21.262,92.295-7.258,115.863,14.638
				c39.207-5.136,60.859,10.332,84.159,29.277c11.064,8.99,29.631,19.164,43.915,23.177c31.388,8.808,63.727-0.171,90.258-7.319
				c33.669-9.075,55.748-18.712,91.479-29.276c3.354-3.343,10.186-6.271,14.638-4.88c48.673-24.921,100.969-46.208,148.8-71.959
				c-5.758,0.537-7.307-8.722-6.16-7.417c-20.555-29.033-54.626-65.031-84.098-97.479c-11.003-12.125-21.641-26.764-31.704-37.816
				c-36.999-40.622-69.996-86.476-121.975-109.776c3.574,9.04,9.844,15.371,13.418,24.397
				C483.91,85.37,419.087,45.347,346.59,34.099C281.156,23.95,241.084,54.996,190.459,85.321
				c-34.266,20.531-65.897,43.708-90.258,63.433c-27.74,22.458-40.329,59.932-46.343,90.258
				c-5.331,26.837-9.271,51.381-10.979,80.499c-6.673,113.533,50.576,171.684,73.18,265.895c2.83,0.829,3.27,4.062,6.1,4.879
				c0.024-6.953-6.526-13.76-4.88-18.298c1.086,3.794,4.075,5.685,4.88,9.759c8.941,2.294,14.577,13.614,24.397,20.738
				c4.221-5.636,1.427-12.309-2.439-13.419c0.585-1.439,1.305-2.757,2.439-3.659c0.195,1.439-0.207,3.464,1.22,3.659
				c0.329-7.502-3.538-3.245-6.1-1.22c2.147-1.915,1.598-6.526,3.66-8.539c1.903,2.659,6.514,6.111,8.539,1.22
				c-0.329-4.27-5.404,2.208-4.879-1.22c1.805-0.22,1.122-2.939,1.22-4.88c3.892,1.05,3.77-1.915,6.1-2.439
				c-0.671-2.171-0.634-5.062-2.44-6.1c0.208,5.148-1.878-0.012-3.66,0c-3.391,1.83,2.11,4.989-1.22,6.1
				c-0.22-3.513-5.807-7.929-2.44-10.967C147.398,567.133,147.508,557.801,149.813,557.349z M149.899,557.349
				c0.11,0,0.207,0.013,0.317,0.013C150.106,557.337,149.997,557.324,149.899,557.349z M775.922,340.25c0,1.22,0,2.439,0,3.659
				c-0.402,0-0.805,0-1.22,0c-47.794,28.228-104.262,47.782-152.459,75.62c11.357,63.97,4.758,147.238,9.759,217.112
				c0.781,10.832,4.111,21.372,3.66,31.704c-1.598,36.413-24.604,62.018-39.036,84.171c0.83,43.184-53.003,27.837-91.478,21.945
				c-25.995-3.977-52.552-7.551-70.74-12.198c-44-11.211-82.438-29.424-120.754-45.123c-67.91-27.85-134.673-56.688-181.736-109.776
				c-7.051-7.941-16.846-15.37-19.518-21.957c-4.013-9.881-4.904-20.604-8.539-30.484C81.135,492.952,43.6,433.41,38,353.668
				c0-13.418,0-26.837,0-40.256c1.183-0.037,0.951-1.488,1.22-2.439c1.452-26.191,5.587-49.917,10.979-71.96
				c5.233-21.421,10.295-45.123,19.518-63.433c8.38-16.651,31.57-35.999,48.783-48.783c37.413-27.789,77.486-51.356,120.754-74.399
				C263.103,39.686,288.146,30.22,314.874,28c6.502,0,13.016,0,19.518,0c78.278,10.759,136.405,48.172,196.374,73.18
				c-2.55-4.672-10.638-11.564-4.88-17.078c45.416,16.249,71.717,50.441,101.237,82.951
				C678.602,223.728,727.799,282.44,775.922,340.25z M621.023,685.423c1.439-0.183,3.465,0.207,3.66-1.22
				c-4.245-1.854-7.563-4.623-13.419-4.88c-3.892,2.61-2.062,10.942-9.759,9.759c0.269,4.465,1.684,4.685,0,8.539
				c-3.05-0.146-3.818-2.329-4.88,1.221c2.037,1.622,1.903,5.428,3.66,7.318c-4.38,7.259-9.039,22.165-14.639,20.738
				c0.415,2.842,1.257,5.258,3.659,6.1c0.488-2.099-1.805-3.136,0-3.66c3.636,3.685,5.368,9.271,7.319,14.639
				c14.199-15.114,29.191-42.342,31.717-60.993c-1.476,3.415-3.916,5.855-7.319,7.319
				C623.061,687.887,620.914,688.753,621.023,685.423z M623.463,484.169c-3.244-22.36-1.231-49.99-8.539-68.3
				C616.62,439.79,616.705,465.31,623.463,484.169z M617.364,670.784c-0.61-2.379,2.659-7.782,0-4.879
				c-0.744,1.427-8.601,1.78-3.66,4.879C614.204,668.711,615.278,671.041,617.364,670.784z M616.145,665.905
				c0.598-3.843-2.196-4.307-1.221-8.527c-2.098,0.476-3.122-1.817-3.659,0C615.327,659.586,610.374,664.478,616.145,665.905z
				 M602.726,663.478c-6.709,2.977-5.94-7.795-9.759-3.66c1.646,0.83-1.062,3.709,2.439,4.868c0.013,1.231-0.988,1.451-1.22,2.439
				C598.834,667.71,601.799,666.612,602.726,663.478z M601.506,682.983c-4.453,0.793-6.49-0.817-8.539-2.44c0,1.635,0,3.258,0,4.88
				c8.063,0.354,1.854-0.195,1.22,3.659c1.635,0,3.257,0,4.88,0C598.017,685.191,600.993,685.313,601.506,682.983z M585.647,696.401
				c4.953-0.964,8.503,1.306,8.539-2.439c-1.5-1.049-7.344-3.879-8.539-1.22C587.733,693.242,585.392,694.315,585.647,696.401z
				 M586.867,742.757c0.671-7.21-2.013-17.456-7.319-14.639C585.221,729.765,582.158,740.158,586.867,742.757z M592.967,702.501
				c-10.345,6.331-17.786,15.554-28.045,21.958c-1.635-4.758-0.805-14.7-4.88-13.419c1.879-3.403,6.515-4.05,8.539-7.319
				c1.415-4.245-8.185-7.782-8.539-2.439c5.685,4.574-9.697,6.051-15.857,4.879c-1.818,1.439-1.903,4.611-3.66,6.1
				c2.135-5.489-0.927-5.709-3.123-8.905c0.062-0.256,0.135-0.512,0.208-0.756c3.903,0.171,9.844-5.172,4.135-6.197
				c-2.11,1.086-3.317,3.477-4.135,6.197c-0.257,0-0.5-0.037-0.744-0.098c0.171,0.305,0.341,0.586,0.536,0.854
				c-0.487,1.77-0.842,3.636-1.207,5.331c-7.051,0.879-2.854,0.464-6.648-2.525c-0.013,1.232-2.135,1.537-2.439,0
				c5.087-0.329,7.136-9.404,3.659-8.539c-0.488,2.099,1.806,3.123,0,3.66c-1.269-3.818-7.136,2.659-3.659-2.439
				c-3.404,3.757-5.978,3.599-8.539,6.099c0.951,0.269,2.402,0.037,2.439,1.22c-6.539,0.842-6.038-5.343-10.979-6.099
				c-0.269-0.939-0.037-2.403-1.221-2.44c-0.829,3.831,0.146,4.989-1.22,6.1c-2.903-3.696-2.988,0.866-3.659,1.22
				c-1.562-2.098-4.867-2.451-6.1-4.879c0.488,2.928-5.55-0.671-3.659,3.659c2.769,1.964,5.062,1.306,4.879,3.66
				c1.452-1.001,5.282-1.83,7.319,0c-0.012,2.427-3.33,1.549-2.439,4.879c1.635,0,3.257,0,4.879,0c1.586-3.025-3.574-5.062,0-6.1
				c-1.891,4.331,4.148,0.732,3.66,3.66c0.366,3.208-4.733,0.964-3.66,4.879c5.002,0.049,7.161-1.878,7.319-3.659
				c11.028,0.891,22.531,5.331,37.816,7.319c-0.184-3.83,3.123-4.196,6.099-4.88c0.122,4.392,6.063,9.308,2.44,13.419
				c-1.354-0.537-6.331-5.392-3.66-2.439c2.086,4.586,3.587,3.415,6.1,6.099C572.399,719.335,585.099,713.333,592.967,702.501z
				 M575.9,680.543c-5.685,1.074,1.672-3.159-2.439-3.659c0.513,3.428-4.55-3.05-4.88,1.22
				C570.631,678.604,574.059,683.85,575.9,680.543z M564.922,684.203c2.501,2.537,6.185,0,6.1-3.66
				C566.91,679.702,567.021,683.057,564.922,684.203z M555.163,759.822c7.746-0.793,13.735,4.892,17.078,0
				C568.996,759.444,560.604,754.517,555.163,759.822z M553.943,753.735c6.929-0.391,10.71-3.928,12.198-9.759
				c-2.757,2.891-10.796,2.61-12.198-2.439c-2.232,1.402-9.869-1.208-7.319,2.439C550.016,742.33,550.491,749.722,553.943,753.735z
				 M551.503,740.316c-2.062-1.744,6.979-2.708,6.1-7.318c-3.452,0.622-5.185,2.952-8.539,3.659
				C548.015,739.146,550.979,743.379,551.503,740.316z M544.185,741.537c2.257-1.074,5.892-7.002,2.439-9.76
				c0.683,2.647-1.379,2.562-2.794,3.111c2.574-2.159-1.305-5.465,0.354-3.111c-5.209,1.843-6.502-4.464-9.76-2.439
				c2.745-5.282,5.6-8.234,0-8.539c0.135-2.306,4.026-0.842,3.66-3.659c-3.025-2.879-7.661-0.488-6.1,4.879
				c6.062,2.732-1.049,4.551-1.22,9.759c3.574,1.099,3.745,1.099,7.319,0C534.62,736.548,545.392,738.707,544.185,741.537z
				 M550.283,698.842c-1.5-5.733-8.953-9.491-12.198-3.66C543.867,691.742,546.368,696.95,550.283,698.842z M530.766,756.175
				c1.244-2.817,8.161,0.024,7.319-4.879c-2.452-0.281-4.94,5.44-7.319,1.22c1.915-0.122,4.233,0.158,3.659-2.439
				c-4.403,0.085-9.771,0.378-4.879-2.44c-7.21-0.183-10.442,0.122-3.66,2.44c-2.037,0-4.062,0-6.099,0
				c0.341-2.781-0.293-4.587-2.44-4.88c0.793,4.428-7.94,0.72-9.759,0c1.915-0.122,4.233,0.158,3.66-2.439
				c-4.648-0.366-9.43,1.488-4.88,3.659c-2.513-0.744-8.466,1.964-7.319-2.439c2.635,2.647,5.489-0.708,6.1-3.66
				c-3.33,1.367-7.819,0.744-10.979-1.22c8.551-0.402-3.136-1.402-3.66-3.659c0.184,3.025,0.232,5.916-2.439,6.1
				c0.012-1.232-0.988-1.452-1.22-2.44c1.231-0.012,1.451,0.988,2.439,1.22c-0.695-2.146,1.477-7.172-1.22-7.318
				c-0.158,2.269-0.793,4.074-2.439,4.879c-0.086-2.122,0.28-3.794,1.22-4.879c-9.612,6.867-23.312-10.467-31.704-4.88
				c1.012-7.331-11.089,1.171-14.639-3.659c1.622-2.989,3.684,2.195,4.879-1.221c-4.037,1.477-2.988-8.246-6.099-3.659
				c1.476-0.378,4.208,3.525,1.22,3.659c-3.038-1.695-2.903-3.452-3.66-4.879c-0.256,1.366-1.354,1.903-2.439,2.439
				c-0.476-1.744-1.464-2.062,0-3.659c-2.122-0.354-6.551,3.892-6.1-1.22c-5.501-0.622-9.661,0.085-10.979,3.659
				c-3.074-5.258,5.587-4.794,2.439-6.1c-5.514,0.793-5.525-0.817-6.099-2.439c-0.488,1.964-7.161-0.049-8.539-1.22
				c0.951-0.269,2.403-0.037,2.439-1.22c-5.818,0.183-11.577-5.807-18.298-1.22c1.708-6.588-5.721-4.026-6.1-8.539
				c-10.771,2.769-6.941-1.05-15.846,1.22c-0.683-2.172-0.634-5.062-2.439-6.1c-4.879,1.476-4.989-0.707-9.759,0
				c-0.366,2.403,1.646,2.415,2.439,3.659c-0.952,0.281-2.403,0.037-2.439,1.221c8.332-0.61,15.272,0.183,15.858,7.318
				c3.879,1.037,4.624-1.061,6.087-2.439c-1.952,4.807,5.27,0.427,4.879,3.66c-1.781,0.012-9.979-0.464-6.087,1.22
				c5.282,0,10.564,0,15.846,0c-0.085,2.122,0.281,3.794,1.22,4.879c3.452,1.013,3.159-1.72,6.099-1.22
				c0,4.514,3.257,3.379,6.1,1.22c2.037,5.185,6.221,5.453,10.979,3.66c-1.232,8.856,14.919,2.195,7.319,8.539
				c10.601-2.184,15.09,7.917,20.737,1.22c-2.524,6.587,6.648,1.476,7.319,4.879c-14.004-1.061-3.684,3.514,2.439,0
				c-0.561,7.052,3.733,1.672,6.1,1.221c0.11,5.159,6.66,3.903,8.539,7.318c2.55-2.391,8.637-0.39,7.319-3.659
				c0.805,0,1.622,0,2.439,0c0.269,2.306-1.378,2.684-1.22,4.88c6.917-1.232,7.356,4.013,12.187,4.879
				c-0.171-4.379,3.135,0.122,6.1-2.439c6.855,5.978,12.918,9.832,21.957,6.1C519.579,756.639,527.533,750.259,530.766,756.175z
				 M350.25,696.401c4.831,2.074,6.478-7.562,2.44-3.659c-0.122-1.915,0.159-4.233-2.44-3.66
				C350.25,691.522,350.25,693.962,350.25,696.401z M347.81,689.082c-2.098-0.476-3.123,1.818-3.66,0
				c0.671,0.013,1.378-0.987,0-1.22C334.94,692.107,345.358,695.938,347.81,689.082z M342.931,686.643
				c-3.025,1.586-5.062-3.574-6.1,0c1.33,0.293,2.928,2.013,1.22,2.439c-3.514-2.793-2.903-6.489-7.319-3.659
				c-0.256-0.915-0.683-1.708-1.232-2.391c0-0.013,0.012-0.037,0.012-0.049c-0.012,0.012-0.024,0.012-0.037,0.024
				c-2.391-3.062-7.002-3.685-8.502-1.244c3.379,2.342,7.185,0.402,4.879,3.659c2.378,0.366,2.415-1.61,3.623-2.415
				c0.024,0.012,0.037,0.012,0.024,0.024c-1.891,6.185,8.807,2.086,2.452,6.05C336.148,689.839,339.991,691.425,342.931,686.643z
				 M235.594,662.258c3.331-6.526-3.416-14.724-8.539-12.199C233.655,650.364,232.886,658.049,235.594,662.258z M219.736,645.18
				c2.232,0.317,6.026,5.196,8.539,1.22C226.043,646.07,222.249,641.19,219.736,645.18z M195.339,630.541
				c11.137,4.136,11.369,3.903,2.439-2.439c-0.061,0.744-0.183,1.439-1.22,1.22C195.814,629.395,195.119,629.504,195.339,630.541z
				 M188.02,636.641c1.33-3.965,3.147-7.441,6.1-9.759c-14.48-6.429-17.469-11.931-25.605-18.299
				c-0.269,5.746-4.05,7.503-5.563,9.003c-0.268,0-0.512,0.256-0.537,0.757c0.098-0.257,0.281-0.501,0.537-0.757
				c0.415,0.013,0.891,0.659,0.683,1.977c2.391,0.365,2.416-1.647,3.66-2.44C167.453,626.296,180.579,630.907,188.02,636.641z
				 M161.195,591.505c0.939-0.268,2.403-0.036,2.439-1.22c-5.172,0.573-4.94,4.233-7.319-1.22c-1.708,4.209-5.062,2.135-7.319,3.66
				c1.805,0.231,1.122,2.951,1.22,4.879c5.538-2.281,1.659,4.843,6.1,3.66c-0.098-2.123,0.268-3.794,1.22-4.88
				c-1.562-3.11-5.978,1.135-6.099-1.22c2.427-0.013,1.549-3.33,4.879-2.439c-0.378,3.22,2.549,3.146,4.879,3.659
				C163.22,593.97,161.085,594.836,161.195,591.505z M152.656,608.583c0.341-2.879,3.257,1.403,4.879,1.221
				c-0.524-2.733-2.623-3.892-3.66-6.1c-0.269,0.951-1.024,1.415-2.439,1.22c0,0.817,0,1.622,0,2.439
				C151.497,608.107,151.619,608.803,152.656,608.583z M145.336,541.503c-1.939,5.673,6.307,4.233,4.879,0
				C148.594,541.503,146.959,541.503,145.336,541.503z"/>
			<path fill="#FFF200" d="M624.684,684.203c-0.195,1.427-2.221,1.037-3.66,1.22c-0.109,3.33,2.037,2.464,0,4.88
				c3.403-1.464,5.844-3.904,7.319-7.319c-2.525,18.651-17.518,45.879-31.717,60.993c-1.951-5.367-3.684-10.954-7.319-14.639
				c-1.805,0.524,0.488,1.562,0,3.66c-2.402-0.842-3.244-3.258-3.659-6.1c5.6,1.427,10.259-13.479,14.639-20.738
				c-1.757-1.891-1.623-5.696-3.66-7.318c1.062-3.55,1.83-1.366,4.88-1.221c1.684-3.854,0.269-4.074,0-8.539
				c7.697,1.184,5.867-7.148,9.759-9.759C617.12,679.58,620.438,682.349,624.684,684.203z"/>
			<path fill="#FFF200" d="M622.243,553.701c0.208,1.525,0.184,2.965-0.024,4.331C622.207,556.58,622.207,555.141,622.243,553.701z"
				/>
			<path fill="#FFF200" d="M614.924,415.869c7.308,18.31,5.295,45.939,8.539,68.3C616.705,465.31,616.62,439.79,614.924,415.869z"/>
			<path fill="#FFF200" d="M617.364,665.905c2.659-2.903-0.61,2.5,0,4.879c-2.086,0.257-3.16-2.073-3.66,0
				C608.764,667.686,616.62,667.332,617.364,665.905z"/>
			<path fill="#FFF200" d="M614.924,657.378c-0.976,4.221,1.818,4.685,1.221,8.527c-5.771-1.428-0.817-6.319-4.88-8.527
				C611.802,655.561,612.826,657.854,614.924,657.378z"/>
			<path fill="#FFF200" d="M615.156,572.28c-0.122,0.329-0.195,0.634-0.232,0.927C614.851,572.707,614.948,572.414,615.156,572.28z"
				/>
			<path fill="#FFF200" d="M592.967,659.817c3.818-4.135,3.05,6.637,9.759,3.66c-0.927,3.135-3.892,4.232-8.539,3.647
				c0.231-0.988,1.232-1.208,1.22-2.439C591.905,663.526,594.613,660.647,592.967,659.817z"/>
			<path fill="#FFF200" d="M592.967,680.543c2.049,1.623,4.086,3.233,8.539,2.44c-0.513,2.33-3.489,2.208-2.439,6.099
				c-1.623,0-3.245,0-4.88,0c0.635-3.854,6.844-3.306-1.22-3.659C592.967,683.801,592.967,682.178,592.967,680.543z"/>
			<path fill="#FFF200" d="M594.187,693.962c-0.036,3.745-3.586,1.476-8.539,2.439c-0.256-2.086,2.086-3.159,0-3.659
				C586.843,690.083,592.687,692.913,594.187,693.962z"/>
			<path fill="#FFF200" d="M579.548,728.118c5.307-2.817,7.99,7.429,7.319,14.639C582.158,740.158,585.221,729.765,579.548,728.118z
				"/>
			<path fill="#FFF200" d="M564.922,724.459c10.259-6.404,17.7-15.627,28.045-21.958c-7.868,10.832-20.567,16.834-28.045,28.057
				c-2.513-2.684-4.014-1.513-6.1-6.099c-2.671-2.952,2.306,1.902,3.66,2.439c3.623-4.111-2.318-9.027-2.44-13.419
				c-2.976,0.684-6.282,1.05-6.099,4.88c-15.285-1.988-26.788-6.429-37.816-7.319c-0.158,1.781-2.317,3.708-7.319,3.659
				c-1.073-3.915,4.026-1.671,3.66-4.879c0.488-2.928-5.551,0.671-3.66-3.66c-3.574,1.037,1.586,3.074,0,6.1
				c-1.622,0-3.244,0-4.879,0c-0.891-3.33,2.428-2.452,2.439-4.879c-2.037-1.83-5.867-1.001-7.319,0
				c0.184-2.354-2.11-1.696-4.879-3.66c-1.891-4.33,4.147-0.731,3.659-3.659c1.232,2.428,4.538,2.781,6.1,4.879
				c0.671-0.354,0.756-4.916,3.659-1.22c1.366-1.11,0.391-2.269,1.22-6.1c1.184,0.037,0.952,1.501,1.221,2.44
				c4.94,0.756,4.439,6.94,10.979,6.099c-0.037-1.183-1.488-0.951-2.439-1.22c2.562-2.5,5.135-2.342,8.539-6.099
				c-3.477,5.099,2.391-1.379,3.659,2.439c1.806-0.537-0.488-1.562,0-3.66c3.477-0.865,1.428,8.21-3.659,8.539
				c0.305,1.537,2.427,1.232,2.439,0c3.794,2.989-0.402,3.404,6.648,2.525c-0.11,0.524-0.22,1.037-0.342,1.513
				c-0.122,0.22-0.207,0.488-0.207,0.842c0.073-0.269,0.146-0.549,0.207-0.842c0.293-0.573,0.842-0.891,1.013-1.598
				c-0.232,0.024-0.464,0.061-0.671,0.085c0.365-1.695,0.72-3.562,1.207-5.331c2.196,3.196,5.258,3.416,3.123,8.905
				c1.757-1.488,1.842-4.66,3.66-6.1c6.16,1.172,21.542-0.305,15.857-4.879c0.354-5.343,9.954-1.806,8.539,2.439
				c-2.024,3.27-6.66,3.916-8.539,7.319C564.117,709.759,563.287,719.701,564.922,724.459z"/>
			<path fill="#FFF200" d="M573.461,676.884c4.111,0.5-3.245,4.733,2.439,3.659c-1.842,3.307-5.27-1.939-7.319-2.439
				C568.911,673.834,573.974,680.312,573.461,676.884z"/>
			<path fill="#FFF200" d="M571.021,680.543c0.085,3.66-3.599,6.197-6.1,3.66C567.021,683.057,566.91,679.702,571.021,680.543z"/>
			<path fill="#FFF200" d="M572.241,759.822c-3.343,4.892-9.332-0.793-17.078,0C560.604,754.517,568.996,759.444,572.241,759.822z"
				/>
			<path fill="#FFF200" d="M566.142,743.977c-1.488,5.831-5.27,9.368-12.198,9.759c-3.452-4.014-3.928-11.405-7.319-9.759
				c-2.55-3.647,5.087-1.037,7.319-2.439C555.346,746.587,563.385,746.867,566.142,743.977z"/>
			<path fill="#FFF200" d="M557.603,732.998c0.879,4.61-8.161,5.574-6.1,7.318c-0.524,3.062-3.488-1.171-2.439-3.659
				C552.418,735.95,554.15,733.62,557.603,732.998z"/>
			<path fill="#FFF200" d="M546.624,731.777c3.452,2.758-0.183,8.686-2.439,9.76c1.207-2.83-9.564-4.989-6.1-9.76
				c-3.574,1.099-3.745,1.099-7.319,0c0.171-5.208,7.282-7.026,1.22-9.759c-1.562-5.367,3.074-7.758,6.1-4.879
				c0.366,2.817-3.525,1.354-3.66,3.659c5.6,0.305,2.745,3.257,0,8.539c3.258-2.024,4.551,4.282,9.76,2.439
				c-1.659-2.354,2.22,0.952-0.354,3.111c-0.341,0.134-0.646,0.293-0.866,0.549c0.354-0.171,0.635-0.354,0.866-0.549
				C545.245,734.34,547.307,734.425,546.624,731.777z"/>
			<path fill="#FFF200" d="M538.085,695.182c3.245-5.831,10.698-2.073,12.198,3.66C546.368,696.95,543.867,691.742,538.085,695.182z
				"/>
			<path fill="#FFF200" d="M541.744,696.401c5.709,1.025-0.231,6.368-4.135,6.197C538.427,699.878,539.634,697.487,541.744,696.401z
				"/>
			<path fill="#FFF200" d="M538.085,737.877c-4.27,5.404,6.087,4.233,2.439,8.539c-2.793-1.28-2.525-5.611-7.319-4.879
				c0-1.635,0-3.258,0-4.88c-11.808-1.049-9.551-9.698-21.957-10.979c-0.22-2.659,1-3.88,3.659-3.66
				c-0.231-0.987-1.22-1.22-1.22-2.439c-8.795,6.771-15.175-4.44-15.858-4.88c-0.366-0.243-0.951,0.135-2.439-1.22
				c-3.514-3.195-6.746-1.927-13.077-4.732c3.44,1.317-1.806-5.319-5.209-3.807c0.488-3.574,7.148-0.976,8.527-3.659
				c-0.379,2.184,3.232,2.672,6.099,1.22c0.55,7.648,7.283,3.61,10.979,12.198c1.731,0.11,3.452,0.195,3.659-1.22
				c1.915,0.524,1.049,3.831,4.88,2.44c3.891,1.695-4.77,0.744-4.88,2.439c3.514,1.879,6.062-0.988,10.979,2.439
				c-0.427,1.599-2.146,1.915-2.439,3.66c2.086,0.049,3.159-0.903,3.66-2.44c2.171,0.891,0.17,2.221,0,3.66
				C526.423,728.058,531.607,738.012,538.085,737.877z"/>
			<path fill="#FFF200" d="M538.085,751.296c0.842,4.903-6.075,2.062-7.319,4.879c-3.232-5.916-11.187,0.464-13.419-6.099
				c-9.039,3.732-15.102-0.122-21.957-6.1c-2.965,2.562-6.271-1.939-6.1,2.439c-4.83-0.866-5.27-6.111-12.187-4.879
				c-0.158-2.196,1.488-2.574,1.22-4.88c-0.817,0-1.635,0-2.439,0c1.317,3.27-4.77,1.269-7.319,3.659
				c-1.879-3.415-8.429-2.159-8.539-7.318c-2.366,0.451-6.66,5.831-6.1-1.221c-6.123,3.514-16.443-1.061-2.439,0
				c-0.671-3.403-9.844,1.708-7.319-4.879c-5.647,6.697-10.137-3.403-20.737-1.22c7.6-6.344-8.552,0.317-7.319-8.539
				c-4.758,1.793-8.941,1.524-10.979-3.66c-2.843,2.159-6.1,3.294-6.1-1.22c-2.94-0.5-2.647,2.232-6.099,1.22
				c-0.939-1.085-1.306-2.757-1.22-4.879c-5.282,0-10.564,0-15.846,0c-3.891-1.684,4.306-1.208,6.087-1.22
				c0.39-3.233-6.831,1.146-4.879-3.66c-1.464,1.379-2.208,3.477-6.087,2.439c-0.585-7.136-7.526-7.929-15.858-7.318
				c0.037-1.184,1.488-0.939,2.439-1.221c-0.793-1.244-2.806-1.256-2.439-3.659c4.77-0.707,4.879,1.476,9.759,0
				c1.805,1.037,1.756,3.928,2.439,6.1c8.905-2.27,5.075,1.549,15.846-1.22c0.378,4.513,7.807,1.951,6.1,8.539
				c6.721-4.587,12.479,1.402,18.298,1.22c-0.036,1.183-1.488,0.951-2.439,1.22c1.378,1.171,8.051,3.184,8.539,1.22
				c0.573,1.622,0.585,3.232,6.099,2.439c3.147,1.306-5.514,0.842-2.439,6.1c1.317-3.574,5.478-4.281,10.979-3.659
				c-0.451,5.111,3.978,0.865,6.1,1.22c-1.464,1.598-0.476,1.915,0,3.659c1.086-0.536,2.184-1.073,2.439-2.439
				c0.757,1.427,0.622,3.184,3.66,4.879c2.988-0.134,0.256-4.037-1.22-3.659c3.11-4.587,2.062,5.136,6.099,3.659
				c-1.195,3.416-3.257-1.769-4.879,1.221c3.55,4.83,15.65-3.672,14.639,3.659c8.393-5.587,22.092,11.747,31.704,4.88
				c-0.939,1.085-1.306,2.757-1.22,4.879c1.646-0.805,2.281-2.61,2.439-4.879c2.696,0.146,0.524,5.172,1.22,7.318
				c-0.988-0.231-1.208-1.231-2.439-1.22c0.231,0.988,1.231,1.208,1.22,2.44c2.672-0.184,2.623-3.074,2.439-6.1
				c0.524,2.257,12.211,3.257,3.66,3.659c3.159,1.964,7.648,2.587,10.979,1.22c-0.61,2.952-3.465,6.308-6.1,3.66
				c-1.146,4.403,4.807,1.695,7.319,2.439c-4.55-2.171,0.231-4.025,4.88-3.659c0.573,2.598-1.745,2.317-3.66,2.439
				c1.818,0.72,10.552,4.428,9.759,0c2.147,0.293,2.781,2.099,2.44,4.88c2.037,0,4.062,0,6.099,0c-6.782-2.318-3.55-2.623,3.66-2.44
				c-4.892,2.818,0.476,2.525,4.879,2.44c0.574,2.598-1.744,2.317-3.659,2.439C533.145,756.736,535.633,751.015,538.085,751.296z"/>
			<path fill="#FFF200" d="M537.609,702.599c-0.073,0.244-0.146,0.5-0.208,0.756c-0.195-0.268-0.365-0.549-0.536-0.854
				C537.109,702.562,537.353,702.599,537.609,702.599z"/>
			<path fill="#FFF200" d="M352.689,692.742c4.038-3.903,2.391,5.733-2.44,3.659c0-2.439,0-4.879,0-7.319
				C352.848,688.509,352.567,690.827,352.689,692.742z"/>
			<path fill="#FFF200" d="M344.15,689.082c0.537,1.818,1.562-0.476,3.66,0c-2.452,6.856-12.87,3.025-3.66-1.22
				C345.529,688.095,344.821,689.095,344.15,689.082z"/>
			<path fill="#FFF200" d="M336.831,686.643c1.037-3.574,3.074,1.586,6.1,0c-2.94,4.782-6.783,3.196-10.979,2.439
				c6.355-3.964-4.343,0.135-2.452-6.05c0.549,0.683,0.976,1.476,1.232,2.391c4.416-2.83,3.806,0.866,7.319,3.659
				C339.759,688.655,338.161,686.936,336.831,686.643z"/>
			<path fill="#FFF200" d="M329.512,651.278c0.097-0.305,0.219-0.573,0.366-0.829C329.829,650.718,329.707,650.998,329.512,651.278z
				"/>
			<path fill="#FFF200" d="M329.512,682.983c0,0.012-0.012,0.036-0.012,0.049c0.012-0.013,0-0.013-0.024-0.024
				C329.488,682.995,329.5,682.995,329.512,682.983z"/>
			<path fill="#FFF200" d="M329.476,683.008c-1.208,0.805-1.245,2.781-3.623,2.415c2.305-3.257-1.5-1.317-4.879-3.659
				C322.473,679.323,327.084,679.945,329.476,683.008z"/>
			<path fill="#FFF200" d="M227.055,650.059c5.124-2.524,11.87,5.673,8.539,12.199C232.886,658.049,233.655,650.364,227.055,650.059
				z"/>
			<path fill="#FFF200" d="M228.275,646.399c-2.513,3.977-6.307-0.902-8.539-1.22C222.249,641.19,226.043,646.07,228.275,646.399z"
				/>
			<path fill="#FFF200" d="M197.778,628.102c8.93,6.343,8.698,6.575-2.439,2.439c-0.22-1.037,0.476-1.146,1.22-1.22
				C197.596,629.541,197.718,628.846,197.778,628.102z"/>
			<path fill="#FFF200" d="M194.119,626.882c-2.952,2.317-4.77,5.794-6.1,9.759c-7.441-5.733-20.567-10.345-20.726-19.519
				c-1.244,0.793-1.269,2.806-3.66,2.44c0.208-1.317-0.268-1.964-0.683-1.977c1.513-1.5,5.294-3.257,5.563-9.003
				C176.65,614.951,179.639,620.453,194.119,626.882z"/>
			<path fill="#FFF200" d="M162.415,618.343c0.024-0.501,0.269-0.757,0.537-0.757C162.695,617.842,162.512,618.086,162.415,618.343z
				"/>
			<path fill="#FFF200" d="M163.634,590.285c-0.037,1.184-1.5,0.952-2.439,1.22c-0.11,3.331,2.025,2.465,0,4.88
				c-2.33-0.513-5.258-0.439-4.879-3.659c-3.331-0.891-2.452,2.427-4.879,2.439c0.122,2.354,4.538-1.891,6.099,1.22
				c-0.952,1.086-1.317,2.757-1.22,4.88c-4.44,1.183-0.562-5.941-6.1-3.66c-0.098-1.928,0.585-4.647-1.22-4.879
				c2.257-1.525,5.611,0.549,7.319-3.66C158.694,594.519,158.462,590.858,163.634,590.285z"/>
			<path fill="#FFF200" d="M157.535,609.804c-1.623,0.183-4.538-4.1-4.879-1.221c-1.037,0.22-1.159-0.476-1.22-1.22
				c0-0.817,0-1.622,0-2.439c1.415,0.195,2.171-0.269,2.439-1.22C154.913,605.912,157.011,607.07,157.535,609.804z"/>
			<path fill="#FFF200" d="M150.216,541.503c1.427,4.233-6.819,5.673-4.879,0C146.959,541.503,148.594,541.503,150.216,541.503z"/>
			<path fill="#FFF200" d="M150.216,557.361c-0.11,0-0.207-0.013-0.317-0.013C149.997,557.324,150.106,557.337,150.216,557.361z"/>
			<path fill="#FFF200" d="M278.083,622.209c-3.27,3.392-2.147,6.551-10.771,5.893c2.476-3.221-2.062-3.745-4.879-2.44
				c3.196-2.684-3.782-4.05,0-7.318c-1.952-2.11-5.49-2.647-9.759-2.44c-0.524-2.549,0.83-3.232,1.22-4.879
				c-3.452-1.013-3.16,1.72-6.1,1.22c-0.915-5.526,3.343,1.866,2.44-3.66c-0.183-2.72-3.074,1.586-6.1,0
				c4.928,3.94-1.5,2.794-4.879,3.66c0.134-2.306,4.038-0.842,3.66-3.66c-6.099-3.037-8.088-7.514-13.418-6.099
				c0.183-2.659,3.074-2.623,6.099-2.44c-0.146-2.695-5.172-0.512-7.319-1.22c0.134-2.306,4.038-0.842,3.66-3.659
				c-2.171,3.123-11.382-0.806-13.419,2.439c-2.988-1.513,3.66-3.55,3.66-6.1c-6.197,5.844-9.125-5.159-15.858-6.099
				c-0.39-3.233,6.832,1.146,4.88-3.66c-2.818-3.001-11.552,4.709-7.319,6.1c-4.099,5.196-3.342-4.685-4.879-6.1
				c-1.928,0.11-4.648-0.585-4.879,1.22c-0.061-1.817-6.246-5.465-1.22-4.879c-3.599-4.696-6.026,2.013-8.527,2.439
				c-1.659-5.307,2.903-4.403,3.647-7.319c-2.732-1.317-4.818-3.306-4.867-7.319c-2.33,2.623-4.514,4.538-6.099,4.88
				c-1.598-5.05-2.83-9.319-7.319-8.527c-0.208-3.379,1.866-4.196,3.66-2.439c-1.696-4.001-6.343-5.062-9.759-7.319
				c1.354,2.294,1.708,5.6,4.88,6.1c-8.734,0.78-7.734-5.818-12.199-10.979c-1.952,20.371-3.44,2.732-3.66-4.88
				c-0.293-2.146-2.098-2.781-4.879-2.439c1.232-4.014,2.11-3.574,4.879-1.22c-3.367-4.245-7.393-1.403-13.797-3.916
				c-0.659-0.342-1.342-0.671-2.062-0.964c0.72,0.391,1.403,0.708,2.062,0.964c2.281,1.184,4.306,2.623,6.478,3.916
				c0.305,4.367-3.66,4.465-3.66,8.539c1.184-0.037,0.952-1.501,1.22-2.44c2.72,5.295,3.757,3.282,4.879,2.44
				c5.44-0.184-1.086,3.123,0,6.099c-5.172-4.415-2.11,1.318-6.1,3.66c-0.171-1.695,1.623-5.636-3.66-7.319
				c2.489,2.903-0.378,9.319,2.44,13.419c3.647-0.806-1.171-2.611,0-4.88c6.551,2.074,4.27-4.685,9.759-3.659
				c-0.231,1.585-4.794,2.232-0.402,2.427c-2.306,0.452-2.416,9.784-3.257,3.672c-3.367,3.038,2.22,7.454,2.44,10.967
				c3.33-1.11-2.171-4.27,1.22-6.1c1.781-0.012,3.867,5.148,3.66,0c1.806,1.037,1.769,3.929,2.44,6.1
				c-2.33,0.524-2.208,3.489-6.1,2.439c-0.098,1.94,0.585,4.66-1.22,4.88c-0.524,3.428,4.55-3.05,4.879,1.22
				c-2.025,4.892-6.636,1.439-8.539-1.22c-2.062,2.013-1.513,6.624-3.66,8.539c2.562-2.025,6.429-6.282,6.1,1.22
				c-1.427-0.195-1.025-2.22-1.22-3.659c-1.134,0.902-1.854,2.22-2.439,3.659c3.867,1.11,6.66,7.783,2.439,13.419
				c-9.82-7.124-15.456-18.444-24.397-20.738c-0.805-4.074-3.794-5.965-4.88-9.759c-1.646,4.538,4.904,11.345,4.88,18.298
				c-2.83-0.817-3.27-4.05-6.1-4.879c-22.604-94.211-79.853-152.361-73.18-265.895c1.708-29.118,5.648-53.662,10.979-80.499
				c6.014-30.326,18.603-67.8,46.343-90.258c24.361-19.725,55.992-42.902,90.258-63.433c50.625-30.326,90.697-61.371,156.131-51.222
				c72.497,11.248,137.32,51.271,195.154,79.279c-3.574-9.027-9.844-15.358-13.418-24.397
				c51.979,23.3,84.976,69.154,121.975,109.776c10.063,11.052,20.701,25.69,31.704,37.816
				c29.472,32.449,63.543,68.447,84.098,97.479c-1.146-1.305,0.402,7.954,6.16,7.417c-47.831,25.751-100.127,47.038-148.8,71.959
				c-4.452-1.391-11.283,1.537-14.638,4.88c-35.73,10.564-57.81,20.201-91.479,29.276c-26.531,7.148-58.87,16.127-90.258,7.319
				c-14.284-4.013-32.851-14.187-43.915-23.177c-23.299-18.945-44.952-34.413-84.159-29.277
				c-23.568-21.896-76.022-35.9-115.863-14.638c-13.492-1.086-17.2-5.307-24.397-13.418c1.086,4.928,10.906,15.736,19.518,13.418
				c-18.188,29.191-7.258,82.366,3.66,110.996c-1.33-0.305-0.83-2.428-2.44-2.439c5.27,5.696,8.942,13.004,13.406,19.518
				c-0.488,3.037-4.721,0.073-3.66-2.439c-2,1.951,0.549,4.562-2.439,7.319c3.245-0.525,4.123-4.624,4.879,1.22
				c1.244-0.793,1.269-2.806,3.66-2.44c-2.464,6.063,13.833,13.053,9.759,17.078c1.513,0.501,3.55,1.391,6.1,3.66
				c-0.024,1.184-1.488,0.939-2.44,1.22c44.647,31.509,104.53,60.469,168.317,76.84c0.207,0.049-0.195,2.378,0,2.439
				c36.023,9.868,67.361-0.451,107.336-4.88c1.195-0.036,0.951-1.488,1.22-2.439c26.764-0.915,50.063-11.698,70.752-14.639
				c-0.695-1.891,8.454-6.648,12.198-3.659c3.27-4.514,28.448-18.713,30.485-10.979c1.171-3.501,4.05-0.793,4.879-2.44
				c2.391,1.684,0.659,7.479,2.439,9.759c2.062-5.647,4.075,2.025,1.221,3.66c0.183,2.671,3.073,2.623,6.099,2.439
				c-1.476,1.781-5.33,1.171-3.659,6.1c2.477,0.585,5.66,7.16,4.879,14.639c1.221,0,2.44,0,3.66,0
				c0.085-5.271-3.977-1.537-2.439-9.76c1.22,0,2.439,0,3.659,0c0.269-5.367-1.635-4.854-3.659-9.759c1.622,0,3.257,0,4.879,0
				c-1.037-3.891,1.062-4.623,2.439-6.099c-0.805-3.647-2.61,1.171-4.879,0c0.536-2.721,2.159-4.343,4.879-4.88
				c-1-3.062-6.429-1.695-8.539-3.659c0.842-0.977,1.903-3.343,0-3.66c0.891-2.171,2.221-0.171,3.66,0
				c1.013-5.245-7.271-1.622-3.66-3.659c-0.158-3.014,1.501-2.074,1.221,0c1.329-0.293,0.829-2.416,2.439-2.44
				c-0.11-0.769-2.586-2.646-3.416-2.146c1.159-3.11,6.039-7.795,7.051-14.224c0.22,23.116,6.002,47.599,6.124,76.144
				c-3.745-14.528-20.786-4.488-25.617-1.22c4.514,3.636,7.795-4.367,12.198-4.879c1.428,10.894,9.735,26.117,6.1,34.156
				c-5.489-3.574-1.646-6.344-4.879-17.078c-2.465,2.817,0.841,5.44-1.221,9.759c-1.927-0.11-4.647,0.585-4.879-1.22
				c-1.232-3.672,2.72-2.172,4.879-2.44c-2.939-10.1,0.744-7.404-4.879-17.078c-2.33,2.477,4.745,9.601-3.66,9.76
				c0.024-2.879-2.098-3.599-1.22-7.319c-16.248,6.147-23.775,27.386-39.023,30.484c0.635,0.988,1.269,1.988,1.22,3.659
				c-11.759,2.721-24.409,14.456-41.476,15.858c-12.027,6.588-45.842,19.737-63.421,9.759c-1.195,0.037-0.951,1.501-1.22,2.44
				c-10.734-7.197-10.332-2.452-23.177-7.319c0.109-3.33-2.037-2.452,0-4.88c-11.089,2.232-6.148,0.062-14.639,0
				c-0.513-2.55,0.842-3.232,1.22-4.879c-1.817,1.439-5.453,1.061-4.88,4.879c-0.707-3.099-8.014-2.817-4.879-6.1
				c-2.318,0.525-3.062,2.636-6.1,2.44c-0.451-2.074,0.951-2.294,2.439-2.44c-0.194-1.427-2.22-1.024-3.659-1.22
				c-3.416,1.208,1.769,3.258-1.22,4.88c-1.354-0.817,0.244-4.05-3.66-4.88c0.195-1.427,2.232-1.024,3.66-1.22
				c0.464-2.513-11.589-1.28-7.319,0c-3.269,1.477-3.977-3.745-2.44-7.319c-3.147,6.661-16.944-0.22-12.199-3.659
				c-5.526-2.281-1.659,4.854-6.099,3.659c4.318-5.574-3.111-1.964-6.087-3.659c-0.964-0.537,3.513-1.806,3.659-1.22
				c-0.695-2.806-9.515-1.366-4.879,3.659c-5.867-5.66-7.222-1.415-10.979-9.747c-3.953,4.514-6.234-1.342-7.319,2.44
				c-1.403-0.402-4.196-5.331-1.22-6.1c-1.281-2.098-7.136-1.513-3.66-4.88c-3.696-0.756-3.038,7.71-3.66,0
				c-1.134,0.891-1.854,2.208-2.44,3.66c0.195,1.427,2.22,1.024,3.66,1.22c-1.134,3.025-8.185,2.952-7.319-2.439
				c-1.427,0.195-1.025,2.22-1.22,3.659c-2.098-3.439-1.513-2.842-4.879-3.659c0.195-1.439,2.22-1.037,3.66-1.22
				c-0.793-1.245-2.806-1.269-2.44-3.66c-1.683-0.049-2.696,0.562-3.293,1.61c1.269-5.014-17.529-8.026-13.785-2.83
				c-4.562-3.135-9.32-9.917-17.078-6.1c1.476-5.136-1.964-5.354-2.439-8.539c-2.416,0.013-1.549,3.33-4.879,2.44
				c0.573-2.611-1.732-2.33-3.66-2.44c0.024-2.427,3.33-1.549,2.439-4.879c-3.208-0.378-3.135,2.549-3.66,4.879
				c-2.635,0.208-0.549-4.33-1.22-6.099c-1.5,1.366-2.5,1.061-2.439-1.221c-1.745,1.501-2.306,4.197-2.44,7.319
				c-2.879,2.672,0.208-5.062,0-7.319c-1.232,0.793-1.256,2.806-3.647,2.44C279.656,625.649,276.228,624.259,278.083,622.209z
				 M583.208,151.194c-0.171,3.513,4.037,8.868,6.099,6.099C585.465,157.062,587.746,150.719,583.208,151.194z M572.241,171.932
				c0.488,2.342,4.721,0.951,3.659,4.867c-6.733,4.416-3.22,4.379-10.979,9.759c7.795-0.732,9.832-7.234,14.626-10.979
				c-0.573-4.099-15.333-6.795-9.746,0C569.729,173.481,570.729,172.457,572.241,171.932z M564.922,176.799
				c0.256-1.464,1.354-0.744,2.439,0c-0.231-4.233-8.759-4.953-8.539,0C562.396,175.945,562.409,172.713,564.922,176.799z
				 M540.524,645.18c2.123-1.135,6.551,0.036,6.1-3.66c-3.123,2.086-4.27-1.402-6.1,1.22
				C542.001,642.996,541.269,644.094,540.524,645.18z M531.985,199.977c3.062-1.61,2.965,5.685,4.88,1.22
				c-3.587-14.712-8.344-28.252-14.639-40.244c-5.221-0.671-14.65-7.612-12.198-4.879c3.623,3.281,9.186,4.636,12.198,8.539
				C525.557,175.604,534.486,187.192,531.985,199.977z M528.326,642.739c3.428,3.307,8.1,2.208,10.979-1.22
				c-48.258,2.147-106.921-2.573-135.393-3.659c-4.307-0.171-12.724-3.025-12.199,2.439c28.85-2.428,56.395,33.559,89.051,34.145
				c18.822,0.341,29.679-16.664,47.562-24.386C529.753,646.826,525.983,642.874,528.326,642.739z M508.808,219.495
				c-3.33-8.856-6.758-17.627-13.418-23.177C499.464,205.039,504.271,214.676,508.808,219.495z M485.631,195.097
				c5.403,0.585,6.074-1.671,9.759,0c-6.307-9.954-12.053-20.457-20.726-28.044c-1.586,3.025,2.72,5.916,0,6.099
				c-0.817,0-1.635,0-2.439,0c0.695-0.744,2.854-5.794,0-6.099c0.109,4.635-6.856,8.527-3.66,12.187
				c0.329-2.501,3.257-2.428,4.88-3.66c0,2.037,0,4.074,0,6.099c-2.879-1.562-2.281,0.171-6.1-1.22
				c1.757,7.063,5.453,11.674,9.759,10.979c-4.221-2.293-0.305-5.526,1.22-8.539c3.807,1.318,7.466,2.782,8.527,3.66
				C487.558,190.523,486.021,192.243,485.631,195.097z M364.888,637.86c6.221-2.659,20.604,3.343,25.605-1.22
				c-8.844-1.379-23.568-1.793-29.265-2.44C361.777,638.373,365.132,633.92,364.888,637.86z M360.009,634.2
				c-3.843,1.391-2.964-1.915-4.879-2.439c0.744,4.27-4.392,2.123-1.22,0c-3.708,0.769-10.503-1.562-12.199,1.22
				c1.488,0.135,2.891,0.366,2.44,2.44C349.054,634.64,357.118,637.006,360.009,634.2z M294.136,70.695
				c2.171-5.99,11.04-11.699,10.979-15.858c-6.514,5.27-16.31,7.271-20.738,14.639C286.158,71.354,290.623,70.549,294.136,70.695z
				 M198.999,580.526c2.281-2.159-0.988-3.099,0-7.319c-1.623,0-3.245,0-4.879,0C193.521,577.879,195.802,579.66,198.999,580.526z
				 M159.975,500.027c-0.122-1.366,1.769-1.891,0-2.439c-0.073,0.744-0.183,1.451-1.22,1.22c0.061-1.562,1.562-1.684,1.22-3.659
				c-2.952-1.721-7.795-2.989-4.88,1.22c0.513-3.062,3.477,1.171,2.44,3.659C158.34,500.027,159.158,500.027,159.975,500.027z
				 M158.755,330.49c5.16-7.039,9.479-30.106-3.66-31.716c3.416,7.124,12.15,18.944,2.44,25.617c0.83-2.684,2.696-5.709-3.66-4.879
				c-0.208-8.137-3.208-13.15-3.66-19.518c-2.513,1.159-1.037,6.282-4.879,6.1c-1.013-3.916-1.037-2.525,1.22-4.88
				c-4.806-2.256-12.723,1.549-14.638,6.1c3.33,0.891,2.452-2.428,4.879-2.44c1.086,2.574,3.708,3.611,3.66,7.319
				c3.843,1.366,2.757,0.11,7.319,0c-0.293,1.744-2.013,2.062-2.44,3.66c7.258,1.635,6.636,7.624,10.979,9.759
				c-2.159,1.5-6.429,0.891-7.319,3.66c2.171-11.149-10.991-4.538-4.879-12.199c-5.258-1.598-1.513,5.807-6.1,4.879
				c4.087-5.099-0.366-10.332-8.539-9.759c-0.122,8.246,3.221,13.053,4.879,19.518c3.806-0.623,5.904,2.878,3.66-1.22
				c6.429-0.708,5.087,4.075,1.22,4.879c5.928,0.744,6.27,0.744,12.199,0C154.534,332.21,151.058,329.551,158.755,330.49z
				 M138.017,350.008c3.086,6.026,12.772,17.883,14.639,17.078C147.544,361.622,144.043,354.558,138.017,350.008z M145.336,570.768
				c-0.366-4.111-0.61-8.332-2.439-10.967c1.012,3.184-3.684,6.685,0,8.527c0-0.671,0.988-1.379,1.22,0
				C144.385,569.279,144.153,570.743,145.336,570.768z M136.797,531.744c3.025-1.586,5.917,2.72,6.1,0
				c-2.281-6.295-1.659-1.55-4.88-4.88c-4.953,2.696-4.953,0.964,0,3.66C137.273,530.598,136.578,530.707,136.797,531.744z
				 M139.237,508.566c-1.22,0-2.44,0-3.66,0c1.927-3.366-3.172-5.478-3.66-2.439c2.537,0.683,2.586,1.903,1.22,3.659
				c1.83,0.208,4.501-0.438,4.879,1.22c-0.683,0-1.391,0.988,0,1.221c2.806-3.501,3.062-6.808,0-9.76
				C137.627,505.297,138.212,507.151,139.237,508.566z M134.357,541.503c1.22-3.172,2.147-8.173-1.22-9.759
				C136.834,535.952,129.088,539.746,134.357,541.503z M127.039,504.907c3.586-1.208,0.61-4.855-2.44-6.1
				C124.416,501.833,125.233,503.87,127.039,504.907z M123.379,519.545c0.964-4.208-1.135-5.367-3.66-6.099
				c0.061,1.684-0.573,2.684-1.22,3.659C122.452,515.593,119.438,521.058,123.379,519.545z"/>
		</g>
	</g>
</g>
</svg>
