<?xml version="1.0" encoding="utf-8"?>
<!-- Generator: Adobe Illustrator 14.0.0, SVG Export Plug-In . SVG Version: 6.00 Build 43363)  -->
<!DOCTYPE svg PUBLIC "-//W3C//DTD SVG 1.0//EN" "http://www.w3.org/TR/2001/REC-SVG-20010904/DTD/svg10.dtd">
<svg version="1.0" xmlns="http://www.w3.org/2000/svg" xmlns:xlink="http://www.w3.org/1999/xlink" x="0px" y="0px" width="432px"
	 height="288px" viewBox="0 0 432 288" enable-background="new 0 0 432 288" xml:space="preserve">
<g id="Layer_1_x23_000000">
	<g>
		<g>
			<path d="M397.76,196.62c3.45,2.79,7.05,7.44,5.75,13.44c-5.06,1.979-7.79,6.3-11.04,10.08c-9.4,0.439-16.94-0.98-25.44-1.45
				c0.23,2.479,1.5,4.05,1.44,6.24c-0.36,13.6-21.76,20.39-30.72,9.109c-8.94-0.34-13.771-4.8-15.36-12.479
				c-19.45,0.399-34.47-3.62-53.75-3.38c3.6,18.88-21.439,17.439-28.32,9.109c-7.68,1.37-17.22-1.8-17.76-10.57
				c-8.58-1.819-15.15-5.649-19.67-11.52c-4.2,0.35-6.27-1.41-10.56-0.97c13.51,11.739-7.82,19.37-20.64,14.88
				c0.23,10.57-4.74,21.84-16.81,19.189c-2.16-0.479-6.17-3.59-8.16-5.279c-4.97-4.261-9.03-11-11.99-14.891
				c-3.56,0.04-7.15,0.11-10.08-0.479c-0.15,11.22-3.81,18.91-11.53,22.55c-14.2,1.08-18.37-7.87-24.47-14.88
				c-1.77,19.59-25,8.56-30.24-0.49c-8.7-0.76-21.88,0.57-27.35-4.81c-1.16-4.471-2.19-10.28,0-14.4
				c-4.93-10.03-6.38-28.1-2.38-40.32c15.6-2.31,28.91-10.939,47.52-7.18c-0.55-12.79-0.2-28.19,4.33-37.44
				c-4.21-7.64,4.38-11.76,10.56-13.91c0.34-0.12,0.92-0.47,0.96-0.48c8.63-1.88,18.52-5.75,29.76-6.71
				c4.6-0.39,10.35,0.24,15.84,0.48c9.5,0.43,16.9-0.1,21.12,5.29c6.07,7.76,8.99,18.89,11.51,28.8c1.54,6.07,1.66,13.14,2.87,20.16
				c6.01,3.75,10.8,8.72,16.79,12.489c-0.47,9.21,0.87,21.9,2.39,29.271c1.93,0.96,4.36,1.41,7.2,1.45
				c0.98-35.21,18.31-58.17,34.11-80.15c5.25-0.02,7.75-2.8,12.96-2.87c-3.54-8.14-10.56-12.81-11.04-24
				c3.51-4.57,10.78-2.84,15.84-5.28c-1.34-8.28-3.79-24.46,6.25-26.39c-4.97-6.07-11.439-10.64-17.75-15.37
				c0.761-2.92,2.82-4.54,4.32-6.72c8.62,5.47,13.58,14.58,22.07,20.17c6.59,0.13,10.43,0.48,15.84,0.01c0.38-1.25-0.25-5.03,0-7.68
				c7.91-8.87,18.5,0.9,19.68,10.08c20.54-15.83,41.22,6.26,40.311,28.81c5.43,1.92,13.46,1.26,17.75,4.33
				c0.33,6.96-1.66,15.57-3.36,22.08c3.46,2.61,8.66,3.49,12.95,5.28c3.84,5.6,5.68,13.2,8.16,20.16
				c2.939-5.62,2.119-20.64,10.08-19.67c5.05,0.61,5.71,13.36,6.229,21.12c1.33,19.58-0.91,39.86-2.41,57.11
				C393.989,198.29,395.37,196.95,397.76,196.62z M401.59,206.7c0.08-2.79-3.05-6.03-7.67-6.24c-2.26,1.101-2.7,4.021-5.29,4.8
				c-1.601-1.109-5.24-0.199-5.75-2.399c-0.68-18.87-0.84-38.63-5.75-55.68c-1.57-5.471-5.141-20.581-8.63-24
				c-5.84-5.74-20.37-4.72-30.71-7.21c-16.38-3.94-32.37-4.45-47.04-3.86c0.29-1.5,3.85-1.66,7.2-1.43
				c-0.53-5.91-0.29-12.83-0.95-19.68c-11.261,1.02-22.86-1.45-33.12-2.41c-9.44-0.89-20.101-0.76-26.4,4.31
				c1.641,5.15,3.84,10.72,6.721,14.4c1.56,1.99,4.51,5.07,6.72,6.24c11.229,5.97,26.569-4.83,39.35-1.91
				c-0.5,2.65-2.71,0.8-4.319,0.96c-8.82,0.9-17.801,4.43-26.4,4.31c-9.74-0.13-16.2,1.74-21.12,6.24
				c-5.91,7.62-8.5,16.62-12.49,30.23c-5.31,18.13-13.01,45.29-0.97,59.51c3.09,0.36,5.42,3.74,9.11,1.931
				c2.939-5.45,3.18-11.841,8.17-14.4c11.29-5.8,23.05,5.91,25.91,15.37c20.359,1.33,47.069,4.16,67.67,2.42
				c-0.5-9.53,11.96-16.18,21.13-12.47c4.18,1.689,5.38,7.18,7.67,10.56c8.26,2.101,17.32,3.13,26.88,1.93
				c2.42-0.85,1.07-3.5,3.36-5.76C397.6,209.771,401.479,210.521,401.59,206.7z M389.12,192.3c1.529-16.85,3.97-39.34,2.899-56.629
				c-0.28-4.55-1.17-13.15-4.8-13.45c-3.34-0.27-5.5,6.88-6.24,9.6c-4.5,16.62,1.69,25.439,2.86,43.2
				c0.41,6.189,0.229,12.149,0.479,17.76c0.141,3.189-1.159,8.16,1.91,10.08C390.38,201.141,388.779,196,389.12,192.3z
				 M354.55,237.41c7.1-2,9.91-11.52,8.64-20.64c-0.14-1.69-1.3,1.689-1.439,0c-0.061-6.34-4.011-8.79-10.07-9.12
				c1.61-0.15,3.271-0.24,4.32-0.96c-7.721-1.641-14.141,1.67-17.761,6.71c-1.369,8.16-0.27,12.37,2.391,18.24
				C345.91,234.23,348.239,239.181,354.55,237.41z M352.67,116.45c3.649-5.79,5.17-13.7,5.28-23.03
				c-16.311-4.65-40.57-1.4-58.07-2.42c-0.09,7.21-0.13,15.54,1.43,19.68C321.739,108.39,334.25,115.15,352.67,116.45z
				 M338.279,89.57c5.36-9.25-2.93-15.89-9.6-17.76c4.36,0.12,6.29,2.68,9.6,3.84c-1.67-17.09-24.46-26.71-36.949-12.49
				c0.05,3.26-0.83,5.57-0.49,9.12c7.08-1.78,18.2-6.83,25.92-1.91c-9.41-1.2-18.98,0.55-26.4,3.83
				c0.341,5.46-0.489,9.75-0.479,14.88C313.069,89.91,324.35,89.75,338.279,89.57z M338.229,231.16
				c-0.91-3.72-1.67-7.61-2.399-11.52c-4.03-0.19-7.521,0.159-11.04,0.479C325.81,227.26,328.8,232.431,338.229,231.16z
				 M298.439,89.08c1.65-9.68,0.851-19.16,1.931-26.88C297.2,68.4,296.75,82.46,298.439,89.08z M300.35,109.72
				c-1.61-6.17-1.24-11.4-1.43-18.72C297.75,95.02,297.66,109.59,300.35,109.72z M298.93,60.76c2.57-8.79-9.43-16.25-14.88-8.64
				c-2.4,8.32,5.81,6.03,11.52,6.24C297.08,58.71,297.04,62.3,298.93,60.76z M296.52,89.08c0.65-7.42,0.5-19.38,0.97-27.36
				c-11.96-2.97-30.47-1.21-42.72,0.47c-2.47,6.58-0.42,17.53-0.49,24.95C270.35,87.52,286.45,90.31,296.52,89.08z M266.72,225.86
				c1.84-17.54-8.13-27.23-23.51-24.49c-2.181,2.63-6.45,5.7-5.29,10.08c0.319-0.65,1.03-0.9,1.92-0.96
				C230.75,228.41,257.71,238.431,266.72,225.86z M253.34,51.63c3.12,2.79,6.05,7.81,11.03,7.2
				c-7.771-5.19-12.631-13.28-20.15-18.73c-0.61,1.15-2.1,1.42-1.92,3.36C246.16,45.78,249.859,48.52,253.34,51.63z M238.399,225.37
				c-0.68-1.82-2.31-6.58-2.399-10.56c-2.061,3.779-7.2,0.31-11.04,1.43C225.22,223.561,230.899,226.74,238.399,225.37z
				 M220.66,166.33c4.949-17.25,9.489-33.38,15.85-46.07c-11.48,8.82-18.29,21.8-24.49,36.94c-5.36,13.13-10.8,23.4-9.61,40.8
				c3.41,0.05,4.08-2.64,6.72-3.359c1.85,0.409,3.71,4.77,1.44,6.239c-0.1-1.5,0.32-3.52-0.48-4.319c-2.12-0.15-3.36,2.21-6.24,2.88
				c-4.56,1.05-10.04-0.76-13.92-0.49c0,0.96,0,1.92,0,2.88c7.07,1.601,15.14,1.54,20.16,0.01c0.23,2.311-2.77,1.38-2.88,3.36
				c2.81,5.34,10.729,8.15,16.79,8.64C214.11,203.65,216.58,180.521,220.66,166.33z M194.25,212.391c-0.52-2.36-2.9-2.86-4.8-3.841
				c-0.48,2.721-1.22,5.19-3.36,6.24c5.02-12.689,1.86-30.22,1.93-46.55c-4.69-4.98-14.38-5.91-16.79-12.97
				c-1.51-4.4-0.65-10.38-1.44-15.36c-2.19-13.88-7.73-27.44-15.34-36c-27.88,0.46-57.39-2.85-72.96,11.49
				c2.4,0.17,5.62-0.5,6.24,1.45c-1.5-0.65-4.42-0.85-5.28,0.47c-1.13,6.79-3.94,15.21-4.33,24c-0.32,7.229-1.15,15.939,4.79,18.72
				c-3.4-9.3-3.83-31.28,1.94-39.84c7.84-2.07,20.92-3.79,25.43,2.41c2.81,3.85,2.62,11.59,3.36,17.76
				c0.79,6.61,2.35,13.48,1.43,19.2c-4.76,1.96-10.57,2.87-15.84,4.32c4.08,3.689,0.87,8.439,0.96,14.39
				c-0.79,2.189-4.98,5.78-3.85,6.72c15.42,1.55,16.07,17.86,19.67,31.21c4.75-0.21,7.79-2.14,12.96-1.92
				c-1.96-12.109-7.16-23.55-6.23-36.96c-0.22,11.79,4.52,22.64,6.71,31.68c0.35,1.431-0.11,6.101,1.92,5.761
				c1.28-6.03-3.74-16.33-2.39-24c1.91,8.33,1.75,18.72,6.23,24.479c0.29-10.39,0.96-26.43,6.73-33.109
				c8.86-10.261,17.29,5.119,20.16,12c3.12,7.489,4.03,14.119,5.75,21.6C176.89,214.05,189.62,219.7,194.25,212.391z M159.2,233.5
				c9.3-1.38,8.47-12.63,6.73-22.08c-0.98-5.3-2.67-11.35-4.31-15.359c-2.02-4.92-7.42-15.63-12.48-15.841
				c-3.92-0.159-7.6,4.53-9.12,7.681c-3.73,7.72-4.07,21.97-3.37,30.71C141.6,224.811,148.979,235.021,159.2,233.5z M113.13,236.84
				c6.05-2.75,11.24-10.92,8.16-19.67c-1.87,0.21-3.8,0.36-5.28,0.96C116.229,225.54,116.229,232.75,113.13,236.84z M113.61,233.96
				c6.93-12.42-3.9-43.27-12.95-47.04c-11.59-0.91-19.51,5.87-19.2,15.36c0.22,6.57,4.82,11.03,7.67,15.84
				c-0.71,1.18-1.97,1.07-0.96,2.88c3.65,4.78,8.49,13,13.92,15.84C106.69,239.25,111.49,237.76,113.61,233.96z M114.59,157.65
				c-0.52-12.75-2.48-24.07-5.27-34.56c-6.43-3.59-17.88-4.96-24.95-1.45c-4.13,11.58-5.24,35.01,3.82,41.76
				C94.77,163.09,107.89,161.04,114.59,157.65z M99.71,173.01c1.59-3.189,0.6-7.479-2.4-8.64C94.05,166.47,99.44,169.9,99.71,173.01
				z M98.75,177.32c0.54-7.53-6.03-12.19-14.4-10.561c-6.2,5.83-1.54,19.65,6.24,17.761c6.94-1.69,3.4-16.08-2.88-16.801
				c8.92-0.42,9.54,13.98,4.31,18.24C95.38,184.351,98.49,180.98,98.75,177.32z M85.31,164.84c0.91-0.1,4.74,0.33,3.36-0.479
				c-1.6,0-3.2,0-4.8,0c0.42-0.851,1.52-1.4,0.48-2.4c-8.53-1.7-15.13-2.859-23.51-1.93c-10.43,1.17-21.41,8.53-30.24,6.71
				c-1.11,1.35-0.15,3.71-0.01,5.28c-0.65,1.25-1.23,2.47-1.44,3.84c-1.64,11.02,2.74,21.649,3.83,29.28
				c3.53,4.42,14.11,3.989,18.72,5.77c-5.48,1.35-13.99-0.95-19.68-3.37c-1.9,4.99,1.41,9.94,3.84,13.44
				c6.77,0.149,16.62,1.22,24.96,0.489c1.93-0.17,3.56-1.47,5.28-1.439c5.44,0.09,12.53,5.72,14.39-0.47
				c-0.6-4.2-5.47-4.13-7.19-7.21c2.54-0.341,2.35-3.41,3.36-5.271c0.36,2.601-0.76,3.71-0.48,6.23c2.61,1.71,4.55,4.09,6.71,6.25
				c4-0.971,0.86-5.04,0.01-7.681c-3.57-11-2.05-21.12,7.2-25.439C80.27,185.95,77.44,169.641,85.31,164.84z M84.81,230.12
				c1.72-1.83,1.91-6.31,0.48-8.64c-5.3,1.26-6.84,5.95-12.96,5.27c-3.05-0.34-5.51-3.34-9.12-1.92c-0.37,0.101-0.55,0.4-0.48,0.96
				c3.5,5.88,21.98,14.21,21.2-0.49C84.07,227.061,84.18,228.84,84.81,230.12z"/>
			<path d="M386.71,206.28c0.14,2.3,0.069,9.22,0,11.46C383.819,214.83,386.71,210.42,386.71,206.28z"/>
			<path d="M332.5,151c17.68-5.399,35.7,5.851,27.35,22.09c-8.32,0.78-20.01,5.04-25.439-0.97
				C330.069,167.33,332.95,159.37,332.5,151z M358.89,171.65c6.47-15.53-8.86-23.11-24.47-19.681
				c-2.061,5.25-1.8,13.921,0.47,18.711C339.96,175.22,353.439,173.66,358.89,171.65z"/>
			<path d="M353.59,222.53c-2.39,4.47-9.74-0.12-7.2-4.811C350.83,217.29,353.13,218.99,353.59,222.53z M352.149,222.53
				c0.41-3.45-2.01-4.08-4.8-4.33c-1.52,2.81,0.63,5.66,3.84,5.29C351.29,222.95,351.72,222.74,352.149,222.53z"/>
			<path d="M294.58,156.271c2.239,3.76,4.06,10.979,2.39,14.399c-3.12,6.4-34.07,8.521-44.64,7.19
				c-7.351-0.93-12.65-5.08-14.391-12.01c-3.14-12.48,7.181-20.721,19.681-20.631c2.18,0.021,4.939,1.301,7.68,1.44
				c6.439,0.34,12.7-0.82,17.28,0.49C288.17,148.74,293.47,154.41,294.58,156.271z M295.529,170.19
				c2.521-20.32-15.479-24.15-36.47-22.57c-1.3,8.19-3.3,22.33,1.43,28.32C272.7,176.47,287.54,175.47,295.529,170.19z
				 M252.819,168.26c0.48,3.86,1.841,8.99,5.271,8.16c-1.97-6.63-2.351-23.149-0.95-29.279c-3.27-0.62-3.97,4.46-4.32,7.68
				C252.439,158.311,252.319,164.23,252.819,168.26z M254.25,176.42c-4.29-7.27-2.03-20.67-1.91-29.279
				c-5.71,1.76-12.66,5.119-13.92,11.989C236.56,169.29,243.779,176.16,254.25,176.42z"/>
			<path d="M247.04,211.931c1.93,1.88,8.31,1.399,7.68,7.199C250.22,218.94,246.45,215.63,247.04,211.931z M253.279,218.17
				c0.62-1.899-1.79-4.479-4.8-4.319C247.489,216.13,250.859,217.75,253.279,218.17z"/>
			<path d="M162.11,148.07c1.65,8.13,3.13,14.05-3.84,15.84c-2.81,0.71-8.33-0.45-12-0.97c-6.17-0.88-13.15-1.08-15.36-4.8
				c-2.57-4.341-3.03-13.76-3.35-20.161c-0.3-5.88,0.17-12.13,0.48-17.76c6.7,1.34,20.91-8.88,26.88-2.39
				C160.59,123.99,159.979,137.57,162.11,148.07z M162.11,159.11c-1.2-13.36-1.95-31.32-8.63-40.8c-9.27-2.92-15.77,2.77-24.96,2.87
				c1.11,12.08-1.82,33.04,5.27,37.92c1.87,1.29,8,1.27,12,1.92C153.12,162.22,160.05,164.891,162.11,159.11z"/>
			<path d="M146.74,199.9c1.7,2.13,5.84,1.64,5.75,6.24c-0.15,8.3-10.34,3.609-8.63-5.28c1.06-0.86,1.95-1.891,4.32-1.44
				C148.39,199.75,146.92,200.13,146.74,199.9z M150.09,209.021c1.32-1.37,1.32-5.351,0-6.721c-1.4-0.52-2.76-1.08-4.79-0.96
				C143.72,205.08,146.39,210.521,150.09,209.021z"/>
			<path d="M125.65,115.9c-2.94,1.71-6.84,2.44-9.61,4.32c0.02,1.96,0.15,11.44-0.48,6.71c-0.21-2.34-0.98-4.13-0.96-6.72
				c-2.36-0.29-4.52-0.77-7.02-0.92C113.59,119.18,119.35,117.12,125.65,115.9z"/>
			<path d="M118.43,164.851c0.89,1.35,1.48,3,1.92,4.8c-2.41,1.55-6.05,2.37-9.12,1.92c-0.36-1.41-1.16-2.36-1.92-3.36
				C110.66,165.4,116.72,167.3,118.43,164.851z M119.39,169.17c0.09-3.29-7.96-2.33-8.16,0
				C112.76,171.22,117.35,169.641,119.39,169.17z"/>
			<path d="M107.58,119.29c-0.69,0.01-1.39,0-2.09-0.04C106.22,119.23,106.91,119.25,107.58,119.29z"/>
			<path d="M94.42,209c-0.29-7.609,10.07-0.149,7.67,6.72c-0.47,1.36-3.28,4.2-5.27,2.4c6.17-0.1,5.08-10.49,0.48-11.52
				C95.35,206.12,94.79,209.49,94.42,209z"/>
			<path d="M95.85,216.681c0.59,0.21,0.99,0.609,0.96,1.43C96.46,217.79,96.13,217.32,95.85,216.681z"/>
			<path d="M76.19,174.44c-0.1,3.899-2.7,5.3-4.32,7.68c1.39,4.68,1.82,10.33,3.83,14.4c-2.68-1.801-3.26-9.851-5.27-13.931
				c1.23-2.76,3.98-4.01,4.8-7.189c-3.49-2.04-8.38,1.2-9.12,1.91C64.2,174.21,73.06,172.07,76.19,174.44z"/>
		</g>
	</g>
</g>
<g id="Layer_2_x23_008FD4">
	<g>
		<g>
			<path fill="none" d="M397.76,196.62c3.45,2.79,7.05,7.44,5.75,13.44c-5.06,1.979-7.79,6.3-11.04,10.08
				c-9.4,0.439-16.94-0.98-25.44-1.45c0.23,2.479,1.5,4.05,1.44,6.24c-0.36,13.6-21.76,20.39-30.72,9.109
				c-8.94-0.34-13.771-4.8-15.36-12.479c-19.45,0.399-34.47-3.62-53.75-3.38c3.6,18.88-21.439,17.439-28.32,9.109
				c-7.68,1.37-17.22-1.8-17.76-10.57c-8.58-1.819-15.15-5.649-19.67-11.52c-4.2,0.35-6.27-1.41-10.56-0.97
				c13.51,11.739-7.82,19.37-20.64,14.88c0.23,10.57-4.74,21.84-16.81,19.189c-2.16-0.479-6.17-3.59-8.16-5.279
				c-4.97-4.261-9.03-11-11.99-14.891c-3.56,0.04-7.15,0.11-10.08-0.479c-0.15,11.22-3.81,18.91-11.53,22.55
				c-14.2,1.08-18.37-7.87-24.47-14.88c-1.77,19.59-25,8.56-30.24-0.49c-8.7-0.76-21.88,0.57-27.35-4.81
				c-1.16-4.471-2.19-10.28,0-14.4c-4.93-10.03-6.38-28.1-2.38-40.32c15.6-2.31,28.91-10.939,47.52-7.18
				c-0.55-12.79-0.2-28.19,4.33-37.44c-4.21-7.64,4.38-11.76,10.56-13.91c0.34-0.12,0.92-0.47,0.96-0.48
				c8.63-1.88,18.52-5.75,29.76-6.71c4.6-0.39,10.35,0.24,15.84,0.48c9.5,0.43,16.9-0.1,21.12,5.29c6.07,7.76,8.99,18.89,11.51,28.8
				c1.54,6.07,1.66,13.14,2.87,20.16c6.01,3.75,10.8,8.72,16.79,12.489c-0.47,9.21,0.87,21.9,2.39,29.271
				c1.93,0.96,4.36,1.41,7.2,1.45c0.98-35.21,18.31-58.17,34.11-80.15c5.25-0.02,7.75-2.8,12.96-2.87
				c-3.54-8.14-10.56-12.81-11.04-24c3.51-4.57,10.78-2.84,15.84-5.28c-1.34-8.28-3.79-24.46,6.25-26.39
				c-4.97-6.07-11.439-10.64-17.75-15.37c0.761-2.92,2.82-4.54,4.32-6.72c8.62,5.47,13.58,14.58,22.07,20.17
				c6.59,0.13,10.43,0.48,15.84,0.01c0.38-1.25-0.25-5.03,0-7.68c7.91-8.87,18.5,0.9,19.68,10.08
				c20.54-15.83,41.22,6.26,40.311,28.81c5.43,1.92,13.46,1.26,17.75,4.33c0.33,6.96-1.66,15.57-3.36,22.08
				c3.46,2.61,8.66,3.49,12.95,5.28c3.84,5.6,5.68,13.2,8.16,20.16c2.939-5.62,2.119-20.64,10.08-19.67
				c5.05,0.61,5.71,13.36,6.229,21.12c1.33,19.58-0.91,39.86-2.41,57.11C393.989,198.29,395.37,196.95,397.76,196.62z M401.59,206.7
				c0.08-2.79-3.05-6.03-7.67-6.24c-2.26,1.101-2.7,4.021-5.29,4.8c-1.601-1.109-5.24-0.199-5.75-2.399
				c-0.68-18.87-0.84-38.63-5.75-55.68c-1.57-5.471-5.141-20.581-8.63-24c-5.84-5.74-20.37-4.72-30.71-7.21
				c-16.38-3.94-32.37-4.45-47.04-3.86c0.29-1.5,3.85-1.66,7.2-1.43c-0.53-5.91-0.29-12.83-0.95-19.68
				c-11.261,1.02-22.86-1.45-33.12-2.41c-9.44-0.89-20.101-0.76-26.4,4.31c1.641,5.15,3.84,10.72,6.721,14.4
				c1.56,1.99,4.51,5.07,6.72,6.24c11.229,5.97,26.569-4.83,39.35-1.91c-0.5,2.65-2.71,0.8-4.319,0.96
				c-8.82,0.9-17.801,4.43-26.4,4.31c-9.74-0.13-16.2,1.74-21.12,6.24c-5.91,7.62-8.5,16.62-12.49,30.23
				c-5.31,18.13-13.01,45.29-0.97,59.51c3.09,0.36,5.42,3.74,9.11,1.931c2.939-5.45,3.18-11.841,8.17-14.4
				c11.29-5.8,23.05,5.91,25.91,15.37c20.359,1.33,47.069,4.16,67.67,2.42c-0.5-9.53,11.96-16.18,21.13-12.47
				c4.18,1.689,5.38,7.18,7.67,10.56c8.26,2.101,17.32,3.13,26.88,1.93c2.42-0.85,1.07-3.5,3.36-5.76
				C397.6,209.771,401.479,210.521,401.59,206.7z M389.12,192.3c1.529-16.85,3.97-39.34,2.899-56.629
				c-0.28-4.55-1.17-13.15-4.8-13.45c-3.34-0.27-5.5,6.88-6.24,9.6c-4.5,16.62,1.69,25.439,2.86,43.2
				c0.41,6.189,0.229,12.149,0.479,17.76c0.141,3.189-1.159,8.16,1.91,10.08C390.38,201.141,388.779,196,389.12,192.3z
				 M354.55,237.41c7.1-2,9.91-11.52,8.64-20.64c-0.14-1.69-1.3,1.689-1.439,0c-0.061-6.34-4.011-8.79-10.07-9.12
				c1.61-0.15,3.271-0.24,4.32-0.96c-7.721-1.641-14.141,1.67-17.761,6.71c-1.369,8.16-0.27,12.37,2.391,18.24
				C345.91,234.23,348.239,239.181,354.55,237.41z M352.67,116.45c3.649-5.79,5.17-13.7,5.28-23.03
				c-16.311-4.65-40.57-1.4-58.07-2.42c-0.09,7.21-0.13,15.54,1.43,19.68C321.739,108.39,334.25,115.15,352.67,116.45z
				 M338.279,89.57c5.36-9.25-2.93-15.89-9.6-17.76c4.36,0.12,6.29,2.68,9.6,3.84c-1.67-17.09-24.46-26.71-36.949-12.49
				c0.05,3.26-0.83,5.57-0.49,9.12c7.08-1.78,18.2-6.83,25.92-1.91c-9.41-1.2-18.98,0.55-26.4,3.83
				c0.341,5.46-0.489,9.75-0.479,14.88C313.069,89.91,324.35,89.75,338.279,89.57z M338.229,231.16
				c-0.91-3.72-1.67-7.61-2.399-11.52c-4.03-0.19-7.521,0.159-11.04,0.479C325.81,227.26,328.8,232.431,338.229,231.16z
				 M298.439,89.08c1.65-9.68,0.851-19.16,1.931-26.88C297.2,68.4,296.75,82.46,298.439,89.08z M300.35,109.72
				c-1.61-6.17-1.24-11.4-1.43-18.72C297.75,95.02,297.66,109.59,300.35,109.72z M298.93,60.76c2.57-8.79-9.43-16.25-14.88-8.64
				c-2.4,8.32,5.81,6.03,11.52,6.24C297.08,58.71,297.04,62.3,298.93,60.76z M296.52,89.08c0.65-7.42,0.5-19.38,0.97-27.36
				c-11.96-2.97-30.47-1.21-42.72,0.47c-2.47,6.58-0.42,17.53-0.49,24.95C270.35,87.52,286.45,90.31,296.52,89.08z M266.72,225.86
				c1.84-17.54-8.13-27.23-23.51-24.49c-2.181,2.63-6.45,5.7-5.29,10.08c0.319-0.65,1.03-0.9,1.92-0.96
				C230.75,228.41,257.71,238.431,266.72,225.86z M253.34,51.63c3.12,2.79,6.05,7.81,11.03,7.2
				c-7.771-5.19-12.631-13.28-20.15-18.73c-0.61,1.15-2.1,1.42-1.92,3.36C246.16,45.78,249.859,48.52,253.34,51.63z M238.399,225.37
				c-0.68-1.82-2.31-6.58-2.399-10.56c-2.061,3.779-7.2,0.31-11.04,1.43C225.22,223.561,230.899,226.74,238.399,225.37z
				 M220.66,166.33c4.949-17.25,9.489-33.38,15.85-46.07c-11.48,8.82-18.29,21.8-24.49,36.94c-5.36,13.13-10.8,23.4-9.61,40.8
				c3.41,0.05,4.08-2.64,6.72-3.359c1.85,0.409,3.71,4.77,1.44,6.239c-0.1-1.5,0.32-3.52-0.48-4.319c-2.12-0.15-3.36,2.21-6.24,2.88
				c-4.56,1.05-10.04-0.76-13.92-0.49c0,0.96,0,1.92,0,2.88c7.07,1.601,15.14,1.54,20.16,0.01c0.23,2.311-2.77,1.38-2.88,3.36
				c2.81,5.34,10.729,8.15,16.79,8.64C214.11,203.65,216.58,180.521,220.66,166.33z M194.25,212.391c-0.52-2.36-2.9-2.86-4.8-3.841
				c-0.48,2.721-1.22,5.19-3.36,6.24c5.02-12.689,1.86-30.22,1.93-46.55c-4.69-4.98-14.38-5.91-16.79-12.97
				c-1.51-4.4-0.65-10.38-1.44-15.36c-2.19-13.88-7.73-27.44-15.34-36c-27.88,0.46-57.39-2.85-72.96,11.49
				c2.4,0.17,5.62-0.5,6.24,1.45c-1.5-0.65-4.42-0.85-5.28,0.47c-1.13,6.79-3.94,15.21-4.33,24c-0.32,7.229-1.15,15.939,4.79,18.72
				c-3.4-9.3-3.83-31.28,1.94-39.84c7.84-2.07,20.92-3.79,25.43,2.41c2.81,3.85,2.62,11.59,3.36,17.76
				c0.79,6.61,2.35,13.48,1.43,19.2c-4.76,1.96-10.57,2.87-15.84,4.32c4.08,3.689,0.87,8.439,0.96,14.39
				c-0.79,2.189-4.98,5.78-3.85,6.72c15.42,1.55,16.07,17.86,19.67,31.21c4.75-0.21,7.79-2.14,12.96-1.92
				c-1.96-12.109-7.16-23.55-6.23-36.96c-0.22,11.79,4.52,22.64,6.71,31.68c0.35,1.431-0.11,6.101,1.92,5.761
				c1.28-6.03-3.74-16.33-2.39-24c1.91,8.33,1.75,18.72,6.23,24.479c0.29-10.39,0.96-26.43,6.73-33.109
				c8.86-10.261,17.29,5.119,20.16,12c3.12,7.489,4.03,14.119,5.75,21.6C176.89,214.05,189.62,219.7,194.25,212.391z M159.2,233.5
				c9.3-1.38,8.47-12.63,6.73-22.08c-0.98-5.3-2.67-11.35-4.31-15.359c-2.02-4.92-7.42-15.63-12.48-15.841
				c-3.92-0.159-7.6,4.53-9.12,7.681c-3.73,7.72-4.07,21.97-3.37,30.71C141.6,224.811,148.979,235.021,159.2,233.5z M113.13,236.84
				c6.05-2.75,11.24-10.92,8.16-19.67c-1.87,0.21-3.8,0.36-5.28,0.96C116.229,225.54,116.229,232.75,113.13,236.84z M113.61,233.96
				c6.93-12.42-3.9-43.27-12.95-47.04c-11.59-0.91-19.51,5.87-19.2,15.36c0.22,6.57,4.82,11.03,7.67,15.84
				c-0.71,1.18-1.97,1.07-0.96,2.88c3.65,4.78,8.49,13,13.92,15.84C106.69,239.25,111.49,237.76,113.61,233.96z M114.59,157.65
				c-0.52-12.75-2.48-24.07-5.27-34.56c-6.43-3.59-17.88-4.96-24.95-1.45c-4.13,11.58-5.24,35.01,3.82,41.76
				C94.77,163.09,107.89,161.04,114.59,157.65z M99.71,173.01c1.59-3.189,0.6-7.479-2.4-8.64C94.05,166.47,99.44,169.9,99.71,173.01
				z M98.75,177.32c0.54-7.53-6.03-12.19-14.4-10.561c-6.2,5.83-1.54,19.65,6.24,17.761c6.94-1.69,3.4-16.08-2.88-16.801
				c8.92-0.42,9.54,13.98,4.31,18.24C95.38,184.351,98.49,180.98,98.75,177.32z M85.31,164.84c0.91-0.1,4.74,0.33,3.36-0.479
				c-1.6,0-3.2,0-4.8,0c0.42-0.851,1.52-1.4,0.48-2.4c-8.53-1.7-15.13-2.859-23.51-1.93c-10.43,1.17-21.41,8.53-30.24,6.71
				c-1.11,1.35-0.15,3.71-0.01,5.28c-0.65,1.25-1.23,2.47-1.44,3.84c-1.64,11.02,2.74,21.649,3.83,29.28
				c3.53,4.42,14.11,3.989,18.72,5.77c-5.48,1.35-13.99-0.95-19.68-3.37c-1.9,4.99,1.41,9.94,3.84,13.44
				c6.77,0.149,16.62,1.22,24.96,0.489c1.93-0.17,3.56-1.47,5.28-1.439c5.44,0.09,12.53,5.72,14.39-0.47
				c-0.6-4.2-5.47-4.13-7.19-7.21c2.54-0.341,2.35-3.41,3.36-5.271c0.36,2.601-0.76,3.71-0.48,6.23c2.61,1.71,4.55,4.09,6.71,6.25
				c4-0.971,0.86-5.04,0.01-7.681c-3.57-11-2.05-21.12,7.2-25.439C80.27,185.95,77.44,169.641,85.31,164.84z M84.81,230.12
				c1.72-1.83,1.91-6.31,0.48-8.64c-5.3,1.26-6.84,5.95-12.96,5.27c-3.05-0.34-5.51-3.34-9.12-1.92c-0.37,0.101-0.55,0.4-0.48,0.96
				c3.5,5.88,21.98,14.21,21.2-0.49C84.07,227.061,84.18,228.84,84.81,230.12z"/>
			<path fill="#008FD5" d="M392.02,135.67c1.07,17.29-1.37,39.78-2.899,56.629c-0.341,3.7,1.26,8.841-2.891,10.561
				c-3.069-1.92-1.77-6.891-1.91-10.08c-0.25-5.61-0.069-11.57-0.479-17.76c-1.17-17.761-7.36-26.58-2.86-43.2
				c0.74-2.72,2.9-9.87,6.24-9.6C390.85,122.52,391.739,131.12,392.02,135.67z"/>
			<path fill="#008FD5" d="M264.37,58.83c-4.98,0.61-7.91-4.41-11.03-7.2c-3.48-3.11-7.18-5.85-11.04-8.17
				c-0.18-1.94,1.31-2.21,1.92-3.36C251.739,45.55,256.6,53.64,264.37,58.83z"/>
			<path fill="#008FD5" d="M328.68,71.81c6.67,1.87,14.96,8.51,9.6,17.76c-13.93,0.18-25.21,0.34-38.399-0.49
				c-0.01-5.13,0.82-9.42,0.479-14.88c7.42-3.28,16.99-5.03,26.4-3.83c-7.72-4.92-18.84,0.13-25.92,1.91
				c-0.34-3.55,0.54-5.86,0.49-9.12c12.489-14.22,35.279-4.6,36.949,12.49C334.97,74.49,333.04,71.93,328.68,71.81z"/>
			<path fill="#008FD5" d="M111.229,169.17c0.2-2.33,8.25-3.29,8.16,0C117.35,169.641,112.76,171.22,111.229,169.17z"/>
			<path fill="#008FD5" d="M97.31,164.37c3,1.16,3.99,5.45,2.4,8.64C99.44,169.9,94.05,166.47,97.31,164.37z"/>
			<path fill="#008FD5" d="M84.35,166.76c8.37-1.63,14.94,3.03,14.4,10.561c-0.26,3.66-3.37,7.03-6.73,8.64
				c5.23-4.26,4.61-18.66-4.31-18.24c6.28,0.721,9.82,15.11,2.88,16.801C82.81,186.41,78.15,172.59,84.35,166.76z"/>
			<path fill="#008FD5" d="M88.67,164.36c1.38,0.81-2.45,0.38-3.36,0.479c-7.87,4.801-5.04,21.11,4.79,21.601
				c-9.25,4.319-10.77,14.439-7.2,25.439c0.85,2.641,3.99,6.71-0.01,7.681c-2.16-2.16-4.1-4.54-6.71-6.25
				c-0.28-2.521,0.84-3.63,0.48-6.23c-1.01,1.86-0.82,4.93-3.36,5.271c1.72,3.08,6.59,3.01,7.19,7.21
				c-1.86,6.189-8.95,0.56-14.39,0.47c-1.72-0.03-3.35,1.27-5.28,1.439c-8.34,0.73-18.19-0.34-24.96-0.489
				c-2.43-3.5-5.74-8.45-3.84-13.44c5.69,2.42,14.2,4.72,19.68,3.37c-4.61-1.78-15.19-1.35-18.72-5.77
				c-1.09-7.631-5.47-18.261-3.83-29.28c0.21-1.37,0.79-2.59,1.44-3.84c-0.14-1.57-1.1-3.931,0.01-5.28
				c8.83,1.82,19.81-5.54,30.24-6.71c8.38-0.93,14.98,0.229,23.51,1.93c1.04,1-0.06,1.55-0.48,2.4
				C85.47,164.36,87.07,164.36,88.67,164.36z M71.87,182.12c1.62-2.38,4.22-3.78,4.32-7.68c-3.13-2.37-11.99-0.23-10.08,2.87
				c0.74-0.71,5.63-3.95,9.12-1.91c-0.82,3.18-3.57,4.43-4.8,7.189c2.01,4.08,2.59,12.13,5.27,13.931
				C73.69,192.45,73.26,186.8,71.87,182.12z"/>
			<path fill="#008FD5" d="M189.45,208.55c1.9,0.98,4.28,1.48,4.8,3.841c-4.63,7.31-17.36,1.659-26.4,3.35
				c-1.72-7.48-2.63-14.11-5.75-21.6c-2.87-6.881-11.3-22.261-20.16-12c-5.77,6.68-6.44,22.72-6.73,33.109
				c-4.48-5.76-4.32-16.149-6.23-24.479c-1.35,7.67,3.67,17.97,2.39,24c-2.03,0.34-1.57-4.33-1.92-5.761
				c-2.19-9.04-6.93-19.89-6.71-31.68c-0.93,13.41,4.27,24.851,6.23,36.96c-5.17-0.22-8.21,1.71-12.96,1.92
				c-3.6-13.35-4.25-29.66-19.67-31.21c-1.13-0.939,3.06-4.53,3.85-6.72c-0.09-5.95,3.12-10.7-0.96-14.39
				c5.27-1.45,11.08-2.36,15.84-4.32c0.92-5.72-0.64-12.59-1.43-19.2c-0.74-6.17-0.55-13.91-3.36-17.76
				c-4.51-6.2-17.59-4.48-25.43-2.41c-5.77,8.56-5.34,30.54-1.94,39.84c-5.94-2.78-5.11-11.49-4.79-18.72
				c0.39-8.79,3.2-17.21,4.33-24c0.86-1.32,3.78-1.12,5.28-0.47c-0.62-1.95-3.84-1.28-6.24-1.45
				c15.57-14.34,45.08-11.03,72.96-11.49c7.61,8.56,13.15,22.12,15.34,36c0.79,4.98-0.07,10.96,1.44,15.36
				c2.41,7.06,12.1,7.989,16.79,12.97c-0.07,16.33,3.09,33.86-1.93,46.55C188.229,213.74,188.97,211.271,189.45,208.55z
				 M158.27,163.91c6.97-1.79,5.49-7.71,3.84-15.84c-2.13-10.5-1.52-24.08-7.19-30.24c-5.97-6.49-20.18,3.73-26.88,2.39
				c-0.31,5.63-0.78,11.88-0.48,17.76c0.32,6.4,0.78,15.82,3.35,20.161c2.21,3.72,9.19,3.92,15.36,4.8
				C149.94,163.46,155.46,164.62,158.27,163.91z M116.04,120.22c2.77-1.88,6.67-2.61,9.61-4.32c-6.3,1.22-12.06,3.28-18.07,3.39
				c-0.67-0.04-1.36-0.06-2.09-0.04c0.7,0.04,1.4,0.05,2.09,0.04c2.5,0.15,4.66,0.63,7.02,0.92c-0.02,2.59,0.75,4.38,0.96,6.72
				C116.19,131.66,116.06,122.18,116.04,120.22z M120.35,169.65c-0.44-1.8-1.03-3.45-1.92-4.8c-1.71,2.449-7.77,0.55-9.12,3.359
				c0.76,1,1.56,1.95,1.92,3.36C114.3,172.021,117.94,171.2,120.35,169.65z"/>
		</g>
	</g>
</g>
<g id="Layer_3_x23_ED1C24">
	<g>
		<g>
			<path fill="none" d="M397.76,196.62c3.45,2.79,7.05,7.44,5.75,13.44c-5.06,1.979-7.79,6.3-11.04,10.08
				c-9.4,0.439-16.94-0.98-25.44-1.45c0.23,2.479,1.5,4.05,1.44,6.24c-0.36,13.6-21.76,20.39-30.72,9.109
				c-8.94-0.34-13.771-4.8-15.36-12.479c-19.45,0.399-34.47-3.62-53.75-3.38c3.6,18.88-21.439,17.439-28.32,9.109
				c-7.68,1.37-17.22-1.8-17.76-10.57c-8.58-1.819-15.15-5.649-19.67-11.52c-4.2,0.35-6.27-1.41-10.56-0.97
				c13.51,11.739-7.82,19.37-20.64,14.88c0.23,10.57-4.74,21.84-16.81,19.189c-2.16-0.479-6.17-3.59-8.16-5.279
				c-4.97-4.261-9.03-11-11.99-14.891c-3.56,0.04-7.15,0.11-10.08-0.479c-0.15,11.22-3.81,18.91-11.53,22.55
				c-14.2,1.08-18.37-7.87-24.47-14.88c-1.77,19.59-25,8.56-30.24-0.49c-8.7-0.76-21.88,0.57-27.35-4.81
				c-1.16-4.471-2.19-10.28,0-14.4c-4.93-10.03-6.38-28.1-2.38-40.32c15.6-2.31,28.91-10.939,47.52-7.18
				c-0.55-12.79-0.2-28.19,4.33-37.44c-4.21-7.64,4.38-11.76,10.56-13.91c0.34-0.12,0.92-0.47,0.96-0.48
				c8.63-1.88,18.52-5.75,29.76-6.71c4.6-0.39,10.35,0.24,15.84,0.48c9.5,0.43,16.9-0.1,21.12,5.29c6.07,7.76,8.99,18.89,11.51,28.8
				c1.54,6.07,1.66,13.14,2.87,20.16c6.01,3.75,10.8,8.72,16.79,12.489c-0.47,9.21,0.87,21.9,2.39,29.271
				c1.93,0.96,4.36,1.41,7.2,1.45c0.98-35.21,18.31-58.17,34.11-80.15c5.25-0.02,7.75-2.8,12.96-2.87
				c-3.54-8.14-10.56-12.81-11.04-24c3.51-4.57,10.78-2.84,15.84-5.28c-1.34-8.28-3.79-24.46,6.25-26.39
				c-4.97-6.07-11.439-10.64-17.75-15.37c0.761-2.92,2.82-4.54,4.32-6.72c8.62,5.47,13.58,14.58,22.07,20.17
				c6.59,0.13,10.43,0.48,15.84,0.01c0.38-1.25-0.25-5.03,0-7.68c7.91-8.87,18.5,0.9,19.68,10.08
				c20.54-15.83,41.22,6.26,40.311,28.81c5.43,1.92,13.46,1.26,17.75,4.33c0.33,6.96-1.66,15.57-3.36,22.08
				c3.46,2.61,8.66,3.49,12.95,5.28c3.84,5.6,5.68,13.2,8.16,20.16c2.939-5.62,2.119-20.64,10.08-19.67
				c5.05,0.61,5.71,13.36,6.229,21.12c1.33,19.58-0.91,39.86-2.41,57.11C393.989,198.29,395.37,196.95,397.76,196.62z M401.59,206.7
				c0.08-2.79-3.05-6.03-7.67-6.24c-2.26,1.101-2.7,4.021-5.29,4.8c-1.601-1.109-5.24-0.199-5.75-2.399
				c-0.68-18.87-0.84-38.63-5.75-55.68c-1.57-5.471-5.141-20.581-8.63-24c-5.84-5.74-20.37-4.72-30.71-7.21
				c-16.38-3.94-32.37-4.45-47.04-3.86c0.29-1.5,3.85-1.66,7.2-1.43c-0.53-5.91-0.29-12.83-0.95-19.68
				c-11.261,1.02-22.86-1.45-33.12-2.41c-9.44-0.89-20.101-0.76-26.4,4.31c1.641,5.15,3.84,10.72,6.721,14.4
				c1.56,1.99,4.51,5.07,6.72,6.24c11.229,5.97,26.569-4.83,39.35-1.91c-0.5,2.65-2.71,0.8-4.319,0.96
				c-8.82,0.9-17.801,4.43-26.4,4.31c-9.74-0.13-16.2,1.74-21.12,6.24c-5.91,7.62-8.5,16.62-12.49,30.23
				c-5.31,18.13-13.01,45.29-0.97,59.51c3.09,0.36,5.42,3.74,9.11,1.931c2.939-5.45,3.18-11.841,8.17-14.4
				c11.29-5.8,23.05,5.91,25.91,15.37c20.359,1.33,47.069,4.16,67.67,2.42c-0.5-9.53,11.96-16.18,21.13-12.47
				c4.18,1.689,5.38,7.18,7.67,10.56c8.26,2.101,17.32,3.13,26.88,1.93c2.42-0.85,1.07-3.5,3.36-5.76
				C397.6,209.771,401.479,210.521,401.59,206.7z M389.12,192.3c1.529-16.85,3.97-39.34,2.899-56.629
				c-0.28-4.55-1.17-13.15-4.8-13.45c-3.34-0.27-5.5,6.88-6.24,9.6c-4.5,16.62,1.69,25.439,2.86,43.2
				c0.41,6.189,0.229,12.149,0.479,17.76c0.141,3.189-1.159,8.16,1.91,10.08C390.38,201.141,388.779,196,389.12,192.3z
				 M354.55,237.41c7.1-2,9.91-11.52,8.64-20.64c-0.14-1.69-1.3,1.689-1.439,0c-0.061-6.34-4.011-8.79-10.07-9.12
				c1.61-0.15,3.271-0.24,4.32-0.96c-7.721-1.641-14.141,1.67-17.761,6.71c-1.369,8.16-0.27,12.37,2.391,18.24
				C345.91,234.23,348.239,239.181,354.55,237.41z M352.67,116.45c3.649-5.79,5.17-13.7,5.28-23.03
				c-16.311-4.65-40.57-1.4-58.07-2.42c-0.09,7.21-0.13,15.54,1.43,19.68C321.739,108.39,334.25,115.15,352.67,116.45z
				 M338.279,89.57c5.36-9.25-2.93-15.89-9.6-17.76c4.36,0.12,6.29,2.68,9.6,3.84c-1.67-17.09-24.46-26.71-36.949-12.49
				c0.05,3.26-0.83,5.57-0.49,9.12c7.08-1.78,18.2-6.83,25.92-1.91c-9.41-1.2-18.98,0.55-26.4,3.83
				c0.341,5.46-0.489,9.75-0.479,14.88C313.069,89.91,324.35,89.75,338.279,89.57z M338.229,231.16
				c-0.91-3.72-1.67-7.61-2.399-11.52c-4.03-0.19-7.521,0.159-11.04,0.479C325.81,227.26,328.8,232.431,338.229,231.16z
				 M298.439,89.08c1.65-9.68,0.851-19.16,1.931-26.88C297.2,68.4,296.75,82.46,298.439,89.08z M300.35,109.72
				c-1.61-6.17-1.24-11.4-1.43-18.72C297.75,95.02,297.66,109.59,300.35,109.72z M298.93,60.76c2.57-8.79-9.43-16.25-14.88-8.64
				c-2.4,8.32,5.81,6.03,11.52,6.24C297.08,58.71,297.04,62.3,298.93,60.76z M296.52,89.08c0.65-7.42,0.5-19.38,0.97-27.36
				c-11.96-2.97-30.47-1.21-42.72,0.47c-2.47,6.58-0.42,17.53-0.49,24.95C270.35,87.52,286.45,90.31,296.52,89.08z M266.72,225.86
				c1.84-17.54-8.13-27.23-23.51-24.49c-2.181,2.63-6.45,5.7-5.29,10.08c0.319-0.65,1.03-0.9,1.92-0.96
				C230.75,228.41,257.71,238.431,266.72,225.86z M253.34,51.63c3.12,2.79,6.05,7.81,11.03,7.2
				c-7.771-5.19-12.631-13.28-20.15-18.73c-0.61,1.15-2.1,1.42-1.92,3.36C246.16,45.78,249.859,48.52,253.34,51.63z M238.399,225.37
				c-0.68-1.82-2.31-6.58-2.399-10.56c-2.061,3.779-7.2,0.31-11.04,1.43C225.22,223.561,230.899,226.74,238.399,225.37z
				 M220.66,166.33c4.949-17.25,9.489-33.38,15.85-46.07c-11.48,8.82-18.29,21.8-24.49,36.94c-5.36,13.13-10.8,23.4-9.61,40.8
				c3.41,0.05,4.08-2.64,6.72-3.359c1.85,0.409,3.71,4.77,1.44,6.239c-0.1-1.5,0.32-3.52-0.48-4.319c-2.12-0.15-3.36,2.21-6.24,2.88
				c-4.56,1.05-10.04-0.76-13.92-0.49c0,0.96,0,1.92,0,2.88c7.07,1.601,15.14,1.54,20.16,0.01c0.23,2.311-2.77,1.38-2.88,3.36
				c2.81,5.34,10.729,8.15,16.79,8.64C214.11,203.65,216.58,180.521,220.66,166.33z M194.25,212.391c-0.52-2.36-2.9-2.86-4.8-3.841
				c-0.48,2.721-1.22,5.19-3.36,6.24c5.02-12.689,1.86-30.22,1.93-46.55c-4.69-4.98-14.38-5.91-16.79-12.97
				c-1.51-4.4-0.65-10.38-1.44-15.36c-2.19-13.88-7.73-27.44-15.34-36c-27.88,0.46-57.39-2.85-72.96,11.49
				c2.4,0.17,5.62-0.5,6.24,1.45c-1.5-0.65-4.42-0.85-5.28,0.47c-1.13,6.79-3.94,15.21-4.33,24c-0.32,7.229-1.15,15.939,4.79,18.72
				c-3.4-9.3-3.83-31.28,1.94-39.84c7.84-2.07,20.92-3.79,25.43,2.41c2.81,3.85,2.62,11.59,3.36,17.76
				c0.79,6.61,2.35,13.48,1.43,19.2c-4.76,1.96-10.57,2.87-15.84,4.32c4.08,3.689,0.87,8.439,0.96,14.39
				c-0.79,2.189-4.98,5.78-3.85,6.72c15.42,1.55,16.07,17.86,19.67,31.21c4.75-0.21,7.79-2.14,12.96-1.92
				c-1.96-12.109-7.16-23.55-6.23-36.96c-0.22,11.79,4.52,22.64,6.71,31.68c0.35,1.431-0.11,6.101,1.92,5.761
				c1.28-6.03-3.74-16.33-2.39-24c1.91,8.33,1.75,18.72,6.23,24.479c0.29-10.39,0.96-26.43,6.73-33.109
				c8.86-10.261,17.29,5.119,20.16,12c3.12,7.489,4.03,14.119,5.75,21.6C176.89,214.05,189.62,219.7,194.25,212.391z M159.2,233.5
				c9.3-1.38,8.47-12.63,6.73-22.08c-0.98-5.3-2.67-11.35-4.31-15.359c-2.02-4.92-7.42-15.63-12.48-15.841
				c-3.92-0.159-7.6,4.53-9.12,7.681c-3.73,7.72-4.07,21.97-3.37,30.71C141.6,224.811,148.979,235.021,159.2,233.5z M113.13,236.84
				c6.05-2.75,11.24-10.92,8.16-19.67c-1.87,0.21-3.8,0.36-5.28,0.96C116.229,225.54,116.229,232.75,113.13,236.84z M113.61,233.96
				c6.93-12.42-3.9-43.27-12.95-47.04c-11.59-0.91-19.51,5.87-19.2,15.36c0.22,6.57,4.82,11.03,7.67,15.84
				c-0.71,1.18-1.97,1.07-0.96,2.88c3.65,4.78,8.49,13,13.92,15.84C106.69,239.25,111.49,237.76,113.61,233.96z M114.59,157.65
				c-0.52-12.75-2.48-24.07-5.27-34.56c-6.43-3.59-17.88-4.96-24.95-1.45c-4.13,11.58-5.24,35.01,3.82,41.76
				C94.77,163.09,107.89,161.04,114.59,157.65z M99.71,173.01c1.59-3.189,0.6-7.479-2.4-8.64C94.05,166.47,99.44,169.9,99.71,173.01
				z M98.75,177.32c0.54-7.53-6.03-12.19-14.4-10.561c-6.2,5.83-1.54,19.65,6.24,17.761c6.94-1.69,3.4-16.08-2.88-16.801
				c8.92-0.42,9.54,13.98,4.31,18.24C95.38,184.351,98.49,180.98,98.75,177.32z M85.31,164.84c0.91-0.1,4.74,0.33,3.36-0.479
				c-1.6,0-3.2,0-4.8,0c0.42-0.851,1.52-1.4,0.48-2.4c-8.53-1.7-15.13-2.859-23.51-1.93c-10.43,1.17-21.41,8.53-30.24,6.71
				c-1.11,1.35-0.15,3.71-0.01,5.28c-0.65,1.25-1.23,2.47-1.44,3.84c-1.64,11.02,2.74,21.649,3.83,29.28
				c3.53,4.42,14.11,3.989,18.72,5.77c-5.48,1.35-13.99-0.95-19.68-3.37c-1.9,4.99,1.41,9.94,3.84,13.44
				c6.77,0.149,16.62,1.22,24.96,0.489c1.93-0.17,3.56-1.47,5.28-1.439c5.44,0.09,12.53,5.72,14.39-0.47
				c-0.6-4.2-5.47-4.13-7.19-7.21c2.54-0.341,2.35-3.41,3.36-5.271c0.36,2.601-0.76,3.71-0.48,6.23c2.61,1.71,4.55,4.09,6.71,6.25
				c4-0.971,0.86-5.04,0.01-7.681c-3.57-11-2.05-21.12,7.2-25.439C80.27,185.95,77.44,169.641,85.31,164.84z M84.81,230.12
				c1.72-1.83,1.91-6.31,0.48-8.64c-5.3,1.26-6.84,5.95-12.96,5.27c-3.05-0.34-5.51-3.34-9.12-1.92c-0.37,0.101-0.55,0.4-0.48,0.96
				c3.5,5.88,21.98,14.21,21.2-0.49C84.07,227.061,84.18,228.84,84.81,230.12z"/>
			<path fill="#ED1C24" d="M298.92,91c0.189,7.32-0.181,12.55,1.43,18.72C297.66,109.59,297.75,95.02,298.92,91z"/>
			<path fill="#ED1C24" d="M258.09,176.42c-3.43,0.83-4.79-4.3-5.271-8.16c-0.5-4.029-0.38-9.949,0-13.439
				c0.351-3.22,1.051-8.3,4.32-7.68C255.739,153.271,256.12,169.79,258.09,176.42z"/>
			<path fill="#ED1C24" d="M357.95,93.42c-0.11,9.33-1.631,17.24-5.28,23.03c-18.42-1.3-30.931-8.06-51.36-5.77
				c-1.56-4.14-1.52-12.47-1.43-19.68C317.38,92.02,341.64,88.77,357.95,93.42z"/>
			<path fill="#ED1C24" d="M236.51,120.26c-6.36,12.69-10.9,28.82-15.85,46.07c-4.081,14.19-6.55,37.32,3.34,47.51
				c-6.061-0.489-13.98-3.3-16.79-8.64c0.11-1.98,3.11-1.05,2.88-3.36c-5.02,1.53-13.09,1.591-20.16-0.01c0-0.96,0-1.92,0-2.88
				c3.88-0.27,9.36,1.54,13.92,0.49c2.88-0.67,4.12-3.03,6.24-2.88c0.8,0.8,0.38,2.819,0.48,4.319c2.27-1.47,0.41-5.83-1.44-6.239
				c-2.64,0.72-3.31,3.409-6.72,3.359c-1.19-17.399,4.25-27.67,9.61-40.8C218.22,142.06,225.029,129.08,236.51,120.26z"/>
			<path fill="#ED1C24" d="M386.71,206.28c0,4.14-2.891,8.55,0,11.46C386.779,215.5,386.85,208.58,386.71,206.28z M393.92,200.46
				c4.62,0.21,7.75,3.45,7.67,6.24c-0.11,3.82-3.99,3.07-6.72,5.76c-2.29,2.26-0.94,4.91-3.36,5.76
				c-9.56,1.2-18.62,0.171-26.88-1.93c-2.29-3.38-3.49-8.87-7.67-10.56c-9.17-3.71-21.63,2.939-21.13,12.47
				c-20.601,1.74-47.311-1.09-67.67-2.42c-2.86-9.46-14.62-21.17-25.91-15.37c-4.99,2.56-5.23,8.95-8.17,14.4
				c-3.69,1.81-6.021-1.57-9.11-1.931c-12.04-14.22-4.34-41.38,0.97-59.51c3.99-13.61,6.58-22.61,12.49-30.23
				c4.92-4.5,11.38-6.37,21.12-6.24c8.6,0.12,17.58-3.41,26.4-4.31c1.609-0.16,3.819,1.69,4.319-0.96
				c-12.78-2.92-28.12,7.88-39.35,1.91c-2.21-1.17-5.16-4.25-6.72-6.24c-2.881-3.68-5.08-9.25-6.721-14.4
				c6.3-5.07,16.96-5.2,26.4-4.31c10.26,0.96,21.859,3.43,33.12,2.41c0.66,6.85,0.42,13.77,0.95,19.68
				c-3.351-0.23-6.91-0.07-7.2,1.43c14.67-0.59,30.66-0.08,47.04,3.86c10.34,2.49,24.87,1.47,30.71,7.21
				c3.489,3.42,7.06,18.53,8.63,24c4.91,17.05,5.07,36.81,5.75,55.68c0.51,2.2,4.149,1.29,5.75,2.399
				C391.22,204.48,391.66,201.561,393.92,200.46z M359.85,173.09c8.351-16.239-9.67-27.489-27.35-22.09
				c0.45,8.37-2.431,16.33,1.91,21.12C339.84,178.13,351.529,173.87,359.85,173.09z M296.97,170.67
				c1.67-3.42-0.15-10.64-2.39-14.399c-1.11-1.86-6.41-7.53-12-9.12c-4.58-1.311-10.841-0.15-17.28-0.49
				c-2.74-0.14-5.5-1.42-7.68-1.44c-12.5-0.09-22.82,8.15-19.681,20.631c1.74,6.93,7.04,11.08,14.391,12.01
				C262.899,179.19,293.85,177.07,296.97,170.67z"/>
		</g>
	</g>
</g>
<g id="Layer_4_x23_636466">
	<g>
		<g>
			<path fill="none" d="M397.76,196.62c3.45,2.79,7.05,7.44,5.75,13.44c-5.06,1.979-7.79,6.3-11.04,10.08
				c-9.4,0.439-16.94-0.98-25.44-1.45c0.23,2.479,1.5,4.05,1.44,6.24c-0.36,13.6-21.76,20.39-30.72,9.109
				c-8.94-0.34-13.771-4.8-15.36-12.479c-19.45,0.399-34.47-3.62-53.75-3.38c3.6,18.88-21.439,17.439-28.32,9.109
				c-7.68,1.37-17.22-1.8-17.76-10.57c-8.58-1.819-15.15-5.649-19.67-11.52c-4.2,0.35-6.27-1.41-10.56-0.97
				c13.51,11.739-7.82,19.37-20.64,14.88c0.23,10.57-4.74,21.84-16.81,19.189c-2.16-0.479-6.17-3.59-8.16-5.279
				c-4.97-4.261-9.03-11-11.99-14.891c-3.56,0.04-7.15,0.11-10.08-0.479c-0.15,11.22-3.81,18.91-11.53,22.55
				c-14.2,1.08-18.37-7.87-24.47-14.88c-1.77,19.59-25,8.56-30.24-0.49c-8.7-0.76-21.88,0.57-27.35-4.81
				c-1.16-4.471-2.19-10.28,0-14.4c-4.93-10.03-6.38-28.1-2.38-40.32c15.6-2.31,28.91-10.939,47.52-7.18
				c-0.55-12.79-0.2-28.19,4.33-37.44c-4.21-7.64,4.38-11.76,10.56-13.91c0.34-0.12,0.92-0.47,0.96-0.48
				c8.63-1.88,18.52-5.75,29.76-6.71c4.6-0.39,10.35,0.24,15.84,0.48c9.5,0.43,16.9-0.1,21.12,5.29c6.07,7.76,8.99,18.89,11.51,28.8
				c1.54,6.07,1.66,13.14,2.87,20.16c6.01,3.75,10.8,8.72,16.79,12.489c-0.47,9.21,0.87,21.9,2.39,29.271
				c1.93,0.96,4.36,1.41,7.2,1.45c0.98-35.21,18.31-58.17,34.11-80.15c5.25-0.02,7.75-2.8,12.96-2.87
				c-3.54-8.14-10.56-12.81-11.04-24c3.51-4.57,10.78-2.84,15.84-5.28c-1.34-8.28-3.79-24.46,6.25-26.39
				c-4.97-6.07-11.439-10.64-17.75-15.37c0.761-2.92,2.82-4.54,4.32-6.72c8.62,5.47,13.58,14.58,22.07,20.17
				c6.59,0.13,10.43,0.48,15.84,0.01c0.38-1.25-0.25-5.03,0-7.68c7.91-8.87,18.5,0.9,19.68,10.08
				c20.54-15.83,41.22,6.26,40.311,28.81c5.43,1.92,13.46,1.26,17.75,4.33c0.33,6.96-1.66,15.57-3.36,22.08
				c3.46,2.61,8.66,3.49,12.95,5.28c3.84,5.6,5.68,13.2,8.16,20.16c2.939-5.62,2.119-20.64,10.08-19.67
				c5.05,0.61,5.71,13.36,6.229,21.12c1.33,19.58-0.91,39.86-2.41,57.11C393.989,198.29,395.37,196.95,397.76,196.62z M401.59,206.7
				c0.08-2.79-3.05-6.03-7.67-6.24c-2.26,1.101-2.7,4.021-5.29,4.8c-1.601-1.109-5.24-0.199-5.75-2.399
				c-0.68-18.87-0.84-38.63-5.75-55.68c-1.57-5.471-5.141-20.581-8.63-24c-5.84-5.74-20.37-4.72-30.71-7.21
				c-16.38-3.94-32.37-4.45-47.04-3.86c0.29-1.5,3.85-1.66,7.2-1.43c-0.53-5.91-0.29-12.83-0.95-19.68
				c-11.261,1.02-22.86-1.45-33.12-2.41c-9.44-0.89-20.101-0.76-26.4,4.31c1.641,5.15,3.84,10.72,6.721,14.4
				c1.56,1.99,4.51,5.07,6.72,6.24c11.229,5.97,26.569-4.83,39.35-1.91c-0.5,2.65-2.71,0.8-4.319,0.96
				c-8.82,0.9-17.801,4.43-26.4,4.31c-9.74-0.13-16.2,1.74-21.12,6.24c-5.91,7.62-8.5,16.62-12.49,30.23
				c-5.31,18.13-13.01,45.29-0.97,59.51c3.09,0.36,5.42,3.74,9.11,1.931c2.939-5.45,3.18-11.841,8.17-14.4
				c11.29-5.8,23.05,5.91,25.91,15.37c20.359,1.33,47.069,4.16,67.67,2.42c-0.5-9.53,11.96-16.18,21.13-12.47
				c4.18,1.689,5.38,7.18,7.67,10.56c8.26,2.101,17.32,3.13,26.88,1.93c2.42-0.85,1.07-3.5,3.36-5.76
				C397.6,209.771,401.479,210.521,401.59,206.7z M389.12,192.3c1.529-16.85,3.97-39.34,2.899-56.629
				c-0.28-4.55-1.17-13.15-4.8-13.45c-3.34-0.27-5.5,6.88-6.24,9.6c-4.5,16.62,1.69,25.439,2.86,43.2
				c0.41,6.189,0.229,12.149,0.479,17.76c0.141,3.189-1.159,8.16,1.91,10.08C390.38,201.141,388.779,196,389.12,192.3z
				 M354.55,237.41c7.1-2,9.91-11.52,8.64-20.64c-0.14-1.69-1.3,1.689-1.439,0c-0.061-6.34-4.011-8.79-10.07-9.12
				c1.61-0.15,3.271-0.24,4.32-0.96c-7.721-1.641-14.141,1.67-17.761,6.71c-1.369,8.16-0.27,12.37,2.391,18.24
				C345.91,234.23,348.239,239.181,354.55,237.41z M352.67,116.45c3.649-5.79,5.17-13.7,5.28-23.03
				c-16.311-4.65-40.57-1.4-58.07-2.42c-0.09,7.21-0.13,15.54,1.43,19.68C321.739,108.39,334.25,115.15,352.67,116.45z
				 M338.279,89.57c5.36-9.25-2.93-15.89-9.6-17.76c4.36,0.12,6.29,2.68,9.6,3.84c-1.67-17.09-24.46-26.71-36.949-12.49
				c0.05,3.26-0.83,5.57-0.49,9.12c7.08-1.78,18.2-6.83,25.92-1.91c-9.41-1.2-18.98,0.55-26.4,3.83
				c0.341,5.46-0.489,9.75-0.479,14.88C313.069,89.91,324.35,89.75,338.279,89.57z M338.229,231.16
				c-0.91-3.72-1.67-7.61-2.399-11.52c-4.03-0.19-7.521,0.159-11.04,0.479C325.81,227.26,328.8,232.431,338.229,231.16z
				 M298.439,89.08c1.65-9.68,0.851-19.16,1.931-26.88C297.2,68.4,296.75,82.46,298.439,89.08z M300.35,109.72
				c-1.61-6.17-1.24-11.4-1.43-18.72C297.75,95.02,297.66,109.59,300.35,109.72z M298.93,60.76c2.57-8.79-9.43-16.25-14.88-8.64
				c-2.4,8.32,5.81,6.03,11.52,6.24C297.08,58.71,297.04,62.3,298.93,60.76z M296.52,89.08c0.65-7.42,0.5-19.38,0.97-27.36
				c-11.96-2.97-30.47-1.21-42.72,0.47c-2.47,6.58-0.42,17.53-0.49,24.95C270.35,87.52,286.45,90.31,296.52,89.08z M266.72,225.86
				c1.84-17.54-8.13-27.23-23.51-24.49c-2.181,2.63-6.45,5.7-5.29,10.08c0.319-0.65,1.03-0.9,1.92-0.96
				C230.75,228.41,257.71,238.431,266.72,225.86z M253.34,51.63c3.12,2.79,6.05,7.81,11.03,7.2
				c-7.771-5.19-12.631-13.28-20.15-18.73c-0.61,1.15-2.1,1.42-1.92,3.36C246.16,45.78,249.859,48.52,253.34,51.63z M238.399,225.37
				c-0.68-1.82-2.31-6.58-2.399-10.56c-2.061,3.779-7.2,0.31-11.04,1.43C225.22,223.561,230.899,226.74,238.399,225.37z
				 M220.66,166.33c4.949-17.25,9.489-33.38,15.85-46.07c-11.48,8.82-18.29,21.8-24.49,36.94c-5.36,13.13-10.8,23.4-9.61,40.8
				c3.41,0.05,4.08-2.64,6.72-3.359c1.85,0.409,3.71,4.77,1.44,6.239c-0.1-1.5,0.32-3.52-0.48-4.319c-2.12-0.15-3.36,2.21-6.24,2.88
				c-4.56,1.05-10.04-0.76-13.92-0.49c0,0.96,0,1.92,0,2.88c7.07,1.601,15.14,1.54,20.16,0.01c0.23,2.311-2.77,1.38-2.88,3.36
				c2.81,5.34,10.729,8.15,16.79,8.64C214.11,203.65,216.58,180.521,220.66,166.33z M194.25,212.391c-0.52-2.36-2.9-2.86-4.8-3.841
				c-0.48,2.721-1.22,5.19-3.36,6.24c5.02-12.689,1.86-30.22,1.93-46.55c-4.69-4.98-14.38-5.91-16.79-12.97
				c-1.51-4.4-0.65-10.38-1.44-15.36c-2.19-13.88-7.73-27.44-15.34-36c-27.88,0.46-57.39-2.85-72.96,11.49
				c2.4,0.17,5.62-0.5,6.24,1.45c-1.5-0.65-4.42-0.85-5.28,0.47c-1.13,6.79-3.94,15.21-4.33,24c-0.32,7.229-1.15,15.939,4.79,18.72
				c-3.4-9.3-3.83-31.28,1.94-39.84c7.84-2.07,20.92-3.79,25.43,2.41c2.81,3.85,2.62,11.59,3.36,17.76
				c0.79,6.61,2.35,13.48,1.43,19.2c-4.76,1.96-10.57,2.87-15.84,4.32c4.08,3.689,0.87,8.439,0.96,14.39
				c-0.79,2.189-4.98,5.78-3.85,6.72c15.42,1.55,16.07,17.86,19.67,31.21c4.75-0.21,7.79-2.14,12.96-1.92
				c-1.96-12.109-7.16-23.55-6.23-36.96c-0.22,11.79,4.52,22.64,6.71,31.68c0.35,1.431-0.11,6.101,1.92,5.761
				c1.28-6.03-3.74-16.33-2.39-24c1.91,8.33,1.75,18.72,6.23,24.479c0.29-10.39,0.96-26.43,6.73-33.109
				c8.86-10.261,17.29,5.119,20.16,12c3.12,7.489,4.03,14.119,5.75,21.6C176.89,214.05,189.62,219.7,194.25,212.391z M159.2,233.5
				c9.3-1.38,8.47-12.63,6.73-22.08c-0.98-5.3-2.67-11.35-4.31-15.359c-2.02-4.92-7.42-15.63-12.48-15.841
				c-3.92-0.159-7.6,4.53-9.12,7.681c-3.73,7.72-4.07,21.97-3.37,30.71C141.6,224.811,148.979,235.021,159.2,233.5z M113.13,236.84
				c6.05-2.75,11.24-10.92,8.16-19.67c-1.87,0.21-3.8,0.36-5.28,0.96C116.229,225.54,116.229,232.75,113.13,236.84z M113.61,233.96
				c6.93-12.42-3.9-43.27-12.95-47.04c-11.59-0.91-19.51,5.87-19.2,15.36c0.22,6.57,4.82,11.03,7.67,15.84
				c-0.71,1.18-1.97,1.07-0.96,2.88c3.65,4.78,8.49,13,13.92,15.84C106.69,239.25,111.49,237.76,113.61,233.96z M114.59,157.65
				c-0.52-12.75-2.48-24.07-5.27-34.56c-6.43-3.59-17.88-4.96-24.95-1.45c-4.13,11.58-5.24,35.01,3.82,41.76
				C94.77,163.09,107.89,161.04,114.59,157.65z M99.71,173.01c1.59-3.189,0.6-7.479-2.4-8.64C94.05,166.47,99.44,169.9,99.71,173.01
				z M98.75,177.32c0.54-7.53-6.03-12.19-14.4-10.561c-6.2,5.83-1.54,19.65,6.24,17.761c6.94-1.69,3.4-16.08-2.88-16.801
				c8.92-0.42,9.54,13.98,4.31,18.24C95.38,184.351,98.49,180.98,98.75,177.32z M85.31,164.84c0.91-0.1,4.74,0.33,3.36-0.479
				c-1.6,0-3.2,0-4.8,0c0.42-0.851,1.52-1.4,0.48-2.4c-8.53-1.7-15.13-2.859-23.51-1.93c-10.43,1.17-21.41,8.53-30.24,6.71
				c-1.11,1.35-0.15,3.71-0.01,5.28c-0.65,1.25-1.23,2.47-1.44,3.84c-1.64,11.02,2.74,21.649,3.83,29.28
				c3.53,4.42,14.11,3.989,18.72,5.77c-5.48,1.35-13.99-0.95-19.68-3.37c-1.9,4.99,1.41,9.94,3.84,13.44
				c6.77,0.149,16.62,1.22,24.96,0.489c1.93-0.17,3.56-1.47,5.28-1.439c5.44,0.09,12.53,5.72,14.39-0.47
				c-0.6-4.2-5.47-4.13-7.19-7.21c2.54-0.341,2.35-3.41,3.36-5.271c0.36,2.601-0.76,3.71-0.48,6.23c2.61,1.71,4.55,4.09,6.71,6.25
				c4-0.971,0.86-5.04,0.01-7.681c-3.57-11-2.05-21.12,7.2-25.439C80.27,185.95,77.44,169.641,85.31,164.84z M84.81,230.12
				c1.72-1.83,1.91-6.31,0.48-8.64c-5.3,1.26-6.84,5.95-12.96,5.27c-3.05-0.34-5.51-3.34-9.12-1.92c-0.37,0.101-0.55,0.4-0.48,0.96
				c3.5,5.88,21.98,14.21,21.2-0.49C84.07,227.061,84.18,228.84,84.81,230.12z"/>
			<path fill="#636466" d="M363.189,216.771c1.271,9.12-1.54,18.64-8.64,20.64c-6.311,1.771-8.64-3.18-13.92-5.77
				c-2.66-5.87-3.76-10.08-2.391-18.24c3.62-5.04,10.04-8.351,17.761-6.71c-1.05,0.72-2.71,0.81-4.32,0.96
				c6.06,0.33,10.01,2.78,10.07,9.12C361.89,218.46,363.05,215.08,363.189,216.771z M346.39,217.72c-2.54,4.69,4.811,9.28,7.2,4.811
				C353.13,218.99,350.83,217.29,346.39,217.72z"/>
			<path fill="#636466" d="M347.35,218.2c2.79,0.25,5.21,0.88,4.8,4.33c-0.43,0.21-0.859,0.42-0.96,0.96
				C347.979,223.86,345.83,221.01,347.35,218.2z"/>
			<path fill="#636466" d="M335.83,219.641c0.729,3.909,1.489,7.8,2.399,11.52c-9.43,1.271-12.42-3.9-13.439-11.04
				C328.31,219.8,331.8,219.45,335.83,219.641z"/>
			<path fill="#636466" d="M284.05,52.12c5.45-7.61,17.45-0.15,14.88,8.64c-1.89,1.54-1.85-2.05-3.36-2.4
				C289.859,58.15,281.649,60.44,284.05,52.12z"/>
			<path fill="#636466" d="M243.21,201.37c15.38-2.74,25.35,6.95,23.51,24.49c-9.01,12.57-35.97,2.55-26.88-15.37
				c-0.89,0.06-1.601,0.31-1.92,0.96C236.76,207.07,241.029,204,243.21,201.37z M254.72,219.13c0.63-5.8-5.75-5.319-7.68-7.199
				C246.45,215.63,250.22,218.94,254.72,219.13z"/>
			<path fill="#636466" d="M248.479,213.851c3.01-0.16,5.42,2.42,4.8,4.319C250.859,217.75,247.489,216.13,248.479,213.851z"/>
			<path fill="#636466" d="M236,214.811c0.09,3.979,1.72,8.739,2.399,10.56c-7.5,1.37-13.18-1.81-13.439-9.13
				C228.8,215.12,233.939,218.59,236,214.811z"/>
			<path fill="#636466" d="M165.93,211.42c1.74,9.45,2.57,20.7-6.73,22.08c-10.22,1.521-17.6-8.689-22.55-14.89
				c-0.7-8.74-0.36-22.99,3.37-30.71c1.52-3.15,5.2-7.84,9.12-7.681c5.06,0.211,10.46,10.921,12.48,15.841
				C163.26,200.07,164.95,206.12,165.93,211.42z M152.49,206.141c0.09-4.601-4.05-4.11-5.75-6.24c0.18,0.229,1.65-0.15,1.44-0.48
				c-2.37-0.45-3.26,0.58-4.32,1.44C142.15,209.75,152.34,214.44,152.49,206.141z"/>
			<path fill="#636466" d="M150.09,202.3c1.32,1.37,1.32,5.351,0,6.721c-3.7,1.5-6.37-3.94-4.79-7.681
				C147.33,201.22,148.69,201.78,150.09,202.3z"/>
			<path fill="#636466" d="M121.29,217.17c3.08,8.75-2.11,16.92-8.16,19.67c3.1-4.09,3.1-11.3,2.88-18.71
				C117.49,217.53,119.42,217.38,121.29,217.17z"/>
			<path fill="#636466" d="M96.81,218.11c0.03-0.82-0.37-1.22-0.96-1.43C96.13,217.32,96.46,217.79,96.81,218.11z M96.82,218.12
				c1.99,1.8,4.8-1.04,5.27-2.4c2.4-6.869-7.96-14.329-7.67-6.72c0.37,0.49,0.93-2.88,2.88-2.399
				C101.9,207.63,102.99,218.021,96.82,218.12z M100.66,186.92c9.05,3.771,19.88,34.62,12.95,47.04c-2.12,3.8-6.92,5.29-11.52,2.88
				C96.66,234,91.82,225.78,88.17,221c-1.01-1.81,0.25-1.7,0.96-2.88c-2.85-4.81-7.45-9.27-7.67-15.84
				C81.15,192.79,89.07,186.01,100.66,186.92z"/>
			<path fill="#636466" d="M83.93,225.3c0.78,14.7-17.7,6.37-21.2,0.49c-0.07-0.56,0.11-0.859,0.48-0.96
				c3.61-1.42,6.07,1.58,9.12,1.92c6.12,0.681,7.66-4.01,12.96-5.27c1.43,2.33,1.24,6.81-0.48,8.64
				C84.18,228.84,84.07,227.061,83.93,225.3z"/>
		</g>
	</g>
</g>
<g id="Layer_5_x23_FFFFFF">
	<g>
		<g>
			<path fill="#FFFFFF" d="M334.42,151.97c15.609-3.43,30.939,4.15,24.47,19.681c-5.45,2.01-18.93,3.569-24-0.97
				C332.62,165.891,332.359,157.22,334.42,151.97z"/>
			<path fill="#FFFFFF" d="M259.06,147.62c20.99-1.58,38.99,2.25,36.47,22.57c-7.989,5.279-22.829,6.279-35.04,5.75
				C255.76,169.95,257.76,155.811,259.06,147.62z"/>
			<path fill="#FFFFFF" d="M252.34,147.141c-0.12,8.609-2.38,22.01,1.91,29.279c-10.471-0.26-17.69-7.13-15.83-17.29
				C239.68,152.26,246.63,148.9,252.34,147.141z"/>
			<path fill="#FFFFFF" d="M153.479,118.31c6.68,9.48,7.43,27.44,8.63,40.8c-2.06,5.78-8.99,3.109-16.32,1.91
				c-4-0.65-10.13-0.63-12-1.92c-7.09-4.881-4.16-25.84-5.27-37.92C137.71,121.08,144.21,115.39,153.479,118.31z"/>
			<path fill="#FFFFFF" d="M109.32,123.09c2.79,10.49,4.75,21.81,5.27,34.56c-6.7,3.39-19.82,5.439-26.4,5.75
				c-9.06-6.75-7.95-30.18-3.82-41.76C91.44,118.13,102.89,119.5,109.32,123.09z"/>
		</g>
	</g>
</g>
<g id="Layer_6_x23_F7931D">
	<g>
		<g>
			<path fill="#F7941E" d="M300.37,62.2c-1.08,7.72-0.28,17.2-1.931,26.88C296.75,82.46,297.2,68.4,300.37,62.2z"/>
			<path fill="#F7941E" d="M297.489,61.72c-0.47,7.98-0.319,19.94-0.97,27.36c-10.069,1.23-26.17-1.56-42.24-1.94
				c0.07-7.42-1.979-18.37,0.49-24.95C267.02,60.51,285.529,58.75,297.489,61.72z"/>
		</g>
	</g>
</g>
</svg>
