<?xml version="1.0" encoding="utf-8"?>
<!-- Generator: Adobe Illustrator 14.0.0, SVG Export Plug-In . SVG Version: 6.00 Build 43363)  -->
<!DOCTYPE svg PUBLIC "-//W3C//DTD SVG 1.0//EN" "http://www.w3.org/TR/2001/REC-SVG-20010904/DTD/svg10.dtd">
<svg version="1.0" xmlns="http://www.w3.org/2000/svg" xmlns:xlink="http://www.w3.org/1999/xlink" x="0px" y="0px" width="576px"
	 height="720px" viewBox="0 0 576 720" enable-background="new 0 0 576 720" xml:space="preserve">
<g id="Layer_1_x23_000000">
	<g>
		<g>
			<path d="M500.61,612.96c2.97,5.75,3.21,18.64,1.47,25.8c-10.34,5.86-23.17,9.32-40.76,8.16c-0.04,32.42-34.71,60.78-63.971,38.64
				c-21.319,7.171-37.699-8.029-40.229-27.359c-11.771-3.16-28.021-1.7-40.94-3.67c5.42,37.06-15.09,59.21-43.28,54.46
				c-21.68-3.65-43.24-28.28-42.78-53.141c-6.6,1.41-5,8.44-8.41,13.04c-15.53,20.99-60.23,23.57-66.84-8.649
				c-18.41-0.9-34.54-1.391-49.55-3.55c-5.52-6.681-4.42-20.21-6.92-30.021c3.66-6.689,11.46-9.38,21.37-10.01
				c-4.13-11-12.2-20.87-17.71-32.01c-5.2-10.521-12.87-26.681-12.41-37.46c0.42-9.83,17.02-24.94,24.28-30.5
				c14.06-10.771,30.48-17.381,45.89-24.381c1.9-3.109,1.74-8.199,7.41-7.649c6.75-45.03,22.23-81.59,39.1-116.8
				c-3.27-2.16-8.26-7.69-3.41-11.791c-2.75-1.03-11.38,0.02-16.17-1.9c-6.54-23.55-8.96-56.99-7.76-84.88
				c7.25-1.58,18.05-0.14,26.86-2.57c-2.3-19.47-6.97-39.89-7.35-57.99c10.88-2.52,14.35-12.22,26.69-13.32
				c-0.69-2.57-1.62-4.88-1.2-8.59c-8.25-2.2-13.82,0.44-22.59,0.35c-7.88-6.07-11.91-24.09-7.02-36.48
				c8.33-2.52,15.03-6.61,26.81-5.79c-0.16-4.59-5.49-13.26-5.71-21.43c7.66-3.88,21.35-1.9,32.24-2.65
				c-2.44-12.78-3.42-27.07-4.93-40.81c5.21-3.14,15.61-1.74,20.4-2.47c3.43-14.69,10.47-25.88,21-33.67
				c32.77-6.64,38.041,34.17,26.65,53.38c11.24,5.31,21.53-2.61,35.5-0.54c9.69,10.3,22.641,31.58,11.48,47.17
				c8.08,0.05,24.97-0.52,36.58-0.57c3.43,7.99,7.449,26.23,2.689,35.47c-1.49,2.18-16.189-1.64-22.57,1.42
				c4.131,21.98,26.65,28.21,24.58,58.8c-0.369,5.36-2.149,10.33-5.149,15.15c2.67,1.97,7.399,1.84,10.81,3.06
				c12.25,17.2,28.16,66.33,7.74,83.8c2.34,6.79,5.5,14.43,0.31,20.44c1.41,1.83,4.33,2.1,5.45,4.22
				c10.53,35.4,16.34,75.68,21.16,116.96c10.57,8.05,22.65,14.53,34.76,20.98C484.7,532.43,494.44,573.39,488.71,608.84
				C490.03,612.93,497.34,610.87,500.61,612.96z M498.79,634.5c-0.65-6.25,0.979-14.85-1.38-19.34
				c-13.38-4.021-26.49,7.38-39.65,10.29c2.021,4.84,1.65,12.14,3.49,17.16C477.09,643.14,490.56,641.37,498.79,634.5z
				 M483.33,608.92c5.76-23.18,3.17-46.5-2.13-68.83c-2.53-10.649-4.84-25.229-9.09-31.06c-9.511-13.07-26.551-12.4-36.94-23.11
				c-3.99-42.14-8.51-83.74-20.1-118.05c-0.94-3.4-7.03-1.49-7.62-5.26c9.29-2.581,4.02-16.49-0.311-20.44
				c-22.12,0.1-41.43,2.93-62.34,4.19c1.61,24.82,1.87,49.51,5.37,69.85c1.37-13.5,2.6-27.15,4.771-39.88
				c60.02-13,51.399,68.32,55.59,116.43c-11.66,1.101-32.5,6.44-45.11,4.99c-3.87-0.44-8.2-4.48-9.72-2
				c2.13,48.33,2.56,97.62,4.43,148.42c4.37,1.94,8.59-1.82,12.93,0.88c-8.09-36.68,10.811-85.54,49.48-70.7
				c17.02,6.521,27.93,24.42,34.05,44.66C469.23,619.27,478.1,615.86,483.33,608.92z M442.49,681.64
				c28.92-24.409,10.609-90.51-20.96-102.97c-35.15-13.88-49.12,28.2-47.61,52.37c0.63,10.06,0.94,16.18,3.59,23.62
				c3.9,10.939,19.33,29.06,32.8,33.93C422.42,692.96,437.47,685.87,442.49,681.64z M413.51,336.69
				c11.23-21.47,0.53-59.63-10.84-75.15c-19.47-3.45-42.65,1.54-63.43,3.13c0.41,29.24-0.2,52.78,4.41,77.4
				C366.24,339.6,388.44,336.76,413.51,336.69z M407.25,489.58c-4.12-45.021,3.03-120.45-50.11-110.061
				c-5.659,34.44-10,80.86,2.801,111.86C373.63,496.19,392.1,490.12,407.25,489.58z M394.88,174.51c1.48-9.14,0.78-19.74-2.57-26.86
				c-21.489,0.4-39.859,2.69-62.34,4.19c-0.189,10.75,1.44,19.64,3.66,27.91C357.13,181,372.54,174.39,394.88,174.51z
				 M387.51,255.32c16.53-13.57,4.4-53.21-12.72-57.91c-13.13-3.6-23.28,4.04-38.7,2.75c2.71,18.34,2.53,39.64,4.141,59.12
				c8.21-1.26,18.449,0.56,25.77-3.63c3.67-8.51,1.62-21.81,2.76-30.17c2.55,10.13,2.36,19.69,1.561,31.18
				C375.63,255.81,381.01,255.02,387.51,255.32z M360.33,657.08c2.87,15.25,13.02,28.82,31.58,24.26
				c-6.78-6.85-11.66-15.66-15.46-25.59C371.54,657.99,366,658,360.33,657.08z M374.7,192.04c-0.3-5.16-2.79-8.05-4.48-11.77
				c-11.81,0.99-24.739,5.08-36.54,2.71c-0.35,5.1,0.48,8.97,1.271,12.89C349.78,194.78,361.6,192.38,374.7,192.04z M359.19,652.79
				c6.02-2.1,14.18,4.45,15.029-2.38c-2.27-4.67-10.68-0.76-15.08-0.851C359.16,650.64,359.17,651.71,359.19,652.79z M354.61,145
				c9.939-13.19,1.42-39.03-12.511-43.92c3.301,6.81,8.15,17.8,5.79,26.81c-2.26-12.42-4.26-30.32-18.699-26.61
				c1.84,6.86,6.85,16.23,5.729,22.5c-3.83-7.7-3.29-19.92-14.3-20.22c-0.28-1.65-1.78-0.13-2.14,1.11
				c6.97,11.03,6.909,29.3,10.359,43.95c4,0.71,4.59-1.9,8.59-1.2c2.311-4.48,2.101-11.39,4.061-16.21
				c0.93,6.56-1.26,10.09-0.83,16.16C345.21,146.48,348.87,144.73,354.61,145z M354.59,633.49c0.33-54.681-1.64-118.94-5.92-175.29
				C351.01,511.26,344.68,576.93,354.59,633.49z M350.45,644.32c-9.141-104.84,0.78-192.87-12.09-296.791
				c-44.29,2.08-90.311,1.72-134.351,9.6c2.78,0.22-1.45,1.88,0.06,4.3c20.87,1.271,59.75-5.68,64.76,13
				c1.99,7.4-0.89,22.811-2.71,33.391c-4.9,28.479-17.67,62.35-26.71,82.189c4.74,1.66,11.76,0.98,15.12,4.07
				c0.31,7.33,1.08,14.189,3.53,19.31c4.79,1.98,11.66,1.82,17.26,2.971c14.35,20.93,5.06,51.189,16.18,72.909
				c5.08,9.9,18.08,15.95,23.04,28.7c3.22,8.271,1.9,15.11,5.76,24.66C330.07,644.24,337.68,644.3,350.45,644.32z M315.04,650.24
				c12.6-1.971,27.08,5.45,36.57-0.561c-9.811-0.729-23.42-4.5-31.21-0.6c-9.23-9.05-3.96-16.61-7.96-27.85
				c-5.061-14.2-22.561-21.49-26.331-32.95c-7.7-23.391,0.38-50.25-15.04-68.63c-6.2,0.56-10.28-1.061-15.1-1.92
				c-2.22-2.811-1.27-8.891-3.41-11.78c-1.48,13.59-15.44,11.47-25.58,15.45c-7.3,2.869-18.25,8.76-24.51,15.439
				c-3.1,3.311-4.57,8.88-8.43,11.97c-5.91,4.74-26.36,13.49-33.13,14.5c-23.36,3.45-46.51-5.329-65.88-16.21
				c3.09,30.45,21.7,53.03,34.54,76.94c30.09-0.22,56.73,0.81,83.8-7.74c-1.18-11.17-10.68-19.569-9.07-29.99
				c6.09,16.45,8.42,32.83,29.55,31.82c1.44,3.25,0.82,8.62,3.39,10.71c-8.55-21.189,10.41-35.609,24.16-38.03
				C291.96,585.43,312.22,626.48,315.04,650.24z M335.26,286.25c1.721,3.26,0.88-4.68,0.98-6.47c-1.29-4.86,2.34-14.8-2.4-16.1
				c-1.08,1.9,0.36,10.52,1.29,13.97C335.18,280.51,335.22,283.38,335.26,286.25z M334.85,259.36c4.54-4.3,1.23-11.07,0.79-18.31
				c-0.87-14.34,2.88-36.22-6-40.79c-3.029,4.95,0.141,11.76,0.261,17.21C330.21,231.31,326.76,248.84,334.85,259.36z
				 M338.28,342.16c-1.44-27.67-4.75-53.39-9.8-77.32c-42.09,1.89-101.34,4.63-148.351,8.73c2.36,23.11,1.65,56.75,9.79,77.32
				C242.43,347.04,283,345.55,338.28,342.16z M330.63,194.86c2.12-2.61,1.14-11.32-2.33-11.8
				C329.44,186.63,326.1,194.8,330.63,194.86z M330.38,178.73c-0.01-1.08-0.03-2.15-0.05-3.23c-0.09-1.99-0.84-2.42-1.14-4.28
				C327.08,157.86,326.76,174.62,330.38,178.73z M305.18,218.93c2.34,18.89,5.801,41.84,23.23,41.6
				c-2.061-20.75-4.391-42.26-5.24-61.25c-41.08-23.74-60.1,70.08-9.82,61.48C312.52,249.89,302,233.91,305.18,218.93z
				 M309.05,190.89c4.82,0.86,8.271,3.13,14.03,3.01c-0.41-3.94,0.78-9.53-1.25-11.81c-5.23,1.35-15.88-2.02-16.12,1.32
				C307.48,185.23,309.02,187.28,309.05,190.89z M324.54,148.69c-1.1-11.61-1.94-23.5-5.87-32.19
				C320.05,127.82,320.51,140.1,324.54,148.69z M323.91,177.75c-1.9-7.15-0.72-17.47-3.59-23.61
				c-38.561,2.08-85.7-13.08-123.72,0.82c-3.65,9.62-1.84,22.79,4.73,27.91C241.03,181.51,282.08,176.57,323.91,177.75z
				 M320.24,148.76c-3.44-15.04-4.69-32.33-10.38-45.03c-2.53-0.31-4.061-1.64-7.54-0.96c-0.891,6.4,4.81,11.75,1.34,17.19
				c0.62-13.64-10.36-25.56-19.67-19.06c12.41,6.64,14.66,31.91,9.34,47.2c5.85-0.58,8.87,1.78,15.08,0.84
				c2.56-1.4-0.73-8.47,2-9.72c-0.41,4.8,0.88,7.83,2.31,10.73C315.58,149.89,318.87,150.26,320.24,148.76z M302.27,99.54
				c16.54-4.45,12.761-42.67,1.44-46.29C311.42,66.6,306.3,86.06,302.27,99.54z M299.04,99.59c8.22-12.58,7.22-39-0.8-51.64
				c-21.53-1.8-26.28,12.67-30.78,27.38c1.4,1.47,5.09,0.58,6.49,2.05c2.16,6.51,2.51,14.89,5.69,20.35
				C286.47,94.31,293.42,96.57,299.04,99.59z M294.35,704.36c39.92-23.551,11.521-111.811-29.669-110.37
				c-10.19,0.359-23.13,9.47-25.52,19.76c-1.16,5,2.69,17.13-0.76,20.46c6.26,7.93-3.62,15.79-5.02,23.74
				C229.48,680.2,263.89,714.02,294.35,704.36z M283.55,211.73c5-9.99,12.47-17.58,24.42-20.82c-8.26-17.08-38.5-5.35-60.34-5.53
				c-8.28-0.07-17.02-2.31-21.46,3.56c0.62,3,1.66,5.57,2.28,8.57c10.65-0.54,16.61,3.28,23.75,5.02
				C264.99,205.63,279.87,203.74,283.55,211.73z M283.27,263.38c3.49-0.15,6.6-0.66,8.57-2.28c-3.2-1.44-4.43-4.91-7.63-6.34
				C285.92,258.11,284.99,260.75,283.27,263.38z M286.87,148.19c12.59-15.28,5.7-56.12-23.28-44.83
				c-12.21,9.71-3.66,34.26,3.89,42.98C274.42,146.46,279.93,148.07,286.87,148.19z M255.3,263.81c8.44,2.15,15.78-1.12,25.81-0.4
				c-1.09-15.26-1.9-30.82-1.8-47.31c-9.93,5.56-18.7,12.24-30.96,15.54C249.75,243.02,254.78,254.98,255.3,263.81z M254.19,121.8
				c-0.18-15.27,7.67-25.09,21.15-24c-0.39-6.52-1.9-11.88-3.49-17.16c-6.5-0.79-18.9,0.34-25.79,2.55
				C247.4,97.47,244.74,115.88,254.19,121.8z M249.34,226.24c10.31-0.22,17.97-8.91,26.68-14.4c-21.4-1.52-52.91-20.65-67.82-2.18
				C223.97,208.61,235.21,226.54,249.34,226.24z M233.98,486.86c17.58-28.471,30.18-70.271,29.46-113.431
				c-11.14-8.899-31.39-8.43-51.77-7.81c-8.8,13.82-15.58,33.09-23.9,55.24c-4.76,12.689-20.09,47.739-16.23,63.739
				C175.28,500.13,217.37,487.61,233.98,486.86z M264.23,145.31c-4.3-5.39-5.95-13.52-8.92-20.3c-9.91,0.11-14.5-0.12-24.75-0.7
				c2.7,6.2,3.18,15.49-0.77,20.46C244.54,142.92,252.06,147.85,264.23,145.31z M244.06,512.53c3.48-4.391,6.72-9.021,7.28-16.25
				c-6.54-1.271-13.37-2.24-18.37-5.101c-15.91,1.53-37.63,7.28-53.74,4.061c-6.13-1.23-9.68-6.86-15.14-5.15
				c4.88,10.11,16.13,9.37,22.76,10.41c-10.18,3.92-19.78-2.18-28.04-3.87c-25.33,11.11-48.1,24.71-62.77,46.15
				c23.04,16.51,70.46,21.67,96.91,4.97C199.38,525.73,222.34,519.73,244.06,512.53z M253.16,264.92
				c-4.04-10.41-5.72-23.24-9.13-34.29c-13.91-5.7-22.87-16.49-41.16-17.66c-2.23,15.51,4.16,35.88,6.2,53.7
				C221.72,264.1,238.73,265.76,253.16,264.92z M235.38,648.24c-0.11-9.71-3.5-16.061-3.62-25.771
				c-14.08-7.43-27.82,2.511-46.19,5.021c-12.28,1.67-25.46-0.7-36.59-0.521c-9.09,0.15-19.47,4.42-28-1.72
				c0.5-2.44,5.24-2.43,2.07-5.41c-8.3,0.43-15.79,1.641-20.36,5.69c-0.35,10.56,0.92,19.45,3.64,26.85
				c32.34,6.39,70.57,3.7,105.4-2.7c3.04,0.15,1.43,5.09,5.45,4.221C222.9,651.68,230.62,651.39,235.38,648.24z M228.65,140.48
				c1.99-4.01,1.35-13.41-1.32-16.12c-2.15,0.04-4.3,0.07-6.46,0.1C217.23,129.6,219.41,141.99,228.65,140.48z M222.61,657.04
				c-22.24-5.84-39.6,4.29-63.44,3.13C164.15,691.72,217.14,680.7,222.61,657.04z"/>
			<path d="M461.6,525.33c1.11,4.6-5.25,1.96-5.29,5.46c-2.949-0.95,1.45-3.39-0.1-6.46C457.47,525.22,459.11,525.71,461.6,525.33z"
				/>
			<path d="M431.05,637.7c-0.66,3.229-2.319-0.99-4.3,0.06c2.03,2.28,0.84,7.87,1.25,11.82c-2.36,1.59-5.14,2.78-9.64,2.3
				C407.8,643.13,422.98,625.39,431.05,637.7z M425.8,646.39c0.26-4.64-0.05-8.689-4.43-8.54c-3.61,0.74-3.37,5.21-3.08,9.73
				C421.15,647.52,424.44,647.89,425.8,646.39z"/>
			<path d="M327.96,371.37c10.26,21.18,17.3,65.58,15.49,97.67c-0.55,9.86-2.05,20-8.2,25.95c-25.23-0.63-61,8.029-75.42-6.37
				c1.5-44.46,17.01-75.34,24.06-114.42C294.84,375.82,313.57,367.89,327.96,371.37z M335.16,489.61
				c9.71-32.29,2.34-84.341-8.19-112.851c-13.56-3.55-31.88,1.86-41.93,1.721c-6.16,36.77-20.1,66-22.03,106.859
				C278.52,498.03,311.69,490.31,335.16,489.61z"/>
			<path d="M264.38,644.57c9.46,1.46,19.32,7.35,15.36,19.13C265.02,674.36,251.46,653.15,264.38,644.57z M277.54,660.5
				c0.71-8.74-4.7-11.18-10.96-12.74C254.85,653.84,266.78,669.32,277.54,660.5z"/>
			<path d="M281.35,138.6c-1.78-1.82-3.32-3.87-3.35-7.48c-2.6-0.27-3.38,1.25-3.22,3.67c-0.56-5-4.42-6.6-8.68-7.8
				c0.61-1.31,4.08,0.64,6.44-1.17c-2.03-2.64-3.34-6.02-6.57-7.43c1.95-1.22,7.03,3.64,8.71,6.32c4.89-1.44,0.1-12.37,1.93-14.02
				C280.19,117.93,277.9,131.22,281.35,138.6z"/>
			<path d="M274.84,135.47c-0.02-0.22-0.04-0.43-0.06-0.64C274.81,135.04,274.83,135.25,274.84,135.47z"/>
		</g>
	</g>
</g>
<g id="Layer_2_x23_008FD4">
	<g>
		<g>
			<path fill="none" d="M500.61,612.96c2.97,5.75,3.21,18.64,1.47,25.8c-10.34,5.86-23.17,9.32-40.76,8.16
				c-0.04,32.42-34.71,60.78-63.971,38.64c-21.319,7.171-37.699-8.029-40.229-27.359c-11.771-3.16-28.021-1.7-40.94-3.67
				c5.42,37.06-15.09,59.21-43.28,54.46c-21.68-3.65-43.24-28.28-42.78-53.141c-6.6,1.41-5,8.44-8.41,13.04
				c-15.53,20.99-60.23,23.57-66.84-8.649c-18.41-0.9-34.54-1.391-49.55-3.55c-5.52-6.681-4.42-20.21-6.92-30.021
				c3.66-6.689,11.46-9.38,21.37-10.01c-4.13-11-12.2-20.87-17.71-32.01c-5.2-10.521-12.87-26.681-12.41-37.46
				c0.42-9.83,17.02-24.94,24.28-30.5c14.06-10.771,30.48-17.381,45.89-24.381c1.9-3.109,1.74-8.199,7.41-7.649
				c6.75-45.03,22.23-81.59,39.1-116.8c-3.27-2.16-8.26-7.69-3.41-11.791c-2.75-1.03-11.38,0.02-16.17-1.9
				c-6.54-23.55-8.96-56.99-7.76-84.88c7.25-1.58,18.05-0.14,26.86-2.57c-2.3-19.47-6.97-39.89-7.35-57.99
				c10.88-2.52,14.35-12.22,26.69-13.32c-0.69-2.57-1.62-4.88-1.2-8.59c-8.25-2.2-13.82,0.44-22.59,0.35
				c-7.88-6.07-11.91-24.09-7.02-36.48c8.33-2.52,15.03-6.61,26.81-5.79c-0.16-4.59-5.49-13.26-5.71-21.43
				c7.66-3.88,21.35-1.9,32.24-2.65c-2.44-12.78-3.42-27.07-4.93-40.81c5.21-3.14,15.61-1.74,20.4-2.47
				c3.43-14.69,10.47-25.88,21-33.67c32.77-6.64,38.041,34.17,26.65,53.38c11.24,5.31,21.53-2.61,35.5-0.54
				c9.69,10.3,22.641,31.58,11.48,47.17c8.08,0.05,24.97-0.52,36.58-0.57c3.43,7.99,7.449,26.23,2.689,35.47
				c-1.49,2.18-16.189-1.64-22.57,1.42c4.131,21.98,26.65,28.21,24.58,58.8c-0.369,5.36-2.149,10.33-5.149,15.15
				c2.67,1.97,7.399,1.84,10.81,3.06c12.25,17.2,28.16,66.33,7.74,83.8c2.34,6.79,5.5,14.43,0.31,20.44
				c1.41,1.83,4.33,2.1,5.45,4.22c10.53,35.4,16.34,75.68,21.16,116.96c10.57,8.05,22.65,14.53,34.76,20.98
				C484.7,532.43,494.44,573.39,488.71,608.84C490.03,612.93,497.34,610.87,500.61,612.96z M498.79,634.5
				c-0.65-6.25,0.979-14.85-1.38-19.34c-13.38-4.021-26.49,7.38-39.65,10.29c2.021,4.84,1.65,12.14,3.49,17.16
				C477.09,643.14,490.56,641.37,498.79,634.5z M483.33,608.92c5.76-23.18,3.17-46.5-2.13-68.83
				c-2.53-10.649-4.84-25.229-9.09-31.06c-9.511-13.07-26.551-12.4-36.94-23.11c-3.99-42.14-8.51-83.74-20.1-118.05
				c-0.94-3.4-7.03-1.49-7.62-5.26c9.29-2.581,4.02-16.49-0.311-20.44c-22.12,0.1-41.43,2.93-62.34,4.19
				c1.61,24.82,1.87,49.51,5.37,69.85c1.37-13.5,2.6-27.15,4.771-39.88c60.02-13,51.399,68.32,55.59,116.43
				c-11.66,1.101-32.5,6.44-45.11,4.99c-3.87-0.44-8.2-4.48-9.72-2c2.13,48.33,2.56,97.62,4.43,148.42
				c4.37,1.94,8.59-1.82,12.93,0.88c-8.09-36.68,10.811-85.54,49.48-70.7c17.02,6.521,27.93,24.42,34.05,44.66
				C469.23,619.27,478.1,615.86,483.33,608.92z M442.49,681.64c28.92-24.409,10.609-90.51-20.96-102.97
				c-35.15-13.88-49.12,28.2-47.61,52.37c0.63,10.06,0.94,16.18,3.59,23.62c3.9,10.939,19.33,29.06,32.8,33.93
				C422.42,692.96,437.47,685.87,442.49,681.64z M413.51,336.69c11.23-21.47,0.53-59.63-10.84-75.15
				c-19.47-3.45-42.65,1.54-63.43,3.13c0.41,29.24-0.2,52.78,4.41,77.4C366.24,339.6,388.44,336.76,413.51,336.69z M407.25,489.58
				c-4.12-45.021,3.03-120.45-50.11-110.061c-5.659,34.44-10,80.86,2.801,111.86C373.63,496.19,392.1,490.12,407.25,489.58z
				 M394.88,174.51c1.48-9.14,0.78-19.74-2.57-26.86c-21.489,0.4-39.859,2.69-62.34,4.19c-0.189,10.75,1.44,19.64,3.66,27.91
				C357.13,181,372.54,174.39,394.88,174.51z M387.51,255.32c16.53-13.57,4.4-53.21-12.72-57.91c-13.13-3.6-23.28,4.04-38.7,2.75
				c2.71,18.34,2.53,39.64,4.141,59.12c8.21-1.26,18.449,0.56,25.77-3.63c3.67-8.51,1.62-21.81,2.76-30.17
				c2.55,10.13,2.36,19.69,1.561,31.18C375.63,255.81,381.01,255.02,387.51,255.32z M360.33,657.08
				c2.87,15.25,13.02,28.82,31.58,24.26c-6.78-6.85-11.66-15.66-15.46-25.59C371.54,657.99,366,658,360.33,657.08z M374.7,192.04
				c-0.3-5.16-2.79-8.05-4.48-11.77c-11.81,0.99-24.739,5.08-36.54,2.71c-0.35,5.1,0.48,8.97,1.271,12.89
				C349.78,194.78,361.6,192.38,374.7,192.04z M359.19,652.79c6.02-2.1,14.18,4.45,15.029-2.38c-2.27-4.67-10.68-0.76-15.08-0.851
				C359.16,650.64,359.17,651.71,359.19,652.79z M354.61,145c9.939-13.19,1.42-39.03-12.511-43.92c3.301,6.81,8.15,17.8,5.79,26.81
				c-2.26-12.42-4.26-30.32-18.699-26.61c1.84,6.86,6.85,16.23,5.729,22.5c-3.83-7.7-3.29-19.92-14.3-20.22
				c-0.28-1.65-1.78-0.13-2.14,1.11c6.97,11.03,6.909,29.3,10.359,43.95c4,0.71,4.59-1.9,8.59-1.2
				c2.311-4.48,2.101-11.39,4.061-16.21c0.93,6.56-1.26,10.09-0.83,16.16C345.21,146.48,348.87,144.73,354.61,145z M354.59,633.49
				c0.33-54.681-1.64-118.94-5.92-175.29C351.01,511.26,344.68,576.93,354.59,633.49z M350.45,644.32
				c-9.141-104.84,0.78-192.87-12.09-296.791c-44.29,2.08-90.311,1.72-134.351,9.6c2.78,0.22-1.45,1.88,0.06,4.3
				c20.87,1.271,59.75-5.68,64.76,13c1.99,7.4-0.89,22.811-2.71,33.391c-4.9,28.479-17.67,62.35-26.71,82.189
				c4.74,1.66,11.76,0.98,15.12,4.07c0.31,7.33,1.08,14.189,3.53,19.31c4.79,1.98,11.66,1.82,17.26,2.971
				c14.35,20.93,5.06,51.189,16.18,72.909c5.08,9.9,18.08,15.95,23.04,28.7c3.22,8.271,1.9,15.11,5.76,24.66
				C330.07,644.24,337.68,644.3,350.45,644.32z M315.04,650.24c12.6-1.971,27.08,5.45,36.57-0.561c-9.811-0.729-23.42-4.5-31.21-0.6
				c-9.23-9.05-3.96-16.61-7.96-27.85c-5.061-14.2-22.561-21.49-26.331-32.95c-7.7-23.391,0.38-50.25-15.04-68.63
				c-6.2,0.56-10.28-1.061-15.1-1.92c-2.22-2.811-1.27-8.891-3.41-11.78c-1.48,13.59-15.44,11.47-25.58,15.45
				c-7.3,2.869-18.25,8.76-24.51,15.439c-3.1,3.311-4.57,8.88-8.43,11.97c-5.91,4.74-26.36,13.49-33.13,14.5
				c-23.36,3.45-46.51-5.329-65.88-16.21c3.09,30.45,21.7,53.03,34.54,76.94c30.09-0.22,56.73,0.81,83.8-7.74
				c-1.18-11.17-10.68-19.569-9.07-29.99c6.09,16.45,8.42,32.83,29.55,31.82c1.44,3.25,0.82,8.62,3.39,10.71
				c-8.55-21.189,10.41-35.609,24.16-38.03C291.96,585.43,312.22,626.48,315.04,650.24z M335.26,286.25
				c1.721,3.26,0.88-4.68,0.98-6.47c-1.29-4.86,2.34-14.8-2.4-16.1c-1.08,1.9,0.36,10.52,1.29,13.97
				C335.18,280.51,335.22,283.38,335.26,286.25z M334.85,259.36c4.54-4.3,1.23-11.07,0.79-18.31c-0.87-14.34,2.88-36.22-6-40.79
				c-3.029,4.95,0.141,11.76,0.261,17.21C330.21,231.31,326.76,248.84,334.85,259.36z M338.28,342.16
				c-1.44-27.67-4.75-53.39-9.8-77.32c-42.09,1.89-101.34,4.63-148.351,8.73c2.36,23.11,1.65,56.75,9.79,77.32
				C242.43,347.04,283,345.55,338.28,342.16z M330.63,194.86c2.12-2.61,1.14-11.32-2.33-11.8
				C329.44,186.63,326.1,194.8,330.63,194.86z M330.38,178.73c-0.01-1.08-0.03-2.15-0.05-3.23c-0.09-1.99-0.84-2.42-1.14-4.28
				C327.08,157.86,326.76,174.62,330.38,178.73z M305.18,218.93c2.34,18.89,5.801,41.84,23.23,41.6
				c-2.061-20.75-4.391-42.26-5.24-61.25c-41.08-23.74-60.1,70.08-9.82,61.48C312.52,249.89,302,233.91,305.18,218.93z
				 M309.05,190.89c4.82,0.86,8.271,3.13,14.03,3.01c-0.41-3.94,0.78-9.53-1.25-11.81c-5.23,1.35-15.88-2.02-16.12,1.32
				C307.48,185.23,309.02,187.28,309.05,190.89z M324.54,148.69c-1.1-11.61-1.94-23.5-5.87-32.19
				C320.05,127.82,320.51,140.1,324.54,148.69z M323.91,177.75c-1.9-7.15-0.72-17.47-3.59-23.61
				c-38.561,2.08-85.7-13.08-123.72,0.82c-3.65,9.62-1.84,22.79,4.73,27.91C241.03,181.51,282.08,176.57,323.91,177.75z
				 M320.24,148.76c-3.44-15.04-4.69-32.33-10.38-45.03c-2.53-0.31-4.061-1.64-7.54-0.96c-0.891,6.4,4.81,11.75,1.34,17.19
				c0.62-13.64-10.36-25.56-19.67-19.06c12.41,6.64,14.66,31.91,9.34,47.2c5.85-0.58,8.87,1.78,15.08,0.84
				c2.56-1.4-0.73-8.47,2-9.72c-0.41,4.8,0.88,7.83,2.31,10.73C315.58,149.89,318.87,150.26,320.24,148.76z M302.27,99.54
				c16.54-4.45,12.761-42.67,1.44-46.29C311.42,66.6,306.3,86.06,302.27,99.54z M299.04,99.59c8.22-12.58,7.22-39-0.8-51.64
				c-21.53-1.8-26.28,12.67-30.78,27.38c1.4,1.47,5.09,0.58,6.49,2.05c2.16,6.51,2.51,14.89,5.69,20.35
				C286.47,94.31,293.42,96.57,299.04,99.59z M294.35,704.36c39.92-23.551,11.521-111.811-29.669-110.37
				c-10.19,0.359-23.13,9.47-25.52,19.76c-1.16,5,2.69,17.13-0.76,20.46c6.26,7.93-3.62,15.79-5.02,23.74
				C229.48,680.2,263.89,714.02,294.35,704.36z M283.55,211.73c5-9.99,12.47-17.58,24.42-20.82c-8.26-17.08-38.5-5.35-60.34-5.53
				c-8.28-0.07-17.02-2.31-21.46,3.56c0.62,3,1.66,5.57,2.28,8.57c10.65-0.54,16.61,3.28,23.75,5.02
				C264.99,205.63,279.87,203.74,283.55,211.73z M283.27,263.38c3.49-0.15,6.6-0.66,8.57-2.28c-3.2-1.44-4.43-4.91-7.63-6.34
				C285.92,258.11,284.99,260.75,283.27,263.38z M286.87,148.19c12.59-15.28,5.7-56.12-23.28-44.83
				c-12.21,9.71-3.66,34.26,3.89,42.98C274.42,146.46,279.93,148.07,286.87,148.19z M255.3,263.81c8.44,2.15,15.78-1.12,25.81-0.4
				c-1.09-15.26-1.9-30.82-1.8-47.31c-9.93,5.56-18.7,12.24-30.96,15.54C249.75,243.02,254.78,254.98,255.3,263.81z M254.19,121.8
				c-0.18-15.27,7.67-25.09,21.15-24c-0.39-6.52-1.9-11.88-3.49-17.16c-6.5-0.79-18.9,0.34-25.79,2.55
				C247.4,97.47,244.74,115.88,254.19,121.8z M249.34,226.24c10.31-0.22,17.97-8.91,26.68-14.4c-21.4-1.52-52.91-20.65-67.82-2.18
				C223.97,208.61,235.21,226.54,249.34,226.24z M233.98,486.86c17.58-28.471,30.18-70.271,29.46-113.431
				c-11.14-8.899-31.39-8.43-51.77-7.81c-8.8,13.82-15.58,33.09-23.9,55.24c-4.76,12.689-20.09,47.739-16.23,63.739
				C175.28,500.13,217.37,487.61,233.98,486.86z M264.23,145.31c-4.3-5.39-5.95-13.52-8.92-20.3c-9.91,0.11-14.5-0.12-24.75-0.7
				c2.7,6.2,3.18,15.49-0.77,20.46C244.54,142.92,252.06,147.85,264.23,145.31z M244.06,512.53c3.48-4.391,6.72-9.021,7.28-16.25
				c-6.54-1.271-13.37-2.24-18.37-5.101c-15.91,1.53-37.63,7.28-53.74,4.061c-6.13-1.23-9.68-6.86-15.14-5.15
				c4.88,10.11,16.13,9.37,22.76,10.41c-10.18,3.92-19.78-2.18-28.04-3.87c-25.33,11.11-48.1,24.71-62.77,46.15
				c23.04,16.51,70.46,21.67,96.91,4.97C199.38,525.73,222.34,519.73,244.06,512.53z M253.16,264.92
				c-4.04-10.41-5.72-23.24-9.13-34.29c-13.91-5.7-22.87-16.49-41.16-17.66c-2.23,15.51,4.16,35.88,6.2,53.7
				C221.72,264.1,238.73,265.76,253.16,264.92z M235.38,648.24c-0.11-9.71-3.5-16.061-3.62-25.771
				c-14.08-7.43-27.82,2.511-46.19,5.021c-12.28,1.67-25.46-0.7-36.59-0.521c-9.09,0.15-19.47,4.42-28-1.72
				c0.5-2.44,5.24-2.43,2.07-5.41c-8.3,0.43-15.79,1.641-20.36,5.69c-0.35,10.56,0.92,19.45,3.64,26.85
				c32.34,6.39,70.57,3.7,105.4-2.7c3.04,0.15,1.43,5.09,5.45,4.221C222.9,651.68,230.62,651.39,235.38,648.24z M228.65,140.48
				c1.99-4.01,1.35-13.41-1.32-16.12c-2.15,0.04-4.3,0.07-6.46,0.1C217.23,129.6,219.41,141.99,228.65,140.48z M222.61,657.04
				c-22.24-5.84-39.6,4.29-63.44,3.13C164.15,691.72,217.14,680.7,222.61,657.04z"/>
			<path fill="#008FD5" d="M303.71,53.25c11.32,3.62,15.1,41.84-1.44,46.29C306.3,86.06,311.42,66.6,303.71,53.25z"/>
			<path fill="#008FD5" d="M298.24,47.95c8.02,12.64,9.02,39.06,0.8,51.64c-5.62-3.02-12.57-5.28-19.4-1.86
				c-3.18-5.46-3.53-13.84-5.69-20.35c-1.4-1.47-5.09-0.58-6.49-2.05C271.96,60.62,276.71,46.15,298.24,47.95z"/>
			<path fill="#008FD5" d="M320.32,154.14c2.87,6.14,1.689,16.46,3.59,23.61c-41.83-1.18-82.88,3.76-122.58,5.12
				c-6.57-5.12-8.38-18.29-4.73-27.91C234.62,141.06,281.76,156.22,320.32,154.14z"/>
			<path fill="#008FD5" d="M392.31,147.65c3.351,7.12,4.051,17.72,2.57,26.86c-22.34-0.12-37.75,6.49-61.25,5.24
				c-2.22-8.27-3.85-17.16-3.66-27.91C352.45,150.34,370.82,148.05,392.31,147.65z"/>
			<path fill="#008FD5" d="M281.11,263.41c-10.03-0.72-17.37,2.55-25.81,0.4c-0.52-8.83-5.55-20.79-6.95-32.17
				c12.26-3.3,21.03-9.98,30.96-15.54C279.21,232.59,280.02,248.15,281.11,263.41z"/>
			<path fill="#008FD5" d="M244.03,230.63c3.41,11.05,5.09,23.88,9.13,34.29c-14.43,0.84-31.44-0.82-44.09,1.75
				c-2.04-17.82-8.43-38.19-6.2-53.7C221.16,214.14,230.12,224.93,244.03,230.63z"/>
			<path fill="#008FD5" d="M276.02,211.84c-8.71,5.49-16.37,14.18-26.68,14.4c-14.13,0.3-25.37-17.63-41.14-16.58
				C223.11,191.19,254.62,210.32,276.02,211.84z"/>
			<path fill="#008FD5" d="M374.22,650.41c-0.85,6.83-9.01,0.28-15.029,2.38c-0.021-1.08-0.03-2.15-0.051-3.23
				C363.54,649.65,371.95,645.74,374.22,650.41z"/>
			<path fill="#008FD5" d="M348.67,458.2c4.28,56.35,6.25,120.609,5.92,175.29C344.68,576.93,351.01,511.26,348.67,458.2z"/>
			<path fill="#008FD5" d="M481.2,540.09c5.3,22.33,7.89,45.65,2.13,68.83c-5.23,6.94-14.1,10.35-26.74,10.09
				c-6.12-20.24-17.03-38.14-34.05-44.66c-38.67-14.84-57.57,34.021-49.48,70.7c-4.34-2.7-8.56,1.061-12.93-0.88
				c-1.87-50.8-2.3-100.09-4.43-148.42c1.52-2.48,5.85,1.56,9.72,2c12.61,1.45,33.45-3.89,45.11-4.99
				c-4.19-48.109,4.43-129.43-55.59-116.43c-2.171,12.729-3.4,26.38-4.771,39.88c-3.5-20.34-3.76-45.03-5.37-69.85
				c20.91-1.26,40.22-4.09,62.34-4.19c4.33,3.95,9.601,17.86,0.311,20.44c0.59,3.77,6.68,1.859,7.62,5.26
				c11.59,34.31,16.109,75.91,20.1,118.05c10.39,10.71,27.43,10.04,36.94,23.11C476.36,514.86,478.67,529.44,481.2,540.09z
				 M456.31,530.79c0.04-3.5,6.4-0.86,5.29-5.46c-2.489,0.38-4.13-0.11-5.39-1C457.76,527.4,453.36,529.84,456.31,530.79z"/>
			<path fill="#008FD5" d="M251.34,496.28c-0.56,7.229-3.8,11.859-7.28,16.25c-21.72,7.2-44.68,13.2-51.11,35.22
				c-26.45,16.7-73.87,11.54-96.91-4.97c14.67-21.44,37.44-35.04,62.77-46.15c8.26,1.69,17.86,7.79,28.04,3.87
				c-6.63-1.04-17.88-0.3-22.76-10.41c5.46-1.71,9.01,3.92,15.14,5.15c16.11,3.22,37.83-2.53,53.74-4.061
				C237.97,494.04,244.8,495.01,251.34,496.28z"/>
			<path fill="#008FD5" d="M351.61,649.68c-9.49,6.011-23.971-1.41-36.57,0.561c-2.82-23.76-23.08-64.811-53.64-59.431
				c-13.75,2.421-32.71,16.841-24.16,38.03c-2.57-2.09-1.95-7.46-3.39-10.71c-21.13,1.01-23.46-15.37-29.55-31.82
				c-1.61,10.421,7.89,18.82,9.07,29.99c-27.07,8.55-53.71,7.521-83.8,7.74c-12.84-23.91-31.45-46.49-34.54-76.94
				c19.37,10.881,42.52,19.66,65.88,16.21c6.77-1.01,27.22-9.76,33.13-14.5c3.86-3.09,5.33-8.659,8.43-11.97
				c6.26-6.68,17.21-12.57,24.51-15.439c10.14-3.98,24.1-1.86,25.58-15.45c2.14,2.89,1.19,8.97,3.41,11.78
				c4.82,0.859,8.9,2.479,15.1,1.92c15.42,18.38,7.34,45.239,15.04,68.63c3.77,11.46,21.27,18.75,26.331,32.95
				c4,11.239-1.271,18.8,7.96,27.85C328.19,645.18,341.8,648.95,351.61,649.68z"/>
			<path fill="#008FD5" d="M338.36,347.53c12.87,103.92,2.949,191.951,12.09,296.791c-12.771-0.021-20.38-0.08-30.15-1.69
				c-3.859-9.55-2.54-16.39-5.76-24.66c-4.96-12.75-17.96-18.8-23.04-28.7c-11.12-21.72-1.83-51.979-16.18-72.909
				c-5.6-1.15-12.47-0.99-17.26-2.971c-2.45-5.12-3.22-11.979-3.53-19.31c-3.36-3.09-10.38-2.41-15.12-4.07
				c9.04-19.84,21.81-53.71,26.71-82.189c1.82-10.58,4.7-25.99,2.71-33.391c-5.01-18.68-43.89-11.729-64.76-13
				c-1.51-2.42,2.72-4.08-0.06-4.3C248.05,349.25,294.07,349.61,338.36,347.53z M343.45,469.04c1.81-32.09-5.23-76.49-15.49-97.67
				c-14.39-3.48-33.12,4.45-44.07,2.83c-7.05,39.08-22.56,69.96-24.06,114.42c14.42,14.399,50.189,5.74,75.42,6.37
				C341.4,489.04,342.9,478.9,343.45,469.04z"/>
		</g>
	</g>
</g>
<g id="Layer_3_x23_808284">
	<g>
		<g>
			<path fill="none" d="M500.61,612.96c2.97,5.75,3.21,18.64,1.47,25.8c-10.34,5.86-23.17,9.32-40.76,8.16
				c-0.04,32.42-34.71,60.78-63.971,38.64c-21.319,7.171-37.699-8.029-40.229-27.359c-11.771-3.16-28.021-1.7-40.94-3.67
				c5.42,37.06-15.09,59.21-43.28,54.46c-21.68-3.65-43.24-28.28-42.78-53.141c-6.6,1.41-5,8.44-8.41,13.04
				c-15.53,20.99-60.23,23.57-66.84-8.649c-18.41-0.9-34.54-1.391-49.55-3.55c-5.52-6.681-4.42-20.21-6.92-30.021
				c3.66-6.689,11.46-9.38,21.37-10.01c-4.13-11-12.2-20.87-17.71-32.01c-5.2-10.521-12.87-26.681-12.41-37.46
				c0.42-9.83,17.02-24.94,24.28-30.5c14.06-10.771,30.48-17.381,45.89-24.381c1.9-3.109,1.74-8.199,7.41-7.649
				c6.75-45.03,22.23-81.59,39.1-116.8c-3.27-2.16-8.26-7.69-3.41-11.791c-2.75-1.03-11.38,0.02-16.17-1.9
				c-6.54-23.55-8.96-56.99-7.76-84.88c7.25-1.58,18.05-0.14,26.86-2.57c-2.3-19.47-6.97-39.89-7.35-57.99
				c10.88-2.52,14.35-12.22,26.69-13.32c-0.69-2.57-1.62-4.88-1.2-8.59c-8.25-2.2-13.82,0.44-22.59,0.35
				c-7.88-6.07-11.91-24.09-7.02-36.48c8.33-2.52,15.03-6.61,26.81-5.79c-0.16-4.59-5.49-13.26-5.71-21.43
				c7.66-3.88,21.35-1.9,32.24-2.65c-2.44-12.78-3.42-27.07-4.93-40.81c5.21-3.14,15.61-1.74,20.4-2.47
				c3.43-14.69,10.47-25.88,21-33.67c32.77-6.64,38.041,34.17,26.65,53.38c11.24,5.31,21.53-2.61,35.5-0.54
				c9.69,10.3,22.641,31.58,11.48,47.17c8.08,0.05,24.97-0.52,36.58-0.57c3.43,7.99,7.449,26.23,2.689,35.47
				c-1.49,2.18-16.189-1.64-22.57,1.42c4.131,21.98,26.65,28.21,24.58,58.8c-0.369,5.36-2.149,10.33-5.149,15.15
				c2.67,1.97,7.399,1.84,10.81,3.06c12.25,17.2,28.16,66.33,7.74,83.8c2.34,6.79,5.5,14.43,0.31,20.44
				c1.41,1.83,4.33,2.1,5.45,4.22c10.53,35.4,16.34,75.68,21.16,116.96c10.57,8.05,22.65,14.53,34.76,20.98
				C484.7,532.43,494.44,573.39,488.71,608.84C490.03,612.93,497.34,610.87,500.61,612.96z M498.79,634.5
				c-0.65-6.25,0.979-14.85-1.38-19.34c-13.38-4.021-26.49,7.38-39.65,10.29c2.021,4.84,1.65,12.14,3.49,17.16
				C477.09,643.14,490.56,641.37,498.79,634.5z M483.33,608.92c5.76-23.18,3.17-46.5-2.13-68.83
				c-2.53-10.649-4.84-25.229-9.09-31.06c-9.511-13.07-26.551-12.4-36.94-23.11c-3.99-42.14-8.51-83.74-20.1-118.05
				c-0.94-3.4-7.03-1.49-7.62-5.26c9.29-2.581,4.02-16.49-0.311-20.44c-22.12,0.1-41.43,2.93-62.34,4.19
				c1.61,24.82,1.87,49.51,5.37,69.85c1.37-13.5,2.6-27.15,4.771-39.88c60.02-13,51.399,68.32,55.59,116.43
				c-11.66,1.101-32.5,6.44-45.11,4.99c-3.87-0.44-8.2-4.48-9.72-2c2.13,48.33,2.56,97.62,4.43,148.42
				c4.37,1.94,8.59-1.82,12.93,0.88c-8.09-36.68,10.811-85.54,49.48-70.7c17.02,6.521,27.93,24.42,34.05,44.66
				C469.23,619.27,478.1,615.86,483.33,608.92z M442.49,681.64c28.92-24.409,10.609-90.51-20.96-102.97
				c-35.15-13.88-49.12,28.2-47.61,52.37c0.63,10.06,0.94,16.18,3.59,23.62c3.9,10.939,19.33,29.06,32.8,33.93
				C422.42,692.96,437.47,685.87,442.49,681.64z M413.51,336.69c11.23-21.47,0.53-59.63-10.84-75.15
				c-19.47-3.45-42.65,1.54-63.43,3.13c0.41,29.24-0.2,52.78,4.41,77.4C366.24,339.6,388.44,336.76,413.51,336.69z M407.25,489.58
				c-4.12-45.021,3.03-120.45-50.11-110.061c-5.659,34.44-10,80.86,2.801,111.86C373.63,496.19,392.1,490.12,407.25,489.58z
				 M394.88,174.51c1.48-9.14,0.78-19.74-2.57-26.86c-21.489,0.4-39.859,2.69-62.34,4.19c-0.189,10.75,1.44,19.64,3.66,27.91
				C357.13,181,372.54,174.39,394.88,174.51z M387.51,255.32c16.53-13.57,4.4-53.21-12.72-57.91c-13.13-3.6-23.28,4.04-38.7,2.75
				c2.71,18.34,2.53,39.64,4.141,59.12c8.21-1.26,18.449,0.56,25.77-3.63c3.67-8.51,1.62-21.81,2.76-30.17
				c2.55,10.13,2.36,19.69,1.561,31.18C375.63,255.81,381.01,255.02,387.51,255.32z M360.33,657.08
				c2.87,15.25,13.02,28.82,31.58,24.26c-6.78-6.85-11.66-15.66-15.46-25.59C371.54,657.99,366,658,360.33,657.08z M374.7,192.04
				c-0.3-5.16-2.79-8.05-4.48-11.77c-11.81,0.99-24.739,5.08-36.54,2.71c-0.35,5.1,0.48,8.97,1.271,12.89
				C349.78,194.78,361.6,192.38,374.7,192.04z M359.19,652.79c6.02-2.1,14.18,4.45,15.029-2.38c-2.27-4.67-10.68-0.76-15.08-0.851
				C359.16,650.64,359.17,651.71,359.19,652.79z M354.61,145c9.939-13.19,1.42-39.03-12.511-43.92c3.301,6.81,8.15,17.8,5.79,26.81
				c-2.26-12.42-4.26-30.32-18.699-26.61c1.84,6.86,6.85,16.23,5.729,22.5c-3.83-7.7-3.29-19.92-14.3-20.22
				c-0.28-1.65-1.78-0.13-2.14,1.11c6.97,11.03,6.909,29.3,10.359,43.95c4,0.71,4.59-1.9,8.59-1.2
				c2.311-4.48,2.101-11.39,4.061-16.21c0.93,6.56-1.26,10.09-0.83,16.16C345.21,146.48,348.87,144.73,354.61,145z M354.59,633.49
				c0.33-54.681-1.64-118.94-5.92-175.29C351.01,511.26,344.68,576.93,354.59,633.49z M350.45,644.32
				c-9.141-104.84,0.78-192.87-12.09-296.791c-44.29,2.08-90.311,1.72-134.351,9.6c2.78,0.22-1.45,1.88,0.06,4.3
				c20.87,1.271,59.75-5.68,64.76,13c1.99,7.4-0.89,22.811-2.71,33.391c-4.9,28.479-17.67,62.35-26.71,82.189
				c4.74,1.66,11.76,0.98,15.12,4.07c0.31,7.33,1.08,14.189,3.53,19.31c4.79,1.98,11.66,1.82,17.26,2.971
				c14.35,20.93,5.06,51.189,16.18,72.909c5.08,9.9,18.08,15.95,23.04,28.7c3.22,8.271,1.9,15.11,5.76,24.66
				C330.07,644.24,337.68,644.3,350.45,644.32z M315.04,650.24c12.6-1.971,27.08,5.45,36.57-0.561c-9.811-0.729-23.42-4.5-31.21-0.6
				c-9.23-9.05-3.96-16.61-7.96-27.85c-5.061-14.2-22.561-21.49-26.331-32.95c-7.7-23.391,0.38-50.25-15.04-68.63
				c-6.2,0.56-10.28-1.061-15.1-1.92c-2.22-2.811-1.27-8.891-3.41-11.78c-1.48,13.59-15.44,11.47-25.58,15.45
				c-7.3,2.869-18.25,8.76-24.51,15.439c-3.1,3.311-4.57,8.88-8.43,11.97c-5.91,4.74-26.36,13.49-33.13,14.5
				c-23.36,3.45-46.51-5.329-65.88-16.21c3.09,30.45,21.7,53.03,34.54,76.94c30.09-0.22,56.73,0.81,83.8-7.74
				c-1.18-11.17-10.68-19.569-9.07-29.99c6.09,16.45,8.42,32.83,29.55,31.82c1.44,3.25,0.82,8.62,3.39,10.71
				c-8.55-21.189,10.41-35.609,24.16-38.03C291.96,585.43,312.22,626.48,315.04,650.24z M335.26,286.25
				c1.721,3.26,0.88-4.68,0.98-6.47c-1.29-4.86,2.34-14.8-2.4-16.1c-1.08,1.9,0.36,10.52,1.29,13.97
				C335.18,280.51,335.22,283.38,335.26,286.25z M334.85,259.36c4.54-4.3,1.23-11.07,0.79-18.31c-0.87-14.34,2.88-36.22-6-40.79
				c-3.029,4.95,0.141,11.76,0.261,17.21C330.21,231.31,326.76,248.84,334.85,259.36z M338.28,342.16
				c-1.44-27.67-4.75-53.39-9.8-77.32c-42.09,1.89-101.34,4.63-148.351,8.73c2.36,23.11,1.65,56.75,9.79,77.32
				C242.43,347.04,283,345.55,338.28,342.16z M330.63,194.86c2.12-2.61,1.14-11.32-2.33-11.8
				C329.44,186.63,326.1,194.8,330.63,194.86z M330.38,178.73c-0.01-1.08-0.03-2.15-0.05-3.23c-0.09-1.99-0.84-2.42-1.14-4.28
				C327.08,157.86,326.76,174.62,330.38,178.73z M305.18,218.93c2.34,18.89,5.801,41.84,23.23,41.6
				c-2.061-20.75-4.391-42.26-5.24-61.25c-41.08-23.74-60.1,70.08-9.82,61.48C312.52,249.89,302,233.91,305.18,218.93z
				 M309.05,190.89c4.82,0.86,8.271,3.13,14.03,3.01c-0.41-3.94,0.78-9.53-1.25-11.81c-5.23,1.35-15.88-2.02-16.12,1.32
				C307.48,185.23,309.02,187.28,309.05,190.89z M324.54,148.69c-1.1-11.61-1.94-23.5-5.87-32.19
				C320.05,127.82,320.51,140.1,324.54,148.69z M323.91,177.75c-1.9-7.15-0.72-17.47-3.59-23.61
				c-38.561,2.08-85.7-13.08-123.72,0.82c-3.65,9.62-1.84,22.79,4.73,27.91C241.03,181.51,282.08,176.57,323.91,177.75z
				 M320.24,148.76c-3.44-15.04-4.69-32.33-10.38-45.03c-2.53-0.31-4.061-1.64-7.54-0.96c-0.891,6.4,4.81,11.75,1.34,17.19
				c0.62-13.64-10.36-25.56-19.67-19.06c12.41,6.64,14.66,31.91,9.34,47.2c5.85-0.58,8.87,1.78,15.08,0.84
				c2.56-1.4-0.73-8.47,2-9.72c-0.41,4.8,0.88,7.83,2.31,10.73C315.58,149.89,318.87,150.26,320.24,148.76z M302.27,99.54
				c16.54-4.45,12.761-42.67,1.44-46.29C311.42,66.6,306.3,86.06,302.27,99.54z M299.04,99.59c8.22-12.58,7.22-39-0.8-51.64
				c-21.53-1.8-26.28,12.67-30.78,27.38c1.4,1.47,5.09,0.58,6.49,2.05c2.16,6.51,2.51,14.89,5.69,20.35
				C286.47,94.31,293.42,96.57,299.04,99.59z M294.35,704.36c39.92-23.551,11.521-111.811-29.669-110.37
				c-10.19,0.359-23.13,9.47-25.52,19.76c-1.16,5,2.69,17.13-0.76,20.46c6.26,7.93-3.62,15.79-5.02,23.74
				C229.48,680.2,263.89,714.02,294.35,704.36z M283.55,211.73c5-9.99,12.47-17.58,24.42-20.82c-8.26-17.08-38.5-5.35-60.34-5.53
				c-8.28-0.07-17.02-2.31-21.46,3.56c0.62,3,1.66,5.57,2.28,8.57c10.65-0.54,16.61,3.28,23.75,5.02
				C264.99,205.63,279.87,203.74,283.55,211.73z M283.27,263.38c3.49-0.15,6.6-0.66,8.57-2.28c-3.2-1.44-4.43-4.91-7.63-6.34
				C285.92,258.11,284.99,260.75,283.27,263.38z M286.87,148.19c12.59-15.28,5.7-56.12-23.28-44.83
				c-12.21,9.71-3.66,34.26,3.89,42.98C274.42,146.46,279.93,148.07,286.87,148.19z M255.3,263.81c8.44,2.15,15.78-1.12,25.81-0.4
				c-1.09-15.26-1.9-30.82-1.8-47.31c-9.93,5.56-18.7,12.24-30.96,15.54C249.75,243.02,254.78,254.98,255.3,263.81z M254.19,121.8
				c-0.18-15.27,7.67-25.09,21.15-24c-0.39-6.52-1.9-11.88-3.49-17.16c-6.5-0.79-18.9,0.34-25.79,2.55
				C247.4,97.47,244.74,115.88,254.19,121.8z M249.34,226.24c10.31-0.22,17.97-8.91,26.68-14.4c-21.4-1.52-52.91-20.65-67.82-2.18
				C223.97,208.61,235.21,226.54,249.34,226.24z M233.98,486.86c17.58-28.471,30.18-70.271,29.46-113.431
				c-11.14-8.899-31.39-8.43-51.77-7.81c-8.8,13.82-15.58,33.09-23.9,55.24c-4.76,12.689-20.09,47.739-16.23,63.739
				C175.28,500.13,217.37,487.61,233.98,486.86z M264.23,145.31c-4.3-5.39-5.95-13.52-8.92-20.3c-9.91,0.11-14.5-0.12-24.75-0.7
				c2.7,6.2,3.18,15.49-0.77,20.46C244.54,142.92,252.06,147.85,264.23,145.31z M244.06,512.53c3.48-4.391,6.72-9.021,7.28-16.25
				c-6.54-1.271-13.37-2.24-18.37-5.101c-15.91,1.53-37.63,7.28-53.74,4.061c-6.13-1.23-9.68-6.86-15.14-5.15
				c4.88,10.11,16.13,9.37,22.76,10.41c-10.18,3.92-19.78-2.18-28.04-3.87c-25.33,11.11-48.1,24.71-62.77,46.15
				c23.04,16.51,70.46,21.67,96.91,4.97C199.38,525.73,222.34,519.73,244.06,512.53z M253.16,264.92
				c-4.04-10.41-5.72-23.24-9.13-34.29c-13.91-5.7-22.87-16.49-41.16-17.66c-2.23,15.51,4.16,35.88,6.2,53.7
				C221.72,264.1,238.73,265.76,253.16,264.92z M235.38,648.24c-0.11-9.71-3.5-16.061-3.62-25.771
				c-14.08-7.43-27.82,2.511-46.19,5.021c-12.28,1.67-25.46-0.7-36.59-0.521c-9.09,0.15-19.47,4.42-28-1.72
				c0.5-2.44,5.24-2.43,2.07-5.41c-8.3,0.43-15.79,1.641-20.36,5.69c-0.35,10.56,0.92,19.45,3.64,26.85
				c32.34,6.39,70.57,3.7,105.4-2.7c3.04,0.15,1.43,5.09,5.45,4.221C222.9,651.68,230.62,651.39,235.38,648.24z M228.65,140.48
				c1.99-4.01,1.35-13.41-1.32-16.12c-2.15,0.04-4.3,0.07-6.46,0.1C217.23,129.6,219.41,141.99,228.65,140.48z M222.61,657.04
				c-22.24-5.84-39.6,4.29-63.44,3.13C164.15,691.72,217.14,680.7,222.61,657.04z"/>
			<path fill="#808285" d="M275.34,97.8c-13.48-1.09-21.33,8.73-21.15,24c-9.45-5.92-6.79-24.33-8.13-38.61
				c6.89-2.21,19.29-3.34,25.79-2.55C273.44,85.92,274.95,91.28,275.34,97.8z"/>
			<path fill="#808285" d="M307.97,190.91c-11.95,3.24-19.42,10.83-24.42,20.82c-3.68-7.99-18.56-6.1-31.35-9.2
				c-7.14-1.74-13.1-5.56-23.75-5.02c-0.62-3-1.66-5.57-2.28-8.57c4.44-5.87,13.18-3.63,21.46-3.56
				C269.47,185.56,299.71,173.83,307.97,190.91z"/>
			<path fill="#808285" d="M421.53,578.67c31.569,12.46,49.88,78.561,20.96,102.97c-5.021,4.23-20.07,11.32-32.181,6.95
				c-13.47-4.87-28.899-22.99-32.8-33.93c-2.649-7.44-2.96-13.561-3.59-23.62C372.41,606.87,386.38,564.79,421.53,578.67z
				 M426.75,637.76c1.98-1.05,3.64,3.17,4.3-0.06c-8.069-12.311-23.25,5.43-12.689,14.18c4.5,0.48,7.279-0.71,9.64-2.3
				C427.59,645.63,428.78,640.04,426.75,637.76z"/>
			<path fill="#808285" d="M391.91,681.34c-18.561,4.561-28.71-9.01-31.58-24.26c5.67,0.92,11.21,0.91,16.12-1.33
				C380.25,665.68,385.13,674.49,391.91,681.34z"/>
			<path fill="#808285" d="M159.17,660.17c23.84,1.16,41.2-8.97,63.44-3.13C217.14,680.7,164.15,691.72,159.17,660.17z"/>
			<path fill="#808285" d="M264.68,593.99c41.19-1.44,69.589,86.819,29.669,110.37c-30.459,9.659-64.87-24.16-60.97-46.41
				c1.4-7.95,11.28-15.811,5.02-23.74c3.45-3.33-0.4-15.46,0.76-20.46C241.55,603.46,254.49,594.35,264.68,593.99z M279.74,663.7
				c3.96-11.78-5.9-17.67-15.36-19.13C251.46,653.15,265.02,674.36,279.74,663.7z"/>
		</g>
	</g>
</g>
<g id="Layer_4_x23_FFFFFF">
	<g>
		<g>
			<path fill="#FFFFFF" d="M421.37,637.85c4.38-0.149,4.689,3.9,4.43,8.54c-1.359,1.5-4.649,1.13-7.51,1.19
				C418,643.06,417.76,638.59,421.37,637.85z"/>
			<path fill="#FFFFFF" d="M266.58,647.76c6.26,1.561,11.67,4,10.96,12.74C266.78,669.32,254.85,653.84,266.58,647.76z"/>
			<path fill="#FFFFFF" d="M497.41,615.16c2.359,4.49,0.729,13.09,1.38,19.34c-8.23,6.87-21.7,8.64-37.54,8.11
				c-1.84-5.021-1.47-12.32-3.49-17.16C470.92,622.54,484.03,611.14,497.41,615.16z"/>
			<path fill="#FFFFFF" d="M231.76,622.47c0.12,9.71,3.51,16.061,3.62,25.771c-4.76,3.149-12.48,3.439-18.2,5.66
				c-4.02,0.869-2.41-4.07-5.45-4.221c-34.83,6.4-73.06,9.09-105.4,2.7c-2.72-7.399-3.99-16.29-3.64-26.85
				c4.57-4.05,12.06-5.261,20.36-5.69c3.17,2.98-1.57,2.97-2.07,5.41c8.53,6.14,18.91,1.87,28,1.72
				c11.13-0.18,24.31,2.19,36.59,0.521C203.94,624.98,217.68,615.04,231.76,622.47z"/>
			<path fill="#FFFFFF" d="M357.14,379.52c53.141-10.39,45.99,65.04,50.11,110.061c-15.15,0.54-33.62,6.61-47.31,1.8
				C347.14,460.38,351.48,413.96,357.14,379.52z"/>
			<path fill="#FFFFFF" d="M326.97,376.76c10.53,28.51,17.9,80.561,8.19,112.851c-23.47,0.699-56.64,8.42-72.15-4.271
				c1.93-40.859,15.87-70.09,22.03-106.859C295.09,378.62,313.41,373.21,326.97,376.76z"/>
			<path fill="#FFFFFF" d="M263.44,373.43c0.72,43.16-11.88,84.96-29.46,113.431c-16.61,0.75-58.7,13.27-62.44-2.261
				c-3.86-16,11.47-51.05,16.23-63.739c8.32-22.15,15.1-41.42,23.9-55.24C232.05,365,252.3,364.53,263.44,373.43z"/>
		</g>
	</g>
</g>
<g id="Layer_5_x23_6C9D31">
	<g>
		<g>
			<path fill="none" d="M500.61,612.96c2.97,5.75,3.21,18.64,1.47,25.8c-10.34,5.86-23.17,9.32-40.76,8.16
				c-0.04,32.42-34.71,60.78-63.971,38.64c-21.319,7.171-37.699-8.029-40.229-27.359c-11.771-3.16-28.021-1.7-40.94-3.67
				c5.42,37.06-15.09,59.21-43.28,54.46c-21.68-3.65-43.24-28.28-42.78-53.141c-6.6,1.41-5,8.44-8.41,13.04
				c-15.53,20.99-60.23,23.57-66.84-8.649c-18.41-0.9-34.54-1.391-49.55-3.55c-5.52-6.681-4.42-20.21-6.92-30.021
				c3.66-6.689,11.46-9.38,21.37-10.01c-4.13-11-12.2-20.87-17.71-32.01c-5.2-10.521-12.87-26.681-12.41-37.46
				c0.42-9.83,17.02-24.94,24.28-30.5c14.06-10.771,30.48-17.381,45.89-24.381c1.9-3.109,1.74-8.199,7.41-7.649
				c6.75-45.03,22.23-81.59,39.1-116.8c-3.27-2.16-8.26-7.69-3.41-11.791c-2.75-1.03-11.38,0.02-16.17-1.9
				c-6.54-23.55-8.96-56.99-7.76-84.88c7.25-1.58,18.05-0.14,26.86-2.57c-2.3-19.47-6.97-39.89-7.35-57.99
				c10.88-2.52,14.35-12.22,26.69-13.32c-0.69-2.57-1.62-4.88-1.2-8.59c-8.25-2.2-13.82,0.44-22.59,0.35
				c-7.88-6.07-11.91-24.09-7.02-36.48c8.33-2.52,15.03-6.61,26.81-5.79c-0.16-4.59-5.49-13.26-5.71-21.43
				c7.66-3.88,21.35-1.9,32.24-2.65c-2.44-12.78-3.42-27.07-4.93-40.81c5.21-3.14,15.61-1.74,20.4-2.47
				c3.43-14.69,10.47-25.88,21-33.67c32.77-6.64,38.041,34.17,26.65,53.38c11.24,5.31,21.53-2.61,35.5-0.54
				c9.69,10.3,22.641,31.58,11.48,47.17c8.08,0.05,24.97-0.52,36.58-0.57c3.43,7.99,7.449,26.23,2.689,35.47
				c-1.49,2.18-16.189-1.64-22.57,1.42c4.131,21.98,26.65,28.21,24.58,58.8c-0.369,5.36-2.149,10.33-5.149,15.15
				c2.67,1.97,7.399,1.84,10.81,3.06c12.25,17.2,28.16,66.33,7.74,83.8c2.34,6.79,5.5,14.43,0.31,20.44
				c1.41,1.83,4.33,2.1,5.45,4.22c10.53,35.4,16.34,75.68,21.16,116.96c10.57,8.05,22.65,14.53,34.76,20.98
				C484.7,532.43,494.44,573.39,488.71,608.84C490.03,612.93,497.34,610.87,500.61,612.96z M498.79,634.5
				c-0.65-6.25,0.979-14.85-1.38-19.34c-13.38-4.021-26.49,7.38-39.65,10.29c2.021,4.84,1.65,12.14,3.49,17.16
				C477.09,643.14,490.56,641.37,498.79,634.5z M483.33,608.92c5.76-23.18,3.17-46.5-2.13-68.83
				c-2.53-10.649-4.84-25.229-9.09-31.06c-9.511-13.07-26.551-12.4-36.94-23.11c-3.99-42.14-8.51-83.74-20.1-118.05
				c-0.94-3.4-7.03-1.49-7.62-5.26c9.29-2.581,4.02-16.49-0.311-20.44c-22.12,0.1-41.43,2.93-62.34,4.19
				c1.61,24.82,1.87,49.51,5.37,69.85c1.37-13.5,2.6-27.15,4.771-39.88c60.02-13,51.399,68.32,55.59,116.43
				c-11.66,1.101-32.5,6.44-45.11,4.99c-3.87-0.44-8.2-4.48-9.72-2c2.13,48.33,2.56,97.62,4.43,148.42
				c4.37,1.94,8.59-1.82,12.93,0.88c-8.09-36.68,10.811-85.54,49.48-70.7c17.02,6.521,27.93,24.42,34.05,44.66
				C469.23,619.27,478.1,615.86,483.33,608.92z M442.49,681.64c28.92-24.409,10.609-90.51-20.96-102.97
				c-35.15-13.88-49.12,28.2-47.61,52.37c0.63,10.06,0.94,16.18,3.59,23.62c3.9,10.939,19.33,29.06,32.8,33.93
				C422.42,692.96,437.47,685.87,442.49,681.64z M413.51,336.69c11.23-21.47,0.53-59.63-10.84-75.15
				c-19.47-3.45-42.65,1.54-63.43,3.13c0.41,29.24-0.2,52.78,4.41,77.4C366.24,339.6,388.44,336.76,413.51,336.69z M407.25,489.58
				c-4.12-45.021,3.03-120.45-50.11-110.061c-5.659,34.44-10,80.86,2.801,111.86C373.63,496.19,392.1,490.12,407.25,489.58z
				 M394.88,174.51c1.48-9.14,0.78-19.74-2.57-26.86c-21.489,0.4-39.859,2.69-62.34,4.19c-0.189,10.75,1.44,19.64,3.66,27.91
				C357.13,181,372.54,174.39,394.88,174.51z M387.51,255.32c16.53-13.57,4.4-53.21-12.72-57.91c-13.13-3.6-23.28,4.04-38.7,2.75
				c2.71,18.34,2.53,39.64,4.141,59.12c8.21-1.26,18.449,0.56,25.77-3.63c3.67-8.51,1.62-21.81,2.76-30.17
				c2.55,10.13,2.36,19.69,1.561,31.18C375.63,255.81,381.01,255.02,387.51,255.32z M360.33,657.08
				c2.87,15.25,13.02,28.82,31.58,24.26c-6.78-6.85-11.66-15.66-15.46-25.59C371.54,657.99,366,658,360.33,657.08z M374.7,192.04
				c-0.3-5.16-2.79-8.05-4.48-11.77c-11.81,0.99-24.739,5.08-36.54,2.71c-0.35,5.1,0.48,8.97,1.271,12.89
				C349.78,194.78,361.6,192.38,374.7,192.04z M359.19,652.79c6.02-2.1,14.18,4.45,15.029-2.38c-2.27-4.67-10.68-0.76-15.08-0.851
				C359.16,650.64,359.17,651.71,359.19,652.79z M354.61,145c9.939-13.19,1.42-39.03-12.511-43.92c3.301,6.81,8.15,17.8,5.79,26.81
				c-2.26-12.42-4.26-30.32-18.699-26.61c1.84,6.86,6.85,16.23,5.729,22.5c-3.83-7.7-3.29-19.92-14.3-20.22
				c-0.28-1.65-1.78-0.13-2.14,1.11c6.97,11.03,6.909,29.3,10.359,43.95c4,0.71,4.59-1.9,8.59-1.2
				c2.311-4.48,2.101-11.39,4.061-16.21c0.93,6.56-1.26,10.09-0.83,16.16C345.21,146.48,348.87,144.73,354.61,145z M354.59,633.49
				c0.33-54.681-1.64-118.94-5.92-175.29C351.01,511.26,344.68,576.93,354.59,633.49z M350.45,644.32
				c-9.141-104.84,0.78-192.87-12.09-296.791c-44.29,2.08-90.311,1.72-134.351,9.6c2.78,0.22-1.45,1.88,0.06,4.3
				c20.87,1.271,59.75-5.68,64.76,13c1.99,7.4-0.89,22.811-2.71,33.391c-4.9,28.479-17.67,62.35-26.71,82.189
				c4.74,1.66,11.76,0.98,15.12,4.07c0.31,7.33,1.08,14.189,3.53,19.31c4.79,1.98,11.66,1.82,17.26,2.971
				c14.35,20.93,5.06,51.189,16.18,72.909c5.08,9.9,18.08,15.95,23.04,28.7c3.22,8.271,1.9,15.11,5.76,24.66
				C330.07,644.24,337.68,644.3,350.45,644.32z M315.04,650.24c12.6-1.971,27.08,5.45,36.57-0.561c-9.811-0.729-23.42-4.5-31.21-0.6
				c-9.23-9.05-3.96-16.61-7.96-27.85c-5.061-14.2-22.561-21.49-26.331-32.95c-7.7-23.391,0.38-50.25-15.04-68.63
				c-6.2,0.56-10.28-1.061-15.1-1.92c-2.22-2.811-1.27-8.891-3.41-11.78c-1.48,13.59-15.44,11.47-25.58,15.45
				c-7.3,2.869-18.25,8.76-24.51,15.439c-3.1,3.311-4.57,8.88-8.43,11.97c-5.91,4.74-26.36,13.49-33.13,14.5
				c-23.36,3.45-46.51-5.329-65.88-16.21c3.09,30.45,21.7,53.03,34.54,76.94c30.09-0.22,56.73,0.81,83.8-7.74
				c-1.18-11.17-10.68-19.569-9.07-29.99c6.09,16.45,8.42,32.83,29.55,31.82c1.44,3.25,0.82,8.62,3.39,10.71
				c-8.55-21.189,10.41-35.609,24.16-38.03C291.96,585.43,312.22,626.48,315.04,650.24z M335.26,286.25
				c1.721,3.26,0.88-4.68,0.98-6.47c-1.29-4.86,2.34-14.8-2.4-16.1c-1.08,1.9,0.36,10.52,1.29,13.97
				C335.18,280.51,335.22,283.38,335.26,286.25z M334.85,259.36c4.54-4.3,1.23-11.07,0.79-18.31c-0.87-14.34,2.88-36.22-6-40.79
				c-3.029,4.95,0.141,11.76,0.261,17.21C330.21,231.31,326.76,248.84,334.85,259.36z M338.28,342.16
				c-1.44-27.67-4.75-53.39-9.8-77.32c-42.09,1.89-101.34,4.63-148.351,8.73c2.36,23.11,1.65,56.75,9.79,77.32
				C242.43,347.04,283,345.55,338.28,342.16z M330.63,194.86c2.12-2.61,1.14-11.32-2.33-11.8
				C329.44,186.63,326.1,194.8,330.63,194.86z M330.38,178.73c-0.01-1.08-0.03-2.15-0.05-3.23c-0.09-1.99-0.84-2.42-1.14-4.28
				C327.08,157.86,326.76,174.62,330.38,178.73z M305.18,218.93c2.34,18.89,5.801,41.84,23.23,41.6
				c-2.061-20.75-4.391-42.26-5.24-61.25c-41.08-23.74-60.1,70.08-9.82,61.48C312.52,249.89,302,233.91,305.18,218.93z
				 M309.05,190.89c4.82,0.86,8.271,3.13,14.03,3.01c-0.41-3.94,0.78-9.53-1.25-11.81c-5.23,1.35-15.88-2.02-16.12,1.32
				C307.48,185.23,309.02,187.28,309.05,190.89z M324.54,148.69c-1.1-11.61-1.94-23.5-5.87-32.19
				C320.05,127.82,320.51,140.1,324.54,148.69z M323.91,177.75c-1.9-7.15-0.72-17.47-3.59-23.61
				c-38.561,2.08-85.7-13.08-123.72,0.82c-3.65,9.62-1.84,22.79,4.73,27.91C241.03,181.51,282.08,176.57,323.91,177.75z
				 M320.24,148.76c-3.44-15.04-4.69-32.33-10.38-45.03c-2.53-0.31-4.061-1.64-7.54-0.96c-0.891,6.4,4.81,11.75,1.34,17.19
				c0.62-13.64-10.36-25.56-19.67-19.06c12.41,6.64,14.66,31.91,9.34,47.2c5.85-0.58,8.87,1.78,15.08,0.84
				c2.56-1.4-0.73-8.47,2-9.72c-0.41,4.8,0.88,7.83,2.31,10.73C315.58,149.89,318.87,150.26,320.24,148.76z M302.27,99.54
				c16.54-4.45,12.761-42.67,1.44-46.29C311.42,66.6,306.3,86.06,302.27,99.54z M299.04,99.59c8.22-12.58,7.22-39-0.8-51.64
				c-21.53-1.8-26.28,12.67-30.78,27.38c1.4,1.47,5.09,0.58,6.49,2.05c2.16,6.51,2.51,14.89,5.69,20.35
				C286.47,94.31,293.42,96.57,299.04,99.59z M294.35,704.36c39.92-23.551,11.521-111.811-29.669-110.37
				c-10.19,0.359-23.13,9.47-25.52,19.76c-1.16,5,2.69,17.13-0.76,20.46c6.26,7.93-3.62,15.79-5.02,23.74
				C229.48,680.2,263.89,714.02,294.35,704.36z M283.55,211.73c5-9.99,12.47-17.58,24.42-20.82c-8.26-17.08-38.5-5.35-60.34-5.53
				c-8.28-0.07-17.02-2.31-21.46,3.56c0.62,3,1.66,5.57,2.28,8.57c10.65-0.54,16.61,3.28,23.75,5.02
				C264.99,205.63,279.87,203.74,283.55,211.73z M283.27,263.38c3.49-0.15,6.6-0.66,8.57-2.28c-3.2-1.44-4.43-4.91-7.63-6.34
				C285.92,258.11,284.99,260.75,283.27,263.38z M286.87,148.19c12.59-15.28,5.7-56.12-23.28-44.83
				c-12.21,9.71-3.66,34.26,3.89,42.98C274.42,146.46,279.93,148.07,286.87,148.19z M255.3,263.81c8.44,2.15,15.78-1.12,25.81-0.4
				c-1.09-15.26-1.9-30.82-1.8-47.31c-9.93,5.56-18.7,12.24-30.96,15.54C249.75,243.02,254.78,254.98,255.3,263.81z M254.19,121.8
				c-0.18-15.27,7.67-25.09,21.15-24c-0.39-6.52-1.9-11.88-3.49-17.16c-6.5-0.79-18.9,0.34-25.79,2.55
				C247.4,97.47,244.74,115.88,254.19,121.8z M249.34,226.24c10.31-0.22,17.97-8.91,26.68-14.4c-21.4-1.52-52.91-20.65-67.82-2.18
				C223.97,208.61,235.21,226.54,249.34,226.24z M233.98,486.86c17.58-28.471,30.18-70.271,29.46-113.431
				c-11.14-8.899-31.39-8.43-51.77-7.81c-8.8,13.82-15.58,33.09-23.9,55.24c-4.76,12.689-20.09,47.739-16.23,63.739
				C175.28,500.13,217.37,487.61,233.98,486.86z M264.23,145.31c-4.3-5.39-5.95-13.52-8.92-20.3c-9.91,0.11-14.5-0.12-24.75-0.7
				c2.7,6.2,3.18,15.49-0.77,20.46C244.54,142.92,252.06,147.85,264.23,145.31z M244.06,512.53c3.48-4.391,6.72-9.021,7.28-16.25
				c-6.54-1.271-13.37-2.24-18.37-5.101c-15.91,1.53-37.63,7.28-53.74,4.061c-6.13-1.23-9.68-6.86-15.14-5.15
				c4.88,10.11,16.13,9.37,22.76,10.41c-10.18,3.92-19.78-2.18-28.04-3.87c-25.33,11.11-48.1,24.71-62.77,46.15
				c23.04,16.51,70.46,21.67,96.91,4.97C199.38,525.73,222.34,519.73,244.06,512.53z M253.16,264.92
				c-4.04-10.41-5.72-23.24-9.13-34.29c-13.91-5.7-22.87-16.49-41.16-17.66c-2.23,15.51,4.16,35.88,6.2,53.7
				C221.72,264.1,238.73,265.76,253.16,264.92z M235.38,648.24c-0.11-9.71-3.5-16.061-3.62-25.771
				c-14.08-7.43-27.82,2.511-46.19,5.021c-12.28,1.67-25.46-0.7-36.59-0.521c-9.09,0.15-19.47,4.42-28-1.72
				c0.5-2.44,5.24-2.43,2.07-5.41c-8.3,0.43-15.79,1.641-20.36,5.69c-0.35,10.56,0.92,19.45,3.64,26.85
				c32.34,6.39,70.57,3.7,105.4-2.7c3.04,0.15,1.43,5.09,5.45,4.221C222.9,651.68,230.62,651.39,235.38,648.24z M228.65,140.48
				c1.99-4.01,1.35-13.41-1.32-16.12c-2.15,0.04-4.3,0.07-6.46,0.1C217.23,129.6,219.41,141.99,228.65,140.48z M222.61,657.04
				c-22.24-5.84-39.6,4.29-63.44,3.13C164.15,691.72,217.14,680.7,222.61,657.04z"/>
			<path fill="#6D9D31" d="M335.64,241.05c0.44,7.24,3.75,14.01-0.79,18.31c-8.09-10.52-4.64-28.05-4.949-41.89
				c-0.12-5.45-3.29-12.26-0.261-17.21C338.52,204.83,334.77,226.71,335.64,241.05z"/>
			<path fill="#6D9D31" d="M374.79,197.41c17.12,4.7,29.25,44.34,12.72,57.91c-6.5-0.3-11.88,0.49-17.189,1.34
				c0.8-11.49,0.989-21.05-1.561-31.18c-1.14,8.36,0.91,21.66-2.76,30.17c-7.32,4.19-17.56,2.37-25.77,3.63
				c-1.61-19.48-1.431-40.78-4.141-59.12C351.51,201.45,361.66,193.81,374.79,197.41z"/>
			<path fill="#6D9D31" d="M328.41,260.53c-17.43,0.24-20.891-22.71-23.23-41.6c-3.18,14.98,7.34,30.96,8.17,41.83
				c-50.28,8.6-31.26-85.22,9.82-61.48C324.02,218.27,326.35,239.78,328.41,260.53z"/>
			<path fill="#6D9D31" d="M227.33,124.36c2.67,2.71,3.31,12.11,1.32,16.12c-9.24,1.51-11.42-10.88-7.78-16.02
				C223.03,124.43,225.18,124.4,227.33,124.36z"/>
			<path fill="#6D9D31" d="M255.31,125.01c2.97,6.78,4.62,14.91,8.92,20.3c-12.17,2.54-19.69-2.39-34.44-0.54
				c3.95-4.97,3.47-14.26,0.77-20.46C240.81,124.89,245.4,125.12,255.31,125.01z"/>
		</g>
	</g>
</g>
<g id="Layer_6_x23_F7931D">
	<g>
		<g>
			<path fill="#F7941E" d="M336.24,279.78c-0.101,1.79,0.74,9.73-0.98,6.47c-0.04-2.87-0.08-5.74-0.13-8.6
				c-0.93-3.45-2.37-12.07-1.29-13.97C338.58,264.98,334.95,274.92,336.24,279.78z"/>
			<path fill="#F7941E" d="M274.78,134.79c-0.16-2.42,0.62-3.94,3.22-3.67c0.03,3.61,1.57,5.66,3.35,7.48
				c-3.45-7.38-1.16-20.67-4.74-27.91c-1.83,1.65,2.96,12.58-1.93,14.02c-1.68-2.68-6.76-7.54-8.71-6.32
				c3.23,1.41,4.54,4.79,6.57,7.43c-2.36,1.81-5.83-0.14-6.44,1.17C270.36,128.19,274.22,129.79,274.78,134.79z M274.78,134.83
				c0.02,0.21,0.04,0.42,0.06,0.64C274.83,135.25,274.81,135.04,274.78,134.83z M263.59,103.36c28.98-11.29,35.87,29.55,23.28,44.83
				c-6.94-0.12-12.45-1.73-19.39-1.85C259.93,137.62,251.38,113.07,263.59,103.36z"/>
			<path fill="#F7941E" d="M318.67,116.5c3.93,8.69,4.771,20.58,5.87,32.19C320.51,140.1,320.05,127.82,318.67,116.5z"/>
			<path fill="#F7941E" d="M342.1,101.08c13.931,4.89,22.45,30.73,12.511,43.92c-5.74-0.27-9.4,1.48-13.95,2.37
				c-0.43-6.07,1.76-9.6,0.83-16.16c-1.96,4.82-1.75,11.73-4.061,16.21c-4-0.7-4.59,1.91-8.59,1.2
				c-3.45-14.65-3.39-32.92-10.359-43.95c0.359-1.24,1.859-2.76,2.14-1.11c11.01,0.3,10.47,12.52,14.3,20.22
				c1.12-6.27-3.89-15.64-5.729-22.5c14.439-3.71,16.439,14.19,18.699,26.61C350.25,118.88,345.4,107.89,342.1,101.08z"/>
			<path fill="#F7941E" d="M309.86,103.73c5.689,12.7,6.939,29.99,10.38,45.03c-1.37,1.5-4.66,1.13-7.521,1.19
				c-1.43-2.9-2.72-5.93-2.31-10.73c-2.73,1.25,0.56,8.32-2,9.72c-6.21,0.94-9.23-1.42-15.08-0.84c5.32-15.29,3.07-40.56-9.34-47.2
				c9.31-6.5,20.29,5.42,19.67,19.06c3.47-5.44-2.23-10.79-1.34-17.19C305.8,102.09,307.33,103.42,309.86,103.73z"/>
			<path fill="#F7941E" d="M328.3,183.06c3.47,0.48,4.45,9.19,2.33,11.8C326.1,194.8,329.44,186.63,328.3,183.06z"/>
			<path fill="#F7941E" d="M323.08,193.9c-5.76,0.12-9.21-2.15-14.03-3.01c-0.03-3.61-1.569-5.66-3.34-7.48
				c0.24-3.34,10.89,0.03,16.12-1.32C323.86,184.37,322.67,189.96,323.08,193.9z"/>
			<path fill="#F7941E" d="M402.67,261.54c11.37,15.52,22.07,53.68,10.84,75.15c-25.069,0.07-47.27,2.91-69.859,5.38
				c-4.61-24.62-4-48.16-4.41-77.4C360.02,263.08,383.2,258.09,402.67,261.54z"/>
			<path fill="#F7941E" d="M370.22,180.27c1.69,3.72,4.181,6.61,4.48,11.77c-13.101,0.34-24.92,2.74-39.75,3.83
				c-0.79-3.92-1.62-7.79-1.271-12.89C345.48,185.35,358.41,181.26,370.22,180.27z"/>
			<path fill="#F7941E" d="M328.48,264.84c5.05,23.93,8.359,49.65,9.8,77.32c-55.28,3.39-95.85,4.88-148.36,8.73
				c-8.14-20.57-7.43-54.21-9.79-77.32C227.14,269.47,286.39,266.73,328.48,264.84z"/>
		</g>
	</g>
</g>
</svg>
