<?xml version="1.0" encoding="utf-8"?>
<!-- Generator: Adobe Illustrator 14.0.0, SVG Export Plug-In . SVG Version: 6.00 Build 43363)  -->
<!DOCTYPE svg PUBLIC "-//W3C//DTD SVG 1.0//EN" "http://www.w3.org/TR/2001/REC-SVG-20010904/DTD/svg10.dtd">
<svg version="1.0" id="Layer_1" xmlns="http://www.w3.org/2000/svg" xmlns:xlink="http://www.w3.org/1999/xlink" x="0px" y="0px"
	 width="612px" height="792px" viewBox="0 0 612 792" enable-background="new 0 0 612 792" xml:space="preserve">
<g>
	<path fill-rule="evenodd" clip-rule="evenodd" d="M255.725,249.556c9.562-6.063,17.854-16.97,27.375-26.415
		c2.329-2.31,7.869-7.24,11.046-6.724c5.611,0.911,5.109,13.571,4.323,20.651c-2.07,18.647-22.497,44.025-36.02,55.711
		c-4.928,4.259-11.074,6.083-11.526,14.888c7.971-2.344,13.232-6.29,20.651-10.566c4.993-2.877,24.891-18.63,23.053-0.961
		c-1.092,10.505-9.29,19.479-15.849,27.856c-6.658,8.502-15.1,15.197-20.652,22.572c8.443,0.435,18.27-11.128,25.935-9.605
		c4.678,0.93,7.03,8.141,5.283,13.447c-4.891,14.853-23.518,28.654-34.579,36.02c6.322,2.163,12.396,4.573,18.25,7.204
		c0.423-11.427,3.535-19.595,11.046-26.415c8.037-7.649,22.558-10.589,18.25-29.776c6.827,3.542,11.365,10.76,9.125,21.612
		c-2.433,11.783-23.09,18.394-22.572,31.217c0.104,2.563,1.86,7.175,5.283,7.205c6.962,0.057,3.378-11.16,6.244-16.33
		c1.561-2.816,3.809-3.751,7.204-4.803c-0.71,4.011-1.644,9.948,2.044,11.884c9.892-16.775,8.088-49.01,21.969-63.752
		c6.026-6.4,14.425-12.887,22.093-18.731c39.013-29.73,74.229-59.748,105.659-97.974c8.131-9.891,16.884-22.672,24.493-36.5
		c1.299-2.362,5.611-11.795,8.164-12.007c4.329-0.359,8.144,9.914,8.979,15.849c4.875,34.67-4.316,67.243-36.834,102.346
		c-3.145,3.587-9.503,8.08-11.526,11.958c-0.321,3.613-0.984,8.148-3.842,12.967c11.758-3.694,21.339-9.511,32.178-15.849
		c6.716-3.927,15.319-6.556,17.29,3.362c2.51,12.633-4.778,19.688-10.086,26.895c-9.05,12.287-23.475,24.482-34.099,33.619
		c5.27-0.806,8.794-3.057,14.407-4.803c3.883-1.208,12.056-3.71,15.369-0.48c6.05,5.899-3.841,19.161-7.204,23.053
		c-10.177,11.776-26.409,23.248-38.422,30.258c10.956-3.106,16.605,2.98,12.968,12.967c-2.818,7.732-11.587,13.717-20.172,18.25
		c-9.166,4.84-18.937,9.217-26.414,12.006c5.812,1.072,11.48,2.287,10.085,10.566c8.085-1.84,10.258-9.594,12.968-16.811
		c4.254,4.885,3.086,17.406-0.103,22.836c-8.979,13.707-34.697,19.273-37.357,41.041c11.967-3.729,23.558-11.977,28.815-24.014
		c2.933,2.785,0.401,8.896-0.481,12.486c-2.861,11.654-9.01,17.816-19.21,23.053c-3.337,1.715-9.497,3.543-10.085,5.764
		c-1.23,4.639,4.989,7.422,6.242,7.684c2.613,0.547,6.183-0.535,8.165-1.439c7.564-3.455,14.898-12.664,19.691-20.652
		c5.242-8.738,7.495-19.074,10.085-29.777c5.984-24.727,10.805-49.783,25.387-68.129c9.321-11.728,29.441-25.822,47.614-29.364
		c4.451-0.868,10.294-1.652,14.408,1.921c-38.999,12.35-65.525,41.664-68.679,82.605c-0.627,8.143,1.056,15.816,0.48,24.494
		c-0.473,7.135-3.621,15.482-7.204,21.133c-2.682,4.229-10.934,13.117-9.124,17.77c1.357,3.492,7.18,4.279,12.006,2.881
		c6.918-2.004,12.462-13.164,12.612-21.33c0.168-9.17-3.959-13.793-4.448-19.973c-1.028-12.992,5.111-19.998,11.527-26.414
		c8.919-8.92,23.976-17.008,17.769-36.021c6.659,5.781,11.765,15.27,8.646,25.936c-1.398,4.779-6.419,9.809-9.606,13.447
		c-3.025,3.453-8.759,9.547-8.164,14.889c1.195,10.748,15.691,5.168,18.73-1.922c5.429-11.307,0.001-24.297,6.243-40.342
		c4.175-9.271,14.851-19.064,22.572-21.611c3.81-1.258,8.587-1.217,13.447-0.48c-3.749,4.488-8.241,7.51-11.525,11.525
		c-3.436,4.201-7.474,9.014-9.126,13.928c-3.991,11.869,0.871,24.609,0.479,35.539c-0.544,15.248-6.127,25.184-16.809,29.777
		c-4.222,1.816-15.84,2.113-18.73,6.725c-2.628,4.191-1.851,11.586-3.361,16.328c-3.23,10.139-10.777,20.029-18.73,24.975
		c-8.236,5.119-23.887,7.586-33.618,12.486c-6.333,3.188-14.675,12.883-4.322,18.73c9.394,5.305,24.005,0.074,30.736-4.803
		c15.603-11.305,27.805-38.859,58.112-36.5c5.648,0.439,13.422,1.461,15.849,7.684c-15.26-0.551-29.342,5.941-36.98,14.889
		c-7.159,8.387-10.303,19.475-18.73,26.895c-11.633,10.244-25.027,13.688-44.185,17.291c-0.997,1.996,2.441,3.176,1.441,6.723
		c-3.995-5.379-12.676-7.553-21.132-4.322c-7.99,3.051-11.782,11.424-18.73,13.928c-15.883,5.725-24.58-13.766-43.705-8.645
		c1.494,3.631,9.273,5.131,12.968,8.164c-4.878,3.59-13.745,3.535-20.651,1.441c-8.088-2.453-12.823-8.613-23.053-8.166
		c-4.418,0.193-18.809,2.957-14.408,9.605c2.475,3.74,19.29-2.432,26.895-1.439c10.756,1.4,15.813,8.234,21.131,14.887
		c-5.713-2.879-11.358-5.246-19.69-4.322c-8.668,0.963-15.639,6.326-22.573,8.166c-6.362,1.686-16.471,1.088-19.69-2.883
		c-1.124-1.385-0.358-4.703-2.402-5.764c-4.936-2.557-11.132,9.455-13.928,11.047c-10.891,6.205-18.821-3.885-28.815-1.922
		c-12.788,2.514-18.813,9.68-34.099,9.607c-7.725-0.037-14.345-3.795-21.612-4.324c-3.843-0.279-6.598,0.807-9.605,0.961
		c-16.899,0.871-29.944-2.973-43.224-6.723c-40.65-11.482-61.924-47.568-65.316-96.535c-1.058-15.275,2.87-36.391,7.204-50.908
		c8.976-30.059,24.189-56.979,44.185-75.881c3.828-3.619,9.372-6.625,12.967-11.047c7.681-9.443,13.259-32.737,15.369-47.545
		c2.708-19.014,1.914-39.423,10.085-52.83c4.219-6.924,11.04-12.465,16.329-19.21c15.422-19.667,32.062-37.814,48.027-58.592
		c15.443-20.101,28.73-41.754,41.303-65.317c4.661-8.736,9.212-19.797,15.849-26.415c7.639-7.617,10.157,13.512,10.565,19.211
		C291.259,198.455,270.3,227.767,255.725,249.556L255.725,249.556z M540.522,471.439c0.48,0,0.96,0,1.44,0
		c3.999,10.322,3.299,23.115-4.322,30.736c-3.545,3.545-15.451,4.861-15.368,9.605c0.023,1.34,1.5,2.969,2.882,3.361
		c7.435,2.121,13.649-5.082,17.77-6.725c-1.412,8.715-5.396,14.104-13.447,16.811c-6.08,2.045-14.179,0.305-20.651,2.883
		c-7.984,3.178-10.865,8.928-17.971,11.865c-2.269,0.938-15.473,3.234-15.647,0.621c6.889-2.746,10.145-5.436,11.525-6.725
		c3.959-3.693,5.227-9.787,7.686-14.887c2.354-4.885,7.394-10.377,12.006-13.449c7.471-4.975,15.676-5.566,21.612-10.086
		C534.49,490.541,541.074,483.33,540.522,471.439L540.522,471.439z M537.641,356.656c6.469,11.42,4.98,28.461-4.803,35.54
		c-10.064,7.281-24.948,1.929-36.499,7.203c-2.981,1.361-4.722,3.947-7.686,4.803c8.26-16.735,27.292-12.336,38.901-25.934
		C534.201,370.431,534.873,357.614,537.641,356.656L537.641,356.656z M527.555,295.181c-4.244,6.407-9.854,9.212-8.414,20.955
		c1.195,9.744,4.88,15.581,3.132,23.23c-4.273,18.7-30.42,12.161-36.02,32.658c-2.828-2.891-1.503-6.911-0.96-9.125
		c2.151-8.797,11.797-14.633,15.779-23.533c4.594-10.267,2.049-27.188,7.753-36.02C512.563,297.558,520.048,295.419,527.555,295.181
		L527.555,295.181z M338.33,303.826c-1.562,3.57-5.338,4.709-7.684,7.685c-6.684,8.478-10.442,19.854-12.968,32.658
		c-1.959-0.308-2.626-3.207-3.361-5.282c-1.675-4.725-5.096-13.223-2.882-20.652C314.455,308.102,327.179,302.845,338.33,303.826
		L338.33,303.826z"/>
	<path fill-rule="evenodd" clip-rule="evenodd" fill="#5D6967" d="M209.139,394.596c1.572,1.024-2.338,2.888-3.842,3.843
		c-5.833,3.697-11.471,6.967-16.809,11.525c-13.424,11.461-25.333,24.213-33.619,41.303c-3.966,8.18-9.236,17.268-8.165,27.375
		c12.334-26.834,28.852-51.723,54.271-66.756c10.566-6.25,19.393-13.449,34.579-13.447c-21.92,10.031-39.92,26.252-53.31,46.586
		c-7.711,11.709-15.586,22.568-16.809,39.381c2.37-1.027,3.398-4.195,4.323-6.244c12.225-27.107,28.415-46.516,53.309-62.434
		c11.519-7.365,22.979-11.779,40.343-11.527c-60.113,17.615-92.095,74.949-97.494,145.041c-1.457,18.904-0.254,41.871,4.802,57.152
		c0.997,3.01,2.09,6.285,3.362,9.605c1.875,4.893,4.073,7.979,3.362,13.926c-2.188,0.477-4.387-3.486-6.244-6.242
		c-8.234-12.229-12.416-32.057-13.927-52.83c-1.1-15.104,2.817-30.543,2.401-44.184c-7.813,13.859-10.586,36.768-9.605,59.072
		c0.806,18.338,8.044,33.871,12.007,47.547c-8.283-4.906-12.452-15.936-16.329-26.416c-3.849-10.4-7.118-22.105-7.685-34.578
		c-0.431-9.494,1.358-23.477-0.96-30.738c-3.742,4.596-4.781,11.832-5.283,18.732c-0.817,11.227-0.801,25.756,0.96,36.98
		c2.085,13.283,7.359,24.83,10.566,33.617c-6.168-2.236-8.707-9.246-12.007-14.887c-3.442-5.889-5.545-11.869-7.685-18.73
		c-4.315-13.846-9.354-28.537-8.645-44.666c0.127-2.9,1.975-8.129-1.441-9.605c-4.015,5.176-3.044,13.92-3.362,21.133
		c-0.927,21.092,3.23,43.943,10.566,58.111c-7.608-4.438-12.695-14.074-16.809-24.014c-5.213-12.592-9.054-28.541-7.685-46.586
		c0.241-3.176,2.571-8.365-0.48-11.045c-9.793,16.711-5.825,49.203,1.921,64.836c-2.286,0.393-3.192-2.873-4.323-4.803
		c-6.179-10.537-10.25-22.812-11.526-39.381c-0.899-11.668,2.707-22.977,2.401-33.621c-3.414,1.549-4.017,5.91-5.763,9.127
		c-2.244-29.256,12.066-55.523,22.572-76.844c1.199,2.359-2.335,8.602,0.48,11.047c9.467-22.711,20.904-43.451,40.342-56.191
		c-6.97,7.381-13.064,16.287-18.25,25.934c-4.948,9.207-11.389,19.539-10.085,31.697c2.855-1.543,2.37-4.852,3.362-7.203
		c12.904-30.574,33.165-54.727,64.355-67.236c-18.628,13.641-34.473,31.16-45.625,53.309c-3.524,6.998-8.42,15.201-6.724,24.014
		C146.222,438.939,168.764,407.852,209.139,394.596L209.139,394.596z"/>
	<path fill-rule="evenodd" clip-rule="evenodd" fill="#888A8C" d="M268.692,457.031c-1.693,2.49-2.986,6.02-5.283,6.723
		c-3.246,0.996-4.547-0.715-7.205-0.479c-5.686,0.502-13.31,6.105-17.289,10.086c-15.243,15.24-34.132,66.104-20.171,96.533
		c2.719,5.924,9.5,13.527,17.77,14.408c20.18,2.145,33.772-16.426,40.342-29.297c3.325-6.516,6.892-18.57,8.165-24.975
		c0.041-0.207-0.793-7.637,1.921-8.164c4.914-0.953,1.808,13.846,0.961,17.289c-1.625,6.6-3.375,12.42-5.284,16.809
		c-3.705,8.52-11.995,20.326-18.25,25.455c-6.202,5.084-22.166,14.578-36.5,8.645c-4.769-1.975-11.939-10.504-14.408-15.369
		c-13.696-26.996-3.635-71.576,9.125-93.65c5.557-9.613,15.94-20.451,24.494-24.014
		C253.961,454.164,262.567,453.916,268.692,457.031L268.692,457.031z"/>
	<path fill-rule="evenodd" clip-rule="evenodd" fill="#FFFFFF" d="M374.351,473.84c-4.432,7.141-5.18,32.762-19.211,26.895
		c2-5.098,6.904-6.494,5.764-12.486c-1.244-6.531-10.979-6.852-13.928-12.006C356.687,476.027,366.51,475.924,374.351,473.84
		L374.351,473.84z"/>
	<path fill-rule="evenodd" clip-rule="evenodd" fill="#888A8C" d="M277.817,518.986c0.48,0,0.96,0,1.44,0
		c0.28,19.328-9.195,41.258-21.132,51.867c-5.66,5.031-16.858,11.35-26.415,6.244c4.355,0.492,13.59,1.039,14.888-4.322
		c-8.274,2.291-19.817-0.164-23.053-7.205c4.035-1.447,9.438-3.955,12.007-5.281c3.926,19.385,29.081,2.238,24.974-12.488
		c-1.22-4.375-6.228-8.205-6.244-10.564c-0.023-3.326,6.053-8.152,5.283-12.008c2.791,0.904,6.245,0.371,8.645-0.48
		c5.643,7.535-0.388,17.42-1.441,25.455C274.813,544.156,275.422,530.678,277.817,518.986L277.817,518.986z M261.488,558.848
		c3.421,1.734,7.022-5.176,3.842-7.205C263.879,553.875,262.442,556.119,261.488,558.848L261.488,558.848z"/>
	<path fill-rule="evenodd" clip-rule="evenodd" fill="#888A8C" d="M234.113,524.268c-0.437,7.889-4.943,11.707-12.967,12.008
		c-0.551-2.736,0.814-7.436,0.96-11.047C226.733,525.533,229.722,524.199,234.113,524.268L234.113,524.268z"/>
	<path fill-rule="evenodd" clip-rule="evenodd" d="M265.33,551.643c3.181,2.029-0.421,8.939-3.842,7.205
		C262.442,556.119,263.879,553.875,265.33,551.643L265.33,551.643z"/>
	<path fill-rule="evenodd" clip-rule="evenodd" fill="#FFF200" d="M281.179,598.709c0.229,1.922-4.921,14.438,2.401,15.85
		c2.444,0.471,6.605-3.738,8.165-6.244c2.193-3.521,4.7-11.221,4.803-16.809c0.085-4.631-1.577-10.262-1.441-14.408
		c0.677-20.672,25.899-23.639,38.421-33.619c8.092-6.449,10.709-14.221,15.848-22.092c2.112,14.549-5.511,19.854-13.927,25.934
		c-4.041,2.92-11.812,5.67-10.086,12.488c1.661,6.559,16.863,3.326,21.131,0.48c11.231-7.49,11.988-30.762,22.093-41.785
		c12.376-13.498,34.604-15.021,45.146-29.775c-1.826,17.713-24.049,18.842-35.06,30.258c-9.611,9.963-9.315,29.77-17.77,39.861
		c-3.075,3.67-8.879,7.846-13.928,9.605c-10.652,3.711-34.84,3.102-31.218,21.131c0.751,3.742,6.071,7.674,13.447,6.244
		c8.559-1.658,12.014-12.436,23.054-14.889c7.383-1.641,14.564-0.822,19.69-4.322c7.456-5.092,8.758-17.111,16.329-22.572
		c5.353-3.863,10.652-5.312,18.73-6.725c-3.448,4.018-6.144,4.518-9.125,8.164c-7.016,8.58-5.783,21.691-16.81,26.416
		c-5.15,2.207-12.463,1.381-18.25,3.361c-6.444,2.205-16.647,11.768-11.047,19.211c2.655,3.527,8.585,4.305,12.488,3.361
		c6.416-1.551,11.111-10.264,16.328-12.006c3.521-1.176,8.325,0.17,11.526-0.961c-3.627,4.516-14.676,3.82-15.368,11.527
		c-0.355,3.957,2.132,7.162,5.763,7.684c11.587,1.662,15.306-17.77,29.777-11.047c-3.008,1.982-5.495,1.967-8.165,3.363
		c-8.911,4.656-11.115,15.523-24.494,13.928c-6.399-0.764-11.578-6.762-18.729-8.646c-8.39-2.209-16.152-0.869-25.454,1.441
		c1.932,4.502,9.402,5.926,10.565,9.605c-11.228,0.869-18.036-10.818-30.737-11.047c-8.968-0.16-22.088,4.439-20.651,13.449
		c2.242,14.045,22.207-0.615,33.138,4.801c-5.874,0.154-11.478,4.248-17.77,6.725c-4.26,1.676-15.225,5.859-19.21,1.92
		c-2.176-2.148-1.122-8.49-5.283-9.604c-10.83-2.896-14.206,13.178-24.014,14.408c-5.408,0.678-11.28-4.668-17.29-5.283
		c-9.076-0.93-14.86,5.887-23.533,8.164c-12.813,3.361-24.429,0.334-35.54-3.842c-0.557-1.227,0.294-4.5-1.441-7.686
		c7.396,5.863,16.904,11.623,25.934,8.646c10.611-3.5,13.86-18.029,21.132-23.533c6.245-4.727,14.124-7.023,20.652-11.047
		c6.808-4.197,12.042-8.963,17.77-13.447c-1.803,6.594-8.104,9.41-12.487,14.408c-2.652,3.023-6.75,8.168-6.244,13.447
		c0.621,6.473,6.82,9.354,12.487,7.205c3.838-1.457,8.362-5.879,10.085-11.047C275.279,612.566,274.774,601.812,281.179,598.709
		L281.179,598.709z"/>
	<path fill-rule="evenodd" clip-rule="evenodd" fill="#888A8C" d="M245.639,479.123c-0.138,6.105-6.346,6.141-8.645,10.086
		C237.197,485.373,241.968,479.5,245.639,479.123L245.639,479.123z M265.33,513.703c9.151,4.062-0.132,12.275-9.572,6.152
		C259.15,517.805,265.78,519.596,265.33,513.703L265.33,513.703z M231.231,537.236c2.881-1.762,5.045-4.24,6.724-7.205
		c12.918,3.238,26.189,21.945,14.408,31.697c-1.759,1.457-8.104,5.045-11.526,3.363c-2.336-1.15-1.514-7.201-2.401-11.047
		C236.715,546.59,234.212,542.232,231.231,537.236L231.231,537.236z"/>
	<path fill-rule="evenodd" clip-rule="evenodd" fill="#5D6967" d="M300.39,527.629c3.748-1.533,3.728-6.836,3.842-12.006
		c3.519,7.029,0.216,17.596-0.48,24.975c5.965-3.641,5.796-13.414,6.244-22.572c1.816,1.385,0.873,5.529,2.401,7.203
		c3.931-3.775,3.022-14.334,3.361-20.17c2.298,2.473,1.71,7.721,1.441,12.967c-0.402,7.828-2.19,27.152-5.764,31.697
		c-1.524,1.939-9.859,5.936-12.006,8.164c-3.081,3.197-7.318,8.518-8.165,14.408c-1.079,7.51,1.648,15.877,0.48,23.533
		c-0.111,0.729-2.962,15.021-7.204,13.447c-5.613-2.082,6.469-18.674,1.921-25.455c-2.306,0.562-2.002,3.982-2.882,5.764
		c-1.981,4.014-11.026,11.375-12.967,19.691c-2.065,8.85-2.4,18.264-12.967,17.289c2.789-2.494,6.972-3.594,7.684-8.164
		c-2.468-0.4-6.536,3.445-10.565,1.441c5.517-13.658,25.294-20.244,23.053-40.344c-0.098-0.875-0.561-2.377-1.441-3.361
		c-7.787,18.602-23.833,28.123-42.744,37.461c-2.616,1.291-6.472,4.605-7.684,4.803c-7.083,1.154-18.794-7.953-21.612-13.928
		c2.234,1.797,4.62,2.824,8.645,4.322c2.069,0.771,8.797,3.859,9.605,0.48c0.427-1.785-4.755-3.465-5.283-3.842
		c-3.547-2.539-7.404-6.852-9.125-10.566c2.437,1.564,4.759,3.246,8.165,3.842c-4.785-6.102-11.919-9.852-15.849-16.809
		c-3.103,4.162,2.643,9.963,3.842,14.408c-2.364,1.107-2.864-2.703-4.322-4.803c-2.626-3.783-6.552-8.141-8.165-13.447
		c-2.714,8.85,2.378,18.072,4.322,25.453c-7.177-7.697-10.965-20.85-12.007-33.137c-4.435,5.264-1.089,13.707,0,19.689
		c2.329,12.779,7.949,25.971,16.81,31.697c-12.231-4.648-20.494-23.188-22.573-41.303c-1.223-10.65,2.842-21.584,1.921-32.178
		c-3.905,5.088-4.745,13.723-5.283,21.613c-2.207,32.361,11.398,58.389,36.5,63.873c-1.62,3.32-5.676,0.98-7.684,0.482
		c-22.297-5.547-31.003-36.102-32.178-61.955c-2.05-45.133,9.708-86.557,27.375-114.303c6.592-10.352,16.146-19.328,24.975-26.895
		c9.963-8.543,21.991-15.227,34.098-17.77c6.718-1.412,20.249-2.529,26.896,0.479c3.983,1.803,10.499,6.039,8.164,10.566
		c-5.058-3.479-9.929-7.277-16.809-8.164c-15.637-2.02-31.541,6.902-39.382,13.928c9.6-2.785,26.905-13.07,39.382-4.322
		c-5.597-1.939-14.437-0.891-17.77,2.4c10.042,0.523,19.587,1.545,24.974,6.725c-4.769-0.184-15.399-4.195-21.131-0.48
		c3.157,2.285,8.84,2.045,11.527,4.803c-0.042,2.039-4.281-0.119-4.323,1.92c1.517,3.348,6.611,2.07,7.205,5.283
		c0.546,2.959-3.214,3.613-4.322,6.725c-34.413-12.205-55.85,22.426-64.356,49.467c-3.36,10.682-5.229,19.037-6.243,31.217
		c-2.292,27.529,5.098,63.131,33.618,64.355c12.395,0.533,22.15-5.389,29.296-11.045c7.227-5.721,14.014-14.891,18.25-22.092
		c5.918-10.064,10.808-25.865,12.007-40.824c0.136-1.691-0.772-6.584,1.441-7.203C300.79,515.879,298.466,525.223,300.39,527.629
		L300.39,527.629z M201.936,617.439c6.373,0.033,11.294,5.674,20.17,4.803c0.259,1.859-1.224,1.979-1.44,3.361
		C212.793,624.512,206.611,621.729,201.936,617.439L201.936,617.439z"/>
	<path fill-rule="evenodd" clip-rule="evenodd" fill="#F79239" d="M489.614,385.472c-22.854,16.597-42.04,43.642-41.783,84.046
		c0.096,15.137,0.27,22.131-9.784,36.186c-2.997,4.318-8.827,10.971-8.466,16.645c0.396,6.221,7.097,12.23,16.329,10.564
		c9.465-1.705,18.263-14.695,19.69-24.973c1.816-13.07-6.708-19.754-4.071-31.488c3.957-17.611,24.378-22.629,28.921-40.312
		c3.598,16.941-16.329,25.393-18.605,36.74c-2.126,10.594,9.237,16.73,18.729,12.488c4.047-1.809,8.082-6.85,9.606-10.566
		c3.686-8.99,0.582-20.527,3.11-30.736c3.767-15.201,13.832-26.568,24.264-28.336c-9.731,9.746-16.633,18.35-17.77,33.139
		c-0.771,10.043,2.928,20.916,1.921,30.256c-0.611,5.678-3.244,12.979-7.684,16.328c-6.604,4.986-20.676,2.77-25.454,9.125
		c-3.103,4.129-2.289,9.65-3.842,15.369c-4.303,15.842-14.847,26.277-29.776,31.697c-11.21,4.07-33.817,6.25-33.139,23.053
		c0.444,11.008,14.602,16.268,27.375,14.408c19.388-2.82,26.7-20.973,39.382-31.697c8.638-7.307,19.831-14.686,36.5-13.447
		c-12.58,2.947-24.221,10.25-31.217,19.211c-7.155,9.162-11.095,20.812-21.612,27.375c-4.864,3.035-11.003,5.227-17.771,7.684
		c-5.6,2.035-13.95,4.98-20.651,4.322c-6.443-0.631-11.04-5.162-19.69-4.322c-3.817,0.371-7.443,2.031-10.085,3.844
		c-3.388,2.322-6.061,8.057-12.487,6.242c2.425-10.631,21.314-7.402,16.81-24.012c-2.694,1.49-3.28,5.115-6.244,6.242
		c-3.354,1.277-9.927,0.043-13.928,1.441c-4.025,1.406-6.296,5.131-9.605,8.164c-2.809,2.574-8.863,6.43-12.007,2.881
		c-6.605-7.459,10.462-14.496,15.369-15.369c10.552-1.871,16.683-1.311,20.651-9.125c3.523-6.934,3.46-14.52,8.646-20.65
		c5.365-6.344,17.786-12.654,28.815-9.605c-3.313-5.264-11.39-6.578-16.329-6.725c-17.94-0.529-30.795,8.16-37.461,20.652
		c-1.438,2.695-2.179,6.416-4.322,8.645c-5.449,5.666-16.574,4.225-24.494,7.205c-4.067,1.529-7.102,4.689-10.085,7.203
		c-3.099,2.611-6.26,6.463-11.046,6.244c-3.099-0.143-6.101-3.029-6.244-5.283c-0.39-6.119,11.986-9.027,17.29-10.566
		c7.119-2.064,14.587-4.578,19.691-7.684c16.343-9.947,14.247-34.535,26.414-48.027c7.262,19.93,29.959,3.562,37.461-5.762
		c16.199-20.135,18.047-51.99,27.375-80.686C455.369,411.785,470.185,394.397,489.614,385.472L489.614,385.472z M426.522,449.053
		c-2.087,13.85-24,20.656-32.962,31.512c-5.096,6.174-8.184,13.705-10.085,23.533c-9.422,4.732-15.202,6.336-21.131,13.928
		c-11.281,14.443-6.456,45.031-31.698,40.822c2.061-6.928,11.312-9.074,16.329-15.369c5.731-7.191,10.067-25.197,1.44-32.178
		c-3.041,3.254-2.553,8.238-4.322,12.008c-4.303,9.162-11.49,17.744-21.132,21.131c3.555-10.693,4.841-23.654,4.322-38.422
		c7.004-1.801,17.011-0.598,22.092-4.322c3.439,4.555,9.91,7.346,16.329,2.881c9.248-6.428,7.527-25.93,17.771-32.656
		c1.512-1.314,8.069-1.779,16.329-5.764c5.666-2.732,9.131-6.477,12.007-8.164C413.709,457.141,418.792,455.826,426.522,449.053
		L426.522,449.053z M539.562,488.248c1.195,0.727-2.04,7.963-4.803,10.566c-4.896,4.617-17.043,5.059-16.809,13.447
		c0.201,7.217,10.424,6.914,16.809,5.283c-5.739,7.191-16.806,3.035-26.413,5.283c-7.207,1.684-9.652,8.537-15.387,10.566
		c4.226-8.021,5.143-14.965,11.063-20.652c6.714-6.449,17.942-7.846,25.935-13.928C533.783,495.902,536.94,492.803,539.562,488.248
		L539.562,488.248z M537.641,366.261c3.942,17.822-8.328,27.449-25.453,27.375C522.791,386.63,535.491,381.721,537.641,366.261
		L537.641,366.261z M515.068,302.866c-3.846,15.072,10.172,33.142-2.401,43.704c-4.328,3.637-9.675,4.643-15.368,7.685
		c1.297-4.897,6.167-6.933,8.645-12.967C510.806,329.446,506.45,311.415,515.068,302.866L515.068,302.866z M329.516,308.416
		c-5.754,5.772-11.104,15.354-13.277,24.707C308.853,315.149,327.693,307.303,329.516,308.416L329.516,308.416z M307.113,348.492
		c8.127,19.765-24.864,23.778-21.611,44.664c0.55,3.536,3.439,9.256,10.085,8.645c6.368-0.586,6.472-7.724,7.204-14.888
		c5.364,5.94,4.717,8.365,0.96,16.33c-1.385,2.936-2.854,5.438-3.842,8.164c-0.945-1.041-4.606-4.717-9.605-7.686
		c-3.254-2.256-9.737-3.848-11.526-6.723c-3.617-5.811,0.457-17.478,3.362-22.092C288.356,365.033,305.397,360.558,307.113,348.492
		L307.113,348.492z"/>
	<path fill-rule="evenodd" clip-rule="evenodd" fill="#FFFFFF" d="M490.918,173.401c15.686,46.878-27.939,92.496-39.725,102.089
		c-1.031-3.305-2.837-10.756-7.685-11.046c-4.664-0.278-12.677,11.865-15.368,14.888c-13.908,15.625-31.993,31.124-49.468,40.343
		c10.726-11.527,22.122-22.382,30.257-36.5c-3.651,0.134-5.117,4.036-7.204,6.244c-15.381,16.269-33.518,32.697-55.231,43.224
		c3.172,3.213,12.059-0.958,15.851-2.401c9.654-3.675,16.906-5.522,24.974-10.565c13.534-8.462,27.507-20.366,39.381-31.698
		c5.993-5.719,10.288-13.065,17.29-17.77c5.16,18.517-6.209,33.808-15.849,45.146c-4.595,5.402-10.47,10.276-15.849,14.888
		c-10.506,9.006-25.053,20.173-36.501,24.974c-8.031,3.368-16.342,2.353-22.092,7.204c19.593,1.312,41.315-6.139,59.072-12.487
		c4.703-1.682,13.354-5.538,14.889-4.117c0.359,8.762-6.688,15.21-12.487,19.965c-15.151,12.424-36.32,21.771-62.914,23.053
		c2.335-8.216-5.209-12.676-12.487-8.645c0.173-2.162,5.554-5.069,7.684-8.645c2.629-4.413,3.564-10.143-4.322-8.165
		c3.496-3.746,9.591-10.196,8.165-15.368c-1.304,2.857-12.805,17.542-18.25,20.17c3.655,1.406,7.473-1.165,12.007-0.48
		c-3.227,8.461-12.513,10.861-17.29,17.77c6.231,2.491,13.65-2.365,19.69-1.441c-0.766,12.706-15.14,15.899-22.092,24.014
		c6.56-1.377,12.198-4.67,18.25-9.127c1.512-1.113,3.53-4.101,4.803-4.322c1.946-0.337,7.505,2.164,11.046,2.882
		c27.851,6.061,40.81,1.127,42.744,3.361c-3.951,8.504-14.135,12.6-23.533,15.369c-9.984,2.941-21.76,4.953-34.1,4.803
		c-0.459-2.514,8.883-11.328,1.921-13.447c-3.664-1.117-14.014,3.676-21.131,5.283c-3.302,0.744-5.948-0.422-7.204,1.92
		c8.682,2.295,16.471-1.881,25.454-2.881c-5.653,14.836-22.53,18.451-37.941,23.531c3.828,2.736,16.556,0.646,16.81,2.883
		c-5.153,9.574-17.61,11.844-28.815,15.367c5.123,2.547,11.962,0.348,17.77-1.92c1.649-0.645,3.648-2.254,5.283-2.4
		c6.253-0.568,20.904,5.861,19.69,11.525c-0.873,4.076-16.476,7.363-23.533,7.684c-12.692,0.576-24.479,0.625-31.217-3.361
		c-3.19,6.461,13.922,9.426,12.967,14.889c-0.948,5.424-20.872,5.129-27.855,5.283c4.137,4.686,11.494,1.48,16.809,3.361
		c1.315,1.055,5.221,5.994,7.685,8.645c3.786,4.074,8.429,6.061,8.165,8.164c-2.449,5.135-9.959,5.428-14.888,4.805
		c-9.989-1.268-20.871-6.713-27.375-10.566c-2.68,3.633,1.053,7.893,1.441,11.525c0.417,2.863-6.588,3.283-17.29,3.842
		c-4.968,0.551-15.208,3.076-16.809-0.959c-0.597-1.506,1.72-10.1,2.881-11.527c1.949-2.396,8.193-4.121,11.527-6.244
		c9.957-6.34,19.979-15.34,27.855-24.014c22.309-24.564,40.192-50.234,52.349-86.447c2.424-7.222,5.279-17.022,7.685-26.895
		c2.367-9.723,4.837-21.525,9.556-26.963c17.419-18.018,50.754-41.887,82.655-70.531
		C447.688,236.484,471.599,206.352,490.918,173.401L490.918,173.401z M288.863,487.768c9.433-0.285,14.206-9.691,6.724-15.369
		c9.263-0.26,22.633,0.021,29.296-1.439c1.786,0.99,3.378,3.416,4.322,4.322c2.343,2.248,7.33,5.201,11.526,7.684
		c2.129,1.26,11.729,5.107,12.007,6.725c0.897,5.232-15.486,7.809-21.612,8.164C313.432,498.879,297.532,495.295,288.863,487.768
		L288.863,487.768z M405.088,450.787c-3.918,5.734-11.803,8.479-19.211,11.047c-13.264,4.596-28.808,7.492-48.027,5.283
		c-0.465-1.824,4.845-2.932,4.323-7.891c-0.501-4.758-5.214-5.186-7.204-8.918c12.977-0.182,23.663-2.205,32.657-6.725
		c0.125-0.062,0.831-0.053,0.961,0C378.65,447.578,391.313,449.42,405.088,450.787L405.088,450.787z M369.949,435.342
		c-9.136,12.307-30.127,10.398-46.026,9.203c1.028-2.594,3.984-4.035,4.116-7.535c0.146-3.895-3.231-1.992-4.597-3.512
		c6.345-1.988,11.747-4.516,15.849-7.379c3.094-0.225,10.681,3.002,14.408,4.018C364.287,433.312,369.209,433.1,369.949,435.342
		L369.949,435.342z M443.028,406.604c-1.025,4.27-4.777,7.895-8.164,10.086c-18.063,13.229-41.845,16.795-59.382,19.588
		c2.651-8.145-18.651-5.912-24.185-11.904c16.396-1.062,29.768-3.143,41.983-9.209c3.369-1.676,7.969-4.176,10.566-6.244
		c2.836-0.574,9.3-0.158,14.687-0.396C428.712,408.16,441.904,403.484,443.028,406.604L443.028,406.604z M475.687,352.813
		c-5.087,13.79-17.615,21.882-28.816,29.776c-11.351,8.001-25.255,13.825-38.901,19.211c-1.244-8.068-13.405-4.816-24.013-5.283
		c-9.575-0.421-18.369-2.336-25.455-2.401c18.09-3.651,34.764-8.658,48.987-16.809c3.617-2.073,8.776-5.617,10.086-6.724
		c2.115-0.362,5.239-0.817,7.685-1.441C439.778,365.44,473.28,349.5,475.687,352.813L475.687,352.813z M434.384,349.452
		c-0.116-3.692,0.426-10.086-3.362-11.046c-2.446-0.621-8.07,2.534-11.278,3.858c-10.216,4.215-23.161,9.871-33.386,11.991
		c12.075-8.986,25.543-17.821,37.941-28.335c3.946-3.347,6.446-6.137,11.525-10.566c2.067-0.966,5.255-1.172,7.685-1.921
		c16.111-4.966,29.979-13.056,44.665-21.132c5.272,3.2-7.992,23.985-24.014,36.5C454.75,336.152,444.869,344.057,434.384,349.452
		L434.384,349.452z"/>
	<path fill-rule="evenodd" clip-rule="evenodd" fill="#FFFFFF" d="M278.297,150.621c0.559-1.866,2.113-0.927,2.218,1.235
		c4.876,45.457-20.761,82.649-41.12,105.864c-0.06-3.389,0.06-12.589-3.842-13.168c-2.32-0.344-6.366,5.304-8.165,7.204
		c-15.275,16.136-27.988,34.625-43.224,50.148c-2.516,2.563-6.318,4.451-7.204,8.165c11.159-6.909,20.037-17.769,29.296-27.855
		c9.239-10.065,17.475-21.315,27.375-30.256c3.523,13.611-3.844,27.372-9.604,39.382c-7.741,16.134-14.391,33.334-32.178,38.778
		c-0.86-4.617-0.12-10.854-3.362-11.883c-4.291-1.361-10.889,11.198-13.448,14.408c-5.39,6.763-9.312,10.929-12.967,14.889
		c11.422-4.107,14.861-16.195,24.493-22.092c0.664,22.605-11.5,36.519-23.533,48.027c8.762,1.682,17.361-7.15,24.014-9.125
		c-2.724,22.411-24.345,25.923-41.303,34.1c10.709-26.601,4.979-57.269,14.888-79.725c4.362-9.887,13.896-18.086,21.132-26.415
		c22.163-25.509,42.642-51.471,62.435-79.244C257.399,194.534,268.23,173.828,278.297,150.621L278.297,150.621z M234.696,355.969
		c-0.11,6.533-4.9,11.908-9.228,16.535c-2.139,2.287-7.449,7.669-10.274,8.645c-5.031,0.164-11.284,0.461-16.621,0.96
		c-5.029,0.471-9.395,1.827-14.408,2.402c-0.852-1.518,2.925-4.857,4.323-8.645c1.001-2.442,2.143-5.225,2.298-7.393
		c14.12-1.934,26.165-8.049,38.147-12.504C230.821,355.063,234.728,354.087,234.696,355.969L234.696,355.969z M282.62,345.609
		c1.959,7.371-17.177,29.681-38.809,37.941c-5.26-0.685-13.461-2.502-19.303-2.402c5.598-5.928,11.16-11.892,14.408-20.171
		C257.957,358.922,280.242,343.17,282.62,345.609L282.62,345.609z M285.21,297.618c0.489,3.13-3.551,11.104-5.952,14.337
		c-11.232,16.021-26.169,26.489-39.084,37.404c-8.074-4.687-23.043,8.353-32.956,9.216c11.226-11.028,22.133-21.693,32.178-35.539
		c1.478-2.037,2.879-5.172,3.842-5.763c2.444-1.5,8.858-3.218,12.573-4.391C266.512,309.504,280.733,297.383,285.21,297.618
		L285.21,297.618z M292.728,226.503c0.174,13.276-7.565,39.417-43.727,66.757c-1.295,0.201-2.983-1.416-4.323-1.441
		c-5.53-0.105-11.938,8.796-14.888,11.526c-4.934,4.565-8.687,8.634-13.976,11.526c6.724-11.304,13.151-22.766,18.25-36.5
		c2.208-5.948,1.832-5.208,6.773-8.165c16.477-9.857,33.814-30.255,48.507-42.263C290.545,226.962,292.114,224.996,292.728,226.503
		L292.728,226.503z M241.977,297.653c1.619-1.258,2.12,0.352,2.222,0.891c-0.836,12.445-9.058,21.759-15.849,30.257
		c-10.777,13.485-21.71,26.042-37.461,34.579c-2.229-9.989-9.67,2.132-14.888,2.401c4.784-7.306,8.947-13.054,12.487-22.573
		c0.914-2.458,1.601-7.15,2.882-8.645c0.58-0.676,8.891-5.122,10.085-5.763c3.731-2.003,6.894-3.624,10.566-6.244
		c3.042-2.171,6.205-4.516,9.605-6.724C230.715,309.931,234.854,303.73,241.977,297.653L241.977,297.653z"/>
</g>
</svg>
