<?xml version="1.0" encoding="utf-8"?>
<!-- Generator: Adobe Illustrator 14.0.0, SVG Export Plug-In . SVG Version: 6.00 Build 43363)  -->
<!DOCTYPE svg PUBLIC "-//W3C//DTD SVG 1.0//EN" "http://www.w3.org/TR/2001/REC-SVG-20010904/DTD/svg10.dtd">
<svg version="1.0" xmlns="http://www.w3.org/2000/svg" xmlns:xlink="http://www.w3.org/1999/xlink" x="0px" y="0px" width="648px"
	 height="648px" viewBox="0 0 648 648" enable-background="new 0 0 648 648" xml:space="preserve">
<g id="Layer_1_x23_000000">
	<g>
		<g>
			<path d="M606,330.498c0,3.027,0,6.055,0,9.081c-4.011,86.798-36.892,149.039-82.636,194.784
				c-45.745,45.744-107.986,78.625-194.784,82.636c-3.026,0-6.054,0-9.081,0c-86.798-4.011-149.04-36.892-194.784-82.636
				C78.971,488.618,46.091,426.377,42.08,339.579c0-3.026,0-6.054,0-9.081c1.002-22.002,3.5-43.077,8.172-62.203
				c13.527-55.375,40.504-98.168,74.917-132.581c46.312-46.312,108.365-78.871,194.33-82.635c3.027,0,6.054,0,9.081,0
				c86.798,4.011,149.039,36.891,194.784,82.635C569.108,181.459,601.989,243.701,606,330.498z M575.579,439.469
				c13.224-31.991,23.023-70.301,20.886-115.327c-1.93-40.712-12.77-77.698-27.242-108.516
				c-14.17-30.175-34.772-57.437-57.664-78.549c-44.969-41.507-110.54-78.19-198.416-74.009
				c-42.509,2.024-78.946,12.865-109.424,27.243c-30.742,14.51-57.02,35.283-78.095,58.117
				c-22.343,24.197-40.145,49.642-53.577,82.636c-12.978,31.877-22.059,71.455-19.978,115.326
				c2.005,42.566,12.6,77.131,27.243,108.517c14.169,30.383,34.242,57.114,57.663,78.549
				c45.915,42.037,110.446,77.717,197.962,73.555c82.561-3.935,143.459-37.969,187.065-84.905
				C543.739,498.702,562.015,472.292,575.579,439.469z"/>
		</g>
	</g>
</g>
<g id="Layer_2_x23_F2811C">
	<g>
		<g>
			<path fill="#F08121" d="M596.465,324.142c2.138,45.026-7.662,83.336-20.886,115.327c-13.564,32.823-31.84,59.233-53.577,82.636
				c-43.606,46.937-104.505,80.971-187.065,84.905c-87.516,4.162-152.047-31.518-197.962-73.555
				c-23.421-21.435-43.494-48.166-57.663-78.549c-14.643-31.386-25.237-65.95-27.243-108.517c-2.081-43.872,7-83.449,19.978-115.326
				c13.432-32.994,31.234-58.439,53.577-82.636c21.075-22.834,47.353-43.607,78.095-58.117
				c30.478-14.378,66.915-25.218,109.424-27.243c87.876-4.181,153.447,32.502,198.416,74.009
				c22.892,21.113,43.494,48.375,57.664,78.549C583.695,246.444,594.535,283.429,596.465,324.142z"/>
		</g>
	</g>
</g>
</svg>
