<?xml version="1.0" encoding="utf-8"?>
<!-- Generator: Adobe Illustrator 14.0.0, SVG Export Plug-In . SVG Version: 6.00 Build 43363)  -->
<!DOCTYPE svg PUBLIC "-//W3C//DTD SVG 1.0//EN" "http://www.w3.org/TR/2001/REC-SVG-20010904/DTD/svg10.dtd">
<svg version="1.0" xmlns="http://www.w3.org/2000/svg" xmlns:xlink="http://www.w3.org/1999/xlink" x="0px" y="0px" width="648px"
	 height="648px" viewBox="0 0 648 648" enable-background="new 0 0 648 648" xml:space="preserve">
<g id="Layer_1_x23_000000">
	<g>
		<g>
			<path fill="none" d="M616.38,159.82c0.18,105.39,0.351,210.78,0.521,316.17c-197.74,0.319-395.48,0.649-593.22,0.97
				c-0.58,0.04-1.16,0.07-1.23-0.41c-0.17-105.25-0.35-210.5-0.52-315.75C220.08,160.48,418.23,160.15,616.38,159.82z"/>
			<path fill="#FFFFFF" d="M625.55,475.97c0,2.891,0.01,5.771,0.01,8.65c-2.88,0-5.76,0.01-8.64,0.01
				C621.76,483.71,624.64,480.82,625.55,475.97z"/>
			<path d="M625.03,159.81c0.17,105.39,0.35,210.78,0.52,316.16c-0.91,4.851-3.79,7.74-8.63,8.66
				c-198.15,0.33-396.3,0.66-594.46,0.98c-4.84-0.91-7.73-3.79-8.66-8.63C13.63,371.59,13.46,266.2,13.28,160.82
				c0.91-4.85,3.79-7.74,8.64-8.66c198.15-0.33,396.3-0.65,594.45-0.98C621.22,152.09,624.1,154.97,625.03,159.81z M616.9,475.99
				c-0.17-105.391-0.341-210.78-0.521-316.17c-198.149,0.33-396.3,0.66-594.45,0.98c0.17,105.25,0.35,210.5,0.52,315.75
				c0.07,0.48,0.65,0.45,1.23,0.41C221.42,476.64,419.16,476.31,616.9,475.99z"/>
			<path fill="#FFFFFF" d="M625.02,151.17c0,2.88,0,5.76,0.011,8.64c-0.931-4.84-3.811-7.72-8.66-8.63
				C619.25,151.17,622.13,151.17,625.02,151.17z"/>
			<path fill="#FFFFFF" d="M22.46,485.61c-2.88,0.01-5.76,0.01-8.64,0.02c-0.01-2.89-0.01-5.77-0.02-8.649
				C14.73,481.82,17.62,484.7,22.46,485.61z"/>
			<path fill="#FFFFFF" d="M13.27,152.17c2.88,0,5.76-0.01,8.65-0.01c-4.85,0.92-7.73,3.81-8.64,8.66
				C13.28,157.94,13.27,155.05,13.27,152.17z"/>
		</g>
	</g>
</g>
<g id="Layer_2_x23_F2811C">
	<g>
		<g>
			<path fill="none" d="M625.03,159.81c0.17,105.39,0.35,210.78,0.52,316.16c-0.91,4.851-3.79,7.74-8.63,8.66
				c-198.15,0.33-396.3,0.66-594.46,0.98c-4.84-0.91-7.73-3.79-8.66-8.63C13.63,371.59,13.46,266.2,13.28,160.82
				c0.91-4.85,3.79-7.74,8.64-8.66c198.15-0.33,396.3-0.65,594.45-0.98C621.22,152.09,624.1,154.97,625.03,159.81z M616.9,475.99
				c-0.17-105.391-0.341-210.78-0.521-316.17c-198.149,0.33-396.3,0.66-594.45,0.98c0.17,105.25,0.35,210.5,0.52,315.75
				c0.07,0.48,0.65,0.45,1.23,0.41C221.42,476.64,419.16,476.31,616.9,475.99z"/>
			<path fill="#F08121" d="M616.38,159.82c0.18,105.39,0.351,210.78,0.521,316.17c-197.74,0.319-395.48,0.649-593.22,0.97
				c-0.58,0.04-1.16,0.07-1.23-0.41c-0.17-105.25-0.35-210.5-0.52-315.75C220.08,160.48,418.23,160.15,616.38,159.82z"/>
			<path fill="#FFFFFF" d="M625.55,475.97c0,2.891,0.01,5.771,0.01,8.65c-2.88,0-5.76,0.01-8.64,0.01
				C621.76,483.71,624.64,480.82,625.55,475.97z"/>
			<path fill="#FFFFFF" d="M625.02,151.17c0,2.88,0,5.76,0.011,8.64c-0.931-4.84-3.811-7.72-8.66-8.63
				C619.25,151.17,622.13,151.17,625.02,151.17z"/>
			<path fill="#FFFFFF" d="M22.46,485.61c-2.88,0.01-5.76,0.01-8.64,0.02c-0.01-2.89-0.01-5.77-0.02-8.649
				C14.73,481.82,17.62,484.7,22.46,485.61z"/>
			<path fill="#FFFFFF" d="M13.27,152.17c2.88,0,5.76-0.01,8.65-0.01c-4.85,0.92-7.73,3.81-8.64,8.66
				C13.28,157.94,13.27,155.05,13.27,152.17z"/>
		</g>
	</g>
</g>
</svg>
