<?xml version="1.0" encoding="utf-8"?>
<!-- Generator: Adobe Illustrator 14.0.0, SVG Export Plug-In . SVG Version: 6.00 Build 43363)  -->
<!DOCTYPE svg PUBLIC "-//W3C//DTD SVG 1.0//EN" "http://www.w3.org/TR/2001/REC-SVG-20010904/DTD/svg10.dtd">
<svg version="1.0" xmlns="http://www.w3.org/2000/svg" xmlns:xlink="http://www.w3.org/1999/xlink" x="0px" y="0px" width="648px"
	 height="648px" viewBox="0 0 648 648" enable-background="new 0 0 648 648" xml:space="preserve">
<g id="Layer_1_x23_000000">
	<g>
		<g>
			<path fill="none" d="M541.34,125.62c0,139.24,0,278.479,0,417.72c-139.24,0-278.48,0-417.72,0c0-138.78,0-277.56,0-416.35
				c-0.04-0.65-0.08-1.29,0.46-1.37C263.16,125.62,402.25,125.62,541.34,125.62z"/>
			<path d="M550.96,125.62c0,139.24,0,278.479,0,417.72c-1.02,5.391-4.229,8.601-9.62,9.62c-139.24,0-278.48,0-417.72,0
				c-5.39-1.02-8.6-4.229-9.62-9.62c0-139.24,0-278.48,0-417.72c1.02-5.39,4.23-8.6,9.62-9.62c139.24,0,278.479,0,417.72,0
				C546.73,117.02,549.94,120.23,550.96,125.62z M541.34,543.34c0-139.24,0-278.48,0-417.72c-139.09,0-278.18,0-417.26,0
				c-0.54,0.08-0.5,0.72-0.46,1.37c0,138.79,0,277.569,0,416.35C262.86,543.34,402.1,543.34,541.34,543.34z"/>
		</g>
	</g>
</g>
<g id="Layer_2_x23_F2811C">
	<g>
		<g>
			<path fill="#F08121" d="M541.34,125.62c0,139.24,0,278.479,0,417.72c-139.24,0-278.48,0-417.72,0c0-138.78,0-277.56,0-416.35
				c-0.04-0.65-0.08-1.29,0.46-1.37C263.16,125.62,402.25,125.62,541.34,125.62z"/>
		</g>
	</g>
</g>
</svg>
