<?xml version="1.0" encoding="utf-8"?>
<!-- Generator: Adobe Illustrator 14.0.0, SVG Export Plug-In . SVG Version: 6.00 Build 43363)  -->
<!DOCTYPE svg PUBLIC "-//W3C//DTD SVG 1.0//EN" "http://www.w3.org/TR/2001/REC-SVG-20010904/DTD/svg10.dtd">
<svg version="1.0" xmlns="http://www.w3.org/2000/svg" xmlns:xlink="http://www.w3.org/1999/xlink" x="0px" y="0px" width="612px"
	 height="612px" viewBox="0 0 612 612" enable-background="new 0 0 612 612" xml:space="preserve">
<g id="Layer_1_x23_000000">
	<g>
		<g>
			<path d="M548,566.981c-8.72,4.61-25.96,0.71-38,2c-113.26-5.34-216.51-26.55-301-64c-81.53-36.14-157.38-88.4-179-185
				c0-12.33,0-24.67,0-37c6.35-44.74,34.94-86.47,66-114c95.03-84.24,239.6-124.68,402-135c16.33,0.67,35.33-1.33,50,1
				c-78.42,39.37-150.13,85.7-195,162c-19.28,32.78-32.84,66.77-30,118c3.82,69,43.53,118.53,82,157
				C446.48,513.462,496.93,541.422,548,566.981z M537,564.981c-52.02-27.44-102.52-55.22-142-98c-36.96-40.05-75.74-91.56-76-165
				c-0.26-72.89,37.21-126.21,76-165c41.23-41.23,87.91-73.35,141-100c-180.94,4.32-340.4,44.39-439,136
				c-29.89,27.77-60.21,65.84-64,115c-5.29,68.61,32.35,113.63,69,147c33.99,30.95,76.18,53.06,118,71
				C309.81,544.491,413.97,564.401,537,564.981z"/>
		</g>
	</g>
</g>
<g id="Layer_2_x23_FFF200">
	<g>
		<g>
			<path fill="#FFF200" d="M395,466.981c39.48,42.78,89.98,70.56,142,98c-123.03-0.58-227.19-20.49-317-59
				c-41.82-17.94-84.01-40.05-118-71c-36.65-33.37-74.29-78.39-69-147c3.79-49.16,34.11-87.23,64-115
				c98.6-91.61,258.06-131.68,439-136c-53.09,26.65-99.77,58.77-141,100c-38.79,38.79-76.26,92.11-76,165
				C319.26,375.422,358.04,426.932,395,466.981z"/>
		</g>
	</g>
</g>
</svg>
