<?xml version="1.0" encoding="utf-8"?>
<!-- Generator: Adobe Illustrator 14.0.0, SVG Export Plug-In . SVG Version: 6.00 Build 43363)  -->
<!DOCTYPE svg PUBLIC "-//W3C//DTD SVG 1.0//EN" "http://www.w3.org/TR/2001/REC-SVG-20010904/DTD/svg10.dtd">
<svg version="1.0" xmlns="http://www.w3.org/2000/svg" xmlns:xlink="http://www.w3.org/1999/xlink" x="0px" y="0px" width="612px"
	 height="612px" viewBox="0 0 612 612" enable-background="new 0 0 612 612" xml:space="preserve">
<g id="Layer_1_x23_000000">
	<g>
		<g>
			<path d="M550.578,311.045c0,0.291,0,0.592,0,0.883c-82.539,95.451-165.131,190.85-247.123,286.839c-0.591,0-1.183,0-1.765,0
				C220.36,502.689,137.909,407.75,55.45,312.811c0-0.592,0-1.174,0-1.766c82.76-94.93,164.381-191,247.123-285.957
				C386.109,119.534,466.927,216.706,550.578,311.045z M303.455,596.119c80.624-95.884,163.79-189.234,244.476-285.074
				C465.63,217.712,385.332,122.375,303.455,28.619c-81.93,90.474-163.331,189.12-245.358,282.426
				C138.792,407.158,221.146,501.612,303.455,596.119z"/>
		</g>
	</g>
</g>
<g id="Layer_2_x23_967348">
	<g>
		<g>
			<path fill="#977348" d="M547.931,311.045c-80.686,95.84-163.852,189.19-244.476,285.074
				c-82.31-94.507-164.664-188.961-245.358-285.074c82.027-93.307,163.428-191.953,245.358-282.426
				C385.332,122.375,465.63,217.712,547.931,311.045z"/>
		</g>
	</g>
</g>
</svg>
