<?xml version="1.0" encoding="utf-8"?>
<!-- Generator: Adobe Illustrator 14.0.0, SVG Export Plug-In . SVG Version: 6.00 Build 43363)  -->
<!DOCTYPE svg PUBLIC "-//W3C//DTD SVG 1.0//EN" "http://www.w3.org/TR/2001/REC-SVG-20010904/DTD/svg10.dtd">
<svg version="1.0" xmlns="http://www.w3.org/2000/svg" xmlns:xlink="http://www.w3.org/1999/xlink" x="0px" y="0px" width="612px"
	 height="576px" viewBox="0 0 612 576" enable-background="new 0 0 612 576" xml:space="preserve">
<g id="Layer_1_x23_000000">
	<g>
		<g>
			<path d="M436,74c42.25,71.59,87.94,156.72,131,229c-38.44,71.68-92.57,161.9-129,231c-79.24,1.03-162.55,0.18-244,0
				c-4.56-0.01-14.46,1.81-16,1c-7.54-3.96-19.57-32.73-24-41c-16.98-31.68-33.6-57.87-49-87c-17.53-33.15-42.19-70.95-59-103
				c25.52-42.54,50.98-92.59,78-135c15.77-33.48,33.57-58.49,52-95C268.56,74.75,347.24,74.75,436,74z M434,531
				c46.71-80.23,83.86-148.64,129-227c-44.72-76.38-84.87-150.85-129-226c-86.53,1.58-169.25-0.43-254,1
				c-11.74,14.54-23.64,38.71-35,58c-32.83,55.79-63.57,113.14-94,168c39.76,69.41,86.96,156.33,128,225
				C262,532.33,349.33,530.33,434,531z"/>
		</g>
	</g>
</g>
<g id="Layer_2_x23_00ADEF">
	<g>
		<g>
			<path fill="#00AEEF" d="M563,304c-45.14,78.36-82.29,146.77-129,227c-84.67-0.67-172,1.33-255-1
				c-41.04-68.67-88.24-155.59-128-225c30.43-54.86,61.17-112.21,94-168c11.36-19.29,23.26-43.46,35-58
				c84.75-1.43,167.47,0.58,254-1C478.13,153.15,518.28,227.62,563,304z"/>
		</g>
	</g>
</g>
</svg>
