<?xml version="1.0" encoding="utf-8"?>
<!-- Generator: Adobe Illustrator 14.0.0, SVG Export Plug-In . SVG Version: 6.00 Build 43363)  -->
<!DOCTYPE svg PUBLIC "-//W3C//DTD SVG 1.0//EN" "http://www.w3.org/TR/2001/REC-SVG-20010904/DTD/svg10.dtd">
<svg version="1.0" xmlns="http://www.w3.org/2000/svg" xmlns:xlink="http://www.w3.org/1999/xlink" x="0px" y="0px" width="612px"
	 height="612px" viewBox="0 0 612 612" enable-background="new 0 0 612 612" xml:space="preserve">
<g id="Layer_1_x23_000000">
	<g>
		<g>
			<path d="M582,188c0,76.33,0,152.67,0,229c-54.77,52.56-108.5,106.16-162,160c-77,0-154,0-231,0c-39.82-40.71-80.83-79.83-122-121
				c-8.67-8.67-37.16-30.21-40-42c-0.43-1.78-0.76-3.66-1-5.61c0-9.39,0-18.79,0-28.18c0.46-7.58,1-15.19,1-22.21
				c0-40.63,0-72.72,0-112c0-6.31-0.53-13.67-1-21.16c0-9.96,0-19.91,0-29.87c0.25-1.77,0.58-3.43,1-4.97
				c1.27-4.62,12.58-14.58,19-21c47.61-47.61,99.74-97.14,143-141c77,0,154,0,231,0C473.81,81.52,527.56,135.11,582,188z M579,412
				c2.93-14.22,0-35.4,0-55c0-40.22,0-70.34,0-110c0-17,4.02-41.33,0-56c-1.33-4.86-13.11-15.11-19-21
				c-36.05-36.05-66.69-65.69-102-101c-9.92-9.92-30.6-36.45-43-39c-16.5-3.4-37.63,0-56,0c-58.5,0-109.3,0-168,0
				c-0.61,0.06-1.18,0.15-1,1c-47.36,45.44-93.9,93.67-142,140c-6.76,6.51-17.45,14.58-19,21c-3.66,15.21,0,37.4,0,55
				c0,38.6,0,72.39,0,110c0,19.43-3.61,40.02,0,55c1.6,6.64,12.68,14.67,19,21c42.14,42.14,80.93,79.93,123,122
				c6.43,6.43,14.89,17.52,22,19c14.39,2.99,35.83,0,55,0c37.43,0,76.84,0,112,0c18.67,0,39.72,3.92,56,0
				c11.02-2.65,32.38-29.38,42-39c27.7-27.7,55.26-53.26,82-80C547.38,447.62,576.76,422.9,579,412z"/>
		</g>
	</g>
</g>
<g id="Layer_2_x23_C0272D">
	<g>
		<g>
			<path fill="none" d="M582,188c0,76.33,0,152.67,0,229c-54.77,52.56-108.5,106.16-162,160c-77,0-154,0-231,0
				c-39.82-40.71-80.83-79.83-122-121c-8.67-8.67-37.16-30.21-40-42c-0.43-1.78-0.76-3.66-1-5.61c0-9.39,0-18.79,0-28.18
				c0.46-7.58,1-15.19,1-22.21c0-40.63,0-72.72,0-112c0-6.31-0.53-13.67-1-21.16c0-9.96,0-19.91,0-29.87c0.25-1.77,0.58-3.43,1-4.97
				c1.27-4.62,12.58-14.58,19-21c47.61-47.61,99.74-97.14,143-141c77,0,154,0,231,0C473.81,81.52,527.56,135.11,582,188z M579,412
				c2.93-14.22,0-35.4,0-55c0-40.22,0-70.34,0-110c0-17,4.02-41.33,0-56c-1.33-4.86-13.11-15.11-19-21
				c-36.05-36.05-66.69-65.69-102-101c-9.92-9.92-30.6-36.45-43-39c-16.5-3.4-37.63,0-56,0c-58.5,0-109.3,0-168,0
				c-0.61,0.06-1.18,0.15-1,1c-47.36,45.44-93.9,93.67-142,140c-6.76,6.51-17.45,14.58-19,21c-3.66,15.21,0,37.4,0,55
				c0,38.6,0,72.39,0,110c0,19.43-3.61,40.02,0,55c1.6,6.64,12.68,14.67,19,21c42.14,42.14,80.93,79.93,123,122
				c6.43,6.43,14.89,17.52,22,19c14.39,2.99,35.83,0,55,0c37.43,0,76.84,0,112,0c18.67,0,39.72,3.92,56,0
				c11.02-2.65,32.38-29.38,42-39c27.7-27.7,55.26-53.26,82-80C547.38,447.62,576.76,422.9,579,412z"/>
			<path fill="#C1272D" d="M579,357c0,19.6,2.93,40.78,0,55c-2.24,10.9-31.62,35.62-39,43c-26.74,26.74-54.3,52.3-82,80
				c-9.62,9.62-30.98,36.35-42,39c-16.28,3.92-37.33,0-56,0c-35.16,0-74.57,0-112,0c-19.17,0-40.61,2.99-55,0
				c-7.11-1.48-15.57-12.57-22-19c-42.07-42.07-80.86-79.86-123-122c-6.32-6.33-17.4-14.36-19-21c-3.61-14.98,0-35.57,0-55
				c0-37.61,0-71.4,0-110c0-17.6-3.66-39.79,0-55c1.55-6.42,12.24-14.49,19-21c48.1-46.33,94.64-94.56,142-140
				c-0.18-0.85,0.39-0.94,1-1c58.7,0,109.5,0,168,0c18.37,0,39.5-3.4,56,0c12.4,2.55,33.08,29.08,43,39
				c35.31,35.31,65.95,64.95,102,101c5.89,5.89,17.67,16.14,19,21c4.02,14.67,0,39,0,56C579,286.66,579,316.78,579,357z"/>
		</g>
	</g>
</g>
</svg>
