<?xml version="1.0" encoding="utf-8"?>
<!-- Generator: Adobe Illustrator 14.0.0, SVG Export Plug-In . SVG Version: 6.00 Build 43363)  -->
<!DOCTYPE svg PUBLIC "-//W3C//DTD SVG 1.0//EN" "http://www.w3.org/TR/2001/REC-SVG-20010904/DTD/svg10.dtd">
<svg version="1.0" xmlns="http://www.w3.org/2000/svg" xmlns:xlink="http://www.w3.org/1999/xlink" x="0px" y="0px" width="612px"
	 height="612px" viewBox="0 0 612 612" enable-background="new 0 0 612 612" xml:space="preserve">
<g id="Layer_1_x23_000000">
	<g>
		<g>
			<path d="M591.505,309.717c0,10.544,0,21.089,0,31.633c-10.975,59.866-50.156,96.78-94.899,123.019
				c-45.464,26.659-104.029,42.66-170.468,46.57c-11.133,0-22.257,0-33.391,0c-67.528-3.365-126.304-20.711-172.225-47.449
				c-45.086-26.256-84.258-64.304-94.021-125.654c0-8.198,0-16.405,0-24.604c6.845-55.736,47.916-97.483,88.749-123.018
				c44.304-27.697,101.103-43.083,161.681-49.207c21.378,0,42.767,0,64.145,0c62.704,5.316,117.518,22.899,160.803,49.207
				C544.302,215.995,581.075,252.047,591.505,309.717z M588.869,341.35c6.256-50.147-17.908-92.237-47.45-119.503
				c-54.11-49.937-145.056-85.559-259.216-78.204c-19.894,1.283-39.506,3.365-57.115,7.029
				c-51.334,10.676-98.221,30.886-131.805,57.116c-20.254,15.816-44.014,42.265-55.358,70.296
				c-13.673,33.786-11.652,71.957,3.515,102.808c35.209,71.64,118.378,111.771,212.646,123.896
				c101.771,13.093,204.016-10.114,269.76-60.631C555.443,419.879,583.043,388.035,588.869,341.35z"/>
		</g>
	</g>
</g>
<g id="Layer_2_x23_2E3192">
	<g>
		<g>
			<path fill="#2E3192" d="M541.419,221.847c29.542,27.266,53.706,69.355,47.45,119.503c-5.826,46.686-33.426,78.529-65.024,102.808
				c-65.744,50.517-167.989,73.724-269.76,60.631c-94.267-12.126-177.436-52.257-212.646-123.896
				c-15.167-30.852-17.188-69.022-3.515-102.808c11.344-28.031,35.104-54.479,55.358-70.296
				c33.584-26.229,80.471-46.439,131.805-57.116c17.609-3.664,37.222-5.747,57.115-7.029
				C396.363,136.288,487.309,171.91,541.419,221.847z"/>
		</g>
	</g>
</g>
</svg>
