<?xml version="1.0" encoding="utf-8"?>
<!-- Generator: Adobe Illustrator 14.0.0, SVG Export Plug-In . SVG Version: 6.00 Build 43363)  -->
<!DOCTYPE svg PUBLIC "-//W3C//DTD SVG 1.0//EN" "http://www.w3.org/TR/2001/REC-SVG-20010904/DTD/svg10.dtd">
<svg version="1.0" xmlns="http://www.w3.org/2000/svg" xmlns:xlink="http://www.w3.org/1999/xlink" x="0px" y="0px" width="612px"
	 height="360px" viewBox="0 0 612 360" enable-background="new 0 0 612 360" xml:space="preserve">
<g id="Layer_1_x23_000000">
	<g>
		<g>
			<path d="M595.573,45.132c-35.969,95.694-77.071,186.225-115.44,279.488c-153.932,0-307.833,0-461.764,0
				C46.166,231.873,93.618,132.563,133.81,42.094C286.738,44.099,447.718,38.053,595.573,45.132z M580.384,51.208
				c-145.82,0-291.64,0-437.46,0C101.851,135.723,65.851,225.28,30.52,315.507c147.856,0,295.681,0,443.537,0
				C506.319,224.217,548.182,142.558,580.384,51.208z"/>
		</g>
	</g>
</g>
<g id="Layer_2_x23_EC008C">
	<g>
		<g>
			<path fill="#EC008C" d="M142.923,51.208c145.82,0,291.64,0,437.46,0c-32.202,91.351-74.064,173.009-106.327,264.299
				c-147.855,0-295.681,0-443.537,0C65.851,225.28,101.851,135.723,142.923,51.208z"/>
		</g>
	</g>
</g>
</svg>
