<?xml version="1.0" encoding="utf-8"?>
<!-- Generator: Adobe Illustrator 14.0.0, SVG Export Plug-In . SVG Version: 6.00 Build 43363)  -->
<!DOCTYPE svg PUBLIC "-//W3C//DTD SVG 1.0//EN" "http://www.w3.org/TR/2001/REC-SVG-20010904/DTD/svg10.dtd">
<svg version="1.0" id="Layer_1_x23_000000" xmlns="http://www.w3.org/2000/svg" xmlns:xlink="http://www.w3.org/1999/xlink" x="0px"
	 y="0px" width="720px" height="720px" viewBox="0 0 720 720" enable-background="new 0 0 720 720" xml:space="preserve">
<g>
	<g>
		<path d="M690.41,267.224c5.309,8.057-9.997,7.046-17.515,6.736c4.338,2.412,12.22,1.253,17.515,2.695
			c-8.057,2.802-11.978,2.115-22.903,2.694c1.725,2.398,19.872,1.253,6.736,2.695c0.161,2.978,5.712,0.579,8.083,1.347
			c-16.585,2.493-37.05,0.485-61.961,1.347c6.305,3.126,18.391,0.472,26.932,1.348c2.103,4.796-4.567,0.808-4.041,4.042
			c4.284-1.832,20.842-5.133,35.029-1.347c0.336,2.196-14.592,0.633-16.168,5.389c-1.616-1.765-0.525-2.115,0-4.042
			c-4.661-1.091-5.686,2.52-8.084,0c0.324,2.371,2.317,3.072,5.39,2.695c-0.997,3.045-7.559,0.525-10.778,1.347
			c7.841,2.667,0.107,5.012-6.736,4.042c1.604,2.452,7.032,1.064,9.431,2.694c-8.34,2.722-14.712,0.256-25.598,1.347
			c1.01,3.032,7.558,0.525,10.777,1.348c-1.67,3.112-10.319,3.543-2.694,2.694c4.474,1.32-1.495,2.667-1.347,4.042
			c6.17,5.457,0.498-7.383,9.431-5.389c0.418,3.112-3.88,1.495-4.042,4.042c0.876,2.291,3.099,0.835,2.694-1.347
			c4.042,0.889-1.279,2.883,0,5.389c-6.763,0.876-10.872-1.697-14.819,0c21.569,1.496-3.746,6.157-9.418,0
			c-4.149-1.01-2.601,3.691-6.736,2.695c3.557,5.86,17.34-3.059,21.543,4.042c-2.304,3.085-10.279,0.485-14.807,1.348
			c5.672,2.438,18.7,1.536,22.891,1.347c-8.637,6.17-28.657,0.97-41.753,2.694c6.278,4.675,7.989,0.606,17.515,1.347
			c-2.33,3.422,2.048,5.228-2.694,5.389c2.601,4.635,5.497-1.522,4.042-5.389c2.236,0,4.486,0,6.736,0
			c-0.04,1.307-1.657,1.038-2.694,1.348c0.216,1.576,2.452,1.131,4.028,1.347c-1.94,2.546-8.663,0.31-8.07,5.389
			c-7.113,0.525-17.017-1.751-20.209,2.694c1.347,4.756,5.955-1.172,5.389,4.042c-3.597,0-7.194,0-10.778,0
			c0.876,1.361,3.099,1.388,2.695,4.042c-3.948-1.213-4.137-1.213-8.084,0c1.872,3.072,9.377,0.499,13.473,1.347
			c-6.871,5.025-4.863,2.075-20.209,4.042c-0.971,3.651,6.346-0.97,5.389,2.694c2.224,1.576-19.441,0.957-22.903,1.334
			c6.346,2.196,14.321,2.749,22.903,2.694c-3.799,4.567-13.108,0.525-20.209,4.042c5.254,0.148,11.115,2.762,13.473,0
			c3.261,5.119-11.088,4.136-17.515,4.042c36.861,4.122,0.095,2.883-17.515,4.042c10.509,2.532,13.338,4.041,22.904,1.347
			c3.246,6.885-14.82,4.016-20.21,6.736c1.968,4.945,7.047-1.023,10.778,2.695c-2.748,3.099-11.183,0.484-16.167,1.347
			c0.175,2.978,5.712,0.579,8.084,1.348c0.27,3.866,0.175,7.356-4.042,6.736c1.441,3.059,8.475,0.512,12.125,1.347
			c-7.599,4.527-20.937,3.302-32.335,4.042c1.442,3.059,8.475,0.513,12.126,1.348c-0.822,1.199-1.63,2.411,0,2.694
			c-4.607,6.171-17.124,4.433-25.585,6.736c2.304,3.086,10.28,0.499,14.807,1.348c-4.217,4.257-13.58,1.078-21.543,4.042
			c0.876,1.374,3.099,1.388,2.694,4.042c-2.694,0-5.389,0-8.083,0c0.161,2.978,5.712,0.565,8.083,1.347
			c-5.739,1.159-12.839,1.118-16.167,0c-0.175,2.412,1.644,2.843,1.348,5.39c3.974,1.927-3.126,1.037-1.348-2.695
			c-2.385,2.021-4.096,6.737,0,6.737c0.229,2.923-4.783,0.605-6.736,1.347c0.216,1.576,2.452,1.132,4.042,1.348
			c-0.176,2.978-5.713,0.565-8.084,1.347c0.014-2.681,3.678-1.711,2.694-5.389c-1.023,2.115-4.271,2.008-4.042,5.389
			c-6.184-1.037-7.922-1.509-14.819,0c2.815-5.456-5.848,2.601-8.084-1.347c1.239,1.657,7.478-8.663,8.084-2.694
			c4.028-0.89-1.294-2.884,0-5.39c2.25,0,4.486,0,6.736,0c0.673-12.22,23.159-13.607,22.903-21.557
			c1.94-3.987,2.829,4.204,4.042,5.39c4.931-6.615,4.581-5.578,8.084-10.778c5.51,1.455,7.1,0.66,12.125,0
			c0.606-4.204-2.883-4.312-6.736-4.042c-0.256-1.146,0.525-1.267,1.348-1.348c0.242-1.145-0.525-1.267-1.348-1.347
			c0.202-2.493,4.554-0.822,5.39-2.695c-7.047-3.058,9.929-10.858,13.459-16.167c2.21,5.039,3.665-2.331,10.778,0
			c-0.297-2.385,1.36-6.736-2.694-5.389c2.829-2.735,8.124-8.071,12.125-5.39c-1.738-5.322,4.433-2.749,2.694-8.07
			c8.125,0.768,9.66-8.205,12.126-1.347c2.601-0.552,0.121-6.17,5.389-4.042c0-2.25,0-4.5,0-6.736
			c2.129,0.108,5.134-0.646,5.39,1.348c4.851-2.048,2.075-8.73,4.042-10.778c10.697,0.054,4.284-8.986,16.167-8.084
			c-5.577-5.093,10.28-8.528,12.126-14.82c-4.312-2.883-14.578,0.215-16.168-5.389c-10.091,5.928-41.752,7.208-49.849-1.347
			c-2.372,0.323-3.072,2.317-2.695,5.389c-1.145-2.439-3.462-3.719-4.042-6.737c-4.028,0.014-5.658,2.425-6.736,5.389
			c-2.775-4.688-10.899,4.352-9.431-4.042c-2.479,0.202-0.822,4.567-2.681,5.389c-2.358-1.24-7.235,0.04-6.736-4.042
			c-6.724,6.844-15.252-4.527-21.557-6.736c-7.909,6.75-11.183,9.916-24.251,10.778c-6.185-12.651-17.825,3.691-29.641-4.042
			c8.919-3.961-7.963-4.608-8.084-5.389c-4.163,2.762-0.147,9.741-9.431,9.431c-0.849-4.972,4.203-9.283-2.694-9.431
			c-1.766-8.555,7.41-8.03-2.694-9.431c-2.938-19.765-14.16-41.51-16.154-63.309c7.329-1.253,9.04,6.534,14.82,0
			c3.772,1.32-1.968,3.584,1.334,5.389c2.883-1.617,6.439-2.546,8.083-5.389c2.694,3.26,2.129,1.347,6.736,2.694
			c-1.212,3.719-7.706,2.169-8.083,6.737c-6.508,0.862-9.525-1.779-13.46,0c-0.229,2.91,4.77,0.606,6.724,1.347
			c-1.914,7.437,4.513,9.902,0,10.778c0.336,1.455,2.681,0.902,2.694,2.681c6.062-3.651-0.714-4.594-1.348-10.765
			c1.94-2.991,3.287,1.684,4.042-1.347c13.028-0.983-0.229,3.691-2.694,1.347c1.657,3.732,6.049,4.729,9.431,6.736
			c-2.546,1.563-3.624,3.88,1.348,4.029c-2.735,3.099-11.183,0.498-16.154,1.347c1.778,4.513,15.144-2.573,14.807,4.042
			c-4.486,0-8.973,0-13.459,0c5.577,2.196,2.411,2.83-1.348,5.389c3.624,0.862,3.772,5.201,8.07,5.389
			c-5.767-5.268,3.691,0.445,5.389-2.694c2.803,0.754,2.856,2.102,1.348,4.042c5.16-1.132,10.818-1.751,17.515-1.348
			c0,1.348,0,2.695,0,4.042c28.36,1.725,63.673-3.489,87.56,2.694c2.641-1.186,13.352-6.359,14.82,0
			c5.592-4.783,23.321-1.415,39.071-2.694c11.6-0.943,30.569-3.314,39.071,0c0.444,0.188-0.377,3.638,0,4.042
			c1.576-0.216,1.132-2.452,1.347-4.042C642.892,275.402,663.869,265.068,690.41,267.224z"/>
		<path d="M600.156,348.061c0.997-3.045,7.558-0.539,10.778-1.347C606.933,349.436,604.292,349.651,600.156,348.061z"/>
		<path d="M559.737,682.133c4.015,4.527-15.035,3.166-17.515,1.348C546.346,681.352,556.288,683.602,559.737,682.133z"/>
		<path d="M553.001,702.342c3.233,2.385-2.924,3.045-5.389,1.348c0-1.348,0-2.694,0-4.042c1.805,0,3.597,0,5.389,0
			C549.956,700.119,549.956,706.303,553.001,702.342z"/>
		<path d="M553.001,692.911c-3.422,2.533-0.62,2.87-4.042,5.39c-4.028,0.094-6.83-3.962-4.042-6.737
			c-2.385-0.296-6.736,1.361-5.389-2.694c-2.547,0.148-0.93,4.46-4.042,4.042c-4.23,0.646-3.557-3.624-6.736-4.042
			c2.102-1.267,12.624-1.536,20.209-1.347C546.278,692.251,549.403,690.419,553.001,692.911z"/>
		<path d="M547.612,670.021c-5.471-0.391-3.032,0.485-2.695,4.042c-4.486,0-8.973,0-13.473,0c3.84,3.355,15.575-1.212,16.168,5.376
			c-2.305,3.085-10.28,0.498-14.82,1.348c-0.216,2.923,4.782,0.619,6.736,1.347c-22.702,11.829-33.911-19.562-49.836-24.237
			c0.418-1.832,3.368-1.118,5.389-1.348c-2.748-3.099-2.869-8.811-8.083-9.431c-1.806,0.27-2.506,5.591-2.695,0
			c-1.307,0.04-1.051,1.644-1.347,2.694c-11.115-4.877-26.542-17.353-28.293-22.903c-0.862,1.023-13.554-4.918-6.736-6.736
			c-3.005-2.83-6.225,1.145-9.432-2.695c9.404-3.987,20.56,1.873,32.335,0c-1.037,4.797-10.333,1.348-9.431,8.084
			c2.654-5.281,3.61,1.078,4.042,5.39c-1.078-0.715-2.183-1.401-4.042-1.348c-0.579,2.169,5.025,4.514,5.389,1.348
			c3.18,0.377-1.549,3.597-1.347,5.389c1.253-1.441,4.972-0.418,4.042-4.042c2.641,9.957,3.638-8.151,4.041,4.042
			c1.833-0.418,1.119-3.368,1.348-5.389c-4.257-3.692-7.437-1.227-9.431-8.084c4.392-0.351,6.48,1.604,6.736,5.389
			c1.078-0.714,2.183-1.4,4.042-1.347c-0.983-1.253-2.452-2.048-4.042-2.695c4.702-1.939,13.837-2.855,13.473,2.695
			c-1.307-0.041-1.051-1.644-1.348-2.695c-4.041,7.37,10.159-1.186,5.39,8.084c1.253-1.441,4.972-0.418,4.042-4.042
			c1.967,1.173,5.214,1.064,4.042,5.39c4.81-3.947,4.782-6.952,10.778-5.39c2.762-2.492-2.763-10.023-4.042-16.167
			c8.394-1.522,14.537,0.188,24.237-1.348c-3.57,5.093-9.876,0.715-14.807,2.695c2.236,5.092,10.859-0.688,13.459,2.694
			c-4.5,1.307-12.516,0.135-17.501,4.042c1.227,1.509,2.492,0.417,6.736,1.347c0.378,2.183-1.279,2.317-1.347,4.042
			c3.476,3.018,21.139-2.869,26.932,4.042c-6.386-0.553-11.681-0.014-14.82,2.694c-1.657-4.365,4.365-1.037,2.695-5.389
			c-4.5,0.27-3.57,6.804-6.737,1.347c-3.085,3.961,0.337,3.423-6.723,4.042c1.186,1.536,3.759-0.835,2.682,5.39
			c-7.087,0.377-7.977-1.429-13.46,0c3.813,3.085,8.34,2.452,13.46,1.347c-1.375,3.112-6.185,2.789-10.765,2.694
			c3.853,3.193,17.097,0.014,17.501,2.695c-0.525,5.753-11.277,1.279-16.154,2.694c7.248,4.433-7.45,2.129-12.125,2.694
			c7.194,3.126,20.195,0.458,29.626,1.348c-7.288,2.236,4.823,5.402,4.042,0c2.775,3.57,6.831-0.432,6.736,4.042
			c-5.739-0.027-8.057-1.98-12.125,1.347c0.188,2.224,5.632-1.414,9.431,0c-0.229,6.562,4.742,1.657,6.736,4.042
			c-9.539,2.924-16.773,0.095-28.279,1.348C528.453,666.087,541.67,662.031,547.612,670.021z"/>
		<path d="M536.834,401.938c-1.267-4.863,5.308-1.872,8.083-2.694C544.77,402.693,540.404,401.926,536.834,401.938z"/>
		<path d="M524.708,587.837c-0.026,1.32-1.644,1.051-2.694,1.347c-1.522,0.257-0.741,1.361,0,1.348
			c-2.304,3.085-10.28,0.499-14.807,1.348c0.216,1.59,2.452,1.145,4.042,1.347c-0.176,2.978-5.727,0.58-8.084,1.348
			c3.8-3.61-1.994-8.232,0-17.515c4.042-1.765,6.911,7.302,8.084,0c1.307,0.04,1.037,1.657,1.347,2.694
			c1.308-0.026,1.038-1.644,1.348-2.694c4.716,3.947-5.065,4.742-9.431,4.042c4.944,2.95,9.552,1.023,13.459,2.694
			c-4.056,2.856-6.373-0.377-12.112,1.348C509.605,589.534,516.342,585.075,524.708,587.837z"/>
		<path d="M523.36,601.31c-0.619,2.883,1.927,2.573,4.042,2.694c-5.766,2.829-9.512-0.593-16.153,1.348
			c-0.229,2.924,4.77,0.606,6.723,1.347c3.476,1.847-6.655,1.294-8.07,2.695c-0.876-4.743-2.115,1.226-6.736,0
			c0.97-4.123-2.331-3.961-1.348-8.084c4.137-0.997,2.587,3.705,6.737,2.694C503.179,598.629,518.281,603.236,523.36,601.31z"/>
		<path d="M522.014,597.268c-2.412,6.966-12.085,0.135-16.154,0c7.922,2.062-0.889,4.581-4.042,1.348
			C508.244,594.074,513.997,596.972,522.014,597.268z"/>
		<path d="M512.623,569.028c0.876,1.32,3.059,1.375,2.668,3.988c-4.891,0.755-5.767,1.415-13.474,1.348
			c0.62-4.218-3.395-3.786-5.389-5.376C505.186,565.525,507.948,570.416,512.623,569.028z"/>
		<path d="M515.291,567.641c-0.041,1.146-1.28,1.078-2.277,1.253C513.714,568.638,514.469,568.233,515.291,567.641z"/>
		<path d="M512.596,568.988c0.122-0.04,0.256-0.067,0.391-0.095c-0.121,0.055-0.242,0.095-0.363,0.135
			C512.609,569.016,512.609,569.002,512.596,568.988z"/>
		<path d="M509.901,532.611c5.82,2.533-11.223,0.162-5.389,2.695c-6.333,1.428-15.171,2.681-17.515-1.348
			c9.835,1.267-4.918-7.585-5.39-2.694c-2.357-2.587-2.856-7.02-4.042-10.778c2.695,0,5.39,0,8.084,0
			c0.095,8.838,10.644-0.162,17.515,2.694c-0.04,1.307-1.657,1.051-2.694,1.348c0.323,2.371,2.317,3.071,5.389,2.694
			c-3.192,3.099-12.099,0.485-17.515,1.348c2.304,3.085,10.28,0.498,14.82,1.347C501.777,534.444,507.355,532.006,509.901,532.611z"
			/>
		<path d="M504.513,500.277c0.687,0.229-12.287,0.605-19.536,0.97c-0.35-0.107-0.687-0.175-1.023-0.242
			c3.934-0.189,5.9-1.213,8.029-1.887c2.601,0,4.877-0.094,6.413-0.418c0.014,0,0.014,0,0.014,0
			C500.039,498.957,502.007,499.441,504.513,500.277z"/>
		<path d="M495.081,543.39c2.991-2.088,3.907,3.112,8.084-1.347C501.508,548.119,493.909,545.828,495.081,543.39z"/>
		<path d="M499.123,538.001c3.396,3.206-8.798,0.821-5.389,4.042c0.242,1.145-0.525,1.267-1.348,1.347c-0.902,0-1.806,0-2.694,0
			c2.236-2.681-0.121-1.711,0-5.389C495.62,538.162,495.203,539.86,499.123,538.001z"/>
		<path d="M484.303,470.637c2.884,3.867,15.332-1.859,14.82,5.39c-5.645-0.93-17.461,0.619-26.945,0
			c2.25,3.597,12.422-0.741,14.82,2.694c1.347,0,2.694,0,4.042,0c1.347,0,2.694,0,4.041,0c0.229,2.924-4.782,0.619-6.736,1.347
			c-4.944,0-9.875,0-14.82,0c4.285,2.91,14.039,0.337,18.862,2.695c-0.525,2.627-8.084,4.189,1.348,5.389
			c4.271,1.132-2.398,1.778-4.042,1.348c1.522,2.52,1.59,6.493,6.736,5.389c-6.022,2.627-2.506,2.91,4.042,2.694
			c-0.202,0.525-0.943,0.89-2.062,1.118c0,0,0,0-0.014,0c-2.937-0.458-4.729-0.135-6.413,0.418
			c-6.09-0.026-13.971-0.619-18.458-0.188c2.533-2.385-1.603-3.934,1.348-6.736c-3.126,0.431-5.174-0.216-6.736-1.348
			c0.014-7.976-6.966-18.066-2.694-18.861c-4.486-5.915-5.241-12.921-8.084-17.502c3.072-1.778,6.979-1.414,10.778,0
			c0.404,3.544-2.815,3.463-5.389,4.029c1.858,2.182,4.769,3.327,4.041,8.083c4.985,0.135,8.663,0.849,13.474-2.694
			c-2.021-4.446-3.301,2.803-6.737,1.348c-0.161-4.648,2.722-6.252,8.084-5.39c0.593,5.941,2.426,5.524,2.694,9.431
			C497.614,468.359,497.614,471.58,484.303,470.637z"/>
		<path d="M484.977,501.247c4.406,1.118,10.36,4.338,14.146,3.071c-7.922,2.856-21.839,1.146-26.945,0
			c0.876-1.374,3.099-1.388,2.694-4.041c2.56,0.444,4.688,0.66,6.48,0.728c-0.418,0.121-0.795,0.323-1.091,0.619
			C480.369,501.503,482.282,501.382,484.977,501.247z"/>
		<path d="M497.776,516.444c-1.32-0.04-1.052-1.644-1.348-2.694c-3.301,1.927-4.931,2.102-6.736,2.694
			c-3.382-0.579,1.293-3.854,4.042-2.694c0.472-5.807-3.355-5.201-6.736-4.042c0.215,1.576,2.452,1.132,4.042,1.348
			c-4.137,7.558-7.667,3.529-14.82,5.389c-0.432-3.166-2.129-5.053-1.348-9.431c8.354-0.014,14.376,0.983,18.862,0
			C497.507,507.728,496.227,513.507,497.776,516.444z"/>
		<path fill="#FFFFFF" d="M491.982,499.118c1.685-0.553,3.477-0.876,6.413-0.418C496.859,499.024,494.583,499.118,491.982,499.118z"
			/>
		<path d="M488.345,434.273c-3.436,4.595-9.417-3.57-9.431,1.348c-2.304,0.283-3.489-2.304-4.042,0
			c-1.469-0.337-0.916-2.682-2.694-2.694C475.425,431.539,484.519,430.205,488.345,434.273z"/>
		<path d="M483.926,501.005c-0.768,0.04-1.63,0.04-2.573,0C482.066,500.789,482.942,500.815,483.926,501.005z"/>
		<path d="M477.566,446.399c6.521-1.132,9.525,1.239,13.474,2.694c-11.385,0.162-16.801,3.247-33.683,2.694
			c-0.809-3.382-1.078-4.513-2.694-9.431c10.199,0.889,13.729,0.431,24.251,0C478.2,443.436,477.513,444.54,477.566,446.399z
			 M472.178,450.441c7.545-0.067,1.657-8.151-4.042-6.736c0.633,2.573-4.149,5.793,1.348,5.389c4.203,0.404-3.423-3.894,1.347-4.042
			C471.248,446.871,472.743,447.625,472.178,450.441z"/>
		<path d="M480.262,438.315c8.312,1.495-14.066,4.123-26.946,2.694c0.432-4.958-3.84-9.242-1.347-12.125
			c4.23,9,15.534-3.045,20.209,6.736c-4.958-2.816-12.624-0.458-14.82,2.694C464.161,440.821,471.746,436.767,480.262,438.315z"/>
		<path fill="#FFFFFF" d="M468.136,443.705c5.699-1.415,11.587,6.669,4.042,6.736c0.565-2.816-0.93-3.57-1.348-5.39
			c-4.77,0.148,2.856,4.446-1.347,4.042C463.986,449.498,468.769,446.278,468.136,443.705z"/>
		<path d="M460.052,610.74c1.429,3.059,8.475,0.513,12.126,1.348c-5.443,2.789-21.247,3.463-32.335,1.348
			c1.55-6.211,2.196-4.811,0-8.084c7.949-2.52,22.944-0.512,29.641,2.694C470.561,613.166,463.11,609.757,460.052,610.74z"/>
		<path d="M302.555,557.105c1.172-7.868,8.327-9.728,12.004-15.062c1.63,1.522,2.452,3.84,6.736,2.694
			c1.469-0.337,0.917-2.682,2.695-2.694c-0.876-1.375-3.099-1.401-2.695-4.042c3.625,0.93,2.614-2.789,4.042-4.042
			c3.125,2.964,7.653-0.27,10.778-1.348c-2.843-4.149,1.792-12.354,9.431-9.431c-4.985-5.012,5.281-8.838,12.125-8.084
			c-5.538,2.708,1.388,4.608,6.736,4.042c-3.152,3.126-7.571,5.012-14.82,4.042c1.913,2.21,13.378,1.792,13.473,1.348
			c1.967,4.715-9.97,0.229-13.473,2.694c2.331,0.256,9.391,1.697,12.125,5.389c-1.091,2.506-1.738,5.443-4.042,6.736
			c0.215,1.577,2.452,1.132,4.042,1.348c-0.593-1.36,4.23-3.368,1.348-5.389c0.256-1.038,9.942-0.162,12.125,1.347
			c0.229,2.924-4.782,0.606-6.736,1.348c1.576,2.91,9.162-0.188,9.432,4.042c-3.665,1.913-8.542,0.821-16.168,1.347
			c0.714,1.078,1.401,2.183,1.348,4.042c6.09-6.709,16.962,1.927,17.515-2.694c2.25,2.29-0.135,3.489,1.279,7.868
			c-0.728-0.067-1.455-0.162-2.195-0.31c-0.862-0.445-1.631-1.011-3.126-0.822c1.064,0.364,2.102,0.633,3.126,0.822
			c0.605,0.323,1.266,0.593,2.263,0.525c-0.026-0.067-0.054-0.148-0.067-0.216c6.548,0.606,12.288-1.415,17.582,0.216
			c-1.145,2.573-5.914,3.638-8.083,1.347c-4.756,0.391,4.756,3.638,0,4.042c-4.217-4.729-4.864,3.14-5.39-4.042
			c-4.324-1.186-2.802,3.489-5.389,4.042c1.481,3.449,7.234,2.641,12.125,2.694c-0.067,4.554,3.126,5.834,5.39,8.084
			c2.573-0.162-1.59-4.514,0-8.084c2.438,5.269,4.526-1.468,10.778,0c0.404,5.497-1.873-0.229-5.39,1.348
			c4.271,3.664,2.089,6.562,8.07,9.431c2.614,0.323-11.25,4.015-12.112-1.347c-2.397,0.983-0.202,2.438,0,4.028
			c11.924,0.161,22.716,1.468,32.146,4.136c-4.514,2.385,2.547,3.665,1.522,6.643c-3.18-1.725-2.506,0.188-6.736-1.348
			c0.31,4.19,6.709,2.277,10.778,2.694c-0.916,5.82-12.233,1.239-17.515,2.694c3.854,3.342,14.739-0.35,18.861,2.695
			c-3.92,6.736,4.797,0.539,1.348,6.736c7.989-0.903,14.241-2.317,22.904-1.348c-0.014,2.062-3.679,4.433-2.695,0
			c-9.134,2.438-3.381,4.298-13.473,1.348c-0.997,6.103,3.705-2.062,2.694,4.042c-9.754-0.647-19.953,1.792-18.861-6.736
			c-4.891,0.498-13.244-2.466-10.778,5.389c-3.436-0.148-2.668-4.514-2.694-8.084c-0.862-0.674-1.59,2.547-1.348,2.695
			c-15.48-9.674-33.992-24.562-49.836-36.363c-0.377-2.183,1.267-2.331,1.348-4.042c-8.731-5.901-25.949,2.344-41.766,1.347
			c6.144,2.317,5.591,2.87-2.694,2.695c1.36,2.223,5.726,1.455,8.083,2.694c-1.859,3.071-9.377,0.498-13.473,1.348
			c0.579,2.115,4.244,1.145,2.694,5.389c-2.088-2.546-5.241,1.927-8.083-1.348c-1.886,0.472-0.108,2.358,1.347,2.695
			c4.163,1.737-3.867,1.765-2.694-1.348c-4.527,1.213-0.148,3.005-2.695,5.376c-1.307-0.027-1.038-1.644-1.347-2.682
			c-2.52,1.671-5.066,6.885-8.07,4.028c0.741,5.188,5.201-1.037,8.07,2.695c-2.775,3.058-11.978-0.311-13.459,4.041
			c-0.539,3.233,6.13-0.74,4.042,4.042c-4.19-1.765-3.854,0.364-9.431,0c-0.229,2.924,4.77,0.62,6.736,1.348
			c3.584,2.398-7.895,0.983-10.778,1.347c2.398,4.514,5.888,0.122,12.126,1.348c-1.375,1.778-1.32,4.972-2.695,6.736
			c-9.269,2.924-15.386,0.728-24.251,4.042c8.232,3.503-2.493,0.983-2.695,6.736c-6.292,0-12.57,0-18.862,0
			c4.298,3.786,17.178-1.011,21.557,2.694c-0.714,1.078-1.415,2.183-1.347,4.042c-4.001-1.59-9.148,0.876-16.167,0
			c4.621,2.479,10.212,1.927,14.82,1.348c0.647,4.244-6.184,1.01-6.736,4.042c-1.522-2.775,0.081-1.173-2.694-2.695
			c-1.442,2.291-1.576,3.153-2.695,6.736c-11.681,0-23.348,0-35.029,0c-0.35-3.947,3.045-4.136,2.695-8.083
			c6.144-1.644,5.295,3.691,10.778,2.694c1.104-20.465,24.049-27.08,37.724-39.071c1.132,6.588,5.726,1.388,8.084,6.736
			c5.052-3.731,0.997-8.636,2.694-16.153c1.253-1.442,4.972-0.432,4.042-4.042c3.018,1.469,5.389,5.47,9.431,4.042
			c2.331-2.156,2.91-6.076,2.695-10.778c2.816,2.937,4.096-1.604,4.028-5.39C302.043,550.571,302.649,554.707,302.555,557.105z
			 M302.555,557.159c-0.054,0.337-0.094,0.688-0.121,1.051C302.501,557.954,302.542,557.59,302.555,557.159z M356.325,542.043
			c4.77-15.252-4.486-6.399-2.694-1.348c0.081-0.821,0.202-1.604,1.347-1.348C355.274,540.386,355.018,542.002,356.325,542.043z"/>
		<path d="M438.495,586.489c5.497,1.441,7.842-0.97,13.474,1.348C449.759,588.309,440.314,591.784,438.495,586.489z"/>
		<path d="M445.232,583.795c-4.541,0.646-12.422,0.997-13.446-5.241C436.637,579.915,441.137,581.652,445.232,583.795z"/>
		<path d="M431.759,578.406c0.014,0.054,0.014,0.094,0.027,0.147c-0.067-0.026-0.135-0.054-0.202-0.054
			C431.638,578.474,431.705,578.433,431.759,578.406z"/>
		<path d="M420.98,563.6c2.466,1.037-0.794,1.441-2.694,1.347c-1.994,0.579,0.539,1.711,0,4.042c-3.139,0-6.278,0-9.417,0
			c-0.432-3.126,0.215-5.174,1.334-6.736C413.437,563.061,416.359,564.179,420.98,563.6z"/>
		<path d="M415.592,202.568c1.132,3.26-8.919-0.647-12.112,1.347c0.755-0.97,1.401-2.021,2.398-2.951
			c0.095,0.081,0.188,0.162,0.296,0.256c0.067-0.229,0.122-0.431,0.148-0.633c1.32-1.051,3.247-1.859,6.575-2.062
			C407.831,200.21,408.114,203.727,415.592,202.568z"/>
		<path d="M407.521,205.263c3.786,0.243,1.671,6.4,6.723,5.389c-4.756,2.169-9.282,0.593-17.501,1.347
			c0.014,2.668,3.665,1.711,2.694,5.389c-1.077,5.133-2.25-8.191-2.694,0c-1.711-6.575-13.486-15.251-8.084-20.209
			c-0.593-1.994-1.724,0.525-4.041,0c2.25-4.514-2.843-6.09-2.695-12.125c8.435-0.458-1.644-4.608,2.695-8.084
			c-1.806,0-3.598,0-5.39,0c-0.97-5.389-5.039-12.435,0-16.167c-2.29-0.485-2.546,1.051-2.694,2.694
			c-3.354-0.202-0.391-4.554,0-5.389c7.289,4.028,14.228-3.583,20.209,2.695c-6.305-1.994-13.405-1.509-17.515,4.042
			c0.472,2.115,2.371-1.172,2.694,1.347c3.045-0.754-1.63-2.102,1.348-4.042c3.314,7.073,11.722,1.603,17.515,6.736
			c-1.348,0.957-9.606,1.617-1.348,2.694c-1.441,3.059-8.474,0.512-12.125,1.348c3.18,3.099,12.085,0.485,17.515,1.347
			c-13.001,7.114,23.187,5.888,5.376,6.736c-2.237,0.108-4.487-0.081-6.724,0c-1.832,0.417-1.118,3.368-1.347,5.389
			c-0.89,3.247-3.57-4.931-1.348-5.389c-3.921,1.172-1.522,2.021-1.348,5.389c-2.304,0.054-3.489-0.997-4.041-2.695
			c-5.915,1.886-2.493,5.08-8.084,9.431c2.748-0.296,4.675,1.469,6.602,3.691c0.027,0.108,0.081,0.229,0.135,0.351
			c0.054,0,0.107,0,0.162,0c1.562,1.832,3.166,3.907,5.227,5.389c1.994-0.593-0.538-1.725,0-4.042
			c2.412,0.566,7.559-1.59,6.885,2.062c-0.161,0.121-0.31,0.242-0.444,0.377c-3.691-2.896-3.84,5.201-10.481,2.951
			c0.996,3.031,7.544,0.525,10.777,1.347c-2.681,2.775-2.681,1.267,0,4.042C409.206,208.55,404.53,207.203,407.521,205.263z"/>
		<path d="M400.785,216.041c4.595,2.452,6.467-0.188,12.112,0C410.971,217.227,401.136,221.915,400.785,216.041z"/>
		<path fill="#FFFFFF" d="M406.322,200.588c-0.026,0.202-0.081,0.404-0.148,0.633c-0.107-0.094-0.201-0.175-0.296-0.256
			C406.013,200.83,406.161,200.709,406.322,200.588z"/>
		<path d="M393.914,196.829c-1.307-3.786,8.879-3.665,6.871,0.351c-2.196,0-4.393,0-6.574,0
			C394.116,197.058,394.009,196.95,393.914,196.829z"/>
		<path fill="#FFFFFF" d="M394.211,197.179c-0.055,0-0.108,0-0.162,0c-0.054-0.122-0.107-0.243-0.135-0.351
			C394.009,196.95,394.116,197.058,394.211,197.179z"/>
		<path d="M391.354,141.94c-0.485,2.115-2.371-1.172-2.695,1.348c-4.782,0.296-2.667-6.319-8.083-5.376
			c-1.806,0.876-2.506,2.87-2.694,5.376c0.714,3.786,6.493,2.492,9.431,4.042c-0.458,2.708,0.27,4.217,2.694,4.042
			c-1.562,5.187-11.802,1.67-17.515,2.694c1.482-8.312-3.988-21.947-9.431-33.668c4.526-3.112,14.793-0.472,21.557-1.347
			C385.911,129.68,389.077,132.698,391.354,141.94z"/>
		<path fill="#FFFFFF" d="M381.855,552.605c0.014,0.067,0.041,0.148,0.067,0.216c-0.997,0.067-1.657-0.202-2.263-0.525
			C380.4,552.443,381.128,552.538,381.855,552.605z"/>
		<path d="M388.659,101.536c-1.051,3.449-8.689,0.296-8.083,5.389c-5.039-0.121-3.84-1.509-8.084,0
			c0.107-1.913,0.216-3.813-1.348-4.042c-1.495,0.903,0.27,4.473-4.041,5.389c-4.406,0.35-2.856-5.228-6.737-5.389
			c-1.738,4.864-5.578-0.728-6.736,4.042c-3.665-1.24,1.886-4.217,0-8.084c-2.978,5.915-10.186,3.503-16.167,2.695
			c-4.729,3.341-8.286,7.868-17.515,6.736c5.659-21.799,10.751-35.892,16.167-57.933c14.483-0.458,20.074,2.493,28.292,0
			c1.011,4.608-5.47,1.711-4.042,6.736c2.116-0.579,1.145-4.23,5.389-2.694c-0.256,1.091-1.348,1.347-1.348,2.694
			c1.078-0.714,2.183-1.401,4.042-1.347c-1.939,2.371-1.239,3.072,2.694,2.694c-0.579,2.574-3.853,2.439-2.694,6.737
			c-4.958,0.444-11.923-1.146-14.82,1.347c3.597-0.148,13.729,1.267,18.862,0c-0.579,2.115-4.244,1.159-2.694,5.389
			c-16.747,0-12.382-3.031-25.599,0c6.804,2.075,20.371,1.873,20.209,6.736c1.308-0.041,1.052-1.644,1.348-2.694
			c4.149-0.997,2.587,3.705,6.736,2.694c-5.47,2.142-15.318,0.93-25.598,1.347c3.853,3.341,14.726-0.364,18.862,2.695
			c-4.244,4.19-8.312,5.025-4.042,8.083c-4.042,0-8.083,0-12.125,0c3.854,3.341,14.726-0.364,18.862,2.695
			c0.256,3.786-5.82,3.88,1.348,4.042c-0.216,1.577-2.452,1.132-4.042,1.347c0,1.792,0,3.598,0,5.389
			c1.307-0.04,1.051-1.657,1.348-2.694C378.326,102.115,378.515,102.829,388.659,101.536z"/>
		<path d="M380.576,113.661c-0.364,0-0.728,0-1.092,0C379.902,113.594,380.279,113.58,380.576,113.661z"/>
		<path d="M361.714,113.661c5.928,0,11.843,0,17.771,0C375.052,114.375,364.624,122.095,361.714,113.661z"/>
		<path fill="#FFFFFF" d="M379.66,552.296c-1.024-0.189-2.062-0.458-3.126-0.822C378.029,551.285,378.798,551.851,379.66,552.296z"
			/>
		<path d="M357.672,40.908c0.215-3.583,4.325-1.953,12.125-2.694c-5.86,2.681-10.496,6.575-20.209,5.389
			c4.972,2.223,12.678,1.698,18.862,2.694c-9.363,4.81-18.605,1.415-30.987,2.695c0.431-6.305,2.883-10.59,4.042-16.167
			c4.338-0.296,5.699,2.385,10.778,1.347c0,1.806,0,3.597,0,5.389C355.099,38.995,355.854,40.49,357.672,40.908z"/>
		<path d="M363.062,16.67c0,1.347,0,2.694,0,4.042c-2.385-0.31-6.75,1.347-5.389-2.695C358.871,16.967,360.717,16.562,363.062,16.67
			z"/>
		<path fill="#FFFFFF" d="M353.63,540.695c-1.792-5.052,7.464-13.904,2.694,1.348c-1.307-0.041-1.051-1.657-1.347-2.695
			C353.833,539.092,353.711,539.874,353.63,540.695z"/>
		<path d="M348.241,23.407c0.027-2.062,9.983-2.964,8.083,1.347C353.011,24.929,349.831,24.956,348.241,23.407z"/>
		<path d="M354.978,15.323c1.469,6.399-4.378,5.497-9.431,5.389c-0.566-2.816,0.929-3.57,1.347-5.389
			c1.805,0.27,2.506,5.591,2.694,0c1.577,0.215,1.132,2.452,1.347,4.042C354.169,19.89,350.195,13.221,354.978,15.323z"/>
		<path d="M353.63,30.13c3.274,2.506-8.878,0.916-12.125,1.347c0.472-1.765,2.371-2.115,2.694-4.028
			c2.412-0.391,2.762,1.266,1.348,1.333C345.722,31.76,351.259,29.362,353.63,30.13z"/>
		<path d="M344.199,115.008c0.566,0.674-11.654,5.564-14.82,2.695C332.519,112.166,337.342,115.062,344.199,115.008z"/>
		<path d="M328.032,127.134c1.873-3.072,9.377-0.512,13.473-1.347C339.632,128.858,332.128,126.285,328.032,127.134z"/>
		<path d="M336.116,148.677c5.187,1.563-8.515,5.901-6.736,0C332.721,146.939,335.914,151.682,336.116,148.677z"/>
		<path d="M328.032,159.455c3.354-4.338,4.634-0.835,12.125-2.694C337.84,159.388,333.179,159.671,328.032,159.455z"/>
		<path d="M342.852,137.912c-1.415,7.114-21.395,2.156-4.042,5.376c-1.994,2.977-20.963,0.579-29.64,1.347
			C308.2,131.082,334,137.158,342.852,137.912z"/>
		<path d="M323.99,131.176c4.204-2.735,7.545,0.66,13.473-1.347C330.861,136.336,327.911,132.348,323.99,131.176z"/>
		<path d="M317.254,120.397c5.335,4.19,16.1-4.796,20.209,4.042c-12.436-0.445-15.224-2.802-22.904,5.389
			C312.808,127.35,318.466,123.887,317.254,120.397z"/>
		<path d="M328.032,170.233c2.115,0.485-1.172,2.371,1.347,2.695c-1.32,4.136-3.597-1.55-5.389-1.348
			c-2.371,0.324-3.072,2.317-2.695,5.389c-8.946-1.118-8.555-0.242-18.862,0c0.175-3.328-1.644-2.29-1.347,0
			c-3.948-1.145,1.765-3.381,0-6.736c1.819,0.27,2.52,5.591,2.694,0c6.562,0.188,15.144-1.657,14.82,5.389
			c1.819-0.889,2.52-2.883,2.694-5.389C324.65,168.482,326.887,174.194,328.032,170.233z"/>
		<path d="M328.032,113.661c3.476,0.323-1.846,2.317,0,5.389c-3.867,1.873-6.844-3.678-8.084,0
			c-2.371-0.323-3.072-2.317-2.694-5.389c1.805,0,3.597,0,5.389,0c-0.027,1.307-1.644,1.038-2.695,1.347
			c0.337,1.455,2.681,0.917,2.695,2.695C324.516,113.621,326.469,118.04,328.032,113.661z"/>
		<path d="M330.727,110.967c-1.428,3.058-8.461,0.512-12.125,1.347C318.547,106.602,328.248,110.643,330.727,110.967z"/>
		<path d="M328.032,155.414c-3.274,3.557-0.755,4.54-4.042,8.083c-5.039-1.859-7.531,1.536-12.125-1.347
			c1.738,8.003,12.152-0.849,12.125,5.389c-5.659-1.307-11.641,0.7-20.209,0c0.364-11.546,4.15-12.395,5.389-21.557
			c5.389,0,10.778,0,16.167,0c3.719,2.937-10.024-0.229-10.778,2.694c0.714,1.091,1.415,2.196,1.347,4.042
			c4.177,0,3.543-2.048,8.084-4.042c0.458,5.403-3.854,6.036-9.431,5.389c0.553-3.247-2.452-2.923-1.347-6.736
			c-5.173,3.247,3.813,7.167,0,9.431C324.704,151.533,320.312,161.759,328.032,155.414z"/>
		<path d="M321.295,190.443c-0.027,1.307-1.644,1.051-2.694,1.347c-1.522,0.256-0.741,1.347,0,1.347
			c-7.073,2.533-3.395,1.711-16.167,2.695c1.442,3.058,8.475,0.512,12.125,1.347c-6.655,5.807,5.362-1.199,8.084,2.694
			c-5.389,0.889-18.66,5.551-22.904,1.347c0.094,2.317-2.102,3.341-8.07,2.695c2.317-8.461,5.672-15.871,6.736-25.598
			c4.837,1.145,8.704,0.107,16.154,0c-1.859,5.456,2.924,4.257,2.695,8.083c-1.792,0-3.584,0-5.389,0
			c-0.566-2.816,0.93-3.57,1.347-5.389c-3.826,0.66-1.94,7.046-8.083,5.389c2.748,4.298,3.328,2.978,4.042,8.083
			C312.053,187.586,310.531,191.009,321.295,190.443z"/>
		<path d="M310.518,209.305c1.037,2.115,4.284,2.007,4.042,5.389c-2.128,0.108-5.133-0.647-5.389,1.347
			C305.519,214.802,312.767,213.535,310.518,209.305z"/>
		<path d="M49.023,295.692c0.067-0.014,0.122-0.081,0.162-0.175C49.131,295.571,49.078,295.625,49.023,295.692z M90.062,300.583
			c-0.148,0.094-0.31,0.202-0.471,0.323C89.765,300.798,89.927,300.677,90.062,300.583z M49.01,295.692
			c-0.917,0.242-3.988-5.079-6.562-5.564c-1.657-0.31-4.284,2.304-4.082,2.667c-9.714-4.082-15.48-14.806-21.516-16.14
			c-0.566-2.816,0.93-3.57,1.347-5.389c-4.244,1.509-3.045,0.121-8.083,0c0-1.792,0-3.584,0-5.389c1.805,0,3.597,0,5.389,0
			c0.377,2.183-1.267,2.317-1.348,4.042c2.883,0.633,2.573-1.927,2.695-4.042c3.233,0.822,6.144,1.94,10.778,1.347
			c-2.668,2.775-2.668,1.267,0,4.042c5.335-0.417-1.509-4.675,4.042-4.042c6.427,2.978,25.76-2.627,47.155-1.347
			c-0.862,2.937,3.813,4.284-1.347,4.042c0.876,1.374,3.085,1.401,2.695,4.042c18.471-2.263,30.516,0.674,44.447-2.694
			c-1.051-1.199-1.442-3.045-1.348-5.389c5.039-0.646-0.323,4.77,4.042,6.736c2.991,0.997,5.551-4.958,2.695-5.389
			c26.043-1.738,68.725-0.781,98.338-1.347c11.169,11.385,26.366-5.146,44.46,0c4.163-8.852,6.763-19.28,9.431-29.626
			c1.873,5.766,6.076-4.258,10.455-0.324c-2.075-2.209-3.26-5.308-7.76-5.065c-1.24-6.709,4.244-5.74,1.347-10.778
			c7.275,5.146,8.03-5.066,12.125,5.389c0.512-0.701,6.534-1.994,2.681-2.695c0.849-2.465,5.631,2.317,5.389,5.389
			c-7.141-0.243-6.871-0.875-13.459,0c10.496,2.533,17.568,2.264-1.347,2.695c-0.202,5.578,9.364,1.401,13.459,2.694
			c-1.725,3.489-5.012,10.172,1.347,10.765c-1.415,4.877-8.057,4.514-8.07,10.778c-7.625,0.997-12.247-3.328-14.82,2.695
			c3.625,3.543,7.559-4.042,14.82-1.348c0.202,7.841-13.567,1.711-17.515,5.389c1.846,3.099,5.537,4.338,8.083,6.736
			c-3.422-6.386,5.511-2.425,10.765-2.694c-5.551,4.352-9.094,3.193-18.849,4.042c-0.525,5.47,8.394,1.482,12.125,2.694
			c0.566,2.816-0.93,3.57-1.347,5.389c2.951-0.862,4.473-1.765,8.07,0c-12.813,5.82-16.329,2.735-36.363,4.042
			c4.513,3.112,14.793,0.472,21.557,1.347c-0.809,3.503,0.539,4.85,4.042,4.042c0.593,5.982-3.449,7.329-9.431,6.736
			c2.115-1.024,2.007-4.271,5.389-4.042c-4.177-1.59,0.202-3.381-2.695-5.389c-2.128,2.129,1.213,4.823-2.694,8.084
			c-2.466-0.364-7.559-4.851-9.431-1.348c1.226,1.186,3.975,0.229,8.084,1.348c-3.301,3.894-11.951,2.425-18.862,2.694
			c9.445,2.722,20.479,1.32,29.64,1.347c-0.875,1.375-3.099,1.388-2.694,4.042c-30.691-6.238-53.582,6.763-72.753-4.042
			c-3.125,2.021-2.048,3.288-1.347,6.737c-16.315,0.498-36.215-0.741-48.489,0c0.256-5.861,2.344-2.452,6.737-2.695
			c1.926-0.296-1.253-6.709,0-10.778c-4.096-0.041-3.355,4.729-4.042,8.084c-2.493-0.202-0.835-4.567-2.695-5.389
			c-2.923-0.229-0.62,4.783-1.347,6.736c-5.254,0.337-14.497-5.12-13.473,4.042c-5.497,0.552-8.501-1.375-8.084-6.737
			c-4.998,10.738-17.339-1.455-18.862,6.737c-16.45,2.533-25.315-2.52-33.668-8.084c-4.163,1.927,5.093,2.371,1.927,4.972
			c4.325-3.018,2.694-0.202,6.144,3.112c-7.814,0.431-2.735,0.121-13.459,1.347c32.416,5.025-14.726,1.132-21.557,2.694
			c0.202-3.354-2.115-4.176-2.694-6.736c-4.837,5.254-8.609-7.531-10.778,0C42.759,299.384,47.178,297.511,49.01,295.692z"/>
		<path d="M309.17,210.652c-2.183,1.172-6.831,1.536-10.765,0C301.962,207.621,307.042,210.437,309.17,210.652z"/>
		<path d="M295.711,595.921c-1.091-5.12,6.359-1.712,9.417-2.695C304.037,595.382,298.581,600.003,295.711,595.921z"/>
		<path fill="#FFFFFF" d="M302.434,558.21c0.027-0.363,0.067-0.714,0.121-1.051C302.542,557.59,302.501,557.954,302.434,558.21z"/>
		<path d="M291.669,205.263c3.583,0,7.181,0,10.765,0c-0.364,1.226-5.012,4.527-5.375,1.347c-3.072,2.52,1.482,4.702,4.028,8.084
			c-3.207,1.28-3.988,4.985-9.417,4.042c0.835-2.748,6.804-0.377,5.389-5.389c-2.317-3.517-7.504,1.374-6.736,5.389
			C285.242,217.281,291.292,209.574,291.669,205.263z"/>
		<path d="M179.548,404.943c-2.614,2.385-4.15-0.512-6.427-1.657c2.438-2.748,62.379-0.97,29.627,0
			c2.654,3.638,13.405-0.822,16.167,2.694c-0.997,3.045-7.558,0.525-10.778,1.348c1.873,3.071,9.377,0.498,13.473,1.348
			c-2.52,2.56-0.148,3.381,0,6.736c6.278,0.444,7.019-4.662,14.82-2.695c-0.66,0.741-10.064,4.258-14.82,5.39
			c1.01,2.546,4.028,0.93,1.347,4.042c4.217,0.27,9.889-0.916,12.125,1.347c-0.202-2.95-3.395-2.896-6.736-2.694
			c-1.496-3.396,11.654-0.66,12.125,2.694c-4.554,1.792-14.227,3.247-16.167,0c2.075,4.433,5.511,4.527,1.348,9.432
			c5.065-3.019,7.571-8.596,17.515-6.736c1.441,3.044,3.058,5.928,5.389,8.083c1.59-1.549,4.756-1.522,8.084-1.347
			c-3.449,2.007-10.725,5.496-12.125-1.348c-2.614,8.138-20.034,1.832-32.335,4.042c-1.239-9.633-17.595-9.472-14.82-18.862
			c-4.77,2.668-2.654,1.752-8.07,0c0.875-1.374,3.085-1.388,2.694-4.042c-1.024-1.199-4.311-1.158-9.431-1.347
			C181.987,408.352,176.961,407.8,179.548,404.943z"/>
		<path d="M253.945,441.01c0.391,3.489-9.107,4.676-6.736-1.347C249.593,442.183,251.143,438.06,253.945,441.01z"/>
		<path d="M229.694,445.052c3.395,6.022,17.784,1.078,25.599,2.694c-0.957,6.157-12.759,0.311-13.473,1.348
			c-3.166,0.014,0.499,3.665,2.695,2.694c-0.889,4.028-2.883-1.293-5.389,0c0.593,1.657,1.725,2.762,4.042,2.694
			c-1.886,3.921-4.635-2.397-8.084-1.347c0.983,1.253,2.452,2.034,4.042,2.694c-5.524,2.533-7.141-1.846-13.473,0
			c-2.035,1.172,0.377,2.008-1.348,5.376c-3.489-0.539-3.88-4.19-5.389-6.724c3.112,0.836,7.167-7.06,6.737-1.347
			c2.492-0.202,0.835-4.567,2.694-5.39c-4.648-2.546-6.656-7.72-12.125-9.431c8.286-0.377,20.667-2.896,28.293,0
			c3.354,1.267-8.73,2.438,0,2.694c-1.051,1.199-1.442,3.031-1.347,5.39C236.821,444.433,235.204,447.06,229.694,445.052z"/>
		<path d="M228.347,418.106c3.328-4.688,8.232-1.361,16.167-2.694C243.975,421.165,233.224,416.691,228.347,418.106z"/>
		<path d="M228.347,471.984c2.062,3.341,11.061-0.283,10.778,5.389c-5.214-3.422-15.278,0.781-18.862-1.347
			c-1.806,7.194,7.895,2.883,12.125,4.041c-3.543,6.966-8.636,1.32-13.473,4.042c1.873,3.53,11.438-0.646,13.473,2.694
			c-3.032,1.994-14.335,1.132-22.904,1.348c2.438-4.998,2.775-12.422,5.389-20.209c7.37,0.997,12.947,0.687,21.556,2.694
			C236.269,473.614,230.718,471.216,228.347,471.984z"/>
		<path d="M218.943,628.255c2.317,0,7.706,6.48,6.709,1.348c1.145-0.242,1.28,0.525,1.347,1.348
			c-0.243,1.145,0.525,1.266,1.347,1.347c-1.859,3.072-9.377,0.499-13.473,1.348c2.304,3.085,10.293,0.498,14.82,1.347
			c0.404,5.875-10.293-0.323-5.389,6.736c-4.486,0-8.973,0-13.473,0c2.667-9.794-2.115,4.433-6.736-1.347
			c4.5,6.979,17.878,0.391,26.945,4.042c-14.268,0.229-26.137,3.354-37.71-1.348c-1.307,2.277-3.732,3.463-8.084,2.694
			c4.514,3.112,14.793,0.472,21.543,1.348c-1.131,1.562-1.778,3.61-1.347,6.736c-3.341-0.216-4.163,2.115-6.736,2.694
			c-0.62,3.045,7.315-3.112,8.083,1.348c0.135-4.028,3.651-1.146,8.084-2.694c-1.954,6.197-8.03,2.586-18.862,4.041
			c3.598,4.123,6.656,0.445,13.473,1.348c-7.046,5.646-20.694-2.708-21.543,8.084c-2.546-0.148-0.943-4.46-4.042-4.042
			c-4.594,1.428,3.746,0.418,1.347,4.042c-4.594-2.345-7.909,1.023-14.82,0c3.503-8.542-6.319,3.961-14.82,0
			c3.004-3.732,0.094-13.393,8.083-12.126c-2.425-5.618-2.843-12.664,1.765-16.773c-1.725,2.088,5.537,2.883-0.417,3.301
			c0.256,1.092,1.347,1.334,1.347,2.694c7.801-2.465,1.172-12.516,2.694-21.557c10.711-0.417,18.377,2.224,25.733,5.16
			c-0.041,0.081-0.094,0.148-0.148,0.229c0.27,0.04,0.566,0.054,0.862,0.067c1.064,0.418,2.115,0.849,3.18,1.28
			c-0.175-1.308-1.738-1.227-3.18-1.28c-0.243-0.107-0.472-0.202-0.714-0.297c0.781-1.118,1.374-2.195-0.148-2.465
			c1.159-2.789,9.377-1.429,10.778,0c-0.377,2.829-3.597-1.954-5.389,1.347c10.024,4.985,21.988-6.952,47.155-2.694
			C242.224,630.909,228.131,627.123,218.943,628.255z"/>
		<path d="M233.736,649.812c0.027,5.686-10.805,0.499-10.778,2.694C218.081,648.397,230.354,650.108,233.736,649.812z"/>
		<path d="M216.221,496.235c5.079-3.261,9.902,0.646,14.82-1.348c-6.467,5.618-5.241,7.518-17.515,8.084
			c2.668,2.276,8.407,1.469,12.126,2.694c-1.63,1.967-5.888,1.293-4.042,6.736c1.576-0.216,1.145-2.452,1.347-4.042
			c3.948,1.146-0.808,4.339,0,6.736c-7.154-2.452-23.012,3.598-18.862-9.431c2.546,1.011,0.943,4.028,4.042,1.348
			c1.011-4.15-3.691-2.587-2.694-6.736c3.018-1.132,2.358-6.171,2.694-6.736C211.613,490.617,216.127,493.972,216.221,496.235z"/>
		<path d="M216.221,548.779c4.082-0.418,4.823-4.177,10.778-2.694c-1.253,6.372-14.618,4.917-16.167,0
			c-2.088,1.589,3.638,6.669,0,10.777c-4.486,0-8.973,0-13.473,0c0.162,3.436,4.513,2.668,8.083,2.695
			c5.362,1.535-15.009-1.146-12.112,6.736c4.149-2.25,9.512-3.301,16.154-1.348c-0.876,1.361-3.099,1.388-2.695,4.042
			c-5.2,0.256-9.916,0.04-13.459-1.348c12.678,5.134,1.967,4.406-9.431,5.376c3.503-5.133,7.249-11.074,6.736-20.195
			c3.651-0.836,10.684,1.711,12.112-1.348c2.102-5.686-7.478,0.297-5.389-5.389C205.497,546.192,212.26,542.164,216.221,548.779z"/>
		<path d="M222.958,463.9c0.391,3.503-9.107,4.688-6.736-1.348C219.347,462.136,221.395,462.782,222.958,463.9z"/>
		<path d="M210.832,396.55c-3.557,3.449,1.846,2.681,5.389,2.694c-3.476,2.466-25.1,0.351-33.668,1.348
			c3.072-4.5-1.954-0.081-5.389-2.694c0.027,1.307,1.644,1.051,2.694,1.347c-15.305,5.025-22.513-14.308-33.682-21.557
			c0.31-1.939,4.015-0.472,4.042-2.694c-8.811-0.997-23.375-4.891-29.64-17.515c13.136-1.994,29.842-2.452,33.682,1.347
			c2.749-3.179,2.452-1.711,8.083-2.694c-2.56,1.576-3.638,3.894,1.347,4.042c-5.86,3.125-17.501,0.471-25.598,1.347
			c2.425,2.533,12.61,1.146,20.209,1.348c6.44,0.175,20.317-0.459,12.125,1.347c-3.786,1.617-9.296,1.482-14.82,1.348
			c6.049,2.479,15.938,1.132,22.904,2.694c-4.379,4.81,0.094,5.079,4.042,8.084c-1.442,3.058-8.475,0.512-12.125,1.347
			c2.371,3.463,6.898,4.77,13.473,4.042c-0.296,3.84-7.774,3.867,0,5.39c-1.873,3.071-9.377,0.498-13.473,1.347
			c7.194,3.881,14.672,0.297,25.584,1.348c-0.458,5.483-3.53-0.054-6.723,2.694C196.066,394.26,203.786,395.081,210.832,396.55z"/>
		<path d="M214.874,524.528c0.417,4.203-3.894-3.423-4.042,1.347c-0.243,1.146,0.525,1.267,1.347,1.348
			c-0.27,2.062-8.636-7.666-10.778,0c-3.031-1.011-0.525-7.559-1.347-10.778c1.805,0,3.597,0,5.389,0
			c-0.027,1.307-1.644,1.051-2.694,1.348c1.899,3.92,4.648-2.385,8.083-1.348c2.465,1.051-0.809,1.455-2.695,1.348
			c0.216,1.576,2.466,1.131,4.042,1.347c-1.644,1.913-5.133,3.059-6.736,1.348C205.47,524.945,213.055,521.847,214.874,524.528z"/>
		<path d="M212.179,647.117c1.469,0.337,0.916,2.681,2.695,2.694c-1.226,2.816-3.975,4.109-8.084,4.042
			c0.162-3.436,0.256-6.938,4.042-6.736c-0.701,1.994-1.994,3.396-2.695,5.389c1.091-0.714,2.196-1.414,4.042-1.347
			C210.562,649.381,211.654,649.044,212.179,647.117z"/>
		<path d="M202.749,536.653c-0.216,2.924,4.783,0.606,6.736,1.348c-1.24,2.344-4.204,2.978-8.084,2.694
			c15.777,3.031-3.179,3.207-8.07,4.042c-0.809-6.643,3.489-8.178,2.681-14.82c3.894,0.162,8.825-0.741,10.778,1.348
			C207.976,535.576,204.715,535.481,202.749,536.653z"/>
		<path d="M190.232,582.677c9.957,2.304,16.06,2.048-2.29,2.466c0,0.902,0,1.805,0,2.694c0.162,2.978,5.712,0.579,8.07,1.347
			c-1.01,3.477-4.298,4.689-9.417,4.042c2.088,2.398,3.786,5.201,9.417,4.042c-0.404-1.818-3.368-1.118-5.375-1.347
			c0.566-2.991,7.141-1.052,8.07,0c0.417,3.111-3.88,1.495-4.042,4.041c4.891-2.357,8.582-3.273,12.125-1.347
			c0.175,3.341-1.644,2.29-1.347,0c-1.307,2.29-3.718,3.462-8.083,2.694c6.763,3.934-12.247,3.14-6.723,0
			c-4.783,1.832-2.667,2.183-8.083,2.694c9.929,2.129,15.763,2.654,0,2.694c-0.539,3.234,6.13-0.74,4.042,4.042
			c-4.23-1.495-3.57-0.633-6.736,1.348c-0.054,2.452,6.777-2.573,6.736,2.694c1.307-0.04,1.038-1.644,1.348-2.694
			c1.576,0.216,1.131,2.452,1.347,4.042c4.688-0.391-0.121-3.638,2.694-4.042c2.87-0.633,2.56,1.927,2.681,4.042
			c2.129-0.579,1.159-4.23,5.389-2.694c-2.978,4.877-12.543,5.658-16.154,1.347c-2.115,0.579-1.159,4.244-5.389,2.694
			c0.566,3.032,7.141,0.041,8.083,2.695c-1.239,6.372-14.685-0.027-16.167,2.694c1.805-7.976,3.408-27.498,12.125-29.641
			c-8.003-2.385,0.983-12.489,1.347-18.861c8.447,0.808,13.298-0.067,18.849,1.347c-0.256,1.536-1.348,0.755-1.348,0
			c-5.524,3.112,4.81,1.294,2.695,5.39C201.401,579.349,196.888,583.997,190.232,582.677z M190.178,582.663
			c-0.296-0.067-0.593-0.148-0.889-0.216C189.585,582.528,189.882,582.609,190.178,582.663z"/>
		<path d="M204.096,590.531c1.253,3.005-8.124,4.931-6.736-1.348C199.326,589.925,204.325,587.607,204.096,590.531z"/>
		<path d="M201.401,381.729c8.097,2.425-14.187,5.335-16.154,0C192.212,383.104,193.533,381.757,201.401,381.729z"/>
		<path d="M193.331,668.674c-5.025-3.396,5.12-2.843,8.07-2.694C200.444,670.345,193.722,666.842,193.331,668.674z"/>
		<path fill="#FFFFFF" d="M195.527,629.67c1.441,0.054,3.004-0.027,3.18,1.28C197.642,630.519,196.591,630.088,195.527,629.67z"/>
		<path fill="#FFFFFF" d="M194.813,629.373c0.242,0.095,0.471,0.189,0.714,0.297c-0.296-0.014-0.593-0.027-0.862-0.067
			C194.719,629.521,194.772,629.454,194.813,629.373z"/>
		<path fill="#FFFFFF" d="M190.178,582.663c-0.296-0.054-0.593-0.135-0.889-0.216C189.585,582.515,189.882,582.596,190.178,582.663z
			"/>
		<path d="M182.553,670.021c-0.175,4.743-1.967,0.364-5.389,2.695c-0.633,2.869,1.913,2.56,4.042,2.694
			c-0.565,3.018-7.154,0.026-8.083,2.681c1.226,2.371,0.458,6.724,2.695,8.084c-1.482,0.674-6.737-0.067-8.084,4.042
			c-1.657-0.579-2.775-1.725-2.694-4.042c-3.772,1.334,1.954,3.598-1.348,5.389c-4.944,0-9.875,0-14.82,0
			c4.042-6.278,1.711-18.942,9.431-21.543c-0.472,1.766-2.372,2.115-2.695,4.042C162.586,667.205,172.448,672.433,182.553,670.021z"
			/>
		<path d="M166.385,639.033c-0.337,0.229-0.647,0.485-0.93,0.741C165.644,639.545,165.954,639.303,166.385,639.033z"/>
		<path d="M162.343,300.906c1.375,4.527-4.19,2.102-6.736,2.695c0-0.903,0-1.792,0-2.695
			C157.857,300.906,160.093,300.906,162.343,300.906z"/>
		<path d="M166.385,695.605c-3.638,3.112-13.001,0.485-18.862,1.348C148.951,691.335,162.545,694.852,166.385,695.605z"/>
		<path d="M146.176,698.301c4.042,0,8.084,0,12.126,0C157.83,700.954,146.014,703.649,146.176,698.301z"/>
		<path d="M151.565,345.367c0.728,2.142-11.223,3.085-17.515,2.694c0.58,3.004,6.642,0.539,9.431,1.347
			c4.352,1.55-3.624,1.522-5.389,1.348c0.445,4.742,22.796,2.29,6.736,4.028c-8.083,0-16.167,0-24.251,0
			c0.485-1.765,2.371-2.115,2.694-4.028c-8.394-2.331-3.099,9.094-6.736,0c-1.576,0.215-1.131,2.452-1.347,4.028
			c-7.06-8.784-14.604-8.03-17.515-16.154c20.209-2.291,34.167,0.175,53.891,1.347c-8.676,1.549-11.991,2.102-22.904,2.694
			C134.967,344.895,144.061,344.343,151.565,345.367z"/>
		<path d="M115.188,321.116c0,3.597,4.257,2.923,4.042,6.736c-14.537,1.024-25.612-2.344-36.363,1.347
			c-10.482-5.968-11.007-13.607-21.557-18.862c8.097-3.126,21.988-0.458,32.321-1.348c-1.576,1.779-8.784,3.045,4.042,2.695
			c-0.579,1.657-1.725,2.762-4.042,2.694c2.317,2.088,13.702,2.008,2.695,2.695c0.027,2.681,3.678,1.711,2.694,5.389
			C105.461,321.978,106.243,320.846,115.188,321.116z"/>
		<path d="M112.494,329.199c5.429-1.388,5.982,2.088,8.083,4.042c-4.473,4.001-12.718,1.94-22.904,2.694
			c2.506-6.103-4.837-2.344-5.389-5.389c-1.455,0.323-0.903,2.681-2.694,2.695c0.04,1.307,1.657,1.037,2.694,1.347
			c-1.199,3.638-5.457-0.633-4.028-4.042c4.837-3.112,8.501,0.606,13.459-1.347c0.391,2.169-1.267,2.317-1.347,4.042
			c2.883,0.62,2.573-1.927,2.694-4.042c1.94,1.59,2.56,7.141,2.694,0c1.833,0.417,1.119,3.368,1.348,5.389
			c1.091-0.714,2.196-1.415,4.042-1.347C114.191,332.486,109.517,331.139,112.494,329.199z"/>
		<path d="M94.979,265.877c2.25,0,4.5,0,6.736,0c-0.593,6.009-2.83,2.007-6.736,4.042C94.979,268.571,94.979,267.224,94.979,265.877
			z"/>
		<path fill="#FFFFFF" d="M89.59,300.906c0.162-0.121,0.323-0.229,0.471-0.323C89.927,300.677,89.765,300.798,89.59,300.906z"/>
		<path fill="#FFFFFF" d="M49.023,295.692c0.054-0.067,0.108-0.122,0.162-0.175C49.145,295.611,49.091,295.679,49.023,295.692z"/>
	</g>
</g>
</svg>
