<?xml version="1.0" encoding="utf-8"?>
<!-- Generator: Adobe Illustrator 14.0.0, SVG Export Plug-In . SVG Version: 6.00 Build 43363)  -->
<!DOCTYPE svg PUBLIC "-//W3C//DTD SVG 1.0//EN" "http://www.w3.org/TR/2001/REC-SVG-20010904/DTD/svg10.dtd">
<svg version="1.0" xmlns="http://www.w3.org/2000/svg" xmlns:xlink="http://www.w3.org/1999/xlink" x="0px" y="0px" width="360px"
	 height="360px" viewBox="0 0 360 360" enable-background="new 0 0 360 360" xml:space="preserve">
<g id="Layer_1_x23_EF4F23">
	<g>
		<g>
			<path fill="#EF4F23" d="M283.07,288.48c0,7.909,1.56,17.97,0,23.189c-1.58,5.32-15.021,12.61-20.36,15.84
				c-22.58,13.66-51.29,23.55-85.41,23.19c-47.26-0.49-78.06-17.48-104.08-39.03c0-61.84,0-123.689,0-185.53
				c43.37-30.73,77.92-70.28,105.21-117.09c26.129,47.41,61.839,85.23,104.64,115.96C283.07,178.6,283.07,232.83,283.07,288.48z
				 M270.63,227.96c1.37-7.66-2.26-18.59-0.57-26.02c-34.119-22.07-65.13-47.25-91.629-76.931c-13.4,12.42-28.48,27.9-44.12,40.72
				c-7.72,6.33-15.15,12.23-23.19,18.1c-7.91,5.78-16.09,11.18-24.32,16.97c1.24,7.34-1.64,20.33,0,26.59
				c1.51,5.811,9.66,13.521,15.27,19.23c17.13,17.46,41.56,32.17,70.7,33.939c36.91,2.24,66.51-13.079,83.72-32.81
				C260.18,243.52,269.65,233.45,270.63,227.96z M270.63,160.64c0-8.86,0-17.72,0-26.58c-37.17-29.01-66.52-65.84-93.33-105.21
				c-10.57,20.39-26.1,38.55-41.29,57.13c-10.63,12.99-22.5,25.23-36.2,36.2c-4.19,3.35-12.25,8.88-13.01,11.31
				c-2.53,8,1.91,19.29,0,26.59c5.22-0.92,9.6-4.94,13.57-7.92c13.29-9.98,24.78-20.82,36.2-32.24
				c15.37-15.37,29.35-32.07,42.99-48.65C204.96,106.02,234.12,137,270.63,160.64z M270.06,272.08
				c3.021-9.82-1.869-22.45-0.56-31.12c-21.77,21.18-49.12,45.26-91.64,45.26c-42.27,0-69.16-22.06-90.5-45.819
				c-1.32,9.239-0.19,20.93-0.56,31.109c18.82,16.05,45.75,34.17,82.01,36.771c36.48,2.609,63.53-8.4,85.42-23.2
				C259.38,281.6,268.99,275.56,270.06,272.08z M270.06,307.14c2.33-8.479-1.359-19.42-0.56-26.58
				c-23.31,17.53-54.74,33.471-93.33,33.37c-37.47-0.09-67.31-15.21-88.81-33.37c-1.32,7.73-0.19,17.91-0.56,26.58
				c30.84,31.45,117.09,37.771,162.33,14.71C255.89,318.41,268.47,312.96,270.06,307.14z M270.06,192.88c0-8.479,0-16.96,0-25.45
				c-35.54-24.42-67-52.91-92.2-87.67c-21.15,26.71-49.49,57.46-78.62,78.62c-4.46,3.24-11.53,6.8-12.44,9.62
				c-2.5,7.71,1.49,18.47,0.56,24.88c35.55-18.37,64.07-48.68,91.64-76.92c23.61,28.56,54.75,52.87,85.41,74.1
				C265.94,191.12,267.76,193.87,270.06,192.88z"/>
			<path fill="#EF4F23" d="M251.96,216.08c-15.2,20.439-34.6,39.82-66.74,42.42c-39.12,3.17-63.1-18.29-79.76-41.29
				c26.15-17.979,50.74-37.51,72.97-59.4C200.97,179.21,225.08,199.02,251.96,216.08z M222.55,234.18
				c0.74-3.79,2.53-6.52,2.83-10.75c-6.74-2.5-14.26-4.22-19.8-7.92c0.689-2.8-2.84-3.649-3.39-6.79
				c-5.271-0.01-10.181-0.38-13.011-2.83c7.48-1.319,13.21-6.949,20.36-6.779c0.35-1.91,1.3-3.221,1.7-5.091
				c-4.51-3.229-7.41,3.99-12.45,1.69c-6.5,4.56-14.05,4.771-21.49,7.92c-5.65-3.59-15.06-3.42-19.8-7.92
				c-5.54,2.3-7.16-4.04-12.44-2.26c-0.71,3.22,1.08,2.62,1.13,5.66c7.29-0.03,13.83,5.33,20.93,7.35
				c-3.98,1.49-8.81,2.13-13.58,2.83c-1.67,2.47-3.08,5.21-4.52,7.92c-5.38,1.06-12.84,4.35-18.67,6.79
				c0.78,3.55,2.55,6.11,2.83,10.18c16.42-2.319,29.52-15.52,44.68-22.63C193.17,218.49,206.32,231.72,222.55,234.18z"/>
			<path fill="#EF4F23" d="M217.46,231.35c-4.13,1.7-9.51-4.71-14.14-6.22C208.78,224.2,212.84,229.55,217.46,231.35z"/>
			<path fill="#EF4F23" d="M200.49,221.17c1.75,0.13,1.76,2,2.26,3.39c-1.76-0.5-2.63-1.89-4.52-2.26
				C197.82,220.76,200.89,222.7,200.49,221.17z"/>
			<path fill="#EF4F23" d="M200.49,220.6c-3.351,0.71-4.04-1.229-5.66-2.26C196.27,217.31,200.04,218.77,200.49,220.6z"/>
			<path fill="#EF4F23" d="M193.7,216.64c0.05,0.9-0.271,2.16,0.569,2.261c-3.109-0.101-7.229-4.07-10.75-5.65
				C186.21,212.83,190.09,216.09,193.7,216.64z"/>
			<path fill="#EF4F23" d="M171.64,212.68c-0.16,2.87-6.93,4-9.05,6.79C160.69,214.54,169.59,215.54,171.64,212.68z"/>
			<path fill="#EF4F23" d="M160.33,217.21c2.41,1.21-1.55,4-4.53,3.39C156.12,218.28,159.39,218.91,160.33,217.21z"/>
			<path fill="#EF4F23" d="M154.67,221.17c0.67,0.65,2,0.64,3.4,0.561c-6.22,3.239-12.88,8.97-19.24,10.18
				C142.29,226.5,151.65,227,154.67,221.17z"/>
		</g>
	</g>
</g>
<g id="Layer_2_x23_DEE21D">
	<g>
		<g>
			<path fill="#DEE21E" d="M270.06,201.94c-1.689,7.43,1.94,18.359,0.57,26.02c-0.979,5.49-10.45,15.56-14.14,19.79
				c-17.21,19.73-46.811,35.05-83.72,32.81c-29.14-1.77-53.57-16.479-70.7-33.939c-5.61-5.71-13.76-13.42-15.27-19.23
				c-1.64-6.26,1.24-19.25,0-26.59c8.23-5.79,16.41-11.189,24.32-16.97c8.04-5.87,15.47-11.77,23.19-18.1
				c15.64-12.82,30.72-28.3,44.12-40.72C204.93,154.69,235.94,179.87,270.06,201.94z M185.22,258.5
				c32.141-2.6,51.54-21.98,66.74-42.42c-26.88-17.061-50.99-36.87-73.53-58.27c-22.23,21.89-46.82,41.42-72.97,59.4
				C122.12,240.21,146.1,261.67,185.22,258.5z"/>
			<path fill="#DEE21E" d="M269.5,240.96c-1.31,8.67,3.58,21.3,0.56,31.12c-1.069,3.479-10.68,9.52-15.829,13
				c-21.891,14.8-48.94,25.81-85.42,23.2c-36.26-2.601-63.19-20.721-82.01-36.771c0.37-10.18-0.76-21.87,0.56-31.109
				c21.34,23.76,48.23,45.819,90.5,45.819C220.38,286.22,247.73,262.14,269.5,240.96z"/>
			<path fill="#DEE21E" d="M269.5,280.56c-0.8,7.16,2.89,18.101,0.56,26.58c-1.59,5.82-14.17,11.271-20.93,14.71
				c-45.24,23.061-131.49,16.74-162.33-14.71c0.37-8.67-0.76-18.85,0.56-26.58c21.5,18.16,51.34,33.28,88.81,33.37
				C214.76,314.03,246.19,298.09,269.5,280.56z"/>
			<path fill="#DEE21E" d="M270.06,167.43c0,8.49,0,16.97,0,25.45c-2.3,0.99-4.119-1.76-5.649-2.82
				c-30.66-21.229-61.8-45.54-85.41-74.1c-27.57,28.24-56.09,58.55-91.64,76.92c0.93-6.41-3.06-17.17-0.56-24.88
				c0.91-2.82,7.98-6.38,12.44-9.62c29.13-21.16,57.47-51.91,78.62-78.62C203.06,114.52,234.52,143.01,270.06,167.43z"/>
			<path fill="#DEE21E" d="M225.38,223.43c-0.3,4.23-2.09,6.96-2.83,10.75c-16.229-2.46-29.38-15.689-44.69-22.63
				c-15.16,7.11-28.26,20.311-44.68,22.63c-0.28-4.069-2.05-6.63-2.83-10.18c5.83-2.44,13.29-5.73,18.67-6.79
				c1.44-2.71,2.85-5.45,4.52-7.92c4.77-0.7,9.6-1.34,13.58-2.83c-7.1-2.02-13.64-7.38-20.93-7.35c-0.05-3.04-1.84-2.44-1.13-5.66
				c5.28-1.78,6.9,4.56,12.44,2.26c4.74,4.5,14.15,4.33,19.8,7.92c7.44-3.149,14.99-3.36,21.49-7.92c5.04,2.3,7.94-4.92,12.45-1.69
				c-0.4,1.87-1.351,3.181-1.7,5.091c-7.15-0.17-12.88,5.46-20.36,6.779c2.83,2.45,7.74,2.82,13.011,2.83
				c0.55,3.141,4.079,3.99,3.39,6.79C211.12,219.21,218.64,220.93,225.38,223.43z M203.32,225.13c4.63,1.51,10.01,7.92,14.14,6.22
				C212.84,229.55,208.78,224.2,203.32,225.13z M202.75,224.56c-0.5-1.39-0.51-3.26-2.26-3.39c0.399,1.53-2.67-0.41-2.26,1.13
				C200.12,222.67,200.99,224.06,202.75,224.56z M194.83,218.34c1.62,1.03,2.31,2.97,5.66,2.26
				C200.04,218.77,196.27,217.31,194.83,218.34z M194.27,218.9c-0.84-0.101-0.52-1.36-0.569-2.261c-3.61-0.55-7.49-3.81-10.181-3.39
				C187.04,214.83,191.16,218.8,194.27,218.9z M162.59,219.47c2.12-2.79,8.89-3.92,9.05-6.79
				C169.59,215.54,160.69,214.54,162.59,219.47z M155.8,220.6c2.98,0.61,6.94-2.18,4.53-3.39
				C159.39,218.91,156.12,218.28,155.8,220.6z M158.07,221.73c-1.4,0.079-2.73,0.09-3.4-0.561c-3.02,5.83-12.38,5.33-15.84,10.74
				C145.19,230.7,151.85,224.97,158.07,221.73z"/>
			<path fill="#DEE21E" d="M270.63,134.06c0,8.86,0,17.72,0,26.58c-36.51-23.64-65.67-54.62-91.07-89.37
				c-13.64,16.58-27.62,33.28-42.99,48.65c-11.42,11.42-22.91,22.26-36.2,32.24c-3.97,2.98-8.35,7-13.57,7.92
				c1.91-7.3-2.53-18.59,0-26.59c0.76-2.43,8.82-7.96,13.01-11.31c13.7-10.97,25.57-23.21,36.2-36.2
				c15.19-18.58,30.72-36.74,41.29-57.13C204.11,68.22,233.46,105.05,270.63,134.06z"/>
		</g>
	</g>
</g>
</svg>
