<?xml version="1.0" encoding="utf-8"?>
<!-- Generator: Adobe Illustrator 14.0.0, SVG Export Plug-In . SVG Version: 6.00 Build 43363)  -->
<!DOCTYPE svg PUBLIC "-//W3C//DTD SVG 1.0//EN" "http://www.w3.org/TR/2001/REC-SVG-20010904/DTD/svg10.dtd">
<svg version="1.0" id="Layer_1_x23_ED1C24" xmlns="http://www.w3.org/2000/svg" xmlns:xlink="http://www.w3.org/1999/xlink" x="0px"
	 y="0px" width="720px" height="504px" viewBox="0 0 720 504" enable-background="new 0 0 720 504" xml:space="preserve">
<g>
	<g>
		<path fill="#ED1C24" d="M703.001,20.66c0,148.961,0,297.923,0,446.885c-230.225,0-460.436,0-690.647,0
			c0-147.687,0-295.385,0-443.071c-0.117-1.81-0.208-3.593,1.263-3.814C243.412,20.66,473.206,20.66,703.001,20.66z
			 M677.605,415.491c-0.846-118.489,1.692-240.364-1.275-356.745c-62.389,53.563-125.154,106.749-189.157,158.698
			c56.388,63.729,121.966,127.106,179.004,189.17C669.119,409.816,672.061,416.468,677.605,415.491z M49.165,447.239
			c206.521,0,413.042,0,619.55,0C605.754,378.16,535.568,305.306,468.13,236.487c0.391-2.577-3.671,0.261-3.814,1.263
			c-26.371,22.922-54.656,44.998-82.524,68.559c-9.281,7.849-19.785,20.54-30.459,20.318c-8.917-0.195-21.66-12.417-29.209-19.043
			c-27.725-24.314-51.246-47.341-78.711-67.283c-61.048,63.404-125.363,132.053-185.356,195.509
			C54.814,439.233,48.202,441.577,49.165,447.239z M656.024,43.517c1.9-1.692,8.044-3.462,6.339-7.615
			c-204.399,0.846-412.183-1.705-614.461,1.263c101.933,86.808,201.809,175.685,304.692,261.529
			C451.442,213.695,558.764,129.231,656.024,43.517z M224.368,222.521C160.626,167.343,97.222,111.841,32.66,57.483
			c0,121.875,0,243.749,0,365.623C96.038,360.796,162.032,290.103,224.368,222.521z"/>
	</g>
</g>
</svg>
