<?xml version="1.0" encoding="utf-8"?>
<!-- Generator: Adobe Illustrator 14.0.0, SVG Export Plug-In . SVG Version: 6.00 Build 43363)  -->
<!DOCTYPE svg PUBLIC "-//W3C//DTD SVG 1.0//EN" "http://www.w3.org/TR/2001/REC-SVG-20010904/DTD/svg10.dtd">
<svg version="1.0" id="Layer_1" xmlns="http://www.w3.org/2000/svg" xmlns:xlink="http://www.w3.org/1999/xlink" x="0px" y="0px"
	 width="612px" height="792px" viewBox="0 0 612 792" enable-background="new 0 0 612 792" xml:space="preserve">
<g>
	<path fill-rule="evenodd" clip-rule="evenodd" d="M228.06,608.34c-2.397-12.182,4.797-20.477,10.44-26.641
		c12.393-13.537,34.429-19.098,41.4-37.799c-4.673,3.971-9.204,7.967-14.4,11.52c-4.859,3.322-10.572,7.277-17.28,8.641
		c-3.788,0.768-8.269-0.225-12.24,0.719c-4.59,1.092-13.427,5.887-16.92,9.361c-5.068,5.041-8.548,12.248-8.64,21.6
		c-5.319-3.242-2.125-12.715-0.36-19.439c1.305-4.971,3.204-9.352,5.76-11.521c-2.271-2.773-3.421-8.832-1.8-13.32
		c-11.842,7.084-24.882,21.746-18.36,40.32c-1.273,0.494-3.53-1.756-4.32-2.879c-8.802-12.523-0.532-32.289,6.48-40.68
		c3.373-4.037,7.849-6.887,11.88-9.361c4.016-2.465,9.624-4.418,12.96-7.92c4.07-4.271,3.724-13.721,5.76-19.439
		c-5.965,3.848-7.172,13.934-14.76,17.641c-3.925,1.916-8.907,1.059-13.32,3.6c0.435,2.205,1.168,4.111,1.44,6.48
		c-2.889-0.33-1.958-4.311-4.32-4.682c-1.555-0.242-7.92,5.818-9,7.201c-3,3.84-3.708,8.318-5.04,11.16
		c-3.921-2.268-3.815-11.35-2.52-16.561c-7.95,2.252-12.233,13.205-17.64,18c1.066-21.613,12.621-32.738,28.08-39.961
		c0.365-10.057-2.295-18.006,1.44-25.559c1.147-2.322,3.104-4.098,4.32-6.48c1.574-3.084,4.558-7.662,3.96-12.6
		c-0.338-2.789-2.878-5.961-3.96-9.361c-1.042-3.273-1.988-6.412-2.16-10.799c-7.432,8.34-12.327,28.307-7.92,44.279
		c1.45,5.252,5.067,10.961-3.24,10.08c-7.958-0.844-12.679-10.59-14.04-18.359c-0.681-3.885,0.704-7.844,0-12.24
		c-0.326-2.035-2.054-3.693-2.88-5.76c-2.492-6.24-2.683-15.51-1.8-23.041c-6.756,8.607-17.208,22.688-15.48,37.441
		c0.401,3.422,2.296,5.707,2.16,9c-7.135-4.109-11.768-17.125-10.8-28.08c1.041-11.785,4.492-21.441,8.28-29.16
		c0.784-1.598,2.815-3.186,2.88-4.68c0.085-1.961-2.757-6.32-2.88-10.08c-0.231-7.068,2.111-12.07,3.6-17.281
		c-4.344,2.721-8.231,9.727-8.28,17.641c-0.027,4.443,2.337,7.934,2.52,11.52c-6.7-1.662-14.846-10.914-15.84-18.719
		c-1.13-8.871,4.662-13.84,8.28-19.801c-3.845,1.555-6.099,4.701-11.16,5.039c9.646-7.273,19.611-14.228,21.6-29.159
		c-6.79,8.04-19.528,14.466-25.56,24.841c-7.266,12.496-12.854,33.35-6.84,51.84c-4.977-2.09-8.87-11.311-9.72-18.721
		c-0.979-8.523,0.018-17.719,0.72-25.561c1.596-17.812,9.951-29.65,17.28-41.039c-5.376,2.064-7.262,7.618-10.8,11.52
		c-0.581-1.263-0.722-2.167-0.36-3.6c-5.451,7.75-10.625,15.775-22.68,16.92c1.216-2.984,4.019-4.382,5.04-7.56
		c-6.782,3.066-15.561,0.454-18.72-4.319c7.473-1.335,15.691-8.07,18.72-14.041c3.552-7,2.875-16.445,5.76-24.84
		c-3.886,1.995-8.846,6.034-8.28,13.68c-12.639-8.11-1.478-31.74,6.48-38.16c-2.81,0.912-7.305,3.254-10.8,4.68
		c-0.112,1.696,0.151,3.129,0,4.681c-0.977,10.023-6.277,13.889-12.24,18.719c-1.374,1.113-2.331,3.491-3.96,3.96
		c1.785-5.976,6.128-11.041,3.96-19.8c-5.765,4.386-10.368,11.162-12.6,19.08c-0.537,1.904,0.084,4.365-1.8,5.76
		c-4.122-12.959-1.807-27.084,5.4-35.28c1.38-1.568,4.176-2.167,4.681-3.6c0.333-0.946-0.453-3.634-0.36-5.04
		c0.723-10.97,8.193-19.941,13.68-27.36c1.957-2.646,5.239-6.04,5.4-8.28c0.208-2.889-2.172-5.732-3.24-8.28
		c-5.814,3.781-9.563,9.518-17.64,10.8c-6.641,1.055-15.644-2.558-21.6,0.361c0.472-3.009,3.454-3.507,5.76-4.681
		c-7.542,0.213-16.93-0.172-21.96-3.6c13.29-4.85,32.213-7.132,41.4-17.28c-5.352,2.688-11.269,4.812-18.36,5.76
		c2.486-2.073,6.462-2.657,9.36-4.32c-3.85-0.799-11.679,1.423-13.68-2.16c6.535,0.031,11.372-3.587,12.24-9.36
		c0.35-2.332-0.268-4.891,0-7.2c1.083-9.36,6.24-16.639,9.72-23.04c-5.359,1.481-9.31,4.371-14.4,6.12
		c1.332-8.148,2.996-15.964,8.28-20.16c-11.76-0.479-21.057-3.423-25.2-11.52c7.705,2.592,12.538-2.754,16.2-6.48
		c-9.479-0.6-16.205,1.556-20.88,5.76c1.25-7.39,4.166-13.114,7.92-18c-3.256-0.584-18.132-6.511-18.36-10.8
		c4.682,0.515,9.806-0.762,13.68-2.16c-5.585-1.811-26.402-14.686-28.08-20.16c10.328,5.207,21.813,4.394,36.36,5.04
		c12.219,0.543,20.524,6.13,29.52,11.52c25.822,15.471,36.617,19.646,67.68,21.24c33.208,1.703,59.733,15.677,81.36,39.24
		c10.819,11.786,18.333,27.129,25.201,41.4c6.772,14.074,14.362,27.845,24.479,39.6c3.375,3.921,7.101,8.507,10.44,10.8
		c3.11,2.135,10.187,6.286,14.76,7.56c5.688,1.585,11.502,1.049,12.6-3.96c0.934-4.265-4.275-15.798-7.2-18
		c-2.336-1.758-7.767-2.84-11.52-3.24c-4.467-0.476-12.704-0.618-12.67,3.769c-9.759-6.425-3.722-22.043,2.949-28.969
		c3.987-4.138,12.536-8.501,17.641-9.36c1.224-0.206,1.85-0.122,3.6,0c6.555-9.341,21.03-12.5,31.68-13.32
		c33.989-2.618,54.17,22.806,63.721,45c6.913-19.705,11.776-40.782,21.96-58.68c2.298-4.039,5.302-7.999,7.92-12.24
		c2.515-4.074,5.418-8.104,8.279-11.88c17.414-22.976,37.247-42.521,64.08-56.88c17.587-9.411,37.263-18.396,60.12-19.44
		c5.741-0.262,10.662-0.381,15.48,0c7.312,0.578,14.196,1.524,13.319,10.081c-0.413,4.033-4.241,7.568-6.84,11.52
		c-2.595,3.946-6.244,9.707-6.479,14.4c-0.138,2.746,1.082,5.557,0.72,9.36c-0.646,6.799-5.535,13.265-9.36,18.36
		c-7.14,9.511-14.622,18.239-26.279,22.68c3.234-3.845,6.512-7.647,8.64-12.6c-6.237,3.804-12.499,10.506-17.64,17.281
		c-2.876,3.788-4.944,6.598-5.4,12.239c-1.89,23.356,17.403,47.749,7.56,70.92c-2.229,5.249-7.595,8.497-9,15.48
		c-2.873-2.655,0.575-7.313,0.36-10.8c-7.37,20.59-27.335,28.584-31.32,52.56c-2.499-2.18-4.284-5.076-5.399-8.64
		c-8.687,6.194-13.58,16.18-14.76,29.88c-3.27-2.97-3.259-9.222-3.24-15.48c-5.868,3.236-13.476,5.26-17.28,10.44
		c-2.229,3.035-2.81,8.462-6.12,11.16c-4.169,3.398-9.936,5.513-14.04,8.64c-7.707,5.873-15.812,14.211-17.279,27
		c-0.245,2.133,0.171,4.215,0,6.479c-0.346,4.555-1.676,9.523-0.721,15.121c1.837,10.766,3.754,21.877,1.08,32.76
		c-0.58,2.361-2.015,4.471-2.52,6.84c-0.66,3.092-0.043,6.117-0.36,8.641c-1.046,8.326-4.07,14.676-7.2,20.16
		c-3.12,5.467-7.186,10.305-10.439,16.559c-1.66,3.189-2.806,7.688-2.521,12.602c-3.36,0.68-6.435-6.188-6.479-11.881
		c-1.865,1.891-0.706,4.186-1.08,6.48c-0.821,5.043-4.481,9.377-7.561,13.68c-4.88,6.82-8.168,18.189-4.68,29.16
		c-5.702-5.688-10.777-13.141-9-25.201c-5.411,1.125-3.128,10.338-3.6,16.922c-0.481,6.713-2.817,12.764-4.681,19.439
		c-1.741,6.24-3.257,12.691-5.04,18.719c-3.82,12.916-8.584,25.648-9.72,38.16c-0.674,7.424,1.562,14.154,3.6,20.16
		c-8.621-7.131-13.296-20.02-11.88-36c-3.201,0.352-8.966,3.051-11.88,1.08c9.856-5.502,17.492-13.229,18.36-27.719
		c-1.451,0.348-0.917,2.682-2.88,2.52c0.954-2.842,1.383-6.189,0.72-9.721c-3.61,5.041-5.898,12.879-5.76,20.52
		c-3.118-4.152-1.929-16.521-0.72-23.039c1.16-6.26,3.285-8.951-1.08-12.24c0.702,22.139-24.14,30.668-15.12,55.439
		c-4.772-4.588-10.667-8.053-12.96-15.119c-5.896,4.881-9.376,16.375-5.76,25.561c-1.605,0.098-2.197-0.984-3.24-1.801
		c-0.301-0.236-2.602-2.51-2.52-2.52c-1.085,0.145-3.126,5.816-3.24,7.92c-0.168,3.131,1.464,5.688,2.16,7.561
		c-4.98-0.42-7.209-3.592-9.72-6.48c-3.07,12.525-0.863,29.086,14.4,27.719c-3.781,6.092-14.839,0.945-18.72-3.6
		c-5.979-7.004-8.622-19.23-7.2-32.039c0.685-6.174,4.36-9.562,7.56-14.4c6.067-9.174,11.646-20.568,14.76-32.041
		c-9.339,12.795-23.081,30.561-32.76,46.441c-3.208,5.264-6.51,12.604-7.2,19.08c-1.601,15.035,6.508,19.783,15.121,25.559
		c-14.977,1.051-26.522-9.623-26.28-22.318c0.063-3.355,1.235-7.354,2.16-10.801c0.897-3.342,3.002-7.172,2.88-10.08
		c-0.051-1.227-1.163-2.365-1.44-3.6c-2.226-9.893,1.582-19.404,5.76-25.92c-6.392,5.727-9.948,14.291-12.6,23.76
		c-2.847-0.994-4.097-3.582-5.4-6.121c-2.15,0.971-2.425,3.816-3.6,5.762c-2.519-1.574-2.058-7.082-1.8-10.08
		c1.021-11.859,8.383-21.824,14.4-28.801c0.068-0.291,0.362-0.359,0.36-0.721C238.575,593.654,233.032,600.711,228.06,608.34
		L228.06,608.34z M356.94,503.221c-0.192,5.057,1.262,13.996-0.36,20.158c-2.197-6.422-7.514-13.34-7.56-20.879
		c-0.039-6.318,3.977-10.93,6.12-16.561c0.457,6.938-3.318,16.867-0.721,23.76C356.253,508.533,355.66,504.939,356.94,503.221
		L356.94,503.221z M107.82,279.3c-0.986,8.015-7.545,13.575-13.32,18C96.513,288.873,102.277,284.197,107.82,279.3L107.82,279.3z
		 M215.1,486.301c-0.337,3.389-4.889,7.537-5.76,12.959c-0.438,2.73,0.403,6.082-0.72,7.92c-1.152,1.885-4.46,1.77-5.76,2.881
		C205.789,500.988,208.729,491.928,215.1,486.301L215.1,486.301z M256.5,505.74c0.887,20.869-5.685,39.379-21.6,45.719
		c1.587-9.436,13.029-12.293,16.56-21.6C254.149,522.773,253.893,514.16,256.5,505.74L256.5,505.74z M227.34,547.141
		c1.047,2.072,1.534,4.705,2.88,6.479c-3.096,1.824-6.192,3.648-9,5.76C221.031,554.51,224.924,550.605,227.34,547.141
		L227.34,547.141z"/>
	<path fill-rule="evenodd" clip-rule="evenodd" fill="#9A6B38" d="M35.46,138.18c-0.066-0.306,0.141-0.339,0.36-0.36
		c8.914,0.866,19.514-0.205,27.72,2.52c8.827,2.932,15.956,9.703,24.12,14.04c16.239,8.626,36.639,14.574,59.04,16.56
		c11.252,0.998,22.311,1.544,32.76,5.04c8.991,3.008,16.682,8.805,23.76,14.4c7.347,5.808,14.466,11.159,20.52,17.64
		c9.308,9.965,16.578,21.801,22.68,34.561c13.356,27.925,25.64,56.431,56.88,68.039c-1.762,3.138-3.97,5.429-7.2,8.28
		c-7.666,2.671-18.489-4.134-22.68-7.2c-12.274-8.979-20.23-26.613-26.64-42.119c-6.229-15.072-12.333-34.029-21.96-46.44
		c-4.878-6.289-11.865-11.968-19.08-15.84c-10.744-5.767-21.744-10.285-39.96-9c1.927-2.153,5.3-2.859,6.48-5.759
		c-11.059,3.226-21.605-3.656-34.56-4.321c-28.371-1.456-51.806,7.359-72.36,14.4c2.471-8.448,8.346-13.493,15.84-16.92
		c-1.574-2.238-4.512-0.523-6.84-0.36c-7.389,0.52-15.96-0.891-21.6-2.88c2.751-4.819,10.632-7.6,12.96-14.04
		c-4.952-0.285-15.589-1.014-20.88,1.44c2.603-6.039,7.706-12.694,16.92-13.319c-6.371-3.735-17.054,1.96-23.04-4.681
		c2.947-0.231,5.586-3.698,8.64-3.96c1.893-0.162,5.554,1.872,8.28,2.52c8.286,1.971,17.06,5.543,22.68,9
		c-8.473,2.687-8.505,13.815-10.44,23.04c3.75-0.333,5.052-2.875,7.56-3.96c17.718-7.671,36.987,4.368,56.16,4.32
		c5.43-0.013,10.116-1.916,15.84-1.08c-4.171-2.87-9.714-2.43-14.4-2.88c-4.908-0.471-9.86-0.515-14.76-1.44
		c-9.744-1.84-17.431-6.594-27.36-6.48c-6.799,0.078-12.885,2.52-18.72,4.68c0.71-4.79,1.427-8.442,4.32-10.44
		c6.176-4.264,13.68,1.05,20.52,0.72c-8.627-4.712-16.141-10.343-25.92-14.76c-4.957-2.24-10.184-3.435-15.479-5.04
		C48.396,143.91,40.667,142.429,35.46,138.18L35.46,138.18z M68.94,159.78c-3.258,0.337-4.877-1.922-7.56-1.08
		c-0.18,1.741,3.348-0.228,3.24,1.44c-4.662,0.738-8.682,2.118-11.521,4.68c5.139-2,12.651-3.349,18.36-3.6
		c-1.343-2.377-3.323-4.116-6.839-4.32C65.313,158.607,68.49,157.83,68.94,159.78L68.94,159.78z M76.5,170.94
		c3.224-1.936,7.806-3.615,11.16-4.32C82.78,164.467,77.903,167.348,76.5,170.94L76.5,170.94z M84.42,182.46
		c1.484,0.917,4.338,0.462,5.4,1.8c-4.412,1.95-10.316,4.322-11.52,8.281c4.299-3.982,10.382-6.179,16.92-7.921
		C93.463,182.507,87.465,180.896,84.42,182.46L84.42,182.46z M184.5,190.74c-3.499,1.541-9.388,0.692-10.8,4.321
		c18.273-6.35,31.499,5.23,42.48,11.879c-7.045-7.235-16.742-11.818-25.2-17.64c-0.296,1.281,2.231,1.577,1.08,2.52
		c-3.655-0.906-7.148-3.889-11.16-3.239C182.035,189.366,183.761,189.559,184.5,190.74L184.5,190.74z M278.46,303.42
		c-2.355,0.165-4.858,0.181-5.76,1.8c6.183-1.603,11.604,1.88,15.48,2.52c-1.484-2.711-5.064-3.289-7.56-4.679
		c-2.713-1.513-4.583-3.77-7.201-5.04C273.711,301.209,277.446,300.956,278.46,303.42L278.46,303.42z M281.34,313.14
		c4.268-2.234,12.649-1.149,17.28-1.079C294.982,308.938,282.058,309.246,281.34,313.14L281.34,313.14z"/>
	<path fill-rule="evenodd" clip-rule="evenodd" fill="#FFF200" d="M332.101,249.78c0.6,0,1.438-0.6,2.039-0.6
		c1.857,6.469-6.723,10.643-9.96,5.28C327.579,255.908,332.646,253.965,332.101,249.78L332.101,249.78z"/>
	<path fill-rule="evenodd" clip-rule="evenodd" fill="#FFFFFF" d="M341.101,288.3c-4.077-7.204-13.995-11.685-23.761-14.4
		c9.151-0.15,17.402,3.718,24.48,6.84c-2.551-4.06-15.348-8.67-17.713-9.578c-0.428-0.599-0.62-2.808-1.007-3.742
		c-1.796-4.338-5.852-5.538-5.761-11.879c4.282,1.735,8.147,4.701,13.32,2.879c3.438-1.209,5.359-6.611,9.36-6.48
		c-0.143-1.658-2.218-1.382-3.96-1.44c0.972-2.868,5.031-3.128,9-2.52c-2.276-2.514-7.232-1.583-10.08-1.08
		c-5.397,0.954-14.016,7.242-18,6.84c-5.206-0.525-4.81-7.35-2.16-10.44c5.93-6.917,27.417-11.027,41.399-7.92
		c17.781,3.951,28.612,14.55,36.36,30.24c5.867,11.882,11.09,23.352,14.76,37.441c-0.949-0.491-2.454-0.426-3.6-0.721
		c-1.154,3.679,0.582,7.576,0.72,11.16c-3.863-1.777-6.098-5.183-7.92-9c-1.062,2.614,0.529,8.552,0,13.32
		c-0.142,1.277-1.328,6.567-2.52,6.84c-0.695,0.159-11.238-10.649-9.721-0.36c-2.261-0.056-4.339-2.197-5.76,0
		c-1.377-0.783-2.636-1.684-4.68-1.8c1.604,3.226,2.592,8.729,1.08,12.96c-3.267-2.013-11.854-12.226-11.521-2.16
		c-2.459,0.903-3.254-2.336-4.68-3.6c-0.4,3.68-1.303,6.857-2.521,9.72c-3.245-1.209-3.715-6.659-3.96-9.72
		c-4.667,5.773-14.013,6.868-16.199,15.12c-4.906-6.266-0.257-14.847,4.68-17.64c-2.203-0.994-3.99,1.524-6.12,1.8
		c-0.833-0.8,0.122-1.404,0-2.52c-3.432,6.288-9.187,10.253-12.6,16.561c-1.756-2.528-0.784-6.56,0-9.361
		c-3.337,0.743-4.852,3.309-7.561,4.68c-0.557-7.277,3.676-9.764,5.4-14.759c-4.076,0.605-6.949,5.529-12.96,5.399
		c6.166-6.818,13.954-17.392,15.12-29.52c0.977-10.17-4.866-16.824-10.08-22.68C324.175,276.69,334.131,281.931,341.101,288.3
		L341.101,288.3z M393.3,280.38c2.369,6.836,3.633,13.248,5.04,21.24c0.412,2.336,2.303,3.668,3.24,5.76
		c0.23-8.596-2.104-17.401-4.68-25.2c-2.539-7.685-7.266-14.51-10.44-20.88c-0.46-0.019-0.498-0.461-1.08-0.36
		C388.545,267.784,390.921,273.514,393.3,280.38L393.3,280.38z M342.18,305.22c-3.754-13.405-12.021-22.298-24.84-26.639
		c1.732,0.694,7.551,12.344,8.641,16.919c0.974-3.849-1.545-7.012-1.801-10.8C332.725,288.996,337.649,296.911,342.18,305.22
		L342.18,305.22z M390.061,318.9c0.848-0.008,1.06,0.62,2.159,0.36c3.316-9.991,1.063-25.016-3.6-32.4
		C391.201,295.17,392.917,310.745,390.061,318.9L390.061,318.9z M314.101,324.3c8.591-2.688,10.059-12.501,11.52-22.32
		c-0.514-0.086-0.607-0.593-1.08-0.72C324.219,312.098,318.68,317.719,314.101,324.3L314.101,324.3z M319.86,330.061
		c1.203-4.438,5.067-6.213,6.84-10.081c-4.372,2.959-9.501,7.045-9,13.68c1.259-0.901,2.393-1.928,3.24-3.24
		C319.816,330.238,319.197,331.269,319.86,330.061L319.86,330.061z"/>
	<path fill="#FFFFFF" d="M180.356,478.723c-0.486,0.229-0.969,0.459-1.448,0.686c-1.133,0.537-2.327,1.104-3.568,1.695
		c0.226,7.699,2.686,14.607,8.801,17.797c-1.038-2.266-1.843-4.545-2.441-6.822c-0.597-0.367-1.2-0.738-1.807-1.113
		c-0.373-0.23-0.566-0.867-0.383-1.266c0.402-0.871,0.803-1.732,1.202-2.588C180.322,484.293,180.221,481.488,180.356,478.723
		L180.356,478.723z M82.641,204.752c1.646,2.476,3.305,4.938,4.974,7.392c-3.423-0.883-6.829-1.749-10.19-2.646
		C79.051,207.781,80.825,206.181,82.641,204.752L82.641,204.752z M154.303,195.504c-0.906,0.388-1.841,0.788-2.801,1.2
		c-2.911,1.251-5.817,2.508-8.732,3.773c-0.333,0.145-0.938-0.007-1.168-0.29c-1.921-2.361-3.843-4.721-5.66-6.977
		c-1.505-0.008-3.021,0.012-4.542,0.053c0.088,2.481,0.186,4.959,0.284,7.437c0.051,1.3,0.102,2.553,0.161,4.098
		c0.011,0.297-0.296,0.803-0.562,0.934c-3.149,1.543-5.904,2.901-8.474,4.172c-2.068,1.022-4.142,2.051-6.217,3.081
		c3.317,0.943,6.147,1.747,6.502,1.848c3.004,0.853,6.018,1.707,9.051,2.562c0.303,0.085,0.691,0.547,0.723,0.86
		c0.344,3.341,0.69,6.683,1.044,10.024v-0.004c0.245,2.314,0.5,4.653,0.765,7.029c1.901-3.26,3.798-6.479,5.686-9.68
		c1.332-2.259,2.599-4.406,2.842-4.819c0.172-0.292,0.731-0.541,1.062-0.472c2.969,0.619,6.084,1.248,9.289,1.882
		c2.316,0.459,4.523,0.891,6.693,1.312c-1.472-1.803-2.943-3.631-4.413-5.474c-2.105-2.64-4.094-5.163-6.083-7.687
		c-0.182-0.231-0.237-0.817-0.102-1.078c0.935-1.79,1.936-3.694,2.979-5.675c-1.971,0.156-3.948,0.31-5.928,0.446
		c2.834-1.579,5.639-3.187,8.299-4.94c0.511-0.966,1.022-1.932,1.533-2.896C155.795,195.964,155.052,195.725,154.303,195.504
		L154.303,195.504z M202.007,211.294c0.131,1.422,0.258,2.753,0.378,3.984c0.027,0.272-0.181,0.691-0.42,0.899
		c2.696,1.681,5.258,3.438,7.735,5.162c-2.885-1.569-5.714-3.142-8.672-4.674c-4.244,2.098-8.737,4.355-13.208,6.601
		c-0.306,0.154-0.611,0.308-0.917,0.462c2.238,0.505,4.477,1.01,6.721,1.516c3.154,0.711,6.318,1.424,9.502,2.139
		c0.306,0.068,0.716,0.508,0.766,0.816c0.271,1.679,0.54,3.361,0.809,5.044c0.599,3.751,1.2,7.511,1.853,11.375
		c1.605-2.756,2.497-4.286,3.424-5.875c2.115-3.625,4.334-7.428,4.973-8.525c0.159-0.273,0.703-0.533,1.016-0.484
		c2.08,0.323,4.31,0.665,6.695,1.024c-1.091-1.648-2.265-3.229-3.602-4.738C214.09,220.407,208.286,215.287,202.007,211.294
		L202.007,211.294z M234.398,275.786c-2.289,1.017-4.456,1.983-6.529,2.914c-2.713,1.217-5.787,2.605-9.067,4.091
		c-0.268,0.121-0.85,0.034-1.07-0.16c-2.514-2.212-4.982-4.401-7.331-6.525c-1.704-1.542-3.424-3.121-5.168-4.756
		c0.294,2.331,0.585,4.581,0.871,6.709c0.41,3.059,0.852,6.186,1.337,9.417c0.051,0.34-0.235,0.889-0.542,1.043
		c-2.96,1.485-5.922,2.984-8.892,4.495c-2.067,1.051-4.132,2.107-6.199,3.166c2.54,0.435,4.971,0.846,7.406,1.258
		c3.289,0.557,6.583,1.115,9.524,1.621c0.31,0.054,0.743,0.474,0.808,0.781c0.62,2.938,1.272,5.972,1.969,9.147
		c0.495,2.251,0.989,4.465,1.483,6.636c1.377-2.402,2.477-4.318,3.457-6.023c1.582-2.75,3.168-5.505,4.755-8.259
		c0.148-0.257,0.676-0.523,0.973-0.492c3.451,0.368,6.906,0.736,10.156,1.064c2.284,0.23,4.669,0.46,7.225,0.688
		c-3.378-2.989-6.609-5.979-9.839-8.968c-1.684-1.558-1.392-1.292-2.38-2.204c-0.263-0.243-0.377-0.855-0.219-1.176
		c1.416-2.86,2.831-5.685,4.247-8.492C232.441,279.641,233.442,277.667,234.398,275.786L234.398,275.786z M158.259,270.301
		c-3.788,1.65-7.5,3.288-11.195,4.918c-1.353,0.596-2.703,1.192-4.051,1.786c-0.301,0.132-0.898,0.011-1.125-0.227
		c-0.968-1.014-1.824-1.907-2.698-2.819c-2.947-3.077-5.894-6.153-8.771-9.259c0.179,2.315,0.37,4.648,0.572,7.002
		c0.313,3.656,0.613,6.928,0.897,9.827c0.031,0.321-0.262,0.846-0.551,0.988c-2.694,1.329-5.643,2.796-8.722,4.335
		c-2.066,1.032-4.126,2.066-6.187,3.1c3.704,0.851,7.224,1.634,10.759,2.422c2.115,0.471,4.166,0.929,5.48,1.224
		c0.308,0.069,0.717,0.508,0.765,0.82c0.842,5.445,1.686,10.893,2.624,16.45c1.52-2.61,2.858-4.912,3.498-6.007
		c1.331-2.282,2.896-4.955,4.941-8.432c0.161-0.273,0.703-0.531,1.015-0.48c3.035,0.491,6.282,0.994,9.682,1.506
		c2.357,0.354,4.663,0.695,6.927,1.023c-1.589-1.686-3.155-3.371-4.707-5.055c-2.21-2.4-4.401-4.806-6.59-7.211
		c-0.215-0.236-0.299-0.831-0.156-1.117c1.395-2.778,2.879-5.68,4.406-8.641C156.261,274.148,157.286,272.173,158.259,270.301
		L158.259,270.301z M70.694,265.866c-0.405-0.49-0.812-0.983-1.219-1.478c-2.226,0.961-4.721,1.616-7.375,1.952
		C65.27,266.58,68.126,266.386,70.694,265.866L70.694,265.866z M64.782,258.631c-0.747-0.927-1.492-1.857-2.237-2.792
		c-0.569,0.222-1.143,0.438-1.721,0.65c0.036,1.021,0.073,2.043,0.111,3.065C62.252,259.279,63.536,258.971,64.782,258.631
		L64.782,258.631z M83.461,288.511c1.113,0.223,2.231,0.445,3.352,0.667c1.001,0.199,1.995,0.397,2.921,0.582
		c-1.311-1.605-2.617-3.23-3.922-4.869C84.994,286.073,84.205,287.275,83.461,288.511L83.461,288.511z M163.901,342.037
		c-2.289,1.017-4.456,1.983-6.53,2.914c-0.72,0.323-1.465,0.659-2.233,1.005c1.444,2.255,2.324,4.978,2.764,7.983
		c0.991-1.988,1.98-3.962,2.972-5.927C161.942,345.895,162.944,343.92,163.901,342.037L163.901,342.037z M151.815,347.455
		c-1.137,0.514-2.31,1.043-3.51,1.586c-0.202,0.091-0.587,0.063-0.856-0.041c-0.003,0.281-0.012,0.565-0.029,0.859
		c-0.419,7.149-3.649,12.511-8.221,16.938c0.388,1.833,0.789,3.706,1.206,5.629c4.344-3.659,8.187-7.56,10.256-12.487
		C152.034,356.669,152.315,351.616,151.815,347.455L151.815,347.455z M143.271,345.405c-1.155-1.024-2.284-2.035-3.386-3.032
		c-1.682-1.521-3.408-3.107-5.175-4.749c0.698,5.31,1.412,10.64,2.233,16.103c0.051,0.34-0.235,0.889-0.543,1.043
		c-1.369,0.687-2.738,1.377-4.108,2.07c-0.245,1.381-0.562,2.651-0.712,3.1c-0.432,1.292-1.022,2.613-1.724,3.942
		c2.573,0.436,5.126,0.869,7.473,1.271c3.454-3.67,6.403-7.615,6.491-14.573C143.845,348.669,143.639,346.966,143.271,345.405
		L143.271,345.405z M157.374,367.703c1.508,0.159,3,0.314,4.466,0.464c2.242,0.229,4.609,0.463,7.195,0.705
		c-1.701-1.517-3.371-3.029-5.015-4.534c-1.83-1.675-3.767-3.473-5.77-5.345c0,0.551-0.01,1.106-0.03,1.667
		C158.127,363.254,157.831,365.577,157.374,367.703L157.374,367.703z M241.604,345.891c-4.076,1.862-8.089,3.717-12.084,5.564
		c-1.324,0.612-2.647,1.224-3.968,1.834c-0.234,0.108-0.803,0.048-1.011-0.105c-2.828-2.088-5.461-4.063-7.942-5.948
		c-1.801-1.368-3.737-2.853-5.776-4.427c0.396,2.11,0.799,4.238,1.226,6.429c0.576,2.961,1.175,5.922,1.817,8.88
		c0.078,0.358-0.19,0.927-0.516,1.098c-4.017,2.103-8.002,4.175-11.987,6.247c-1.07,0.557-2.139,1.113-3.21,1.67
		c2.51,0.283,4.953,0.559,7.2,0.815c3.549,0.405,7.058,0.811,10.488,1.216c0.306,0.036,0.761,0.425,0.844,0.723
		c0.82,2.921,1.652,5.799,2.496,8.644c0.632,2.132,1.272,4.25,1.919,6.356c1.124-2.03,2.246-4.044,3.37-6.048
		c1.378-2.458,2.934-5.211,4.565-8.093c0.137-0.243,0.645-0.523,0.922-0.508c4.576,0.26,9.089,0.486,13.623,0.713
		c1.542,0.077,3.089,0.156,4.61,0.233c-1.989-1.498-3.718-2.807-5.297-4.006c-1.357-1.031-4.59-3.497-7.874-6.001
		c-0.314-0.239-0.465-0.862-0.297-1.218c1.287-2.721,2.63-5.483,4.002-8.266C239.753,349.606,240.693,347.716,241.604,345.891
		L241.604,345.891z M325.915,344.553c-0.152,0.071-0.306,0.144-0.459,0.216c-0.686,1.413-1.287,2.909-1.805,4.489
		C324.364,347.767,325.125,346.187,325.915,344.553L325.915,344.553z M321.019,346.866c-0.713,0.338-1.435,0.679-2.163,1.025
		c-2.831,1.343-6.084,2.896-9.574,4.567c-0.198,0.095-0.744,0.068-0.934-0.043c-2.981-1.752-5.856-3.513-8.677-5.276
		c-0.781-0.488-1.535-0.961-2.268-1.422c-0.075,0.061-0.149,0.121-0.223,0.183c-0.889,0.741-1.724,1.504-2.513,2.288
		c0.083,0.309,0.169,0.62,0.255,0.936c0.784,2.874,1.576,5.699,2.382,8.425c0.114,0.388-0.142,0.982-0.5,1.168
		c-3.075,1.592-6.16,3.206-9.249,4.83c-2.021,1.062-4.038,2.128-6.055,3.193c2.288,0.132,4.54,0.258,6.795,0.385
		c3.947,0.223,7.91,0.446,11.768,0.675c0.298,0.018,0.775,0.375,0.878,0.656c1.008,2.739,2.043,5.416,3.099,8.055
		c0.824,2.059,1.649,4.072,2.476,6.059c1.297-2.374,2.361-4.315,3.282-5.994c1.431-2.609,2.868-5.223,4.304-7.835
		c0.124-0.226,0.617-0.519,0.875-0.52c3.771-0.01,7.557-0.03,11.354-0.058c2.589-0.019,5.188-0.042,7.796-0.069
		c-3.641-2.148-7.233-4.339-10.826-6.529c-0.097-0.059-0.195-0.119-3.464-2.104c-0.377-0.23-0.572-0.871-0.387-1.273
		c1.272-2.756,2.532-5.433,3.787-8.063c0.053-0.111,0.105-0.222,0.159-0.334C322.573,348.846,321.759,347.894,321.019,346.866
		L321.019,346.866z M295.84,344.729c-0.722-0.458-1.428-0.908-2.125-1.352c-0.089,0.088-0.179,0.176-0.268,0.264
		c0.237,0.891,0.479,1.797,0.73,2.731C294.72,345.815,295.275,345.268,295.84,344.729L295.84,344.729z M312.838,409.461
		c-1.716-0.842-3.422-1.691-5.124-2.543c0.154,0.412,0.125,0.33,0.17,0.451c0.517,1.395,1.034,2.791,1.556,4.184
		C310.576,410.859,311.71,410.162,312.838,409.461L312.838,409.461z M243.606,434.99c0.125-0.225,0.618-0.518,0.875-0.52
		c1.839-0.004,3.681-0.012,5.526-0.02c-2.145-5.621-3.45-12.789-3.575-19.393c-2.371,1.127-4.955,2.361-7.649,3.65
		c-0.201,0.096-0.75,0.068-0.941-0.047c-2.949-1.762-5.829-3.525-8.65-5.289c-2.104-1.314-4.224-2.662-6.357-4.035
		c0.523,2.012,1.054,4.023,1.601,6.029c0.767,2.811,1.564,5.609,2.41,8.389c0.119,0.391-0.134,0.988-0.496,1.176
		c-3.337,1.736-6.384,3.334-9.286,4.861c-2.023,1.064-4.042,2.131-6.06,3.197c2.288,0.131,4.536,0.258,6.791,0.385
		c3.949,0.223,7.912,0.447,11.772,0.676c0.299,0.018,0.775,0.375,0.878,0.656c1.875,5.096,3.387,10.863,5.431,15.77
		C235.713,450.689,240.939,439.844,243.606,434.99L243.606,434.99z M252.187,434.439c1.217-0.008,2.436-0.016,3.655-0.025
		c2.587-0.02,5.185-0.043,7.79-0.07c-3.651-2.154-7.255-4.352-10.859-6.547c-0.064-0.039,0.203,0.123-1.587-0.965
		c0.042,1.383,0.132,2.73,0.274,4.027C251.592,432.062,251.886,433.273,252.187,434.439L252.187,434.439z M251.382,419.234
		c0.453-0.959,0.904-1.912,1.354-2.855c0.879-1.848,1.767-3.699,2.656-5.549c-1.095,0.514-2.169,1.018-3.224,1.514
		C251.823,414.646,251.555,416.959,251.382,419.234L251.382,419.234z M172.149,411.16c-2.131,0.977-4.395,2.02-6.78,3.119
		c-3.103,1.432-6.198,2.865-9.301,4.307c-0.235,0.109-0.803,0.049-1.011-0.105c-0.124-0.092-0.247-0.182-0.371-0.273
		c0.5,4.094,2.749,8.125,2.454,11.213c-0.229,2.393-2.292,3.582-3.601,5.76c-1.57,2.613-2.821,5.535-3.812,8.646
		c0.65,2.176,1.29,4.266,1.926,6.324c1.125-2.031,2.246-4.043,3.367-6.045c1.506-2.689,3.018-5.373,4.529-8.059
		c0.136-0.24,0.646-0.525,0.922-0.512c2.413,0.125,4.771,0.242,7.115,0.357c1.415-1.539,2.829-3.08,4.221-4.643
		c-2.017-1.531-4.143-3.152-6.27-4.775c-0.316-0.24-0.467-0.865-0.297-1.223c1.263-2.648,2.611-5.42,4.021-8.279
		C170.217,415.031,171.181,413.096,172.149,411.16L172.149,411.16z M142.007,408.586c-0.208-0.162-0.417-0.326-0.625-0.488
		c0.084,0.449,0.169,0.898,0.254,1.35C141.757,409.156,141.879,408.869,142.007,408.586L142.007,408.586z M174.977,436.258
		c1.248,0.061,2.492,0.123,3.73,0.186c-0.962-0.719-1.912-1.428-2.852-2.135C175.572,434.959,175.277,435.607,174.977,436.258
		L174.977,436.258z"/>
	<path fill-rule="evenodd" clip-rule="evenodd" fill="#006BB6" d="M84.78,316.38c0.542,4.318,0.526,12.021-3.24,14.04
		c0.674-3.448,1.308-8.68-0.36-11.52C81.763,317.442,83.846,317.486,84.78,316.38L84.78,316.38z M183.42,452.459
		c-4.108,3.812-6.776,9.064-9,14.762c-3.85-3.695-4.531-10.908-3.96-17.281c0.394-4.395,1.969-8.135,3.613-11.721
		c2.582,0.127,5.181,0.256,7.832,0.395c0.913,0.049,1.383-1.256,0.644-1.801c-1.929-1.424-3.902-2.9-5.903-4.408
		c1.118-2.869,1.888-5.818,1.735-9.104c-1.668,2.23-3.434,4.363-5.25,6.447c-1.987-1.508-3.868-2.943-5.737-4.367
		c1.236-2.584,2.452-5.084,3.655-7.525c1.352-2.744,2.74-5.523,4.153-8.332c0.398-0.793-0.498-1.725-1.305-1.355
		c-3.43,1.568-6.53,2.992-9.364,4.299c-2.925,1.35-5.843,2.701-8.767,4.059c-0.418-0.309-0.835-0.619-1.254-0.93
		c-0.458-11.955,3.335-18.337,8.747-25.776c-7.502,4.003-15.811,8.663-20.344,16.944c-0.793-0.619-1.589-1.244-2.386-1.871
		c-0.687-0.541-1.758,0.109-1.598,0.969c0.479,2.562,0.959,5.123,1.426,7.568c-0.535,2.232-0.839,4.67-0.859,7.35
		c-10.629-12.428,2.113-23.404,8.28-33.479c3.597-5.877,7.218-10.739,9.116-17.64c1.556,0.164,3.131,0.327,4.741,0.492
		c3.701,0.378,7.194,0.723,10.259,0.997c0.899,0.08,1.426-1.152,0.746-1.75c-2.406-2.117-4.832-4.304-7.271-6.537
		c-2.354-2.155-4.537-4.181-6.626-6.137c1.286-2.592,2.59-5.198,3.91-7.814c1.297-2.572,2.757-5.443,4.303-8.473
		c0.402-0.79-0.481-1.726-1.293-1.367c-2.841,1.257-5.894,2.619-9.106,4.061c-0.907,0.407-1.787,0.804-2.643,1.189
		c-1.084-1.248-2.4-2.297-3.977-3.1c0.66,0.895,1.189,2.391,1.551,4.192c-1.181,0.532-2.32,1.046-3.426,1.547
		c-0.27-0.234-0.54-0.47-0.811-0.707c-1.46-8.913-10.504-11.016-11.354-20.513c-1.517,0.849-1.269,0.432-2.16-0.719
		c1.416,6.868,5.703,10.93,8.208,16.519c-0.239-0.215-0.479-0.433-0.719-0.65c-2.52-2.28-4.907-4.481-7.186-6.617
		c-0.644-0.604-1.786-0.021-1.671,0.855c0.803,6.129,1.608,12.26,2.489,18.18c-0.756,0.38-1.509,0.76-2.261,1.139
		c0.061-0.973-0.004-1.769-0.299-2.066c-0.693-0.699-3.481,0.226-4.68,0.72c-4.042,1.666-8.196,6.984-10.8,8.64
		c-0.47-5.212-0.42-10.004,0.72-14.4c-6.14,6.063-5.214,23.908-14.04,27.721c0.838-4.421,4.421-10.707,2.16-14.761
		c-1.505,8.421-7.941,13.129-16.92,12.96c4.528-3.634,9.688-6.992,12.24-12.96c3.009-7.038,3.451-15.683,6.12-23.4
		c2.604-7.526,6.647-12.976,10.44-18.72c-7.253,3.907-17.781,9.578-23.76,14.76c2.193-17.847,18.621-21.459,21.24-38.88
		c-6.668,5.645-13.653,12.946-23.399,15.84c-6.048,1.795-10.592,2.617-15.121,6.121c-3.969,3.069-7.002,6.667-9.72,11.52
		c0.623-5.979,4.88-12.2,9.36-15.48c4.281-3.136,10.116-4.289,15.12-7.561c4.544-2.972,9.585-5.527,12.96-9.36
		c3.169-3.599,7.465-10.466,8.64-15.84c0.771-3.529,0.189-6.915-1.08-7.2c0.182,0.041-5.932,4.651-6.48,5.04
		c-4.071,2.889-9.478,7.76-13.014,12.584c-1.789-2.175-3.543-4.352-5.273-6.529c1.386-1.917,2.827-3.796,4.247-5.696
		c2.889-3.865,6.782-6.366,5.4-12.6c-0.857-3.867-4.564-13.044-7.2-12.96c-1.499,0.048-3.022,3.895-4.319,5.4
		c-0.871,1.01-1.843,1.996-2.927,2.924c-0.673,0.288-1.336,0.571-1.99,0.852c-3.376,1.448-5.765,2.477-8.016,3.446
		c-0.297-0.36-0.593-0.718-0.889-1.076c4.47-2.462,7.53-6.35,8.061-11.546c-1.703-0.139-2.597,1.775-3.96,2.52
		c-2.563,1.4-5.432,2.589-8.562,3.566c-0.121-0.15-0.242-0.299-0.362-0.448c-0.677-0.839-1.351-1.677-2.021-2.518
		c5.602-2.349,10.625-5.261,14.187-9.24c1.918-2.143,3.892-5.34,2.88-9c-4.578,2.502-9.318,4.842-16.56,4.68
		c-0.686-1.285,3.652-4.064,3.96-6.84c0.487-4.379-0.02-8.645,1.08-12.96c0.891-3.496,2.946-6.976,5.584-10.151
		c4.182,1.153,8.385,2.233,12.618,3.321c0.938,0.241,1.878,0.483,2.819,0.726c0.848,0.219,1.566-0.808,1.074-1.531
		c-1.967-2.893-3.825-5.646-5.521-8.192c-0.605-0.91-1.206-1.816-1.803-2.719c1.704-1.197,3.408-2.229,5.029-3.053
		c9.382-4.767,22.54-5.875,33.48-6.48c2.038-0.112,4.073-0.215,6.099-0.291c0.089,2.493,0.186,4.972,0.284,7.451
		c0.046,1.18,0.095,2.392,0.136,3.446c-2.339,1.147-5.032,2.475-7.895,3.891c-2.838,1.403-5.687,2.816-8.534,4.229
		c-0.778,0.386-0.667,1.618,0.167,1.855c1.715,0.487,3.431,0.975,8.996,2.555c2.788,0.792,5.586,1.585,8.399,2.379
		c0.321,3.116,0.644,6.232,0.974,9.349v0.004c0.361,3.404,0.728,6.766,1.104,10.04c0.102,0.893,1.404,1.165,1.855,0.387
		c2.348-4.054,4.78-8.178,7.195-12.272c0.525-0.891,1.104-1.869,2.479-4.208c2.944,0.612,5.801,1.187,8.613,1.744
		c2.949,0.584,6.16,1.208,9.42,1.84c0.869,0.168,1.521-0.936,0.957-1.617c-2.095-2.533-4.138-5.062-6.152-7.588
		c-1.838-2.304-3.754-4.735-5.675-7.171c1.147-2.196,2.226-4.25,3.26-6.212c12.875-1.008,25.397-1.778,36.359,2.431
		c2.908,1.117,5.764,2.513,8.537,4.135c0.139,1.496,0.291,3.088,0.457,4.789c-0.122,0.06-0.243,0.121-0.365,0.181
		c-6.519-3.859-13.854-7.14-22.669-8.384c-4.237-0.598-9.395-2.129-13.68,0c9.485,1.554,18.973,1.983,27.359,5.399
		c2.792,1.137,5.368,2.331,7.831,3.558c-4.115,2.04-8.008,3.994-11.881,5.94c-1.138,0.572-2.276,1.144-3.412,1.713
		c-0.79,0.396-0.637,1.672,0.227,1.867c3.144,0.71,6.289,1.42,9.442,2.131c2.937,0.662,5.883,1.327,8.845,1.992
		c0.234,1.457,0.468,2.916,0.7,4.375c0.761,4.769,1.524,9.548,2.316,14.106c0.151,0.867,1.404,1.093,1.848,0.332
		c0.658-1.131,2.761-4.735,4.808-8.242c1.153-1.975,2.213-3.791,4.632-7.945c2.754,0.427,5.334,0.821,7.732,1.181
		c1.479,2.455,2.855,5.052,4.352,7.792c6.351,11.626,10.687,24.447,15.48,38.16c5.088,14.555,11.68,26.992,22.32,36.72
		c6.738,6.161,12.479,11.042,23.04,12.24c-15.389,23.561-38.033,46.431-42.48,80.28c-0.195,1.482-0.308,3.051-0.344,4.668
		c-2.895,1.375-5.524,2.627-8.031,3.828c-2.708-1.623-5.428-3.291-8.158-4.998c-2.897-1.811-5.718-3.611-8.478-5.402
		c-0.728-0.473-1.727,0.244-1.512,1.082c0.735,2.861,1.479,5.709,2.249,8.533c0.701,2.568,1.426,5.121,2.186,7.65
		c-2.684,1.398-5.57,2.914-8.558,4.486c-3.083,1.623-6.157,3.248-9.23,4.873c-0.821,0.434-0.517,1.828,0.406,1.883
		c3.352,0.195,6.862,0.395,10.375,0.592c3.663,0.207,7.336,0.414,11.114,0.637c0.94,2.541,1.896,5.041,2.871,7.506
		c1.022,2.588,2.916,7.182,4.075,9.939c3.821-5.006,6.095-11.121,9.326-16.988c1.919-0.006,3.84-0.014,5.763-0.023
		c0.632,1.404,1.324,2.676,2.065,3.775c0.311-1.051,0.123-2.352-0.209-3.785c1.052-0.006,2.106-0.014,3.159-0.021
		c3.806-0.027,7.611-0.064,11.414-0.111c0.927-0.01,1.293-1.396,0.488-1.861c-4.708-2.721-9.324-5.535-13.939-8.348
		c-1.723-1.051-1.929-1.18-2.655-1.623c0-0.014,0-0.027,0-0.041c1.08-2.332,2.216-4.74,3.383-7.191
		c1.278-2.688,2.572-5.377,3.865-8.066c0.384-0.799-0.521-1.711-1.324-1.336c-1.465,0.682-2.978,1.391-4.529,2.121
		c1.326-7.656,3.452-15.042,5.747-20.497c4.145-9.854,9.686-18.443,14.76-27c10.523-17.746,22.995-33.798,36.72-46.439
		c-0.88,3.723-4.08,8.618-7.56,12.239c-0.647,0.673-3.673,2.754-3.6,3.24c0.148,0.983,4.009,1.431,4.319,1.44
		c3.439,0.095,6.877-1.63,9-2.52c-1.917,5.06-1.706,13.178,1.439,16.92c1.54-2.54,2.009-6.152,4.681-7.56
		c0.307,2.113,0.983,3.857,1.864,5.396c-0.648,0.307-1.288,0.61-1.921,0.911c-3.362,1.596-6.339,3.016-9.107,4.34
		c-2.714-1.602-5.439-3.275-8.171-4.983c-0.518-0.323-1.052-0.658-1.598-1.002c3.94-2.713,8.677-4.995,9.933-9.702
		c-0.08-0.28-0.302-0.418-0.721-0.36c-3.479,2.808-7.378,5.712-10.979,8.945c-0.711-0.451-1.436-0.912-2.169-1.379
		c2.611-2.494,5.321-4.889,8.108-7.207c-2.621,0.738-4.18,0.644-6.48-0.36c-0.422,2.197-1.925,4.271-3.688,6.252
		c-0.302-0.193-0.604-0.387-0.907-0.58c-0.73-0.466-1.727,0.258-1.504,1.098c0.142,0.536,0.284,1.073,0.425,1.607
		c-0.911,0.947-1.812,1.873-2.606,2.784c-7.72,8.849-13.682,17.814-18.72,28.079c-0.75,1.529-2.711,4.709-0.72,6.48
		c5.302-13.877,13.248-25.108,22.718-34.817c0.251,0.94,0.496,1.86,0.735,2.744c-3.846,3.835-8.394,8.118-7.613,13.713
		c2.541-4.42,4.979-8.348,8.119-11.855c0.668,2.445,1.362,4.917,2.102,7.439c-2.864,1.485-5.706,2.971-8.533,4.458
		c-3.079,1.619-6.152,3.243-9.226,4.868c-0.821,0.434-0.517,1.829,0.406,1.883c3.362,0.197,6.865,0.396,10.379,0.593
		c3.662,0.206,7.332,0.414,11.11,0.637c0.927,2.5,1.894,4.994,2.893,7.491c1.048,2.621,2.153,5.291,3.291,7.999
		c0.313,0.745,1.406,0.799,1.793,0.09c1.07-1.961,2.559-4.677,4.275-7.805c1.337-2.437,2.678-4.876,4.019-7.317
		c3.584-0.011,7.175-0.03,10.771-0.057c3.808-0.028,7.615-0.065,11.421-0.11c0.927-0.011,1.293-1.398,0.488-1.863
		c-4.696-2.714-9.303-5.521-13.908-8.329c-1.539-0.938-2.151-1.311-2.703-1.648c1.087-2.346,2.229-4.765,3.405-7.231
		c1.383-2.901,2.657-5.541,3.895-8.094c0.386-0.796-0.518-1.712-1.32-1.336c-0.173,0.082-0.346,0.163-0.519,0.244
		c0.854-1.365,1.802-2.637,2.842-3.816c1.816,4.304,2.843,9.397,7.2,11.16c0.427-3.722,9.195-13.722,12.96-12.96
		c2.853,0.578,2.399,5.981,5.76,6.841c2.337-1.864,3.168-5.232,5.04-7.561c1.813,1.63,1.786,6.23,1.08,10.081
		c-3.043,16.575-12.15,31.15-21.24,42.48c-3.284,4.092-6.696,6.664-11.16,10.079c-4.69,3.59-9.652,6.904-14.749,10.115
		c-2.846-1.387-5.67-2.799-8.487-4.219c-0.771-0.389-1.684,0.428-1.383,1.238c0.439,1.178,0.266,0.723,1.048,2.83
		c0.562,1.514,1.123,3.031,1.692,4.547c-9.928,6.023-20.115,11.953-29.601,18.969c-8.242,6.096-16.709,11.846-24.84,17.641
		c-8.42,6-16.316,12.164-24.12,18.359c-15.821,12.559-29.828,27.725-33.84,50.76c-1.201-6.508-1.108-11.92-0.26-16.719
		c0.911-0.008,1.822-0.014,2.732-0.02c0.925-0.008,1.301-1.389,0.5-1.859c-0.822-0.482-1.656-0.977-2.499-1.477
		c2.114-8.131,6.236-14.668,9.246-22.406c1.045-2.686,3.098-7.012,2.88-8.639c-0.239-1.791-1.769-1.623-2.88-3.24
		c-2.539-3.697-4.099-12.002-3.24-18.361c0.841-6.229,5.711-11.139,5.04-18c-5.855,5.242-11.707,12.605-16.56,20.881
		c-4.585,7.818-8.75,17.561-9.739,27.938c-0.813,0.383-1.635,0.773-2.465,1.166c-0.934,0.443-1.838,0.873-2.72,1.291
		C175.575,468.875,179.259,458.014,183.42,452.459L183.42,452.459z M165.826,437.811c-8.073,8.824-15.886,17.91-19.486,31.209
		c0.052-7.115,0.667-14.703,2.381-21.621c0.557,1.824,1.133,3.691,1.72,5.58c0.25,0.807,1.421,0.926,1.828,0.188
		c1.476-2.682,2.979-5.379,4.493-8.084c1.404-2.508,2.814-5.012,4.223-7.516C162.575,437.648,164.194,437.73,165.826,437.811
		L165.826,437.811z M138.671,373.857c-4.224,3.422-8.749,6.72-12.491,10.562c-7.177,7.372-9.395,16.344-13.68,25.92
		c-0.139-13.164,2.936-26.534,9.72-35.279c2.265-2.921,4.688-6.123,6.597-9.33c2.216,0.375,4.446,0.753,6.839,1.163
		c-2.07,2.127-4.184,4.309-5.876,7.087c2.731-1.744,5.356-3.585,7.71-5.621C137.889,370.238,138.283,372.074,138.671,373.857
		L138.671,373.857z M90.762,292.004c-0.723,1.2-1.294,2.375-1.662,3.496c-0.523,1.595-0.064,4.194-0.72,5.041
		c-1.349,1.738-8.64,2.437-10.44,4.319c0.461-5.614,2.165-10.291,4.473-14.521c1.341,0.268,2.677,0.534,4.017,0.8
		C87.75,291.402,89.101,291.671,90.762,292.004L90.762,292.004z M58.947,259.944c-4.179,0.757-8.674,1.21-13.407,1.356
		c4.351-1.287,8.91-2.584,13.306-4.105C58.878,258.113,58.913,259.029,58.947,259.944L58.947,259.944z M138.54,193.256
		c4.306,0.128,8.522,0.537,12.589,1.435c-0.14,0.06-0.279,0.119-0.417,0.178c-2.682,1.152-5.359,2.311-8.042,3.475
		C141.308,196.67,139.943,194.992,138.54,193.256L138.54,193.256z M244.651,344.257c-1.462,2.927-2.919,5.845-4.138,8.318
		c-1.235,2.505-2.453,5.009-3.64,7.507c1.778,1.356,3.756,2.862,7.231,5.502c3.021,2.295,5.758,4.367,7.894,5.97
		c0.732,0.55,0.261,1.844-0.648,1.797c-2.728-0.143-5.294-0.271-7.863-0.4c-4.391-0.22-8.762-0.439-13.023-0.678
		c-1.334,2.356-2.726,4.821-4.251,7.542c-1.519,2.709-3.02,5.405-4.498,8.088c-0.407,0.739-1.578,0.619-1.828-0.188
		c-0.899-2.893-1.773-5.765-2.62-8.622c-0.797-2.687-1.571-5.359-2.322-8.022c-3.344-0.395-6.605-0.772-9.819-1.139
		c-3.764-0.43-7.117-0.808-10.448-1.183c-0.908-0.102-1.161-1.457-0.352-1.878c2.041-1.063,4.078-2.123,6.115-3.182
		c3.761-1.956,7.523-3.911,11.312-5.893c-0.576-2.681-1.128-5.419-1.666-8.184c-0.564-2.897-1.137-5.956-1.709-9.013
		c-0.16-0.856,0.901-1.506,1.59-0.973c2.403,1.862,4.989,3.848,7.842,6.015c2.598,1.974,5.089,3.846,7.442,5.588
		c1.143-0.528,2.287-1.058,3.433-1.587c4.891-2.261,9.806-4.535,14.663-6.741C244.155,342.535,245.048,343.464,244.651,344.257
		L244.651,344.257z M161.332,268.723c-1.621,3.116-3.242,6.233-4.486,8.646c-1.344,2.607-2.702,5.263-4.083,8.009
		c2.038,2.238,4.076,4.476,6.12,6.694c2.218,2.407,4.438,4.788,6.659,7.115c0.616,0.644,0.018,1.801-0.863,1.675
		c-3.365-0.48-6.641-0.958-9.782-1.43c-2.886-0.435-5.882-0.899-9.027-1.406c-1.235,2.103-2.823,4.818-4.589,7.843
		c-2.438,4.178-3.683,6.315-4.881,8.375c-0.443,0.762-1.697,0.536-1.848-0.332c-1.047-6.028-2.016-12.269-2.982-18.517
		c-1.991-0.447-3.432-0.769-4.811-1.076c-4.655-1.038-9.285-2.07-13.48-3.047c-0.86-0.2-1.008-1.471-0.219-1.867
		c2.885-1.448,5.771-2.896,8.666-4.342c2.532-1.265,5.199-2.591,8.112-4.03c-0.33-3.384-0.611-6.438-0.846-9.168
		c-0.277-3.237-0.541-6.533-0.789-9.897c-0.065-0.889,1.135-1.404,1.738-0.742c3.52,3.867,7.104,7.608,10.687,11.349
		c0.751,0.785,1.516,1.583,2.221,2.32c1.136-0.501,2.272-1.003,3.411-1.505c4.61-2.035,9.245-4.079,13.792-6.048
		C160.864,266.992,161.74,267.936,161.332,268.723L161.332,268.723z M237.456,274.186c-1.548,3.034-3.008,5.907-4.303,8.473
		c-1.319,2.615-2.623,5.218-3.908,7.808c1.987,1.834,1.75,1.615,1.838,1.696c4.032,3.731,8.064,7.462,12.085,10.945
		c0.686,0.593,0.163,1.829-0.734,1.753c-3.174-0.266-6.657-0.599-10.292-0.965c-3.319-0.334-6.426-0.665-9.522-0.995
		c-1.479,2.567-2.958,5.135-4.432,7.698c-1.9,3.303-3.592,6.248-4.727,8.229c-0.43,0.75-1.645,0.569-1.84-0.274
		c-0.724-3.132-1.407-6.173-2.061-9.147c-0.596-2.713-1.207-5.554-1.828-8.496c-3.156-0.542-6.009-1.026-8.849-1.507
		c-3.568-0.604-7.122-1.206-10.368-1.767c-0.886-0.152-1.084-1.465-0.285-1.875c2.96-1.519,5.912-3.029,8.868-4.532
		c2.729-1.389,5.478-2.779,8.258-4.176c-0.42-2.822-0.83-5.742-1.231-8.732c-0.448-3.345-0.849-6.472-1.225-9.491
		c-0.109-0.877,1.038-1.455,1.68-0.843c2.277,2.168,4.681,4.385,7.163,6.63c2.325,2.104,4.589,4.115,6.825,6.084
		c2.606-1.179,5.386-2.435,8.487-3.826c3.213-1.441,6.266-2.804,9.106-4.061C236.974,272.46,237.858,273.396,237.456,274.186
		L237.456,274.186z M268.38,327.18c3.25,2.216,9.705,3.565,10.08,6.841c0.496,4.327-5.324,7.071-5.04,11.159
		c3.872-5.135,9.885-10.025,11.52-16.2c-16.883-0.179-25.486-11.697-32.4-23.04C255.87,313.86,261.652,322.592,268.38,327.18
		L268.38,327.18z M350.101,337.98c-4.451,1.206,1.401,6.744,2.159,11.88c1.776,12.028-3.203,20.475-6.84,28.08
		c1.562-0.708,3.086-2.239,3.96-3.6c5.642-8.785,8.769-22.374,10.08-33.84c-1.889,1.351-1.967,4.513-3.6,6.12
		C354.249,343.431,351.101,341.779,350.101,337.98L350.101,337.98z"/>
	<path fill-rule="evenodd" clip-rule="evenodd" fill="#9A6B38" d="M538.38,126.66c-0.393,0.808-1.767,0.633-2.16,1.44
		c-0.064,0.786,0.295,1.145,1.08,1.08c-2.223,1.506-3.204,0.344-5.399,1.08c-3.305,1.109-5.125,4.828-7.2,5.4
		c-3.117,0.861-6.45-1.32-11.16-0.36C521.114,131.949,527.91,125.917,538.38,126.66L538.38,126.66z M413.101,296.94
		c1.566-0.366,1.655,0.745,2.52,1.081c-0.079,1.36-1.132,1.748-1.44,2.879C413.043,300.357,413.076,298.644,413.101,296.94
		L413.101,296.94z M437.22,234.66c-0.182,1.431-2.214,1.795-2.52,3.96c-0.086,0.608,0.666,1.635,0.36,2.521
		c-1.388,4.011-8.678,9.314-2.881,10.8c-3.623,3.011-8.46,6.612-7.56,12.96c1.579,0.379,1.183-1.218,2.521-1.08
		c-1.349,2.081-0.601,4.311-1.44,6.12c-2.018,4.343-8.008,3.914-12.6,5.76c2.842-8.581,2.762-16.94,5.399-24.119
		C421.193,244.252,429.771,237.744,437.22,234.66L437.22,234.66z M484.38,166.26c-0.855,1.064-2.127,1.712-3.239,2.52
		c0.421,0.539,0.447,1.473,1.079,1.801c-2.623,1.936-6.922,2.196-7.92,5.759c1.47,0.975,3.148-0.92,5.4-0.36
		c-3.11,2.41-8.79,2.25-11.16,5.4c0.186,1.254,2.353,0.528,3.601,0.72c0.52,4.672-6.774,7.112-9.721,9.36
		c-2.788,2.127-6.259,5.024-7.92,7.2c-0.812,1.065-0.954,2.518-1.439,2.881c-3.421,2.553-11.533,2.012-14.4,5.759
		c2.296-5.927,7.221-11.209,11.52-16.92C458.698,179.064,465.497,167.562,484.38,166.26L484.38,166.26z M449.46,196.14
		c5.409-3.952,11.069-7.651,17.28-10.8c-4.543,0.618-7.483,2.836-11.16,4.32c0.711-1.695,3.646-3.064,3.6-4.32
		C455.707,188.708,451.274,191.114,449.46,196.14L449.46,196.14z"/>
	<path fill-rule="evenodd" clip-rule="evenodd" fill="#92352F" d="M517.5,139.98c1.726,0.126-0.769,1.078-0.72,1.8
		c0.225,1.096,0.8,1.84,2.16,1.801c-2.883,2.637-9.182,1.858-11.88,4.679c0.625,1.174,2.437,1.164,3.6,1.801
		c-6.16,2.906-12.194,4.285-18,7.919c-1.487,0.932-3.383,3.212-4.68,3.601c-3.978,1.189-7.771-0.913-12.24,0.359
		C485.604,150.564,498.849,142.569,517.5,139.98L517.5,139.98z M419.22,278.581c3.489,3.596-1.882,6.002-3.239,9.719
		c0.876,0.684,2.874,0.246,3.96,0.721c0.134,4.628-5.293,2.406-9,3.959C406.271,285.464,414.215,281.61,419.22,278.581
		L419.22,278.581z M452.7,207.66c-1.462,1.963-7.113,9.152-0.36,6.84c-2.129,2.071-5.594,2.806-7.199,5.4
		c0.398,1.401,2.729,0.871,3.96,1.44c-3.378,2.337-6.646,7.454-10.44,9.721c-4.551,2.718-11.143,2.118-14.76,6.48
		C426.787,222.306,438.256,212.536,452.7,207.66L452.7,207.66z M436.141,224.581c1.991-3.051,6.584-5.414,7.199-8.641
		c-2.508,2.761-6.071,5.352-8.64,8.28c-1.564,1.784-3.684,4.037-3.6,6.48c3.025-3.094,6.182-6.058,9.72-8.639
		C438.823,222.463,438.149,224.189,436.141,224.581L436.141,224.581z"/>
	<path fill-rule="evenodd" clip-rule="evenodd" fill="#ED1C2E" d="M417.061,442.74c0.306-0.066,0.339,0.141,0.359,0.359
		c6.318,22.318-2.909,35.914-12.96,48.961c-5.466,7.094-12.504,14.57-15.12,23.039c-0.871,2.82-0.666,6.08-1.439,9
		c-2.578,9.725-13.256,16.658-12.601,29.52c-2.025-5.484-1.011-13.594,1.08-18.719c2.405-5.895,7.48-9.672,9.721-15.84
		c2.284-6.293,0.808-15.586,1.079-23.4C388.031,471.234,407.648,458.975,417.061,442.74L417.061,442.74z M559.26,183.541
		c-8.425,2.661-13.506,8.866-19.08,15.119c-5.387,6.045-10.895,12.502-11.159,22.68c-0.567,21.737,14.13,44.105,5.399,66.24
		c-2.393-3.247-4.496-6.784-6.12-10.8c-2.479,4.643,2.174,8.875,0.36,15.48c-4.746,17.285-24.249,29.704-30.24,45.72
		c-1.202-2.65,0.623-5.372,0.721-7.919c-2.888,1.197-4.981,3.901-7.2,6.119c-3.962,3.962-7.449,8.027-10.44,13.32
		c-0.192-0.561,0.211-3.453-0.359-4.68c-3.732,4.068-8.856,6.744-14.761,8.64c7.783-12.578,22.97-19.593,34.2-30.6
		c12.966-12.708,21.438-29.821,19.44-56.16c-0.395-5.191-1.223-10.515-1.801-15.84c-0.573-5.284-1.974-11.272-1.439-16.56
		c0.804-7.97,5.356-15.932,10.08-22.32c4.758-6.434,8.644-13.468,13.319-19.08c5.602-6.721,13.676-12.37,17.641-19.8
		c1.021-1.916,1.708-4.827,1.8-6.48c0.38-6.827-3.54-10.974-0.36-17.28c0.84-1.664,2.697-2.86,3.601-4.68
		c1.224-2.468,2.974-6.962,2.52-9.72c-0.843-5.128-11.234-8.067-14.04-11.879c7.536-2.201,19.968-5.615,30.96-2.881
		c2.407,0.599,7.18,2.791,7.561,4.32c0.584,2.344-2.589,6.838-4.32,9.36c-3.132,4.562-7.787,8.218-8.64,15.12
		c-0.611,4.95,0.149,9.787-0.721,14.04c-1.477,7.221-9.203,17.859-13.319,22.68c-1.147,1.345-2.891,2.217-3.601,3.6
		C558.857,188.546,560.415,185.081,559.26,183.541L559.26,183.541z M544.86,191.46c4.242-4.518,9.55-7.97,15.84-10.44
		c0.796,0.764,0.538,2.582,1.8,2.88c0.331-4.014,6.051-6.396,5.04-9.359c-1.167,0.399-2.135,4.099-4.68,4.319
		c-2.833-1.725,1.322-5.46-0.72-7.2C558.974,180.613,548.421,184.1,544.86,191.46L544.86,191.46z M520.38,229.62
		c1.571-3.349,2.842-6.998,5.4-9.36c0.68,0.041,0.25,1.19,1.08,1.08c-0.557-3.441,1.396-6.277,0.72-8.64
		C524.982,217.687,519.86,223.906,520.38,229.62L520.38,229.62z M503.82,322.5c-6.789,5.836-14.075,10.82-20.88,16.2
		c-3.072,2.429-6.408,5.012-8.28,8.64c3.312-1.608,5.276-4.563,8.64-6.12c0.595,0.006,0.202,0.999,0.721,1.08
		c4.572-6.587,11.058-11.262,17.64-15.84c0.467,0.893-0.803,1.748,0,1.8c2.481-4.719,7.929-8.391,9.72-12.6
		C508.521,317.532,506.483,320.211,503.82,322.5L503.82,322.5z M425.7,386.22c2.395-10.025,9.481-17.883,15.12-25.56
		c5.907-8.043,11.473-16,17.64-23.76c5.932-7.463,14.069-14.351,18-23.4c5.245-12.077,5.426-30.244,5.4-47.52
		c-0.021-14.052,3.773-22.141,8.28-32.04c4.779-10.498,13.657-21.214,16.199-31.68c1.512-6.219-2.146-14.147-0.359-21.24
		c0.884-3.51,4.923-7.361,3.96-12.24c-1.204-6.099-10.896-5.778-18-6.84c5.303-5.498,12.633-8.967,21.96-10.44
		c0.427-2.237-3.299-2.208-2.88-3.24c3.664-1.496,7.908-2.412,11.52-3.96c0.333-2.373-3.024-1.055-3.24-2.88
		c2.886-3.012,18.55-1.7,20.521,1.44c2.274,3.624-2.927,10.153-4.68,12.6c-2.562,3.576-5.866,7.238-6.48,11.16
		c-0.57,3.646,0.358,7.459,0,11.16c-0.985,10.183-6.277,16.037-11.16,23.04c-2.486,3.567-4.479,7.503-6.84,11.16
		c-2.231,3.455-5.389,6.456-7.92,9.72c-3.189,4.112-8.145,9.289-8.64,15.48c-0.504,6.286,1.464,12.947,2.159,18.72
		c0.752,6.228,1.876,12.464,2.16,18.72c0.939,20.665-5.153,37.194-17.279,49.32c-8.781,8.781-18.621,15.543-25.921,25.2
		c-3.255,4.307-7.087,9.743-10.439,15.12c-3.186,5.109-5.914,11.871-10.08,15.48C431.982,382.095,428.195,383.798,425.7,386.22
		L425.7,386.22z M516.78,165.18c3.188-1.611,6.293-3.307,9.72-4.68c-0.379,1.119-1.4,3.126,0,3.96
		c1.462-6.819,9.279-9.2,10.08-15.48C532.288,156.449,521.204,159.043,516.78,165.18L516.78,165.18z M506.34,210.541
		c-0.328-1.313,1.563-2.244,0.36-3.241c-8.149,14.292-17.595,29.204-22.32,45.72c2.587-1.497,2.491-5.354,4.32-7.56
		c0.714-0.861,2.089-1.218,2.52-2.16c0.548-1.196,0.116-2.599,0.36-3.96c1.28-7.144,6.858-14.942,11.16-20.16
		c4.936-5.987,10.235-11.39,12.6-18.36C512.412,204.132,510.039,207.999,506.34,210.541L506.34,210.541z M441.9,363.18
		c3.192-2.077,4.753-5.708,6.84-8.639c6.562-9.221,13.649-17.582,21.96-24.841c-0.076-0.404-0.399-0.561-0.72-0.72
		C458.298,337.82,448.909,350.867,441.9,363.18L441.9,363.18z M424.62,359.94c-3.943-9.802,5.54-24.683,9.72-32.04
		c4.807-8.459,11.103-17.736,10.44-29.52c-0.138-2.452-1.583-4.911-1.44-7.2c0.163-2.607,3.252-6.173,5.04-9.72
		c4.544-9.011,9.611-21.791,10.44-32.76c0.914-12.1-3.852-19.877-15.48-18c0.807-3.516,5.353-6.406,8.641-8.639
		c-0.466-1.456-1.684-2.157-2.88-2.881c1.635-2.325,5.216-2.704,7.199-4.68c-0.192-1.617-3.773-1.733-5.04-1.08
		c0.373-2.509,2.604-6.312,5.761-7.92c2.765-1.409,12.185-3.007,15.84-1.439c2.21,0.947,5.096,9.648,5.399,13.319
		c0.916,11.054-5.028,21.651-9.359,30.96c-2.11,4.536-4.16,9.328-6.12,14.04c-2.931,7.045-6.143,11.657-6.12,20.52
		c0.027,10.968,0.58,26.241-3.6,35.641c-1.399,3.146-4.885,6.777-7.561,10.079C437.864,338.046,428.832,347.761,424.62,359.94
		L424.62,359.94z M459.9,259.5c-0.863,0.143,0.199-1.64-1.08-1.08c-1.845,5.996-3.388,11.372-6.12,17.28
		c-2.509,5.425-8.161,13.062-6.84,18.72c1.069-5.051,3.35-8.89,6.479-11.879c1.247,1.032,0.959,3.601,1.801,5.04
		c-1.776-15.69,8.312-25.119,11.88-37.8c-0.477-0.004-0.329-0.631-0.721-0.719C463.665,252.705,462.161,256.481,459.9,259.5
		L459.9,259.5z M422.82,317.46c-1.173-5.644-1.646-13.692-2.88-19.8c-0.85-4.199-0.705-5.781,2.52-8.28
		c-0.733-1.306-2.264-1.816-4.319-1.8c0.77-2.95,3.592-3.848,5.76-5.4c0.102-1.542-1.289-1.591-2.521-1.8
		c4.638-7.905,9,0.492,9,7.92C430.38,298.735,424.52,311.088,422.82,317.46L422.82,317.46z M399.78,315.66
		c1.57,2.129,5.697,2.208,6.479,4.32c0.575,1.551-1.146,7.344-1.8,11.16c-1.876,10.973-5.77,19.93-9.359,28.8
		c-3.685,9.103-9.115,18.967-14.761,27.72c-3.316,5.144-7.078,10.881-10.8,13.68c-6.995,5.26-16.927,7.242-25.92,10.801
		c-9.295,3.676-18.611,6.24-25.2,11.52c-7.095,5.686-11.412,12.855-15.84,20.879c-4.592,8.322-6.774,17.602-12.6,24.121
		c-8.593,9.615-22.504,11.887-30.24,20.52c-7.957,8.879-6.421,23.746-10.08,35.641c-2.993,9.729-12.355,12.574-17.64,22.32
		c-2.396-3.824,1.061-7.742,1.8-10.801c-8.041,4.92-13.042,12.879-16.92,21.961c-1-5.682,1.648-10.83,3.6-14.762
		c-3.518,0.02-6.633,2.654-9.359,4.682c-8.098,6.02-15.406,13.824-19.081,24.479c0.839-15.865,10.258-24.201,21.24-31.68
		c5.092-3.467,12.808-6.189,15.12-11.16c1.562-3.355,1.391-8.01,2.16-11.52c2.27-10.352,5.801-21.094,12.24-28.801
		c9.429-11.283,22.705-17.844,35.64-25.92c5.328-3.326,12.787-6.285,16.2-11.52c1.303-1.998,2.467-4.271,3.96-6.48
		c5.035-7.445,8.902-16.812,15.839-22.68c14.508-12.27,34.734-19.133,47.16-35.64c5.912-7.854,10.927-16.702,15.12-26.279
		c4.205-9.607,9.582-19.901,9-32.401c0.18-1.572,1.502,1.172,2.88,0.72c-0.307-2.05-2.361-4.014-1.44-6.12
		c4.05,0.391,4.567,4.313,6.841,6.48C397.326,326.406,398.955,321.435,399.78,315.66L399.78,315.66z M345.78,404.939
		c-6.434,4.246-14.983,6.377-20.16,11.881c8.612-3.629,17.912-6.568,26.28-10.441c-3.236,0.365-5.913,1.289-8.641,2.16
		C343.889,407.371,347.398,406.051,345.78,404.939L345.78,404.939z M281.7,464.34c2.731-1.352,6.85-3.227,9.36-3.6
		c-1.027,3.557-4.98,6.025-5.76,8.639c5.752-2.527,8.901-9.576,9.72-15.84C292.546,459.105,284.614,459.213,281.7,464.34
		L281.7,464.34z M230.94,525.18c-0.28,2.154,0.421,4.613-0.36,6.48c-1.424,3.406-6.612,2.379-6.84,5.76
		c2.528,0.387,4.79-2.49,7.92-3.24c2.221-0.531,4.891,0.479,6.48-1.439c-7.812-2.426-2.676-15.922-1.8-20.881
		C233.633,514.857,231.658,519.654,230.94,525.18L230.94,525.18z M417.78,358.5c0.418-0.059,0.641,0.079,0.72,0.36
		c3.143,23.457,0.176,45.464-14.76,57.24c-2.58,2.035-7.121,3.652-11.16,5.041c-3.297,1.133-6.346,2.904-9.36,3.959
		c-9.05,3.17-18.78,4.891-27.72,8.641c-16.236,6.809-30.159,20.236-39.96,34.199c-3.85,5.484-11.556,15.965-12.6,24.48
		c-0.693,5.654,1.231,12.668,1.8,18.721c2.362,25.135-1.723,47.879-10.8,65.879c-3.348,6.641-6.858,13.848-10.799,19.801
		c-5.024,7.586-12.187,15.768-18,25.199c-7.609,12.344-15.108,25.816-12.601,43.201c-4.685-4.23-3.615-16.252-1.44-24.121
		c0.508-1.838,1.985-3.502,2.16-5.039c0.633-5.555-1.824-9.416-1.08-15.121c2.198-16.857,18.375-21.846,25.92-33.84
		c-7.47,4.527-16.16,5.758-22.32,11.16c-7.357,6.453-11.874,15.344-15.84,25.199c-0.765-2.475-0.818-5.66-0.72-9
		c-3.241,1.08-4.493,4.148-5.76,7.201c2.792-22.77,18.143-36.098,34.2-46.801c-13.099,3.582-25.195,11.285-33.48,20.881
		c9.188-18.82,29.381-23.941,41.04-38.16c8.527-10.4,14.452-25.184,15.84-43.201c0.374-4.854-0.102-8.23,0.36-12.6
		c1.428-13.508,9.304-24.229,15.84-32.76c7.226-9.43,14.656-18.037,23.04-25.561c8.337-7.479,19.403-13.137,29.88-18.719
		c10.612-5.654,21.887-9.631,30.601-17.641c5.992-5.508,11.258-13.627,15.84-21.6C411.435,377.124,415.422,367.717,417.78,358.5
		L417.78,358.5z M410.94,381.541c1.889-0.031,1.406-2.434,3.239-2.52c2.137,9.692-1.332,19.702-4.68,26.28
		c1.196-0.369,2.559-1.654,3.24-2.881c4.365-7.864,4.834-20.633,4.32-32.04c-0.461-0.02-0.499-0.461-1.08-0.359
		C414.799,374.138,411.646,378.14,410.94,381.541L410.94,381.541z M358.021,429.061c-22.053,7.307-40.056,26.842-51.48,45.719
		c-4.19,6.924-8.098,14.949-7.56,23.4c2.937-13.488,9.79-24.451,17.28-34.199c11.728-15.264,26.106-28.154,45.721-34.92
		c0.052-0.426,0.641-0.816,0-1.08C361.118,429.156,359.168,428.68,358.021,429.061L358.021,429.061z M414.9,429.061
		c-4.234,15.338-21.966,18.775-34.561,26.279c-10.432,6.215-18.631,13.85-25.92,24.119c-5.141,7.244-13.877,17.811-10.08,31.682
		c1.478,5.395,5.104,11.363,7.92,17.279c3.876,8.141,9.979,16.248,10.801,27c0.505,6.619-1.68,15.131-3.601,21.6
		c-1.94,6.535-4.063,13.004-5.76,19.08c-3.676,13.166-10.453,25.014-10.08,39.961c-3.5-7.135-1.824-18.922,1.44-24.84
		c-1.905,1.217-5.313,4.045-8.28,5.398c4.206-6.1,13.44-13.176,12.6-24.479c-0.163-2.195-1.628-3.787-2.16-5.762
		c-0.752-2.793-0.43-5.379-1.439-8.279c-2.129-6.111-6.642-10.809-9-16.561c-5.977-14.576-11.559-31.637-9.36-54.359
		c1.295-13.379,7.809-24.084,14.76-31.32c13.312-13.855,30.811-22.201,50.04-30.24C400.972,441.961,409.358,435.672,414.9,429.061
		L414.9,429.061z M376.38,455.34c-0.04-0.439-0.107-0.852-0.72-0.721c-10.913,5.938-22.383,11.863-30.6,20.521
		c-2.949,3.105-5.711,7.182-7.2,11.52c5.252-5.309,8.932-12.189,16.2-15.48c-2.442,3.799-5.322,7.158-7.2,11.52
		C355.3,472.18,365.129,463.049,376.38,455.34L376.38,455.34z M389.34,508.619c2.952-2.223,4.486-6.041,6.84-9
		c2.342-2.941,5.694-5.355,6.12-9c-2.501,2.301-5.078,6.439-7.56,7.561c0.181-1.5,1.259-2.1,1.439-3.6
		c-2.803,0.678-2.401,4.559-5.039,5.4c-1.53-4.418,0.786-9.877-0.36-12.961C387.771,492.297,389.671,502.033,389.34,508.619
		L389.34,508.619z"/>
	<path fill-rule="evenodd" clip-rule="evenodd" fill="#FFFFFF" d="M195.66,530.939c-5.638,2.762-8.827,7.975-11.88,13.32
		c-0.175-7.256,4.36-12.918,9-16.561c-11.202,1.998-18.128,8.271-24.12,15.48c3.078-10.842,13.214-17.744,23.04-23.039
		C194.228,522.531,194.52,527.16,195.66,530.939L195.66,530.939z M446.22,372.541c5.921-20.821,21.229-34.583,36-47.161
		c4.134-3.52,8.764-7.158,11.881-11.52c10.334-14.462,10.706-37.536,7.56-57.24c-1.144-7.158-5.695-16.663-2.88-23.4
		c1.671-3.998,5.388-8.497,8.28-12.6c6.01-8.526,11.797-15.091,18-23.76c2.866-4.006,6.454-8.55,7.56-13.319
		c1.602-6.911-0.76-15.583,1.8-21.96c1.079-2.688,3.354-5.798,5.04-8.641c1.639-2.763,4.2-6.572,3.96-9.359
		c-0.522-6.082-10.734-5.463-16.2-7.561c2.48-3.135,7.652-5.415,12.96-3.6c0.004-2.638-0.998-2.858,1.44-3.96
		c4.934-2.228,19.556,4.072,20.16,8.64c0.688,5.202-7.11,11.589-7.92,16.2c-1.013,5.771,2.78,11.318,0,17.64
		c-1.832,4.165-6.769,8.944-10.44,12.96c-7.579,8.29-13.804,16.272-20.52,25.92c-4.453,6.396-9.963,12.54-11.16,21.241
		c-0.787,5.716,0.663,12.417,1.439,18.359c1.771,13.544,4.924,33.084,0.721,47.88c-5.4,19.006-23.141,29.806-36.721,41.4
		c-8.135,6.945-16.144,13.787-21.6,23.76C453.281,366.663,451.497,371.501,446.22,372.541L446.22,372.541z M542.7,152.22
		c2.954-1.006,5.326-2.594,8.28-3.6c0.222,1.401-1.668,2.947,0,3.6c1.535-5.305,8.207-7.391,7.56-13.679
		C554.523,144.363,548.377,148.056,542.7,152.22L542.7,152.22z M534.42,188.581c-0.354-1.572,1.84-2.457,0.721-3.601
		c-6.735,12.251-18.169,24.545-26.641,36c-4.932,6.67-11.68,13.086-7.56,23.4c-0.777-7.737,1.61-12.309,5.399-15.48
		c-0.229,1.467-2.174,4.184-0.72,5.04c0.055-2.105,0.885-3.436,1.8-4.68c0.015,1.186-0.147,2.547,1.08,2.52
		c3.175-11.808,11.375-20.294,17.641-29.52c6.404-9.432,14.745-17.128,20.52-26.28C543.034,180.634,539.086,184.966,534.42,188.581
		L534.42,188.581z M481.86,330.061c-0.336-1.346,1.525-2.062,0-2.52c-6.046,5.195-12.543,11.515-17.641,17.639
		c-1.548,1.861-4.518,3.859-3.96,6.48c3.298-2.543,5.298-6.184,8.28-9c6.654-6.281,15.628-10.003,21.24-17.28
		c0.363-0.004,0.453-0.63,0-0.72C487.338,326.657,484.784,328.544,481.86,330.061L481.86,330.061z M426.061,372.18
		c2.759-21.805,15.97-33.11,26.279-47.88c2.319-3.322,4.864-6.361,6.12-10.8c1.651-5.834,2.484-12.712,2.88-19.08
		c0.377-6.06-0.708-12.258,0.721-18c4.871-19.586,20.24-36.207,19.8-59.04c-0.073-3.792-1.549-9.172-3.601-12.24
		c-3.49-5.22-14.463-5.048-21.6-4.32c1.379-2.843,4.233-5.408,8.28-7.92c2.979-1.85,9.517-3.869,10.08-6.12
		c0.353-1.409-1.072-2.084-1.44-3.6c-0.261-1.075,0.891-2.146-0.36-2.88c1.165-1.929,11.388-2.783,11.521-4.32
		c0.175-2.025-3.938-1.318-6.48-1.439c1.227-1.774,3.927-2.074,6.12-2.881c0.364-1.684-1.443-1.195-1.08-2.88
		c4.859-4.15,23.212-4.359,23.761,2.88c0.348,4.586-4.648,9.336-5.04,14.401c-0.427,5.515,2.614,9.523,1.08,15.48
		c-2.136,8.286-7.912,18.623-12.24,25.919c-4.639,7.82-10.91,15.726-13.32,24.48c-1.925,6.989,0.687,15.145,0.36,22.32
		c-0.662,14.57-0.236,32.662-6.12,42.84c-2.875,4.973-7.845,9.068-11.88,13.32C447.865,343.099,435.688,358.087,426.061,372.18
		L426.061,372.18z M487.26,186.42c1.914,0.696,2.909-1.387,3.601-0.72c-2.251,4.35-6.849,6.352-9,10.8
		c5.584-3.057,10.55-8.649,14.76-11.88c-0.45,1.792-0.732,4.865,1.08,5.4c-1.359-8.47,12.378-17.338,4.32-20.16
		C500.272,178.552,493.193,181.913,487.26,186.42L487.26,186.42z M484.021,229.26c-0.232-1.568,0.47-4.069-0.36-5.04
		c-2.042,20.505-18.089,35.583-19.44,56.16c-0.175,2.676-0.222,5.249,1.44,6.12c0.767-2.954,0.241-7.199,2.52-8.64
		c-0.101,0.821,0.087,1.354,0.721,1.44c0.029-3.209-0.318-6.798,1.439-8.279c0.825,1.334,1.058,3.263,2.521,3.959
		c-4.681-11.374,3.46-22.309,7.92-32.399c3.613-8.177,7.141-15.78,10.08-21.601c-0.041-0.439-0.107-0.853-0.72-0.72
		C488.68,223.602,486.419,228.057,484.021,229.26L484.021,229.26z M440.82,345.541c0.605-1.086,2.272-2.993,1.439-4.321
		c-3.911,7.253-10.805,13.429-12.6,21.6c2.94-1.89,4.139-5.291,6.12-7.92c6.111-8.107,13.618-14.533,19.439-22.68
		c-0.079-0.28-0.301-0.418-0.72-0.36C449.643,335.882,445.492,342.531,440.82,345.541L440.82,345.541z M423.54,341.58
		c-1.685-17.706,11.742-36.554,10.44-54.72c-0.45-6.278-2.935-12.162-9-13.68c0.977-1.063,1.665-2.415,3.239-2.88
		c-1.66-3.595,2.34-6.751,3.601-9.719c-1.546-1.052-2.536,1.532-4.68,1.079c0.693-1.81,2.447-6.058,5.039-7.92
		c1.19-0.854,4.224-1.184,4.32-2.159c0.139-1.4-2.605-1.877-4.32-2.52c1.443-3.358,3.058-6.543,6.48-7.92
		c0.371-1.691-1.681-0.959-1.44-2.521c2-4.158,9.251-7.818,14.761-4.32c2.239,1.422,3.721,6.373,3.6,9.72
		c-0.555,15.318-11.786,26.879-15.479,39.96c-1.181,4.179,0.586,7.244,1.079,11.88C443.347,316.199,427.859,327.96,423.54,341.58
		L423.54,341.58z M429.3,316.021c4.7-4.061,4.976-12.546,8.28-18c0.811,1.229-0.267,4.346,1.08,5.04
		c1.793-6.399,0.365-13.762-3.6-16.561C435.47,297.283,432.964,308.124,429.3,316.021L429.3,316.021z M416.34,300.18
		c3.375,5.746,3.397,14.843,3.24,24.12c-0.573-3.467-1.836-7.492-2.88-11.52C415.404,307.781,413.422,303.133,416.34,300.18
		L416.34,300.18z M414.9,482.34c-1.091,16.07-13.085,24.355-18,37.801C396.388,502.467,409.262,495.062,414.9,482.34L414.9,482.34z
		 M409.141,445.26c0.306-0.066,0.339,0.141,0.359,0.359c-8.276,15.721-28.324,25.209-26.64,48.24
		c0.404,5.525,1.84,15.113,0.359,21.6c-2.435,10.668-11.654,17.877-18.359,24.842c-0.47-2.867-5.519-7.781-5.76-11.16
		c-0.124-1.73,1.484-4.162,1.8-6.48c1.355-9.977-1.69-26.025,1.439-34.92c-1.238-0.268-2.46,4.488-3.6,4.32
		c1.178-5.652,0.809-11.535,3.24-15.84c1.817-3.219,6.726-6.475,10.08-9.361c3.566-3.068,7.453-5.842,11.159-7.92
		C392.142,453.938,402.163,450.367,409.141,445.26L409.141,445.26z M363.78,495.301c1.599-13.275,11.276-19.723,18.72-28.441
		c1.344-1.572,1.99-3.438,3.24-4.68c2.53-2.518,6.459-3.781,7.56-7.199c-6.872,4.18-16.108,8.91-22.68,14.76
		c-4.303,3.83-9.379,8.76-8.28,15.119c5.15-5.65,8.437-13.164,15.48-16.92C372.699,476.168,361.569,482.131,363.78,495.301
		L363.78,495.301z M341.46,578.1c3.299,3.422-1.991,7.182-2.52,11.16C338.638,585.834,339.971,580.932,341.46,578.1L341.46,578.1z
		 M416.7,409.619c1.69,8.518-2.846,16.887-7.92,21.961c-4.7,4.701-11.175,9.387-17.64,12.24c-6.992,3.084-14.648,4.863-21.601,8.279
		c-26.725,13.137-47.603,30.432-45.36,70.92c0.528,9.529,2.627,17.678,4.32,25.561c1.6,7.447,5.382,14.838,4.32,25.199
		c-1.675,16.352-17.011,21.557-18.36,39.6c-3.269-3.814-2.553-13.279,0-17.279c-9.085,5.711-16.829,18.928-15.48,34.92
		c-1.992-1.127-1.931-4.309-3.6-5.76c-0.445,6.635-4.68,9.48-5.04,16.199c-2.527-1.926-3.935-6.439-2.88-10.799
		c-6.59,6.578-8.107,23.738-2.88,33.119c-6.375-7.973-8.346-21.51-5.399-32.76c1.41-5.387,6.398-10.621,9.359-15.84
		c9.137-16.105,16.218-33.043,20.16-55.08c1.892-10.574,2.013-22.59,1.08-33.48c-0.657-7.668-1.52-14.912-2.16-24.119
		c-0.161-2.311-0.784-4.979-0.72-7.199c0.211-7.314,4.562-15.379,7.56-20.521c6.403-10.982,12.553-18.182,21.96-26.279
		c3.514-3.023,7.568-6.537,11.521-8.641c9.099-4.84,21.046-7.76,31.319-10.08c8.23-1.857,15.489-2.717,21.96-6.119
		C407.24,420.494,412.348,415.828,416.7,409.619L416.7,409.619z M409.141,421.141c0.894,0.467,1.493-1.057,1.8,0
		c-0.882,3.678-3.434,5.686-4.681,9c4.577-2.875,8.18-8.607,8.641-14.4c-0.08-0.281-0.302-0.418-0.721-0.361
		C412.625,417.426,410.335,418.734,409.141,421.141L409.141,421.141z M364.141,437.34c-6.28,1.016-13.791,4.322-19.801,8.641
		c-11.891,8.543-20.091,16.586-27.359,29.16c-3.074,5.318-6.121,10.428-6.12,15.84c3.207-2.793,3.551-8.449,7.56-10.441
		c-0.171,1.131,0.449,1.473,1.08,1.801c0.035-0.496,1.405-1.404,1.44-0.721c-0.438,1.852,0.403,4,0.72,6.121
		c1.261,0.506,1.134-2.182,1.8-1.08c-0.504,2.787-2.68,6.746-1.08,9.359c3.057-9.662,7.19-18.801,12.96-25.561
		c1.722-2.016,4.713-3.129,4.681-6.119c-7.275,5.086-11.51,13.211-17.641,19.439c-0.02-4.219,1.054-7.346,2.521-10.08
		c-2.097,0.789-2.36,5.314-4.32,5.041c-0.01-1.346,1.403-3.137,0.72-3.961c-0.707,0.746-1.264,3.518-2.52,2.521
		c2.816-7.334,8.453-14.109,14.04-19.801c5.679-5.787,12.433-10.432,21.96-11.881c-2.052,2.389-5.414,3.467-6.84,6.48
		c3.533-0.307,5.033-2.646,9-2.52c-0.323,4.59-6.518,4.832-8.641,8.641c7.916-5.406,18.429-8.213,27.721-12.24
		c-5.06-1.668-11.34,5.088-16.561,3.24c2.973-1.709,7.01-2.352,9-5.041c-5.213,0.188-8.197,2.602-12.96,3.24
		c1.148-1.973,4.093-2.146,5.4-3.961c-2.103-0.523-4.449,0.879-6.48,0.361c2.163-1.527,5.337-2.945,8.28-3.961
		c1.741-0.6,4.673-0.143,5.04-2.52C366.561,437.205,365.41,437.135,364.141,437.34L364.141,437.34z M410.94,316.74
		c4.602,11.159,5.461,32.255,2.16,45.36c-1.603,6.362-5.674,12.918-9,19.08c-7.719,14.296-15.437,24.191-29.16,32.76
		c-3.475,2.17-7.098,4.283-10.8,6.121c-3.814,1.891-7.208,4.338-10.801,6.119c-5.365,2.662-10.279,4.242-14.399,6.84
		c-12.307,7.76-22.721,19.674-31.681,32.041c-5.903,8.148-12.724,15.84-15.84,26.639c-3.084,10.691-1.549,22.801-6.12,35.281
		c-4.274,11.672-11.489,17.518-21.96,24.119c-5.867,3.699-12.075,7.922-18.72,9c-1.919,0.312-3.852-0.172-5.76,0
		c-10.43,0.943-17.795,8.227-24.48,13.32c7.361-12.498,17.847-14.697,28.44-22.32c2.18-1.568,5.239-4.352,7.2-6.48
		c12.464-13.523,5.824-38.611,16.2-54c5.827-8.641,16.298-12.971,24.48-19.439c1.675-1.324,3.558-3.658,4.68-5.4
		c8.639-13.396,12.488-32.443,25.919-41.4c10.421-6.947,27.03-8.883,39.24-14.76c5.248-2.525,11.192-4.773,14.76-7.92
		c1.569-1.383,2.65-4.201,4.32-6.839c7.234-11.425,15.133-24.026,21.24-38.52C406.018,344.101,409.533,330.82,410.94,316.74
		L410.94,316.74z M407.7,342.66c2.104-0.657,1.64-3.88,3.6-4.68c0.563,4.023,0.528,10.84-0.359,15.48
		c2.048-1.858,1.998-6.154,2.16-9.72c0.235-5.187-0.053-10.906-1.08-14.76c-0.36,0-0.721,0-1.08,0
		C409.96,333.64,408.23,337.55,407.7,342.66L407.7,342.66z M301.5,463.619c-0.912-3.537,2.43-6.191,3.24-10.08
		c-5.405,4.594-5.912,11.943-10.08,17.281c-4.347,5.566-11.37,6.479-16.92,11.16c4.447-0.955,8.749-3.969,12.96-3.961
		c-1.134,2.83-3.017,6.82-2.52,10.08c7.296-15.504,18.621-26.979,29.159-39.24c0.079-0.451,0.561-0.734-0.359-0.719
		C310.873,452.354,306.992,458.793,301.5,463.619L301.5,463.619z M252.18,545.699c-3.025,2.74-6.951,4.215-9.36,7.561
		c7.833-4.699,19.19-3.646,24.84-10.439c-3.358,1.682-6.058,4.021-10.08,5.039c-0.289-1.248,0.536-1.383,0.36-2.52
		c-1.068-0.314-1.776,1.539-2.16,0.721c1.325-3.055,6.661-7.252,3.6-11.16C258.181,539.6,255.074,543.08,252.18,545.699
		L252.18,545.699z M378.18,327.18c1.709,0.287,2.407,5.708,2.521,9c0.355,10.331-5.763,20.427-9.72,28.44
		c-5.13,10.39-12.353,21.896-19.801,29.88c-5.014,5.375-12.493,9.176-19.8,13.32c-6.87,3.896-14.028,8.578-19.439,13.68
		c-4.537,4.277-8.703,10.992-12.96,17.279c-4.771,7.049-8.269,14.705-14.04,18.721c-6.101,4.244-13.25,6.395-19.08,9.359
		c-6.343,3.229-12.458,5.92-18,10.441c-5.531,4.51-9.726,9.844-12.96,15.479c-1.405,2.449-1.646,6.123-3.6,9
		c-1.119,1.648-3.717,2.789-5.4,4.68c-1.511,1.697-2.87,3.768-4.32,5.762c-2.704,3.717-5.37,10.176-8.28,11.879
		c-4.019,2.354-9.804,2.217-13.68,3.961c0.48-2.824-0.396-11.049,1.439-13.32c1.186-1.469,5.357-1.506,7.2-2.52
		c1.619-0.893,4.079-2.66,4.68-5.041c0.748-2.959-0.368-6.906,0.72-10.08c0.914-2.664,3.795-5.439,5.76-8.641
		c1.792-2.918,3.236-6.436,5.04-9c3.789-5.381,9.48-10.346,14.04-14.039c21.53-17.439,43.3-29.979,66.24-46.08
		c11.342-7.961,24.195-13.844,33.479-22.68c6.392-6.083,12.999-16.723,17.28-25.2c5.666-11.219,10.796-22.542,11.88-37.8
		c2.564,2.356,5.691,4.149,6.84,7.92C378.201,338.857,378.621,333.323,378.18,327.18L378.18,327.18z M225.18,488.1
		c-6.181,3.268-8.315,9.277-9.36,15.84c-0.444,2.789-0.967,7.441-2.88,9.361c-2.502,2.508-5.947,0.945-8.64,3.959
		c0.64,0.92,3.359-0.238,3.96,0.721c0.365,2.674-4.065,3.266-5.04,5.76c2.935-2.434,6.912-2.24,9.72-4.32
		c2.539-1.881,4.246-6.057,6.12-9c2.077-3.26,4.898-5.686,6.12-9c-2.698,0.104-4.678,3.932-7.2,5.4
		c0.473-8.527,4.524-13.477,8.28-18.721C225.963,488.219,225.461,487.951,225.18,488.1L225.18,488.1z"/>
	<path fill-rule="evenodd" clip-rule="evenodd" fill="#FFF200" d="M313.38,271.74c-5.967,4.347-18.731-1.432-25.199,2.88
		C290.761,268.618,305.62,270.953,313.38,271.74L313.38,271.74z M309.42,249.061c-0.226,4.025,4.27,4.773,5.76,7.919
		c0.754,1.591-0.296,3.283,0.577,5.041c1.389,1.353,3.824,2.654,4.823,4.679c0.864,1.751-0.132,2.537,1.08,4.321
		c-1.538,0.789-1.565-1.56-2.88-2.161c-4.15-1.898-19.922-1.736-25.56-0.72c-4.625,0.833-6.945,3.541-9,5.04
		C282.218,258.938,295.869,249.541,309.42,249.061L309.42,249.061z M301.141,254.1c1.68-0.339,4.877-0.746,6.479,0
		c0.575,1.177,0.575,2.737,0,4.68c-0.866,1.054-2.136,0.842-3.6,2.16c1.345,0.801,2.942-0.765,4.68-0.72
		C311.545,252.488,305.313,249.656,301.141,254.1L301.141,254.1z M299.7,260.22c1.798-0.001,3.287-0.313,3.6-1.8
		c-0.155-0.565-1.132-0.308-0.72-1.44c0.18-1.381,2.662-0.458,2.521-2.16C301.485,254.805,299.213,256.132,299.7,260.22
		L299.7,260.22z"/>
</g>
</svg>
