<?xml version="1.0" encoding="utf-8"?>
<!-- Generator: Adobe Illustrator 14.0.0, SVG Export Plug-In . SVG Version: 6.00 Build 43363)  -->
<!DOCTYPE svg PUBLIC "-//W3C//DTD SVG 1.0//EN" "http://www.w3.org/TR/2001/REC-SVG-20010904/DTD/svg10.dtd">
<svg version="1.0" id="Layer_1" xmlns="http://www.w3.org/2000/svg" xmlns:xlink="http://www.w3.org/1999/xlink" x="0px" y="0px"
	 width="612px" height="792px" viewBox="0 0 612 792" enable-background="new 0 0 612 792" xml:space="preserve">
<g>
	<path fill-rule="evenodd" clip-rule="evenodd" d="M28.5,593.432c12.767-1.66,18.757-10.098,23.496-19.784
		c-5.935,1.277-9.761,4.665-17.312,4.327c17.288-7.445,31.627-17.838,37.717-36.479c-8.361,6.065-15.52,13.333-21.641,21.641
		c1.946-9.981,9.812-12.359,15.458-20.404c3.65-5.201,7.816-11.947,9.893-17.931c2.423-6.981,2.905-18.025,7.419-23.496
		c7.718-9.354,20.917-16.338,32.151-21.641c-15.464,14.649-34.341,20.43-37.716,48.847c-1.971,16.592-7.729,37.476-16.076,52.556
		c-3.784,6.838-10.282,16.883-16.076,21.022c-5.224,3.732-11.097,2.237-16.076-1.855c18.158,4.977,27.1-18.568,32.152-31.532
		c-9.054,7.021-9.753,22.397-20.404,27.822c1.839-2.947,3.426-4.404,4.328-7.419C42.955,593.059,35.016,597.09,28.5,593.432
		L28.5,593.432z"/>
	<path fill-rule="evenodd" clip-rule="evenodd" d="M49.522,602.707c9.408-7.492,15.436-18.365,19.786-30.916
		C67.323,584.235,62.988,599.684,49.522,602.707L49.522,602.707z"/>
	<path fill-rule="evenodd" clip-rule="evenodd" fill="#003B78" d="M200.389,34.485c0.524,30.295,3.721,58.606,12.985,81.616
		c-15.6,5.835-27.75,15.119-35.862,28.442c-4.176-26.042,6.048-52.585,10.511-76.051c-12.551,26.958-20.626,63.052-17.931,98.31
		c-13.58,13.832-26.843,27.98-36.48,45.755c-12.943-9.538-22.976-58.571-25.968-74.815c8.359-20.964,22.856-43.929,39.571-59.357
		C151.805,74.148,197.618,33.448,200.389,34.485L200.389,34.485z"/>
	<path fill-rule="evenodd" clip-rule="evenodd" d="M126.811,469.771c2.235-26.206,14.995-45.187,32.151-54.409
		c-1.77,3.004-2.421,3.503-3.709,4.946C142.248,433.583,131.229,453.96,126.811,469.771L126.811,469.771z"/>
	<path fill-rule="evenodd" clip-rule="evenodd" d="M142.269,600.233c1.557,7.068,0.211,16.572,1.236,24.732
		c1.336,10.639,4.449,19.165,9.275,25.351c-7.529-6.093-18.91-5.248-17.312,9.894c0.698,6.619,4.159,14.388,6.801,21.641
		c3.761,10.322,10.014,16.971,8.038,26.586c-6.846-20.329-15.625-35.873-19.786-55.028c-0.669-3.083,6.621-8.443,7.42-11.129
		c1.419-4.771-0.217-11.141,0-16.077C138.358,616.707,139.231,607.985,142.269,600.233L142.269,600.233z"/>
	<path fill-rule="evenodd" clip-rule="evenodd" d="M157.107,714.002c4.607,8.091,4.935,20.667,0,29.061
		c5.072-1.188,13.222-1.607,20.404-1.237c-2.43-8.492-4.461-17.386-4.328-28.442c2.078-0.915,3.519-0.238,6.183,0.619
		c-1.935-7.634-7.285-15.373-11.129-24.113c-4.886-11.11-12.007-25.878-4.947-35.862c-0.17,16.414,3.906,29.702,9.893,40.809
		c2.717,5.039,10.049,12.155,9.893,17.312c-0.123,4.072-4.83,6.787-5.565,11.748c-0.896,6.053,1.052,12.936,3.092,17.313
		c0.971,2.082,3.614,3.845,4.328,6.801c1.011,4.187-0.723,9.371,0,15.457c-6.27,1.631-25.489,3.221-36.48,1.237
		c0.146-8.105,1.471-13.991,2.949-20.108c3.426-6.407,8-12.229,2.616-18.845C155.91,722.697,156.925,718.765,157.107,714.002
		L157.107,714.002z"/>
	<path fill-rule="evenodd" clip-rule="evenodd" d="M277.059,286.135c-1.235,5.772-5.904,8.111-8.039,12.984
		c10.067-4.979,21.296-8.795,33.389-11.748c-0.495,6.036-11.077,5.418-16.694,7.42c-32.561,11.602-55.81,42.558-82.853,62.449
		c-12.028,8.846-26.368,16.414-38.954,17.931c-2.544,1.923-3.021,4.616-5.564,8.038c-0.267-1.729-0.986-10.678,0.952-12.936
		c1.974-2.3,10.635-1.742,20.689-4.995c25.348-8.018,45.207-30.553,63.067-46.992c5.696-5.242,11.985-8.857,17.931-13.603
		C267.264,299.672,269.336,291.296,277.059,286.135L277.059,286.135z"/>
	<path fill-rule="evenodd" clip-rule="evenodd" d="M165.146,461.115c-0.048,22.962,4.577,46.509,14.221,61.83
		c-13.653-6.244-16.988-31.066-16.168-53.607C163.308,466.325,163.995,464.83,165.146,461.115L165.146,461.115z"/>
	<path fill-rule="evenodd" clip-rule="evenodd" d="M182.458,417.834c3.042-5.487,5.418-14.754,1.855-21.641
		c3.248,0.356,5.641-1.741,7.419-3.709c9.092-10.06,18.811-23.519,25.351-35.862c-11.259,4.61-18.979,12.76-27.206,20.404
		c3.205-9.581,13.087-13.817,21.022-19.786c1.481-1.114,2.715-3.131,4.329-4.328c6.228-4.618,15.76-7.706,20.404-14.221
		c0.831-1.166,0.916-3.346,1.855-4.328c2.644-2.763,7.799-5.044,11.748-8.038c26.189-19.85,61.519-29.537,84.09-53.793
		c6.371,2.559,8.679-2.235,11.129-7.42c2.309-4.885,4.688-5.856,4.328-8.656c-0.383-2.974-2.773-3.097-3.709-5.564
		c6.455-0.274,7.584,4.781,12.984,5.564c-0.451-2.626-2.649-8.712-6.185-11.08c-1.125,1.218-4.785,1.696-5.563-1.287
		c-0.42-1.604,0.391-4.556,2.473-4.946c4.721-0.883,6.186,11.984,13.603,11.13c1.058-7.039-4.996-15.427-8.632-17.609
		c-4.804,3.443-9.282-3.331-3.733-5.887c1.742-0.184,3.302,0.704,3.709,1.855c1.023-0.793,2.329-2.491,4.176-3.793
		c5.585-0.804,11.962-1.26,18.084-3.008c0.341-8.398,3.112-21.2,0.617-30.297c-1.182-4.312-3.337-5.927-5.565-9.274
		c8.104,2.431,10.648,7.173,11.749,16.694c0.646,5.591,1.932,12.033,1.235,15.458c-2.283,3.155-5.918,10.157-7.419,16.076
		c-1.717,6.774-1.688,12.629-2.473,19.168c-11.275,6.24-20.92,11.86-29.679,22.258c-1.968,2.335-5.321,6.015-7.419,9.275
		c-4.303-0.164-10.083-0.828-12.985,3.71c3.285,0.837,7.193,1.05,10.512,1.854c-1.241,1.556-1.763,2.42-2.474,4.328
		c-7.526-1.847-14.386,0.904-19.167,3.71c2.883,2.68,9.763,1.366,12.983,3.71c-3.322,2.358-5.605,3.639-9.273,6.183
		c1.083,0.978,3.293,1.407,4.946,1.236c-0.196,1.085-1.167,4.85,0,8.038c-2.627-1.908-4.886-4.182-8.656-4.946
		c0.311,0.884,1.129,2.396,1.736,4.907c-13.56-3.576-32.384-7.867-39.453,3.749c9.625-0.776,15.225,1.068,22.258,3.71
		c3.805,1.429,8.422,4.239,10.316,6.117c5.147-1.956,8.149-4.886,14.415-8.59c-3.795,6.096-9.912,9.873-16.075,13.603
		c1.398-7.182-15.715-11.993-24.732-11.748c-16.146,0.799-16.31,18.745-18.549,37.717c-12.417,8.452-26.459,11.298-40.962,16.076
		c-3.397,4.38-7.877,11.026-12.212,16.076c-4.606,5.367-8.346,11.221-12.984,16.075c9.48,3.804,20.779-0.508,26.586-4.946
		c2.746-2.098,5.864-6.215,8.657-9.274c7.975-8.734,17.375-19.385,26.587-26.587c-3.065,4.532-6.467,8.478-9.275,13.603
		c-5.267,9.612-10.369,21.955-13.603,34.007c-2.026,7.551-3.212,16.277-5.351,23.957c-1.185-7.509-0.112-17.363,1.023-24.575
		c-9.418,4.432-31.108,10.987-39.572-0.619C189.22,415.251,187.313,417.742,182.458,417.834L182.458,417.834z"/>
	<path fill-rule="evenodd" clip-rule="evenodd" d="M265.312,264.495c-6.274-4.165-0.838-22.887-12.366-19.787
		c2.139,8,3.5,15.551,5.509,23.437c2.245-0.122,7.724,1.842,8.711,2.533c4.042,2.828,5.199,10.308,4.946,14.221
		c-0.334,5.18-4.152,9.693-8.895,12.495c-5.588,4.136-15.747,3.983-19.547-5.075c5.431,8.68,23.142,5.958,24.114-3.71
		c0.517-5.143-3.98-7.042-5.565-11.748c-4.648,4.292-11.155,3.811-16.076,0c5.869,0.231,13.235,3.722,16.076-3.709
		c-2.336-2.592-3.926-0.895-7.42-0.618c-2.02-9.521-3.945-17.842-5.875-27.824c-4.668,0.279-9.541,1.648-12.673,3.092
		c0.885-1.73,1.963-2.623,3.591-4.253c2.3-1.062,5.244-1.48,7.538-2.548c-0.04-1.337-0.175-2.576-0.367-3.412
		c-1.814,0.681-2.622,1.49-3.961,2.174c-0.375-2.335,1.542-3.686,3.092-4.946c-15.218-66.404-29.492-131.508-42.045-201.267
		c-1.259-8.825,4.253-8.799,4.949-3.519c11.243,66.6,25.85,128.923,38.951,192.419c4.083-1.486,8.92-7.564,11.748-12.366
		c8.897-3.492,20.61-4.289,26.587-10.511c3.347-3.483,2.202-8.904,6.802-11.748c-2.612,10.679-14.734,25.012-3.71,34.625
		c-3.033,2.944-6.12,5.834-11.129,6.801c4.334,10.019,17.562,1.095,24.731-0.618c-5.317,6.43-15.923,7.572-21.64,13.603
		c8.252,2.359,15.806-5.014,24.732-8.038c12.661-4.289,28.125-3.732,38.335-9.275c0.874,7.276-11.281,6.778-18.55,8.038
		c-13.327,2.31-21.185,5.282-30.914,9.893c-2.749,1.303-4.856,2.319-7.42,3.092c-2.173,0.656-6.261-0.381-6.801,3.092
		c3.25,2.725,8.597-2.302,14.221-1.237c-4.878,2.684-17.671,9.466-14.221,18.549c0.542,1.426,1.435,2.815,4.328,2.474
		c-2.489,4.518-6.566,7.448-9.892,11.129c4.774-11.708,3.13-31.424-1.237-42.663c-3.8,5.615-10.191,14.761-6.183,24.113
		c-1.289,0.104-2.252,0-2.837-0.656C264.492,261.46,264.725,262.128,265.312,264.495L265.312,264.495z M248.755,225.128
		c0.355,1.692,0.965,4.769,1.443,6.871c10.894-7.862,26.888-14.467,31.189-26.861C274.751,211.472,255.557,218.396,248.755,225.128
		L248.755,225.128z M252.257,241.617c7.88-0.158,12.912-2.615,16.763-6.801c-5.568-2.061-12.741-1.058-17.93,0.618
		C251.43,237.772,251.776,239.556,252.257,241.617L252.257,241.617z"/>
	<path fill-rule="evenodd" clip-rule="evenodd" d="M235.632,252.747c-0.18,3.219,0.251,12.616,3.092,16.076
		c0.699-1.061,1.246-1.61,3.091-2.284c-2.356,7.672,1.19,11.908,2.474,18.978C236.787,279.438,231.938,264.307,235.632,252.747
		L235.632,252.747z"/>
	<path fill-rule="evenodd" clip-rule="evenodd" d="M246.762,290.463c4.826-0.92,13.406,3.138,16.694-3.71
		C263.271,296.436,251.968,294.385,246.762,290.463L246.762,290.463z"/>
	<path fill-rule="evenodd" clip-rule="evenodd" d="M247.999,285.517c0-0.619,0-1.237,0-1.855c4.965,2.255,10.916,0.837,14.84-1.237
		C263,289.876,252.239,287.177,247.999,285.517L247.999,285.517z"/>
	<path fill-rule="evenodd" clip-rule="evenodd" d="M250.472,475.955c2.518-2.074,7.941-2.802,11.268-2.457
		c2.62,1.63,4.167,3.37,6.044,8.021c-3.628,0.363-5.671,0.8-7.798,1.384C257.968,480.657,254.49,477.121,250.472,475.955
		L250.472,475.955z"/>
	<path fill-rule="evenodd" clip-rule="evenodd" d="M262.838,631.149c-1.13,3.57-3.734,4.93-4.328,8.038
		c-3.945,20.62,14.794,25.259,27.823,32.77c9.393,5.414,17.344,11.534,23.496,15.457c2.562-1.146,1.3-6.119,3.092-8.037
		c3.275-0.185,1.326,4.855,1.854,7.42c3.353,0.467,3.287-2.484,5.565-3.092c-2.906,6.646-3.308,15.223-4.329,22.259
		c-4.457-22.062-30.492-27.224-48.227-37.098c-6.046-3.366-10.018-6.648-15.458-9.893
		C251.84,645.708,253.575,634.664,262.838,631.149L262.838,631.149z"/>
	<path fill-rule="evenodd" clip-rule="evenodd" d="M252.327,210.702c5.729-20.858,14.421-38.753,35.244-44.518
		c-7.298,7.141-16.023,15.018-22.259,23.496C260.801,194.856,258.069,200.976,252.327,210.702L252.327,210.702z"/>
	<path fill-rule="evenodd" clip-rule="evenodd" d="M281.387,623.729c2.641,14.259,7.328,26.473,19.167,31.533
		c-4.344-9.167-15.591-21.176-8.656-35.243c-0.151,12.334,2.297,18.762,7.419,25.97c6,8.44,11.815,14.242,22.876,17.931
		c4.565,1.521,11.707,1.283,14.222,3.709c3.776,3.643,3.671,18.443,10.511,19.168c2.239,9.097,7.254,15.417,9.893,24.113
		c-10.698,3.679-28.201,6.491-39.571,0.619c9.586-0.787,26.103-7.449,22.878-18.55c-1.287-4.431-5.203-4.52-8.966-6.492
		c3.257-1.514,6.12,0.998,8.966-0.927c-0.599-6.822-5.697-9.142-9.274-12.985c1.951-0.303,2.183,1.115,4.327,0.619
		c-0.518-6.278-8.374-5.628-12.365-6.802c-14.768-4.344-28.678-8.129-37.717-19.167C281.33,642.625,275.306,631.763,281.387,623.729
		L281.387,623.729z"/>
	<path fill-rule="evenodd" clip-rule="evenodd" d="M300.555,137.741c-1.266-2.682-2.657-4.35-2.474-8.038
		c1.61-0.616,3.719-0.132,5.564,0.619c0.57-2.489,1.499-5.065,4.452-6.802c-1.225,4.37-2.193,9.577-1.063,13.375
		c-1.498,1.526-2.532,4.375-2.151,7.647c-13.462-3.644-22.644,8.977-24.114,19.167C277.767,150.846,288.301,139.369,300.555,137.741
		L300.555,137.741z"/>
	<path fill-rule="evenodd" clip-rule="evenodd" d="M282.624,99.407c7.135-0.915,12.121,2.373,18.549,3.091
		c13.256,1.483,25.266-4.751,37.716-6.801c15.76-2.595,32.79,4.982,43.282-6.802c2.514,7.579-15.116,9.774-19.208,10.091
		c-0.562,1.504-0.864,3.405-0.486,5.375c2.141,5.477,0.039,11.699-0.893,14.097c-0.011,3.05,0.099,5.49-0.436,8.155
		c-1.903-1.722-2.552-2.303-4.946-2.473c0.293-1.388,1.48-1.531,3.709-2.303c0.315-0.954-0.275-4.176-0.598-4.649
		c-1.327,0.421-5.087,0.263-7.44-0.468c0.566-1.854,3.525-1.51,6.943-3.534c0.658,0.704,1.636,0.942,2.332,1.061
		c0.944-1.126,0.944-5.057,0-6.184c-3.763-2.597-10.113-0.733-13.603,0.619c-0.262-2.116,1.852-1.858,2.474-3.092
		c-1.953-1.328-8.878,0.269-10.994,2.251c-1.646-2.292,4.146-4.544,4.811-6.579c3.247,1.664,7.655,1.218,11.747,0.618
		c-6.815-7.72-21.694-2.632-30.297,0c-0.064,2.693,0.004,5.601,0.618,8.657c-13.89-5.437-11.315,15.119-2.473,17.93
		c-2.656,2.639-1.222,6.316,0,9.274c-14.408-7.504-5.612,22.366-22.877,19.168c8.594-1.501,7.109-5.32,9.274-13.603
		c0.551-2.108,1.733-6.277,3.092-8.657c1.259-2.206,3.054-3.98,4.617-4.61c0.396-0.822,0.372-2.083,0.504-2.905
		c-0.9-1.194-1.433-1.793-2.647-4.851c-0.68,1.136-0.446,2.539-1.17,4.741c-1.222-3.106-1.732-8.021-2.541-11.542
		c-8.287-0.931-22.82-6.033-29.679-13.603C281.515,99.946,282.187,99.671,282.624,99.407L282.624,99.407z"/>
	<path fill-rule="evenodd" clip-rule="evenodd" d="M285.715,93.842c1.641-3.802,5.515-8.599,9.893-9.893
		c2.886-0.853,6.056,0.493,9.274,0c13.673-2.095,29.011-17.05,48.228-11.748c2.877,0.794,5.894,2.203,9.274,3.092
		c2.393,0.629,6.915,0.262,8.038,3.71c-14.027,0.969-19.478-5.167-30.915-3.71c-14.432,1.837-25.778,14.931-38.953,15.457
		C294.448,90.995,290.214,88.603,285.715,93.842L285.715,93.842z"/>
	<path fill-rule="evenodd" clip-rule="evenodd" d="M292.517,158.764c11.492-3.127,12.655,14.461,19.167,20.404
		c-6.013,1.126-7.822-8.214-11.748-13.603C297.748,162.562,295.464,160.645,292.517,158.764L292.517,158.764z"/>
	<path fill-rule="evenodd" clip-rule="evenodd" d="M298.081,250.273c13.035-6.751,31.562-8.01,43.899-15.458
		c-0.481,2.427-1.585,5.646-1.236,9.274C326.238,245.466,310.291,248.658,298.081,250.273L298.081,250.273z"/>
	<path fill-rule="evenodd" clip-rule="evenodd" d="M307.356,268.204c11.188-6.947,22.708-13.565,34.005-20.404
		c-0.087,3.473,0.793,8.334,1.238,12.984c-2.896-0.776-1.266-4.624-3.711-5.564C333.021,252.963,313.558,269.004,307.356,268.204
		L307.356,268.204z"/>
	<path fill-rule="evenodd" clip-rule="evenodd" d="M319.104,185.351c8.324-5.117,17.615-12.416,16.075-25.351
		c4.74,1.372,7.844,6.354,10.512,9.893c2.837,3.763,5.11,8.313,6.802,12.984c7.642-2.457,11.648-8.55,12.984-17.312
		c4.061,4.833,0.691,10.251,1.854,16.076c1.187,5.938,10.657,11.101,3.092,16.694c0.485-2.546-0.949-3.172-0.619-5.564
		c-1.737-0.735-3.555-1.391-5.563-1.855c-0.362-2.701-1.196-4.291-1.855-6.183c-2.948,3.564-7.795,6.766-12.53,8.16
		c0.264,1.235-0.766,4.629-1.69,5.443c-0.689-6.177-2.814-7.914,0.857-12.722c-0.333-2.062-0.477-4.56-2.095-6.445
		c-2.285,0.188-2.318,2.628-3.709,3.71c-0.946-4.413-1.937-8.781-6.183-9.893C331.711,178.155,330.173,187.612,319.104,185.351
		L319.104,185.351z"/>
	<path fill-rule="evenodd" clip-rule="evenodd" d="M319.104,114.246c1.426-1.435,1.994,1.144,4.328,0.618c0,2.267,0,4.534,0,6.801
		c-1.489,0.253-1.344-1.129-3.091-0.618C323.098,118.858,320.378,115.987,319.104,114.246L319.104,114.246z"/>
	<path fill-rule="evenodd" clip-rule="evenodd" d="M325.904,146.398c-0.1-0.719,0.137-1.101,0.619-1.237
		c10.346,3.011,13.229,13.021,25.35,12.984C345.099,167.175,331.49,148.634,325.904,146.398L325.904,146.398z"/>
	<path fill-rule="evenodd" clip-rule="evenodd" d="M327.76,127.23c5.435,4.145,14.415,10.901,24.113,9.274
		c2.938-0.493,5.193-1.212,7.421-2.473c0.407,5.101-7.384,4.346-8.657,8.038c-1.566,4.543,0.585,8.039,2.474,11.129
		c-14.912-1.782-18.382-15.007-27.206-22.877C326.965,129.154,327.591,128.131,327.76,127.23L327.76,127.23z"/>
	<path fill-rule="evenodd" clip-rule="evenodd" d="M361.148,427.109c-3.81,4.396-10.39-1.457-12.984-3.711
		c-8.404-7.303-15.573-20.474-19.785-30.915c-0.228-1.052,0.481-1.167,1.236-1.237C335.276,408.05,346.633,419.159,361.148,427.109
		L361.148,427.109z"/>
	<path fill-rule="evenodd" clip-rule="evenodd" d="M328.996,114.246c0.465-3.985,0.579-6.415,0.534-8.58
		c2.04-1.363,4.829-3.357,6.886-5.023C334.952,103.055,331.072,108.968,328.996,114.246L328.996,114.246z"/>
	<path fill-rule="evenodd" clip-rule="evenodd" d="M337.035,127.849c1.134-4.604,3.267-10.211,3.091-14.221
		c3.127,0.903,4.678-1.814,6.184-0.619C342.774,117.513,340.615,123.391,337.035,127.849L337.035,127.849z"/>
	<path fill-rule="evenodd" clip-rule="evenodd" d="M338.271,370.843c6.24,18.493,13.648,35.817,30.297,43.899
		c-5.48,9.967-19.016-9.879-22.258-15.458C340.721,389.671,336.874,380.175,338.271,370.843L338.271,370.843z"/>
	<path fill-rule="evenodd" clip-rule="evenodd" d="M344.454,331.271c-1.896-7.293,11.524-5.479,16.694-3.71
		c22.034,7.542,35.979,36.942,37.717,60.594C389.121,360.801,380.247,332.576,344.454,331.271L344.454,331.271z"/>
	<path fill-rule="evenodd" clip-rule="evenodd" d="M348.164,218.122c-2.953-5.457,7.337-6.167,6.183-0.619
		C353.832,219.981,349.658,220.882,348.164,218.122L348.164,218.122z"/>
	<path fill-rule="evenodd" clip-rule="evenodd" d="M349.4,167.42c4.553-1.845,7.305-8.2,3.71-12.984
		c6.363,2.075,7.671,11.849,6.801,19.168c-0.714-1.603-0.825-3.296-1.854-4.329c-1.436,1.509-2.018,5.403-4.947,6.184
		c0.913-2.385,1.923-4.672,1.854-8.039C353.488,168.184,351.451,168.546,349.4,167.42L349.4,167.42z"/>
	<path fill-rule="evenodd" clip-rule="evenodd" d="M349.4,67.874c-0.101-0.719,0.137-1.1,0.619-1.237
		c17.284-3.254,23.914,9.462,32.77,16.694c-1.55,1.631-2.591,1.452-4.558,0.881c-0.706-2.512-2.828-5.543-4.099-7.065
		C368.794,70.758,359.444,66.722,349.4,67.874L349.4,67.874z"/>
	<path fill-rule="evenodd" clip-rule="evenodd" d="M351.873,471.008c4.63-1.967,10.361-2.828,12.985-6.801
		c2.939,22.572,33.851,25.329,58.739,25.969c-2.125,1.379-4.605,2.403-8.038,2.474c2.216,5.856,11.243,10.164,16.075,15.457
		c1.58-0.069,1.228-2.07,1.236-3.71c11.691,8.094,15.356,24.216,22.878,36.479c-9.127-11.966-18.051-22.349-29.061-32.77
		c-2.802-2.652-5.652-6.582-8.656-8.657c-9.126-6.301-23.353-8.043-34.625-11.746C371.535,483.801,360.739,475.636,351.873,471.008
		L351.873,471.008z"/>
	<path fill-rule="evenodd" clip-rule="evenodd" d="M370.423,393.72c7.997,17.824,43.096,12.181,38.335-11.13
		c4.941,3.563,5.108,15.5,4.328,23.496c-0.772,7.906-4.351,17.166-9.274,17.312c0.617-2.68,2.655-3.94,2.473-7.42
		c-8.715,2.821-23.122-5.166-30.915-11.129C371.867,402.169,369.02,398.785,370.423,393.72L370.423,393.72z"/>
	<path fill-rule="evenodd" clip-rule="evenodd" d="M376.605,271.295c1.018-7.021,4.855-11.219,7.419-16.694
		c0.543-1.985-1.602-1.282-1.854-2.474c6.821-5.75,10.749-14.395,15.458-22.259c-0.004-2.263-3.628-0.907-3.093-3.709
		c11.816-3.642,18.101-12.814,25.969-20.404c-1.221-2.207-3.474,0.462-4.945-1.236c7.588-4.779,18.244-6.488,22.877-14.221
		c-1.584-0.979-4.894,0.59-8.039,0c14.496-5.497,23.573-16.413,37.718-22.259c-2.217,5.505-7.67,6.448-11.748,9.275
		c-7.105,4.925-11.303,11.985-17.312,17.931c-5.176,5.119-11.604,8.526-16.694,13.603
		C404.381,226.779,393.112,249.989,376.605,271.295L376.605,271.295z"/>
	<path fill-rule="evenodd" clip-rule="evenodd" d="M384.024,218.74c0.456,4.489,4.443,23.908-2.473,27.824
		C385.679,236.931,377.699,225.297,384.024,218.74L384.024,218.74z"/>
	<path fill-rule="evenodd" clip-rule="evenodd" d="M393.919,281.807c31.186,8.489,76.858,7.271,113.149,0.618
		c-5.752,5.25-24.095,6.877-29.679,7.419c-8.074,21.423-20.264,47.141-15.457,75.434c-5.021,6.13-10.129,15.087-13.403,23.55
		c-0.625,4.267-0.026,8.631,1.036,13.548c-6.874-1.911-7.602-10.257-10.51-15.458c-3.388-4.254-7.843-10.395-9.275-16.694
		c-2.379,1.95-1.805,6.852-3.71,9.274c-13.128,1.384-16.128-15.44-16.076-27.206c3.445,7.479,3.716,18.131,10.511,22.259
		c9.001-22.533,5.731-57.336,11.13-83.472c-17.044-6.998-28.661,3.706-36.479,12.985c0.795-6.421,6.998-12.785,11.748-17.313
		C403.091,284.588,397.744,283.958,393.919,281.807L393.919,281.807z M437.818,370.225c0.906-10.838,2.017-19.887,3.71-29.679
		c2.829-16.367,9.286-28.745,4.327-46.373C437.525,315.564,426.082,346.351,437.818,370.225L437.818,370.225z"/>
	<path fill-rule="evenodd" clip-rule="evenodd" d="M423.598,444.421c1.618,5.673,1.388,12.419-1.236,16.694
		c7.892-3.857,9.292-19.561,12.365-30.297c2.675,3.868,1.117,9.608,3.092,14.222c3.938,9.199,22.518,17.247,23.495,2.473
		c0.474-7.155-4.998-11.053-6.184-16.076c3.944,2.857,6.59,7.014,10.512,9.894c7.33-9.792-3.656-20.468-3.709-28.442
		c4.117,1.653,3.277,8.264,7.419,9.893c0.568-5.721-0.905-9.399-1.236-14.222c5.263-0.521,14.795-0.518,17.313,3.71
		c2.646-11.18-6.014-19.48-8.039-25.968c4.959,0.718,13.054,19.995,12.985,24.732c-0.062,4.121-2.255,9.524-4.329,16.077
		c0.931,5.308,1.366,10.691,0.619,14.838c-1.288,7.15-8.416,13.834-3.093,20.404c-6.756-2.65-15.173-12.05-21.64-2.474
		c-0.819,1.213-0.009,3.7-0.619,4.946c-3.557,7.265-15.857,9.441-25.351,11.748c4.121,4.059,25.573,20.207,22.877,4.946
		c14.499,2.403,27.812,5.989,38.336,12.367c-4.342-8.231-19.229-11.272-29.061-16.077c8.314-0.581,17.628,2.903,24.732,5.565
		c-2.426-5.204-13.106-7.501-18.55-11.748c11.38,2.636,20.198,7.832,28.442,13.603c-3.928,21.771,8.665,48.373-2.474,66.778
		c-2.484,4.104-8.799,9.366-8.656,12.984c0.329,8.323,20.088,14.328,21.641,1.236c1.617-13.617,6.354-35.577,1.855-48.229
		c2.969,0.33,2.584,4.012,5.564,4.329c6.504-5.086,6.767-18.383,3.71-27.206c2.571,1.072,2.331,2.615,4.946,2.474
		c3.961-0.714,4.251-6.503,3.092-10.512c3.209,2.503,1.906,5.419,1.855,7.42c-0.235,9.053-6.593,19.983-10.512,31.533
		c-3.947,11.634-6.574,24.1-7.42,34.625c-0.368,4.57,1.204,11.182,0,14.222c-1.58,3.989-8.786,5.987-10.511,9.113
		c1.331,4.001,2.74,9.921,2.294,14.103c-1.726,3.128-3.413,4.405-6.004,5.844c1.118,4.575,3.357,11.089,3.2,18.872
		c-11.244,3.062-25.27,1.616-38.443-0.941c13.764-3.742,22.63-2.448,32.771-1.236c2.935-4.947,0.812-12.9-0.619-18.549
		c8.366-14.355-14.332-18.548-14.839-31.534c2.322,2.213,3.164,5.081,6.801,5.565c0.743-3.688-2.867-8.66-2.474-12.367
		c0.47-4.414,6.856-8.711,9.275-14.22c4.473-10.186,5.662-27.962,2.473-41.427c-10.193,3.409-19.211,7.993-32.77,8.037
		c2.748,10.404,6.923,22.011,12.366,31.534c1.624,2.842,5.266,6.52,5.565,8.656c0.59,4.218-2.816,9.508-4.948,13.604
		c4.897-16.261-5.13-24.949-11.129-37.1c-4.061-8.223-8.675-16.956-10.512-24.113c-1.054-4.111-0.428-9.418-1.854-12.366
		c-2.289-4.727-18.826-14.107-24.114-17.312c-7.517-4.556-23.531-13.689-31.533-14.839c8.434-12.948,14.914-33.518,15.458-53.175
		c3.517,1.314,2.139,6.574,1.854,9.275c-1.466,13.947-5.938,31.032-11.747,39.57c-0.278,0.409-0.511,1.827-0.619,0.619
		c0.219,2.456,5.026,2.309,8.656,0C420.35,457.057,421.653,449.609,423.598,444.421L423.598,444.421z"/>
	<path fill-rule="evenodd" clip-rule="evenodd" d="M458.84,570.555c3.613,1.06,3.089-4.345,5.565-2.473
		c0.673,3.158-1.577,8.046,0,12.366c-4.109-1.456-4.976-6.154-9.893-6.801c1.409-19.753-7.392-29.296-13.604-41.427
		c-0.228-1.052,0.483-1.167,1.236-1.237c3.854,9.67,11.223,16.061,14.222,25.97C457.66,561.223,455.508,567.357,458.84,570.555
		L458.84,570.555z"/>
	<path fill-rule="evenodd" clip-rule="evenodd" d="M463.169,586.632c-1.129,4.021-1.354,6.477-1.855,9.892
		c5.132-3.606,28.247-7.521,35.862,1.237c-12.154-3.419-27.663-5.336-34.586,1.999c-1.776,5.434-1.946,10.112-2.513,18.404
		c-3.337-6.565-1.627-13.961-0.852-17.564C458.385,594.607,459.974,591.178,463.169,586.632L463.169,586.632z"/>
	<path fill-rule="evenodd" clip-rule="evenodd" d="M458.84,391.865c5.285-2.937,4.818-11.768,4.329-17.312
		c3.882,4.4,3.642,16.091,4.328,21.64C464.087,395.274,463.23,391.804,458.84,391.865L458.84,391.865z"/>
	<path fill-rule="evenodd" clip-rule="evenodd" d="M469.971,176.077c2.004-12.629,3.947-25.319,11.129-32.77
		c-0.726,5.224-4.122,9.566-4.946,14.839c-0.336,2.15,0.616,4.764,0,6.801C474.912,169.048,470.773,172.215,469.971,176.077
		L469.971,176.077z"/>
	<path fill-rule="evenodd" clip-rule="evenodd" d="M476.771,467.298c-0.1-0.718,0.138-1.1,0.619-1.236
		c15.235,4.138,43.755-5.009,46.991,11.13c-5.426-2.252-7.942-6.366-15.458-7.421C498.796,468.352,484.243,473.693,476.771,467.298
		L476.771,467.298z"/>
	<path fill-rule="evenodd" clip-rule="evenodd" d="M478.626,171.13c3.578-18.27,6.302-37.392,19.168-46.373
		c-1.388,6.123-0.428,14.151,1.236,19.168c-4.443,4.018-11.74,10.604-6.908,18.314c-1.091,0.353-1.802,1.211-2.984,1.471
		c1.95,4.491,6.768,6.766,12.365,4.328c-0.206,3.755-5.84,4.594-1.854,7.42c4.326-1.65,7.856-4.097,9.893-8.039
		c3.546,3.485-2.178,8.022-5.202,9.275c4.908-0.45,8.583-2.39,11.385-4.946c-3.016,9.022-21.763,15.116-27.823,4.946
		c1.938-1.36,4.121-2.473,5.563-4.328c-1.12-3.413-4.381-4.687-6.8-6.802c-3.088,0.455-3.603,3.483-4.998,5.773
		C481.038,171.7,479.68,171.191,478.626,171.13L478.626,171.13z"/>
	<path fill-rule="evenodd" clip-rule="evenodd" d="M489.756,198.954c1.753-2.163,7.082-0.75,6.801-4.947
		c9.894,1.444,15.864,6.808,18.55,15.458c-3.298-1.895-3.405-5.804-7.421-6.183c-2.093-0.197-3.365,2.864-5.216,3.214
		C497.055,205.206,495.403,201.169,489.756,198.954L489.756,198.954z"/>
	<path fill-rule="evenodd" clip-rule="evenodd" d="M496.557,212.557c1.85,0.256,5.206-0.516,5.688-0.651
		c7.172,7.841,11.542,12.316,18.426,19.2c5.271,5.934,10.998,10.556,16.694,17.932C522.167,238.474,511.319,223.558,496.557,212.557
		L496.557,212.557z"/>
	<path fill-rule="evenodd" clip-rule="evenodd" d="M498.413,223.687c8.745,11.112,15.923,23.248,25.968,33.388
		c3.136,3.166,8.092,5.625,9.274,10.512c-1.188,0.51-1.494,0.727-2.473,1.195c-5.863-8.14-23.135-25.375-33.389-35.82
		C496.746,231.893,498.33,225.949,498.413,223.687L498.413,223.687z"/>
	<path fill-rule="evenodd" clip-rule="evenodd" d="M513.87,160.619c2.002-4.593,3.946-9.244,6.801-12.985
		c-0.479,3.733-4.379,9.623-1.236,15.458C517.067,161.885,515.994,161.175,513.87,160.619L513.87,160.619z"/>
	<path fill-rule="evenodd" clip-rule="evenodd" d="M515.106,281.188c0.579-5.418,4.701-2.994,9.274-3.092
		c4.473-0.095,6.097-3.268,9.894-3.71c3.479,2.654,9.92,12.74,18.124,18.484c2.456-1.981,4.592-3.262,5.989-6.736
		c1.194-4.621-0.5-10.49,1.236-14.839c3.064-0.439,2.977-4.031,3.71-6.801c3.379,2.185,2.989,8.14,3.092,13.602
		c7.229-5.592,2.75-19.055,1.236-25.35c9.758,11.247,5.149,27.359,1.854,42.044c-2.573,1.755-5.793,2.864-6.801,6.183
		c-4.505-0.795-6.565,0.854-8.038,3.092c-4.602-0.14-8.485-0.995-13.603-0.619C535.983,292.463,526.27,286.101,515.106,281.188
		L515.106,281.188z M547.259,291.7c-4.942-3.507-8.601-8.301-14.222-11.129c-0.033-0.65-0.792-0.486-0.618,0.618
		C534.322,287.207,539.28,295.762,547.259,291.7L547.259,291.7z"/>
	<path fill-rule="evenodd" clip-rule="evenodd" d="M524.381,273.769c-4.901,2.007-6.363-3.704-3.931-5.498
		C523.271,266.19,528.983,270.383,524.381,273.769L524.381,273.769z"/>
	<path fill-rule="evenodd" clip-rule="evenodd" d="M521.907,199.995c5.859,1.081,6.781,7.865,9.275,11.943
		c7.529,12.319,18.126,23.955,24.732,37.717c-3.172-2.848-5.936-7.252-8.656-11.13c-5.4-7.693-10.92-13.743-17.313-22.259
		C526.189,211.264,520.458,206.915,521.907,199.995L521.907,199.995z"/>
	<path fill-rule="evenodd" clip-rule="evenodd" d="M531.801,127.23c9.102,5.977,9.873,33.024-2.474,35.862
		c-1.265,5.034-1.72,11.22,0,16.076c-4.83-4.216-8.664-12.474-8.038-19.167c0.157-1.69,1.687-2.203,2.474-4.328
		c0.984-2.655,1.123-6.062,1.236-8.038c1.271-0.401,3.002-1.909,3.71-3.091C531.815,139.355,530.669,132.115,531.801,127.23
		L531.801,127.23z"/>
	<path fill-rule="evenodd" clip-rule="evenodd" d="M538.602,188.443c6.011-0.851,11.193,6.394,17.411,7.394
		c-3.146,0.802-6.758,0.992-9.99,1.262C545.626,192.136,541.835,190.569,538.602,188.443L538.602,188.443z"/>
	<path fill-rule="evenodd" clip-rule="evenodd" d="M556.532,271.914c-3.226-2.369-8.037,0.647-9.893-3.091
		c-1.658,2.711-0.157,7.559,0.619,9.893c-7.009-0.382-7.091-20.721-1.236-22.877C553.298,253.157,560.735,263.41,556.532,271.914
		L556.532,271.914z"/>
	<path fill-rule="evenodd" clip-rule="evenodd" d="M549.113,202.045c2.832-0.671,6.054-0.952,9.274-1.236
		c-2.711,8.121-2.941,22.075-1.855,30.297C552.95,222.529,553.299,210.019,549.113,202.045L549.113,202.045z"/>
	<path fill-rule="evenodd" clip-rule="evenodd" d="M573.227,256.457c3.333,2.025,4.518,6.2,8.038,8.038
		c-0.341,1.702-1.56,4.042-3.709,4.946c0.549-4.517-1.848-6.384-3.596-8.159C573.893,259.842,573.576,258.059,573.227,256.457
		L573.227,256.457z"/>
	<path fill-rule="evenodd" clip-rule="evenodd" d="M89.094,537.785c0.924-9.588,2.182-18.84,6.183-25.352
		c-0.425,6.782-4.535,20.902,0,27.206c-0.309-18.884,5.035-37.401,16.076-46.99c-5.191,9.973-14.008,24.577-10.512,43.28
		c1.551-19.292,7.643-33.966,17.932-43.899c1.405,6.593-3.855,13.233-4.328,22.259c-0.579,11.031,3.023,23.809,8.038,33.389
		c3.663,6.997,9.645,16.315,13.603,17.931c12.951,5.286,18.696-11.615,20.404-23.496c0.943-6.562-0.74-14.028,3.091-18.548
		c-1.678,16.88,2.84,51.134-20.404,48.227c-1.505,2.824,0.119,8.775-1.236,11.748c-3.908-5.366-5.961-12.587-9.893-17.931
		c-5.371,7.023-14.284,22.599-24.367,23.496c-2.447,3.482-3.801,6.506-6.548,9.275c-6.819,6.873-19.604,18.712-34.007,17.312
		c-6.131-0.597-13.466-6.252-19.786-8.656c2.575-2.375,3.929,0.444,7.419,0c11.076-1.41,20.093-15.809,23.496-26.587
		c3.091-9.789,6.141-25.389,6.183-35.862c0.055-13.643-0.805-27.57,6.183-35.861c-1.591,4.262-1.925,8.206-2.474,13.604
		c-0.651,6.407,0.982,12.806,2.474,17.931c-4.296-19.594,6.143-39.956,15.457-45.755C95.121,503.981,86.891,517.126,89.094,537.785
		L89.094,537.785z"/>
	<path fill-rule="evenodd" clip-rule="evenodd" d="M371.659,459.261c-1.359-5.087,5.315-5.914,6.183-9.894
		c1.841-8.43-5.787-9.529-10.511-14.222c1.744-1.142,5.785,0.016,7.42-1.236c1.775-1.522,0.863-5.731,2.474-7.419
		c2.533,4.267,3.729,9.873,9.273,11.129c-4.205,7.719-2.193,17.542,4.329,21.022c-3.619-0.054-7.465-4.835-11.748-4.329
		C375.4,454.75,374.175,456.283,371.659,459.261L371.659,459.261z"/>
	<path fill-rule="evenodd" clip-rule="evenodd" d="M152.161,402.995c1.535-4.207,2.794-10.687,1.237-16.076
		C162.208,389.134,157.586,400.014,152.161,402.995L152.161,402.995z"/>
	<path fill-rule="evenodd" clip-rule="evenodd" d="M161.436,399.284c0.257-2.632,1.292,0.194,2.473,0
		c3.566-0.587,7.465-6.395,9.275-9.892c2.634,2.146,5.866,4.574,5.564,7.419c-0.119,1.13-11.539,12.947-12.983,12.365
		C166.817,405.453,164.124,401.216,161.436,399.284L161.436,399.284z"/>
	<path fill-rule="evenodd" clip-rule="evenodd" d="M144.123,588.485c0.327-0.497,0.646-1.004,0.618-1.854
		c14.885,0.016,26.202-8.673,33.389-19.786c2.658-4.11,6.442-12.765,6.802-17.312c0.354-4.49-2.122-8.801-1.855-12.984
		c0.703-11.007,12.215-21.98,17.312-29.679c-10.008-11.963-13.16-28.186-21.022-42.046c-1.204-2.121-3.158-3.446-4.328-5.563
		c-3.401-6.153-3.054-15.205-8.038-19.786c2.51-3.672,2.35-10.016,3.091-15.458c6.99,14.039,5.13,31.755,14.221,42.663
		c8.044,9.652,19.902,13.334,35.861,15.458c1.976-6.269,2.585-13.903,7.42-17.313c-1.216,5.062-3.922,10.45-3.092,17.931
		c-2.941,1.595-6.883,2.186-11.747,1.855c5.86,9.707,19.325-2.12,23.495-3.709c0.44,6.136-10.652,9.151-14.839,10.511
		c-1.241,4.107-1.889,8.395-3.092,14.839c3.541,1.671,9.212,0.711,12.366-0.617c-0.276-1.198,0.094-2.58,0-4.329
		c5.692-0.541,11.999-1.311,17.931-3.092c-1.588-1.989-3.194-4.261-1.237-6.183c5.556,12.479,17.18-3.791,30.297-3.71
		c-0.1-3.07-2.42-6.713-4.182-7.368c-1.201-4.724-3.646-9.887-6.766-11.652c1.414-7.656,3.762-14.157,3.527-23.024
		c-2.554,4.393-3.544,11.441-6.183,17.932c-0.146-27.77,13.875-46.715,20.404-69.869c-10.578,16.009-20.589,39.754-26.253,62.737
		c0.396,0.303,1.12,0.692,1.521,1.566c-1.467,1.832-2.275,4.321-2.473,7.42c-4.635,0.476-7.084,4.076-9.275,6.184
		c-4.196,0.824-8.629-3.401-13.603-4.329c1.923-2.835,8.92,1.756,12.366-0.618c-2.273-1.07-5.42-2.509-8.038-3.71
		c3.242-3.456,11.261,1.479,14.221-2.473c-0.484-3.845-6.751-3.764-9.274-3.71c1.636-2.485,7.414-1.732,10.463-1.427
		c1.391-4.109,3.532-9.924,5.612-15.886c1.72-4.928,5.324-12.253,4.946-15.458c-0.671-5.688-8.001-8.805-14.839-10.511
		c5.688-3.08,13.222,1.784,16.076,5.564c5.12-14.253,15.807-22.939,18.549-39.571c-5.275-0.496-9.668-1.873-11.748-5.565
		c4.811-0.452,11.429,0.216,14.221-3.71c-1.948-2.173-6.68-1.564-6.801-5.564c17.564,6.028,27.09-18.776,15.458-29.679
		c1.954-0.659,5.7-0.132,8.038,0.619c3.293,21.812-5.121,36.797-10.511,51.938c10.883-7.498,20.481-24.811,21.022-42.664
		c2.122-1.188,5.828,0.537,8.656,0.619c4.41-3.47,1.035-10.057-3.092-7.42c0.731-3.155,5.409-4.019,8.038-6.183
		c6.737-5.547,12.557-14.103,12.366-24.114c-4.992-1.075-6.206,0.469-9.274,2.474c0.653-5.686,8.675-6.65,13.336-7.42
		c1.35-2.749,2.09-4.033,4.595-6.801c6.155-6.806,16.814-11.939,21.641-18.55c-0.145-2.328-2.328-2.618-2.473-4.946
		c2.203,1.095,5.631,0.963,8.038,1.855c-5.273,9.531-15.607,13.294-22.26,21.641c-6.146,7.711-9.584,17.828-14.84,26.586
		c-5.299,8.833-11.386,16.981-13.603,27.206c-3.66,0.049-6.062-0.595-9.274,0c-1.086,11.374-5.03,21.738-9.893,30.297
		c-5.248,9.236-16.117,14.848-19.167,25.968c-1.881,6.86-3.104,17.552-3.091,25.351c0.015,8.762,0.903,16.086,4.946,22.258
		c0.737,1.125,3.924,6.356,5.565,6.803c4.334-1.217,6.24-1.979,9.893-3.091c-4.125-19.639-1.605-40.826,1.855-59.977
		c-2.208,21.838-1.605,45.477,4.328,64.304c2.753,8.734,8.231,15.108,11.13,22.259c4.132,10.193,2.456,22.933,12.365,25.97
		c4.938,1.512,9.98-0.785,14.222-2.474c-2.768-4.148-11.047-7.995-16.076-12.984c-3.308-3.282-9.105-8.384-4.328-13.604
		c2.891,1.444-0.155,2.682,0.619,4.946c2.604,7.626,15.296,10.417,24.731,12.367c-0.013-3.395-5.9-5.974-6.184-11.129
		c11.539,10.043,28.059,15.758,48.229,17.312c5.587,0.431,13.149-0.285,18.856-1.081c2.264,3.442,6.558,7.438,10.204,9.737
		c3.465,2.185,6.703,1.576,8.038,4.947c-5.583,2.445-10.588-4.897-16.077-5.565c-5.865-0.714-15.642,3.666-23.494,4.327
		c-7.527,2.249-12.929,2.189-19.786,3.093c-5.665,0.746-11.613-0.325-16.077,0.618c-4.109,0.868-6.971,4.4-10.51,6.184
		c-9.132,4.598-18.661,6.427-27.206,8.655c-3.061,30.418-8.178,53.958-22.877,74.196c1.432-10.324,7.473-21.808,6.183-35.242
		c-5.017,11.882-10.455,23.345-17.312,33.388c1.191-7.262,3.336-18.922,2.474-30.297c-4.696,8.531-8.178,18.114-12.984,26.587
		c-4.632,8.165-9.123,17.106-17.312,21.641c4.124-15.469-1.675-29.479-7.42-38.953c-16.483-2.374-27.002-6.514-41.427-14.221
		c-3.139-1.677-6.78-4.98-8.656-4.946c-4.599,0.084-15.277,11.23-17.931,14.84c-11.113,15.109-14.643,43.493-21.023,64.304
		c-3.899-2.541-0.959-7.133-0.618-11.13c1.09-12.788-0.758-28.517-3.709-38.335c4.479-0.151,6.089,2.567,8.656,4.328
		c1.735-5.479,2.9-11.527,4.329-17.312C164.629,587.305,152.633,594.948,144.123,588.485L144.123,588.485z"/>
	<path fill-rule="evenodd" clip-rule="evenodd" d="M466.261,193.389c-0.004,11.944-9.379,16.913-16.076,25.969
		c-12.916,17.463-22.682,36.705-31.534,58.12c-1.725-0.542-3.054-1.48-4.946-1.855c10.206-22.733,21.992-45.478,37.099-64.303
		C455.706,205.208,460.188,198.516,466.261,193.389L466.261,193.389z"/>
	<path fill-rule="evenodd" clip-rule="evenodd" d="M463.786,212.557c1.415,7.054-8.265,21.722-1.236,30.915
		c-0.709-15.529,10.3-25.307,6.802-39.571c4.255-2.96,4.974-9.454,7.419-14.221c2.714,17.937-18.8,44.624-8.655,64.922
		c3.272,6.549,15.578,14.816,21.346,13.374c1.987-3.276,2.896-6.942,5.993-10.054c1.929,0.962,3.682,1.108,7.664,0.549
		c3.784,3.063,6.827,6.098,10.133,9.734c-2.413,2.763-3.155,3.633-6.166,5.951c-6.623,2.096-16.675-0.126-22.275-2.241
		c-2.016,1.694-3.272,4.149-4.329,6.802c-12.924,1.786-32.382,3.374-45.754,0.618C441.989,254.65,454.252,234.968,463.786,212.557
		L463.786,212.557z"/>
	<path fill-rule="evenodd" clip-rule="evenodd" fill="#92352F" d="M92.804,224.923c1.795-19.639,12.234-32.609,16.445-49.833
		c1.414,5.203,2.202,7.869,2.827,12.021c-8.434,9.955-15.189,28.304-16.181,32.248c-1.288,5.125-1.045,10.479-1.239,14.964
		c-3.919,1.866-6.567,3.804-10.509,6.058c-2.812,2.241-3.989,4.193-6.183,5.564c-3.802,0.888-7.549,1.969-11.748,3.092
		c-6.64,2.574-11.561,7.156-17.931,8.037c-0.705-2.971-3.346-7.074-4.328-9.893c8.697-5.443,16.777-6.027,24.114-6.183
		C78.589,237.793,80.812,226.516,92.804,224.923L92.804,224.923z M94.659,339.927c5.953-3.469,10.083-6.252,13.603-12.366
		c1.798-3.125,1.721-7.361,3.71-10.511c1.737-2.752,7.161-5.056,10.511-8.038c9.207-8.196,17.983-19.088,25.968-28.442
		c11.713-13.719,22.514-25.997,28.442-44.518c-8.797-4.73-0.874-15.681,5.565-22.259c11.609-11.86,32.397-24.917,45.754-33.388
		c1.354,3.941,2.284,6.271,3.71,10.511c-19.683,7.729-44.256,19.462-50.083,32.152c1.855,1.648,2.713,4.294,4.328,6.183
		c-2.315,11.227-7.559,20.643-12.366,29.679c-4.756,8.94-9.147,18.67-15.458,26.588c-5.149,6.46-11.684,12.417-17.312,18.549
		c-5.837,6.357-13.516,10.901-18.549,17.312c-5.688,7.244-8.841,16.284-16.694,21.641
		C102.356,341.711,97.722,341.605,94.659,339.927L94.659,339.927z M215.847,133.414c0.994,5.342,1.399,6.659,2.285,11.874
		c-12.144,4.341-22.622,12.791-30.727,21.515c-2.42,2.605-4.604,6.644-8.657,7.42c1.731-4.983-1.932-9.32-1.236-13.603
		C186.951,144.209,204.372,137.656,215.847,133.414L215.847,133.414z M171.947,205.137c-0.143,5.261,1.569,9.1,0.619,13.603
		c-3.181,3.037-9.773,9.137-12.366,13.603c-8.514,14.665-14.019,31.317-24.113,45.136c-7.383,10.107-15.693,18.262-24.733,27.206
		c-4.726,4.676-9.403,7.57-11.129,14.839c-5.367,2.877-10.999,5.489-15.458,9.274c-2.167-2.162-6.622-3.146-8.038-6.059
		c9.129-4.146,15.608-6.522,22.719-12.746c18.173-15.905,32.28-40.545,44.676-62.812
		C152.55,232.046,159.135,215.968,171.947,205.137L171.947,205.137z M35.301,225.541c8.86-2.759,19.276-6.61,28.442-11.129
		c7.876-3.883,19.919-10.063,23.936-17.842c2.568-17.175,9.342-34.361,16.254-50.171c0.845,4.447,1.6,10.991,2.296,14.487
		c-5.259,12.1-11.898,23.139-14.662,36.213c-0.922,4.361-1.623,9.574-2.637,15.41c-0.475-1.435-1.008-2.614-1.367-4.194
		c-1.964,3.345-5.662,6.548-8.362,8.57c-9.146,6.848-27.314,15.472-40.808,17.931C39.22,229.866,36.003,228.961,35.301,225.541
		L35.301,225.541z M221.345,159.323c0.884,3.692,2.396,7.496,3.091,11.748c-18.011,5.485-33.066,17.627-45.07,29.12
		c-0.25-3.183-0.124-8.13,0.922-14.44C195.288,169.781,203.742,165.839,221.345,159.323L221.345,159.323z M173.802,171.13
		c0.369,8.529-1.616,13.785-0.618,22.259c-18.103,11.246-31.45,26.2-39.572,49.464c-1.332,3.816-6.433,8.88-8.656,12.985
		c-2.355,4.349-3.251,9.292-5.564,13.603c-2.353,4.382-8.153,10.09-12.366,16.076c-4.699,6.675-8.167,16.55-13.603,19.785
		c-4.32,2.572-19.969,7.91-21.641,7.42c-1.938-1.351-2.718-3.473-3.709-6.184c8.212-3.007,19.215-3.554,25.969-9.274
		c2.335-1.978,3.807-6.179,6.183-9.275c11.787-15.363,23.879-34.519,32.152-55.029c2.238-5.547,3.12-12.737,6.183-17.313
		c2.488-3.715,7.506-6.68,10.511-9.892c6.224-6.654,12.517-14.128,17.313-22.259C168.695,179.575,169.928,174.638,173.802,171.13
		L173.802,171.13z M58.179,285.517c7.336-1.519,11.901-0.143,20.404,0.618c3.523-4.921,7.902-8.525,11.748-11.748
		c1.718-1.439,4.46-2.646,6.801-4.327c1.693-1.218,5.947-3.232,6.801-4.328c4.557-17.156,10.048-38.372,19.167-53.175
		c0.592,1.617,4.634,5.742,5.565,6.183c-12.518,15.028-18.971,35.496-22.259,54.411c-10.089-0.199-21.583,16.45-26.587,21.022
		c-1.101,0.359-10.229,1.117-15.458,0.619C62.734,293.022,60.401,288.42,58.179,285.517L58.179,285.517z M97.75,247.8
		c2.336-21.571,8.978-39.896,17.312-54.411c1.331,3.528,3.64,7.605,4.406,10.439c-10.131,11.251-16.805,32.487-18.009,38.407
		c-0.621,3.056-1.032,6.25-1.088,9.224c-2.685,1.748-6.724,5.255-10.27,7.827c-5.267,3.821-12.032,8.672-15.848,12.454
		c-5.095,0.342-14.675,0.443-19.167,3.265c-0.917-2.798-1.872-5.81-3.092-8.038c8.582-1.552,15.38-1.579,21.641-1.236
		C79.54,258.329,89.364,252.038,97.75,247.8L97.75,247.8z"/>
</g>
</svg>
