<?xml version="1.0" encoding="utf-8"?>
<!-- Generator: Adobe Illustrator 14.0.0, SVG Export Plug-In . SVG Version: 6.00 Build 43363)  -->
<!DOCTYPE svg PUBLIC "-//W3C//DTD SVG 1.0//EN" "http://www.w3.org/TR/2001/REC-SVG-20010904/DTD/svg10.dtd">
<svg version="1.0" id="Layer_1_x23_000000" xmlns="http://www.w3.org/2000/svg" xmlns:xlink="http://www.w3.org/1999/xlink" x="0px"
	 y="0px" width="360px" height="216px" viewBox="0 0 360 216" enable-background="new 0 0 360 216" xml:space="preserve">
<g>
	<g>
		<path d="M356.62,67.28c0,0.21,0,0.42,0,0.62c-58.51,48.31-116.48,97.15-174.5,145.94c-0.21,0-0.42,0-0.62,0
			C123.51,165.22,65.58,116.55,6.99,68.52c0-0.62,0-1.24,0-1.86C30.62,45.89,53.83,24.69,76.86,3.32c69.96,0,139.93,0,209.89,0
			C309.83,24.86,333.02,46.27,356.62,67.28z M332.71,75.98c-17.14-15.6-35.17-32.03-52.479-48.13c-2.341-2.18-5.931-6.02-8.07-6.52
			c-3.18-0.74-7.84,0-11.8,0c-11.66,0-25.341,0-36.021,0c17.21,34.13,34.561,68.11,52.17,101.84
			C295.16,107.35,314.08,91.82,332.71,75.98z M217.82,171.61c1.13-3.891,0-9.851,0-14.591c0-5.25,0-10.239,0-14.909
			c-24.73,0-49.47,0-74.21,0c-0.72,7.97-0.1,17.29-0.31,25.77c11.49,9.521,22.97,19.86,34.78,29.5c1.39,1.14,4.89,4.07,5.28,4.04
			c0.109-0.01,2.779-2.68,4.029-3.729c8.301-6.921,14.21-11.74,22.051-18.32C211.88,177.32,217.2,173.75,217.82,171.61z
			 M147.34,123.48c21.84,0,43.68,0,65.521,0c-10.75-33.96-20.82-68.601-32.3-101.84C169.68,55.77,158.5,89.62,147.34,123.48z
			 M137.09,21.33c-14.59,0-29.18,0-43.78,0c-10.27,9.1-20.29,18.42-30.43,27.63c-7.41,6.74-14.86,13.66-22.04,20.19
			c-2.46,2.23-5.74,3.88-7.14,7.14c17.15,15.03,36.23,30.83,54.64,45.64C104.23,88.04,120.99,55.01,137.09,21.33z"/>
	</g>
</g>
</svg>
