<?xml version="1.0" encoding="utf-8"?>
<!-- Generator: Adobe Illustrator 14.0.0, SVG Export Plug-In . SVG Version: 6.00 Build 43363)  -->
<!DOCTYPE svg PUBLIC "-//W3C//DTD SVG 1.0//EN" "http://www.w3.org/TR/2001/REC-SVG-20010904/DTD/svg10.dtd">
<svg version="1.0" id="Layer_1" xmlns="http://www.w3.org/2000/svg" xmlns:xlink="http://www.w3.org/1999/xlink" x="0px" y="0px"
	 width="612px" height="792px" viewBox="0 0 612 792" enable-background="new 0 0 612 792" xml:space="preserve">
<g>
	<path d="M226.649,372.57c15.378-0.684,30.296,0.581,44.804,0.88c4.416-0.61,9.585,0.856,13.031-0.266
		c2.048-9.787,16.647-52.524,23.162-57.559c2.025,0.213,2.26,1.876,3.019,2.929c7.008,13.478,14.6,45.047,19.789,53.73
		c18.99,0.372,38.551,1.392,53.882,2.613c2.494,3.539,1.895,2.913-0.561,6.289c-4.645,3.76-9.29,7.52-13.991,11.324
		c-8.177,7.637-17.322,14.762-26.413,21.842c8.48,29.817,8.48,29.817,9.564,32.645c2.02,7.981,4.823,16.565,5.909,24.581
		c0.06,1.543-0.193,2.488-2.076,2.699c-14.276-6.081-38.65-24.099-51.459-30.045c-5.867,0.662-27.026,20.335-37.645,25.932
		c-4.017,2.324-12.965,10.754-13.452,1.348c1.009-6.961,14.637-53.127,13.142-57.693c-14-11.918-30.044-23.386-42.73-37.572
		C224.456,374.438,225.722,373.599,226.649,372.57L226.649,372.57z"/>
	<path fill="#FFFFFF" d="M291.466,376.031c0.834,1.03-0.936,4.289-1.322,5.634c-12.819,1.874-34.241-0.914-43.165,0.572
		c-0.903,3.479,20.336,17.566,24.208,21.44c0.277,1.258-0.675,5.918-2.46,6.345c-11.413-9.193-23.856-17.22-40.373-34.201
		C231.434,372.847,280.287,377.058,291.466,376.031L291.466,376.031z"/>
	<path fill="#FFFFFF" d="M307.605,320.383c4.98,9.159,14.683,38.854,20.877,60.355c-1.311,1.061-4.361,0.278-5.937-0.011
		c-5.759-12.703-11.417-37.65-15.959-43.864c-3.726,3.555-10.147,29.537-13.434,36.161c-1.008,0.243-4.182,0.078-6.309,0.426
		C287.728,364.724,305.224,320.201,307.605,320.383L307.605,320.383z"/>
	<path fill="#FFFFFF" d="M311.713,383.937c1.023,1.951,2.681,4.685,2.286,6.486c-11.539-0.294-25.492-0.023-37.806-0.246
		c-1.921,0.258-4.645-0.131-4.211,3.038c3.512,2.623,10.784,6,12.33,8.825c-0.829,2.523-0.781,4.985-2.737,7.032
		c-9.061-8.354-22.5-16.083-29.826-24.49C254.482,383.438,306.544,384.424,311.713,383.937L311.713,383.937z"/>
	<path fill="#FFFFFF" d="M306.663,342.45c6.552,18.966,12.242,38.814,19.207,57.261c-2.932,2.559-2.932,2.559-4.232,3.24
		c-1.132-1.399-2.507-5.844-3.149-8.011c-3.554-8.053-5.917-18.183-10.494-26.242c-0.283-0.234-0.565-0.469-0.949-0.714
		c-3.134,0.591-5.125,10.262-6.849,13.51c-1.652,0.133-3.361,0.312-5.069,0.49c-0.09-0.112-0.181-0.224-0.272-0.335
		c-0.887,0.162-2.204,0.023-2.734-0.288c0.424-0.621,0.802-1.298,1.181-1.975c1.938-5.273,1.938-5.273,8.318-20.165
		C304.784,348.14,304.784,348.14,306.663,342.45L306.663,342.45z"/>
	<path fill="#FFFFFF" d="M287.355,393.555c-2.082,5.667-2.082,5.667-2.417,5.94c-2.71-1.976-5.85-4.379-8.661-6.365
		C277.164,392.413,286.289,392.849,287.355,393.555L287.355,393.555z"/>
	<path fill="#FFFFFF" d="M306.576,372.44c-0.442-1.004,4.248,4.498,3.552,8.807c-0.091-0.112-0.61,0.206-0.747,0.038
		c-0.111,0.091-0.224,0.181-0.392,0.317c-0.382-0.472-4.077-0.163-5.367-0.565C304.878,378.354,305.363,374.719,306.576,372.44
		L306.576,372.44z"/>
	<path fill="#FFFFFF" d="M290.052,393.225c1.697,0.024,6.125-0.559,7.145,0.702c-2.217,13.492-10.959,25.721-13.46,39.332
		c0.136,1.471,0.651,1.95,2.001,1.9c4.669-3.501,9.237-7.013,13.805-10.525c2.1,1.45,4.144,2.945,6.142,4.385
		c-9.04,7.003-24.763,17.915-35.388,25.401c-0.56-1.492,1.618-6.127,2.218-7.445c2.538-8.538,6.772-17.153,8.151-25.864
		C282.68,415.426,287.099,396.657,290.052,393.225L290.052,393.225z"/>
	<path fill="#FFFFFF" d="M275.773,407.283c2.031,1.136,5.337,3.275,5.415,4.974c-3.104,11.555-9.596,27.546-13.725,43.84
		c-0.074,2.474,0.665,2.445,2.358,1.855c8.568-6.009,16.875-12.454,21.893-15.867c6.092-4.854,4.666-4.441,8.533-0.33
		c-3.565,2.726-39.142,31.407-41.318,28.719C263.141,451.416,268.706,425.632,275.773,407.283L275.773,407.283z"/>
	<path fill="#FFFFFF" d="M300.285,393.279c7.579-0.021,11.816-0.393,14.065-0.361c1.532,2.465,4.75,10.791,3.895,12.594
		c-4.029,3.262-8.114,6.568-12.246,9.819c-2.915-2.457-7.565-5.455-10.328-8.869C296.723,403.195,298.647,395.842,300.285,393.279
		L300.285,393.279z"/>
	<path fill="#FFFFFF" d="M380.925,378.122c-14.258,13.871-31.482,26.203-46.859,39.039c-0.484-2.201-1.025-4.357-1.566-6.513
		c10.876-9.452,21.533-17.8,32.335-26.542c-0.016-0.82-0.456-1.021-1.517-1.644c-3.869-0.203-19.994-0.212-24.056-0.538
		c-0.439-0.2-5.388-0.363-5.929-0.573c-1.207-2.636-1.918-5.117-2.36-5.777C334.079,373.91,376.084,377.329,380.925,378.122
		L380.925,378.122z"/>
	<path fill="#FFFFFF" d="M323.979,383.642c12.021-0.233,24.352,1.248,36.441,1.535c-4.097,3.408-5.564,4.227-20.22,15.532
		c-3.894,3.43-3.894,3.43-25.845,20.826c-1.511-0.722-3.986-2.979-5.772-4.498c6.753-7.619,20.846-16.702,29.158-23.601
		c0.531-1.169,0.341-0.952-0.461-1.943c-2.688-0.232-8.048-1.36-11.35-0.632C325.298,390.078,323.097,384.727,323.979,383.642
		L323.979,383.642z"/>
	<path fill="#FFFFFF" d="M294.664,409.223c2.665,1.919,13.873,11.188,16.502,12.949c16.175,12.659,15.315,11.371,16.195,11.771
		c1.454-1.178,1.646-1.785,2.247-3.104c-2.476-8.06-3.087-9.533-5.384-14.048c2.977-2.502,2.977-2.502,6.18-4.725
		c1.789,3.181,9.946,34.98,11.808,41.482c-10.877-8.518-21.855-17.047-32.834-25.575c-5.53-3.397-11.336-8.054-16.871-12.374
		C292.375,413.947,293.614,410.442,294.664,409.223L294.664,409.223z"/>
	<path fill="#FFFFFF" d="M291.679,418.123c2.473,1.796,4.01,3.237,5.627,4.893c-0.81,1.721-10.252,9.421-11.073,8.406
		C286.293,429.742,290.37,418.316,291.679,418.123L291.679,418.123z"/>
	<path fill="#FFFFFF" d="M326.678,393.5c5.207,0.139,6.066,0.139,7.012,0.392c-1.05,1.221-1.908,1.221-5.211,3.894
		C327.893,397.519,326.358,394.592,326.678,393.5L326.678,393.5z"/>
	<path fill="#FFFFFF" d="M308.2,430.409c12.374,8.88,24.187,17.752,35.653,26.997c2.721-2.065-0.477-7.074-1.268-11.294
		c-0.544-2.617-0.544-2.617-7.361-24.887c1.844-1.956,1.844-1.956,5.023-4.437c5.653,11.704,11.335,38.598,14.897,52.967
		c0.168,0.199-43.449-24.926-54.698-34.276C302.688,433.666,305.727,431.993,308.2,430.409L308.2,430.409z"/>
	<path fill="#FFFFFF" d="M322.153,418.466c0.651,2.61,5.863,10.798,4.426,12.176c-3.072-2.423-6.955-4.2-10.054-7.342
		C318.184,421.765,320.132,419.407,322.153,418.466L322.153,418.466z"/>
	<rect x="224.5" y="315" fill="none" width="162" height="161"/>
</g>
</svg>
