<?xml version="1.0" encoding="utf-8"?>
<!-- Generator: Adobe Illustrator 14.0.0, SVG Export Plug-In . SVG Version: 6.00 Build 43363)  -->
<!DOCTYPE svg PUBLIC "-//W3C//DTD SVG 1.0//EN" "http://www.w3.org/TR/2001/REC-SVG-20010904/DTD/svg10.dtd">
<svg version="1.0" id="Layer_1" xmlns="http://www.w3.org/2000/svg" xmlns:xlink="http://www.w3.org/1999/xlink" x="0px" y="0px"
	 width="612px" height="792px" viewBox="0 0 612 792" enable-background="new 0 0 612 792" xml:space="preserve">
<g>
	<path d="M346.238,573.808c-2.376-1.368-4.752-2.736-7.128-4.032c-6.696-6.12-7.632-10.439-8.137-18.576
		c-0.504-2.304-1.008-4.536-1.512-6.768c-5.112-8.28-13.248-13.248-18.072-20.232c-1.367-3.168-2.735-6.336-4.104-9.432
		c-0.36,0.216-0.36,0.216-1.296,3.168c-3.456,5.328-6.336,9.647-11.664,13.248c-1.008,1.224-2.016,2.448-2.952,3.744
		c-0.36,1.296-0.72,2.664-1.008,4.031c0,2.089,1.584,7.561-1.872,7.561c-0.936-2.088-1.368-7.272-2.448-7.992
		c-1.44-4.032-4.32-8.208-6.192-11.304c-0.936-2.521-2.448-9-2.664-9.216c-1.728,2.447-3.384,4.896-5.04,7.344
		c-7.704,8.352-17.64,12.312-27.576,16.128c-5.04,3.024-7.272,4.824-10.584,9.36c-2.448,5.256-9.648,16.56-16.776,16.56
		c-0.216-0.216-0.36-0.36-0.504-0.504c0.288-2.736,1.872-4.32,2.376-6.624c-0.504-9.648-4.752-17.064-5.256-25.992
		c1.08-15.408,10.8-21.312,21.6-30.096c1.728-2.088,7.128-9.576,6.336-12.096c-5.328,0-12.528,5.111-14.256,10.008
		c-2.52,2.952-5.256,5.184-8.208,7.704c-2.304,0.792-4.608,1.584-6.84,2.447c-2.664,0.217-10.8-0.288-11.808-1.584
		c0-2.735,2.88-3.96,4.68-5.903c1.08-2.017,2.232-3.528,3.24-5.688c1.368-6.264,1.224-11.592,1.44-17.496
		c0.576-2.952,1.224-5.903,1.872-8.855c-0.504-0.145-5.328,0.863-9.216,1.08c-1.296-0.217-2.592-0.36-3.888-0.504
		c-9.864-3.816-17.064-1.009-24.336,5.544c-0.504,0.216-1.656,1.872-4.536,4.68c-6.048,7.704-17.208,15.696-27.072,16.416
		c-2.736-0.432-6.696-0.864-4.392-3.528c4.608-2.735,9.144-7.992,12.24-12.384c5.4-10.8,5.904-22.032,8.64-33.12
		c4.464-12.815,10.224-16.416,23.4-20.088c3.168-1.944,3.168-1.944,4.68-3.24c-0.072-0.216-0.144-0.432-0.144-0.576
		c-4.536-0.575-8.496-2.016-11.952-3.312c-9.144-5.904-13.464-11.592-24.336-7.272c-2.52,0.217-9.288,1.08-10.584-0.575
		c0.072-0.504,0.144-1.009,0.216-1.513c7.56-1.584,12.6-7.92,17.784-13.392c6.624-3.744,6.624-3.744,9.576-5.112
		c2.16-0.432,4.32-0.864,6.48-1.224c0.576,0.576,0.432,0.36,1.296,0.576c0-0.216,0.072-0.432,0.144-0.648
		c0.072,0.216,0.144,0.432,0.216,0.648c2.016,0.288,4.032,0.648,6.048,1.008c-2.016-1.584-3.96-2.88-5.688-3.528
		c-15.12-1.44-15.12-1.44-19.584-2.088c-11.376-4.752-15.408-7.992-20.376-18.504c-3.096-8.568-4.032-16.92-9.072-23.688
		c-1.512-1.008-3.024-2.016-4.536-2.952c0-0.576,0-1.152,0-1.656c7.128-5.112,16.776,0.072,22.896,5.688
		c1.656,1.008,3.384,2.088,5.112,3.168c1.728,0,3.456,0,5.184,0c11.304-2.304,27.288-10.368,38.664-3.168
		c0.144-0.288,0.144-0.288-0.864-4.032c-3.096-7.056-9.432-8.784-15.048-12.024c-3.096-3.96-3.888-6.048-5.112-9.936
		c-0.936-9.144-0.936-9.144-1.44-11.376c-1.296-2.16-2.664-3.96-2.376-5.76c0.288-0.144,0.576-0.216,0.864-0.288
		c2.592,2.16,5.04,7.128,7.56,10.656c6.12,4.608,15.768,2.376,23.904,4.248c0.216-0.072,0.504-0.072,0.792-0.072
		c-5.832-8.064-5.76-13.392-6.768-22.68c0.288-12.744,4.896-24.264,3.168-36.648c-2.088-8.568-2.952-14.472,0-22.032
		c0.504,0.072,0.936,0.072,1.584,1.224c0,5.4,3.168,11.736,7.632,15.84c8.496,4.968,17.208,12.168,22.176,21.6
		c1.584,5.184,3.168,10.44,4.824,15.696c0.36,0.792,0.576,1.728,1.728,2.88c1.584-9.864,5.616-18.72,8.136-28.08
		c0.504-5.328,0.648-10.656-1.224-15.264c0.216-1.008,0.216-1.008,0.504-1.368c3.24,0,6.84,3.168,9.864,5.616
		c4.536,5.832,5.328,11.16,6.696,19.152c0.648,2.016,1.8,6.408,4.176,8.208c0.144-0.936,0.144-0.936-0.576-8.856
		c0-9.36,0-9.36,0.216-11.808c0.648-2.16,1.296-4.248,1.944-6.336c3.096-7.848,7.992-12.744,13.68-18.648
		c7.056-6.336,14.616-12.24,16.92-21.6c0.288-0.144,0.576-0.216,0.936-0.288c3.096,1.512,2.016,11.016,1.368,14.328
		c-2.304,7.416-7.272,14.4-4.392,22.608c2.808,5.832,5.688,11.808,7.992,18.576c0.288,2.448,0.576,4.896,0.936,7.344
		c5.112-3.6,5.255-13.176,5.976-18.36c1.728-6.264,6.12-14.112,12.096-16.632c0.36,0,0.72,0,1.08,0
		c-0.072,0.576-0.145,1.152-0.145,1.8c-3.239,8.496,3.024,13.392,7.704,20.88c1.44,3.6,2.232,6.48,3.097,11.16
		c3.384-5.256,5.399-10.512,8.352-15.768c2.304-3.168,4.968-5.616,7.992-7.992c10.282-6.509,15.754-10.829,20.088-19.224
		c2.448-3.024,6.984-8.856,11.521-8.856c0.144,1.512,0.216,2.016-0.937,3.384c-1.944,5.112-1.944,5.112-2.448,7.056
		c1.225,11.52,4.896,21.672-1.943,32.688c-6.336,7.992-11.232,14.184-7.057,24.984c1.296-1.08,2.592-2.592,3.097-2.808
		c2.231-3.096,5.76-4.608,9.144-5.832c7.992,0,12.6,0.648,19.8-4.176c0.504-0.72,0.72-1.368,1.944-1.08
		c1.656,2.448-2.521,8.856-4.104,11.232c-2.376,1.872-3.168,3.96-4.319,6.696c-1.872,8.64-2.376,9.72-2.305,10.44
		c10.009-6.912,19.225-6.12,31.536-4.824c8.425,0,21.24-0.792,27.792-7.704c1.08-1.872,1.08-1.872,2.088-3.096
		c0.36,0,0.721,0,1.152,0c0.145,0.144,0.288,0.288,0.432,0.504c1.584,10.656-2.592,17.856-8.855,26.352
		c-4.608,3.528-9.504,7.056-14.616,9.36c-10.296,3.384-10.296,3.384-12.456,4.32c-4.392,3.528-8.136,7.344-10.943,12.168
		c3.023,0,8.424-2.016,12.168-2.592c9.287,0.504,13.896,4.968,20.951,12.024c2.664,1.224,7.272,4.032,11.088,1.872
		c0.433,0.072,0.864,0.216,1.297,0.36c-0.576,3.96-5.473,6.408-8.784,7.632c-6.624,0.504-9.648,0-14.4,4.104
		c-2.52,2.88-6.12,7.92-7.56,9.288c-1.44,0.864-2.88,1.728-4.32,2.664c0,0,10.729-0.216,13.608,0.216
		c5.184,1.944,5.184,1.944,9.071,3.816c4.896,3.672,8.064,10.008,13.032,14.976c2.088,1.296,4.824,2.664,7.849,3.816
		c5.544,0.36,13.104,0.288,19.151,2.808c2.017,1.296,4.104,2.592,6.192,3.96c-0.072,1.368-0.072,1.368-0.36,1.584
		c-6.624-0.216-6.624-0.216-9.144,0c-8.064,2.305-14.4,8.568-22.536,11.088c-3.528,0.36-6.84,0.721-9.648,0.721
		c-3.096-0.864-8.208-2.017-9.792-3.816c-7.2-3.168-10.8-3.168-17.784-1.224c-0.575,0.576-1.151,0.72-1.8,0.936
		c4.248,1.656,7.632,2.736,11.736,6.48c1.224,2.304,2.448,4.68,3.672,7.056c3.528,2.736,6.336,5.688,10.8,8.28
		c1.872,0.144,3.816,0.288,5.76,0.504c0,0.504,0.072,1.08,0.145,1.656c-7.056,4.392-13.032,4.896-20.521,3.384
		c-5.472,0-7.271,1.152-12.023,3.6c-3.528,0.937-3.528,0.937-6.552,1.44c1.584,1.08,3.168,2.16,4.823,3.24
		c3.097,3.384,5.256,6.983,7.488,11.808c1.296,4.968,2.808,11.232,5.977,16.488c0.936,0.647,3.455,3.456,14.184,13.464
		c2.664,3.384,5.904,9.432,6.408,14.472c-0.576,0.288-0.576,0.288-1.44,0.288c-7.128-9.072-18.576-7.128-28.224-6.696
		c-10.08-1.728-15.984-5.256-23.832-10.584c-0.576-0.72-0.576-0.72-3.816-3.168c-6.264-6.336-6.264-6.336-6.768-6.479
		c0.576,2.16,1.151,4.392,1.728,6.624c1.009,7.992-1.439,13.68,2.521,21.96c2.016,2.808,3.312,4.176,4.752,6.408
		c-0.216,0.504-0.433,1.008-0.576,1.512c-0.504-0.072-1.008-0.145-1.44-0.216c-2.016-2.521-5.688-4.104-7.848-5.256
		c-11.376-1.656-21.815-2.16-27.936-11.881c-0.937-2.664-0.937-2.664-1.296-3.023c-1.513,0.576-2.377,6.768-2.521,8.928
		c0.504,2.232,1.656,4.824,2.952,7.561c2.52,8.783,1.224,14.615-2.016,23.399c-0.937,1.584-1.44,2.017-4.393,7.416
		c-5.976,5.977-5.904,15.12-1.512,22.464c-0.072,0.288-0.072,0.648-0.072,1.008C347.246,573.52,346.742,573.663,346.238,573.808
		L346.238,573.808z"/>
	<path fill="#FFFFFF" d="M334.286,558.903c-0.648-5.472-1.512-11.088-2.88-15.696c-4.68-7.632-10.656-12.023-16.2-17.783
		c-4.871-7.645-4.861-17.246-6.84-17.208c-1.002-1.565-6.299,15.966-13.176,19.224c-1.872,1.8-3.6,3.24-5.184,5.4
		c-1.296,3.384-1.296,3.384-1.728,3.888c-4.392-7.704-4.392-7.704-6.048-10.152c-2.376-6.552-2.808-10.512-0.72-16.487
		c0.721-1.603,5.118-7.2,1.296-7.2c-5.544,7.2-7.848,16.344-14.256,23.256c-9.216,7.848-19.8,10.368-29.664,16.056
		c-5.4,5.328-5.4,5.328-6.552,6.84c-2.376,5.04-6.408,12.168-11.88,14.904c0.864-5.112,0.576-8.352-0.36-12.96
		c-2.664-8.063-4.896-14.04-3.384-21.672c0.346-6.597,12.068-19.368,15.624-19.512c3.994-3.436,15.083-14.917,11.117-20.865
		c-1.927,0-11.525,4.287-13.277,5.601c-3.24,4.32-6.264,8.784-10.512,12.168c-4.248,2.088-11.448,5.04-15.48,2.521
		c4.248-4.608,6.984-9.288,7.704-15.408c0.216-9.216,0.216-9.216,0.504-12.744c-0.009-2.74,5.213-13.032,3.96-13.032
		c-6.336,2.736-10.872,3.744-17.496,2.952c-11.016-4.536-18.36,0.216-26.784,6.769c-3.744,5.976-13.392,14.111-19.872,17.352
		c-2.232,0.648-9.144,3.384-10.872,2.232c5.429-5.46,10.156-8.269,13.68-17.137c2.952-9.575,4.248-19.224,6.264-28.512
		c2.448-7.128,4.392-9.864,10.44-14.399c2.088-1.152,22.752-7.2,18.72-12.889c-8.64,0-17.784-3.815-23.256-9.647
		c-4.392-1.872-5.832-2.376-9.864-2.16c-3.456,0.864-7.632,1.944-10.8,1.944c2.592-1.009,4.608-3.024,6.696-4.824
		c6.48-8.137,15.48-14.76,26.784-11.521c2.442,1.047,4.995,3.302,7.632,3.024c0-5.76-6.12-9.072-9.864-10.944
		c-6.264-0.504-14.112-1.008-20.016-2.16c-4.32-1.656-8.784-4.032-12.024-6.12c-5.616-5.616-7.272-11.592-9.648-18
		c-1.008-6.336-3.456-12.168-6.408-16.992c-1.152-0.864-2.304-1.728-3.456-2.52c2.104-3.058,10.742-0.232,13.248,2.736
		c9.038,8.924,14.956,9.211,32.184,3.456c8.424-1.872,16.704-4.176,23.328,3.312c5.011,0,0.605-10.912-0.388-13.032
		c-7.739-8.508-19.958-6.508-18.691-23.4c7.416,7.848,21.6,2.52,31.536,7.92c1.631-0.272,1.295,0.152,1.584-1.584
		c-11.016-9.864-10.296-19.008-10.512-32.472c1.728-10.008,4.176-19.44,3.096-28.944c-1.224-5.976-1.944-10.872-1.944-16.272
		c1.872,4.392,3.312,8.496,7.776,12.312c0.964,1.014,12.66,7.754,17.424,14.688c5.256,4.68,7.056,14.76,9.144,21.96
		c1.008,2.232,2.592,4.536,4.464,7.056c1.296,0,1.08-0.936,1.296-7.128c2.088-9.864,6.768-19.512,8.136-29.304
		c-0.144-3.384-0.216-6.696-0.288-10.008c4.176,0.576,7.992,6.552,9.648,10.872c0.648,2.88,3.168,22.824,10.44,21.816
		c0.864-1.728-0.648-11.16-0.792-12.744c0.273-13.954,2.111-19.505,11.232-30.96c7.056-6.84,15.12-13.176,20.088-21.744
		c0.216-0.072,0.432-0.144,0.72-0.144c-0.144,2.16-0.288,4.32-0.36,6.48c-1.656,7.632-7.488,15.552-5.544,24.192
		c3.528,7.488,6.912,14.328,9.144,22.824c0,1.944,0,3.888,0.072,5.904c3.96,2.664,7.632-5.76,8.784-8.496
		c0.936-5.832,0.936-5.832,1.439-11.088c0.864-3.456,3.889-12.168,7.561-12.672c0.288,1.872,0.576,3.744,0.864,5.688
		c4.031,8.064,11.016,14.04,11.016,24.336c-0.504,1.656-0.504,1.656-0.504,3.24c4.464,2.232,12.023-17.064,12.744-18.504
		c2.713-4.437,13.702-10.455,23.76-19.08c2.52-5.112,5.544-11.376,10.439-14.184c-0.792,3.096-1.584,5.256-1.584,8.856
		c1.513,9.216,4.32,19.224-1.151,28.368c-6.192,7.848-11.952,15.408-8.641,26.136c0.576,1.368,1.009,4.176,3.673,4.176
		c4.424-4.425,4.95-8.459,12.672-9.576c5.328,0,8.712-0.216,14.111-1.872c2.952-1.512,2.952-1.512,3.744-1.584
		c-0.647,1.44-1.296,2.952-1.943,4.464c-3.168,2.52-4.608,5.688-6.12,9.432c1.417,3.662-5.625,16.965-1.944,14.184
		c4.68-3.672,8.784-6.48,14.977-7.56c16.415,0.432,17.855,0.72,26.136,0.72c8.496-1.08,14.76-3.024,21.888-8.208
		c0,14.472-10.296,23.472-22.392,29.52c-3.96,1.296-7.849,2.592-11.736,3.888c-2.134,1.268-20.451,18.432-12.672,18.432
		c5.616-3.456,11.088-4.032,17.784-3.816c2.88,0.72,5.615,2.448,8.712,4.32c4.823,4.824,8.496,9.504,16.487,10.008
		c-5.111,5.112-12.312,1.656-17.855,5.328c-1.944,1.584-3.528,3.24-5.256,5.328c-4.176,6.696-6.553,7.776-13.824,9.576
		c0,2.808-0.144,2.016,3.744,3.384c2.808,0,6.984-0.504,12.312-0.72c3.889,0.432,7.92,1.296,11.88,3.96
		c4.536,4.248,8.568,9.504,12.816,14.976c3.024,1.584,6.408,2.88,10.368,4.104c3.168,0.216,15.912,0.432,18.144,3.239
		c-0.512,0.513-6.361,1.281-7.92,1.801c-11.808,7.199-19.584,13.319-32.903,9.288c-3.385-1.872-4.177-2.593-6.12-3.528
		c-3.047-3.103-25.618-0.912-22.032,5.256c2.808,0.216,4.392,0.864,7.488,1.729c2.447,1.224,4.968,2.447,7.056,5.615
		c0.83,5.677,14.37,14.761,15.479,14.977c-6.048,2.016-9.287,1.368-15.048,0.504c-6.886,0-10.89,3.733-17.424,5.04
		c-2.52-0.288-5.04-0.504-7.488-0.72c-3.135,1.771,7.058,5.399,11.16,9.144c6.192,8.136,7.776,16.271,11.664,26.352
		c4.464,4.608,10.08,9.217,15.12,14.4c0.576,0.792,3.744,4.752,3.384,6.768c-10.582-4.766-18.447-2.894-28.151-3.384
		c-2.588,0.423-23.076-9.02-29.736-19.296c-2.03-1.167-8.594-10.955-7.488-4.32c3.024,5.832,4.896,10.801,5.761,18.145
		c-0.36,6.192-1.009,10.512,1.296,17.136c-9.217-2.448-18.864-2.016-26.064-8.136c-2.16-3.672-2.16-3.672-3.096-5.904
		c-0.937-3.888-0.36-5.184-3.24-5.544c-0.36,0.36-1.368,4.896-3.744,12.601c-0.466,6.061,2.663,10.724,4.104,16.487
		c0,2.088,0,4.177,0,6.336c-0.864,4.608-3.024,9.721-5.328,14.04c-5.977,8.353-8.856,13.32-6.048,23.832
		C339.69,569.199,335.391,561.513,334.286,558.903L334.286,558.903z"/>
	<path d="M338.318,550.983c-1.944-2.664-1.729-6.336-2.088-8.855c-1.944-7.488-9-12.169-13.969-16.633
		c-5.04-5.903-5.688-8.855-5.688-15.695c0.288-0.145,0.576-0.217,0.864-0.288c0.863,0.432,0.936,3.384,1.008,4.68
		c0.359,1.152,0.72,2.376,1.08,3.6c4.896,7.992,13.607,12.673,17.928,21.889c1.152,8.855,1.152,8.855,1.152,11.16
		C338.462,550.84,338.39,550.911,338.318,550.983L338.318,550.983z"/>
	<path d="M228.374,550.264c0-9,11.16-15.408,17.136-19.8c8.136-3.456,17.064-9.072,21.096-17.425
		c0.792-3.672,1.296-7.487,2.736-10.439c0.432,0,0.864,0,1.368,0c0.936,4.896-2.952,12.672-5.76,16.992
		c-9.144,9.936-22.968,13.536-32.184,24.048C232.262,544.432,229.166,550.048,228.374,550.264L228.374,550.264z"/>
	<path d="M340.479,549.039c-0.721-1.151-0.433-2.088-0.433-2.951c1.656-6.336,0.864-12.385,0-18
		c-4.248-8.929-8.136-13.104-8.136-22.536c0.792-2.088,1.656-4.104,2.52-6.12c0.504-0.072,1.009-0.145,1.513-0.145
		c0.288,0.288,0.288,0.288,0.504,5.112c0.792,2.664,0.792,2.664,1.728,4.824c5.904,7.775,11.521,17.496,9.145,28.368
		c-0.288,0-0.504,0-0.721,0c-0.287-0.504-0.287-4.104-1.224-11.305c-2.592-8.279-7.848-13.104-11.016-20.088
		c-1.872,5.76,4.896,14.977,7.416,21.168c0.504,4.824,1.151,9.792,1.151,15.192c-0.432,2.088-0.863,4.176-1.224,6.336
		C341.271,548.896,340.838,548.968,340.479,549.039L340.479,549.039z"/>
	<path d="M224.27,541.84c-3.024-6.12-0.504-15.912,1.08-21.744c2.376-3.456,4.752-6.336,7.56-9.36
		c2.808-2.088,4.896-3.24,9.216-6.552c1.224-1.656,2.448-3.312,3.672-4.968c0.936-3.097,0.288-9.217,4.032-5.473
		c0,0.648-0.144,1.656-0.72,2.88c-0.216,2.664-0.216,2.664,0,6.12c-1.512,3.816-2.736,6.336-5.544,9.648
		c-3.96,2.952-5.616,5.976-7.704,10.8c-0.432,0.216-0.864,0.432-1.224,0.648c0.36-3.744,2.088-6.48,3.96-9.433
		c3.888-4.248,7.632-6.191,8.424-12.815c-1.368,0-3.312,3.456-4.248,4.607c-3.024,2.376-6.84,4.896-9.72,7.345
		c-1.656,1.8-3.24,3.6-4.824,5.399c-3.24,8.136-3.384,13.464-3.168,22.536C224.774,541.552,224.486,541.695,224.27,541.84
		L224.27,541.84z"/>
	<path d="M239.174,527.943c0-1.872,0.216-1.872,1.08-3.24c5.328-4.752,11.088-10.224,15.048-16.199
		c1.584-3.168,3.168-6.336,4.824-9.505c0.216,0,0.432,0,0.72,0c1.08,5.616-9.144,16.992-12.6,20.664
		C245.942,521.607,241.766,527.439,239.174,527.943L239.174,527.943z"/>
	<path d="M289.574,526.287c-1.512-1.512,0.36-3.743,0.792-5.111c0-3.168,0-6.265,0-9.36c0.72-2.52,1.872-4.464,2.952-6.336
		c0.36,0,0.72,0,1.152,0c0.864,1.728-1.08,3.816-1.944,5.904C292.526,513.976,292.886,524.632,289.574,526.287L289.574,526.287z"/>
	<path d="M294.83,522.903c-0.792-0.792-0.504-1.008-0.432-1.656c2.952-4.535,4.752-7.128,5.472-11.808c0.288,0,0.648,0,1.008,0
		c0.144,4.824-2.232,8.928-4.968,13.32C295.55,522.76,295.19,522.831,294.83,522.903L294.83,522.903z"/>
	<path d="M285.758,520.239c-2.088-5.832-1.008-10.296,2.232-14.976c0.36,0,0.72,0,1.152,0c0,0.432,0,0.864,0,1.368
		c-2.808,3.672-3.528,7.199-2.592,12.096c-0.144,0.432-0.216,0.864-0.288,1.368C286.046,520.096,285.902,520.168,285.758,520.239
		L285.758,520.239z"/>
	<path d="M347.39,516.424c-0.359-1.08-1.512-3.024-2.52-5.761c-0.36-4.392-0.72-7.56-0.216-11.159
		c0.504-0.288,0.72-1.009,1.439-0.648c0.288,3.312,0,7.272,0.433,11.52c0.576,1.729,1.151,3.456,1.728,5.257
		C347.966,515.848,347.678,516.136,347.39,516.424L347.39,516.424z"/>
	<path d="M379.358,508.287c-3.097-4.464-5.04-6.552-8.568-9.288c-1.944-2.52-5.472-10.8-3.528-12.743
		c1.801,0.144,1.872,3.527,2.305,5.615c1.08,2.952,1.08,2.952,2.088,4.681c2.016,1.728,8.928,7.487,8.279,11.52
		C379.718,508.144,379.502,508.216,379.358,508.287L379.358,508.287z"/>
	<path d="M366.83,504.688c-0.145-0.288-0.288-0.576-0.36-0.792c-3.456-1.728-7.128-13.176-2.88-12.816
		c0.216,0.288,0.216,3.673,0.721,6.336c0.792,2.232,2.663,4.32,3.096,7.057C367.19,504.544,366.974,504.615,366.83,504.688
		L366.83,504.688z"/>
	<path d="M215.63,504.184c-1.08-1.512,0.36-2.16,0.936-2.809c5.328-3.384,6.192-7.703,8.352-13.392
		c2.376-3.672,3.096-6.192,8.352-5.976c0.144,0.216,0.36,0.432,0.576,0.647c-0.36,1.225-0.36,1.225-1.008,1.944
		c-6.048,1.296-7.416,7.416-9.432,12.672C221.39,500.008,219.086,503.535,215.63,504.184L215.63,504.184z"/>
	<path d="M291.014,501.88c-14.896-0.165-30.141-7.611-34.704-9.145c-20.663-10.319-27.731-20.661-33.12-23.76
		c-5.256-6.696-9.864-13.032-14.256-19.368c-5.976-10.944-9.792-20.952-12.384-32.544c-4.104-25.272-1.944-47.736,9.072-70.56
		c4.862-12.122,21.451-29.238,28.872-36.144c17.812-13.995,38.507-21.898,60.984-24.264c10.728-0.216,20.808,0.648,31.896,2.664
		c26.644,7.748,25.4,9.46,42.912,20.88c6.84,6.48,13.32,12.744,19.512,20.808c5.185,8.136,10.225,17.064,13.968,26.856
		c4.327,14.051,7.072,25.47,6.12,41.256c-0.72,10.439-2.952,20.736-6.191,31.248c-4.393,11.448-9.864,20.808-16.849,31.032
		c-19.627,21.778-29.561,30.619-59.688,38.88C321.611,500.682,296.901,505.225,291.014,501.88L291.014,501.88z"/>
	<path d="M419.39,500.8c-3.6-1.44-6.336-2.952-9.144-4.681c-12.024-4.536-21.168-14.472-22.392-26.712
		c1.871-1.08,4.607,4.393,5.76,5.977c2.952,2.304,5.903,4.68,8.928,7.056c7.344,2.664,15.84,4.032,21.744,10.8
		c0,0.288,0,0.648,0,1.008c-0.36,0-0.648,0.072-0.937,0.145c-1.079-2.232-7.775-4.968-9.432-5.904
		c-4.392-1.512-8.568-2.231-12.24-3.815c-6.048-4.824-6.048-4.824-8.855-6.769c2.448,7.416,10.8,13.536,18.792,16.488
		c2.088,1.296,6.479,3.023,8.64,4.896c-0.072,0.36-0.072,0.721-0.072,1.152C419.895,500.512,419.606,500.655,419.39,500.8
		L419.39,500.8z"/>
	<path fill="#FFFFFF" d="M298.718,499.144c-18.193-2.106-32.353-5.142-48.888-14.185c-27.633-18.422-44.116-39.811-50.4-72.72
		c-1.224-10.512-1.512-20.16-0.72-30.024c1.512-11.232,4.752-21.168,8.64-31.32c4.889-9.272,9.44-16.9,15.84-25.128
		c14.969-17.717,33.764-28.837,60.048-34.848c5.04-0.576,10.08-1.152,15.12-1.728c21.292-0.842,38.993,3.625,58.032,15.192
		c0,3.004-9.525,1.267-11.376,0.216c-10.455-1.53-19.065-1.287-29.52,1.44c-14.799,8.115-17.948,9.106-26.784,24.768
		c-3.161,11.59-4.032,20.161-2.88,31.68c1.368,6.336,2.376,13.032,3.816,20.16c3.888,10.872,10.008,22.608,19.224,31.176
		c9.048,13.979-4.19,9.4-7.056,13.681c-1.152,3.168-1.008,5.399-0.216,9.216c-3.744-1.513-5.328-3.24-9-2.017
		c-8.064,4.32-13.968,10.296-22.824,11.017c-1.798,1.349-2.415,2.082-1.224,4.464c6.12,3.456,10.872,6.048,18.648,7.775
		c5.328,0.721,5.328,0.721,15.552,1.368c-0.792,9,6.48,17.641,14.328,22.681c11.706,4.292,26.615,5.076,38.016-0.576
		c1.513-0.288,3.024-0.576,4.536-0.792c-0.432,2.448-7.92,5.688-9.647,6.624C333.901,495.174,318.146,498.682,298.718,499.144
		L298.718,499.144z"/>
	<path d="M379.79,498.928c-0.216-0.504-0.432-1.008-0.576-1.44c0-4.319-1.584-10.872-4.104-13.392c0-0.433,0-0.792,0-1.152
		c2.735,0,5.256,7.704,6.048,10.656c-0.216,1.656-0.432,3.384-0.576,5.112C380.294,498.783,380.006,498.855,379.79,498.928
		L379.79,498.928z"/>
	<path d="M215.63,497.703c0-2.52,0.864-2.951,2.016-4.607c1.008-5.256-0.792-10.296,0.504-14.76c1.296-1.729,2.52-4.536,5.04-4.536
		c0.432,0.575-0.072,1.584-0.72,2.592C215.918,479.632,224.558,492.375,215.63,497.703L215.63,497.703z"/>
	<path d="M229.094,492.663c-0.072-0.288-0.144-0.504-0.216-0.72c2.088-2.088,5.544-6.696,8.712-5.112c0,0.433,0,0.864,0,1.368
		C234.638,489.279,231.398,492.304,229.094,492.663L229.094,492.663z"/>
	<path fill="#FFFFFF" d="M318.59,480.063c-5.76-3.888-15.84-14.04-13.536-21.096c9.72-1.152,25.919-1.368,31.68-11.736
		c-0.504-3.816-3.312-3.456-5.904-4.392c-6.48-1.368-11.304-5.977-16.488-8.425c-3.527,0-6.983,1.584-10.368,2.593
		c-0.72-2.664-1.512-5.904-0.36-7.92c4.824-3.456,11.016-0.288,11.016-8.641c-3.708-10.22-13.999-15.146-23.04-38.664
		c-0.792-4.176-1.296-7.848-1.656-11.304c-4.104-13.536-2.88-25.416,0.504-38.52c6.063-10.611,11.411-18.163,23.688-22.752
		c6.12-3.816,18.432-3.816,26.064-2.952c5.688,1.08,10.655,3.168,17.063,1.224c0.864-0.72,0.864-0.72,2.017-1.152
		c23.853,13.751,38.21,42.272,43.271,58.896c5.507,21.434,5.49,39.032-2.448,64.08c-8.424,20.592-19.655,37.224-37.943,50.328
		c-4.104-2.521-6.265-0.721-10.152,0.647C339.738,483.897,331.578,484.662,318.59,480.063L318.59,480.063z"/>
	<path d="M415.07,479.92c-0.288-5.904-2.232-8.064-5.112-12.601c-1.944-1.8-6.768-4.896-6.768-6.696
		c5.472,0,11.447,9.217,13.464,14.473c0.071,1.368,0.144,2.735,0.216,4.176C416.51,479.56,416.51,479.56,415.07,479.92
		L415.07,479.92z"/>
	<path d="M159.47,477.76c-0.144-0.145-0.288-0.288-0.36-0.433c0.576-6.624,2.808-13.896,5.04-19.584
		c5.04-8.784,10.296-13.464,19.8-16.632c0.36-0.432,0.36-0.432,2.664-1.152c1.584-1.079,3.24-2.159,4.896-3.239
		c0.432-0.721,0.36-0.937,1.296-1.225c0-0.216,0.072-0.432,0.144-0.575c0.72,0,1.944-2.664,2.16-3.097c0.432,0,0.936,0,1.44,0
		c0.864,2.017-0.288,6.624-1.008,9.36c-2.808,5.688-9,7.992-13.968,11.52c-2.52,2.736-4.392,6.192-6.624,9.145
		c-0.144-0.072-0.288-0.145-0.432-0.145c0-4.031,4.176-8.424,6.552-11.231c4.968-2.952,12.816-6.552,12.816-13.176
		c-3.888,3.456-9.72,6.264-14.328,7.487c-8.568,5.761-11.808,8.856-15.192,19.08c-1.152,4.248-2.232,8.496-3.312,12.744
		C160.478,477.184,159.902,477.688,159.47,477.76L159.47,477.76z"/>
	<path d="M408.158,476.104c-3.096-3.456-6.984-7.92-10.44-9.504c-1.008,0.72-2.592-1.152-2.664-1.225c0-0.72,0-0.72,0.504-1.367
		c6.049-0.288,8.641,6.768,12.889,10.512C408.446,475.959,408.446,475.959,408.158,476.104L408.158,476.104z"/>
	<path d="M170.054,473.224c-1.728-3.456,10.008-12.312,13.032-14.04c6.912-2.088,14.904-2.664,21.168-7.2c0.504,0,1.08,0,1.656,0
		c0,7.632-9.648,10.512-15.696,11.736c-4.464,1.872-4.464,1.872-5.184,1.872c0-0.433,0-0.792,0-1.152
		c3.96-2.808,13.896-3.672,16.56-8.136c-1.584,0.216-2.304,0.432-3.6,1.151c-5.76,1.08-10.944,2.376-16.056,4.681
		c-4.248,3.744-7.344,6.408-10.584,10.943C170.918,473.079,170.486,473.151,170.054,473.224L170.054,473.224z"/>
	<path fill="#FFFFFF" d="M289.07,455.8c-1.601-0.285-13.896-3.222-13.896-5.112c8.352,0.144,16.416-1.656,24.984-4.032
		c1.08,0,2.232,0,3.384,0.072c0,3.024-0.144,6.552-0.504,9.936C298.646,457.151,293.408,456.316,289.07,455.8L289.07,455.8z"/>
	<path fill="#FFFFFF" d="M305.414,456.663c-0.144-0.792,0.36-7.775,0.792-10.224c5.4,0,11.304,1.512,17.424,2.16
		c3.097-0.072,6.192-0.072,9.36-0.072c0,1.368-6.336,4.393-7.416,4.896C317.846,456.185,311.346,456.275,305.414,456.663
		L305.414,456.663z"/>
	<path fill="#FFFFFF" d="M278.27,448.527c-4.68-0.576-4.68-0.576-4.68-0.792c5.184-1.008,13.32-7.2,18.144-10.152
		c2.376-1.008,2.376-1.008,3.096-1.008c5.544,2.448,5.544,2.448,7.704,3.024c0.216,1.512,0.432,3.023,0.72,4.607
		c-4.608,0.288-8.28,1.584-12.456,2.736C286.334,447.447,282.302,448.239,278.27,448.527L278.27,448.527z"/>
	<path d="M408.374,447.088c-2.448-1.872-4.32-1.297-4.68-4.248c0.863-0.648,1.728-0.288,2.952,0.936
		c4.319,1.584,7.703-0.216,12.239-2.016c-0.071-0.288-0.144-0.504-0.216-0.721c0.145,0,0.36,0.072,0.576,0.145
		c0,0.144,0,0.288,0,0.432c2.664,0.145,10.152-2.304,10.944,2.809c-5.04-1.44-12.024-1.152-16.272,2.016
		C411.686,446.943,411.686,446.943,408.374,447.088L408.374,447.088z"/>
	<path fill="#FFFFFF" d="M314.99,444.928c-0.288,0-9.072-0.864-9.432-1.225c-0.216-1.439-0.432-2.88-0.648-4.319
		c2.608-1.087,6.159-2.4,8.928-2.521c2.017,1.008,6.192,3.816,12.96,7.416c3.312,0.937,3.312,0.937,5.04,1.656
		C328.809,447.147,314.99,444.809,314.99,444.928L314.99,444.928z"/>
	<path d="M420.11,438.88c-4.177-2.664-6.769-5.185-9.576-8.28c-3.888-0.937-2.952-1.729-2.521-4.536
		c1.152-0.648,7.272,0.36,8.784,0.432c2.017,1.009,8.928,5.544,8.928,8.425c-0.359,0-0.647,0-0.936,0
		c-4.752-3.024-6.984-7.057-12.456-6.192c2.088,2.664,4.752,5.256,8.208,7.848c3.312,0.288,3.312,0.288,3.744,0.576
		c0,0.288,0,0.576,0,0.864C421.91,438.735,421.91,438.735,420.11,438.88L420.11,438.88z"/>
	<path d="M324.854,428.583c-0.217-0.071-0.36-0.144-0.505-0.216c0-2.088,0.937-2.447,2.017-3.672c2.231-6.048-1.8-6.12-3.384-9.359
		c1.367-4.248,11.664,6.552,3.6,11.88C326.15,427.791,325.646,428.439,324.854,428.583L324.854,428.583z"/>
	<path d="M288.854,428.079c-5.904-5.327-2.376-9.936,2.808-13.319c0.432,0,0.864,0,1.368,0c0.576,0.576,0.576,1.151,0.144,1.943
		c-2.232,0-4.536,4.104-4.968,6.265C288.422,423.544,291.374,427.504,288.854,428.079L288.854,428.079z"/>
	<path d="M319.814,427.647c-0.864-1.44-3.385-1.152-4.248-1.152c-0.792-0.792-0.433-1.296-0.433-1.872
		c2.376-1.367,6.696-1.728,6.696,2.593C321.254,427.504,321.254,427.504,319.814,427.647L319.814,427.647z"/>
	<path d="M292.454,426.64c-0.648-1.008-0.576-1.08-0.432-1.656c1.152-0.576,9.072-4.824,8.208,0.576
		C298.574,426.64,294.038,426.495,292.454,426.64L292.454,426.64z"/>
	<path d="M186.11,421.6c-2.016-0.288-4.824-0.648-5.832-1.368c0-0.504,0-1.008,0.072-1.512c1.224-0.145,1.944,0.144,4.608,0.144
		c-2.808-1.512-5.256-3.815-7.488-4.319c-3.888-1.944-3.384-0.864-6.768-1.08c0-0.36,0-0.721,0-1.08
		c6.264-4.681,12.024,5.76,19.584,5.04c0.504,0.144,1.08,0.288,1.656,0.504c0,0.216,0,0.504,0.072,0.792
		C189.854,421.168,189.134,421.168,186.11,421.6L186.11,421.6z"/>
	<path d="M438.83,417.567c-6.984-4.104-13.104-7.632-20.304-4.032c-0.576-0.071-1.152-0.144-1.656-0.216
		c0-4.824,10.44-3.24,13.608-2.664c2.735,1.225,5.688,2.736,8.783,4.824c2.232,0.216,4.536,0.432,6.84,0.72c0,0.288,0,0.576,0,0.937
		C445.094,417.424,445.094,417.424,438.83,417.567L438.83,417.567z"/>
	<path d="M449.63,414.688c-6.048-1.729-9.936-5.616-14.184-8.784c-7.057-3.888-10.296-4.607-17.496-1.728
		c-0.504-0.072-1.008-0.145-1.512-0.217c0-1.224,0-1.439,1.151-1.151c11.017-7.488,19.872,2.52,29.088,8.784
		c2.664,0.647,4.248,0.72,7.633,0.792c0,0.432,0.071,0.863,0.144,1.296C452.798,414.256,450.998,414.615,449.63,414.688
		L449.63,414.688z"/>
	<path d="M159.758,408.928c-2.16-3.24,8.496-6.265,10.728-6.912c1.368,0.072,2.808,0.144,4.248,0.288
		c3.096,1.439,7.632,3.6,11.736,3.6c0,0.36,0,0.72,0,1.152c-3.528,1.728-10.296-1.8-12.6-2.592c-5.328,0-9.144,1.151-13.176,4.319
		C160.334,408.783,160.046,408.855,159.758,408.928L159.758,408.928z"/>
	<path d="M444.878,403.384c-4.536-1.944-6.264-6.336-8.855-9.145c-2.521-2.088-4.465-3.6-6.769-4.68
		c-3.312,0-10.08,2.88-12.456,0.504c0.072-0.36,0.216-0.648,0.36-0.936c2.448-0.288,2.448-0.288,5.256-0.288
		c6.696-1.584,7.704-2.52,13.464,2.016c3.024,3.024,5.616,6.552,8.712,10.224c0.937,0.576,1.656,0.648,1.944,2.305
		C445.958,403.384,445.382,403.384,444.878,403.384L444.878,403.384z"/>
	<path d="M244.718,395.248c-7.2-3.6-4.68-6.264-3.312-11.304c2.376-3.384,6.552-5.184,10.512-6.696
		c9.216-1.944,30.24-5.328,26.424,11.808c-3.312,2.304-8.712,0.936-11.88,1.224c-0.288,0.216-0.288,0.216-2.448,0.504
		C257.318,393.16,251.342,394.815,244.718,395.248L244.718,395.248z"/>
	<path fill="#FFFFFF" d="M244.718,392.799c-1.944-1.224-1.728-1.512-2.088-2.736c2.448-1.296,4.896-2.52,7.416-3.744
		c7.056-1.8,7.056-1.8,8.712-2.016c2.88,0.072,5.832,0.144,8.784,0.216c2.808,0.576,5.472,1.872,8.856,2.808
		c0,0.144,0,0.288,0,0.432c-4.536,0.72-8.208-0.144-12.384,0.648C257.534,390.927,251.27,392.439,244.718,392.799L244.718,392.799z"
		/>
	<path d="M353.87,390.64c-8.64-3.6-18.937-0.36-27.792-0.36c-3.888-2.592-4.032-4.248-1.872-7.56c0-5.256,5.256-6.696,9.216-8.064
		c7.561-1.08,15.624-2.664,23.76,0.72c4.104,2.448,7.2,5.04,5.473,11.376C359.846,391,358.479,390.279,353.87,390.64L353.87,390.64z
		"/>
	<path fill="#FFFFFF" d="M327.734,388.479c-2.376-1.296-2.088-1.368-2.664-3.096c0.72-0.288,1.439-0.504,2.231-0.72
		c0.721-1.512,12.384-2.304,15.696-2.52c4.32,0.576,12.6,1.296,16.704,4.32c-0.145,0.432-0.288,0.864-0.432,1.368
		c-2.232,0.648-4.824,0.648-6.624-0.216C343.934,386.68,335.727,387.615,327.734,388.479L327.734,388.479z"/>
	<path fill="#FFFFFF" d="M243.278,385.888c0.936-4.392,10.872-6.768,15.048-7.632c6.84-0.072,15.984-2.592,18.072,6.624
		c-8.568-4.032-18.864-4.248-27.216-1.8C247.166,384.016,245.222,384.952,243.278,385.888L243.278,385.888z"/>
	<path d="M185.39,384.879c-0.792-0.792-0.72-1.152-0.792-1.8c-2.448-3.456-5.328-4.824-8.352-5.544c-8.136,0-15.912,3.312-23.4,3.6
		c-2.736-1.224-4.392-2.376-5.976-3.6c0-3.672,4.176,1.008,7.056,1.44c7.776-1.08,17.136-5.544,25.344-3.096
		C180.782,376.815,188.63,381.64,185.39,384.879L185.39,384.879z"/>
	<path fill="#FFFFFF" d="M360.134,384.16c-1.296-1.296-5.832-2.448-7.056-3.024c-2.521-0.36-2.521-0.36-5.256-1.152
		c-5.688,0-11.088-0.432-16.272,0.216c-2.016,0.504-4.032,1.44-5.04,1.584c0-2.52,5.977-4.608,7.849-5.184
		c7.271-1.152,25.128-3.816,26.496,7.56C360.566,384.16,360.35,384.16,360.134,384.16L360.134,384.16z"/>
	<path d="M414.134,374.583c-0.288-0.864-0.288-0.864-0.359-2.304c1.655-1.656,3.168-4.248,4.536-5.976
		c2.231-1.872,4.464-3.744,6.695-5.544c-3.384,0-10.872,2.016-11.735,5.256c-0.433,0-0.792,0-1.152,0
		c-1.296-7.992,16.92-7.2,21.456-7.416c0.936,0.36,1.151,0.72,1.008,2.16c-0.504,0.216-2.664,0.216-6.408,0.72
		c-4.607,3.456-8.136,5.184-11.088,10.08c0.937-0.288,1.872-0.576,2.809-0.792c2.663-2.16,9.791-11.52,14.76-8.712
		c-0.072,0.36-0.145,0.72-0.216,1.08c-5.904,1.584-8.28,4.464-12.24,8.424c-1.944,1.224-1.944,1.224-5.185,2.664
		C414.494,374.295,414.494,374.295,414.134,374.583L414.134,374.583z"/>
	<path d="M273.95,372.927c-2.88-1.008-5.76-2.016-8.64-3.024c-10.584-1.152-32.688,6.552-39.24-5.184c0-4.392,1.8-3.096,5.688-3.24
		c5.832,1.368,11.448,2.448,18.216,1.944c9-2.016,19.44-4.896,26.568,3.816C277.406,369.615,277.55,372.423,273.95,372.927
		L273.95,372.927z"/>
	<path d="M323.63,372.208c-8.928-6.408,12.888-13.248,17.496-13.824c2.952-0.072,5.904-0.072,8.856-0.072
		c5.688,1.152,11.016,2.952,17.496,2.952c1.296-0.432,12.023-5.472,14.111-1.872c0,10.8-15.695,10.296-22.824,9.504
		c-4.68-1.656-9.071-1.728-13.248-1.872C337.526,367.815,330.83,371.775,323.63,372.208L323.63,372.208z"/>
	<path fill="#FFFFFF" d="M273.734,370.479c-4.752-1.656-8.136-2.736-12.456-3.456c-6.984,0.72-29.232,5.76-32.904-3.456
		c1.152,0.072,2.376,0.144,3.6,0.288c8.856,2.088,15.768,2.52,25.344,0c4.464-0.36,15.192-0.936,17.496,5.4
		c-0.072,0.288-0.072,0.576-0.072,0.864C274.382,370.191,274.022,370.335,273.734,370.479L273.734,370.479z"/>
	<path fill="#FFFFFF" d="M324.134,369.759c-1.008-4.032,11.88-8.352,14.544-9c4.824-0.576,8.856-0.432,14.04,0.216
		c4.608,1.8,11.448,3.24,17.208,1.944c3.528-1.44,5.04-2.376,9-2.376c-0.72,5.112-8.136,6.408-12.168,6.696
		c-2.952-0.36-5.832-0.72-8.712-1.008c-9.216-3.672-20.808-0.432-29.016,3.168C327.374,369.472,325.718,369.615,324.134,369.759
		L324.134,369.759z"/>
	<path d="M160.478,369.543c-1.944-1.08-3.528-2.664-3.528-3.96c1.296,0,2.088,0.576,3.744,1.44
		c5.184-0.288,10.152-2.376,15.12-4.896c6.912-1.152,6.912-1.152,10.584-1.368c-7.128-5.904-21.6-0.288-28.8,1.656
		c-7.704,0-11.304-2.232-16.488-6.48c-1.728-2.16-5.04-3.6-5.04-4.968c0.144-0.216,0.288-0.36,0.504-0.504
		c2.952,0.36,6.696,4.608,9.936,7.128c3.672,1.8,7.2,2.88,12.168,2.232c5.328-1.44,6.408-1.944,12.24-3.384
		c8.064-0.288,10.512-2.088,17.496,3.024c1.368,2.016,6.264,6.48,1.44,7.272c-1.296-1.152-2.52-2.232-3.744-3.312
		c-5.472,0.216-5.472,0.216-8.64,0.72C171.278,366.52,166.598,368.896,160.478,369.543L160.478,369.543z"/>
	<path d="M408.59,358.023c-0.432-5.688,7.561-5.328,11.736-5.904c1.008,0.072,2.016,0.144,3.023,0.288
		c-0.071,0.288-0.144,0.576-0.216,0.864c-3.744,0.288-11.664,1.008-13.248,4.608C409.454,357.879,409.022,357.952,408.59,358.023
		L408.59,358.023z"/>
	<path d="M200.798,346.72c-1.224-1.224-1.224-5.76-1.368-6.912c-0.864-2.304-4.32-7.416-4.32-8.28c0.432,0,0.936,0,1.44,0
		c1.512,1.8,3.024,3.888,4.536,6.768c0.504,2.736,1.08,5.472,1.656,8.28C202.094,346.576,201.446,346.647,200.798,346.72
		L200.798,346.72z"/>
	<path d="M402.614,338.368c0-5.184,12.384-11.592,16.487-13.392c4.536,0,5.545-0.216,6.337-0.072c0,0.36,0,0.792,0,1.224
		c-2.376,0.36-4.753,0.72-7.057,1.08c-5.184,3.024-10.008,5.688-13.536,10.512C404.054,337.936,403.334,338.151,402.614,338.368
		L402.614,338.368z"/>
	<path d="M206.054,337.359c-1.152-0.576-2.016-2.88-2.304-3.384c-2.736-2.736-5.976-3.744-8.784-4.896
		c-4.68-0.576-11.592-0.648-11.592-5.976c0.288,0,0.576,0,0.936,0c2.16,3.024,6.12,3.096,10.224,3.6
		c4.32,1.296,7.776,2.808,11.376,6.696C206.414,334.335,208.718,336.711,206.054,337.359L206.054,337.359z"/>
	<path d="M394.19,325.408c-2.664-1.296,5.399-8.568,5.832-8.928c2.88-1.44,6.12-3.384,9.504-4.464
		c7.416-0.72,7.416-0.72,11.304-0.72c2.736,0.648,6.48,1.512,10.008,1.224c0.072,0,12.024-4.464,10.656-0.936
		c-3.528,0.936-7.056,1.872-10.584,2.88c-7.488,0-14.112-2.376-21.168-0.504c-4.896,2.232-7.992,3.6-11.809,7.2
		c1.08-0.288,1.729-0.72,9.145-2.88c5.112-0.144,10.584,0.504,16.344,0.504c10.368-1.728,10.872-2.016,11.448-1.944
		c0.072,0.144,0.144,0.36,0.288,0.576c-0.576,1.224-10.872,3.096-12.384,3.528c-5.761-0.36-10.729-0.72-15.841-0.72
		c-3.096,0.936-8.783,2.376-10.943,4.536C395.342,324.976,394.766,325.191,394.19,325.408L394.19,325.408z"/>
	<path d="M216.854,320.583c-5.256-3.024-5.256-3.024-6.84-4.248c-6.192-8.136-7.56-17.28-6.048-26.568
		c1.584-6.552,3.024-13.68,1.44-19.8c0.216-4.392,2.376,0.792,2.664,3.024c-0.216,6.336-0.216,6.336-0.72,10.872
		c-1.944,8.136-1.944,8.136-2.16,10.08c0,7.776,0.936,18.504,9.36,22.68c0.072-0.072,0.144-0.144,0.216-0.216
		c-3.816-6.336-1.728-14.112-0.216-20.16c0-5.256,0.576-11.736-1.944-15.768c-0.072-0.432-0.072-0.792-0.072-1.152
		c3.888,0,3.672,14.328,3.672,16.992c-0.864,5.184-1.656,10.008-1.368,15.84C215.342,313.167,220.526,320.08,216.854,320.583
		L216.854,320.583z"/>
	<path d="M224.054,311.439c-3.816-1.872-3.312-10.656-2.016-13.104c0.144-0.072,0.36-0.072,0.576-0.072
		c0,4.68,0.216,7.272,2.736,12.024c-0.144,0.288-0.288,0.648-0.432,1.008C224.63,311.295,224.342,311.367,224.054,311.439
		L224.054,311.439z"/>
	<path d="M381.014,309.784c-1.871-3.744,1.729-6.048,3.96-8.496c1.08-1.008,2.16-2.016,3.312-3.024
		c0.072-0.144,3.672-6.12,5.256-5.616c0,3.528-6.479,9.72-9.072,12.096C383.678,305.967,382.382,309.496,381.014,309.784
		L381.014,309.784z"/>
	<path d="M374.75,308.127c0-5.832,3.888-8.208,7.632-11.952c0.864,0,2.304-0.648,2.304,1.008c-4.896,1.872-6.336,6.408-8.712,10.8
		C375.542,307.983,375.11,308.056,374.75,308.127L374.75,308.127z"/>
	<path d="M232.19,305.463c-7.632-6.336-4.68-14.472-7.056-22.176c-1.224-1.944-2.664-4.536-3.888-5.4c0-0.288,0-0.576,0.072-0.864
		c6.768,0,7.416,15.912,7.848,20.232c0.288,1.512,1.44,3.024,2.52,5.184C232.262,302.872,234.71,304.888,232.19,305.463
		L232.19,305.463z"/>
	<path d="M246.158,298.768c-3.672-2.448,0.072-17.928,3.384-17.928c0,1.224-1.08,3.168-1.656,4.464
		c-0.648,3.672-1.152,6.48-1.44,10.512c0.288,1.656,0.288,1.656,0.216,2.736C246.446,298.624,246.302,298.695,246.158,298.768
		L246.158,298.768z"/>
	<path d="M250.694,296.104c-1.656-3.312,0.648-7.344,1.512-10.152c0.432-3.384,0.72-6.48,0.72-9.288
		c-0.648-3.312-1.872-7.2-1.872-10.224c0.144-0.144,0.36-0.216,0.576-0.288c1.512,0.72,2.736,8.28,3.24,11.088
		c-0.288,4.176-0.288,10.872-2.664,15.048C252.134,293.655,252.638,295.815,250.694,296.104L250.694,296.104z"/>
	<path d="M353.438,292.72c-1.08-1.584,0.863-2.952,1.296-4.104c0.071-2.808,0.144-5.544,0.216-8.28
		c1.152-2.016,1.152-2.016,4.607-6.696c0.36,0,0.721,0,1.152,0c0,2.448-2.088,4.608-3.6,6.768c-0.072,2.304-0.072,4.608-0.072,6.984
		c3.384,0,6.192-12.312,6.84-13.968c2.808-3.816,7.056-7.416,8.856-11.664c0.216-0.072,0.432-0.072,0.647-0.072
		c1.008,1.8-2.735,6.696-4.032,8.568c-0.72,0.504-1.439,1.008-2.159,1.584C364.238,277.456,361.502,291.567,353.438,292.72
		L353.438,292.72z"/>
	<path d="M259.334,290.56c-2.592-1.296-1.8-5.688-1.584-7.272c1.728,0,1.44,1.44,1.656,3.6c0.288,0.648,0.936,1.728,0.936,3.096
		C259.982,290.127,259.622,290.344,259.334,290.56L259.334,290.56z"/>
	<path d="M275.174,287.463c-5.76-5.76-4.824-16.92-3.024-23.616c1.512-2.88,3.024-5.76,4.608-8.64c0.288,0,0.576,0,0.864,0
		c0,2.592-3.456,9.216-4.536,12.6c-0.432,4.032-0.432,7.92,0.504,12.672c0.792,2.16,2.16,4.176,2.16,6.84
		C275.534,287.319,275.318,287.392,275.174,287.463L275.174,287.463z"/>
	<path d="M315.71,285.808c-1.512-3.096,0.36-5.832,0.864-8.784c-0.72-4.608-2.521-8.424-2.376-12.528
		c0.72-1.368,1.296-4.248,3.096-4.032c0.072,0.648,0.145,1.296,0.216,1.944c-2.735,2.736,0.288,9,0.937,12.744
		c-0.072,1.728-0.145,3.456-0.216,5.184c2.664-2.16,1.655-9.648,1.728-12.168c3.528-1.152,1.728,9.72,0.937,12.24
		C319.958,282.135,317.51,285.447,315.71,285.808L315.71,285.808z"/>
	<path d="M342.638,285.087c0-3.456,0.864-6.624,1.009-9.72c1.728-8.64,5.688-11.736,13.104-15.408
		c1.872-1.944,6.264-3.96,7.416-6.264c0.288,0,0.576,0,0.864,0.072c0,2.808-9.288,8.712-11.809,10.008
		c-2.304,1.944-2.304,1.944-3.527,2.52c-2.664,4.464-2.664,4.464-3.168,4.824c-0.792,4.104-0.792,9.936-2.952,13.824
		C343.214,284.943,342.926,285.016,342.638,285.087L342.638,285.087z"/>
	<path d="M281.654,284.368c-0.216-0.144-0.36-0.216-0.504-0.288c0-0.576,0.072-1.08,0.144-1.584c3.312-8.28,1.224-14.4-0.288-22.392
		c0.216-1.44,2.016-13.968,4.608-12.96c0.288,0.864-1.8,8.136-2.16,9.864c-0.216,4.32,0.792,8.496,1.656,13.104
		C285.11,272.416,285.11,283.72,281.654,284.368L281.654,284.368z"/>
	<path d="M295.838,284.08c0-2.88,0.216-5.688,0.072-7.92c-0.432-1.656-2.016-6.048-1.512-7.632c0.288,0,0.648,0,1.008,0.072
		c2.376,6.12,3.024,8.28,1.944,15.12C296.846,283.792,296.342,283.936,295.838,284.08L295.838,284.08z"/>
	<path d="M323.414,283.863c-1.872-1.872,0.864-5.4,1.512-7.056c-0.144-2.232-0.72-5.328,0-6.768c0.145,0,0.288,0,0.504,0
		c0.288,0.504,0.648,1.008,1.009,1.584C327.23,275.007,326.798,281.631,323.414,283.863L323.414,283.863z"/>
	<path d="M358.19,269.463c-0.072-0.504-0.072-0.936-0.072-1.368c1.584-1.368,3.24-2.736,4.896-4.104
		c3.024-3.672,4.32-7.992,6.912-11.736c3.456,0.432-5.04,12.384-7.056,14.616C361.43,267.879,359.486,269.248,358.19,269.463
		L358.19,269.463z"/>
	<rect x="122" y="216.5" fill="none" width="367" height="358"/>
</g>
</svg>
