<?xml version="1.0" encoding="utf-8"?>
<!-- Generator: Adobe Illustrator 14.0.0, SVG Export Plug-In . SVG Version: 6.00 Build 43363)  -->
<!DOCTYPE svg PUBLIC "-//W3C//DTD SVG 1.0//EN" "http://www.w3.org/TR/2001/REC-SVG-20010904/DTD/svg10.dtd">
<svg version="1.0" id="Layer_1_x23_000000" xmlns="http://www.w3.org/2000/svg" xmlns:xlink="http://www.w3.org/1999/xlink" x="0px"
	 y="0px" width="720px" height="720px" viewBox="0 0 720 720" enable-background="new 0 0 720 720" xml:space="preserve">
<g>
	<g>
		<path d="M368.96,499.45c0.58-0.63,2.63-2.05,2.79-1.061c-1.57,2.841-4.77,4.04-6.89,6.32c10.109-5.09,19.77-8.95,26.989-17.8
			C383.32,490.93,373.31,494.02,368.96,499.45z M181.98,88.3c-0.11,0.01-0.22,0.02-0.32,0.05C181.77,88.33,181.87,88.32,181.98,88.3
			z M146.48,408.09c-2.9-2.84-4.82-10.6-9.04-11.92c-1.02-8.229-9.53-11.81-8.61-20.1c-5.11-5.65-7.75-13.38-12.06-19.53
			c-1.3-1.84-3.85-2.76-5.17-4.59c-1.33-1.83-1.41-4.35-2.3-6.32c-3.32-7.33-8.67-13.62-12.06-20.67c1.13-4.46-0.98-9.92-3.44-12.64
			c-2.1,0.37,1.54,2.91-1.15,2.3c0.44-2.16-0.7-2.74-0.58-4.59c1.08,0.65,2.77,0.68,2.3,2.87c2.2-3.56-2.4-5.24-2.3-8.62
			c-1.73,0.18-1.07,2.42,0,2.88c-3.94-1.04-6.09-8.83-8.61-13.21c2.59-1.42,2.08,5.18,4.02,6.31c1.79-4.65-2.33-9.55-2.87-13.78
			c-2.45,1.11,0.53,4.68,1.15,6.32c-2.43,0.31-3.78-5.4-4.6-8.61c1.25,2.51,2.88-0.41,1.72,2.29c0.86,1.9,0.68-1.92,2.3-1.15
			c-0.09,1.82,1.53,1.92,1.15,4.02c1.66-5.41-4.48-12.66-5.74-18.95c-0.7,3.77,1.23,9.86,2.29,13.79
			c-7.37-10.89-5.76-29.4-10.33-44.8c0-1.53,0-3.06,0-4.59c3.32-2.72-1.16-9.69,1.15-13.21c0.36,1.74-0.74,4.94,0.57,5.74
			c0.76-14.9-0.75-18.48,3.45-31.58c0.8,2-1.62,3.67,0,4.59c0.85-5.66,4.17-11.9,4.02-16.65c-1.48,2.35-1.57,6.08-3.45,8.04
			c-0.8-3.93,2.96-7.27,2.88-10.79c0-0.04,0-0.09-0.01-0.13c0,0.04,0,0.09,0.01,0.13c-0.04,0.71-1.67,1.77-1.73,0.45
			c0.68-5.26,3.89-7.98,4.59-13.21c1.44,4.01-0.91,7.98-0.57,10.34c0.99-2.19-0.05,2.23,1.15,1.72c2.7-6.84,0.77-15.58,5.17-21.25
			c0.22-1.94-2.55-0.9-1.73-3.44c5.67-19.66,18.15-36.81,32.16-49.97c-2.16,7.66-7.91,9.22-12.63,14.93
			c-0.04,5.52-4.21,6.89-5.74,10.92c3.55,5.63-4.65,7.97-6.32,12.06c0.85-2.8,3.67-6.65,3.44-8.62
			c-3.39,8.33-12.52,17.35-5.74,27.57c4.45-14.12,13.06-24.08,19.53-36.18c-3.22,1.38-4.16,8.09-7.47,7.46
			c4.14-6.01,9.37-13.98,13.21-18.37c-1.63,2.4-4.05,7.04-4.02,9.18c0.58-0.76,0.54-2.13,1.72-2.29c-0.13,1.44-2.91,3.16-1.72,4.02
			c3.89-6.26,7.04-13.26,12.63-17.81c0,1.21-3.12,2.16-1.72,2.88c8-8.06,12.6-14.43,23.55-17.23c1.69-1.22,0.12-2.14,1.72-3.45
			c12.58-5.53,22.22-16.01,39.62-14.93c-0.85-0.67-2.34-0.71-2.87-1.72c19.54-2.54,39.21,2.77,55.13,7.46c0,0.76-1,0.53-1.14,1.15
			c1.98-0.23,3.97,2.49,5.16,1.15c-0.62-0.14-1.37-0.95-0.57-1.15c0.61,1.49,3.41,0.81,4.02,2.3c-1.43,0.75-2.38-1.69-2.87,0
			c5.34,1.74,11.03,3.13,14.36,6.89c-1.4,0.07-4.85-2.67-4.02-1.15c1.99,1.1,4.76,2.09,1.14,2.87c1.46,0.92,5.54,1.97,8.62,4.02
			c3.73,2.48,10.57,10.46,6.89,5.17c5.72,3.66,9.86,8.9,12.63,15.51c17.63,19.83,28.86,48.67,25.85,87.29
			c2.72-3.19,14.95-9.18,11.48-14.93c1.33-2.96,4.62-2.22,7.47-4.6c3.81-3.17,10.46-16.01,15.83-16.62
			c-1.37,0.32,2.49,2.78,1.4,1.12c12.24-7.09,22.49-19.24,34.451-24.7c-1.15,3.89-7.95,5.04-8.57,7.83
			c0.29-0.97,1.54-0.97,2.26-1.51c-1.1,1.78-3.3,2.44-4.02,4.59c5.529-1.73,6.75-7.8,13.779-8.04c0-0.95,0-1.91,0-2.87
			c3.21,0.96,6.37-2.71,9.19-4.02c-4.23-1.88-6.26,4.68-10.34,1.73c8.989-3.78,18.71-8.29,28.14-10.34
			c5.89-1.28,12.66-1.19,18.95-2.87c7.399-1.98,13.49-7.41,19.53-8.04c7.949-0.84,15.149,3.04,22.97,2.87
			c-1.23,0.15-6.13-0.45-4.59,0.57c2.84,0.03,6.18-0.44,6.89,1.73c-1.49,0.1-3.85-1.84-4.6-0.58c1.62,2.4,5.46,2.59,9.189,2.87
			c1.391-1.72-0.819-2.41,0-2.87c8.58,1.57,17.55,2.74,21.25,9.19c1.01,0.33,3.37-0.69,3.45,0.57c-0.86,0.1-2.13-0.2-2.3,0.58
			c9.29,2.77,14.46,9.65,22.97,13.21c-0.91,1.42-3.95-2.89-5.17-1.15c0.46,0.06,1.74,1.9,0.58,1.72c-3.08-1.33-6.22-5.64-9.19-5.17
			c0.681,4.17,4.12,3.2,6.891,4.6c8.55,4.33,14.63,13.78,21.819,20.67c7.21,6.91,19.71,12.67,19.53,23.55c-0.58,0-1.149,0-1.729,0
			c0.71,2.55,2.89,6.66,4.6,6.31c-1-0.38-1.84-3.84-1.15-4.02c1.83,2.81,5.101,6.44,4.021,10.34c0.729,1.56,2.78,1.81,3.439,3.45
			c0.921,6.36,2.7,11.84,5.75,16.08c0.101,5.06,1,9.34,3.44,12.06c-0.51-1.68-0.51-1.77,0-3.45c1.46-0.62,2.23,2.69,2.3,0
			c0.55-8.98-4.96-11.89-6.89-18.38c3.42,2.14,4.439,6.66,6.32,10.34c-0.03-0.61,0.27-1.46,0.569-0.57
			c3.7,5.34,1.74,13.55,2.87,20.67c3.15-2.08-1.11-7.7,1.15-8.61c0.439,6.83,4.2,10.35,5.739,16.08c0,1.72,0,3.44,0,5.16
			c-0.489,0.11-0.539-0.22-0.569-0.57c-2.931,0.46-2.32,9.2-1.15,13.21c0.32-0.83,0.9-1.4,1.72-1.72c0,1.72,0,3.44,0,5.17
			c-1.72,1.15-1.369,6.78-3.439,5.74c0.68,1.61,0.63,3.96,0.57,6.32c0.779-0.18,0.479-1.44,0.58-2.3
			c1.869,5.88-2.771,10.22-4.021,14.91c0-5.09,4.4-12.79,2.29-20.08c-0.77,0.38-1.07,1.23-1.15,2.3c-1.5-1.92,0.82-4.91,0-8.04
			c-0.529,0.42-0.869,1.04-1.14,1.72c-1.54-1.68,1.49-8.68-1.729-7.47c0.38-8.41,1.67-19.27-1.15-27.56
			c-0.78,0.18-0.47,1.44-0.57,2.29c-0.7-0.75-1.01-1.89-1.3-3.05c-0.08-0.51-0.21-1.02-0.42-1.54c0.15,0.5,0.28,1.02,0.42,1.54
			c0.57,3.67-1.87,7.09-2.15,11.09c-0.46,6.65,4.271,13.52,2.881,21.83c-1.021,1.44-0.95,0.4-2.301,1.15
			c-0.649,8.56,1.82,13.56,1.721,23.54c3.54-6.07,1.12-12.65,1.72-20.1c4.5,5.41-0.771,19.63,1.15,24.12
			c0.92,0.23-0.681,2.71-1.15,3.45c0.97,1.33,2.15,2.44,2.3,4.59c-1.5,0.16-2.87,0.2-2.3-1.72c-3.89,4.76,1.27,8.12-1.14,14.36
			c-1.271-0.08-0.25-2.44-0.58-3.45c-1.261,1.42-2.12,3.24-2.87,5.17c-1.15-4.14-0.15-9.65,0-13.21c-0.141-1.48-0.99,0.79-2.3,0
			c-1.04-1.4,2.489-4.34,0-5.74c-3.33,3.71-4.301,11.67-2.87,18.37c0.91-1.57,1.239-3.73,2.3-5.16c1.12,2.14,0.189,9.36,2.3,8.61
			c1.1,0.06-0.68,1.92,0,3.45c-2.81-0.56-3.16,5.93-4.02,9.18c-2.21-0.66-0.721-5.03-1.15-7.46c-1.86,3.12-3.94,6.01-6.32,8.61
			c1.311,3.45-2.42,8.71-5.17,8.04c-0.92,0.81-1.47,1.98-1.72,3.45c-1.75-0.71,0.62-1.98,0-3.45c-1.85-0.12-2.43,1.02-4.6,0.58
			c-0.311,1.8-4.23,5.43-1.721,6.31c-4.54,10.58-15.31,14.94-16.649,28.72c0.83,1.521,1.279-2.109,3.439-1.149
			c0.5,1.83-0.899,1.779-1.149,2.87c4-1.36,4.689-6.03,7.47-8.61c-0.86-1.73-1.03,1.97-2.3,1.72c-0.84-0.42,4.56-4.13,4.6-7.47
			c-1.54-1.49-1.229,3.729-3.45,3.45c2.33-7.051,8.45-10.311,11.49-16.65c1.271,0.07,0.24,2.43,0.57,3.44
			c1.35-1.73,4.43-4.74,2.87-7.46c1.51-0.8,1.979-2.62,4.02-2.88c-1.08,3.52-2.03,7.16-4.02,9.77c0.12,0.62,0.88,0.6,1.09,0.22
			c-1.13,4.7-4.681,8.471-9.7,11.26c-5.17,5.36-6.56,14.5-12.64,18.95c-1.351-0.16,0.659-1.529,0.58-2.29
			c-0.671,0.09-1.021-0.13-1.15-0.58c-4.88,0.67-3.62,7.48-8.04,8.62c-0.5-2.22,1.4-2.05,1.72-3.45
			c-11.93,4.351-14.12,23.4-26.41,29.29c-0.56-0.02-0.449-0.699-0.579-1.149c-10.061,7.93-18.091,17.899-32.16,21.82
			c0.51-1.61,3.649-3.591,2.3-5.16c4.05-1.311,7.05-3.67,10.91-5.17c-2.61-1.551,2.79-2.23,4.02-3.45
			c-0.37-0.58-1.319-0.59-1.149-1.72c8.069,0.22,6.81-8.891,12.64-10.91c-1.07,2.949-1.81,6.239-4.021,8.04
			c2.601-1.23,7.11-5.521,9.761-8.62c2.37,1.56,8.81-6.57,10.91-10.91c-5.73,3.46-9.381,9-15.511,12.06
			c2.34-2.84,4.19-6.149,5.17-10.34c-0.449-1.27-2.01-1.43-2.869-2.29c-3.091,4.181-7.811,6.74-10.91,10.91
			c3.39,0.74,6.37-4.52,6.319-3.45c-0.79,1.511-2.42,2.181-2.87,4.021c-10.699,4.62-16.529,14.109-29.869,16.08
			c-1.96,6.649-7.25,9.97-13.2,12.64c0.39,2.6,3.189,3.021,4.59,2.87c3.88-0.42,1.85-3.26,4.02-6.89
			c2.181-3.66,6.561-4.471,6.891-6.891c1.02,0.42,0.08,1.04,0,1.72c3.29-0.659,5.05-5.51,8.04-4.6c-1.65,2.57-4.08,4.34-6.32,6.32
			c-0.17,1.17,1.66-0.12,1.73-0.57c-0.07,3.19-7.771,3.71-9.19,7.46c2.6,0.96,5.88-5.08,9.19-3.439
			c-2.65,5.39-12.12,3.96-14.36,9.76c-5.54,1.93-8.17,6.76-11.49,10.91c-1.55-0.521,1.32-1.28,1.15-2.301
			c-4.19,3.101-7.66,5.08-11.48,7.471c2.86-4.09,9.49-5.82,12.63-11.49c-2.699,1.33-9.159,3.86-10.34,8.62
			c-3-0.71-3.649,0.939-5.74,1.149c2.24-9.18,14.86-9.72,20.101-17.229c-7.01,2.18-14.62,8.729-22.4,12.06
			c0.011,4.601-1.88,7.311-1.72,12.061c-6.98,5.399-15.25,7.99-22.97,11.479c0-0.569,0-1.14,0-1.72c-2.431,1.21-4.3,2.97-6.32,4.6
			c2.33-5.149,11.79-8.13,17.81-11.489c1.461-0.03,0.7,0.43,0.57,1.149c3.5-0.72,6.4-2.02,7.46-5.17c-4.38-1.13-8.1,3.37-12.05,4.59
			c2.54-4.35,9.89-3.88,10.33-10.33c-0.25-0.51-0.5-1.029-1.15-1.149c-3.47,0.16-3.76,3.51-6.31,4.59c0.479,1.69,1.439-0.74,2.87,0
			c-4.58,5.57-11.561,8.74-17.23,13.21c-1.66-0.32,0.88-0.89,0.57-1.72c-2.51,0.74-3.61,2.899-5.16,4.59
			c0.18-1.86-6.939,0.64-6.9,4.02c2.4,1.79,3.61-2.5,5.75-2.869c-2.3,2.489-3.649,5.93-6.899,7.47c-1.22,0.26-1.09-0.82-1.14-1.73
			c-1.771-0.42-1.11,1.58-2.87,1.15c0.319,0.83,0.89,1.399,1.72,1.729c-7.6,4.65-17.58,6.91-25.271,11.48
			c0.54-2.83-0.609-3.98-3.45-3.45c2.59-1.05,5.121-2.16,7.47-3.439c-6.67-2.301-13.62,5.17-18.95,8.609
			c1.49,2.45,4.51-1.97,7.46-1.72c-1.33,0.97-1.83,2.76-2.87,4.02c-3.57-1.899-8.67,1.95-10.91,4.021c2.68-0.38,5.04-1.08,6.32-2.87
			c-2.32,4.39-10.05,8.32-16.08,10.91c-0.19-1.11,2.74-2.5,1.15-5.74c1.59-1.479,4.19-1.93,5.74-3.45c0.45,2.15,6.57-2.3,6.89-5.739
			c-3.78,1.38-5.06,5.27-9.19,6.319c-1.18-0.16-0.13-2.55-1.72-2.3c-4.96,1.93-10.19,3.59-13.78,6.89c2.3,0.94,3.47-3.64,8.04-2.3
			c-6.83,2.94-10.23,9.3-17.23,12.061c0.55-2.521,6.45-4.641,8.04-8.04c-3.2-0.15-9.61,3.84-9.76,5.75c0-0.101,1.62,0.09,1.72,0
			c-2.7,2.63-5.76,2.779-8.62,5.739c0.77,1.46,2.55-0.84,4.02-0.569c-2.14,2.64-4.8,4.76-6.31,8.04c-1.2,0.239-1.52-0.4-2.3-0.58
			c-7.49,4.38-15.63,8.109-20.67,14.93c-5.14,1.95-10.7,3.47-14.36,6.89c1.3,2.23-0.43,2.91-1.72,4.021c-1.72-0.37,0.55-1.22,0-2.29
			c-7.13,5.31-13.48,11.4-21.83,15.5c2.9-4,7.08-6.71,10.91-9.76c0.56,0.01,0.45,0.7,0.58,1.149c3.01-1.21,4.01-4.41,6.89-5.75
			c-0.46-1.319-2.7,0.301-2.87,1.15c-1.35-2.89,3.77-4.25,4.59-6.89c-5.51-0.141-6.56,9.13-12.06,10.909
			c-0.83-2.75,4.55-4.25,5.17-7.46c-7.28,3.63-12.2,9.61-16.08,16.65c2.02,0.28,2.04,2.56,3.45,3.45c-1.84,2.18-3.54,4.5-7.47,4.59
			c1.94-3.93,1.91-6.34,3.45-10.33c-0.21-0.76-1.01-0.91-1.15-1.73c-3.44-1.359-3.07,4.03-2.88,4.03
			c-4.06,5.95-11.84,8.09-14.35,16.07c4.06-1.68,8.22-3.26,10.91-6.32c0.03-1.55-1.21-3.22-1.72-1.14
			c-1.19-1.79,2.86-3.25,4.02-4.601c0.41,0.631-1.84,4.591-1.15,5.74c-4.29,6.811-14.47,7.74-19.52,13.79
			c-1.61-0.74,1.8-1.189,1.14-2.87c-5.96,1.5-6.8,8.13-10.33,12.061c0-0.96,0-1.92,0-2.88c-7.7,0.35-9.49,6.6-12.64,11.489
			c-0.8-0.199-0.05-1.01,0.58-1.149c-0.07-1.4-1.9-0.12-1.73,0.58c-1.36-2.91,3.62-4.42,4.6-6.9c-1.28-3.979,1.39-5.34,2.87-8.04
			c-0.15-1.17-1.18,0.14-1.58,0.86c5.5-12.09,21.16-21.811,25.7-34.74c3.28-2.84,5.92-6.32,8.61-9.76
			c-8.91,4.68-11.37,15.81-20.1,20.67c0.7-1.41,2.68-1.53,2.88-3.44c-8.06,3.24-12.08,10.511-17.23,16.65
			c0.51-0.25,1.02-0.5,1.14-1.15c-0.06,2.25-4.82,4.74-6.31,7.471c-0.49-1.46,2.96-3.91,4.02-5.74c-3.05,0.97-6.53,6.479-8.04,10.91
			c0.37-0.19,0.74-0.37,0.96-0.7c-1.19,2.76-3.55,8.37-3.83,13.33c-1.28-1.67,0.71-4.05-0.58-6.32c1.42,1.67,1.02,0.69,0.58-1.14
			c-2.82,0.63-3.31,3.58-5.17,5.16c-1.78-5.551,8.48-6.641,5.74-13.2c-1.76,0.34-1.46,2.75-2.87,3.439
			c-0.37-5.93,6.23-8.84,6.89-14.35c-1.11,0.229-0.05,2.63-2.3,1.72c0.53-6.37,1.65-12.14,1.15-19.53
			c3.32,2.511,1.83,7.73,1.72,12.641c0.86,1.89,0.68-1.92,2.3-1.15c0.89,2.62-0.45,2.431-0.57,5.17c2.81-0.069,5.08-5.64,7.46-8.04
			c-0.05-0.43-2.24-0.43-2.29,0c-0.14-1.68,3.1-4.92,5.74-5.75c0,0.58,0,1.15,0,1.73c1.86-1.2,3.74-2.39,5.74-3.45
			c-0.43-3.22,1.42-8.83,5.17-9.76c-0.71,1.2-1.59,2.24-2.3,3.439c3.49-3.81,10.33-4.13,9.77-13.21
			c4.76-4.229,11.18-6.81,14.35-12.63c1.46,3.01-3.18,4.84-2.87,8.62c7.78-1.99,8.62-10.91,13.78-15.51
			c-0.26-0.72-1.3-0.16-2.07,0.58c4.84-5.91,17.78-6.8,21.6-16.09c5.44-0.301,6.98-4.5,10.91-6.311c1.54,1.021-2.23,1.55-2.3,2.87
			c1.69,0.15,1.77-1.3,3.45-1.15c-0.69,2.181-3.98,1.761-4.59,4.021c13.48,0.17,22.67-12.01,35.6-17.23
			c3.82-9.01,15.53-10.119,21.25-17.229c1.11,0.6-1.52,4.9,2.3,4.02c-2.76,3.95-7.56,5.851-13.21,6.891
			c11.01,2.18,15.27-11.24,24.69-14.351c-0.23-1.109-2.22-0.46-1.72-2.3c8.96-0.229,15-14.12,24.69-9.76
			c8.811-3.07,11.13-12.62,22.4-13.21c2.83-4.25,4.64-9.53,11.489-9.76c-0.21,0.75-1.01,0.899-1.149,1.72
			c8.56-5.03,15.939-11.24,24.689-16.08c0.681,0.09,0.49,1.04,0.58,1.72c9.11-0.84,16.86-3.04,22.391-7.46
			c-0.23-1.109-2.63-0.05-1.721-2.3c-1.899-0.52-2.489,3.19-3.439,1.72c1.22-2.779,7.12-12.89,13.2-12.63
			c-1.87,2.91-6.19,3.37-7.46,6.891c1.76-0.471,4.71-2.471,5.17,0.569c5.67-3.24,6.97-5.109,11.479-8.04
			c-0.72,5.931-6.18,8.771-10.34,14.931c6.08,0.34,6.05-10.41,13.21-10.91c1.63-0.86,2-2.971,2.3-5.17
			c5.65-1.23,6.561-7.221,9.761-10.91c-4.351,3.31-12.75,7.53-17.801,12.06c5.351-6.77,10.44-10.26,16.08-16.649
			c4.11-0.67,9.05-3.96,12.061-7.471c-0.09-0.38-0.32-0.409-0.55-0.279c2.899-3.771,9.449-7.69,10.89-14.07
			c7.02,0.69,7.32-6.71,11.479-10.34c1.28,2.06-2.609,3.88-2.869,6.32c4.329-2.19,9.189-8.811,12.06-14.36
			c-0.25-0.85-0.73,0.23-1.72,0c1.6-1.84,3.31-3.58,4.02-6.32c0.54-0.35,2.12-1.33,1.72,0.58c1.601-1.85,2.24-4.66,4.021-6.32
			c1.14,1.55-1.57,4.15-2.29,5.74c4.64-2.82,7.9-7.02,10.33-12.06c0.56,0.02,0.45,0.7,0.58,1.15c1.2-0.52,1.75-1.69,1.72-3.45
			c-0.13-0.82-1.71-0.2-1.72-1.14c-2,2.21-2.57,5.85-6.32,6.31c-0.8-2.74,3.84-3.01,1.72-5.17c1.25-0.18,4.45-1.58,5.17-4.02
			c-0.939-0.77-1.92,1.04-4.02,0c0.75-7.94,7.87-5.23,5.74-13.2c3.609,3.28,2.66,7.85,0.58,12.06c0.37,1.06,1.64-1.75,2.29-2.3
			c1.26,0.55-1.801,3.34,0,4.59c6.06-4.45,1.89-11.03,2.88-17.23c1.58-0.81,2.729-1.72,2.29-5.74c-4.24-1-4.67-6.4-4.59-9.76
			c0.14-5.77,3.979-14.09,5.17-22.97c1.239-9.34-1.48-18.8,0-25.27c0.37-0.98,1.319-0.36,1.149,0.57c0.33,0.7,2.16-0.37,3.44,0.58
			c0.479,1.43,0.75,3.07,0.58,5.17c-5.83-0.03,1.26,10-3.45,10.33c3.84,2.97,0.76,8.26,1.72,12.64c0.47,1.44,3.03,0.8,4.021,1.72
			c0.489,1.43,0.76,3.08,0.58,5.17c-2.66-1.11-4.33,3.18-5.17,5.74c-1.721-2.45,0.38-8.59-0.58-10.33
			c-4.221,3.09,0.729,15.48-4.591,16.07c-0.84,7.67,6.74,10.01,9.19,16.08c5.27-8.25,6.99-22.75,9.19-33.3
			c0.779-3.77,4.569-7.66,0-10.92c-2.301,0.96-0.65,5.86-1.15,8.62c-1.3,1.1-2.04,1.02-2.87,3.45c-0.64-5.95,2.09-16.53,0-22.4
			c2.021,2.77,3.4,6.17,4.59,9.76c1.25,0.1,0.26-2.04,0.58-2.87c0.95-0.92,0.43,4.52,1.141,5.74c2.579-7.73-3.33-14.38-3.44-22.97
			c2.01,2.01,2.75-6.64,1.72-9.76c-1.87,1.77-4.25-4.59-5.17-7.47c1.351,0.19,1.29,1.78,2.3,2.3c0.24-8.73-3.84-10.85-0.569-17.23
			c-1.551-0.78-2.23-2.02-4.021-1.15c-1.649-6.19-2.71-13.4-9.77-15.5c-4.03-6.11-7.15-13.14-12.061-18.38
			c0.49-1.43,0.75-3.08,0.58-5.17c-2.34-3.02-6.26-4.46-9.76-6.32c0.54,2.9,3.76,3.13,6.31,4.02c0,1.73,0,3.45,0,5.17
			c-2.76-4.47-7.67-6.24-10.34-10.91c-3.399-5.96-3.56-14.19-14.35-14.36c-2.44-6.39-12.99-9.58-21.25-12.06
			c0.18-0.78,1.439-0.47,2.3-0.57c-5.8-5.44-17.68-0.42-24.7-2.87c1.61-1.08,4.271-1.09,5.74-2.3c-0.78-0.93-3.96,0.59-6.31,0
			c0.369-1.73,2.609-1.6,3.439-2.87c-0.88-1.4-4.34-0.56-4.02,1.15c-1.271-0.45-2.24-1.21-4.021-1.15
			c-4.979,2.82-9.76,1.71-16.649,4.02c-0.21,2.43,2.489,0.5,3.439,0.57c-3.99,4.72-13.439,1.38-19.52,4.6
			c-0.98,0.21-1.08-0.45-1.15-1.15c-14.67,3.34-25.11,13.91-39.05,16.08c-6.41,3.74-11,9.29-17.23,13.21
			c-0.979-1.49-14.88,6.5-17.229,11.48c-0.66,0.1-1.02-0.12-1.15-0.57c-12.51,8.73-20.41,22.08-28.71,35.03
			c-1.28-0.59,0.75-2.64,0-4.59c-3.41,3.47-5.45,8.32-6.32,14.35c-0.67-0.09-0.48-1.04-0.57-1.72c-7.18,4.12-5.09,17.5-8.62,25.27
			c-1.28-0.25-0.23-2.83-0.57-4.02c-1.18,0.93-1.45,2.76-2.3,4.02c-1.03-0.98,3.42-6.05,2.87-10.34c-2.95,5.85-4.8,12.81-8.04,18.38
			c-0.87-3.37,2.78-7.17,3.45-10.91c-2.17,1.19-1.47-0.78-3.45,2.29c0.67-3.08,1.22-5.48,1.73-10.91
			c1.19-12.63,10.19-20.7,11.48-33.3c-2.49-1.73-0.31-4.61,0-8.04c0.46-5.09-2.32-13.12-1.72-18.38
			c1.27-11.16-4.25-23.99-9.76-33.31c2.51-0.2,4.14,5.42,5.74,8.04c-0.86-5.84-6.15-12.22-8.61-18.38
			c-1.29,2.27,2.73,4.14,2.29,7.47c-7.58-11.65-11.9-24.9-21.82-33.88c-8.01-7.26-18.74-11.08-26.99-18.38
			c0.16-1.36,1.53,0.66,2.3,0.57c-0.6-2.27-3.62-2.12-5.17-3.44c-0.66,0.13-0.6,0.99-0.13,1.12c-10.24-1.99-23.86-10.41-36.63-8.01
			c1.21-1.13,4.07-0.19,3.45-1.73c2.87-0.38,4.44,0.54,6.89,0.58c-21.62-4.98-38.99,6.72-53.98,10.33c0.07,0.32,0.29,0.47,0.54,0.48
			c-7.15,5.58-18.92,11.03-25.24,19.05c0.54-0.35,2.12-1.34,1.73,0.57c3.87-2.44,6.79-5.84,9.76-9.18c0.23,1.77-3.36,4.66-5.17,6.31
			c5.81,0.93,6.53-7.07,13.21-8.61c-0.34-1.29-2.35-0.27-2.8,0.41c0.8-1.72,5.1-4.36,7.97-5.58c-0.49,1.81-2.96,1.63-3.45,3.45
			c3.63-0.9,3.01-3.78,5.17-5.17c1.01,0.32-1.17,2.22-1.15,3.44c3.87-3.21,8.07-6.09,12.64-8.61c0.02,2.51,2.85-1.42,5.74-1.15
			c-0.01,0.27-0.17,0.38-0.38,0.44c-0.14,0.02-0.27,0.05-0.4,0.07c0.14-0.02,0.28-0.03,0.4-0.07c8.98-1.56,20.21-5.13,31.39-3.31
			c0.3,0.46,0.6,0.93,0.57,1.72c5.26,0.24,10.58-1.84,13.21,1.72c-0.7,1.75-1.97-0.62-3.44,0c1.34,2.55,7.58,2.33,8.04,1.73
			c8.68,1.46,19,6.27,24.69,12.63c-2.65-1.37-4.47-3.56-8.04-4.02c2.84,2.34,6.16,4.18,9.19,6.32c3.05-1.72,9.87,6.7,13.78,9.76
			c-1.06,1.11-1.05,0.46-0.57,2.3c-9.78-9.75-22.44-16.61-33.88-24.7c-0.9,0.21,0.5,1.02-0.58,1.15c-1.47,0.27-3.25-2.03-4.02-0.57
			c0.12-1.86-1.46,0.24-1.72-1.72c-25.3-6.68-59.52-0.96-72.93,13.2c-3.39,1.4-7.04,2.54-8.62,5.75c-3.26,0.57-5.02,2.63-6.89,4.59
			c-0.85-0.25,0.23-0.73,0-1.72c-6.54,6.97-10.53,14.28-17.23,20.1c0.02,0.56,0.7,0.44,1.15,0.57c-1.27,2.75-3.56,4.48-5.74,6.32
			c2.38,3.98-9.95,9.93-8.62,16.65c-3.78-0.99-2.29,6.42-4.02,9.19c-0.09-2.59-1.47-1.21-1.72,1.73c-0.51-4.4,0.92-9.85,1.72-13.79
			c-2.89,2.66-4.27,6.84-4.59,12.06c1.01-0.52,1.05-2.01,1.72-2.87c1.12,5.24-1.08,9.53-2.3,14.93c-1.28-0.24-0.23-2.83-0.57-4.02
			c-4.07,4.49-3.53,15.95-8.61,14.93c-1.13,9.64-5.73,20.48-2.88,30.44c3.52-4,2.05-7.07,1.15-12.06c0.47,0.11,0.58,0.58,1.15,0.58
			c-1.88-4.82,0.96-6.98,1.72-9.77c0.23-0.82-0.49-2.31,0-3.44c0.2-0.46,0.99,2.17,0.58,2.29c2.05-0.62,0.17-7.74,2.3-8.61
			c1.63,1.96,0.89,5.16-0.58,6.89c1.99,2.63-5.4,15.98-2.87,26.99c-0.46-0.3-0.93-0.6-1.72-0.57c-0.85,4.17,2.61,5.9,0,8.61
			c-0.78-0.18-0.48-1.44-0.58-2.29c-1.04,11.78,1.91,18.67,3.45,31.01c1.82,14.62,7.06,28.95,10.34,41.34
			c1.57-1.23-0.2-3.97-0.58-5.16c1.38,0.54,2.93,5.87,4.02,8.61c-1.66-0.26-1.36-2.47-2.87-2.87c3.74,7.39,8.1,10.96,8.61,20.1
			c-5.51-5.23-6.85-11.92-10.33-18.38c2.58,7.37,4.93,19.96,14.93,21.82c5.11,8.22,8.44,17.49,12.63,25.27
			c-4.04-3.04-4.82-9.34-8.61-12.63c2.67,5.36,7.17,13.88,11.48,19.52c0.49-2.19-1.35-2.04-1.7-3.39c0.59,0.49,6.2,4.1,4.58,6.84
			c4.19,3.01,7.07,11.46,9.76,17.8c-0.47-0.11-0.57-0.57-1.15-0.57c1.65,0.78,2.66,2.271,4.02,4.59c-0.83,1.15-2.31-0.89-1.72,2.301
			c-1.01-1.29-1.37-3.23-2.3-4.591c0.23,6.351,4.74,10.431,7.47,15.5c-0.86-3.439-2.87-5.819-2.88-8.609
			c2.34,2.89,3.6,8.64,6.32,13.78c-1.24,1.199-1.81-3.141-3.44-3.45c-0.76,1.74,2.93,3.95,3.44,6.319
			c0.87-1.729,0.04-5.01-1.72-6.89c3.13,1.85,6.05,8.88,7.46,14.36c-1.88-1.561-4.53-2.36-4.59-5.75
			c-0.62,0.149-0.39,1.149-1.15,1.149c-0.5,1.86,2.41,5.24,2.3,8.62c0.78-0.18,0.47-1.439,0.57-2.3c3.63,7.56,7.23,14.54,8.62,22.97
			c1.87-2.39,4.78,7.391,5.16,9.761c1.35,8.38,6.03,18.899,7.47,28.72c0.46,3.14,1.03,6.18,2.87,8.04
			c-0.57,7.29,2.96,14.88,2.87,23.54c0.42,2.08-0.99,2.08-0.57,0c-0.6-3.221-1.36-6.29-1.72-9.761c-1.7,2.851-1.82-2.729-2.3-4.59
			c0.14,5.95,1.08,17.96,6.89,18.37c0,2.49,0,4.98,0,7.47c-1.93-2.279-2.64-5.779-4.59-8.039c0.64,5.289,1.38,15.46,3.44,21.25
			c1.04-2.011,0.85-7.721,0-9.771c-0.56,0.021-0.44,0.71-0.57,1.15c-1.3-0.42-0.23-3.221-0.58-4.591
			c5.21,5.771,1.19,16.08,1.73,25.271c-2.49-6.89-0.46,9.27,0,12.06c-4.27-2.189-1.9,10.15-2.88,13.78
			c-0.4-1.51-0.74-3.12-1.04-4.82v-0.01c-0.02-0.3-0.06-0.58-0.14-0.819c0-0.011,0-0.011-0.01-0.021
			c-2.32-13.93-2.1-33.19-6.27-46.01c-1.66,4.92,2.73,8.74,1.72,14.93c-0.77,3.58-0.59-2.87-0.57-2.88
			c-2.02,0.08,1.53,24.83,1.15,25.27c-0.47-0.109-0.58-0.569-1.15-0.569c0.57,6.75,1.71,12.47,0.57,19.52
			c-3.28-1.47,0.94-8-0.57-13.2c-1.79,0.12-0.97,2.851-1.15,4.591c-2.44-4.891-0.47-16.311-1.72-23.54
			c-2.96,1.569-0.92-7.04,0-9.771c-3.82-4.2-2.03-8.81-2.3-14.93c-0.81-1.49-1.94-2.65-2.87-4.021
			c-0.41-5.149-0.76-10.35-2.3-14.359c-0.69-0.66-0.22-1.45,0-0.57c1.1,1.2,1.85,2.74,2.3,4.59c1.35-4.04-0.86-9.47-3.45-11.479
			c-2.46-11.54-5.16-23.67-9.19-35.03c1.68,0.71,2.39,2.08,2.87,5.17c-0.09-19.46-12.04-36.43-18.95-52.84
			C143.87,407.83,145.66,407.48,146.48,408.09z M78.86,232.51c-1.69,2.35-0.68,7.59,0,10.9c-0.37-2.46,2.48-2.14,1.73,0
			C82.24,238.74,78.86,235.89,78.86,232.51z M562.98,300.84c0.71-3.32,3.22-7.88,2.3-10.91c-0.09,0.67,0.1,1.63-0.57,1.72
			c0.04-4.39,0.62-10.61-2.87-9.76c0.061,4.02,3.67,13.15-0.58,16.65c-0.41-2.54,1.74-5.5,0-7.46
			c-0.66,7.57-4.689,14.83-3.439,22.39c2.47-4.41,2.56-11.21,5.16-15.5C563.46,299.33,561.69,302.19,562.98,300.84z M537.14,351.38
			c0.841-2.05,4.62-4.17,3.45-6.32c-0.06,1.46-2.24,1.46-2.3,0c3.04-0.04,2.53-6.64,2.3-8.04
			C538.31,340.3,535.96,346.55,537.14,351.38z M521.64,382.39c2.57-7.13,12.13-12.899,14.931-19.529
			c-3.011,2.17-6.78,6.609-10.91,5.739c0.75-3.649,5.02-6.83,5.16-9.18C525.83,364.76,522.09,374.42,521.64,382.39z M509.58,381.24
			c-5.3-0.19-7.44,4.83-10.91,8.04c0.67,0.09,1.62-0.101,1.72,0.569c-8.27,3.79-14.72,9.41-20.1,16.08
			c-5.84,2.21-9.57,9.58-12.06,13.21c2.289-1.34,3.149-4.12,6.31-4.59c-0.38,1.33-1.9,1.53-2.29,2.87c3.16-1.35,0.95,0.58,2.87,1.72
			c3.28-1.689,5.58-4.37,7.46-7.46c-1.021-0.35-2.38,1.681-2.87,0c-0.27-1.81,0.72-2.35,1.73-2.88c1.939,2.72,8.22-2.22,7.46-4.02
			c-0.7,3.069-5.32,1.729-6.32,2.3c1.78-2.05,3.52-4.14,5.75-5.74c-0.23,0.82-0.69,0.97,0,1.72c5.97-1.3,9.14-5.409,12.63-9.189
			c-1.49-1.74-2.13-0.58-4.02,0c1.47-2.16,3.479-3.8,5.739-5.17c-0.33,1.2-1.199,1.859-1.72,2.88c3.84-0.54,9.71-5.47,5.75-6.9
			C507.83,383.71,509.15,382.92,509.58,381.24z M485.46,425.46c0.65-1.26,1.92-1.91,2.29-3.45c-1.66,0.44-3.3,0.91-4.02,2.3
			C484.55,424.45,484.7,425.26,485.46,425.46z M458.46,433.5c-18.91-0.9-27.21,13.73-41.34,19.52c1.149-2.109,4.68-4.869,4.02-6.89
			c-2.39,1.24-6.33,3.45-8.62,4.021c2.44-7.511,14-5.91,18.95-10.91c-5.01,1.85-8.8,1.47-13.2,4.02c1.08-1.02,1.271-2.25,0-3.439
			c-0.859,1.439-2.579,2.01-4.02,2.87c0.95-1.921,3.25-2.5,4.02-4.601c-7.18,2.021-11.149,7.24-16.079,11.49
			c4.17,0.34,4.89-5.811,7.46-5.17c0.1,0.979-3.261,2.26-0.57,2.3c2.62-0.26,4.74-4.04,6.89-2.87c-0.489,2-2.83,2.141-4.6,2.87
			c0.06,6.56-7.25,5.76-9.76,9.76c0.85,0.11,0.529,1.391,0.58,2.3c-9.49,2.57-17.82,6.301-24.12,12.061
			c1.85,0.28,3.39-2.68,4.59-1.15c-2.69,2.86-7.47,3.63-10.34,6.32c0.6-2.28,3.84-1.91,4.02-4.6c-5.07,1.25-5.8,2.449-8.609,2.869
			c-0.381,2.301-1.73,3.641-2.301,5.75c2.49,0.16,5.301-2.34,7.471-0.579c-5.431,2.42-9.71,5.989-14.93,8.619
			c0-1.149,1.56-0.729,1.14-2.3c-8.35,0.26-8.62,8.61-16.65,9.19c0.06-1.09,1.9-0.4,1.72-1.73c-6.6,1.48-9.85,5.69-10.33,9.19
			c12.28-4.771,20.3-10.29,31.58-16.08c0.761,0.59,2.12,0.57,2.87,1.15c5.9-5.2,15.19-7.021,17.23-16.08
			c3.64-0.48,3.899-6.41,7.47-5.17c-0.36,1.75-3.09,1.119-3.45,2.869c1.53-0.04,4.41-1.659,5.17-0.569
			c-2.1,1.54-5.42,1.859-6.319,4.59c1.35,1.53,5.409-1.32,4.02,1.149c7.95-7.38,22.061-11.449,30.15-17.17
			c-0.12,0.221-0.07,0.431,0.29,0.521c1.399-1.3,3.05-1.271,2.87,0c2.739-2.04,3.46-6.11,7.47-6.89
			c-0.16,1.6-4.561,1.899-2.87,3.439c8.13-4.5,13.67-13.37,21.82-17.229c0.909-0.431,1.92,0.68,2.3,0.579
			C456.49,436.97,456.99,434.51,458.46,433.5z M314.89,504.13c0.28-3.17,7.56-2.38,5.75-5.74c-5.88,1.78-9.87,5.45-13.21,9.771
			c1.93,0.72,3.04-2.25,4.02-0.58c-4.04,1.51-7.14,3.96-10.34,6.32c4.18-0.341,3.9-2.79,5.17,0.569
			c-5.26,2.721-11.17,9.17-17.8,6.891c-1.48,1.58-1.57,4.56-4.6,4.6c2.44-1.35-0.75-2.03,0.58-4.02
			c-5.73,0.369-9.13,7.979-13.79,5.739c-1.73,1.721-4.59,4.03-3.44,6.891c4.51-0.46,3.89-6.061,8.04-6.891
			c-1.51,2.32-3.49,4.17-4.6,6.891c3.31-0.34,4.03-6.29,8.04-4.021c-4.03,1.141-8.7,4.69-8.61,8.04c2.26-1.88,6.34-5.689,9.19-3.439
			c2.59-2.5,7.98-9.32,12.06-8.04c12.32-7.4,21.36-18.07,33.88-25.271C321.75,502.2,317.15,504.47,314.89,504.13z M297.67,243.98
			c-0.2-1.58,1.64-4.03,0-5.16C297.86,240.4,296.02,242.85,297.67,243.98z M185.11,494.95c0.48-6.94-3.01-6.83-4.02-12.641
			C181.4,487.55,183.6,490.91,185.11,494.95z M169.6,466.23c-0.64-2.23-1.59-4.15-2.87-5.74
			C165.84,462.25,167.42,465.71,169.6,466.23z M163.86,449c0.8,7.34,4.16,12.85,7.46,16.08c-3.1-19.18-10.49-35.85-18.95-52.26
			c0.12,2.949,1.52,4.609,1.73,7.47c-2.5-0.57-1.22-4.91-3.45-5.74c2.06,8.75,6.24,11.76,8.61,16.65c-0.08-0.681-1.02-1.3,0-1.72
			c4.77,5.6,3.71,15.13,6.89,21.25C165.39,450.15,165.03,449.17,163.86,449z M163.28,420.86c0.62,3.6,1.45,6.979,4.02,8.62
			C166.46,426.12,165.02,423.33,163.28,420.86z M150.08,417.42c0.03-1.96,0.17-4.01-1.15-4.6
			C149.6,415.33,148.17,416.38,150.08,417.42z M143.76,373.2c0.33,1,3.22,4.29,2.3,2.87c-1.64-2.96-2.7-5.86-4.25-8.04
			c0.06,0.01,0.14,0.01,0.23,0c-2.8-4.101-5.37-8.41-8.62-12.06c2.89,5.69,6.33,13.28,9.73,17.589c-0.15,0.551,0.68,1.49,1.18,1.36
			c-0.39-0.4-0.79-0.86-1.18-1.36C143.2,373.36,143.38,373.22,143.76,373.2z M146.06,395.02c-0.72,3.2,1.76,7.16,4.59,8.62
			c-2.78-11.58-10.83-17.89-13.21-29.87c-4.47-8.35-11.67-13.979-16.65-21.819c0.77-0.1,1.14,2.92,1.72,1.15
			c-0.52-0.16-1.53-2.54-0.57-2.3c1,2.06,2.08,4.04,3.44,5.74c0.58-4.05-1.24-4.7-2.87-6.89c-4.71-6.31-7.22-16.27-12.06-22.39
			c0.34-1.84-1.08-1.78,0-2.88c-6.21-8.26-11.51-19.71-15.51-29.86c-0.79,1.82-0.27,4.55,0.58,6.32
			c2.61,11.94,9.04,20.05,13.78,29.86c-1.92-0.75-2.38-2.97-4.02-4.02c0.12,2.96,3.2,5.98,2.87,7.47c-3.04-1.25-3.54-7.19-5.74-7.47
			c-2.96-0.23,1.78,3.1,0,3.45c-0.58-1.15-0.99-2.46-2.3-2.87c2.23,4.32,4.98,10.02,7.47,10.91c-2.24-1.19-1.95-7.23-4.6-7.47
			c2.99-0.18,4.58,5.68,7.47,7.47c-0.15,1.68,1.3,1.76,1.15,3.44c6.13,4.01,7.25,13.04,11.48,18.95
			c6.18,1.03,3.46,12.35,10.34,14.94c0.4-2.34-2.6-4.26-1.15-5.75c2.06,4.27,4.84,7.8,6.89,12.06
			C138.46,386.93,144.5,390.26,146.06,395.02z M124.42,128.97c4.53-4.26,11.25-9.95,11.87-14.2
			C130.31,116.31,127.57,123.83,124.42,128.97c-0.26,0.25-0.52,0.49-0.76,0.73c0.04,0.1,0.07,0.21,0.09,0.32
			c-0.91,1.34-1.87,2.44-2.96,3.13c-3.52,2.2-6.71,9.59-7.47,14.93c2.5-3.82,3.52-9.11,6.89-12.06c-1.52,5.56-6.68,10.55-6.89,15.51
			c2.26-3.46,5.02-8.93,7.47-10.34c-1.34-1.55,0.64-2.24-1.15-2.3c1.92-2.67,4.65-6.48,4.11-8.87
			C123.98,129.68,124.2,129.33,124.42,128.97z M121.94,334.72c2.25-1.9-1-7.63-2.88-6.89c1.37,1.69,1.67,4.46,2.88,6.32
			c-2.71-1.51-2.09-6.34-6.32-6.32c0.56,2.31,2.23,3.52,3.44,5.17C119.56,330.04,120.49,334.97,121.94,334.72z M113.9,315.77
			c-1.17-3.43-3.34-5.85-5.17-8.61C110.05,310.42,111.09,313.98,113.9,315.77z M104.13,146.36c1.61-4.14,3.98-7.52,5.17-12.06
			C106.9,137.26,104.67,143.45,104.13,146.36z M102.98,300.84c2.16-3.29-1.29-8.52-3.44-7.47
			C101.77,294.78,100.46,299.72,102.98,300.84z M102.41,326.11c1.24,0.98-0.35-3.92-1.15-4.6
			C99.98,322.96,102.51,324.08,102.41,326.11z M97.24,158.99c1.74-6.11,6.47-12.29,6.89-17.8
			C102.4,147.31,96.92,152.73,97.24,158.99z M101.26,290.5c-0.64-5.1-2.34-6.34-2.87-12.06c-1.01-1.08-1.78,0.79-2.3-1.15
			c2.02-5.65-2.9-13.28-4.02-19.52c1.89-0.13,2.03,4.43,2.87,3.44c-2.18-6.27-0.61-13.05-3.44-18.95
			c-0.31,4.53,2.11,9.36,0.57,13.21c-0.78-2.86-0.86-6.42-4.02-6.89c-0.28,3.08,0.87,9.38,2.3,12.63c0.31-0.83-0.67-2.96,0.57-2.87
			c-0.97,3.98,3.25,12.61,0.58,10.91c3.54,5.68,3.54,20.94,7.46,22.4c-1.59-4.26-3.31-8.06-2.87-12.63
			C97.87,283.85,99.03,285.94,101.26,290.5z M89.2,292.22c0.74,1.96,2.1,6.31,3.45,5.75C91.92,296.22,88.96,291.17,89.2,292.22z
			 M86.9,276.72c2.36-1.86-0.65-6.54-1.72-8.62c0.49,2.67-0.9,0.61-1.15,1.73c0.93-0.41,0.93,2.71,0,2.29
			c-2.55-4.18,2.2-5.95-0.57-9.18c-1.41,0.76,1.03,1.73-0.58,2.29c-2.5-6.3,0.67-11.14-1.72-19.52c-4.94,8.63,1.63,23.44,4.6,31.58
			C85.7,274.26,86.02,275.34,86.9,276.72z M83.46,195.17c1.57-0.37,2.4-4.46,1.72-5.17C83.85,190.97,83.52,192.93,83.46,195.17z
			 M84.61,190c0.32-1.24,1.37-4.7,0-5.74C84.69,185.91,83.01,188.74,84.61,190z M84.03,225.03c-1.72-5.81,1.72-12.24,0.58-17.22
			C82.35,213.05,80.63,219.4,84.03,225.03z"/>
		<path d="M581.94,207.23c1.54,11.43,4.369,16.62,5.739,28.14c-2.689-2.48-3.72-6.62-4.6-10.91c0.93-0.16,0.99,0.54,1.729,0.57
			c-0.43-3.41-1.899-9.02-4.02-9.76c-0.38-0.13-0.87,1.34-0.58,1.72c-2.8-3.75-1.43-7.32-5.17-11.48c-1.48,0.79-0.12,3.52,0,4.59
			c-2.12-3.24-5.76-9.93-8.61-14.35c2.551,0.33,4.69,6.01,7.471,8.04c1.989-3.74-3.98-4.45-4.601-7.47c1.851-0.5,1.19,1.49,2.3,1.72
			c0.87-1.66-1.489-5-2.3-6.89c-0.78,0.18-0.47,1.44-0.569,2.3c-4.86-3.75-7.66-9.57-12.641-13.21c0.5-1.7,0.86,1.33,2.3,0.57
			c0.61-2.34-5.26-3.15-5.17-6.89c1.261,0.65,1.91,1.92,3.45,2.3c-9.84-14.11-22.61-23.46-34.46-34.46
			c1.75-6.98-16.08-3.63-16.65-12.06c2.61-1.45,4.32,2.94,7.46,2.87c-2.39-2.46-5.01-6.36-9.76-8.61
			c30.49,12,51.21,38.76,69.49,64.89c-0.25,0.86-0.74-0.22-1.73,0C575.71,193.93,576.11,203.3,581.94,207.23z"/>
		<path d="M563.56,356.54c0.9,0.58-0.06,4.12-1.72,4.02C562.61,359.42,562.93,357.83,563.56,356.54z"/>
		<path d="M561.21,362.5c0.021-0.07,0.03-0.14,0.05-0.21C561.26,362.37,561.24,362.44,561.21,362.5z"/>
		<path d="M555.09,251.05C556.41,252.5,555.91,252.11,555.09,251.05L555.09,251.05z"/>
		<path d="M555.02,250.96c-0.029-0.02-0.05-0.05-0.079-0.08c-1.171,0.17-1.12,1.55-2.29,1.72c-0.24,1.38,1.05,1.25,0.569,2.87
			c-2.67-8.28-11.859-13.06-16.08-20.1c-2.649-4.42-1.02-10.24-5.17-14.36c1.811-0.6,1.141-3.68,0.58-5.16
			c-0.33-0.21-0.74,0.98-0.58,1.14c-2.95-3.09-3.229-13.1-9.18-14.35c0.08-1.43,1.94-0.17,2.29,0c-5-4.5-6.71-8.75-12.061-12.64
			c3.41,0.31-3.159-5.92-4.02-2.87c-2.19-2.12-3.3-3.93-5.74-4.59c-1.64-0.67,0.931-0.67,1.15,0c1.2-0.87-2.21-1.97-1.73-4.02
			c11.33,1.69,12.69,13.35,22.4,16.65c-1.53,1.31-3.771-1.56-5.17-2.3c-1.03,3.65,3.49,6.38,5.75,8.62c1.12-1.05-2.53-3.36,0-4.6
			c2.04,0.45,2.16,2.82,3.439,4.02c1.761,0.42,1.69-0.99,3.45-0.57c1.47,1.59,1.931,4.2,3.44,5.74c-1.29,0.88-2.82-2.9-4.59-3.44
			c2.96,17.51,22.09,23.85,24.689,43.64c-1.01,0.51-1.67,1.82-2.87,0.58C553.07,248.09,554.19,249.85,555.02,250.96z"/>
		<path d="M549.2,212.97c-1.3,1.27-1.78-3.16-2.87-4.02C547.63,207.69,548.11,212.12,549.2,212.97z"/>
		<path d="M543.46,211.83c1.79,4.14,5.23,6.63,5.17,12.63c-5.16-4.03-7-11.38-12.06-15.51c0.109-0.65,0.569-0.32,0.569,0
			c0.271-9.07-5.68-16.9-13.779-19.52c-0.74-2.27,1.67-1.39,1.72-2.87c-1.63-1.95-5.86-3.91-5.17-6.32
			c7.04,4.84,11.56,12.18,16.08,19.53c4.39,0.93,7.02,8.18,9.189,13.2C544.43,212.77,544.28,211.96,543.46,211.83z"/>
		<path d="M525.08,193.45c1.34,0.02,5.53,2.12,5.74,5.17C527.29,198.52,526.84,195.33,525.08,193.45z"/>
		<path d="M514.75,359.42c-1.27,1.41-1.61,3.75-4.03,4.021c-0.33-2.061,0.67-2.78,1.15-4.021
			C512.73,363.02,511.74,360.33,514.75,359.42z"/>
		<path d="M513.6,176.22c-3.229,0.51-7.449-0.23-10.34-1.15c0.181-0.78,1.44-0.48,2.3-0.57c-1.029-1.47-2.63-2.35-5.17-2.3
			c-0.1,1.44,0.88,1.8,1.721,2.3c-0.391,1.59-3.011-1.6-2.301,1.72c-3.18-0.27-4.51-2.38-6.89-3.45
			C495.41,157.78,508.53,171.99,513.6,176.22z"/>
		<path d="M504.98,125.11c-1.23,3.01-5.28-0.23-7.461,0c-1.56,0.51,1.211,1.38,1.721,1.72c-11.41-2.75-26.971-6.34-40.78-8.61
			c4.55-0.85,10.1,0.42,14.94-1.15c-5.551-2.1-13.33-2.41-20.101-1.72c0.48,0.85,1.44,1.23,2.87,1.14
			c-5.77,3.5-15.58,2.69-24.12,4.6c-1.13-1.17-3.05-1.55-3.45-3.45c10.65-2.72,25.721-4.47,39.051-3.44
			c10.92,0.84,19.43,4.3,25.27,9.19c2.271-0.86-2.45-2.4-0.57-2.88C497.35,121.26,499.79,124.56,504.98,125.11z"/>
		<path d="M485.48,389.57c-0.221,0.29-0.421,0.569-0.601,0.859C484.96,390.1,485.22,389.73,485.48,389.57z"/>
		<path d="M480.29,434.07c0.96,0,1.91,0,2.87,0c-0.18,1.35-1.78,1.29-2.3,2.3C480.08,436.19,480.39,434.93,480.29,434.07z"/>
		<path d="M479.14,143.49c-1.06,1.75-2.729-0.67-4.6,0C475.12,142.02,478.67,141.82,479.14,143.49z"/>
		<path d="M480.86,408.23c-0.73,1.569-2.301,2.289-3.44,3.449C476.72,410.95,479.18,408.49,480.86,408.23z"/>
		<path d="M465.36,451.88c-3.471,3.42-8.66,5.12-12.061,8.61C454.24,455.59,459.79,453.42,465.36,451.88z"/>
		<path d="M459.61,408.8c-1.17,4.38-5.101,6-8.04,8.62C452.07,416.49,454.75,409.96,459.61,408.8z"/>
		<path d="M441.81,439.82c1.841,1.319-1,2.779-2.869,2.29C439.11,440.56,441.36,441.08,441.81,439.82z"/>
		<path d="M435.49,427.18c0.56,1.011-0.91,1.19,0.58,2.87c-0.771,0.601-2.03,0.7-2.67,1.44c1.17-1.891-2.221-1.36-3.07-3.73
			C431.88,427.4,434.88,428.48,435.49,427.18z"/>
		<path d="M433.38,431.52c-0.05,0.08-0.11,0.171-0.18,0.261C433.25,431.68,433.31,431.6,433.38,431.52z"/>
		<path d="M423.43,456.47c-0.279,0.21-0.56,0.42-0.859,0.63C422.71,456.83,423.09,456.55,423.43,456.47z"/>
		<path d="M414.25,123.96c2.63,0.33,4.15-3.03,6.89-1.72c-4.72,3.28-7.359,1.64-13.21,3.44c0.641-0.82,0.62-1.4-0.58-1.72
			C409.33,120.55,412.46,123.73,414.25,123.96z"/>
		<path d="M419.41,454.17c1.439-0.5-3.28,1.82-4.021,2.87c-0.979,0.03-1.479-0.42-1.72-1.14c-1.84,0.449-2.51,2.08-4.02,2.869
			c0.09,0.671,1.05,0.48,1.72,0.57c-2.101,2.3-6.95,1.851-8.04,5.17c0.32-3.34-4.22-0.31-6.89,0c4.279-3.24,6.39-6.64,10.27-8.569
			c-0.47,0.449,7.23,0.46,9.26-2.341c1.07-1.439,0.061,0.95,0,1.721C417.65,455.47,417.73,454.02,419.41,454.17z"/>
		<path d="M382.08,134.3c1.88,0.04,1.229,2.6,1.729,4.02c-2.18,0.88-3.81,2.31-6.319,2.87c0-3.39,2.18-1.19,4.02-2.3
			C378.22,137.93,380.99,135.7,382.08,134.3z"/>
		<path d="M375.77,138.89c0.74,0.97-2.239,3.09-2.869,4.6c-1.16-2.37-3.19,0.88-4.601,1.72
			C367.13,141.73,373.96,141.3,375.77,138.89z"/>
		<path d="M347.63,169.33c-0.08,0-0.16,0.01-0.24,0.03C347.46,169.34,347.54,169.33,347.63,169.33z"/>
		<path d="M330.4,487.48c0.08-1.841,1.3-2.53,3.45-2.301C332.63,485.88,332.18,487.34,330.4,487.48z"/>
		<path d="M328.68,520.21c0.87,1.61-2.25,6.73-4.6,5.17C325.72,523.77,327.34,522.13,328.68,520.21z"/>
		<path d="M309.73,234.8c1.39,0.62-1.96,5.95-2.3,8.61C306.13,240.76,309.28,237.62,309.73,234.8z"/>
		<path d="M297.09,158.42c-2.15-1.11-1.83-4.68-3.44-6.32C296.06,151.93,296.08,155.82,297.09,158.42z"/>
		<path d="M294.79,150.95c-1.08-3.06-3.28-1.6-4.02-5.17C294.13,145.49,294.13,148.55,294.79,150.95z"/>
		<path d="M282.16,129.13c-3.85,1.73-2.62-6.56-6.32-6.89C277.99,120.03,279.86,127.7,282.16,129.13z"/>
		<path d="M281.01,510.45c-1.01,1.09-2.43,1.78-3.44,2.87C276.35,512.25,279.39,510.58,281.01,510.45z"/>
		<path d="M254.02,570.18c0.73,0.21-0.73,3.051-2.3,2.87C251.48,571.08,253.44,571.32,254.02,570.18z"/>
		<path d="M240.42,537.49c-0.28,0.35-0.54,0.71-0.76,1.1C239.74,538.28,240.05,537.86,240.42,537.49z"/>
		<path d="M224.16,65.96c0,0.95,0,1.91,0,2.87c-5.47,1.96-14.57-0.68-22.4,0c4.6-2.74,7.83-2.81,12.63-1.72
			c-0.25-0.71-0.73-1.18-1.72-1.15C214.72,62.83,221.17,64.9,224.16,65.96z"/>
		<path d="M205.78,63.09c0.49,0.85,1.85,0.83,2.87,1.14c-8.75,3.21-22.34,1.28-30.44,6.32c0.43,0.54,1.05,0.87,1.73,1.15
			c-0.57,1.76-1.53-0.66-2.3-0.57c0.72-1.39,2.35-1.86,4.02-2.3c-2.51-1.48-10,2.7-9.19,1.15c8.85-3.8,19.26-4.51,30.44-6.89
			C203.87,63.09,204.82,63.09,205.78,63.09z"/>
		<path d="M196.59,616.12c-1.29,6.37-5.4,14.88-10.91,18.95c-0.86-2.57,0.52-3.34,1.72-5.17c-1.08-1.23-2.19,2.369-2.87,3.449
			c-2.91-3.159,2.14-5.09,2.87-8.04c-0.59-1.829-2.27,2.98-2.87,1.15c1.1-1.97,0.94-5.19,3.45-5.75c-0.51,1.22-1.75,1.7-1.73,3.45
			c3.59-1.96,5.96-5.141,8.62-8.04c-0.01,3.26-5.46,6.02-6.89,9.76C191.07,625.14,194.04,619.32,196.59,616.12z"/>
		<path d="M192,606.36c0.98,0.83-1.8,2.76-2.3,4.02c-1.62-0.58,0.16-2.439,0-3.45C190.47,607.68,191.43,607.29,192,606.36z"/>
		<path d="M188.55,559.84c1.91,5.101,2.31,14.38,1.15,20.67c-0.54-0.319-0.87-1.59-1.15-0.569c-1.64-4.021-2.28-5.49-2.3-10.91
			c0.68,0.09,0.49,1.05,0.58,1.72C187.73,567.45,188.14,563.64,188.55,559.84z"/>
		<path d="M190.27,612.1c-1.28,1.21-1.39,3.58-3.44,4.021C187.92,614.73,188.04,612.36,190.27,612.1z"/>
		<path d="M153.35,80.99c-7.73,4.22-18.43,19.04-25.67,25.17c-2.48-2.11-4.54,3.08-6.89,4.59c4.25-10.9,14.15-25.92,29.86-31.01
			c9.95-3.23,18.92-13.62,28.71-6.89c4.68-2.93,7.87-1.09,14.36-2.87c-8.5,3.69-16.39,3.61-23.55,6.89
			c-5.32,2.44-9.84,6.22-14.93,8.61c-0.7,0.33-0.05-1.14,0-1.15c-3.28,0.22-6.93,6.55-10.33,6.32c3.76-5.42,10.63-7.74,15.5-12.06
			c3.31,1.97,12.32-4.25,18.38-5.17c-1.06-2.39-4.56,0.65-6.32,1.15c-1.54-0.67,1.5-1.5,1.72-2.3c-4.65,1.09-6.08,5.41-11.48,5.75
			c1.32-1.36,3.52-1.84,5.17-2.87c-3.92,0.1-9.05,3.96-13.78,5.16C157.27,80.8,152.09,81.79,153.35,80.99z"/>
		<path d="M185.21,563.06c0.07,1.2-0.3,2.721-0.68,3.101c-1.7-1.01,0.33-3.061,0-4.601c0.25,0.101,0.42,0.341,0.53,0.65
			c0.01,0.01,0.01,0.01,0.01,0.021c0.04,0.279,0.09,0.55,0.14,0.819V563.06z"/>
		<path d="M184.92,605.66c0.06-0.16,0.13-0.311,0.19-0.45C185.07,605.39,185.01,605.54,184.92,605.66z"/>
		<path d="M182.23,628.75c1.09,6.26-5.67,4.66-4.59,10.92c0.29,0.05,3.2-0.39,4.02-0.58c-1.3,2.351-4.24,8.01-8.61,9.19
			c0.68-2.19,0.76-4.98,1.72-6.891c-1.14,0.4-1.53,1.53-1.72,2.87c-1.47,0.62-2.01-2.47-2.88-0.569c-1.42-0.561,0.8-2.21,0-4.021
			c6.31-2.689,6.79-11.22,12.06-14.939c0.02,2.51-1.83,3.149-2.29,5.17C180.62,631.62,180.43,627.8,182.23,628.75z"/>
		<path d="M177.07,569.03c1.7,3.41,2.4,7.739,1.72,12.06C177.17,577.83,177.55,571.82,177.07,569.03z"/>
		<path d="M170.75,618.42c3.46-0.18,2.64-4.63,5.17-5.75c-1.79,4.72-5.21,7.811-8.62,10.92c0.56-4.91,5.04-11.59,6.32-16.08
			C174.37,608.69,172.68,615.28,170.75,618.42z"/>
		<path d="M169.6,644.83c-1.96,2.15-0.39,12.43-3.45,9.77c-2.81,4.07-5.94,7.841-8.03,12.631c-0.2,0-0.39,0-0.58,0
			c-0.72-3.98,4.21-5.351,2.87-8.04c0.27,1.119-1.54,2.939-1.72,1.72c1.19-1.68,1.29-4.45,2.87-5.74c-0.03,1.08,0.44,1.22,1.15,0.58
			C163.27,651.4,165.94,645.51,169.6,644.83z"/>
		<path d="M164.4,92.85c0.21-0.16,0.41-0.32,0.61-0.48C165,92.69,164.7,92.88,164.4,92.85z"/>
		<path d="M162.13,412.25c1.33,1.73,3.41,2.72,3.45,5.74C163.99,416.52,162.86,414.58,162.13,412.25z"/>
		<path d="M155.88,101.43c-0.03,0.04-0.04,0.09-0.06,0.13C155.83,101.52,155.85,101.48,155.88,101.43z"/>
		<path d="M141.01,367.02c0.29,0.311,0.55,0.65,0.8,1.011C141.24,368,141.16,367.48,141.01,367.02z"/>
		<path d="M141.01,367.02c-0.22-0.25-0.45-0.489-0.7-0.71C140.76,366.34,140.9,366.66,141.01,367.02z"/>
		<path d="M133.42,353.1c0,0.02,0.01,0.03,0.02,0.05C133.38,353.1,133.37,353.08,133.42,353.1z"/>
		<path d="M113.9,337.02c2.88,3.64,3.27,7.12,5.16,10.91c-4.51-1.81-6.38-11.23-9.76-16.08
			C112.35,329.31,111.42,337.39,113.9,337.02z"/>
		<path d="M95.52,300.84c0.51-1.38,1.75,1.25,1.72,2.3C96.06,302.98,96.7,301,95.52,300.84z"/>
	</g>
</g>
</svg>
