<?xml version="1.0" encoding="utf-8"?>
<!-- Generator: Adobe Illustrator 14.0.0, SVG Export Plug-In . SVG Version: 6.00 Build 43363)  -->
<!DOCTYPE svg PUBLIC "-//W3C//DTD SVG 1.0//EN" "http://www.w3.org/TR/2001/REC-SVG-20010904/DTD/svg10.dtd">
<svg version="1.0" id="Layer_1_x23_000000" xmlns="http://www.w3.org/2000/svg" xmlns:xlink="http://www.w3.org/1999/xlink" x="0px"
	 y="0px" width="720px" height="720px" viewBox="0 0 720 720" enable-background="new 0 0 720 720" xml:space="preserve">
<g>
	<g>
		<path fill="none" d="M692.21,50.2c0,218.53,0,437.05,0,655.58c-227.21,0-454.42,0-681.63,0c0-217.44,0-434.88,0-652.33
			c6.43,3.95,16.78-2.51,20.62-1.08c-5.75,12.07,1.32,25.59,2.17,35.82c1.25,15.04-2.83,28.64,6.51,34.73
			c-3.44,36.42-5.5,84.35-1.08,121.57c2.8-17.83-0.76-42.01,2.17-59.7c1.78,23.16,11.27,42.01,6.51,68.38
			c-0.2,3.06-5.16,1.35-4.34,5.43c-3.86,31.02,0.53,65.04,4.34,90.08c1.99,13.12,6.78,27.47,6.51,39.08
			c-0.1,4.67-2.85,9.811-3.25,14.11c-0.65,6.939,1.12,13.57,1.08,20.62c-0.14,24.3-13.06,48.66-15.19,72.72
			c-1.16,13.06,5.1,21.55,1.08,34.74c-0.49,3.02,5.92-0.851,5.43,2.17c9.46,37.17,3.85,90.01-3.26,128.08
			c-3,0.97-10.19-2.23-9.77,2.17c-5.1,8.01,7.98,6.22,9.77,10.85c1.57,10.971-14.89,3.92-11.94,16.28
			c1.75,3.68,7.58,3.28,13.03,3.26c-0.66,2.601-1.56,4.95-1.09,8.681c5.68,0.25,4.2-6.66,4.34-11.94c6.77-1.19,9.45-6.47,17.37-6.51
			c3.47,1.229,1.03,8.38,5.43,8.68c4.71,0.01,1.9-7.5,4.34-9.76c14.01-0.101,25.92-2.311,40.16-2.18c2.4,0.859-0.21,6.72,4.34,5.43
			c7.46,2.85,17.71-3.72,26.05,0c1.87-0.33-1.41-3.771,3.26-3.25c21.18-5.86,41.21-7.21,64.04-2.18
			c-36.83,4.06-70.68,11.1-98.78,23.88c44.61-15.891,99.01-22.58,153.05-27.13c31.22-2.631,63.33,4.5,94.43,3.25
			c34.95-1.391,70.52,0.77,103.109-1.08c-14.43-0.4-28.1-1.57-42.329-2.17c16.26-13.25,52.97,0.64,75.979-5.431
			c-3.33-2.46-12.1,0.521-15.2-2.17c7.971,0.71,18.8-1.43,24.971,1.09c-2.25,0.641-7.131-1.35-7.601,1.08
			c46.271,3.66,97.521,2.34,141.101,8.681c1.279,8.489,0.02,19.529,7.6,21.71c2.33-8.521,0.21-21.5,3.26-29.301
			c6.771,0.19,18.101,1.091,27.13,2.17c-0.79-3.319,1.87-3.199,1.09-6.52c-1.649-4.86-13.689,0.66-13.029-6.51
			c7.72-0.96,20.529,3.17,20.63-5.42c-3.21-4.4-14-1.21-20.63-2.181c-2.28-6.76-2.75-15.33-5.42-21.699
			c13.81-24.391-5.92-45.601-8.69-64.04c-2.41-16.101,2.39-30.381,4.34-46.681c5.12,1.76-1.489,15.25,5.431,15.2
			c4.13-20.12-5.811-44.84-3.261-64.04c3.5-26.32,2.63-54.63-2.17-77.06c-8.01,2.479-2.92,18.06-6.51,24.96
			c-1.13-19.57-0.85-35.38,5.43-52.101c2.62-6.979,8.261-11.92,8.681-18.45c0.38-5.9-3.59-11.65-4.34-17.37
			c-3.86-29.25,1.739-56.74,9.77-86.83c-8.51-12.19,1.38-30.73-1.09-44.5c-5.61,9.94-4.101,27.01-9.771,36.9
			c-4.93-17.14,1.04-32.04,1.091-48.84c0.05-15.3-8.971-28.66-8.681-42.33c0.32-15.35,10.681-28.91,8.681-45.59
			C656.02,89.1,647,82.76,647.71,68.65c0.2-1.61,2.62-1,4.34-1.09c-3.53-5.52-0.84-17.29,3.26-21.7
			C669.05,48.52,677.69,46.28,692.21,50.2z"/>
		<path fill="none" d="M632.52,173.93c0.521,25.23,9.86,47.97,7.591,72.73c-1.38,15.09-7.44,29-6.511,43.41
			c0.95,14.66,13.75,30.46,4.341,48.85c0.199,4.16-0.891,0.39-3.25,1.08c3,52.21-6.021,92.4-7.601,140.02
			c-6.63-3.899-2.45-14.609-2.17-20.619c1.16-25.08,2.71-53.62,3.25-80.32c-9.31,42.97-6.7,103.03-8.68,149.78
			c4.99-1.16,2.069-10.23,6.51-11.94c-0.24,26.24,13.47,60.25,1.09,81.41c2.63,3.31,1.59,4.65,1.08,9.77
			c-1.26,0.17-1.93-0.239-2.17-1.09c0.71,4.79-1.87,13.46-4.34,18.45c-31.24,2.15-64.641,31.96-94.43,18.46
			c-10.99-2.78-17.5,5.08-28.221,6.51c-10.16,1.351-21.609-1.66-32.56-2.17c-13.3-0.62-26.641,0.641-39.08,0
			c-10.47-0.54-21.33-5.04-29.3,1.08c0.67,3.311,2.41,5.55,6.51,5.43c-14.59,2.671-28.89,0.171-41.25,1.091
			c-4.73,0.34-9.58,2.68-14.11,2.17c-6.33-0.721-10.56-6.811-16.28-7.601c-15.73-2.17-29.91,8.801-47.76,7.601
			c-0.13-1.95,1.33-2.29,1.09-4.351c-18.15-0.42-30.99,4.48-48.84,4.351c-2.76-2.84,10.11,0.76,10.85-2.17
			c-36.96-4.511-81.02,0.449-116.14-3.261c31.6-5.77,67.09-0.779,102.03-1.09c-26.14-8.05-69.31,0.63-96.6-2.17
			c-2.89-0.29-4.66-1.109-6.51-3.25c-3.06,1.65-8.38,1.03-11.94,2.17c-5.74-3.68-10.86-13.74-11.94-18.45
			c14.34-0.239,21.59,6.62,33.65,8.681c-8.59-11.67-32.88-7.65-42.34-18.45c-2.23,1.29,2.32,5.88-4.34,4.34
			c-6.03-12.86-6.59-27.92-9.77-42.33c-3.15-14.28-6.91-29.14-6.51-45.59c-1.27,0.18-0.91,1.98-1.08,3.26
			c-2.58-15.5-12.23-29-14.11-45.59c-2.03-17.87,8.87-36.87,3.25-57.53c1.71,0.471,0.93,3.42,4.34,2.17
			c5.17-55.229-3.31-114.27-2.17-172.58c-0.73-3.69-3.6,4.79-4.34,1.09c-1.79-20.22,1.45-36.81,2.17-56.44
			c0.95-25.65-15.92-47.93,0-65.13c2.72,24.42,3.18,51.09,5.43,75.98c4.45-18.32-0.78-51.51-2.17-78.15
			c-0.61-11.57-3.78-25.68-2.17-33.65c2.69-13.32,18.04-14.86,22.79-26.05c-12.31,1.44-14.03,13.47-23.88,17.37
			c-3.52-9.43,0.41-15.54,3.26-23.88C83.72,74.4,95.9,62.89,112.6,61.05c14.37-1.58,29.73,5.33,46.68,1.09
			c-3.13-4.11-13.09-1.39-19.54-2.17c1.6-5.28,11.46-2.3,14.11-6.52c-7.52-3.16-14.45,3.63-23.88,2.17
			c25.38-15.27,63.18-0.95,93.35-3.25c-11.2-2.43-23.32-3.92-35.91-4.95c47.17,2.88,99.81-7.14,147.7-1.56
			c11.08,1.28,30.9,3.7,47.76,2.17c-1.34-1.56-3.73-2.06-6.51-2.17c5.27-2.7,13.739-2.18,20.62-3.26c1.199,2.05,1.39,5.13,2.17,7.6
			c23.699,1.4,44.76-8.07,66.21-7.6c13.47,0.29,26.01,7.78,40.159,4.34c3.54-2.48-4.529-5.48-1.079-7.6
			c21.329-0.71,34.149,7.09,54.27,7.6c-2.49,1.88-15.7,2.38-23.88,2.17c15.27,8.04,53.14-4.67,67.29,5.43
			c-0.29,2.24-4.8,0.26-4.34,3.25c9.18,3.49,21.16,4.17,21.71,16.29c-8.73,1.39-22.25-12.44-36.9-13.03
			c6.67,7.81,27.11,11.23,35.82,20.62c-2.13,38.83-1.55,82.94,2.17,119.4c3.35-37.03-1.62-75.81,1.08-112.88
			c9.1,21.29,5.89,54.89,6.51,84.66C628.47,176.65,632.98,170.89,632.52,173.93z M81.13,488.7c1.88-38.99,1.58-85.45,0-121.561
			c-1.39-0.06-1.51-1.39-3.26-1.09c-4.16,33.83-4.03,77.73-4.34,111.8c5.25-12.119,3.15-31.58,5.43-46.67
			C79.47,450.56,77.47,472.46,81.13,488.7z"/>
		<path d="M692.21,48.03c0,0.72,0,1.44,0,2.17c-14.52-3.92-23.16-1.68-36.9-4.34c-4.1,4.41-6.79,16.18-3.26,21.7
			c-1.72,0.09-4.14-0.52-4.34,1.09c-0.71,14.11,8.31,20.45,9.771,32.56c2,16.68-8.36,30.24-8.681,45.59
			c-0.29,13.67,8.73,27.03,8.681,42.33c-0.051,16.8-6.021,31.7-1.091,48.84c5.67-9.89,4.16-26.96,9.771-36.9
			c2.47,13.77-7.42,32.31,1.09,44.5c-8.03,30.09-13.63,57.58-9.77,86.83c0.75,5.72,4.72,11.47,4.34,17.37
			c-0.42,6.53-6.061,11.47-8.681,18.45c-6.279,16.721-6.56,32.53-5.43,52.101c3.59-6.9-1.5-22.48,6.51-24.96
			c4.8,22.43,5.67,50.739,2.17,77.06c-2.55,19.2,7.391,43.92,3.261,64.04c-6.92,0.05-0.311-13.44-5.431-15.2
			c-1.95,16.3-6.75,30.58-4.34,46.681c2.771,18.439,22.5,39.649,8.69,64.04c2.67,6.369,3.14,14.939,5.42,21.699
			c6.63,0.971,17.42-2.22,20.63,2.181c-0.101,8.59-12.91,4.46-20.63,5.42c-0.66,7.17,11.38,1.649,13.029,6.51
			c0.78,3.32-1.88,3.2-1.09,6.52c-9.029-1.079-20.359-1.979-27.13-2.17c-3.05,7.801-0.93,20.78-3.26,29.301
			c-7.58-2.181-6.32-13.221-7.6-21.71c-43.58-6.341-94.83-5.021-141.101-8.681c0.47-2.43,5.351-0.439,7.601-1.08
			c-6.171-2.52-17-0.38-24.971-1.09c3.101,2.69,11.87-0.29,15.2,2.17c-23.01,6.07-59.72-7.819-75.979,5.431
			c14.229,0.6,27.899,1.77,42.329,2.17c-32.59,1.85-68.159-0.311-103.109,1.08c-31.1,1.25-63.21-5.881-94.43-3.25
			c-54.04,4.55-108.44,11.239-153.05,27.13c28.1-12.78,61.95-19.82,98.78-23.88c-22.83-5.03-42.86-3.681-64.04,2.18
			c-4.67-0.521-1.39,2.92-3.26,3.25c-8.34-3.72-18.59,2.85-26.05,0c-4.55,1.29-1.94-4.57-4.34-5.43
			c-14.24-0.131-26.15,2.079-40.16,2.18c-2.44,2.26,0.37,9.77-4.34,9.76c-4.4-0.3-1.96-7.45-5.43-8.68
			c-7.92,0.04-10.6,5.319-17.37,6.51c-0.14,5.28,1.34,12.19-4.34,11.94c-0.47-3.73,0.43-6.08,1.09-8.681
			c-5.45,0.021-11.28,0.42-13.03-3.26c-2.95-12.36,13.51-5.31,11.94-16.28c-1.79-4.63-14.87-2.84-9.77-10.85
			c-0.42-4.4,6.77-1.2,9.77-2.17c7.11-38.07,12.72-90.91,3.26-128.08c0.49-3.021-5.92,0.85-5.43-2.17
			c4.02-13.19-2.24-21.681-1.08-34.74c2.13-24.06,15.05-48.42,15.19-72.72c0.04-7.05-1.73-13.681-1.08-20.62
			c0.4-4.3,3.15-9.44,3.25-14.11c0.27-11.609-4.52-25.96-6.51-39.08c-3.81-25.04-8.2-59.06-4.34-90.08
			c-0.82-4.08,4.14-2.37,4.34-5.43c4.76-26.37-4.73-45.22-6.51-68.38c-2.93,17.69,0.63,41.87-2.17,59.7
			c-4.42-37.22-2.36-85.15,1.08-121.57c-9.34-6.09-5.26-19.69-6.51-34.73c-0.85-10.23-7.92-23.75-2.17-35.82
			c-3.84-1.43-14.19,5.03-20.62,1.08c0-1.44,0-2.89,0-4.34c9.68-4.94,21.83-2.57,24.96-10.85c2.38-6.3-4.33-10.96-3.26-20.63
			c8.52,0.89,5.68,13.14,14.11,14.12c1.47-5.05,2.3-10.74,2.18-17.37c7.48,6.37,3.2-4.49,7.59-6.51c6.79-0.64,1.47,10.84,6.52,11.94
			c30.99,8.31,63.07-4.51,94.43-3.26c47.37,1.88,96.34,5.94,142.18-1.09c3.66-1.67-2.45-6.36,2.18-6.51
			c14.14,1.81,27.7,4.34,41.24,6.51c13.47,2.17,28.04,6.73,41.25,6.52c16.271-0.27,32.48-7.5,51.01-5.43
			c38.91-12.49,91.63-3.51,133.511-1.09c15.199,6.87,36.829,7.31,54.27,11.94c0.01-8.67-0.98-18.34,3.25-22.79c0.73,0,1.45,0,2.17,0
			c2.17,8.69,8.92,12.79,9.771,22.79c6.819-0.78,3.84-11.36,8.689-14.11c4.3,3.27,9.03-4.38,13.021,1.09
			c0.71,8.31-2.67,12.53-3.261,19.54C667.94,39.01,687.58,36.02,692.21,48.03z M658.57,622.21c0.13-12.08-1.391-22.5-5.431-30.39
			C654.71,602.18,653.67,615.17,658.57,622.21z M647.71,373.65c0.5-12.4,11.65-19.15,9.771-30.391
			c-3.421-0.53-2.461,3.33-6.511,2.17c-0.66-2.6,1.36-7.88-1.09-8.68C647.71,348.2,645.72,370.63,647.71,373.65z M648.8,131.6
			c1.23-11.57,7.521-25.43,2.17-36.9c-1.09,0-2.17,0-3.26,0C652.58,108.98,645.13,120.2,648.8,131.6z M643.37,305.27
			c0.08-18.79,3.06-30.14-2.17-44.5C640.37,275.43,633.8,295.81,643.37,305.27z M643.37,624.38c-5.13-0.79-4.76,3.92-5.43,7.601
			C643.07,632.76,642.7,628.05,643.37,624.38z M640.11,246.66c2.27-24.76-7.07-47.5-7.591-72.73c0.461-3.04-4.05,2.72-4.35-1.08
			c-0.62-29.77,2.59-63.37-6.51-84.66c-2.7,37.07,2.27,75.85-1.08,112.88c-3.72-36.46-4.3-80.57-2.17-119.4
			c-8.71-9.39-29.15-12.81-35.82-20.62c14.65,0.59,28.17,14.42,36.9,13.03c-0.55-12.12-12.53-12.8-21.71-16.29
			c-0.46-2.99,4.05-1.01,4.34-3.25c-14.15-10.1-52.021,2.61-67.29-5.43c8.18,0.21,21.39-0.29,23.88-2.17
			c-20.12-0.51-32.94-8.31-54.27-7.6c-3.45,2.12,4.619,5.12,1.079,7.6c-14.149,3.44-26.689-4.05-40.159-4.34
			c-21.45-0.47-42.511,9-66.21,7.6c-0.78-2.47-0.971-5.55-2.17-7.6c-6.881,1.08-15.351,0.56-20.62,3.26
			c2.779,0.11,5.17,0.61,6.51,2.17c-16.86,1.53-36.68-0.89-47.76-2.17c-47.89-5.58-100.53,4.44-147.7,1.56
			c-2.13-0.17-4.27-0.33-6.42-0.48c2.13,0.19,4.27,0.35,6.42,0.48c12.59,1.03,24.71,2.52,35.91,4.95
			c-30.17,2.3-67.97-12.02-93.35,3.25c9.43,1.46,16.36-5.33,23.88-2.17c-2.65,4.22-12.51,1.24-14.11,6.52
			c6.45,0.78,16.41-1.94,19.54,2.17c-16.95,4.24-32.31-2.67-46.68-1.09C95.9,62.89,83.72,74.4,69.19,77.33
			c-2.85,8.34-6.78,14.45-3.26,23.88c9.85-3.9,11.57-15.93,23.88-17.37c-4.75,11.19-20.1,12.73-22.79,26.05
			c-1.61,7.97,1.56,22.08,2.17,33.65c1.39,26.64,6.62,59.83,2.17,78.15c-2.25-24.89-2.71-51.56-5.43-75.98
			c-15.92,17.2,0.95,39.48,0,65.13c-0.72,19.63-3.96,36.22-2.17,56.44c0.74,3.7,3.61-4.78,4.34-1.09
			c-1.14,58.31,7.34,117.35,2.17,172.58c-3.41,1.25-2.63-1.699-4.34-2.17c5.62,20.66-5.28,39.66-3.25,57.53
			c1.88,16.59,11.53,30.09,14.11,45.59c0.17-1.279-0.19-3.08,1.08-3.26c-0.4,16.45,3.36,31.31,6.51,45.59
			c3.18,14.41,3.74,29.47,9.77,42.33c6.66,1.54,2.11-3.05,4.34-4.34c9.46,10.8,33.75,6.78,42.34,18.45
			c-12.06-2.061-19.31-8.92-33.65-8.681c1.08,4.71,6.2,14.771,11.94,18.45c3.56-1.14,8.88-0.52,11.94-2.17
			c1.85,2.141,3.62,2.96,6.51,3.25c27.29,2.8,70.46-5.88,96.6,2.17c-34.94,0.311-70.43-4.68-102.03,1.09
			c35.12,3.71,79.18-1.25,116.14,3.261c-0.74,2.93-13.61-0.67-10.85,2.17c17.85,0.13,30.69-4.771,48.84-4.351
			c0.24,2.061-1.22,2.4-1.09,4.351c17.85,1.2,32.03-9.771,47.76-7.601c5.72,0.79,9.95,6.88,16.28,7.601
			c4.53,0.51,9.38-1.83,14.11-2.17c12.36-0.92,26.66,1.58,41.25-1.091c-4.1,0.12-5.84-2.119-6.51-5.43
			c7.97-6.12,18.83-1.62,29.3-1.08c12.439,0.641,25.78-0.62,39.08,0c10.95,0.51,22.399,3.521,32.56,2.17
			c10.721-1.43,17.23-9.29,28.221-6.51c29.789,13.5,63.189-16.31,94.43-18.46c2.47-4.99,5.05-13.66,4.34-18.45
			c0.24,0.851,0.91,1.26,2.17,1.09c0.51-5.119,1.55-6.46-1.08-9.77c12.38-21.16-1.33-55.17-1.09-81.41
			c-4.44,1.71-1.52,10.78-6.51,11.94c1.979-46.75-0.63-106.811,8.68-149.78c-0.54,26.7-2.09,55.24-3.25,80.32
			c-0.28,6.01-4.46,16.72,2.17,20.619c1.58-47.619,10.601-87.81,7.601-140.02c2.359-0.69,3.449,3.08,3.25-1.08
			c9.409-18.39-3.391-34.19-4.341-48.85C632.67,275.66,638.73,261.75,640.11,246.66z M639.03,511.5
			c-0.721-7.61,1.43-18.08-1.09-23.88C634.44,492.73,634.64,507.64,639.03,511.5z M635.77,621.12c1.051-4.4,5.641-10.96,2.171-16.28
			C638.89,611.24,632.27,615.77,635.77,621.12z M636.86,575.54c7.26-22.87-6.49-38.13-2.17-61.87
			c-0.551-4.52-4.181-5.96-4.351-10.86c6.311-18.06,8.271-41.409,3.26-62.949C629.26,484.98,627.19,534.8,636.86,575.54z
			 M636.86,674.31c1.729-9.079-9.79-4.72-13.03-3.26c-29.08-1.3-62.7-4.64-89-2.17c-0.6,0-1.23,0.88,0,1.09
			c16.6,2.03,35.64,1.32,54.27,2.17C606.28,672.92,624.13,676.08,636.86,674.31z M633.6,66.48c-0.14-2.68-0.159-5.23,1.091-6.51
			c-3.24-0.09-7.03-5.2-8.69-3.26C629.71,58.79,629.72,64.57,633.6,66.48z M632.52,633.06c1.25-0.77,4.74-7.67,0-7.6
			C633.42,628.3,629.23,631.42,632.52,633.06z M627.09,623.29c5.021-1.69,6.83-17.49,5.43-18.45
			C631.88,612.16,627.6,615.85,627.09,623.29z M629.26,69.73c0.12,2.77,0.2,5.59,3.26,5.43C632.39,72.39,632.31,69.58,629.26,69.73z
			 M630.34,27.4c-0.56-5.58-0.62-11.67-3.25-15.19C627.91,17.54,624.8,26.79,630.34,27.4z M627.09,633.06
			c-0.3-1.899,3.05-5.409,0-6.51c-15.66,5.69-34.149,8.54-47.76,16.28C597.04,641.37,607.08,632.22,627.09,633.06z M605.38,641.75
			c-8.35,0.26,24.87,4.79,20.62-3.26C618.86,639.31,612.5,640.9,605.38,641.75z M626,69.73c-0.79-2.46,1.96-8.46-2.17-7.59
			C624.02,65.21,622.9,69.58,626,69.73z M618.41,56.71c2.02-8.18-7.59-4.72-13.03-5.43C606.57,56.34,613.78,58.37,618.41,56.71z
			 M620.58,647.17c-6.29,0.61-20.8-1.29-21.71,1.09C607.35,647.22,614.96,651.54,620.58,647.17z M595.61,37.17
			c3.859,0.16,9.229,6.54,11.939,1.09C605.07,37.07,598.57,34.29,595.61,37.17z M601.04,651.51c-9.97,0.53-22.49-1.5-29.31,2.17
			C581.14,652.6,595.1,656.07,601.04,651.51z M531.57,39.34c15.77,0.77,38.5,5.31,53.189,0C572.74,33.11,544.25,35.67,531.57,39.34z
			 M508.78,651.51c6.89-0.71,16.63,1.431,21.71-1.08C524.36,647.35,514.08,647.94,508.78,651.51z M474.05,669.97
			c2.29-6.37,26.53,0.73,30.391-7.6c-19.341,1.29-40.431,0.81-55.36,6.51C457.76,668.89,466.85,668.48,474.05,669.97z M457.76,25.23
			c8.46-0.22,16.91-0.45,22.8-3.25c-7.6,0-13.359-1.84-21.71-1.09C458.93,22.78,458.61,24.27,457.76,25.23z M432.8,667.79
			c4.97-1.271,14.48,3.01,14.11,0C442.11,668.57,436.51,664.51,432.8,667.79z M416.52,655.86c12.801,0.739,22.601,4.92,34.73,1.08
			C441.12,655.85,426.79,653.19,416.52,655.86z M444.74,26.32C430.23,24.98,432.69,29.64,444.74,26.32L444.74,26.32z M416.52,671.05
			c-3.649,0.69-10.079-1.399-11.939,1.09C408.61,671.66,414.87,675.76,416.52,671.05z M382.87,673.22
			c-17.99,0.36,12.74,4.28,14.11,1.09C391.98,673.98,388.07,673.12,382.87,673.22z M375.27,35c-10.069-1.41-25.859-0.6-37.99-1.08
			c-2.5-0.1-22.83-0.73-10.85,1.08C340.69,37.15,364.89,39.25,375.27,35z M335.11,655.86c-8.09,0.22-17.61-0.971-22.79,2.17
			C320.42,657.8,329.93,658.99,335.11,655.86z M340.54,43.68c-5.17-7.51-16.29-3.94-24.96-4.34c-35.62-1.61-76.73-0.94-107.46,3.26
			C247.89,45.51,299.51,41.47,340.54,43.68z M289.53,36.09c9.2-1.23,19.73,1.95,26.05,0C308.17,34.55,295.15,29.7,289.53,36.09z
			 M226.57,659.11c-3.65,0.689-10.08-1.4-11.94,1.09C218.29,659.51,224.71,661.6,226.57,659.11z M201.61,21.98
			c6.88-0.71,14.79,3.27,20.62,0C218.32,20.21,201.91,20.21,201.61,21.98z M183.16,664.54c3.62-0.4,12.91-0.771,11.94-2.17
			C190.23,662.21,185.81,662.48,183.16,664.54z M200.52,656.94c-15.92,0.72-34.73-1.44-48.84,1.09
			C167.18,660.08,186.73,661.74,200.52,656.94z M173.39,25.23c-4.01,0.7-10.81-1.4-13.03,1.09
			C164.37,25.63,171.17,27.72,173.39,25.23z M171.22,19.81c-24.77,1.64-57.2,1.41-75.98,5.42c5.43-0.73,8.4,1.01,13.02,1.09
			c2.6-0.66,4.95-1.56,8.69-1.09C135.36,27.62,154.5,22.6,171.22,19.81z M128.89,43.68c-4.01,0.7-10.82-1.4-13.03,1.09
			C119.87,44.08,126.67,46.18,128.89,43.68z M125.63,49.11c-6.33-0.67-18.39-2.02-19.54,1.09c3.24,0.02,6.62-0.1,6.51,3.25
			c-3.56,2.22-10.99,0.59-16.28,1.09C103.79,58.96,124.07,57.79,125.63,49.11z M91.98,627.63c3.64,8.67,11.55,18.84,20.62,18.46
			C105.1,640.57,106.96,625.68,91.98,627.63z M110.43,674.31c-11.22,1.181-30.23-5.819-35.81,3.25
			C84.21,678.15,101.65,678.07,110.43,674.31z M108.26,41.51c-6.39,0.82-11.72-3.28-14.11,2.17
			C97.77,45.65,107.24,45.6,108.26,41.51z M98.49,50.2c-7.24,1.07-19.74-3.1-20.62,4.34C86.97,55.31,92.49,52.52,98.49,50.2z
			 M76.79,626.55c-0.28,10.05,11.94,13.37,18.45,13.021C89.53,634.79,88.12,625.71,76.79,626.55z M102.84,59.97
			c-15.3-0.46-32-2.33-31.48,13.02C82.5,69.3,93.69,65.66,102.84,59.97z M87.64,623.29c-1.84-20.23-6.78-37.36-10.85-55.35
			C77.67,587.94,71,616.52,87.64,623.29z M82.21,43.68c-4.72-0.69-11.32,2.37-9.77,4.35C75.15,46.03,80.67,46.85,82.21,43.68z
			 M74.62,653.68c-1.09,0-2.18,0-3.26,0c0.48,2.061-1.48,6.551,2.17,5.431C75.88,659.29,74.02,655.26,74.62,653.68z M72.44,603.76
			c5.19-36.58,2.41-71.689-10.85-97.689C66.13,537.71,68.52,571.5,72.44,603.76z M72.44,623.29c1.82-1.54,2.16-10.78-1.08-10.85
			C72.89,616.49,67.02,622.31,72.44,623.29z M70.27,417.07c-1.27-11.391,0.58-25.91-3.25-34.74C63.23,395,65.95,406.96,70.27,417.07
			z M69.19,64.31c-1.45,0-2.9,0-4.34,0c-0.14,4.6-5.44,9.71-2.17,14.11C66.14,75.01,68.42,70.42,69.19,64.31z M65.93,135.94
			c-0.74-7.94-0.39-16.97-2.17-23.87C55.18,117.75,62.58,129.58,65.93,135.94z M64.85,356.28c4.82-8.21,0.29-25.51,0-35.82
			C63.86,331.04,58.78,348.69,64.85,356.28z M64.85,296.58c-0.7-4.01,1.4-10.81-1.09-13.02C62.92,286.49,60.8,295.45,64.85,296.58z
			 M58.33,113.15c3.75-2.79,7.94-10.85,4.35-17.37C62.38,102.02,56,107.89,58.33,113.15z M60.5,487.62
			c0.36-19.76,4.89-42.44,0-60.79C59.03,444.77,55.76,470.47,60.5,487.62z M60.5,90.36c-0.57-2.84,5.22-8.12,0-8.69
			C61.76,85.2,57.19,88.35,60.5,90.36z M60.5,318.29c0.56-2.83,3.46-13.23-1.08-14.11C60.12,308.55,58.01,315.72,60.5,318.29z
			 M58.33,153.31c4.92-6.06,3.48-19.42-1.08-24.96C55.43,134.76,55.18,148.32,58.33,153.31z M55.08,78.42
			c0.93-6.13,4.46-20.61,3.25-21.71c-0.24,0.85-0.9,1.26-2.17,1.08C57.68,65.85,52.63,73.04,55.08,78.42z M57.25,601.58
			c-0.3-2.32,0.84-11.57-1.09-8.68C56.46,595.23,55.32,604.48,57.25,601.58z M50.74,545.14c-0.34-15.58,1.16-33-2.17-45.58
			C47.35,513.66,45.71,534.05,50.74,545.14z M49.65,661.28c1.14-5.86,0.98-19.78-2.17-24.96C49.29,644.19,41.75,657.94,49.65,661.28
			z M47.48,192.39c4.92-2.16,1.12-13.07-1.09-15.2C45.91,183.11,48.33,186.11,47.48,192.39z M43.14,68.65
			c-2.69-5.63-0.64-16-5.43-19.54c-8.38,7.66-2.52,21.24-1.08,33.65c1.35,11.7-3.97,26.86,4.34,33.65
			C44.37,98.99,35.24,77.97,43.14,68.65z"/>
		<path d="M81.13,367.14c1.58,36.11,1.88,82.57,0,121.561c-3.66-16.24-1.66-38.141-2.17-57.521c-2.28,15.09-0.18,34.551-5.43,46.67
			c0.31-34.069,0.18-77.97,4.34-111.8C79.62,365.75,79.74,367.08,81.13,367.14z"/>
	</g>
</g>
</svg>
