<?xml version="1.0" encoding="utf-8"?>
<!-- Generator: Adobe Illustrator 14.0.0, SVG Export Plug-In . SVG Version: 6.00 Build 43363)  -->
<!DOCTYPE svg PUBLIC "-//W3C//DTD SVG 1.0//EN" "http://www.w3.org/TR/2001/REC-SVG-20010904/DTD/svg10.dtd">
<svg version="1.0" xmlns="http://www.w3.org/2000/svg" xmlns:xlink="http://www.w3.org/1999/xlink" x="0px" y="0px" width="612px"
	 height="288px" viewBox="0 0 612 288" enable-background="new 0 0 612 288" xml:space="preserve">
<g id="Layer_2_x23_00ADEF">
	<g>
		<g>
			<path fill="#00AEEF" d="M556.032,16.271c1.366,5.915-8.524,13.537-13.653,19.615c-25.857,30.643-46.531,61.096-77.147,86.292
				c-13.079,10.769-30.375,23.508-51.792,21.333c-23.897-2.432-30.892-19.475-41.497-38.126
				c-24.436,15.755-32.843,50.046-68.993,51.649c-35.839,1.576-44.571-31.247-63.613-50.172
				c-36.846,17.335-68.14,39.289-108.854,55.821c-5.762,2.335-35.3,16.002-39.928,7.483c-3.846-7.087,9.612-17.813,13.704-22.1
				c36.805-38.45,78.068-67.696,113.234-108.769c4.509-5.279,12.665-18.495,16.967-19.548c8.345-2.025,22.143,7.265,27.897,12.992
				c14.878,14.801,19.419,41.411,50.676,34.996c17.284-3.537,30.207-20.266,45.415-33.064c6.744-5.666,25.706-23.947,37.693-19.959
				c7.168,2.406,10.699,20,13.532,27.619c4.438,11.985,7.546,22.268,11.859,28.415c54.465-2.306,78.516-47.004,122.986-58.851
				C548.823,10.756,555.015,11.917,556.032,16.271z M494.179,83.81c20.705-23.409,39.149-47.727,54.365-66.032
				c-51.141,12.162-67.463,60.572-131.286,59.513c-10.301-16.643-15.214-38.461-23.719-56.829
				c-37.604,8.636-48.753,57.375-91.442,55.342c-35.479-1.697-32.309-43.466-65.287-49.378
				c-36.443,49.663-91.082,86.357-131.908,130.769c-2.259,2.458-6.389,5.207-5.982,8.996c54.668-14.975,93.896-46.022,142.239-67.58
				c18.075,14.676,22.81,41.048,46.234,48.995c46.625,15.785,56.52-41.007,88.062-52.095c8.192,20.14,21.15,46.28,49.73,40.778
				C453.698,130.784,475.505,104.929,494.179,83.81z"/>
			<path fill="#00AEEF" d="M541.753,149.405c0.287,9.777-17.691,26.388-23.894,34.325c-25.624,32.771-53.509,68.949-86.275,87.748
				c-8.942,5.12-22.51,11.011-36.648,9.208c-23.161-2.97-30.948-21.824-39.757-42.235c-16.796,16.185-40.016,38.403-72.918,40.798
				c-35.791,2.612-55.396-20.934-65.319-47.721c-38.387,12.383-66.74,29.786-105.291,43.461
				c-8.625,3.055-32.533,12.347-37.394,5.049c-5.262-7.909,8.589-15.883,13.67-20.442c40.209-36.018,77.541-66.36,117.292-104.527
				c5.194-5.006,14.359-16.924,19.402-17.013c8.117-0.147,23.024,26.084,26.703,31.199c4.703,6.5,18.712,27.585,28.41,29.559
				c9.904,2.029,25.528-5.685,32.507-9.291c19.329-9.952,30.237-23.527,46.31-36.343c4.632-3.705,19.342-16.6,26.808-14.378
				c7.208,2.13,9.977,28.429,12.521,36.715c5.121,16.643,12.825,35.34,37.539,28.914c34.693-9.005,60.46-49.732,89.968-65.299
				C529.801,136.786,541.438,138.47,541.753,149.405z M524.024,165.623c4.463-5.556,13.642-13.02,8.7-20.543
				c-3.129-0.685-3.835,0.959-5.004,1.557c-28.08,14.146-62.518,63.642-99.924,65.928c-36.457,2.236-34.812-39.184-45.057-67.186
				c-36.003,19.165-53.844,57.272-104.812,60.856c-22.923-14.808-35.918-39.136-51.799-60.691
				c-43.892,41.468-94.32,81.699-138.368,122.335c-2.762,2.552-7.463,6.256-5.965,8.168c52.86-10.937,89.182-39.09,139.455-52.72
				c7.946,26.402,24.933,48.773,55.346,49.178c39.111,0.528,63.636-28.277,81.385-49.743c5.994,19.578,11.17,39.502,27.215,47.784
				c21.239,10.976,44.844-5.504,59.181-17.042C475.876,228.172,499.924,195.628,524.024,165.623z"/>
		</g>
	</g>
</g>
<g id="Layer_1_x23_000000">
	<g>
		<g>
			<path d="M558.484,17.978c-0.006,0.276-0.011,0.552-0.017,0.828c-16.443,21.82-36.319,46.092-58.607,70.919
				c-20.079,22.369-41.958,50.036-74.012,54.864c-31.05,4.659-44.493-16.226-53.973-35.891
				c-23.316,17.607-51.811,71.193-96.991,42.8c-16.248-10.219-22.463-29.111-36.41-42.996
				c-36.459,18.689-69.966,41.668-110.544,57.443c-8.178,3.168-38.194,16.531-39.812,1.686c-0.713-6.574,9.42-15.124,15.344-21.237
				c37.978-39.273,78.446-68.414,113.251-109.598c5.271-6.248,12.212-17.485,18.607-18.686c8.163-1.545,21.34,6.817,27.085,12.146
				c15.016,13.941,19.391,40.22,47.329,36.586c23.3-3.037,46.996-36.14,63.078-45.968c5.89-3.593,16.904-10.433,24.206-8.629
				c7.421,1.858,10.901,20.195,13.532,27.62c4.329,12.241,8.213,23.438,12.671,29.259c55.849-4.143,73.598-47.966,122.174-59.696
				c2.209,0.044,4.418,0.089,6.627,0.133C555.374,11.233,557.562,14.005,558.484,17.978z M542.379,35.885
				c5.129-6.078,15.02-13.7,13.653-19.615c-1.018-4.354-7.209-5.514-11.514-4.375c-44.471,11.847-68.521,56.545-122.986,58.851
				c-4.313-6.146-7.421-16.43-11.859-28.415c-2.833-7.619-6.364-25.213-13.532-27.619c-11.987-3.988-30.949,14.294-37.693,19.959
				c-15.208,12.798-28.131,29.527-45.415,33.064c-31.257,6.415-35.798-20.195-50.676-34.996
				c-5.755-5.727-19.552-15.017-27.897-12.992c-4.303,1.053-12.458,14.269-16.967,19.548
				c-35.166,41.073-76.429,70.319-113.234,108.769c-4.092,4.286-17.549,15.013-13.704,22.1c4.628,8.519,34.167-5.148,39.928-7.483
				c40.715-16.532,72.008-38.486,108.854-55.821c19.042,18.925,27.774,51.749,63.613,50.172
				c36.15-1.604,44.557-35.895,68.993-51.649c10.605,18.652,17.6,35.695,41.497,38.126c21.417,2.174,38.713-10.564,51.792-21.333
				C495.848,96.981,516.521,66.528,542.379,35.885z"/>
			<path d="M534.548,136.83c4.332,0.951,10.1,7.731,9.657,14.283c-0.246,3.655-7.617,13.071-12.825,19.631
				c-15.303,19.201-29.044,37.14-44.175,53.789c-22.458,24.737-45.153,49.246-74.045,56.521
				c-34.914,8.793-48.84-15.554-58.065-38.46c-9.632,5.936-18.104,16.901-30.32,24.252c-11.728,7.067-27.165,13.214-42.547,14.061
				c-39.2,2.182-54.899-21.579-66.993-46.926c-45.956,15.305-82.678,40.222-132.793,51.195c-1.381-0.027-2.761-0.056-4.142-0.083
				c-3.861-1.148-6.296-3.683-7.305-7.605c0.017-0.828,0.033-1.656,0.05-2.484c9.669-13.773,23.412-24.943,36.37-36.561
				c33.018-29.584,65.622-54.895,97.856-85.858c5.528-5.31,13.822-16.831,21.042-16.151c7.806,0.727,21.831,24.489,26.703,31.2
				c6.838,9.374,17.858,28.017,28.41,29.559c9.623,1.419,22.277-5.439,30.867-10.152c21.07-11.559,28.167-21.878,46.31-36.344
				c5.422-4.328,18.505-16.15,27.619-13.533c8.206,2.34,9.877,26.528,12.538,35.886c4.16,14.639,9.657,25.436,19.281,30.204
				c13.494,1.187,21.855-1.632,29.938-6.027c13.178-7.124,27.916-20.536,41.256-32.302
				C497.195,157.901,518.632,133.298,534.548,136.83z M517.859,183.73c6.202-7.938,24.181-24.548,23.894-34.325
				c-0.314-10.935-11.952-12.619-16.367-10.273c-29.508,15.566-55.274,56.294-89.968,65.299
				c-24.714,6.426-32.418-12.271-37.539-28.914c-2.544-8.286-5.312-34.584-12.521-36.715c-7.466-2.222-22.176,10.673-26.808,14.378
				c-16.072,12.815-26.98,26.391-46.31,36.343c-6.979,3.606-22.603,11.32-32.507,9.291c-9.698-1.974-23.707-23.059-28.41-29.559
				c-3.678-5.115-18.585-31.347-26.703-31.199c-5.043,0.088-14.208,12.007-19.402,17.013
				c-39.751,38.167-77.083,68.51-117.292,104.527c-5.081,4.56-18.932,12.533-13.67,20.442c4.86,7.298,28.769-1.994,37.394-5.049
				c38.551-13.675,66.904-31.078,105.291-43.461c9.924,26.787,29.529,50.333,65.319,47.721
				c32.903-2.395,56.123-24.613,72.918-40.798c8.809,20.411,16.596,39.266,39.757,42.235c14.139,1.803,27.706-4.088,36.648-9.208
				C464.351,252.68,492.235,216.502,517.859,183.73z"/>
			<path d="M532.725,145.08c4.941,7.523-4.237,14.987-8.7,20.543c-24.101,30.005-48.148,62.549-79.648,87.881
				c-14.337,11.538-37.941,28.018-59.181,17.042c-16.045-8.282-21.221-28.206-27.215-47.784
				c-17.749,21.466-42.274,50.271-81.385,49.743c-30.413-0.404-47.4-22.775-55.346-49.178
				c-50.273,13.63-86.594,41.783-139.455,52.72c-1.498-1.912,3.204-5.616,5.965-8.168c44.048-40.636,94.476-80.867,138.368-122.335
				c15.881,21.556,28.876,45.884,51.799,60.691c50.969-3.584,68.81-41.691,104.812-60.856c10.244,28.002,8.6,69.422,45.057,67.186
				c37.406-2.286,71.844-51.782,99.924-65.928C528.89,146.039,529.596,144.396,532.725,145.08z"/>
			<path d="M548.544,17.777c-15.216,18.306-33.66,42.623-54.365,66.032c-18.674,21.119-40.48,46.975-68.992,52.479
				c-28.58,5.502-41.538-20.638-49.73-40.778c-31.542,11.088-41.437,67.88-88.062,52.095c-23.424-7.947-28.159-34.319-46.234-48.995
				c-48.343,21.558-87.571,52.605-142.239,67.58c-0.407-3.789,3.723-6.538,5.982-8.996c40.826-44.412,95.465-81.106,131.908-130.769
				c32.978,5.912,29.807,47.681,65.287,49.378c42.689,2.033,53.838-46.706,91.442-55.342c8.505,18.368,13.418,40.186,23.719,56.829
				C481.081,78.35,497.403,29.939,548.544,17.777z"/>
		</g>
	</g>
</g>
</svg>
