<?xml version="1.0" encoding="utf-8"?>
<!-- Generator: Adobe Illustrator 14.0.0, SVG Export Plug-In . SVG Version: 6.00 Build 43363)  -->
<!DOCTYPE svg PUBLIC "-//W3C//DTD SVG 1.0//EN" "http://www.w3.org/TR/2001/REC-SVG-20010904/DTD/svg10.dtd">
<svg version="1.0" xmlns="http://www.w3.org/2000/svg" xmlns:xlink="http://www.w3.org/1999/xlink" x="0px" y="0px" width="432px"
	 height="576px" viewBox="0 0 432 576" enable-background="new 0 0 432 576" xml:space="preserve">
<g id="Layer_2_x23_CADB2A">
	<g>
		<g>
			<path fill="#CBDB2A" d="M410,473.53c-13.48,27.399,24.12,78.46,1.63,91.67c-23.28,13.67-57.56-34.46-88.39-29.47
				c-15.431-13.671-23.26-34.48-32.74-52.381c-28.87-54.52-58.63-111.89-98.21-157.149c-19.25,5.59-25.94,19.81-39.29,36.01
				c-15.79,19.15-56.54,54.03-50.75-8.18c3.73-39.96,28.34-75.99,57.3-93.3c-23.99-51.32-58.3-92.3-81.85-144.06
				c-3.22,5.73,6.66,23.33-1.64,29.47C23.18,152.97,7.67,75.53,10.58,18.46C74.62-8.01,155.14,29.76,153,93.76
				c-10.8,11.15-28.59,0.45-36.01-6.55c25.35,53.76,71.25,86.98,99.85,137.5c18.25-8.69,36.95-26.3,47.47-44.19
				c6.221-10.58,7.03-26.47,18.011-29.47c16.47-4.5,30.51,26.47,31.1,42.56c1.45,39.8-29.439,69-49.11,88.4
				C310.17,348.55,361.23,409.89,410,473.53z M405.09,553.74c-1.729-27.2-10.74-47.101-8.189-78.58
				c-50.7-64.43-102.54-127.72-148.96-196.43c30.819-16.73,76.21-79.69,36.01-116.22c-12.55,37.1-37.4,61.9-70.38,78.57
				C181.12,179.13,117.33,139.8,98.98,69.2c20.68-10.58,24.41,17.52,44.2,18.01c-10.36-49.6-60.05-73.84-121.14-62.2
				c1.27,51.11,6.42,98.34,45.84,111.31c-4.28-13.69-7.95-41.7,11.46-40.93c28.41,61.07,68.77,110.21,96.58,171.88
				c-39.94,17.91-62.91,52.77-62.21,111.31c36.38-13.271,39.81-59.5,83.49-65.47c53.12,60.92,89.729,138.34,129.31,212.8
				C363.95,523.94,372.63,550.72,405.09,553.74z"/>
			<path fill="none" d="M398.54,570.11c-130.96,0-261.91,0-392.87,0c0-174.61,0-349.22,0-523.82C9.7,87.18,26.01,151.75,64.6,152.69
				c12.47,0.3,13.84-6.11,21.28-13.1c20.53,41.68,47.56,76.85,68.76,117.86c-24.65,22.94-43.54,39.2-52.39,80.21
				c-3.94,18.26-11.27,54.08,9.83,57.29c16.99,2.59,33.99-19.46,42.56-29.46c13.12-15.33,20.14-28.09,36.01-36.01
				c38.06,43.93,67.2,101.02,96.581,157.14c7.109,13.6,20.5,46.06,32.739,52.38c5.931,3.07,16,2.78,22.91,4.92
				C361.34,549.62,381.91,567.55,398.54,570.11z"/>
		</g>
	</g>
</g>
<g id="Layer_1_x23_000000">
	<g>
		<g>
			<path fill="none" d="M398.54,570.11c-130.96,0-261.91,0-392.87,0c0-174.61,0-349.22,0-523.82C9.7,87.18,26.01,151.75,64.6,152.69
				c12.47,0.3,13.84-6.11,21.28-13.1c20.53,41.68,47.56,76.85,68.76,117.86c-24.65,22.94-43.54,39.2-52.39,80.21
				c-3.94,18.26-11.27,54.08,9.83,57.29c16.99,2.59,33.99-19.46,42.56-29.46c13.12-15.33,20.14-28.09,36.01-36.01
				c38.06,43.93,67.2,101.02,96.581,157.14c7.109,13.6,20.5,46.06,32.739,52.38c5.931,3.07,16,2.78,22.91,4.92
				C361.34,549.62,381.91,567.55,398.54,570.11z"/>
			<path d="M421.46,543.92c0,4.91,0,9.82,0,14.73c-0.55,0-1.09,0-1.64,0c0.29,7.38-6.36,7.83-9.82,11.46c-3.82,0-7.64,0-11.46,0
				c-16.63-2.561-37.2-20.49-55.66-26.19c-6.91-2.14-16.979-1.85-22.91-4.92c-12.239-6.32-25.63-38.78-32.739-52.38
				C257.85,430.5,228.71,373.41,190.65,329.48c-15.87,7.92-22.89,20.68-36.01,36.01c-8.57,10-25.57,32.05-42.56,29.46
				c-21.1-3.21-13.77-39.03-9.83-57.29c8.85-41.01,27.74-57.27,52.39-80.21c-21.2-41.01-48.23-76.18-68.76-117.86
				c-7.44,6.99-8.81,13.4-21.28,13.1C26.01,151.75,9.7,87.18,5.67,46.29c0-8.19,0-16.37,0-24.56C8.43,13.03,16.65,9.79,25.32,7
				c15.82,0,31.64,0,47.47,0c0,0.55,0,1.09,0,1.64c20.84,1.34,41.38,9.68,58.93,27.82c20.3,20.99,46.81,73.34-3.28,65.48
				c26.56,42.75,64,74.6,90.041,117.86c16.029-7.39,24.64-17.68,36.01-34.37c7.479-10.99,15.819-39.35,31.1-39.29
				c16.01,0.07,29.49,26.3,31.101,42.56c4.27,43.04-31.421,74.36-45.83,96.58c32.79,47.27,69.409,92.31,108.04,140.78
				c10.05,12.61,31.6,34.721,34.369,47.471C418.79,498.93,410,520.14,421.46,543.92z M411.63,565.2
				c22.49-13.21-15.11-64.271-1.63-91.67c-48.77-63.641-99.83-124.98-145.69-191.521c19.671-19.4,50.561-48.6,49.11-88.4
				c-0.59-16.09-14.63-47.06-31.1-42.56c-10.98,3-11.79,18.89-18.011,29.47c-10.52,17.89-29.22,35.5-47.47,44.19
				c-28.6-50.52-74.5-83.74-99.85-137.5c7.42,7,25.21,17.7,36.01,6.55c2.14-64-78.38-101.77-142.42-75.3
				c-2.91,57.07,12.6,134.51,65.48,127.68c8.3-6.14-1.58-23.74,1.64-29.47c23.55,51.76,57.86,92.74,81.85,144.06
				c-28.96,17.31-53.57,53.34-57.3,93.3c-5.79,62.21,34.96,27.33,50.75,8.18c13.35-16.2,20.04-30.42,39.29-36.01
				c39.58,45.26,69.34,102.63,98.21,157.149c9.48,17.9,17.31,38.71,32.74,52.381C354.07,530.74,388.35,578.87,411.63,565.2z"/>
			<path d="M396.9,475.16c-2.551,31.479,6.46,51.38,8.189,78.58c-32.46-3.021-41.14-29.8-78.58-27.83
				c-39.58-74.46-76.189-151.88-129.31-212.8c-43.68,5.97-47.11,52.199-83.49,65.47c-0.7-58.54,22.27-93.4,62.21-111.31
				c-27.81-61.67-68.17-110.81-96.58-171.88c-19.41-0.77-15.74,27.24-11.46,40.93c-39.42-12.97-44.57-60.2-45.84-111.31
				c61.09-11.64,110.78,12.6,121.14,62.2c-19.79-0.49-23.52-28.59-44.2-18.01c18.35,70.6,82.14,109.93,114.59,171.88
				c32.98-16.67,57.831-41.47,70.38-78.57c40.2,36.53-5.19,99.49-36.01,116.22C294.36,347.44,346.2,410.73,396.9,475.16z"/>
		</g>
	</g>
</g>
</svg>
