<?xml version="1.0" encoding="utf-8"?>
<!-- Generator: Adobe Illustrator 14.0.0, SVG Export Plug-In . SVG Version: 6.00 Build 43363)  -->
<!DOCTYPE svg PUBLIC "-//W3C//DTD SVG 1.0//EN" "http://www.w3.org/TR/2001/REC-SVG-20010904/DTD/svg10.dtd">
<svg version="1.0" id="Layer_1" xmlns="http://www.w3.org/2000/svg" xmlns:xlink="http://www.w3.org/1999/xlink" x="0px" y="0px"
	 width="612px" height="792px" viewBox="0 0 612 792" enable-background="new 0 0 612 792" xml:space="preserve">
<g>
	<path d="M401.956,534.564c0-5.904,1.008-6.48,3.815-11.017c-16.128-5.184-20.088-8.063-24.695-23.399
		c-3.271,0.638-14.582,4.078-16.057,8.424c-7.271,3.888-10.439,13.176-19.151,16.775c-12.097,2.16-24.192,4.32-36.288,6.48
		c-0.381,3.047-11.481,8.438-14.544,9.864c-24.48,0-47.664-6.192-71.136-9.072c6.408-11.736,11.664-15.696,24.84-18.792
		c5.472-4.68,11.736-6.696,17.712-11.016c4.104-11.952,3.96-23.473,4.104-35.856c4.464-2.952,4.032-5.256,5.184-10.224
		c3.168-0.721,5.904-0.792,8.496-3.385c16.344-1.943,16.344-1.943,21.96-3.6c-6.048-13.104-10.8-23.328-10.8-37.296
		c7.2-24.84,10.512-26.136-2.664-48.6c-12.456,2.304-22.824,5.688-34.2,9.792c-18.072-1.872-52.416,18.432-67.32,30.888
		c-11.52,6.624-22.968,13.319-34.416,20.016c-12.24,0-18.936-2.088-28.44-8.063c0-10.584-3.384-19.944-4.68-30.168
		c4.392,0,14.256,9.792,18.216,13.752c20.16,9.576,23.976-2.376,41.4-10.8c-5.904-0.504-13.464,4.228-18.864,6.1
		c-15.264,0-22.824-14.092-22.536-27.34c15.12-0.864,10.656,19.296,32.76,10.728c-3.744-8.064-0.072-8.496-7.56-14.688
		c-13.536-3.456-11.592-4.896-19.152-12.456c-13.392-6.552-7.92-13.536-8.208-24.48c-7.56-9.36-11.592-18.72-8.352-30.096
		c16.488,0,24.768,9.648,39.168,14.4c4.896-3.24,6.624-3.672,8.208-9.216c2.664-0.432,5.4-0.792,8.136-1.152
		c2.52-22.608,12.672-13.464,30.384-9c9.576,5.832,23.04,17.28,35.28,17.28c8.28-3.96,20.376,4.752,28.08,8.64
		c4.824,0.936,9.72,1.872,14.616,2.88c-2.049-21.124,5.224-21.153,24.408-31.392c0.727-5.813,19.831,0.301,26.567-9.504
		c1.225-15.48,2.232-20.088,15.408-27.864c-1.186-5.391,1.44-20.215,1.44-27.648c18.072,6.264,24.552,18.576,38.88,31.536
		c8.496,15.552,9.072,37.944,13.392,56.592c7.272,19.728-1.943,35.424-7.632,54.936c0,4.32,24.552,24.552,31.176,31.968
		c5.257,8.855,14.904,33.479,24.408,38.664c3.024,7.416,11.664,7.704,14.256,16.416c8.712,1.08,9.792,39.456,9.792,48.312
		c-1.728,8.929-1.8,10.584-9.576,14.904c0,6.912-0.936,9.504-3.96,16.128c-9.863,2.016-9.863,2.016-15.84,2.016
		c-10.512-3.888-10.512-3.888-14.04-4.104c-3.384,16.992-17.136,21.815-26.063,34.775
		C401.178,571.684,409.575,542.183,401.956,534.564L401.956,534.564z"/>
	<path fill="#FFFFFF" d="M409.156,555.66c0.863-0.145,1.728-0.216,2.664-0.288c2.951-9,6.479-16.344,10.8-24.696
		c1.151,0.216,2.304,0.504,3.456,0.792c-1.279,2.71-14.691,26.784-9.504,26.784c2.262-5.278,9.243-24.642,14.688-25.632
		c-1.943,6.264-7.56,11.808-7.128,18.647c7.561-13.031,7.561-13.031,11.16-17.64c0.362,3.264-6.569,13.104-2.376,13.104
		c1.656-4.104,3.312-8.208,5.04-12.24c0.647,0,1.296,0,1.944,0c1.224,10.728-16.561,21.815-22.969,30.24
		C410.237,566.964,409.865,562.329,409.156,555.66L409.156,555.66z"/>
	<path fill="#FFFFFF" d="M408.22,554.652c-0.504-5.977-1.008-11.88-1.439-17.784c-2.664-3.168-2.448-3.168-2.448-6.696
		c2.952-1.943,2.952-1.943,4.536-1.728c-0.864,1.655-1.729,3.384-2.592,5.111c2.951-0.863,4.319-3.312,6.264-5.76
		c-1.008,4.824-4.824,12.96-4.392,13.896c5.039-1.44,4.752-11.593,11.592-12.96c-9.145,22.176-9.145,22.176-9.576,25.92
		C409.516,554.652,408.868,554.652,408.22,554.652L408.22,554.652z"/>
	<path fill="#FFFFFF" d="M286.324,540.252c-5.76-1.439-5.76-1.439-28.8-3.384c-11.088-2.88-19.152-4.68-29.808-5.256
		c5.112-12.816,18.72-12.96,28.296-21.168c15.264-6.12,17.064-13.248,15.408-29.664c0.936-1.944,0.936-1.944,1.152-12.816
		c4.176-3.096,4.176-4.68,5.76-9.576c7.344-1.439,13.32-2.159,21.384-2.159c-4.32,0.791-8.64,1.584-12.96,2.376
		c6.84,0.144,13.752,0.287,20.664,0.504c-7.632,5.184-19.44,5.399-27.864,6.768c3.569,3.569,27.376-2.572,31.896-5.04
		c0.827,9.934-28.492,11.97-35.28,12.168c14.4,4.176,27.72-0.936,42.048-5.976c0,6.589-35.811,11.733-42.479,12.744
		c0,0.647,0,1.296,0,1.943c27.864-4.319,27.864-4.319,31.392-4.104c-6.192,8.496-22.392,11.088-32.328,11.808
		c0,5.27,22.549-2.458,26.136-3.672c-3.312,10.872-20.304,7.992-27.648,12.24c7.128,1.008,14.04-1.08,20.88-3.601
		c0.56,9.514-17.812,10.836-25.128,11.305c0,5.995,19.211-2.281,22.248-3.601c1.126,9.011-25.07,8.842-30.456,10.296
		c7.632,0,15.336,0,23.04,0c-0.504,1.584-1.008,3.168-1.44,4.824c-9.576,1.44-9.576,1.44-22.032,1.44
		c-6.768-0.937-6.768-0.937-8.208-0.504c4.248,4.248,21.888,2.088,28.368,1.008c-2.52,9.863-29.808,2.52-35.856,1.151
		c0.604,6.743,31.876,5.254,34.128,4.32c1.684,7.858-36.351,1.927-43.416,1.224c0,4.861,40.796,4.648,46.512,4.753
		c4.432,4.432-19.105,3.259-22.536,2.951c0,3.997,17.791,1.524,22.104,1.44c6.552-1.368,15.336-4.968,22.104-2.88
		C297.052,539.964,296.26,539.532,286.324,540.252L286.324,540.252z"/>
	<path fill="#FFFFFF" d="M458.116,534.492c-16.057-5.977-26.28-9.792-41.761-11.017c-30.6-7.056-29.663-10.151-37.439-38.88
		c0-19.224,14.112-21.96,25.2-34.848c2.88,0,5.76,0,8.64,0c-9.288,17.712,2.736,22.464,8.424,37.728
		c11.305,14.832,31.176,16.345,34.057-4.823c9.071-4.824,1.584-27-2.664-33.84c-3.601-1.513-7.2-3.024-10.729-4.536
		c-4.031-9.792-18.72-18.36-20.16-24.984c-0.647,0-1.296,0-1.943,0c-3.889-6.264-11.088-15.336-14.904-22.032
		c-12.24-11.592-46.08-39.528-62.424-37.512c17.784,8.208,17.784,8.208,33.624,17.28c17.712,12.888,17.712,12.888,19.728,13.464
		c16.272,22.464,16.272,22.464,30.744,40.752c4.464,3.023,9.792,4.968,11.448,11.088c-8.496-1.512-19.008-4.032-23.04,4.824
		c-3.24-0.36-6.408-0.648-9.576-0.937c0.576-3.384,0.576-3.384-0.359-4.752c-8.856,24.769-36.288,22.032-24.984,0.504
		c5.832-3.527,6.984-2.952,14.256-3.096c-4.68-3.024-5.184-2.808-10.08-2.664c-6.984,7.92-14.688,18.792-0.936,25.344
		c-1.944,3.816-3.889,7.633-5.761,11.521c-13.248,4.104-19.943,5.472-32.688,0.576c-26.64-17.424-37.584-20.664-46.512-49.464
		c-1.224-14.544,1.08-19.801,5.76-33.84c0-19.08-12.384-26.208-17.28-41.04c2.016-23.184,12.672-30.672,33.48-16.776
		c5.544,1.8,29.808,10.8,13.535,18.936c7.561,0,5.832-2.088,7.129-9.576c4.752,3.456,9.72,6.048,13.319,11.664
		c-0.72,1.584-1.439,3.168-2.088,4.752c2.736-1.512,2.736-1.512,3.312-3.312c1.368,0.504,2.735,1.008,4.176,1.512
		c-0.36,1.296-0.72,2.592-1.08,3.96c1.44-0.792,2.88-1.512,4.392-2.232c30.24,13.68,30.24,13.68,31.464,15.12
		c-5.04,1.44-4.464,1.44-8.783-0.72c-5.655,3.77,9.54,3.017,10.224,2.88c2.664,2.16,5.4,4.32,8.136,6.48
		c-2.497,0.378-7.056-0.225-7.056,2.52c23.487-2.811,14.186,8.996,27,19.296c0-14.688-16.632-18.721-17.64-30.601
		c8.352,1.656,26.495,22.32,33.264,31.68c3.456,6.408,6.984,12.816,10.512,19.297c-10-3.636-11.091-18.304-19.439-22.536
		c1.224,3.239,1.224,3.239,14.544,22.319c3.239,7.057,6.479,14.112,9.72,21.24c9.792,7.848,6.84,18.145,13.752,28.224
		c1.296,0,2.664,0,4.032,0c3.168,5.328,5.04,10.009,11.735,12.673c3.024,6.048,0.217,17.352-0.863,24.479
		c-7.128,10.729-27.648,3.24-37.8,3.24c-25.776,11.52-32.977,4.176-39.961-20.376c-3.023,5.832,4.104,16.488,6.841,22.752
		c7.632,7.632,18.863,4.464,29.304,3.384c9.792,3.672,20.448,10.872,31.32,6.048c0.457-3.204-0.357-7.416,3.168-7.416
		c-0.864,5.688-1.152,9.433-4.464,14.688C467.332,533.412,462.724,533.916,458.116,534.492L458.116,534.492z"/>
	<path fill="#FFFFFF" d="M282.796,525.996c5.256-8.352,8.208-15.912,14.4-24.192c1.44-9.288,7.776-14.399,12.745-22.392
		c8.567-4.248,44.352-1.08,55.872-1.08c3.888-1.008,3.888-1.008,7.199-0.864c1.08,2.16,1.08,2.16,1.008,6.48
		c-20.88,13.248-44.136-4.536-63.504-0.864c16.704,3.456,31.824,7.704,49.681,7.704c-19.513,4.824-39.24-5.04-57.168,1.8
		c14.184,0.432,27.648,0.504,42.768,2.088c-16.56,2.305-31.392-2.016-46.8,4.536c0,0.433,33.248-1.728,38.016-1.728
		c16.344-1.872,16.344-1.872,24.192-1.872c-8.692,2.852-65.498,6.521-66.816,12.456c20.808-5.473,42.768-5.185,64.728-9.576
		c3.11-1.333,15.264-5.079,15.264-7.92c-4.752,0.72-9.504,1.439-14.184,2.16c6.624-1.944,6.624-1.944,13.536-5.904
		c3.815,1.439,0.792,8.928,0.287,12.528c-7.128,3.96-11.304,9.575-17.063,13.031c-6.408,8.28-6.408,8.28-9.144,10.08
		C338.614,525.604,286.64,535.619,282.796,525.996L282.796,525.996z"/>
	<path d="M316.06,526.86c0-3.109,21.999-8.127,26.712-10.152c-13.535,1.8-28.367,6.768-41.111,6.768
		c19.296-5.184,37.8-8.279,56.664-15.84C355.084,518.436,324.772,524.844,316.06,526.86L316.06,526.86z"/>
	<path d="M292.084,521.1c14.688-5.76,29.376-7.991,44.856-12.743c-15.12-0.937-31.681,2.088-45.36,7.632
		c-0.432-0.433-0.864-0.792-1.224-1.152c7.992-6.552,24.912-6.696,35.136-7.704c36.504-7.704,36.504-7.704,47.231-11.016
		c-0.216,0.72-0.432,1.439-0.647,2.231c-23.256,11.593-47.952,13.393-71.28,21.24C298.669,521.025,292.084,525.75,292.084,521.1
		L292.084,521.1z"/>
	<path fill="#FFFFFF" d="M337.66,507.636c4.68-3.239,13.68-3.384,19.656-4.319C350.764,504.756,344.212,506.196,337.66,507.636
		L337.66,507.636z"/>
	<path d="M462.94,504.756c-2.881-1.439-2.881-1.439-3.528-2.808c0.504-0.576,0.504-0.576,4.824-0.433
		c0.216,1.08,0.432,2.16,0.647,3.24C464.236,504.756,463.588,504.756,462.94,504.756L462.94,504.756z"/>
	<path d="M478.276,503.82c0.504-1.44,1.008-2.88,1.584-4.248c0.863,0,1.728,0,2.592,0c0.216,0.72,0.432,1.512,0.647,2.304
		C481.444,502.524,479.86,503.172,478.276,503.82L478.276,503.82z"/>
	<path d="M435.076,501.876c-10.008-3.744-18.721-7.2-18.721-18.216c4.248,12.24,10.513,14.04,23.545,16.271c0,0.648,0,1.297,0,1.944
		C438.244,501.876,436.66,501.876,435.076,501.876L435.076,501.876z"/>
	<path d="M386.116,499.932c-2.448-10.439-2.448-10.439-2.88-17.279c0.647,0,1.296,0,1.943,0
		C384.244,487.62,386.404,493.524,386.116,499.932L386.116,499.932z"/>
	<path d="M450.484,498.996c5.184-10.008,5.184-10.008,4.823-11.088c0.576-0.145,1.225-0.288,1.872-0.433
		C456.82,491.868,455.02,496.764,450.484,498.996L450.484,498.996z"/>
	<path fill="#FFFFFF" d="M436.084,497.052c-23.76-13.248-20.664-34.128,6.768-34.128c10.584,4.968,9.937,13.608,9.937,24.624
		C449.116,495.396,444.004,496.404,436.084,497.052L436.084,497.052z"/>
	<path d="M437.956,493.236c-25.2-9.504-12.168-36.36,9.072-21.24C454.804,482.724,448.54,489.924,437.956,493.236L437.956,493.236z"
		/>
	<path fill="#FFFFFF" d="M437.956,491.292c-9.937-6.984-11.232-6.552-10.944-17.64c6.769-4.104,12.097-7.2,19.584,0.72
		C450.34,483.732,447.532,488.844,437.956,491.292L437.956,491.292z"/>
	<path d="M481.156,488.412c-4.032-2.664-5.112-3.168-6.696-6.696c0.648,0,1.296,0,1.944,0c1.008,2.88,2.951,3.601,6.336,5.616
		C482.164,487.692,481.66,488.052,481.156,488.412L481.156,488.412z"/>
	<path d="M436.084,487.476c-1.8-1.296-3.6-2.52-5.328-3.743c0-5.977,0-5.977,1.08-8.137c4.383-2.831,1.632-0.036,5.904,1.08
		c-0.576-1.512-1.152-3.023-1.656-4.536C445.228,472.645,446.812,484.164,436.084,487.476L436.084,487.476z"/>
	<path d="M343.924,486.54c-2.482-0.62-26.998-4.912-24.048-7.272c14.544,1.656,27.144,6.48,42.264,4.824
		c-4.821-1.085-21.096-1.712-21.096-5.256c11.016,1.8,19.872,3.096,31.68,0.937C370.42,487.476,349.972,486.324,343.924,486.54
		L343.924,486.54z"/>
	<path fill="#FFFFFF" d="M436.084,484.596c0-0.647,0-1.296,0-1.943c1.44-0.072,2.88-0.145,4.392-0.145
		C439.252,483.948,439.252,483.948,436.084,484.596L436.084,484.596z"/>
	<path fill="#FFFFFF" d="M482.164,483.66c-5.832-7.704-11.521-18-8.064-27.288c1.368-0.144,2.736-0.288,4.177-0.36
		C478.78,456.66,482.524,480.708,482.164,483.66L482.164,483.66z"/>
	<path fill="#FFFFFF" d="M455.236,480.78c0.288-2.448,0.576-4.896,0.936-7.272C457.54,476.1,458.404,478.332,455.236,480.78
		L455.236,480.78z"/>
	<path d="M388.06,476.892c2.521-8.712,8.856-14.256,16.416-18.863c0.433,0.216,0.937,0.432,1.44,0.72
		c-3.096,7.128-6.12,13.896,5.184,16.271c0,0.576,0,1.225,0,1.872c-13.464-1.728-7.344-11.663-9.647-14.76
		C398.14,464.868,389.932,476.1,388.06,476.892L388.06,476.892z"/>
	<path fill="#FFFFFF" d="M416.86,475.02c-7.345-10.728-8.064-22.176,3.672-30.312c20.16,0,32.903,2.664,35.28,24.624
		c-2.017,2.52-2.017,2.52-2.881,2.16c-8.352-14.256-19.08-13.464-30.815-4.104C418.156,474.372,418.156,474.372,416.86,475.02
		L416.86,475.02z"/>
	<path fill="#FFFFFF" d="M467.764,465.372c4.477,0.64,3.33,1.719,4.177,6.12C467.799,473.551,468.177,469.714,467.764,465.372
		L467.764,465.372z"/>
	<path d="M357.316,469.26c-0.735-0.358-21.164-12.888-12.097-12.888c4.968,7.704,6.984,8.352,16.776,12.096
		C360.412,468.684,358.828,468.972,357.316,469.26L357.316,469.26z"/>
	<path d="M363.076,464.436c-18.216-7.775-23.977-22.68-34.92-37.079c-4.464-13.896-4.32-33.696,10.943-39.745
		c-1.008,3.312-3.96,5.04-6.768,7.344c-9.807,23.684-1.765,29.806,4.824,32.04c-1.934,0.752-3.825,0.704-4.176,2.808
		c10.512,14.4,10.512,14.4,11.735,14.904c5.76-3.888,9.433-3.816,16.488-3.816c-6.336,1.297-9.792,2.593-15.192,5.544
		c3.672,9.937,16.128,15.265,26.712,16.057C372.724,466.247,366.417,464.436,363.076,464.436L363.076,464.436z"/>
	<path fill="#FFFFFF" d="M466.756,463.5c-2.448-6.912-2.448-9.936-2.304-16.704c4.968,0,5.472,0.576,10.368,3.816
		c0,1.151,0,2.376,0,3.6c-4.465,1.8-3.744,4.896-4.177,9.288C469.348,463.5,468.052,463.5,466.756,463.5L466.756,463.5z"/>
	<path d="M326.644,450.972c-1.865-1.036-2.359-0.406-1.151-2.52c2.304,0.216,4.607,0.432,6.912,0.647c0,0.576,0,1.225,0,1.872
		C330.46,450.972,328.516,450.972,326.644,450.972L326.644,450.972z"/>
	<path d="M392.884,449.1c4.248-5.903,8.208-13.823,10.872-16.416c4.829,0,26.494-3.434,25.704,4.465
		c-5.544-5.04-17.064-2.809-24.192-2.881C401.308,439.092,399.004,447.804,392.884,449.1L392.884,449.1z"/>
	<path fill="#FFFFFF" d="M460.06,447.156c-2.088-3.24-3.96-5.185-1.079-8.28c1.224,1.584,2.447,3.24,3.672,4.896
		C461.788,444.852,460.924,446.004,460.06,447.156L460.06,447.156z"/>
	<path d="M371.716,444.276c-3.023-6.048-3.384-6.841-3.24-12.889c7.488-4.536,8.568-6.695,17.641-2.016
		c-7.992-1.296-13.752-2.016-16.849,6.12C370.852,438.732,372.292,440.028,371.716,444.276L371.716,444.276z"/>
	<path d="M449.476,444.276c-2.447-7.849-9.359-6.624-12.456-11.521c4.248,2.088,8.496,4.176,12.816,6.336
		c0.452,1.552,2.6,5.185,0.612,5.185C450.124,444.276,449.8,444.276,449.476,444.276L449.476,444.276z"/>
	<path d="M325.42,437.796c-2.808-0.072-5.616-0.144-8.424-0.216c0-3.373,2.942-2.256,6.191-2.592
		c-1.224-3.24-2.376-6.48-3.527-9.721c-2.982-0.806-11.593-3.525-10.44-7.56c4.968,3.96,4.968,3.96,9.072,5.328
		c-0.792-9.864-2.808-15.336-6.048-23.904c6.479,1.296,8.928,18.288,10.008,24.84c3.96,9.721,7.56,15.12,8.784,18.504
		C328.248,444.069,327.205,440.145,325.42,437.796L325.42,437.796z"/>
	<path fill="#FFFFFF" d="M454.3,438.516c-1.512-3.6-3.023-7.199-4.464-10.728c0.648-0.072,1.296-0.144,1.944-0.216
		c2.376,3.527,4.248,5.256,4.752,10.296C455.74,438.084,455.02,438.3,454.3,438.516L454.3,438.516z"/>
	<path d="M391.876,433.692c-1.152-10.801,8.568-22.464,20.016-17.064C391.774,416.313,398.13,431.318,391.876,433.692
		L391.876,433.692z"/>
	<path d="M442.78,432.756c-7.272-10.224-13.104-14.184-24.408-19.8c-1.848-3.737-10.985-15.138-10.296-16.344
		c7.775,3.888,7.2,8.063,12.6,15.336c4.968,2.735,9.937,5.472,14.977,8.28C443.355,432.252,443.355,432.252,442.78,432.756
		L442.78,432.756z"/>
	<path d="M385.18,426.996c-2.016-4.968-1.439-8.064-1.367-12.888c2.663-2.521,4.752-3.24,8.64-2.593
		C383.02,414.972,385.54,417.42,385.18,426.996L385.18,426.996z"/>
	<path fill="#FFFFFF" d="M150.964,423.18c-6.624-5.111-14.472-0.359-20.808-9.504c3.816-7.632-4.248-16.056-3.384-23.76
		c22.032,14.904,20.232,23.976,46.584,8.208c7.632-6.336,24.048-10.224,27.936-18.576c-1.8-3.456-4.68,0.432-5.832,1.728
		c-9.432-0.72-12.312-1.512-19.944-5.76c-0.144-2.448-0.144-2.448,1.224-6.48c-1.8-0.576-3.744-3.888-6.552-5.688
		c4.651-0.375,34.272-0.932,34.272-6.192c-13.68,0.144-34.2-5.688-45.432-0.864c11.376,0,18.72,1.008,30.312,3.96
		c-15.552,0-26.424,5.688-37.08-7.2c-13.104-10.296-12.24-11.088-9.504-25.848c-6.984-11.16-10.944-15.336-10.08-28.872
		c12.384,2.88,20.952,4.464,31.32,13.392c6.84,1.771,13.896,3.067,16.344-7.056c5.976-1.08,5.976-1.08,8.496-2.592
		c0.864-7.776,1.224-7.92,5.904-13.68c21.096,0,36.936,18.144,57.456,23.04c10.152-3.6,19.008,3.744,28.44,8.496
		c4.824,1.008,9.72,2.016,14.616,3.024c0,6.336-11.16,12.744-11.808,24.336c-17.208-3.168-33.48-0.576-44.712,13.536
		c-2.383,6.761-10.494,26.081-19.08,21.6c4.248-2.808,8.424-4.32,9.72-9c-11.304,1.944-20.736,10.44-30.384,16.56
		c-25.992,11.664-25.992,11.664-27.648,13.464c11.88,0,34.632-15.048,45.072-22.464c0,12.168-49.248,25.848-57.6,28.008
		c0,5.119,30.934-7.252,34.344-8.424c-19.08,10.943-27.504,16.416-48.384,8.496c-5.04-4.177-10.224-10.296-11.88-10.656
		c8.064,13.68,18.144,16.344,33.984,16.92c-4.765,4.765-23.189-0.064-28.584-3.24c-1.152-0.072-2.304-0.144-3.456-0.216
		c0,3.873,21.619,7.257,26.64,7.92C157.732,421.668,157.732,421.668,150.964,423.18L150.964,423.18z"/>
	<path d="M361.204,423.18c-0.36-2.592-0.72-5.184-1.008-7.704c3.744-1.512,5.399-1.367,10.224-1.079
		c-2.664,0.647-5.256,1.367-7.848,2.088C362.572,419.364,363.292,420.516,361.204,423.18L361.204,423.18z"/>
	<path d="M394.396,402.588c3.024-1.943,2.809-2.231,6.984-1.296c-5.976,2.016-5.976,2.304-3.744,8.424
		C393.734,409.716,394.247,405.718,394.396,402.588L394.396,402.588z"/>
	<path d="M323.764,401.076c-7.056-13.968-14.256-22.824-23.832-34.128c1.944-3.384,2.232-3.528,5.544-5.256
		c-1.296,2.88-1.296,2.88-1.296,6.696c2.16,2.088,4.32,4.176,6.48,6.264c0.947-2.904,1.243-8.293,5.04-7.344
		c-3.889,6.12-2.448,13.464,3.672,19.08c1.296-5.832,2.016-5.904,6.12-9.864c3.182,0.159,8.784-1.132,8.784,2.448
		c-7.2-0.36-6.624-1.152-12.024,2.952C322.252,388.404,324.196,394.452,323.764,401.076L323.764,401.076z"/>
	<path d="M376.54,401.076c0.504-1.44,1.008-2.88,1.512-4.248c1.944-0.648,3.889-1.224,5.904-1.8
		c-0.985-2.957-3.885-8.087,0.864-7.56c0,3.024,1.728,5.76,1.655,8.208C384.994,396.891,378.244,401.076,376.54,401.076
		L376.54,401.076z"/>
	<path d="M183.58,394.38c2.808-4.032,6.768-4.464,11.376-6.336c12.6-7.776,24.12-16.416,36.936-24.48
		c-4.231-2.784-22.027,14.472-26.208,14.472c1.8-7.416,22.464-15.696,30.672-18.216c-1.008,7.128-31.248,24.696-40.248,30.168
		C191.932,391.428,187.756,392.868,183.58,394.38L183.58,394.38z"/>
	<path d="M360.196,394.38c-0.648-9.144-0.864-8.712,7.704-12.528c0,0.648,0,1.296,0,1.944
		C361.492,387.252,362.355,387.324,360.196,394.38L360.196,394.38z"/>
	<path fill="#FFFFFF" d="M157.012,392.292c2.448,0,4.896,0.072,7.344,0.144C164.356,393.99,158.246,394.349,157.012,392.292
		L157.012,392.292z"/>
	<path fill="#FFFFFF" d="M159.604,390.492c-11.88-5.256-14.328-8.712-16.344-20.16c7.272,2.232,10.368,8.856,18.288,12.96
		c6.552,0,9.432-1.008,12.456-0.936c-16.106,11.618-16.361-4.104-23.832-4.104c4.608,12.384,13.536,10.296,25.704,8.856
		C170.188,389.556,165.148,389.772,159.604,390.492L159.604,390.492z"/>
	<path d="M191.284,378.972c-2.999-4.498,68.784-35.888,76.536-37.656c-33.984-0.72-53.928,25.488-83.304,34.776
		c0.666-3.664,3.872-3.788,7.2-5.184c-4.467-0.279-13.765,5.233-14.832,0.432c5.184-0.936,8.856-1.656,13.824-4.248
		c-3.232-0.057-12.312,1.521-12.312-1.944c6.984-0.144,6.984-0.144,17.496-2.016c1.731-0.792,11.56-7.314,12.096-3.024
		c23.472-6.12,46.224-31.392,73.872-19.872c-7.081-1.426-60.392,21.019-61.704,22.896
		C210.724,368.316,201.364,375.948,191.284,378.972L191.284,378.972z"/>
	<path fill="#FFFFFF" d="M401.524,377.1c-11.952-13.032-29.089-15.624-42.624-24.624c-11.16-13.608-34.416-22.032-50.185-29.088
		c1.584-2.217-4.719-8.13-6.336-12.312c-4.596,0,1.156,5.628-1.224,9c1.944,1.008,3.888,2.016,5.904,3.096
		c-2.808,1.368-7.2-1.152-9.216-1.8c-3.744-15.12,9.288-24.552,21.024-29.376c1.224-1.296,2.448-2.52,3.744-3.744
		c17.279,0,28.008-0.144,25.704-21.024c6.479-7.56,6.119-8.784,15.191-14.112c1.368-5.904-1.512-9.792,1.944-14.4
		c0.072-4.032,0.216-8.064,0.36-12.024c13.392,8.064,21.096,18.216,33.119,29.016c12.168,18.576,6.84,43.776,17.424,64.584
		c0,19.944-8.063,37.008-12.96,56.808C402.748,377.1,402.1,377.1,401.524,377.1L401.524,377.1z"/>
	<path fill="#FFFFFF" d="M239.236,373.212c4.248-7.272,36.576-10.584,45.144-11.52c0,0.648,0,1.296,0,1.944
		c-10.728,1.656-19.728,6.48-29.88,8.136C247.948,369.468,245.068,372.492,239.236,373.212L239.236,373.212z"/>
	<path d="M397.132,368.532c1.368-23.184,8.064-44.784,9.145-67.32c3.766,0-7.186,56.619-5.977,66.024
		c3.816-15.408,8.208-30.096,13.176-44.856c0,14.976-8.495,34.704-12.96,49.896C397.631,372.276,398.209,371.147,397.132,368.532
		L397.132,368.532z"/>
	<path fill="#FFFFFF" d="M192.58,369.324c3.096-1.8,6.192-3.6,9.36-5.328C202.107,364.721,192.58,373.457,192.58,369.324
		L192.58,369.324z"/>
	<path d="M390.94,367.452c-2.232-34.416,7.199-67.32,7.199-100.8c-0.504-2.232-1.008-4.464-1.439-6.696
		c3.214,0,2.41,1.861,3.312,4.824c0,30.6-6.695,60.912-6.695,92.16c1.153-7.445,9.23-71.064,12.96-71.064
		C405.146,294.235,395.398,367.452,390.94,367.452L390.94,367.452z"/>
	<path fill="#FFFFFF" d="M242.116,366.516c0.288-1.656,0.648-3.24,1.008-4.824c11.376-4.248,25.776-3.528,38.376-3.816
		c0,0.648,0,1.296,0,1.944C267.532,360.972,255.22,364.572,242.116,366.516L242.116,366.516z"/>
	<path fill="#FFFFFF" d="M203.74,363.636c0.576-0.864,1.152-1.656,1.8-2.448c0.576,0,1.224,0,1.872,0
		C206.188,361.98,204.964,362.772,203.74,363.636L203.74,363.636z"/>
	<path d="M382.012,329.292c-1.28,4.522-3.501,31.683-6.191,31.176c-2.593-27.72-4.177-54.288-0.792-81.432
		c0-9.197-5.685-35.742-4.032-41.112c8.64,18.792,6.624,37.728,4.032,58.608c0,16.416,0.216,32.256,1.943,49.536
		c4.896-28.656,4.969-58.608,6.696-86.976c-1.656-5.832-3.312-11.664-4.896-17.496c4.687-1.042,5.951,10.79,6.841,14.256
		c0.217-3.255-0.995-6.48,2.447-6.48c1.368,13.464,0.937,27.36,0.433,41.4c-2.88,27.576-4.68,54.576-3.96,55.08
		c4.392-24.624,7.2-50.04,9.647-74.52c3.036-1.735,1.907,3.146,2.16,5.76c-5.904,38.592-5.904,38.592-11.808,84.96
		C380.339,364.375,382.281,332.563,382.012,329.292L382.012,329.292z"/>
	<path d="M295.9,359.82c-5.112-2.232-5.256-10.152-4.968-14.112c1.368,3.6,2.808,7.272,4.248,10.944
		c1.728,0.72,1.728,0.72,7.848,0.144c-0.216-1.512-0.432-3.024-0.648-4.464c-4.392-0.936-5.544-1.584-6.48-5.04
		c4.32,1.08,4.968,3.888,11.52,1.008c0,3.497,0.449,2.671-2.952,3.456c-0.576,1.8,0.504,4.032,0.432,6.48
		C302.668,359.244,302.668,359.244,295.9,359.82L295.9,359.82z"/>
	<path fill="#FFFFFF" d="M253.636,356.94c6.192-3.96,13.392-2.448,21.168-2.448C267.748,355.284,260.692,356.076,253.636,356.94
		L253.636,356.94z"/>
	<path d="M197.98,355.932c-15.84-2.808-28.008-4.248-43.488-4.104c0-0.648,0-1.296,0-1.944c6.48-0.072,12.96-0.144,19.512-0.216
		c10.224,1.512,30.096,6.84,40.32,1.944c-25.128-2.376-46.8-8.928-70.128-16.344c13.248,0,29.16,7.992,43.2,11.52
		c34.56,2.88,34.56,2.88,35.568,3.888C213.676,354.276,207.484,354.996,197.98,355.932L197.98,355.932z"/>
	<path d="M360.7,263.772c-0.792-1.584-1.584-3.168-2.376-4.752c1.224,0.288,2.52,0.576,3.815,0.936
		c3.097,13.536,2.593,29.664,3.312,44.136c1.296,13.104,0.923,25.93,3.888,39.384c-0.576-27.072,0-53.208,0-79.704
		c-1.944-15.336-1.944-15.336-1.512-21.6c8.64,33.048,3.096,80.712,2.952,113.76C365.459,355.932,361.316,272.847,360.7,263.772
		L360.7,263.772z"/>
	<path d="M356.812,341.604c-0.433-3.312-9.864-56.16-7.057-61.128c2.592,0.864,4.968,29.088,6.12,34.92
		c0.576-12.168,1.224-24.264,1.872-36.36c-1.872-13.248-1.872-13.248-1.512-16.848c7.487,12.096,2.808,45.144,2.52,60.048
		c3.816,20.16,3.816,20.16,3.96,25.92C358.368,349.968,358.647,345.887,356.812,341.604L356.812,341.604z"/>
	<path d="M319.876,346.356c2.304-0.288,4.608-0.504,6.984-0.72c0.216-5.04-0.721-6.984-0.288-8.424
		c2.735,3.672,2.447,4.752,1.943,10.08C325.271,347.616,319.876,350.128,319.876,346.356L319.876,346.356z"/>
	<path d="M207.556,347.292c-25.083-2.671-40.392-11.736-59.472-16.272c-0.905-2.459,58.425,16.906,70.056,13.896
		c-19.584-3.312-37.512-11.016-55.656-17.28c-7.56-4.68-14.328-9.288-22.104-12.024c0-3.913,5.949,0.364,8.64,1.44
		c24.408,16.128,53.64,24.12,83.52,26.856C227.932,348.516,212.092,347.22,207.556,347.292L207.556,347.292z"/>
	<path d="M308.355,345.42c-1.889-1.089-10.434-5.494-9.72-8.352c5.328,2.808,7.416,5.04,14.473,4.824
		c6.264-8.568-1.009-9.72-7.632-12.384C319.444,329.508,322.252,341.244,308.355,345.42L308.355,345.42z"/>
	<path d="M335.716,309.924c-0.086-4.068-2.439-20.232,1.44-20.232c0.144,5.688,0.288,11.376,0.432,17.136
		c1.944,5.76,5.76,12.528,12.384,28.44c0.145-2.304-3.744-14.76-6.624-29.88c0-2.615-1.359-15.807,3.024-14.832
		c-1.512,19.368,5.544,34.56,7.128,53.856C350.596,344.412,338.237,314.642,335.716,309.924L335.716,309.924z"/>
	<path d="M227.716,342.54c-20.88-6.624-42.768-11.592-62.352-18.792c-4.121-2.489-28.8-18.434-28.8-20.592
		c11.952,5.112,23.04,14.76,35.496,21.6c26.856,6.696,37.44,10.512,51.84,14.4c14.832,0.936,14.832,0.936,16.344,1.872
		C239.236,342.036,239.236,342.036,227.716,342.54L227.716,342.54z"/>
	<path fill="#FFFFFF" d="M359.26,342.54c-1.512-5.688-1.512-5.688-2.447-19.224C358.324,330.012,359.692,334.98,359.26,342.54
		L359.26,342.54z"/>
	<path d="M226.78,338.652c-18.072-4.752-34.128-12.6-51.84-16.776c-3.864-1.584-28.8-15.149-28.8-17.784
		c7.056,3.24,13.536,7.56,20.592,12.456c19.152,6.84,39.816,14.328,60.048,19.728c3.168,0,6.336,0,9.576,0
		c-54.72-20.16-54.72-20.16-59.04-22.608c0.792-0.144,1.584-0.288,2.448-0.432c22.104,7.632,43.776,17.136,67.176,23.544
		C246.94,340.625,230.856,338.652,226.78,338.652L226.78,338.652z"/>
	<path d="M323.62,290.988c2.808,14.688,5.399,20.304,12.815,33.984c0.505-5.976-4.607-14.832-6.479-19.8
		c0-2.747-1.286-12.693,3.024-11.736c-1.656,15.984,5.184,27.576,10.943,43.344C335.893,336.78,316.482,298.125,323.62,290.988
		L323.62,290.988z"/>
	<path d="M250.756,335.772c-23.76-7.632-48.672-17.136-70.56-26.928c14.877,0.981,53.239,26.033,79.2,24.552
		c-18.432-5.04-32.832-12.168-48.96-21.168c-16.272-5.76-16.272-5.76-17.784-7.2c6.408-2.736,38.448,16.056,45.648,19.728
		c25.92,7.632,25.92,7.632,28.296,9.072C266.596,335.752,253.192,335.605,250.756,335.772L250.756,335.772z"/>
	<path d="M278.62,333.9c-29.736-6.696-55.944-21.888-83.52-32.184c-2.592-7.776,51.768,20.16,53.784,21.096
		c6.408,2.088,13.536,5.76,20.952,5.76c-7.726-0.646-53.017-23.29-54.144-33.12c12.96,8.424,25.92,16.92,38.952,25.416
		c10.296,3.6,20.592,7.2,30.888,10.8C286.789,335.858,282.735,333.9,278.62,333.9L278.62,333.9z"/>
	<path d="M327.58,329.076c-5.256-7.272-16.776-23.328-15.48-31.32c4.393,4.392,5.256,11.16,9.072,17.352
		c0.392-6.263-6.996-19.656-1.296-19.656c1.44,7.776,2.304,15.192,5.976,22.824c3.361,0.42,5.583,7.781,7.129,10.872
		C331.565,332.786,329.807,329.712,327.58,329.076L327.58,329.076z"/>
	<path d="M303.604,304.092c3.559,0,4.695,7.06,5.976,10.296c2.304,0.288,3.312,3.384,6.12,5.4
		c-1.555-3.428-10.763-18.576-6.336-18.576c1.872,3.96,13.752,23.76,13.752,27.216C311.321,324.201,303.954,308.005,303.604,304.092
		L303.604,304.092z"/>
	<path fill="#FFFFFF" d="M382.804,329.076c0-24.84,2.017-48.528,3.744-72.864C388.78,279.468,385.036,305.172,382.804,329.076
		L382.804,329.076z"/>
	<path d="M282.436,328.14c-7.056-2.592-33.48-9.432-35.496-16.344c7.272,2.952,21.312,11.016,29.592,11.016
		c-1.663-0.967-17.136-7.837-17.136-11.016c9.288,5.256,19.512,11.088,30.744,14.4C290.14,329.834,285.671,328.14,282.436,328.14
		L282.436,328.14z"/>
	<path fill="#FFFFFF" d="M276.748,323.748c1.584,0.144,3.168,0.288,4.752,0.504C281.5,326.782,277.733,324.278,276.748,323.748
		L276.748,323.748z"/>
	<path fill="#FFFFFF" d="M327.58,325.26c-2.232-3.168-5.185-6.264-5.185-9.432C324.268,318.276,328.3,321.228,327.58,325.26
		L327.58,325.26z"/>
	<rect x="123.5" y="223.5" fill="none" width="364" height="344"/>
</g>
</svg>
