<?xml version="1.0" encoding="utf-8"?>
<!-- Generator: Adobe Illustrator 14.0.0, SVG Export Plug-In . SVG Version: 6.00 Build 43363)  -->
<!DOCTYPE svg PUBLIC "-//W3C//DTD SVG 1.0//EN" "http://www.w3.org/TR/2001/REC-SVG-20010904/DTD/svg10.dtd">
<svg version="1.0" xmlns="http://www.w3.org/2000/svg" xmlns:xlink="http://www.w3.org/1999/xlink" x="0px" y="0px" width="432px"
	 height="360px" viewBox="0 0 432 360" enable-background="new 0 0 432 360" xml:space="preserve">
<g id="Layer_1_x23_000000">
	<g>
		<g>
			<path d="M338.158,218.494c10.068,12.641,21.517,26.805,32.07,38.65c-6.69,2.142-19.441,6.635-26.407,2.187
				c-8.953-5.719-14.495-31.464-19.441-42.747c-2.208-5.045-3.245-10.841-7.694-12.662c1.921,10.708,4.968,21.428,7.529,32.457
				c7.628,32.777,12.641,68.017,18.955,102.13c-9.45,4.548-19.43,6.535-31.839,5.729c-7.187-10.378-7.33-27.699-15.29-37.314
				c-7.088,13.767-13.966,27.743-20.744,41.818c-9.24-0.64-19.275,1.998-26.981-0.828c-1.59-23.184,2.352-47.416,3.588-71.351
				c-14.274,0.828-30.603,4.77-43.861,8.634c0.475,19.761,1.225,47.957,6.039,67.243c-11.095,3.356-27.302,2.341-37.182-1.512
				c-4.802-18.072-9.373-36.388-18.779-49.944c-4.46,14.087-4.869,35.007-1.612,50.375c-6.58-0.63-15.919,5.034-22.223,2.814
				c-3.864-1.357-8.07-12.154-10.058-16.88c-8.07-19.188-13.954-38.109-15.676-63.114c-1.932-28.075-0.928-54.516-0.53-80.382
				c-16.46-0.806-30.381,6.216-44.468,9.826c-13.535-14.253-20.733-34.743-21.086-61.956c20.622-7.872,40.074-16.913,59.593-25.899
				c-7.971-29.653-12.983-65.345-17.189-96.72c5.642,2.694,7.805,9.295,11.283,13.888c10.543,13.943,21.792,28.284,32.027,43.453
				c0.419,0.619,0.85,1.038,1.159,1.733c0,0.221,0.011,0.453,0.022,0.673c0-0.199,0.011-0.397,0.011-0.596
				c-0.011-0.022-0.022-0.055-0.033-0.077c-0.994-27.909,10.664-52.771,25.193-68.701c8.799,15.622,12.298,36.476,13.921,57.109
				c1.115,14.087,0.397,29.631,3.246,42.614c1.347,6.116,4.647,11.206,5.862,16.847c4.295,19.894,1.667,40.527,7.905,59.45
				c16.427-2.143,34.024-6.823,52.263-8.567c23.36-2.241,48.962-6.723,71.384-0.607c1.424,1.976,0.662,6.083,1.733,8.413
				c9.869,2.362,11.58,12.298,16.626,20.533C330.209,209.674,334.504,213.901,338.158,218.494z M345.047,255.743
				c5.288,1.732,11.735-0.563,16.813-1.061c-9.771-14.175-21.483-30.393-32.645-42.856c-1.27-1.424-2.915-3.996-4.77-3.644
				c0,0.199,0,0.397,0,0.597C331.247,224.5,335.365,242.859,345.047,255.743z M338.379,337.272
				c-0.729-6.624-1.933-12.784-2.241-19.817c-8.965,2.164-16.88,5.41-27.633,5.764c1.833,6.535,4.229,12.508,7.043,18.061
				C325.142,341.787,331.457,340.463,338.379,337.272z M335.563,314.453c-0.452-7.088-1.888-13.215-2.229-20.413
				c-9.439,2.716-22.775,6.668-36.046,7.496c3.146,6.425,6.293,12.851,9.439,19.275C317.58,320.039,327.505,319.188,335.563,314.453
				z M332.152,291.622c-0.895-8.037-1.546-16.316-4.614-22.223c-6.282,2.804-16.03,7.054-24.663,8.787
				c-5.432,1.093-15.291,3.588-17.984-0.75c17.277-0.574,31.972-3.787,42.68-11.04c-1.445-6.713-1.435-14.849-4.637-19.839
				c-14.229,8.125-28.096,16.604-48.145,18.801c-5.188,3.19-10.863,5.896-18.05,7.055c-0.056,2.142-2.064,6.403-0.685,9.582
				c8.82-0.706,17.255-1.811,24.033-4.592c0.884-3.202-4.415-5.067-4.117-9.638c8.258,8.533,13.634,19.915,19.54,30.757
				C310.415,298.964,322.106,296.127,332.152,291.622z M312.534,198.49c2.539-1.446,3.224,1.259,6.591,0.651
				c-1.258-3.323-3.488-5.696-5.332-8.445c-1.06,0.342-3.511-0.751-3.599,0.574C311.364,193.29,312.126,195.708,312.534,198.49z
				 M322.349,244.162c-4.46-22.985-11.228-43.696-17.454-64.937c-4.272,0.707-11.503-1.612-13.811,1.093c0,0.199,0,0.397,0,0.596
				c2.131,13.436,6.889,23.89,12.31,34.897C308.505,226.2,312.91,237.858,322.349,244.162z M300.06,255.975
				c7.353-2.605,14.142-5.796,19.883-10.035c-15.379-17.608-25.524-40.34-31.243-67.442c-6.392-0.464-11.426,0.475-17.398,0.453
				C273.575,211.826,284.316,236.356,300.06,255.975z M287.562,315.854c2.009-5.807,7.407-13.325,5.563-19.154
				c-10.974,1.226-25.767,6.768-40.229,4.472c-1.027,5.608-0.972,12.32-1.954,17.973
				C264.379,320.458,276.876,318.935,287.562,315.854z M291.349,293.687c-3.842-4.548-5.641-11.105-10.068-15.08
				c-7.176,3.003-16.813,6.006-26.44,4.581c-0.729,5.3-1.932,10.135-1.932,16.185C267.812,299.593,281.479,298.577,291.349,293.687z
				 M279.625,333.783c1.854-5.365,4.548-9.892,6.127-15.544c-9.494,2.738-22.698,4.626-34.82,2.705
				c-0.032,4.604-0.077,9.207-0.11,13.8C260.228,336.654,271.466,336.334,279.625,333.783z M279.603,262.996
				c6.503-1.656,12.707-3.61,18.05-6.447c-15.444-19.905-25.259-45.352-28.759-77.014c-6.436-0.508-11.293,0.607-17.398,0.453
				c-0.949,19.055,3.975,35.548,9.792,49.867c4.571,11.271,7.265,20.865,13.568,27.71
				C276.401,259.231,279.779,260.302,279.603,262.996z M272.327,345.718c2.528-2.274,6.139-6.657,5.476-10.146
				c-7.286,3.676-17.509,2.66-27.003,1.567C247.135,350.663,263.915,344.072,272.327,345.718z M256.154,269.399
				c10.421,1.126,13.954-5.906,21.648-5.818c-17.388-19.971-26.285-48.321-28.703-83.02c-4.836,0.287-10.112,0.497-15.015,1.082
				c-4.725,0.552-10.433,0.685-13.226,3.488C225.949,219.786,236.105,249.461,256.154,269.399z M232.717,274.61
				c6.304-1.656,13.479-2.43,20.423-3.434c-18.535-22.024-28.813-52.164-34.676-86.663c-7.419,1.115-15.5,1.579-21.627,4.019
				C202.997,222.546,214.125,254.815,232.717,274.61z M218.298,278.088c3.6,0.64,7.739-2.484,11.427-3.5
				c-19.342-21.439-27.688-53.687-35.272-86.674c-3.135,1.247-7.176,1.578-11.415,1.7c0.563,12.343,4.537,21.317,8.147,30.669
				c1.49,0.794,1.888-2.363,2.396-0.586c-0.883,0.861-0.905,3.92-0.033,4.803c-1.126,0.563-1.987-1.821-2.407-0.022
				c2.837,8.07,6.16,17.764,11.162,28.881C205.172,259.729,211.354,276.862,218.298,278.088z M214.688,279.258
				c-3.765-4.824-6.746-10.422-10.676-15.081c-15.257,10.355-47.229,11.515-68.425,5.432c-0.74,0.056-1.424,0.166-1.214,1.192
				c2.671,3.533,6.877,6.79,10.72,10.278c3.51,3.213,7.728,8.225,11.934,7.298c-0.508-1.899-3.666-4.295-1.745-6.613
				c2.164,1.446,1.8,5.365,4.14,6.635c17.178-0.441,36.52-2.947,46.886-12.21c-0.011,1.601-0.022,3.201-0.033,4.803
				C209.842,281.189,211.829,279.787,214.688,279.258z M208.716,348.798c-0.651-3.721-1.181-7.573-1.104-12.012
				c-8.026,0.949-19.209,3.842-30.625,3.346c-0.155,3.334,1.115,5.255,1.744,7.815C186.779,350.939,200.568,352.596,208.716,348.798
				z M207.038,334.38c-0.254-5.101-0.917-9.814-1.082-15.003c-10.411,2.727-20.082,6.193-33.042,6.325
				c-0.199,4.747,2.031,7.121,2.307,11.415C186.04,338.707,198.372,336.974,207.038,334.38z M205.382,316.97
				c-0.806-5.696-0.033-11.349-1.678-15.003c-10.422,3.632-24.464,6.414-37.237,5.686c2.352,4.824,4.096,10.245,5.266,16.239
				C183.379,323.638,195.534,320.834,205.382,316.97z M204.322,299.571c0.11-6.349-0.188-13.094,0.751-18.592
				c-13.458,4.019-28.362,11.791-45.054,8.622c1.303,5.852,4.239,10.113,5.862,15.644
				C180.277,306.891,193.867,303.811,204.322,299.571z M203.438,261.175c-2.594-5.388-5.718-10.245-7.054-16.858
				c-17.355,11.548-61.382,12.066-84.609,2.903c-0.133,6.668,0.883,12.222,1.049,18.603c5.818,1.921,14.617,4.857,19.783,0.762
				C152.258,274.334,188.414,273.418,203.438,261.175z M194.607,241.303c-1.093-5.675-3.412-10.135-4.063-16.229
				c-18.502,12.895-58.356,12.762-80.414,2.937c0.122,6.027,0.729,11.581,1.06,17.398
				C134.793,253.646,176.866,255.246,194.607,241.303z M189.374,221.464c0.607-2.528-1.833-5.973-2.926-9.02
				c-3.676-10.233-5.156-19.982-6.348-31.254c-7.805,5.642-17.796,7.938-28.273,10.565c-7.695,1.943-15.654,1.06-22.819,2.815
				c-0.817,0.198-1.833,1.777-2.407,1.777c0.265-0.033-2.009-1.601-3.588-1.833c-4.35-0.618-9.085-0.133-11.393-1.292
				c0.419,6.072-0.982,10.29-0.729,16.196c20.633,7.54,55.044,6.071,71.406-3.015c-0.441,5.785-8.865,6.48-14.462,7.685
				c-17.929,3.863-42.856,2.031-56.965-2.871c-1.248,3.975-0.409,10.058-0.718,14.992c12.056,4.681,23.018,7.729,41.333,6.934
				C160.913,232.735,187.475,229.303,189.374,221.464z M179.538,177.592c-0.497-3.478-0.619-7.331-1.115-10.808
				c-14.109,8.236-27.357,17.355-47.549,19.408c-2.274,1.347-4.427,3.125-6.624,2.937c-0.365,0.033-0.707,0.089-0.596,0.597
				c0.817,0.982,1.678,1.921,2.374,3.024C148.593,192.507,166.301,187.329,179.538,177.592z M170.01,168.517
				c10.731-2.915,6.978-12.464,5.597-23.946c-1.777-14.837-4.725-27.423-6.877-38.452c-3.224,1.159-8.81-0.077-11.416,1.7
				C157.303,132.229,163.85,150.18,170.01,168.517z M168.144,103.713c-1.27-5.884-0.519-13.755-1.634-19.805
				c-10.786,2.142-20.468,5.398-31.85,6.933c-0.287,2.363,3.544,4.659,0.552,6.006c-3.18,0.155-1.777-4.206-4.758-4.239
				c-10.19,2.34-20.026,5.045-27.677,9.969c1.634,3.941,1.38,9.737,2.881,13.822C123.808,110.127,148.935,104.927,168.144,103.713z
				 M166.532,82.108c-0.287-7.264-1.645-13.458-2.23-20.413c-11.912-0.409-20.567,5.708-30.635,5.145
				c8.026-4.538,19.319-5.752,30.05-7.551c-0.287-7.452-1.082-14.407-2.826-20.424c-7.264,0.685-12.895,3.036-20.424,3.434
				c-5.807,11.879-10.786,30.691-6.392,47.339C144.994,87.23,154.985,83.885,166.532,82.108z M157.347,176.212
				c2.572-3.036,8.059-3.103,10.256-6.514c-5.509-19.176-12.254-37.127-11.481-62.486c-8.865,1.159-16.052,1.877-25.822,3.985
				c-5.465,1.182-20.17,3.931-21.671,8.821c-0.287,0.938,0.541,1.479,0.585,2.406c0.817,18.89,2.605,38.949,11.559,52.881
				c3.279,1.137,2.727,6.038,7.143,6.061c-1.027,1.954,0.298,2.649,1.17,4.206c8.368-1.976,16.538-4.15,24.044-6.999
				c-8.225-16.306-19.419-38.01-16.25-65.521C137.509,137.583,143.514,164.675,157.347,176.212z M160.306,37.065
				c-0.674-7.065-3.202-12.32-4.648-18.635c-7.065,5.123-10.035,14.396-14.583,22.08C147.776,39.649,152.788,37.087,160.306,37.065z
				 M152.633,312.333c1.325-5.089,2.649-10.189,3.124-16.162c-10.565,3.819-25.59,3.896-37.193,0.894
				c0.563,4.99,2.407,8.733,2.881,13.812C130.123,315.601,141.77,314.806,152.633,312.333z M151.297,328.518
				c-0.166-5.2,0.883-9.174,1.314-13.778c-8.71,0.95-23.261,2.838-29.984-1.445c1.082,5.674,1.789,11.724,4.062,16.229
				C135.047,331.366,143.812,329.467,151.297,328.518z M152.335,347.727c-0.463-5.686-1.523-10.797-1.06-17.409
				c-6.58,2.561-18.172,0.552-24.012,2.208c2.362,6.005,4.162,12.562,6.447,18.646C141.737,351.867,146.318,349.073,152.335,347.727
				z M156.983,293.179c-4.206-4.581-10.167-7.452-14.904-11.525c-8.004,2.937-20.932-0.121-26.981-0.817
				c0.475,4.692,1.535,8.799,2.285,13.215C128.39,298.423,147.235,299.141,156.983,293.179z M140.291,280.438
				c-2.473-4.294-6.458-7.131-8.898-11.47c-4.78,3.93-11.868-0.63-17.995-0.74c0,3.964,0.872,7.065,1.115,10.797
				C122.163,278.44,130.896,282.559,140.291,280.438z M108.662,188.399c4.537,0.475,11.15-2.947,16.825-2.859
				c-12.652-15.908-18.271-40.582-18.646-66.735c-4.913,1.656-8.633,4.537-14.44,5.277c-2.705,25.689,3.985,47.229,13.27,63.092
				C107.227,185.077,108.353,188.366,108.662,188.399z M129.869,90.796c-3.08-6.69-7.507-12.056-10.643-18.68
				c-8.07,1.888-15.367,4.538-22.267,7.618c1.358,7,3.665,13.06,5.244,19.839C111.256,96.471,119.558,92.618,129.869,90.796z
				 M112.228,192.032c3.864,0.176,7.032,1.026,11.393,0.695c-0.541-5.078-7.43-3.5-11.371-2.495
				C112.238,190.828,112.238,191.436,112.228,192.032z M118.034,70.914c-3.82-8.346-8.203-16.129-14.815-21.727
				c-3.312,1.281-7.154,2.009-11.415,2.308c0.972,8.953,2.12,17.752,3.985,25.833C103.374,75.363,109.18,71.587,118.034,70.914z
				 M102.623,47.984c-3.864-6.911-8.788-12.773-13.645-18.702c0.971,7.176,1.854,14.44,2.826,21.616
				C95.568,50.082,99.487,49.43,102.623,47.984z M104.456,189.57c-9.727-16.273-15.964-38.287-13.866-64.296
				c-7.132,2.826-15.533,4.361-20.479,9.428c-1.192,23.581,4.449,45.595,14.506,60.101C90.91,192.738,97.324,190.795,104.456,189.57
				z M81.007,195.377c-7.927-16.207-13.579-37.812-12.685-60.697c-7.894,2.473-14.572,6.16-22.278,8.821
				c-0.298,25.48,8.181,42.327,19.331,56.546C71.038,198.942,75.995,197.132,81.007,195.377z"/>
			<path d="M125.862,139.361c0.243,1.347,3.19,0.044,3.588,1.225c-5.277,2.495-11.691,3.831-17.443,5.851
				c-0.154-1.567,0.243-2.572,1.822-2.384C101.949,132.395,130.222,117.745,125.862,139.361z M115.683,138.069
				c4.582,9.053,14.065-8.258,3.654-7.761C116.058,130.462,114.082,134.934,115.683,138.069z"/>
		</g>
	</g>
</g>
<g id="Layer_2_x23_ED1C24">
	<g>
		<g>
			<path fill="#ED1C24" d="M361.86,254.683c-5.078,0.497-11.525,2.793-16.813,1.061c-9.682-12.884-13.8-31.243-20.601-46.964
				c0-0.199,0-0.397,0-0.597c1.854-0.353,3.5,2.22,4.77,3.644C340.377,224.29,352.09,240.508,361.86,254.683z"/>
			<path fill="#ED1C24" d="M285.752,318.239c-1.579,5.652-4.272,10.179-6.127,15.544c-8.159,2.551-19.397,2.871-28.804,0.961
				c0.033-4.593,0.078-9.196,0.11-13.8C263.054,322.865,276.258,320.978,285.752,318.239z"/>
			<path fill="#ED1C24" d="M333.334,294.04c0.342,7.198,1.777,13.325,2.229,20.413c-8.059,4.735-17.983,5.586-28.836,6.358
				c-3.146-6.425-6.293-12.851-9.439-19.275C310.559,300.708,323.895,296.756,333.334,294.04z"/>
			<path fill="#ED1C24" d="M151.275,330.317c-0.464,6.612,0.596,11.724,1.06,17.409c-6.017,1.347-10.598,4.141-18.624,3.444
				c-2.285-6.083-4.085-12.641-6.447-18.646C133.104,330.869,144.696,332.878,151.275,330.317z"/>
			<path fill="#ED1C24" d="M126.601,196.349c0.574,0,1.59-1.579,2.407-1.777c7.165-1.756,15.125-0.872,22.819-2.815
				c10.477-2.628,20.468-4.924,28.273-10.565c1.192,11.271,2.671,21.021,6.348,31.254c1.093,3.047,3.533,6.491,2.926,9.02
				c-1.899,7.839-28.461,11.271-37.889,11.681c-18.315,0.795-29.277-2.253-41.333-6.934c0.309-4.935-0.53-11.018,0.718-14.992
				c14.109,4.902,39.037,6.734,56.965,2.871c5.597-1.204,14.021-1.899,14.462-7.685c-16.361,9.086-50.772,10.555-71.406,3.015
				c-0.254-5.906,1.148-10.124,0.729-16.196c2.308,1.159,7.043,0.674,11.393,1.292C124.592,194.748,126.866,196.315,126.601,196.349
				z"/>
			<path fill="#ED1C24" d="M196.384,244.316c1.336,6.613,4.46,11.471,7.054,16.858c-15.025,12.243-51.181,13.159-70.832,5.409
				c-5.167,4.096-13.965,1.159-19.783-0.762c-0.166-6.381-1.182-11.935-1.049-18.603
				C135.002,256.383,179.029,255.864,196.384,244.316z"/>
			<path fill="#ED1C24" d="M203.704,301.967c1.645,3.654,0.872,9.307,1.678,15.003c-9.848,3.864-22.002,6.668-33.649,6.922
				c-1.17-5.994-2.915-11.415-5.266-16.239C179.239,308.381,193.282,305.599,203.704,301.967z"/>
			<path fill="#ED1C24" d="M297.652,256.549c-5.343,2.837-11.547,4.791-18.05,6.447c0.177-2.694-3.201-3.765-4.747-5.432
				c-6.304-6.845-8.997-16.438-13.568-27.71c-5.817-14.319-10.741-30.812-9.792-49.867c6.105,0.155,10.963-0.96,17.398-0.453
				C272.394,211.197,282.208,236.644,297.652,256.549z"/>
			<path fill="#ED1C24" d="M155.658,18.43c1.446,6.315,3.974,11.57,4.648,18.635c-7.519,0.022-12.53,2.583-19.231,3.444
				C145.623,32.826,148.593,23.553,155.658,18.43z"/>
			<path fill="#ED1C24" d="M175.607,144.571c1.38,11.481,5.134,21.031-5.597,23.946c-6.16-18.337-12.707-36.288-12.696-60.697
				c2.605-1.777,8.192-0.541,11.416-1.7C170.882,117.148,173.83,129.734,175.607,144.571z"/>
			<path fill="#ED1C24" d="M119.227,72.117c3.135,6.624,7.562,11.989,10.643,18.68c-10.312,1.821-18.613,5.674-27.666,8.777
				c-1.579-6.779-3.886-12.839-5.244-19.839C103.859,76.654,111.157,74.005,119.227,72.117z"/>
			<path fill="#ED1C24" d="M90.589,125.274c-2.098,26.01,4.14,48.023,13.866,64.296c-7.132,1.225-13.546,3.168-19.839,5.232
				c-10.057-14.506-15.699-36.52-14.506-60.101C75.056,129.635,83.458,128.1,90.589,125.274z"/>
		</g>
	</g>
</g>
<g id="Layer_3_x23_6C9D31">
	<g>
		<g>
			<path fill="none" d="M338.158,218.494c10.068,12.641,21.517,26.805,32.07,38.65c-6.69,2.142-19.441,6.635-26.407,2.187
				c-8.953-5.719-14.495-31.464-19.441-42.747c-2.208-5.045-3.245-10.841-7.694-12.662c1.921,10.708,4.968,21.428,7.529,32.457
				c7.628,32.777,12.641,68.017,18.955,102.13c-9.45,4.548-19.43,6.535-31.839,5.729c-7.187-10.378-7.33-27.699-15.29-37.314
				c-7.088,13.767-13.966,27.743-20.744,41.818c-9.24-0.64-19.275,1.998-26.981-0.828c-1.59-23.184,2.352-47.416,3.588-71.351
				c-14.274,0.828-30.603,4.77-43.861,8.634c0.475,19.761,1.225,47.957,6.039,67.243c-11.095,3.356-27.302,2.341-37.182-1.512
				c-4.802-18.072-9.373-36.388-18.779-49.944c-4.46,14.087-4.869,35.007-1.612,50.375c-6.58-0.63-15.919,5.034-22.223,2.814
				c-3.864-1.357-8.07-12.154-10.058-16.88c-8.07-19.188-13.954-38.109-15.676-63.114c-1.932-28.075-0.928-54.516-0.53-80.382
				c-16.46-0.806-30.381,6.216-44.468,9.826c-13.535-14.253-20.733-34.743-21.086-61.956c20.622-7.872,40.074-16.913,59.593-25.899
				c-7.971-29.653-12.983-65.345-17.189-96.72c5.642,2.694,7.805,9.295,11.283,13.888c10.543,13.943,21.792,28.284,32.027,43.453
				c0.419,0.619,0.85,1.038,1.159,1.733c0,0.221,0.011,0.453,0.022,0.673c0-0.199,0.011-0.397,0.011-0.596
				c-0.011-0.022-0.022-0.055-0.033-0.077c-0.994-27.909,10.664-52.771,25.193-68.701c8.799,15.622,12.298,36.476,13.921,57.109
				c1.115,14.087,0.397,29.631,3.246,42.614c1.347,6.116,4.647,11.206,5.862,16.847c4.295,19.894,1.667,40.527,7.905,59.45
				c16.427-2.143,34.024-6.823,52.263-8.567c23.36-2.241,48.962-6.723,71.384-0.607c1.424,1.976,0.662,6.083,1.733,8.413
				c9.869,2.362,11.58,12.298,16.626,20.533C330.209,209.674,334.504,213.901,338.158,218.494z M345.047,255.743
				c5.288,1.732,11.735-0.563,16.813-1.061c-9.771-14.175-21.483-30.393-32.645-42.856c-1.27-1.424-2.915-3.996-4.77-3.644
				c0,0.199,0,0.397,0,0.597C331.247,224.5,335.365,242.859,345.047,255.743z M338.379,337.272
				c-0.729-6.624-1.933-12.784-2.241-19.817c-8.965,2.164-16.88,5.41-27.633,5.764c1.833,6.535,4.229,12.508,7.043,18.061
				C325.142,341.787,331.457,340.463,338.379,337.272z M335.563,314.453c-0.452-7.088-1.888-13.215-2.229-20.413
				c-9.439,2.716-22.775,6.668-36.046,7.496c3.146,6.425,6.293,12.851,9.439,19.275C317.58,320.039,327.505,319.188,335.563,314.453
				z M332.152,291.622c-0.895-8.037-1.546-16.316-4.614-22.223c-6.282,2.804-16.03,7.054-24.663,8.787
				c-5.432,1.093-15.291,3.588-17.984-0.75c17.277-0.574,31.972-3.787,42.68-11.04c-1.445-6.713-1.435-14.849-4.637-19.839
				c-14.229,8.125-28.096,16.604-48.145,18.801c-5.188,3.19-10.863,5.896-18.05,7.055c-0.056,2.142-2.064,6.403-0.685,9.582
				c8.82-0.706,17.255-1.811,24.033-4.592c0.884-3.202-4.415-5.067-4.117-9.638c8.258,8.533,13.634,19.915,19.54,30.757
				C310.415,298.964,322.106,296.127,332.152,291.622z M312.534,198.49c2.539-1.446,3.224,1.259,6.591,0.651
				c-1.258-3.323-3.488-5.696-5.332-8.445c-1.06,0.342-3.511-0.751-3.599,0.574C311.364,193.29,312.126,195.708,312.534,198.49z
				 M322.349,244.162c-4.46-22.985-11.228-43.696-17.454-64.937c-4.272,0.707-11.503-1.612-13.811,1.093c0,0.199,0,0.397,0,0.596
				c2.131,13.436,6.889,23.89,12.31,34.897C308.505,226.2,312.91,237.858,322.349,244.162z M300.06,255.975
				c7.353-2.605,14.142-5.796,19.883-10.035c-15.379-17.608-25.524-40.34-31.243-67.442c-6.392-0.464-11.426,0.475-17.398,0.453
				C273.575,211.826,284.316,236.356,300.06,255.975z M287.562,315.854c2.009-5.807,7.407-13.325,5.563-19.154
				c-10.974,1.226-25.767,6.768-40.229,4.472c-1.027,5.608-0.972,12.32-1.954,17.973
				C264.379,320.458,276.876,318.935,287.562,315.854z M291.349,293.687c-3.842-4.548-5.641-11.105-10.068-15.08
				c-7.176,3.003-16.813,6.006-26.44,4.581c-0.729,5.3-1.932,10.135-1.932,16.185C267.812,299.593,281.479,298.577,291.349,293.687z
				 M279.625,333.783c1.854-5.365,4.548-9.892,6.127-15.544c-9.494,2.738-22.698,4.626-34.82,2.705
				c-0.032,4.604-0.077,9.207-0.11,13.8C260.228,336.654,271.466,336.334,279.625,333.783z M279.603,262.996
				c6.503-1.656,12.707-3.61,18.05-6.447c-15.444-19.905-25.259-45.352-28.759-77.014c-6.436-0.508-11.293,0.607-17.398,0.453
				c-0.949,19.055,3.975,35.548,9.792,49.867c4.571,11.271,7.265,20.865,13.568,27.71
				C276.401,259.231,279.779,260.302,279.603,262.996z M272.327,345.718c2.528-2.274,6.139-6.657,5.476-10.146
				c-7.286,3.676-17.509,2.66-27.003,1.567C247.135,350.663,263.915,344.072,272.327,345.718z M256.154,269.399
				c10.421,1.126,13.954-5.906,21.648-5.818c-17.388-19.971-26.285-48.321-28.703-83.02c-4.836,0.287-10.112,0.497-15.015,1.082
				c-4.725,0.552-10.433,0.685-13.226,3.488C225.949,219.786,236.105,249.461,256.154,269.399z M232.717,274.61
				c6.304-1.656,13.479-2.43,20.423-3.434c-18.535-22.024-28.813-52.164-34.676-86.663c-7.419,1.115-15.5,1.579-21.627,4.019
				C202.997,222.546,214.125,254.815,232.717,274.61z M218.298,278.088c3.6,0.64,7.739-2.484,11.427-3.5
				c-19.342-21.439-27.688-53.687-35.272-86.674c-3.135,1.247-7.176,1.578-11.415,1.7c0.563,12.343,4.537,21.317,8.147,30.669
				c1.49,0.794,1.888-2.363,2.396-0.586c-0.883,0.861-0.905,3.92-0.033,4.803c-1.126,0.563-1.987-1.821-2.407-0.022
				c2.837,8.07,6.16,17.764,11.162,28.881C205.172,259.729,211.354,276.862,218.298,278.088z M214.688,279.258
				c-3.765-4.824-6.746-10.422-10.676-15.081c-15.257,10.355-47.229,11.515-68.425,5.432c-0.74,0.056-1.424,0.166-1.214,1.192
				c2.671,3.533,6.877,6.79,10.72,10.278c3.51,3.213,7.728,8.225,11.934,7.298c-0.508-1.899-3.666-4.295-1.745-6.613
				c2.164,1.446,1.8,5.365,4.14,6.635c17.178-0.441,36.52-2.947,46.886-12.21c-0.011,1.601-0.022,3.201-0.033,4.803
				C209.842,281.189,211.829,279.787,214.688,279.258z M208.716,348.798c-0.651-3.721-1.181-7.573-1.104-12.012
				c-8.026,0.949-19.209,3.842-30.625,3.346c-0.155,3.334,1.115,5.255,1.744,7.815C186.779,350.939,200.568,352.596,208.716,348.798
				z M207.038,334.38c-0.254-5.101-0.917-9.814-1.082-15.003c-10.411,2.727-20.082,6.193-33.042,6.325
				c-0.199,4.747,2.031,7.121,2.307,11.415C186.04,338.707,198.372,336.974,207.038,334.38z M205.382,316.97
				c-0.806-5.696-0.033-11.349-1.678-15.003c-10.422,3.632-24.464,6.414-37.237,5.686c2.352,4.824,4.096,10.245,5.266,16.239
				C183.379,323.638,195.534,320.834,205.382,316.97z M204.322,299.571c0.11-6.349-0.188-13.094,0.751-18.592
				c-13.458,4.019-28.362,11.791-45.054,8.622c1.303,5.852,4.239,10.113,5.862,15.644
				C180.277,306.891,193.867,303.811,204.322,299.571z M203.438,261.175c-2.594-5.388-5.718-10.245-7.054-16.858
				c-17.355,11.548-61.382,12.066-84.609,2.903c-0.133,6.668,0.883,12.222,1.049,18.603c5.818,1.921,14.617,4.857,19.783,0.762
				C152.258,274.334,188.414,273.418,203.438,261.175z M194.607,241.303c-1.093-5.675-3.412-10.135-4.063-16.229
				c-18.502,12.895-58.356,12.762-80.414,2.937c0.122,6.027,0.729,11.581,1.06,17.398
				C134.793,253.646,176.866,255.246,194.607,241.303z M189.374,221.464c0.607-2.528-1.833-5.973-2.926-9.02
				c-3.676-10.233-5.156-19.982-6.348-31.254c-7.805,5.642-17.796,7.938-28.273,10.565c-7.695,1.943-15.654,1.06-22.819,2.815
				c-0.817,0.198-1.833,1.777-2.407,1.777c0.265-0.033-2.009-1.601-3.588-1.833c-4.35-0.618-9.085-0.133-11.393-1.292
				c0.419,6.072-0.982,10.29-0.729,16.196c20.633,7.54,55.044,6.071,71.406-3.015c-0.441,5.785-8.865,6.48-14.462,7.685
				c-17.929,3.863-42.856,2.031-56.965-2.871c-1.248,3.975-0.409,10.058-0.718,14.992c12.056,4.681,23.018,7.729,41.333,6.934
				C160.913,232.735,187.475,229.303,189.374,221.464z M179.538,177.592c-0.497-3.478-0.619-7.331-1.115-10.808
				c-14.109,8.236-27.357,17.355-47.549,19.408c-2.274,1.347-4.427,3.125-6.624,2.937c-0.365,0.033-0.707,0.089-0.596,0.597
				c0.817,0.982,1.678,1.921,2.374,3.024C148.593,192.507,166.301,187.329,179.538,177.592z M170.01,168.517
				c10.731-2.915,6.978-12.464,5.597-23.946c-1.777-14.837-4.725-27.423-6.877-38.452c-3.224,1.159-8.81-0.077-11.416,1.7
				C157.303,132.229,163.85,150.18,170.01,168.517z M168.144,103.713c-1.27-5.884-0.519-13.755-1.634-19.805
				c-10.786,2.142-20.468,5.398-31.85,6.933c-0.287,2.363,3.544,4.659,0.552,6.006c-3.18,0.155-1.777-4.206-4.758-4.239
				c-10.19,2.34-20.026,5.045-27.677,9.969c1.634,3.941,1.38,9.737,2.881,13.822C123.808,110.127,148.935,104.927,168.144,103.713z
				 M166.532,82.108c-0.287-7.264-1.645-13.458-2.23-20.413c-11.912-0.409-20.567,5.708-30.635,5.145
				c8.026-4.538,19.319-5.752,30.05-7.551c-0.287-7.452-1.082-14.407-2.826-20.424c-7.264,0.685-12.895,3.036-20.424,3.434
				c-5.807,11.879-10.786,30.691-6.392,47.339C144.994,87.23,154.985,83.885,166.532,82.108z M157.347,176.212
				c2.572-3.036,8.059-3.103,10.256-6.514c-5.509-19.176-12.254-37.127-11.481-62.486c-8.865,1.159-16.052,1.877-25.822,3.985
				c-5.465,1.182-20.17,3.931-21.671,8.821c-0.287,0.938,0.541,1.479,0.585,2.406c0.817,18.89,2.605,38.949,11.559,52.881
				c3.279,1.137,2.727,6.038,7.143,6.061c-1.027,1.954,0.298,2.649,1.17,4.206c8.368-1.976,16.538-4.15,24.044-6.999
				c-8.225-16.306-19.419-38.01-16.25-65.521C137.509,137.583,143.514,164.675,157.347,176.212z M160.306,37.065
				c-0.674-7.065-3.202-12.32-4.648-18.635c-7.065,5.123-10.035,14.396-14.583,22.08C147.776,39.649,152.788,37.087,160.306,37.065z
				 M152.633,312.333c1.325-5.089,2.649-10.189,3.124-16.162c-10.565,3.819-25.59,3.896-37.193,0.894
				c0.563,4.99,2.407,8.733,2.881,13.812C130.123,315.601,141.77,314.806,152.633,312.333z M151.297,328.518
				c-0.166-5.2,0.883-9.174,1.314-13.778c-8.71,0.95-23.261,2.838-29.984-1.445c1.082,5.674,1.789,11.724,4.062,16.229
				C135.047,331.366,143.812,329.467,151.297,328.518z M152.335,347.727c-0.463-5.686-1.523-10.797-1.06-17.409
				c-6.58,2.561-18.172,0.552-24.012,2.208c2.362,6.005,4.162,12.562,6.447,18.646C141.737,351.867,146.318,349.073,152.335,347.727
				z M156.983,293.179c-4.206-4.581-10.167-7.452-14.904-11.525c-8.004,2.937-20.932-0.121-26.981-0.817
				c0.475,4.692,1.535,8.799,2.285,13.215C128.39,298.423,147.235,299.141,156.983,293.179z M140.291,280.438
				c-2.473-4.294-6.458-7.131-8.898-11.47c-4.78,3.93-11.868-0.63-17.995-0.74c0,3.964,0.872,7.065,1.115,10.797
				C122.163,278.44,130.896,282.559,140.291,280.438z M108.662,188.399c4.537,0.475,11.15-2.947,16.825-2.859
				c-12.652-15.908-18.271-40.582-18.646-66.735c-4.913,1.656-8.633,4.537-14.44,5.277c-2.705,25.689,3.985,47.229,13.27,63.092
				C107.227,185.077,108.353,188.366,108.662,188.399z M129.869,90.796c-3.08-6.69-7.507-12.056-10.643-18.68
				c-8.07,1.888-15.367,4.538-22.267,7.618c1.358,7,3.665,13.06,5.244,19.839C111.256,96.471,119.558,92.618,129.869,90.796z
				 M112.228,192.032c3.864,0.176,7.032,1.026,11.393,0.695c-0.541-5.078-7.43-3.5-11.371-2.495
				C112.238,190.828,112.238,191.436,112.228,192.032z M118.034,70.914c-3.82-8.346-8.203-16.129-14.815-21.727
				c-3.312,1.281-7.154,2.009-11.415,2.308c0.972,8.953,2.12,17.752,3.985,25.833C103.374,75.363,109.18,71.587,118.034,70.914z
				 M102.623,47.984c-3.864-6.911-8.788-12.773-13.645-18.702c0.971,7.176,1.854,14.44,2.826,21.616
				C95.568,50.082,99.487,49.43,102.623,47.984z M104.456,189.57c-9.727-16.273-15.964-38.287-13.866-64.296
				c-7.132,2.826-15.533,4.361-20.479,9.428c-1.192,23.581,4.449,45.595,14.506,60.101C90.91,192.738,97.324,190.795,104.456,189.57
				z M81.007,195.377c-7.927-16.207-13.579-37.812-12.685-60.697c-7.894,2.473-14.572,6.16-22.278,8.821
				c-0.298,25.48,8.181,42.327,19.331,56.546C71.038,198.942,75.995,197.132,81.007,195.377z"/>
			<path fill="#6D9D31" d="M103.219,49.187c6.613,5.597,10.996,13.38,14.815,21.727c-8.854,0.673-14.661,4.449-22.245,6.414
				c-1.866-8.081-3.014-16.88-3.985-25.833C96.065,51.196,99.907,50.468,103.219,49.187z"/>
			<path fill="#6D9D31" d="M68.322,134.68c-0.894,22.886,4.758,44.491,12.685,60.697c-5.012,1.755-9.969,3.565-15.633,4.67
				c-11.15-14.22-19.628-31.066-19.331-56.546C53.75,140.84,60.428,137.153,68.322,134.68z"/>
			<path fill="#6D9D31" d="M155.757,296.171c-0.475,5.973-1.799,11.073-3.124,16.162c-10.863,2.473-22.51,3.268-31.188-1.457
				c-0.475-5.078-2.318-8.821-2.881-13.812C130.167,300.067,145.192,299.99,155.757,296.171z"/>
			<path fill="#6D9D31" d="M281.28,278.606c4.428,3.975,6.227,10.532,10.068,15.08c-9.869,4.891-23.536,5.906-38.44,5.686
				c0-6.05,1.203-10.885,1.932-16.185C264.467,284.612,274.104,281.609,281.28,278.606z"/>
			<path fill="#6D9D31" d="M304.895,179.226c6.227,21.24,12.994,41.951,17.454,64.937c-9.438-6.304-13.844-17.962-18.955-28.351
				c-5.421-11.007-10.179-21.461-12.31-34.897c0-0.199,0-0.397,0-0.596C293.392,177.614,300.622,179.932,304.895,179.226z"/>
			<path fill="#6D9D31" d="M277.803,263.581c-7.694-0.088-11.228,6.944-21.648,5.818c-20.049-19.938-30.205-49.613-35.295-84.268
				c2.793-2.804,8.501-2.937,13.226-3.488c4.902-0.585,10.179-0.795,15.015-1.082C251.518,215.26,260.415,243.61,277.803,263.581z"
				/>
			<path fill="#6D9D31" d="M196.384,244.316c1.336,6.613,4.46,11.471,7.054,16.858c-15.025,12.243-51.181,13.159-70.832,5.409
				c-5.167,4.096-13.965,1.159-19.783-0.762c-0.166-6.381-1.182-11.935-1.049-18.603
				C135.002,256.383,179.029,255.864,196.384,244.316z"/>
			<path fill="#6D9D31" d="M167.604,169.698c-2.197,3.411-7.684,3.478-10.256,6.514c-13.833-11.537-19.838-38.629-20.468-63.159
				c-3.168,27.511,8.026,49.216,16.25,65.521c-7.507,2.849-15.676,5.023-24.044,6.999c-0.873-1.557-2.197-2.252-1.17-4.206
				c-4.416-0.022-3.864-4.924-7.143-6.061c-8.954-13.933-10.742-33.992-11.559-52.881c-0.044-0.927-0.872-1.468-0.585-2.406
				c1.501-4.891,16.207-7.64,21.671-8.821c9.77-2.108,16.957-2.826,25.822-3.985C155.349,132.571,162.094,150.522,167.604,169.698z
				 M129.45,140.586c-0.397-1.181-3.345,0.122-3.588-1.225c4.36-21.616-23.913-6.966-12.034,4.692
				c-1.579-0.188-1.976,0.817-1.822,2.384C117.758,144.417,124.172,143.081,129.45,140.586z"/>
		</g>
	</g>
</g>
<g id="Layer_4_x23_F7931D">
	<g>
		<g>
			<path fill="none" d="M338.158,218.494c10.068,12.641,21.517,26.805,32.07,38.65c-6.69,2.142-19.441,6.635-26.407,2.187
				c-8.953-5.719-14.495-31.464-19.441-42.747c-2.208-5.045-3.245-10.841-7.694-12.662c1.921,10.708,4.968,21.428,7.529,32.457
				c7.628,32.777,12.641,68.017,18.955,102.13c-9.45,4.548-19.43,6.535-31.839,5.729c-7.187-10.378-7.33-27.699-15.29-37.314
				c-7.088,13.767-13.966,27.743-20.744,41.818c-9.24-0.64-19.275,1.998-26.981-0.828c-1.59-23.184,2.352-47.416,3.588-71.351
				c-14.274,0.828-30.603,4.77-43.861,8.634c0.475,19.761,1.225,47.957,6.039,67.243c-11.095,3.356-27.302,2.341-37.182-1.512
				c-4.802-18.072-9.373-36.388-18.779-49.944c-4.46,14.087-4.869,35.007-1.612,50.375c-6.58-0.63-15.919,5.034-22.223,2.814
				c-3.864-1.357-8.07-12.154-10.058-16.88c-8.07-19.188-13.954-38.109-15.676-63.114c-1.932-28.075-0.928-54.516-0.53-80.382
				c-16.46-0.806-30.381,6.216-44.468,9.826c-13.535-14.253-20.733-34.743-21.086-61.956c20.622-7.872,40.074-16.913,59.593-25.899
				c-7.971-29.653-12.983-65.345-17.189-96.72c5.642,2.694,7.805,9.295,11.283,13.888c10.543,13.943,21.792,28.284,32.027,43.453
				c0.419,0.619,0.85,1.038,1.159,1.733c0,0.221,0.011,0.453,0.022,0.673c0-0.199,0.011-0.397,0.011-0.596
				c-0.011-0.022-0.022-0.055-0.033-0.077c-0.994-27.909,10.664-52.771,25.193-68.701c8.799,15.622,12.298,36.476,13.921,57.109
				c1.115,14.087,0.397,29.631,3.246,42.614c1.347,6.116,4.647,11.206,5.862,16.847c4.295,19.894,1.667,40.527,7.905,59.45
				c16.427-2.143,34.024-6.823,52.263-8.567c23.36-2.241,48.962-6.723,71.384-0.607c1.424,1.976,0.662,6.083,1.733,8.413
				c9.869,2.362,11.58,12.298,16.626,20.533C330.209,209.674,334.504,213.901,338.158,218.494z M345.047,255.743
				c5.288,1.732,11.735-0.563,16.813-1.061c-9.771-14.175-21.483-30.393-32.645-42.856c-1.27-1.424-2.915-3.996-4.77-3.644
				c0,0.199,0,0.397,0,0.597C331.247,224.5,335.365,242.859,345.047,255.743z M338.379,337.272
				c-0.729-6.624-1.933-12.784-2.241-19.817c-8.965,2.164-16.88,5.41-27.633,5.764c1.833,6.535,4.229,12.508,7.043,18.061
				C325.142,341.787,331.457,340.463,338.379,337.272z M335.563,314.453c-0.452-7.088-1.888-13.215-2.229-20.413
				c-9.439,2.716-22.775,6.668-36.046,7.496c3.146,6.425,6.293,12.851,9.439,19.275C317.58,320.039,327.505,319.188,335.563,314.453
				z M332.152,291.622c-0.895-8.037-1.546-16.316-4.614-22.223c-6.282,2.804-16.03,7.054-24.663,8.787
				c-5.432,1.093-15.291,3.588-17.984-0.75c17.277-0.574,31.972-3.787,42.68-11.04c-1.445-6.713-1.435-14.849-4.637-19.839
				c-14.229,8.125-28.096,16.604-48.145,18.801c-5.188,3.19-10.863,5.896-18.05,7.055c-0.056,2.142-2.064,6.403-0.685,9.582
				c8.82-0.706,17.255-1.811,24.033-4.592c0.884-3.202-4.415-5.067-4.117-9.638c8.258,8.533,13.634,19.915,19.54,30.757
				C310.415,298.964,322.106,296.127,332.152,291.622z M312.534,198.49c2.539-1.446,3.224,1.259,6.591,0.651
				c-1.258-3.323-3.488-5.696-5.332-8.445c-1.06,0.342-3.511-0.751-3.599,0.574C311.364,193.29,312.126,195.708,312.534,198.49z
				 M322.349,244.162c-4.46-22.985-11.228-43.696-17.454-64.937c-4.272,0.707-11.503-1.612-13.811,1.093c0,0.199,0,0.397,0,0.596
				c2.131,13.436,6.889,23.89,12.31,34.897C308.505,226.2,312.91,237.858,322.349,244.162z M300.06,255.975
				c7.353-2.605,14.142-5.796,19.883-10.035c-15.379-17.608-25.524-40.34-31.243-67.442c-6.392-0.464-11.426,0.475-17.398,0.453
				C273.575,211.826,284.316,236.356,300.06,255.975z M287.562,315.854c2.009-5.807,7.407-13.325,5.563-19.154
				c-10.974,1.226-25.767,6.768-40.229,4.472c-1.027,5.608-0.972,12.32-1.954,17.973
				C264.379,320.458,276.876,318.935,287.562,315.854z M291.349,293.687c-3.842-4.548-5.641-11.105-10.068-15.08
				c-7.176,3.003-16.813,6.006-26.44,4.581c-0.729,5.3-1.932,10.135-1.932,16.185C267.812,299.593,281.479,298.577,291.349,293.687z
				 M279.625,333.783c1.854-5.365,4.548-9.892,6.127-15.544c-9.494,2.738-22.698,4.626-34.82,2.705
				c-0.032,4.604-0.077,9.207-0.11,13.8C260.228,336.654,271.466,336.334,279.625,333.783z M279.603,262.996
				c6.503-1.656,12.707-3.61,18.05-6.447c-15.444-19.905-25.259-45.352-28.759-77.014c-6.436-0.508-11.293,0.607-17.398,0.453
				c-0.949,19.055,3.975,35.548,9.792,49.867c4.571,11.271,7.265,20.865,13.568,27.71
				C276.401,259.231,279.779,260.302,279.603,262.996z M272.327,345.718c2.528-2.274,6.139-6.657,5.476-10.146
				c-7.286,3.676-17.509,2.66-27.003,1.567C247.135,350.663,263.915,344.072,272.327,345.718z M256.154,269.399
				c10.421,1.126,13.954-5.906,21.648-5.818c-17.388-19.971-26.285-48.321-28.703-83.02c-4.836,0.287-10.112,0.497-15.015,1.082
				c-4.725,0.552-10.433,0.685-13.226,3.488C225.949,219.786,236.105,249.461,256.154,269.399z M232.717,274.61
				c6.304-1.656,13.479-2.43,20.423-3.434c-18.535-22.024-28.813-52.164-34.676-86.663c-7.419,1.115-15.5,1.579-21.627,4.019
				C202.997,222.546,214.125,254.815,232.717,274.61z M218.298,278.088c3.6,0.64,7.739-2.484,11.427-3.5
				c-19.342-21.439-27.688-53.687-35.272-86.674c-3.135,1.247-7.176,1.578-11.415,1.7c0.563,12.343,4.537,21.317,8.147,30.669
				c1.49,0.794,1.888-2.363,2.396-0.586c-0.883,0.861-0.905,3.92-0.033,4.803c-1.126,0.563-1.987-1.821-2.407-0.022
				c2.837,8.07,6.16,17.764,11.162,28.881C205.172,259.729,211.354,276.862,218.298,278.088z M214.688,279.258
				c-3.765-4.824-6.746-10.422-10.676-15.081c-15.257,10.355-47.229,11.515-68.425,5.432c-0.74,0.056-1.424,0.166-1.214,1.192
				c2.671,3.533,6.877,6.79,10.72,10.278c3.51,3.213,7.728,8.225,11.934,7.298c-0.508-1.899-3.666-4.295-1.745-6.613
				c2.164,1.446,1.8,5.365,4.14,6.635c17.178-0.441,36.52-2.947,46.886-12.21c-0.011,1.601-0.022,3.201-0.033,4.803
				C209.842,281.189,211.829,279.787,214.688,279.258z M208.716,348.798c-0.651-3.721-1.181-7.573-1.104-12.012
				c-8.026,0.949-19.209,3.842-30.625,3.346c-0.155,3.334,1.115,5.255,1.744,7.815C186.779,350.939,200.568,352.596,208.716,348.798
				z M207.038,334.38c-0.254-5.101-0.917-9.814-1.082-15.003c-10.411,2.727-20.082,6.193-33.042,6.325
				c-0.199,4.747,2.031,7.121,2.307,11.415C186.04,338.707,198.372,336.974,207.038,334.38z M205.382,316.97
				c-0.806-5.696-0.033-11.349-1.678-15.003c-10.422,3.632-24.464,6.414-37.237,5.686c2.352,4.824,4.096,10.245,5.266,16.239
				C183.379,323.638,195.534,320.834,205.382,316.97z M204.322,299.571c0.11-6.349-0.188-13.094,0.751-18.592
				c-13.458,4.019-28.362,11.791-45.054,8.622c1.303,5.852,4.239,10.113,5.862,15.644
				C180.277,306.891,193.867,303.811,204.322,299.571z M203.438,261.175c-2.594-5.388-5.718-10.245-7.054-16.858
				c-17.355,11.548-61.382,12.066-84.609,2.903c-0.133,6.668,0.883,12.222,1.049,18.603c5.818,1.921,14.617,4.857,19.783,0.762
				C152.258,274.334,188.414,273.418,203.438,261.175z M194.607,241.303c-1.093-5.675-3.412-10.135-4.063-16.229
				c-18.502,12.895-58.356,12.762-80.414,2.937c0.122,6.027,0.729,11.581,1.06,17.398
				C134.793,253.646,176.866,255.246,194.607,241.303z M189.374,221.464c0.607-2.528-1.833-5.973-2.926-9.02
				c-3.676-10.233-5.156-19.982-6.348-31.254c-7.805,5.642-17.796,7.938-28.273,10.565c-7.695,1.943-15.654,1.06-22.819,2.815
				c-0.817,0.198-1.833,1.777-2.407,1.777c0.265-0.033-2.009-1.601-3.588-1.833c-4.35-0.618-9.085-0.133-11.393-1.292
				c0.419,6.072-0.982,10.29-0.729,16.196c20.633,7.54,55.044,6.071,71.406-3.015c-0.441,5.785-8.865,6.48-14.462,7.685
				c-17.929,3.863-42.856,2.031-56.965-2.871c-1.248,3.975-0.409,10.058-0.718,14.992c12.056,4.681,23.018,7.729,41.333,6.934
				C160.913,232.735,187.475,229.303,189.374,221.464z M179.538,177.592c-0.497-3.478-0.619-7.331-1.115-10.808
				c-14.109,8.236-27.357,17.355-47.549,19.408c-2.274,1.347-4.427,3.125-6.624,2.937c-0.365,0.033-0.707,0.089-0.596,0.597
				c0.817,0.982,1.678,1.921,2.374,3.024C148.593,192.507,166.301,187.329,179.538,177.592z M170.01,168.517
				c10.731-2.915,6.978-12.464,5.597-23.946c-1.777-14.837-4.725-27.423-6.877-38.452c-3.224,1.159-8.81-0.077-11.416,1.7
				C157.303,132.229,163.85,150.18,170.01,168.517z M168.144,103.713c-1.27-5.884-0.519-13.755-1.634-19.805
				c-10.786,2.142-20.468,5.398-31.85,6.933c-0.287,2.363,3.544,4.659,0.552,6.006c-3.18,0.155-1.777-4.206-4.758-4.239
				c-10.19,2.34-20.026,5.045-27.677,9.969c1.634,3.941,1.38,9.737,2.881,13.822C123.808,110.127,148.935,104.927,168.144,103.713z
				 M166.532,82.108c-0.287-7.264-1.645-13.458-2.23-20.413c-11.912-0.409-20.567,5.708-30.635,5.145
				c8.026-4.538,19.319-5.752,30.05-7.551c-0.287-7.452-1.082-14.407-2.826-20.424c-7.264,0.685-12.895,3.036-20.424,3.434
				c-5.807,11.879-10.786,30.691-6.392,47.339C144.994,87.23,154.985,83.885,166.532,82.108z M157.347,176.212
				c2.572-3.036,8.059-3.103,10.256-6.514c-5.509-19.176-12.254-37.127-11.481-62.486c-8.865,1.159-16.052,1.877-25.822,3.985
				c-5.465,1.182-20.17,3.931-21.671,8.821c-0.287,0.938,0.541,1.479,0.585,2.406c0.817,18.89,2.605,38.949,11.559,52.881
				c3.279,1.137,2.727,6.038,7.143,6.061c-1.027,1.954,0.298,2.649,1.17,4.206c8.368-1.976,16.538-4.15,24.044-6.999
				c-8.225-16.306-19.419-38.01-16.25-65.521C137.509,137.583,143.514,164.675,157.347,176.212z M160.306,37.065
				c-0.674-7.065-3.202-12.32-4.648-18.635c-7.065,5.123-10.035,14.396-14.583,22.08C147.776,39.649,152.788,37.087,160.306,37.065z
				 M152.633,312.333c1.325-5.089,2.649-10.189,3.124-16.162c-10.565,3.819-25.59,3.896-37.193,0.894
				c0.563,4.99,2.407,8.733,2.881,13.812C130.123,315.601,141.77,314.806,152.633,312.333z M151.297,328.518
				c-0.166-5.2,0.883-9.174,1.314-13.778c-8.71,0.95-23.261,2.838-29.984-1.445c1.082,5.674,1.789,11.724,4.062,16.229
				C135.047,331.366,143.812,329.467,151.297,328.518z M152.335,347.727c-0.463-5.686-1.523-10.797-1.06-17.409
				c-6.58,2.561-18.172,0.552-24.012,2.208c2.362,6.005,4.162,12.562,6.447,18.646C141.737,351.867,146.318,349.073,152.335,347.727
				z M156.983,293.179c-4.206-4.581-10.167-7.452-14.904-11.525c-8.004,2.937-20.932-0.121-26.981-0.817
				c0.475,4.692,1.535,8.799,2.285,13.215C128.39,298.423,147.235,299.141,156.983,293.179z M140.291,280.438
				c-2.473-4.294-6.458-7.131-8.898-11.47c-4.78,3.93-11.868-0.63-17.995-0.74c0,3.964,0.872,7.065,1.115,10.797
				C122.163,278.44,130.896,282.559,140.291,280.438z M108.662,188.399c4.537,0.475,11.15-2.947,16.825-2.859
				c-12.652-15.908-18.271-40.582-18.646-66.735c-4.913,1.656-8.633,4.537-14.44,5.277c-2.705,25.689,3.985,47.229,13.27,63.092
				C107.227,185.077,108.353,188.366,108.662,188.399z M129.869,90.796c-3.08-6.69-7.507-12.056-10.643-18.68
				c-8.07,1.888-15.367,4.538-22.267,7.618c1.358,7,3.665,13.06,5.244,19.839C111.256,96.471,119.558,92.618,129.869,90.796z
				 M112.228,192.032c3.864,0.176,7.032,1.026,11.393,0.695c-0.541-5.078-7.43-3.5-11.371-2.495
				C112.238,190.828,112.238,191.436,112.228,192.032z M118.034,70.914c-3.82-8.346-8.203-16.129-14.815-21.727
				c-3.312,1.281-7.154,2.009-11.415,2.308c0.972,8.953,2.12,17.752,3.985,25.833C103.374,75.363,109.18,71.587,118.034,70.914z
				 M102.623,47.984c-3.864-6.911-8.788-12.773-13.645-18.702c0.971,7.176,1.854,14.44,2.826,21.616
				C95.568,50.082,99.487,49.43,102.623,47.984z M104.456,189.57c-9.727-16.273-15.964-38.287-13.866-64.296
				c-7.132,2.826-15.533,4.361-20.479,9.428c-1.192,23.581,4.449,45.595,14.506,60.101C90.91,192.738,97.324,190.795,104.456,189.57
				z M81.007,195.377c-7.927-16.207-13.579-37.812-12.685-60.697c-7.894,2.473-14.572,6.16-22.278,8.821
				c-0.298,25.48,8.181,42.327,19.331,56.546C71.038,198.942,75.995,197.132,81.007,195.377z"/>
			<path fill="#F7941E" d="M319.125,199.142c-3.367,0.607-4.052-2.098-6.591-0.651c-0.408-2.782-1.17-5.2-2.34-7.22
				c0.088-1.325,2.539-0.232,3.599-0.574C315.637,193.445,317.867,195.818,319.125,199.142z"/>
			<path fill="#F7941E" d="M319.942,245.939c-5.741,4.239-12.53,7.43-19.883,10.035c-15.743-19.618-26.484-44.148-28.759-77.025
				c5.973,0.022,11.007-0.917,17.398-0.453C294.418,205.6,304.563,228.331,319.942,245.939z"/>
			<path fill="#F7941E" d="M204.013,264.177c3.93,4.659,6.911,10.257,10.676,15.081c-2.859,0.529-4.847,1.932-8.413,1.733
				c0.011-1.602,0.022-3.202,0.033-4.803c-10.367,9.263-29.708,11.769-46.886,12.21c-2.34-1.27-1.976-5.188-4.14-6.635
				c-1.921,2.318,1.236,4.714,1.745,6.613c-4.207,0.927-8.424-4.085-11.934-7.298c-3.842-3.488-8.048-6.745-10.72-10.278
				c-0.21-1.026,0.475-1.137,1.214-1.192C156.784,275.691,188.756,274.532,204.013,264.177z"/>
			<path fill="#F7941E" d="M205.956,319.377c0.166,5.188,0.828,9.902,1.082,15.003c-8.666,2.594-20.998,4.327-31.817,2.737
				c-0.276-4.294-2.506-6.668-2.307-11.415C185.874,325.57,195.545,322.104,205.956,319.377z"/>
			<path fill="#F7941E" d="M327.538,269.399c3.068,5.906,3.72,14.186,4.614,22.223c-10.046,4.505-21.737,7.342-36.642,6.9
				c-5.906-10.842-11.282-22.224-19.54-30.757c-0.298,4.57,5.001,6.436,4.117,9.638c-6.778,2.781-15.213,3.886-24.033,4.592
				c-1.38-3.179,0.629-7.44,0.685-9.582c7.187-1.159,12.861-3.864,18.05-7.055c20.049-2.197,33.915-10.676,48.145-18.801
				c3.202,4.99,3.191,13.126,4.637,19.839c-10.708,7.253-25.402,10.466-42.68,11.04c2.693,4.338,12.553,1.843,17.984,0.75
				C311.508,276.453,321.256,272.203,327.538,269.399z"/>
			<path fill="#F7941E" d="M253.14,271.177c-6.943,1.004-14.119,1.777-20.423,3.434c-18.592-19.795-29.72-52.064-35.88-86.078
				c6.127-2.439,14.208-2.903,21.627-4.019C224.326,219.013,234.604,249.152,253.14,271.177z"/>
			<path fill="#F7941E" d="M166.51,83.908c1.115,6.05,0.364,13.921,1.634,19.805c-19.209,1.214-44.336,6.414-62.485,12.685
				c-1.501-4.085-1.248-9.881-2.881-13.822c7.65-4.924,17.487-7.628,27.677-9.969c2.981,0.033,1.579,4.394,4.758,4.239
				c2.992-1.347-0.839-3.643-0.552-6.006C146.042,89.306,155.725,86.049,166.51,83.908z"/>
			<path fill="#F7941E" d="M125.486,185.54c-5.675-0.088-12.288,3.334-16.825,2.859c-0.309-0.033-1.435-3.322-2.992-1.226
				c-9.285-15.864-15.975-37.403-13.27-63.092c5.807-0.74,9.527-3.621,14.44-5.277C107.215,144.958,112.834,169.632,125.486,185.54z
				"/>
		</g>
	</g>
</g>
<g id="Layer_5_x23_D6A477">
	<g>
		<g>
			<path fill="#D6A477" d="M119.337,130.308c10.411-0.497,0.927,16.813-3.654,7.761
				C114.082,134.934,116.058,130.462,119.337,130.308z"/>
			<path fill="#D6A477" d="M336.138,317.455c0.309,7.033,1.513,13.193,2.241,19.817c-6.922,3.19-13.237,4.515-22.831,4.007
				c-2.814-5.553-5.21-11.525-7.043-18.061C319.258,322.865,327.173,319.619,336.138,317.455z"/>
			<path fill="#D6A477" d="M277.803,335.572c0.663,3.488-2.947,7.871-5.476,10.146c-8.412-1.646-25.192,4.945-21.527-8.578
				C260.294,338.232,270.517,339.248,277.803,335.572z"/>
			<path fill="#D6A477" d="M293.126,296.7c1.844,5.829-3.555,13.348-5.563,19.154c-10.687,3.08-23.184,4.604-36.619,3.29
				c0.982-5.652,0.927-12.364,1.954-17.973C267.359,303.468,282.152,297.926,293.126,296.7z"/>
			<path fill="#D6A477" d="M123.621,192.728c-4.361,0.331-7.529-0.52-11.393-0.695c0.011-0.597,0.011-1.204,0.022-1.8
				C116.191,189.228,123.08,187.649,123.621,192.728z"/>
			<path fill="#D6A477" d="M152.611,314.739c-0.431,4.604-1.479,8.578-1.314,13.778c-7.485,0.949-16.25,2.849-24.608,1.005
				c-2.274-4.505-2.98-10.555-4.062-16.229C129.35,317.577,143.901,315.689,152.611,314.739z"/>
			<path fill="#D6A477" d="M207.612,336.786c-0.077,4.438,0.453,8.291,1.104,12.012c-8.147,3.798-21.937,2.142-29.984-0.851
				c-0.629-2.561-1.899-4.481-1.744-7.815C188.402,340.628,199.586,337.735,207.612,336.786z"/>
			<path fill="#D6A477" d="M205.073,280.979c-0.938,5.498-0.641,12.243-0.751,18.592c-10.455,4.239-24.045,7.319-38.441,5.674
				c-1.623-5.53-4.559-9.792-5.862-15.644C176.711,292.771,191.615,284.998,205.073,280.979z"/>
			<path fill="#D6A477" d="M142.079,281.653c4.736,4.073,10.698,6.944,14.904,11.525c-9.748,5.962-28.593,5.244-39.6,0.872
				c-0.75-4.416-1.811-8.522-2.285-13.215C121.147,281.532,134.075,284.59,142.079,281.653z"/>
			<path fill="#D6A477" d="M131.393,268.969c2.44,4.339,6.425,7.176,8.898,11.47c-9.395,2.12-18.127-1.998-25.778-1.413
				c-0.243-3.731-1.115-6.833-1.115-10.797C119.525,268.339,126.612,272.898,131.393,268.969z"/>
			<path fill="#D6A477" d="M190.544,225.074c0.651,6.094,2.97,10.554,4.063,16.229c-17.741,13.943-59.814,12.343-83.417,4.106
				c-0.331-5.817-0.938-11.371-1.06-17.398C132.188,237.836,172.042,237.969,190.544,225.074z"/>
			<path fill="#D6A477" d="M229.725,274.588c-3.688,1.016-7.827,4.14-11.427,3.5c-6.944-1.226-13.126-18.359-15.996-24.729
				c-5.001-11.117-8.324-20.811-11.162-28.881c0.419-1.799,1.281,0.586,2.407,0.022c-0.872-0.883-0.85-3.941,0.033-4.803
				c-0.508-1.777-0.905,1.38-2.396,0.586c-3.61-9.352-7.584-18.326-8.147-30.669c4.239-0.122,8.28-0.453,11.415-1.7
				C202.037,220.901,210.383,253.148,229.725,274.588z"/>
			<path fill="#D6A477" d="M178.422,166.784c0.497,3.478,0.618,7.331,1.115,10.808c-13.237,9.737-30.945,14.915-53.51,15.157
				c-0.696-1.104-1.557-2.042-2.374-3.024c-0.11-0.508,0.231-0.563,0.596-0.597c2.197,0.188,4.35-1.59,6.624-2.937
				C151.065,184.139,164.313,175.02,178.422,166.784z"/>
			<path fill="#D6A477" d="M164.302,61.695c0.585,6.955,1.943,13.148,2.23,20.413c-11.547,1.777-21.539,5.123-32.457,7.529
				c-4.394-16.648,0.585-35.46,6.392-47.339c7.529-0.397,13.16-2.749,20.424-3.434c1.744,6.017,2.539,12.972,2.826,20.424
				c-10.731,1.799-22.024,3.014-30.05,7.551C143.735,67.403,152.39,61.287,164.302,61.695z"/>
			<path fill="#D6A477" d="M103.219,49.187c6.613,5.597,10.996,13.38,14.815,21.727c-8.854,0.673-14.661,4.449-22.245,6.414
				c-1.866-8.081-3.014-16.88-3.985-25.833C96.065,51.196,99.907,50.468,103.219,49.187z"/>
			<path fill="#D6A477" d="M88.978,29.282c4.857,5.928,9.781,11.791,13.645,18.702c-3.135,1.446-7.054,2.098-10.819,2.915
				C90.832,43.723,89.949,36.458,88.978,29.282z"/>
		</g>
	</g>
</g>
</svg>
