<?xml version="1.0" encoding="utf-8"?>
<!-- Generator: Adobe Illustrator 14.0.0, SVG Export Plug-In . SVG Version: 6.00 Build 43363)  -->
<!DOCTYPE svg PUBLIC "-//W3C//DTD SVG 1.0//EN" "http://www.w3.org/TR/2001/REC-SVG-20010904/DTD/svg10.dtd">
<svg version="1.0" xmlns="http://www.w3.org/2000/svg" xmlns:xlink="http://www.w3.org/1999/xlink" x="0px" y="0px" width="612px"
	 height="792px" viewBox="0 0 612 792" enable-background="new 0 0 612 792" xml:space="preserve">
<g id="Layer_1_x23_000000">
	<g>
		<g>
			<g>
				<g>
					<path d="M496.61,517.98c5.149,2.199,10.35,4.189,14.96,7.75c3.75,2.89,10.93,10.289,14.41,14.409
						c12.02,14.24,23.279,55.261,25.63,85.67c0.699,9.11-1.021,16.021-1.61,23.221c-0.65,8.069,2.36,16.68-1.6,24.02
						c-4.95,0.15-3.61-5.99-8.801-5.609c0.17,13.64,4.07,26.109,7.801,38.84l-2.33,0.68c-4.641-16.41-13.851-30.84-7.88-49.12
						c3.97,0.43,3.739,7.07,8.01,4.8c7.689-46.02-7.8-88.5-22.42-120.1c-7.65-4.1-12.37-13.89-22.41-20.01
						c-1.66-1.011-3.75-2-6.03-3L496.61,517.98z"/>
					<path d="M451.53,161.44c4.189-2.31,8.37,0.37,12.27,1.18l-0.56,2.62c-1.07-0.46-2.28-0.7-3.71-0.59
						c3.859,18.8,24.779,35.02,19.689,61.1l-1.27-0.25C475.52,197.76,460.28,182.85,451.53,161.44z"/>
					<path d="M425.11,100.47c3.72,3.16,7.319,5.92,10.399,8.13c15.66,11.25,34.62,19.63,40.84,37.63
						c-1.939,1.54-6.439,0.51-9.609,0.8c2.27,8.41,7.93,13.42,8.01,24.02c-5.04,1.69-7.06-3.89-11.51-5.81l0.56-2.62
						c1.561,0.34,3.09,0.36,4.54-0.37c-1.979-7.1-7.46-10.69-8.81-18.42c2.77-1.23,7.3-0.71,11.21-0.8
						c-6.681-15.17-23.7-20-36.03-29.62c-3.46-2.71-5.979-6.79-9.6-9.61c-0.75-0.58-1.53-1.11-2.32-1.62L425.11,100.47z"/>
					<path d="M398.69,311.96c4.29,2.47,6.399,15.35,10.399,12.81c-1.92-14.81,0.34-33.73,4.01-47.23c4.61,0.98,2.4,8.8,7.2,9.6
						c6.75-9.79-0.359-33.45,8.811-40.83c5.34,6.14,6.3,16.65,12.81,21.62c3.561-6.58,0.49-19.79,4-26.42
						c5.26-0.19,4.35,5.79,9.61,5.6c4.069-16.77-2.38-31.74-1.601-46.43c10.4,5.88,13.431,19.12,24.021,24.82l1.27,0.25
						c-0.13,0.71-0.29,1.42-0.47,2.15c-11.52,0.57-10.78-11.11-17.62-15.21c-1.91,13.56,0.47,31.41-3.2,43.23
						c-3.899,0.17-4.189-3.28-8-3.2c-2.6,7.81-2.33,18.48-8.01,23.22c-8.21-0.87-5.91-12.25-11.21-16.02
						c-4.26,8.82-1.75,24.4-7.21,32.03c-2.51,2.11-4.23-1.69-7.2-1.6c-7.479,11.51-3.03,26.76-1.6,41.63
						c-8.7,0.16-9.9-7.19-16.01-9.61c-6.841,25.25,3.71,51.28,15.21,68.86c23.659,36.18,68.54,58.02,68.05,117.69
						c4.42,4.43,9.52,6.85,14.66,9.061l-2.271,1.55c-8.109-3.601-18.55-7.48-20.39-13.82c-1.09-3.75,2.21-7.2,2.399-12
						c0.45-11.64-8.76-27.37-16.02-38.43c-21.14-32.24-58-59.71-68.05-97.68c-0.391-1.47-0.66-3.39-0.8-4.8
						C389.75,335.87,389.9,323.53,398.69,311.96z"/>
					<path d="M249.46,178.04c-6.94-6.7-12.44-16.26-10.9-26.2c1.26-8.19,13.5-14.71,20.82-20.02
						c24.57-17.83,54.93-34.08,80.061-44.83c4.199-7.55,10.18-14.36,15.21-21.62c4.899-7.08,7.08-17.58,16.01-20.82
						c4.21,2.47,3.54,9.81,4.81,15.22c9.61-4.04,12.061-22.08,18.41-32.03c0.8,0,1.601,0,2.4,0c6.17,9.75,1.26,26.87,3.21,37.63
						c2.27,12.58,14.47,25.63,25.62,35.1l-2.32,1.71c-3.45-2.2-7.2-3.89-9.69-6.39c-10.569-10.59-19.8-28.37-19.22-49.64
						c-0.17-0.62-0.67-0.93-1.6-0.8c-5.28,8.07-6.63,20.06-15.21,24.82c-3.36-5.18-5.5-11.57-8.811-16.81
						c-7.39,13.96-17.29,25.41-25.62,38.43c-23.199,8.39-41.52,19.24-63.25,32.83c-7.91,4.94-33.61,19.27-35.23,28.82
						c-0.82,4.89,2.58,17.41,7.6,23.03L249.46,178.04z"/>
					<path d="M292.2,764.32c-1.88,0.5-3.86,1-5.9,1.46l-0.5-2.261c3.92-6.279,5.71-12.93,8-20.02c2.13-6.59,7.07-13.9,7.21-20.81
						c0.09-4.811-3-9.271-2.4-14.421c1.27-10.939,14.11-26.27,23.22-36.02c16.17-17.34,38.229-25.35,39.229-51.24
						c4.08,5.66,8.841,8.34,12.011,13.61c15.3,25.47-8.38,54.96-20.82,69.649c-1.36,16.53-3.2,32.561-5.61,48.04l-2.029,0.171
						c-1.11-11.961,0.06-24.961,0.43-36.2c0.85-25.86,33.46-39.2,27.22-71.25c-0.81-4.19-2.89-6.21-6.399-10.41
						c-5.561,6.38-8.601,13.88-15.21,20.01c-3.75,3.47-9.61,5.12-13.61,8.811c-3.05,2.81-5.65,7.449-8.81,11.21
						c-6.891,8.199-22.181,24.05-24.021,36.029c-0.69,4.53,1.17,9.24,0.8,13.61C303.8,738.73,296.11,750.33,292.2,764.32z"/>
					<path d="M346.64,752.31c10.74,4.131,24.9-0.909,33.63-4c3.811-14.97,9.051-23.829,8.811-38.43c-0.09-5.399-2.33-8.82-1.6-14.42
						c1.35-10.479,12.17-26,18.409-33.62c5.16-6.32,13.58-10.81,14.41-18.41c1.021-9.3-4.729-19.8-5.6-30.43
						c-0.7-8.48-0.11-16.43,0.8-26.42c3.61-1.46,5.81-4.33,12.01-3.2c14.57-7.58,22.63-21.67,34.431-32.03
						c7.199,6.511,8.109,18.17,8,26.42c-0.301,23.94-16.301,52-11.21,77.66c0.8,4,3.869,10.311,5.609,14.41
						c6.09,14.44,17.42,25.21,28.021,34.43c2.68-1.579,0.659-7.869,4.8-8c11.21,6.4,12.17,23.061,28.02,24.811
						c2.34-1.13-1.01-7.95,2.41-8c9.101,3.17,10.92,13.62,19.21,17.61c1.521-8.65,0.36-16.391-1.729-23.73l2.33-0.68
						c3.51,11.96,6.88,24.16,6.88,37.81c0,2.17-0.09,4.37-0.271,6.62c-6.979-5.57-9-16.09-16.01-21.62
						c-17.29,2.771-28.55-13.35-38.43-23.22c-13.851,7.63-21.971-8.04-28.83-17.61c-7.11-9.93-15.221-19.43-16.811-33.63
						c-3.689-33,16.75-65.87,8.011-92.07c-13.261,6.25-18.54,27.351-40.04,28.021c-7.23,18.33,2.93,36.06,2.409,55.25
						c-4.84,8.36-11.609,16.3-17.619,25.62c-5.04,7.8-13.83,18.22-15.21,27.22c-0.73,4.75,1.229,9.17,1.6,13.61
						c1.15,13.63-3.67,24.14-6.41,36.83c-11.17,4.63-25.91,9.75-41.63,7.199c-0.18-1.26-0.32-2.54-0.43-3.829L346.64,752.31z"/>
					<path d="M73.63,249.51c10.95-10.52,21.57-25.72,37.63-28.82c35.04,9.63,71.63-8.02,107.28-5.6
						c9.12,5.16,13.71,18.94,24.82,20.01c18.79,1.82,27.94-23.27,46.44-24.82c-0.31-4.84,3.45-5.62,3.2-10.4
						c-7.27-8.89-22.66,4.52-31.22,0.8c-4.62-2.01-8.96-10.73-4.81-16.82c-2.52-1.53-5.1-3.5-7.51-5.82l2.3-1.57
						c0.64,0.72,1.32,1.33,2.01,1.79c3.74,2.5,9.05,0.07,11.21,4.8c-0.26,5.08-5.41,5.26-4.8,11.21c11.76,2.41,29.2-7.5,37.63,4.8
						c2.14,6.56-3.32,12.07-6.41,16.02c-20.47,1.93-27.89,31.77-53.64,22.41c-6.89-2.5-13.81-15.69-20.82-17.61
						c-8.55-2.35-25.56,3.32-35.23,4.8c-19.5,3-38.83,6.94-57.64,4.81c-3.5-0.4-6.51-2.38-9.61-2.4
						c-14.87-0.14-22.85,11.81-31.22,20.01c-7.28,7.13-16.15,12.66-20.82,19.22c-7.53,10.57-15.6,21.98-21.62,31.22
						c8.42,6.96,25.71,0.61,34.43,0.8c9.03-16.05,22.51-27.66,34.43-40.83c22.35-3.2,42.71,0.89,58.44,11.21
						c7.24,4.74,22.71,15.04,23.22,21.62c0.23,2.98-1.68,5.89-3.66,8.47l-2.64-1.14c6.55-7.05-4.12-17.05-12.91-22.55
						c-10.53-6.58-25.13-13.16-39.23-14.41c-31.25-2.76-39.33,28.03-53.65,43.24c-14.75-0.97-34.27,5.4-43.23-5.61
						c0-0.53,0-1.07,0-1.6c3.37-5.24,8.3-12.39,12.81-19.21C57.28,264.7,64,258.77,73.63,249.51z"/>
					<path d="M118.47,420.05c5.37,12.42,12.38,23.57,24.15,28.521l-1,2.41c-9.16-3.94-15.75-10.381-21.55-18.921
						c-6.68-9.819-13.83-27.619-13.61-40.03c0.19-11.15,7.25-18.52,10.4-29.63c6.08-21.38,2.04-43.55,7.21-64.05
						c7.72-2.4,12.67-8.2,20.01-8c9.79,0.26,23.1,13.12,39.24,8.8c0.66-0.47,1.22-0.97,1.7-1.47l2.64,1.14
						c-0.98,1.27-1.98,2.46-2.74,3.54c-14.27,4.83-28.33-2.72-38.43-7.21c-3,3.56-13.24,2.27-17.62,7.21
						c-5.34,6.02-1.57,19.66-2.4,30.42c-1.13,14.66-4.18,29.84-8,41.63c-2.19,6.74-7.64,13.13-8.01,19.22
						C109.98,401.56,114.92,411.85,118.47,420.05z"/>
					<path d="M142.62,448.57c3.92,1.649,8.38,2.609,13.47,2.699c4.92-8.159,8.4-17.75,8.81-30.42
						c-9.09-8.42-26.25-13.409-24.02-28.82c1.08-7.45,12.91-16.66,16.02-28.03c2.8-10.27-0.6-15.72,0-24.82
						c6.87-1.61,8.73,4.14,13.61,7.21c11.32,7.13,26.71,5.51,38.43,12.81c13.96,38.76,38.57,69.67,69.65,94.47
						c8.1,6.47,26.41,17.93,28.02,27.23c0.5,2.88-1.32,6.699-1.6,9.6c-3.8,39.37,3.03,70.33,12.811,96.08
						c4.52,11.89,10.35,23.31,4.81,38.43c-15.149,20.521-28.41,41.681-42.44,63.25c-14.22,21.87-24.55,45.891-30.42,76.061
						c11.13,4.58,23.53-1.601,36.03-0.801l0.5,2.261c-8.25,1.89-17.64,3.35-26.63,3.35c-5.12,0-10.12-0.479-14.71-1.61
						c5.98-26.579,9.76-55.359,26.43-71.25c13.5-27.6,30.91-51.279,47.23-76.06c-1.41-4.38,2-9.34,1.6-13.61
						c-0.37-4-4.029-7.04-5.6-11.21c-1.83-4.87-2.11-10.55-4-16.02c-7.29-20.98-13.19-45.89-11.21-77.66
						c0.32-5.21,3.19-12.09,2.4-17.61c-1.04-7.25-15.33-17.779-23.22-24.819c-10.43-9.311-19.33-14.53-26.42-21.62
						c-16.76-16.76-28.54-38.08-39.23-56.84c-2.05-3.6-5.23-6.5-6.41-8.81c-2.09-4.13-1.59-9.06-4.8-11.21
						c-4.12-2.76-13.48-3.03-19.22-4.8c-6.78-2.11-12.49-3.31-17.61-5.61c-4.42,6.91-1.59,12.62-4.8,20.82
						c-3.83,9.78-13.67,15.09-13.61,24.02c0.06,9.44,10.65,17.17,21.61,20.01c1.97,15.1-2.31,29.29-7.2,40.04
						c-7.57-0.511-13.87-1.971-19.28-4.3L142.62,448.57z"/>
					<path d="M75.23,298.35c-8.72-0.19-26.01,6.16-34.43-0.8c6.02-9.24,14.09-20.65,21.62-31.22c4.67-6.56,13.54-12.09,20.82-19.22
						c8.37-8.2,16.35-20.15,31.22-20.01c3.1,0.02,6.11,2,9.61,2.4c18.81,2.13,38.14-1.81,57.64-4.81c9.67-1.48,26.68-7.15,35.23-4.8
						c7.01,1.92,13.93,15.11,20.82,17.61c25.75,9.36,33.17-20.48,53.64-22.41c3.09-3.95,8.55-9.46,6.41-16.02
						c-8.43-12.3-25.87-2.39-37.63-4.8c-0.61-5.95,4.54-6.13,4.8-11.21c-2.16-4.73-7.47-2.3-11.21-4.8
						c-0.69-0.46-1.37-1.07-2.01-1.79c-5.02-5.62-8.42-18.14-7.6-23.03c1.62-9.55,27.32-23.88,35.23-28.82
						c21.73-13.59,40.05-24.44,63.25-32.83c8.33-13.02,18.23-24.47,25.62-38.43c3.311,5.24,5.45,11.63,8.811,16.81
						c8.58-4.76,9.93-16.75,15.21-24.82c0.93-0.13,1.43,0.18,1.6,0.8c-0.58,21.27,8.65,39.05,19.22,49.64
						c2.49,2.5,6.24,4.19,9.69,6.39c0.79,0.51,1.57,1.04,2.32,1.62c3.62,2.82,6.14,6.9,9.6,9.61c12.33,9.62,29.35,14.45,36.03,29.62
						c-3.91,0.09-8.44-0.43-11.21,0.8c1.35,7.73,6.83,11.32,8.81,18.42c-1.45,0.73-2.979,0.71-4.54,0.37
						c-3.899-0.81-8.08-3.49-12.27-1.18c8.75,21.41,23.989,36.32,26.42,64.06c-10.59-5.7-13.62-18.94-24.021-24.82
						c-0.779,14.69,5.67,29.66,1.601,46.43c-5.261,0.19-4.351-5.79-9.61-5.6c-3.51,6.63-0.439,19.84-4,26.42
						c-6.51-4.97-7.47-15.48-12.81-21.62c-9.17,7.38-2.061,31.04-8.811,40.83c-4.8-0.8-2.59-8.62-7.2-9.6
						c-3.67,13.5-5.93,32.42-4.01,47.23c-4,2.54-6.109-10.34-10.399-12.81c-8.79,11.57-8.94,23.91-7.21,40.84
						c0.14,1.41,0.409,3.33,0.8,4.8c10.05,37.97,46.91,65.44,68.05,97.68c7.26,11.06,16.47,26.79,16.02,38.43
						c-0.189,4.8-3.489,8.25-2.399,12c1.84,6.34,12.28,10.22,20.39,13.82c2.28,1,4.37,1.989,6.03,3
						c10.04,6.12,14.76,15.91,22.41,20.01c14.62,31.6,30.109,74.08,22.42,120.1c-4.271,2.271-4.04-4.37-8.01-4.8
						c-5.971,18.28,3.239,32.71,7.88,49.12c2.09,7.34,3.25,15.08,1.729,23.73c-8.29-3.99-10.109-14.44-19.21-17.61
						c-3.42,0.05-0.07,6.87-2.41,8c-15.85-1.75-16.81-18.41-28.02-24.811c-4.141,0.131-2.12,6.421-4.8,8
						c-10.601-9.22-21.931-19.989-28.021-34.43c-1.74-4.1-4.81-10.41-5.609-14.41c-5.091-25.66,10.909-53.72,11.21-77.66
						c0.109-8.25-0.801-19.909-8-26.42c-11.801,10.36-19.86,24.45-34.431,32.03c-6.2-1.13-8.399,1.74-12.01,3.2
						c-0.91,9.99-1.5,17.939-0.8,26.42c0.87,10.63,6.62,21.13,5.6,30.43c-0.83,7.601-9.25,12.09-14.41,18.41
						c-6.239,7.62-17.06,23.141-18.409,33.62c-0.73,5.6,1.51,9.021,1.6,14.42c0.24,14.601-5,23.46-8.811,38.43
						c-8.729,3.091-22.89,8.131-33.63,4c2.41-15.479,4.25-31.51,5.61-48.04c12.44-14.689,36.12-44.18,20.82-69.649
						c-3.17-5.271-7.931-7.95-12.011-13.61c-1,25.891-23.06,33.9-39.229,51.24c-9.11,9.75-21.95,25.08-23.22,36.02
						c-0.6,5.15,2.49,9.61,2.4,14.421c-0.14,6.909-5.08,14.22-7.21,20.81c-2.29,7.09-4.08,13.74-8,20.02
						c-12.5-0.8-24.9,5.381-36.03,0.801c5.87-30.17,16.2-54.19,30.42-76.061c14.03-21.569,27.291-42.729,42.44-63.25
						c5.54-15.12-0.29-26.54-4.81-38.43c-9.78-25.75-16.61-56.71-12.811-96.08c0.28-2.9,2.101-6.72,1.6-9.6
						c-1.61-9.301-19.92-20.761-28.02-27.23c-31.08-24.8-55.69-55.71-69.65-94.47c-11.72-7.3-27.11-5.68-38.43-12.81
						c-4.88-3.07-6.74-8.82-13.61-7.21c-0.6,9.1,2.8,14.55,0,24.82c-3.11,11.37-14.94,20.58-16.02,28.03
						c-2.23,15.411,14.93,20.4,24.02,28.82c-0.41,12.67-3.89,22.261-8.81,30.42c-5.09-0.09-9.55-1.05-13.47-2.699
						c-11.77-4.95-18.78-16.101-24.15-28.521c-3.55-8.2-8.49-18.49-8.01-26.42c0.37-6.09,5.82-12.48,8.01-19.22
						c3.82-11.79,6.87-26.97,8-41.63c0.83-10.76-2.94-24.4,2.4-30.42c4.38-4.94,14.62-3.65,17.62-7.21
						c10.1,4.49,24.16,12.04,38.43,7.21c0.76-1.08,1.76-2.27,2.74-3.54c1.98-2.58,3.89-5.49,3.66-8.47
						c-0.51-6.58-15.98-16.88-23.22-21.62c-15.73-10.32-36.09-14.41-58.44-11.21C97.74,270.69,84.26,282.3,75.23,298.35z"/>
				</g>
			</g>
		</g>
	</g>
</g>
<g id="Layer_2_x23_ffffff">
	<g>
		<g>
			<g>
				<g>
					<path fill="#FFFFFF" d="M545.07,706.96c2.09,7.34,3.25,15.08,1.729,23.73c-8.29-3.99-10.109-14.44-19.21-17.61
						c-3.42,0.05-0.07,6.87-2.41,8c-15.85-1.75-16.81-18.41-28.02-24.811c-4.141,0.131-2.12,6.421-4.8,8
						c-10.601-9.22-21.931-19.989-28.021-34.43c-1.74-4.1-4.81-10.41-5.609-14.41c-5.091-25.66,10.909-53.72,11.21-77.66
						c0.109-8.25-0.801-19.909-8-26.42c-11.801,10.36-19.86,24.45-34.431,32.03c-6.2-1.13-8.399,1.74-12.01,3.2
						c-0.91,9.99-1.5,17.939-0.8,26.42c0.87,10.63,6.62,21.13,5.6,30.43c-0.83,7.601-9.25,12.09-14.41,18.41
						c-6.239,7.62-17.06,23.141-18.409,33.62c-0.73,5.6,1.51,9.021,1.6,14.42c0.24,14.601-5,23.46-8.811,38.43
						c-8.729,3.091-22.89,8.131-33.63,4c2.41-15.479,4.25-31.51,5.61-48.04c12.44-14.689,36.12-44.18,20.82-69.649
						c-3.17-5.271-7.931-7.95-12.011-13.61c-1,25.891-23.06,33.9-39.229,51.24c-9.11,9.75-21.95,25.08-23.22,36.02
						c-0.6,5.15,2.49,9.61,2.4,14.421c-0.14,6.909-5.08,14.22-7.21,20.81c-2.29,7.09-4.08,13.74-8,20.02
						c-12.5-0.8-24.9,5.381-36.03,0.801c5.87-30.17,16.2-54.19,30.42-76.061c14.03-21.569,27.291-42.729,42.44-63.25
						c5.54-15.12-0.29-26.54-4.81-38.43c-9.78-25.75-16.61-56.71-12.811-96.08c0.28-2.9,2.101-6.72,1.6-9.6
						c-1.61-9.301-19.92-20.761-28.02-27.23c-31.08-24.8-55.69-55.71-69.65-94.47c-11.72-7.3-27.11-5.68-38.43-12.81
						c-4.88-3.07-6.74-8.82-13.61-7.21c-0.6,9.1,2.8,14.55,0,24.82c-3.11,11.37-14.94,20.58-16.02,28.03
						c-2.23,15.411,14.93,20.4,24.02,28.82c-0.41,12.67-3.89,22.261-8.81,30.42c-5.09-0.09-9.55-1.05-13.47-2.699
						c-11.77-4.95-18.78-16.101-24.15-28.521c-3.55-8.2-8.49-18.49-8.01-26.42c0.37-6.09,5.82-12.48,8.01-19.22
						c3.82-11.79,6.87-26.97,8-41.63c0.83-10.76-2.94-24.4,2.4-30.42c4.38-4.94,14.62-3.65,17.62-7.21
						c10.1,4.49,24.16,12.04,38.43,7.21c0.76-1.08,1.76-2.27,2.74-3.54c1.98-2.58,3.89-5.49,3.66-8.47
						c-0.51-6.58-15.98-16.88-23.22-21.62c-15.73-10.32-36.09-14.41-58.44-11.21c-11.92,13.17-25.4,24.78-34.43,40.83
						c-8.72-0.19-26.01,6.16-34.43-0.8c6.02-9.24,14.09-20.65,21.62-31.22c4.67-6.56,13.54-12.09,20.82-19.22
						c8.37-8.2,16.35-20.15,31.22-20.01c3.1,0.02,6.11,2,9.61,2.4c18.81,2.13,38.14-1.81,57.64-4.81c9.67-1.48,26.68-7.15,35.23-4.8
						c7.01,1.92,13.93,15.11,20.82,17.61c25.75,9.36,33.17-20.48,53.64-22.41c3.09-3.95,8.55-9.46,6.41-16.02
						c-8.43-12.3-25.87-2.39-37.63-4.8c-0.61-5.95,4.54-6.13,4.8-11.21c-2.16-4.73-7.47-2.3-11.21-4.8
						c-0.69-0.46-1.37-1.07-2.01-1.79c-5.02-5.62-8.42-18.14-7.6-23.03c1.62-9.55,27.32-23.88,35.23-28.82
						c21.73-13.59,40.05-24.44,63.25-32.83c8.33-13.02,18.23-24.47,25.62-38.43c3.311,5.24,5.45,11.63,8.811,16.81
						c8.58-4.76,9.93-16.75,15.21-24.82c0.93-0.13,1.43,0.18,1.6,0.8c-0.58,21.27,8.65,39.05,19.22,49.64
						c2.49,2.5,6.24,4.19,9.69,6.39c0.79,0.51,1.57,1.04,2.32,1.62c3.62,2.82,6.14,6.9,9.6,9.61c12.33,9.62,29.35,14.45,36.03,29.62
						c-3.91,0.09-8.44-0.43-11.21,0.8c1.35,7.73,6.83,11.32,8.81,18.42c-1.45,0.73-2.979,0.71-4.54,0.37
						c-3.899-0.81-8.08-3.49-12.27-1.18c8.75,21.41,23.989,36.32,26.42,64.06c-10.59-5.7-13.62-18.94-24.021-24.82
						c-0.779,14.69,5.67,29.66,1.601,46.43c-5.261,0.19-4.351-5.79-9.61-5.6c-3.51,6.63-0.439,19.84-4,26.42
						c-6.51-4.97-7.47-15.48-12.81-21.62c-9.17,7.38-2.061,31.04-8.811,40.83c-4.8-0.8-2.59-8.62-7.2-9.6
						c-3.67,13.5-5.93,32.42-4.01,47.23c-4,2.54-6.109-10.34-10.399-12.81c-8.79,11.57-8.94,23.91-7.21,40.84
						c0.14,1.41,0.409,3.33,0.8,4.8c10.05,37.97,46.91,65.44,68.05,97.68c7.26,11.06,16.47,26.79,16.02,38.43
						c-0.189,4.8-3.489,8.25-2.399,12c1.84,6.34,12.28,10.22,20.39,13.82c2.28,1,4.36,1.989,6.03,3
						c10.04,6.12,14.76,15.91,22.41,20.01c14.62,31.6,30.109,74.08,22.42,120.1c-4.271,2.271-4.04-4.37-8.01-4.8
						C531.22,676.12,540.43,690.55,545.07,706.96z"/>
				</g>
			</g>
		</g>
	</g>
</g>
</svg>
