<?xml version="1.0" encoding="utf-8"?>
<!-- Generator: Adobe Illustrator 14.0.0, SVG Export Plug-In . SVG Version: 6.00 Build 43363)  -->
<!DOCTYPE svg PUBLIC "-//W3C//DTD SVG 1.0//EN" "http://www.w3.org/TR/2001/REC-SVG-20010904/DTD/svg10.dtd">
<svg version="1.0" xmlns="http://www.w3.org/2000/svg" xmlns:xlink="http://www.w3.org/1999/xlink" x="0px" y="0px" width="612px"
	 height="360px" viewBox="0 0 612 360" enable-background="new 0 0 612 360" xml:space="preserve">
<g id="Layer_1_x23_000000">
	<g>
		<g>
			<g>
				<g>
					<path d="M294.91,228.67c5.88,4.5-0.09,18.18,2.4,25.17c-6.29,2.28-15.64,6.61-22.78,4.2c5.07-11.12,14.06-18.31,19.18-29.37
						C294.11,228.67,294.51,228.67,294.91,228.67z M284.72,252.64c3.26,0.07,5.48-0.909,7.79-1.8c-0.18-2.81,0.04-6.02-1.8-7.189
						C288.69,246.62,285.82,248.75,284.72,252.64z"/>
					<path d="M9.6,121.38c-2.43,15.57,10.47,17.17,23.97,19.18c6.34-4.46,2.73-15.06,9.59-18.59c7.26-3.72,19.21-0.51,28.77-2.99
						c4.62-1.2,7.13-4.77,11.99-3.6c4.17,26.02,14.57,42.67,27.57,59.94c2.9,3.85,11.93,13.65,11.99,17.38
						c0.08,4.7-9.52,13.67-14.38,17.39c-5.47,4.18-13,6.86-14.99,12.58c-1.39,4.01,0.01,7.88,0,13.19
						c-0.01,6.319-1.47,12.909-1.2,16.18c0.72,8.54,5.9,16.83,10.79,24.58c7.15,11.32,10.4,17.38,17.98,23.38
						c4.73,3.73,9.87,9.36,17.39,5.99c2.92-6.24-3.94-9.98-5.4-14.99c-2.57-8.78-6.13-9.41-11.39-14.98
						c-7.01-7.43-16.39-20.289-15.58-30.569c1.07-13.62,16.86-10.9,28.77-13.19c2.57,1.431,4.24,3.75,6.59,5.4
						c0.91,9.05-9.72,13.06-10.79,20.38c-1.43,9.81,7.21,16.63,10.79,24.57c14.04,5.92,40.78,4.239,55.15,0
						c5.42-1.591,14.77-5.91,14.98-9.591c0.33-5.72-15.31-11.67-19.78-10.789c-3.3,0.659-5.29,5.63-9.59,7.8
						c-4.16,2.09-12.98,4.149-17.98,2.989c-14.52-3.369-4.74-19.14,0.6-26.369c5.91-8.011,11.32-11.881,14.39-19.78
						c20.61,0.13,34.98-4.78,50.34-8.99c10.99-3.01,20.65-8.75,31.17-10.189c-2.69,8.149-1.04,13.859-1.2,20.979
						c-0.11,5.08-2.46,11.3-3.59,16.78c-3.46,16.79-10.34,20.85-19.18,31.77c-14.22,17.55-36.53,26.82-43.16,50.351
						c3.28,4.859,5.67,12.489,11.39,12.58c5.75,0.1,8.3-7.511,13.79-9.58c3.95-22.431,24.57-28.181,40.15-38.971
						c3.84,6.15,5.23,14.75,10.79,19.19c4.27-2.33,8.79-4.41,12.59-7.2c-1.55-10.97,4.5-16.75,3.6-25.17
						c9.83-9.36,24.19-14.17,40.16-17.39c5.181-8.41-0.989-16.11-1.199-25.771c-0.131-5.92,2.06-10.3,0.6-16.18
						c16.02-12.05,39.42-26.76,50.35-46.76c3.311-6.07,9.13-17.33,8.391-24.57c-0.351-3.37-2.95-3.8-3-7.19
						c11.52-12.26,35.89,7.01,47.35,8.99c6.76,1.16,15.07-0.45,21.58,0c13.3,0.9,26.45,4.84,38.96,4.19
						c6.87-0.35,13.66-1.75,19.78-3.59c5.56-1.67,11.7-6.43,16.189-7.2c12.83-2.18,26.84,3.95,37.761-1.2
						c2-9.58,15.81-7.36,22.18-12.58c-4.75,0.02-6.67-4.11-9.59-5.4c-9.09-3.99-25.33-4.77-39.561-5.39
						c-23.779-1.05-45.979,0.37-67.739-1.8c-10-1-19.511-5.49-29.971-5.99c-3.63-0.18-7.22-0.48-10.81-0.81l0.27-2.89
						c1.13,0.09,2.25,0.13,3.351,0.1c2.34-0.07,4.76-1.2,7.189-1.2c8.44-0.01,17.48,5,27.58,5.99c10.42,1.03,21.58,0.09,32.96,0.6
						c23.811,1.09,50.08-0.95,68.931,4.2c4.38,1.2,9.1,4.53,13.789,4.2c3.65,5.34,13.98,4,20.98,5.99c0,0.8,0,1.6,0,2.4
						c-10.07,4.11-22.07,6.3-32.37,10.19c-1.6,0.99-1.06,4.13-2.399,5.39c-8.54,3.57-21.221,4.44-33.561,3.6
						c-2.66-0.18-5.56-1.51-7.79-1.2c-5.36,0.74-10.21,5.67-14.99,7.19c-5.72,1.83-12.37,3.13-19.18,3.6
						c-19.3,1.31-34.26-4.7-52.15-3.6c-22.449,1.39-31.939-13.69-52.739-11.99c3.279,20.02-9.61,38.38-20.98,49.75
						c-11.46,11.46-24.46,21.58-36.57,28.78c0.36,8.771-0.51,16.64,1.2,23.97c0.59,2.53,2.88,4.801,3,7.19
						c0.23,4.62-4.01,7.63-3,11.99c-14.81,2.569-27.229,7.529-38.36,13.79c-2.1,9.09-6.51,15.859-5.39,28.17
						c-6.61,1.84-11.46,10.859-17.99,10.189c-6.98-0.72-7.45-12.609-11.98-17.979c-11.38,8.27-34.01,15.439-32.37,33.56
						c-7.93,2.37-11.09,13.2-19.95,13.2c-0.14,0-0.28,0-0.43-0.01c-4.94-0.19-15.67-10.54-16.18-16.181
						c-0.27-2.899,2.16-9.85,4.19-13.789c4.09-7.9,14.95-17.171,23.98-24.57c9.48-7.78,16.64-17.71,23.97-25.18
						c2.91-2.961,7.86-5.7,8.99-9.591c3.95-13.5,5.87-26.87,6-41.359c-15.83,3.08-34.56,13.95-54.55,16.18
						c-5.03,0.57-10.3-1.28-14.98,0c-5.27,1.45-12.05,12.51-14.99,16.19c-4.6,5.76-11.12,12.399-8.39,20.38
						c13.16,2.16,23.23-3.95,28.17-11.99c4.87,4.64,16.62,4.87,21.58,10.19c10.42,11.17-0.89,17.63-12.59,21.579
						c-11.78,3.971-27.25,5.311-41.95,4.19c-10.39-0.79-17.97-4.44-23.13-10.19c-3.63-4.04-6.07-9.13-7.44-14.979
						c-3.14-13.38,4.58-16.51,8.99-25.18c-0.53-1.261-1.83-1.771-1.8-3.591c-5.9,2.16-18.22-0.84-22.18,4.79
						c-4.64,6.62,5.3,22.181,10.79,28.771c3.36,4.04,7.92,6.84,11.31,10.49c1.54,1.659,2.84,3.489,3.68,5.699
						c0.73,1.94,0.5,4.23,1.2,5.99c2.29,5.82,7.82,11.34,1.19,17.99c-3.51-0.6-10.52-0.22-14.98-1.8
						c-13.74-4.88-34.14-36.86-37.16-53.351c-1.94-10.569-0.68-19.96,0-28.77c1.35-17.49,22.83-20.08,29.37-34.17
						c-15.32-21.25-32.22-40.91-38.36-71.32c-3.98-0.3-5.91,2.36-10.79,2.99c-7.56,0.98-18.01-1.58-23.38,1.8
						c-6.15,3.88-2.27,14.31-8.39,18.58C22.12,143.42,7.49,141.67,6,126.77c0-0.4,0-0.8,0-1.2c0.84-3.66,1.96-7.33,3.28-10.97
						l1.91,0.76C10.45,117.41,9.9,119.43,9.6,121.38z"/>
					<path d="M44.92,60.23c2.21-1.6,4.41-3.04,6.03-5.39c4.99-7.19,5.53-15.61,10.79-22.78c3.32,1.29,1.83,7.37,4.8,9
						c5.65-5.54,5.55-16.84,10.19-23.38c7.04,3.15,5.6,14.78,9.59,20.98c13.12-2.67,22.98-8.59,38.96-8.39
						c0.43,3.43-3.43,2.56-3,5.99c13.12-2.16,29.63-0.98,43.16,0c-0.97,4.29-9.41,7.28-8.39,9.59c14.41,1.97,30.34,2.43,40.76,8.39
						c-0.76,4.04-6.7,2.9-7.79,6.6c8.16,3.02,18.55,3.82,22.77,10.78c-5.69-0.06-12.29,0.35-16.18,3.6
						c7.64,7.35,22.09,7.88,28.77,16.19c-0.61,4.18-5.91,3.68-5.99,8.39c3.35,5.63,14.28,3.7,19.18,7.79
						c0.7,3.28-8.09,2.86-4.8,4.79c41.52,0.78,83.61-11.06,126.47-6.59c15.18,1.58,32.64-2.74,49.149-1.8
						c6.271,0.36,12.75,2.4,18.83,2.9l-0.27,2.89c-7.19-0.67-14.34-1.46-21.55-1.59c-14.42-0.26-29.021,3.59-43.761,3.59
						c-13.51,0-28.02-1.85-42.56-1.19c-27.85,1.26-54.19,8.45-79.72,7.79c-6.91-0.18-14.33-2.84-18.58-1.8
						c-0.6-4.72,5.98-5.05,5.4-7.79c-4.15-0.83-13.16-4.1-13.79-7.79c-0.46-2.72,5.24-5.87,4.8-8.4c-0.44-2.46-12.2-7.83-16.79-9.59
						c-4.48-1.71-11.8-2.31-11.38-7.19c0.38-4.56,8.38-3.97,8.39-7.19c-5.78-2.06-14.04-4.04-21.58-4.8
						c-3.13-0.31-7.7,1.42-8.99-2.39c4.29-5.36,16.77,0.9,19.78-6c-12.77-3.42-29.62-2.75-42.56-5.99
						c0.81-4.46,10.04-6.66,8.39-9.59c-14-2.02-27.29,2.31-39.56,1.8c-1.28-2.83,4.11-4.2,0.6-5.4
						c-11.74,1.85-20.88,6.29-32.37,8.39c-3.05-3.94-1.07-12.91-4.79-16.18c-4.43,6.76-4.74,17.64-13.79,19.78
						c-1.29-1.5-1.01-4.59-2.99-5.4c-4.47,6.13-4.85,16.34-13.19,18.59L44.92,60.23z"/>
					<path d="M60.55,42.85c1.98,0.81,1.7,3.9,2.99,5.4c9.05-2.14,9.36-13.02,13.79-19.78c3.72,3.27,1.74,12.24,4.79,16.18
						c11.49-2.1,20.63-6.54,32.37-8.39c3.51,1.2-1.88,2.57-0.6,5.4c12.27,0.51,25.56-3.82,39.56-1.8c1.65,2.93-7.58,5.13-8.39,9.59
						c12.94,3.24,29.79,2.57,42.56,5.99c-3.01,6.9-15.49,0.64-19.78,6c1.29,3.81,5.86,2.08,8.99,2.39c7.54,0.76,15.8,2.74,21.58,4.8
						c-0.01,3.22-8.01,2.63-8.39,7.19c-0.42,4.88,6.9,5.48,11.38,7.19c4.59,1.76,16.35,7.13,16.79,9.59c0.44,2.53-5.26,5.68-4.8,8.4
						c0.63,3.69,9.64,6.96,13.79,7.79c0.58,2.74-6,3.07-5.4,7.79c4.25-1.04,11.67,1.62,18.58,1.8c25.53,0.66,51.87-6.53,79.72-7.79
						c14.54-0.66,29.05,1.19,42.56,1.19c14.74,0,29.341-3.85,43.761-3.59c7.21,0.13,14.359,0.92,21.55,1.59
						c3.59,0.33,7.18,0.63,10.81,0.81c10.46,0.5,19.971,4.99,29.971,5.99c21.76,2.17,43.96,0.75,67.739,1.8
						c14.23,0.62,30.471,1.4,39.561,5.39c2.92,1.29,4.84,5.42,9.59,5.4c-6.37,5.22-20.18,3-22.18,12.58
						c-10.921,5.15-24.931-0.98-37.761,1.2c-4.489,0.77-10.63,5.53-16.189,7.2c-6.12,1.84-12.91,3.24-19.78,3.59
						c-12.51,0.65-25.66-3.29-38.96-4.19c-6.51-0.45-14.82,1.16-21.58,0c-11.46-1.98-35.83-21.25-47.35-8.99
						c0.05,3.39,2.649,3.82,3,7.19c0.739,7.24-5.08,18.5-8.391,24.57c-10.93,20-34.33,34.71-50.35,46.76
						c1.46,5.88-0.73,10.26-0.6,16.18c0.21,9.66,6.38,17.36,1.199,25.771c-15.97,3.22-30.33,8.029-40.16,17.39
						c0.9,8.42-5.15,14.2-3.6,25.17c-3.8,2.79-8.32,4.87-12.59,7.2c-5.56-4.44-6.95-13.04-10.79-19.19
						c-15.58,10.79-36.2,16.54-40.15,38.971c-5.49,2.069-8.04,9.68-13.79,9.58c-5.72-0.091-8.11-7.721-11.39-12.58
						c6.63-23.53,28.94-32.801,43.16-50.351c8.84-10.92,15.72-14.979,19.18-31.77c1.13-5.48,3.48-11.7,3.59-16.78
						c0.16-7.12-1.49-12.83,1.2-20.979c-10.52,1.439-20.18,7.18-31.17,10.189c-15.36,4.21-29.73,9.12-50.34,8.99
						c-3.07,7.899-8.48,11.77-14.39,19.78c-5.34,7.229-15.12,23-0.6,26.369c5,1.16,13.82-0.899,17.98-2.989
						c4.3-2.17,6.29-7.141,9.59-7.8c4.47-0.881,20.11,5.069,19.78,10.789c-0.21,3.681-9.56,8-14.98,9.591
						c-14.37,4.239-41.11,5.92-55.15,0c-3.58-7.94-12.22-14.761-10.79-24.57c1.07-7.32,11.7-11.33,10.79-20.38
						c-2.35-1.65-4.02-3.97-6.59-5.4c-11.91,2.29-27.7-0.43-28.77,13.19c-0.81,10.28,8.57,23.14,15.58,30.569
						c5.26,5.57,8.82,6.2,11.39,14.98c1.46,5.01,8.32,8.75,5.4,14.99c-7.52,3.37-12.66-2.26-17.39-5.99
						c-7.58-6-10.83-12.06-17.98-23.38c-4.89-7.75-10.07-16.04-10.79-24.58c-0.27-3.271,1.19-9.86,1.2-16.18
						c0.01-5.311-1.39-9.181,0-13.19c1.99-5.72,9.52-8.4,14.99-12.58c4.86-3.72,14.46-12.689,14.38-17.39
						c-0.06-3.73-9.09-13.53-11.99-17.38c-13-17.27-23.4-33.92-27.57-59.94c-4.86-1.17-7.37,2.4-11.99,3.6
						c-9.56,2.48-21.51-0.73-28.77,2.99c-6.86,3.53-3.25,14.13-9.59,18.59c-13.5-2.01-26.4-3.61-23.97-19.18
						c0.3-1.95,0.85-3.97,1.59-6.02c3.17-8.87,9.84-18.39,15.19-26.35c7.17-10.66,15.52-20.05,20.98-27.57
						C55.7,59.19,56.08,48.98,60.55,42.85z M297.31,253.84c-2.49-6.99,3.48-20.67-2.4-25.17c-0.4,0-0.8,0-1.2,0
						c-5.12,11.061-14.11,18.25-19.18,29.37C281.67,260.45,291.02,256.12,297.31,253.84z"/>
					<path d="M26.38,89.01c-5.35,7.96-12.02,17.48-15.19,26.35l-1.91-0.76c3.38-9.3,8.09-18.36,12.9-26.19
						c5.73-9.33,13.2-19.53,19.78-25.78c0.95-0.91,1.95-1.67,2.96-2.4l2.44,1.21C41.9,68.96,33.55,78.35,26.38,89.01z"/>
				</g>
			</g>
		</g>
	</g>
</g>
<g id="Layer_2_x23_ffffff">
	<g>
		<g>
			<g>
				<g>
					<path fill="#FFFFFF" d="M576.03,123.77c2.92,1.29,4.84,5.42,9.59,5.4c-6.37,5.22-20.18,3-22.18,12.58
						c-10.921,5.15-24.931-0.98-37.761,1.2c-4.489,0.77-10.63,5.53-16.189,7.2c-6.12,1.84-12.91,3.24-19.78,3.59
						c-12.51,0.65-25.66-3.29-38.96-4.19c-6.51-0.45-14.82,1.16-21.58,0c-11.46-1.98-35.83-21.25-47.35-8.99
						c0.05,3.39,2.649,3.82,3,7.19c0.739,7.24-5.08,18.5-8.391,24.57c-10.93,20-34.33,34.71-50.35,46.76
						c1.46,5.88-0.73,10.26-0.6,16.18c0.21,9.66,6.38,17.36,1.199,25.771c-15.97,3.22-30.33,8.029-40.16,17.39
						c0.9,8.42-5.15,14.2-3.6,25.17c-3.8,2.79-8.32,4.87-12.59,7.2c-5.56-4.44-6.95-13.04-10.79-19.19
						c-15.58,10.79-36.2,16.54-40.15,38.971c-5.49,2.069-8.04,9.68-13.79,9.58c-5.72-0.091-8.11-7.721-11.39-12.58
						c6.63-23.53,28.94-32.801,43.16-50.351c8.84-10.92,15.72-14.979,19.18-31.77c1.13-5.48,3.48-11.7,3.59-16.78
						c0.16-7.12-1.49-12.83,1.2-20.979c-10.52,1.439-20.18,7.18-31.17,10.189c-15.36,4.21-29.73,9.12-50.34,8.99
						c-3.07,7.899-8.48,11.77-14.39,19.78c-5.34,7.229-15.12,23-0.6,26.369c5,1.16,13.82-0.899,17.98-2.989
						c4.3-2.17,6.29-7.141,9.59-7.8c4.47-0.881,20.11,5.069,19.78,10.789c-0.21,3.681-9.56,8-14.98,9.591
						c-14.37,4.239-41.11,5.92-55.15,0c-3.58-7.94-12.22-14.761-10.79-24.57c1.07-7.32,11.7-11.33,10.79-20.38
						c-2.35-1.65-4.02-3.97-6.59-5.4c-11.91,2.29-27.7-0.43-28.77,13.19c-0.81,10.28,8.57,23.14,15.58,30.569
						c5.26,5.57,8.82,6.2,11.39,14.98c1.46,5.01,8.32,8.75,5.4,14.99c-7.52,3.37-12.66-2.26-17.39-5.99
						c-7.58-6-10.83-12.06-17.98-23.38c-4.89-7.75-10.07-16.04-10.79-24.58c-0.27-3.271,1.19-9.86,1.2-16.18
						c0.01-5.311-1.39-9.181,0-13.19c1.99-5.72,9.52-8.4,14.99-12.58c4.86-3.72,14.46-12.689,14.38-17.39
						c-0.06-3.73-9.09-13.53-11.99-17.38c-13-17.27-23.4-33.92-27.57-59.94c-4.86-1.17-7.37,2.4-11.99,3.6
						c-9.56,2.48-21.51-0.73-28.77,2.99c-6.86,3.53-3.25,14.13-9.59,18.59c-13.5-2.01-26.4-3.61-23.97-19.18
						c0.3-1.95,0.85-3.97,1.59-6.02c3.17-8.87,9.84-18.39,15.19-26.35c7.17-10.66,15.52-20.05,20.98-27.57
						c8.34-2.25,8.72-12.46,13.19-18.59c1.98,0.81,1.7,3.9,2.99,5.4c9.05-2.14,9.36-13.02,13.79-19.78
						c3.72,3.27,1.74,12.24,4.79,16.18c11.49-2.1,20.63-6.54,32.37-8.39c3.51,1.2-1.88,2.57-0.6,5.4
						c12.27,0.51,25.56-3.82,39.56-1.8c1.65,2.93-7.58,5.13-8.39,9.59c12.94,3.24,29.79,2.57,42.56,5.99
						c-3.01,6.9-15.49,0.64-19.78,6c1.29,3.81,5.86,2.08,8.99,2.39c7.54,0.76,15.8,2.74,21.58,4.8c-0.01,3.22-8.01,2.63-8.39,7.19
						c-0.42,4.88,6.9,5.48,11.38,7.19c4.59,1.76,16.35,7.13,16.79,9.59c0.44,2.53-5.26,5.68-4.8,8.4c0.63,3.69,9.64,6.96,13.79,7.79
						c0.58,2.74-6,3.07-5.4,7.79c4.25-1.04,11.67,1.62,18.58,1.8c25.53,0.66,51.87-6.53,79.72-7.79
						c14.54-0.66,29.05,1.19,42.56,1.19c14.74,0,29.341-3.85,43.761-3.59c7.21,0.13,14.359,0.92,21.55,1.59
						c3.59,0.33,7.18,0.63,10.81,0.81c10.46,0.5,19.971,4.99,29.971,5.99c21.76,2.17,43.96,0.75,67.739,1.8
						C550.7,119,566.94,119.78,576.03,123.77z M297.31,253.84c-2.49-6.99,3.48-20.67-2.4-25.17c-0.4,0-0.8,0-1.2,0
						c-5.12,11.061-14.11,18.25-19.18,29.37C281.67,260.45,291.02,256.12,297.31,253.84z"/>
				</g>
			</g>
		</g>
	</g>
</g>
</svg>
