<?xml version="1.0" encoding="utf-8"?>
<!-- Generator: Adobe Illustrator 14.0.0, SVG Export Plug-In . SVG Version: 6.00 Build 43363)  -->
<!DOCTYPE svg PUBLIC "-//W3C//DTD SVG 1.0//EN" "http://www.w3.org/TR/2001/REC-SVG-20010904/DTD/svg10.dtd">
<svg version="1.0" xmlns="http://www.w3.org/2000/svg" xmlns:xlink="http://www.w3.org/1999/xlink" x="0px" y="0px" width="576px"
	 height="720px" viewBox="0 0 576 720" enable-background="new 0 0 576 720" xml:space="preserve">
<g id="Layer_1_x23_000000">
	<g>
		<g>
			<path d="M562.13,199.46c-3.6,9.87-3.35,23.59-7.77,32.64c-10.46-4.57-11.96-18.09-21.75-23.31
				c-19.341-0.56-22.851,12.26-31.091,27.97c-11.539,22.02-12.239,21.9-6.21,46.62c13.021,53.49,29.551,131.25,12.431,195.82
				c-17.721,66.819-36.36,108.859-77.71,150.75c-24.67,1.359-43.03-3.59-57.5-12.431c0.41-14.39-4.24-23.739-4.66-37.3
				c-40.08-0.22-95.15-21.33-116.56,7.771c-8.93,12.14-5.81,29.109-15.54,43.52c-48.38,11.271-65.04-14.069-85.48-43.52
				c-25.26-36.391-49.83-89.34-63.72-136.76c-6.21-21.19-8.4-67.591-6.21-90.141c2.06-21.35,17.2-44.43,17.09-65.27
				c-0.1-20.38-20.11-36.72-31.08-48.18c-17.01,8.38-31.2,19.57-34.19,41.96c-24.05-24.74-9.24-79.4,9.32-97.91
				c30.84-17.51,88.92-28.84,130.55-12.43c44.69-19.1,104.15-51.42,164.74-26.42c-5.69-33.45-42.21-72.7-7.771-104.13
				c0.511,0,1.03,0,1.551,0c4.85,10.46,1.87,33.14,10.88,43.52c11.649-5.6,14.88-17.57,26.42-20.21
				c57.54-13.14,51.47,85.14,1.55,76.16c5.91,54.02,80.12,18.53,105.68,0C519.79,140.71,535.98,179.1,562.13,199.46z M518.62,185.48
				c13.41,4.02,21.97,26.28,32.63,24.86c-12.09-24.24-28.82-45.97-55.94-49.73c-34.97-4.84-65.01,24.54-93.25,34.19
				c-34.649-22.36-82.42-49.08-141.43-38.85c-19.86,3.44-36.77,15.16-54.39,23.31c-9.62,4.45-24.18,12.06-32.64,12.43
				c-8.32,0.37-18.07-6.15-27.97-7.77c-67.58-11.07-115.24,9.93-115.01,76.15c24.73-28.43,82.35-55.1,116.56-15.54
				c-2.7,4.04-10.32,3.15-17.09,3.11c-3.16,7.72-2.71,19.05-9.33,23.31c-10.46-16.72-25.74-47.37-48.17-37.3
				c14.01,15.2,34.63,33.04,35.74,59.06c1.06,24.83-9.68,54.17-9.32,80.81c0.73,55.53,6.1,93.021,21.75,133.66
				c14.16,36.761,26.4,62.36,48.18,87.03c9.52,10.78,19.4,25.57,34.19,27.97c-0.71-3.699-4.97-17.76,1.56-18.649
				c-1.15,9.439,1.51,15.069,4.66,20.21c6.85,0.399,12.02,2.479,20.2,1.55c3.79-18.01,1.03-34.32,9.33-45.07
				c22.65-29.319,103.51-1.51,138.311-13.989c16.76,7.14,9.75,26.979,9.329,46.63c3.601,4.68,12.15,4.42,18.65,6.21
				c5.53-1.2,2.92-10.551,9.32-10.87c-0.24,4.939-3.521,6.83-3.11,12.43c23.21,8.55,33.47-20.01,40.41-31.08
				c23.26-37.109,40.77-80.43,49.729-127.439c11.461-60.101-5.989-119.831-18.649-164.74c-3.53-12.52-9.71-26.22-9.32-34.19
				c1.09-22.24,31.391-60.61,54.391-62.16c-25.33-30.12-44.811,31.92-59.051,46.62c-1.92-8.96-9.05-12.71-17.1-15.54
				C460.12,206.74,489.61,176.77,518.62,185.48z M361.65,137.3c32.569,9.11,55.159-29.52,34.189-51.29
				c-53.939-24.57-74.06,63.45-32.63,77.71c-12.33-21.73-1.71-73.22,21.75-66.83c19.28,5.25-1.7,34.79-21.75,23.31
				C364.35,127.57,361.46,130.89,361.65,137.3z M338.34,121.76c1.59-18.47-8.26-31.22-15.54-45.07
				C320.67,93.57,325.98,114.4,338.34,121.76z"/>
			<path d="M400.5,403.05c8.64,24.44-6.58,54.37-23.31,68.38c-34.23,28.69-111.75,29.21-153.86,4.67
				c-14.46-8.439-37.25-28.08-37.29-45.069c-0.05-17.021,25.02-39.07,40.4-48.181c26.86-15.909,60.98-24.419,94.81-24.87
				C356.43,357.51,393.69,383.77,400.5,403.05z M386.52,457.45c8.19-10.271,16.91-34.42,10.881-52.84
				c-7.851-23.95-47.391-43.88-74.601-43.521c-32.319,0.43-57.98,6.32-83.92,18.65c-13.37,6.359-50.98,29.04-49.74,52.84
				c0.79,15.05,22.09,31.979,32.64,38.85C266.15,500.33,353.9,498.32,386.52,457.45z"/>
			<path d="M380.3,398.39c10.5,29-17.89,61.79-46.62,54.391C291.75,441.99,347.24,359.53,380.3,398.39z M377.19,418.59
				c5.079-24.49-34.94-26.28-40.4-9.32C353.99,404.1,368.69,410.37,377.19,418.59z"/>
			<path d="M353.88,308.25c6.16,5.29,2.51,18.88-3.11,21.76C335.84,329.54,338.32,306.72,353.88,308.25z"/>
			<path d="M296.38,530.49c0.19-20.221,34.97-22.98,35.74-1.55C321.53,527.71,309.42,525.27,296.38,530.49z"/>
			<path d="M283.95,435.69c0.66,17.1-13.33,29.34-21.76,31.079c-34.72,7.16-67.03-59.8-24.87-68.38
				C258.58,394.06,283.09,413.75,283.95,435.69z M226.44,438.8c2.04-20.54,24.03-29.53,41.96-24.87
				c-10.49-11.63-34.39-16.63-46.62-3.109C222.26,421.22,219.91,434.45,226.44,438.8z"/>
			<path d="M224.89,320.68c2.74-18.41,28.84-1.55,13.99,13.99C227.61,335.08,223.84,327.7,224.89,320.68z"/>
		</g>
	</g>
</g>
<g id="Layer_2_x23_F9C0C0">
	<g>
		<g>
			<g>
				<g>
					<path fill="none" d="M562.13,199.46c-3.6,9.87-3.35,23.59-7.77,32.64c-10.46-4.57-11.96-18.09-21.75-23.31
						c-19.341-0.56-22.851,12.26-31.091,27.97c-11.539,22.02-12.239,21.9-6.21,46.62c13.021,53.49,29.551,131.25,12.431,195.82
						c-17.721,66.819-36.36,108.859-77.71,150.75c-24.67,1.359-43.03-3.59-57.5-12.431c0.41-14.39-4.24-23.739-4.66-37.3
						c-40.08-0.22-95.15-21.33-116.56,7.771c-8.93,12.14-5.81,29.109-15.54,43.52c-48.38,11.271-65.04-14.069-85.48-43.52
						c-25.26-36.391-49.83-89.34-63.72-136.76c-6.21-21.19-8.4-67.591-6.21-90.141c2.06-21.35,17.2-44.43,17.09-65.27
						c-0.1-20.38-20.11-36.72-31.08-48.18c-17.01,8.38-31.2,19.57-34.19,41.96c-24.05-24.74-9.24-79.4,9.32-97.91
						c30.84-17.51,88.92-28.84,130.55-12.43c44.69-19.1,104.15-51.42,164.74-26.42c-5.69-33.45-42.21-72.7-7.771-104.13
						c0.511,0,1.03,0,1.551,0c4.85,10.46,1.87,33.14,10.88,43.52c11.649-5.6,14.88-17.57,26.42-20.21
						c57.54-13.14,51.47,85.14,1.55,76.16c5.91,54.02,80.12,18.53,105.68,0C519.79,140.71,535.98,179.1,562.13,199.46z
						 M518.62,185.48c13.41,4.02,21.97,26.28,32.63,24.86c-12.09-24.24-28.82-45.97-55.94-49.73
						c-34.97-4.84-65.01,24.54-93.25,34.19c-34.649-22.36-82.42-49.08-141.43-38.85c-19.86,3.44-36.77,15.16-54.39,23.31
						c-9.62,4.45-24.18,12.06-32.64,12.43c-8.32,0.37-18.07-6.15-27.97-7.77c-67.58-11.07-115.24,9.93-115.01,76.15
						c10.4-11.95,26.61-23.59,44.45-30.13l0.9,2.48c-1.11,0.31-2.24,0.72-3.38,1.23c14.01,15.2,34.63,33.04,35.74,59.06
						c1.06,24.83-9.68,54.17-9.32,80.81c0.73,55.53,6.1,93.021,21.75,133.66c14.16,36.761,26.4,62.36,48.18,87.03
						c9.52,10.78,19.4,25.57,34.19,27.97c-0.71-3.699-4.97-17.76,1.56-18.649c-1.15,9.439,1.51,15.069,4.66,20.21
						c6.85,0.399,12.02,2.479,20.2,1.55c3.79-18.01,1.03-34.32,9.33-45.07c22.65-29.319,103.51-1.51,138.311-13.989
						c16.76,7.14,9.75,26.979,9.329,46.63c3.601,4.68,12.15,4.42,18.65,6.21c5.53-1.2,2.92-10.551,9.32-10.87
						c-0.24,4.939-3.521,6.83-3.11,12.43c23.21,8.55,33.47-20.01,40.41-31.08c23.26-37.109,40.77-80.43,49.729-127.439
						c11.461-60.101-5.989-119.831-18.649-164.74c-3.53-12.52-9.71-26.22-9.32-34.19c1.09-22.24,31.391-60.61,54.391-62.16
						c-25.33-30.12-44.811,31.92-59.051,46.62c-1.92-8.96-9.05-12.71-17.1-15.54C460.12,206.74,489.61,176.77,518.62,185.48z
						 M361.65,137.3c32.569,9.11,55.159-29.52,34.189-51.29c-53.939-24.57-74.06,63.45-32.63,77.71c-6.19-10.9-6.6-29.3-2.5-44.12
						l2.5,0.6C364.35,127.57,361.46,130.89,361.65,137.3z M338.34,121.76c1.59-18.47-8.26-31.22-15.54-45.07
						C320.67,93.57,325.98,114.4,338.34,121.76z"/>
					<path fill="none" d="M562.13,199.46c-3.6,9.87-3.35,23.59-7.77,32.64c-10.46-4.57-11.96-18.09-21.75-23.31
						c-19.341-0.56-22.851,12.26-31.091,27.97c-11.539,22.02-12.239,21.9-6.21,46.62c13.021,53.49,29.551,131.25,12.431,195.82
						c-17.721,66.819-36.36,108.859-77.71,150.75c-24.67,1.359-43.03-3.59-57.5-12.431c0.41-14.39-4.24-23.739-4.66-37.3
						c-40.08-0.22-95.15-21.33-116.56,7.771c-8.93,12.14-5.81,29.109-15.54,43.52c-48.38,11.271-65.04-14.069-85.48-43.52
						c-25.26-36.391-49.83-89.34-63.72-136.76c-6.21-21.19-8.4-67.591-6.21-90.141c2.06-21.35,17.2-44.43,17.09-65.27
						c-0.1-20.38-20.11-36.72-31.08-48.18c-17.01,8.38-31.2,19.57-34.19,41.96c-24.05-24.74-9.24-79.4,9.32-97.91
						c30.84-17.51,88.92-28.84,130.55-12.43c44.69-19.1,104.15-51.42,164.74-26.42c-5.69-33.45-42.21-72.7-7.771-104.13
						c0.511,0,1.03,0,1.551,0c4.85,10.46,1.87,33.14,10.88,43.52c11.649-5.6,14.88-17.57,26.42-20.21
						c57.54-13.14,51.47,85.14,1.55,76.16c5.91,54.02,80.12,18.53,105.68,0C519.79,140.71,535.98,179.1,562.13,199.46z
						 M518.62,185.48c13.41,4.02,21.97,26.28,32.63,24.86c-12.09-24.24-28.82-45.97-55.94-49.73
						c-34.97-4.84-65.01,24.54-93.25,34.19c-34.649-22.36-82.42-49.08-141.43-38.85c-19.86,3.44-36.77,15.16-54.39,23.31
						c-9.62,4.45-24.18,12.06-32.64,12.43c-8.32,0.37-18.07-6.15-27.97-7.77c-67.58-11.07-115.24,9.93-115.01,76.15
						c10.4-11.95,26.61-23.59,44.45-30.13l0.9,2.48c-1.11,0.31-2.24,0.72-3.38,1.23c14.01,15.2,34.63,33.04,35.74,59.06
						c1.06,24.83-9.68,54.17-9.32,80.81c0.73,55.53,6.1,93.021,21.75,133.66c14.16,36.761,26.4,62.36,48.18,87.03
						c9.52,10.78,19.4,25.57,34.19,27.97c-0.71-3.699-4.97-17.76,1.56-18.649c-1.15,9.439,1.51,15.069,4.66,20.21
						c6.85,0.399,12.02,2.479,20.2,1.55c3.79-18.01,1.03-34.32,9.33-45.07c22.65-29.319,103.51-1.51,138.311-13.989
						c16.76,7.14,9.75,26.979,9.329,46.63c3.601,4.68,12.15,4.42,18.65,6.21c5.53-1.2,2.92-10.551,9.32-10.87
						c-0.24,4.939-3.521,6.83-3.11,12.43c23.21,8.55,33.47-20.01,40.41-31.08c23.26-37.109,40.77-80.43,49.729-127.439
						c11.461-60.101-5.989-119.831-18.649-164.74c-3.53-12.52-9.71-26.22-9.32-34.19c1.09-22.24,31.391-60.61,54.391-62.16
						c-25.33-30.12-44.811,31.92-59.051,46.62c-1.92-8.96-9.05-12.71-17.1-15.54C460.12,206.74,489.61,176.77,518.62,185.48z
						 M361.65,137.3c32.569,9.11,55.159-29.52,34.189-51.29c-53.939-24.57-74.06,63.45-32.63,77.71c-6.19-10.9-6.6-29.3-2.5-44.12
						l2.5,0.6C364.35,127.57,361.46,130.89,361.65,137.3z M338.34,121.76c1.59-18.47-8.26-31.22-15.54-45.07
						C320.67,93.57,325.98,114.4,338.34,121.76z"/>
					<path fill="#F9C0C0" d="M551.25,210.34c-10.66,1.42-19.22-20.84-32.63-24.86c-29.01-8.71-58.5,21.26-66.83,46.62
						c8.05,2.83,15.18,6.58,17.1,15.54c14.24-14.7,33.721-76.74,59.051-46.62c-23,1.55-53.301,39.92-54.391,62.16
						c-0.39,7.97,5.79,21.67,9.32,34.19c12.66,44.91,30.11,104.64,18.649,164.74c-8.96,47.01-26.47,90.33-49.729,127.439
						c-6.94,11.07-17.2,39.63-40.41,31.08c-0.41-5.6,2.87-7.49,3.11-12.43c-6.4,0.319-3.79,9.67-9.32,10.87
						c-6.5-1.79-15.05-1.53-18.65-6.21c0.421-19.65,7.431-39.49-9.329-46.63C342.39,578.71,261.53,550.9,238.88,580.22
						c-8.3,10.75-5.54,27.061-9.33,45.07c-8.18,0.93-13.35-1.15-20.2-1.55c-3.15-5.141-5.81-10.771-4.66-20.21
						c-6.53,0.89-2.27,14.95-1.56,18.649c-14.79-2.399-24.67-17.189-34.19-27.97c-21.78-24.67-34.02-50.27-48.18-87.03
						c-15.65-40.64-21.02-78.13-21.75-133.66c-0.36-26.64,10.38-55.979,9.32-80.81c-1.11-26.02-21.73-43.86-35.74-59.06
						c1.14-0.51,2.27-0.92,3.38-1.23c20.6-5.75,34.86,22.66,44.79,38.53c6.62-4.26,6.17-15.59,9.33-23.31
						c6.77,0.04,14.39,0.93,17.09-3.11c-19.83-22.93-47.52-23.61-72.11-14.59c-17.84,6.54-34.05,18.18-44.45,30.13
						c-0.23-66.22,47.43-87.22,115.01-76.15c9.9,1.62,19.65,8.14,27.97,7.77c8.46-0.37,23.02-7.98,32.64-12.43
						c17.62-8.15,34.53-19.87,54.39-23.31c59.01-10.23,106.78,16.49,141.43,38.85c28.24-9.65,58.28-39.03,93.25-34.19
						C522.43,164.37,539.16,186.1,551.25,210.34z M393.46,451.4c8.271-14.58,12.61-32.601,7.04-48.351
						c-2.64-7.46-9.84-15.979-19.71-23.58c-15.64-12.029-37.98-21.78-59.54-21.49c-33.83,0.45-67.95,8.96-94.81,24.87
						c-9.84,5.83-23.65,16.96-32.31,28.681c-4.87,6.59-8.11,13.37-8.09,19.5c0.04,16.989,22.83,36.63,37.29,45.069
						c13.89,8.091,31.64,13.46,50.41,15.98c38.14,5.15,80.51-1.42,103.45-20.65C383.14,466.45,388.9,459.45,393.46,451.4z
						 M350.77,330.01c5.62-2.88,9.271-16.47,3.11-21.76C338.32,306.72,335.84,329.54,350.77,330.01z M332.12,528.94
						c-0.771-21.431-35.55-18.671-35.74,1.55C309.42,525.27,321.53,527.71,332.12,528.94z M238.88,334.67
						c14.85-15.54-11.25-32.4-13.99-13.99C223.84,327.7,227.61,335.08,238.88,334.67z"/>
					<path fill="#F9C0C0" d="M397.4,404.61c4.869,14.89,0.109,33.51-6.21,45.529c-1.511,2.86-3.101,5.341-4.671,7.311
						c-22.25,27.88-70.149,37.67-112.43,31.92c-19.71-2.69-38.2-8.75-52.31-17.94c-10.55-6.87-31.85-23.8-32.64-38.85
						c-0.36-6.97,2.61-13.84,7.32-20.24c11.39-15.439,32.97-28.1,42.42-32.6c25.94-12.33,51.601-18.221,83.92-18.65
						c17.521-0.23,40.15,7.95,56.141,20.19C387.79,388.06,394.6,396.08,397.4,404.61z M333.68,452.78
						c28.73,7.399,57.12-25.391,46.62-54.391C347.24,359.53,291.75,441.99,333.68,452.78z M262.19,466.77
						c8.43-1.739,22.42-13.979,21.76-31.079c-0.86-21.94-25.37-41.631-46.63-37.301C195.16,406.97,227.47,473.93,262.19,466.77z"/>
					<path fill="#F9C0C0" d="M395.84,86.01c20.97,21.77-1.62,60.4-34.189,51.29c-0.19-6.41,2.699-9.73,1.56-17.1
						c20.05,11.48,41.03-18.06,21.75-23.31c-11.69-3.18-20.19,8-24.25,22.71c-4.1,14.82-3.69,33.22,2.5,44.12
						C321.78,149.46,341.9,61.44,395.84,86.01z"/>
					<path fill="#F9C0C0" d="M336.79,409.27c5.46-16.96,45.479-15.17,40.4,9.32C368.69,410.37,353.99,404.1,336.79,409.27z"/>
					<path fill="#F9C0C0" d="M322.8,76.69c7.28,13.85,17.13,26.6,15.54,45.07C325.98,114.4,320.67,93.57,322.8,76.69z"/>
					<path fill="#F9C0C0" d="M268.4,413.93c-17.93-4.66-39.92,4.33-41.96,24.87c-6.53-4.35-4.18-17.58-4.66-27.979
						C234.01,397.3,257.91,402.3,268.4,413.93z"/>
				</g>
			</g>
		</g>
	</g>
</g>
</svg>
