<?xml version="1.0" encoding="utf-8"?>
<!-- Generator: Adobe Illustrator 14.0.0, SVG Export Plug-In . SVG Version: 6.00 Build 43363)  -->
<!DOCTYPE svg PUBLIC "-//W3C//DTD SVG 1.0//EN" "http://www.w3.org/TR/2001/REC-SVG-20010904/DTD/svg10.dtd">
<svg version="1.0" xmlns="http://www.w3.org/2000/svg" xmlns:xlink="http://www.w3.org/1999/xlink" x="0px" y="0px" width="576px"
	 height="864px" viewBox="0 0 576 864" enable-background="new 0 0 576 864" xml:space="preserve">
<g id="Layer_1_x23_000000">
	<g>
		<g>
			<path d="M240.771,156.065c0.241,0,0.434,0.048,0.675,0c5.64,4.482,14.219,6.073,19.955,10.411
				c-2.073,4.001-6.989,5.109-12.146,6.073c0.145,2.169,0.193,4.193-1.735,4.338c-8.242,5.351-18.171,9.014-24.293,16.485
				c7.23,1.157,10.556,6.218,13.882,11.279c-3.181-1.205-9.254-7.616-14.75-8.676c-4.097-0.771-11.809-1.832-13.014,3.471
				c23.184-1.542,32.149,18.027,39.91,34.704c1.157,2.121,3.229-0.964,3.47,0.867c-2.073,11.231-16.436,4.049-26.028,4.338
				c-16.292,0.482-29.017,12.917-41.645,12.146c-0.241,5.157,8.049,1.783,8.676,6.073c-3.904,0.434-6.507-0.434-9.543-0.868
				c-13.062,26.847-28.535,55.912-28.631,92.833c3.374-5.013,6.893-9.881,13.014-12.146c1.494,4.964-2.989,8.483-0.868,11.279
				c16.484-10.17,40.103-17.738,65.938-15.617c-7.278,1.397-15.857,1.494-21.69,4.338c16.244,3.711,32.198,7.76,43.38,16.484
				c-2.217,0.964-4.146-2.651-5.206,0c11.182,11.472,22.316,27.377,18.219,51.188c-15.954,2.362-23.136,8.483-33.836,18.22
				c-18.895,17.208-34.511,42.417-49.453,58.997c-18.22,20.244-39.042,12.436-71.144,11.279c7.375-4.387,6.604-13.448,0.868-19.087
				c2.748-2.459,9.833-0.579,10.411-5.206c-1.494-7.471-13.978-4.001-16.484,0c-0.819,6.7,1.832,16.87-1.735,20.822
				c-4.386-8.531,2.024-24.341-3.47-30.366c-10.99,4.917-14.364,50.418,6.941,43.381c-1.687,1.639-0.241,3.181,0,5.205
				c13.881,17.642,30.751,32.294,52.056,42.513c-0.386-3.952-3.519-5.157-3.471-9.544c9.496,1.254,22.413,3.519,30.366-0.867
				c-3.374-2.121-7.519-3.422-8.676-7.809c16.147-2.361,26.172-15.473,38.174-19.087c-2.073,9.351-1.928,20.195-2.603,29.498
				c-1.783,25.739-13.303,45.309-22.558,65.938c-13.448,29.933-29.257,68.733-19.955,111.054c-0.097-3.277,1.687-4.676,4.338-5.206
				c1.253,12.484,5.88,24.775,11.279,35.572c9.736,19.376,22.654,36.632,39.91,47.718c2.892,2.266,3.76-2.796,5.206,0.868
				c-1.06,4.434-2.555,8.435-8.676,7.808c-3.229,10.363-20.485,6.7-23.425,17.353c9.062,8.049,13.352-9.255,19.955-8.676
				c-4.386,13.255-20.533,14.749-24.292,28.631c16.966,5.108,20.292-17.689,36.439-19.088c3.085,2.699,2.699,8.869,6.941,10.411
				c17.979-7.037,1.157-25.787-1.735-36.438c-1.157-4.339-1.108-11.376-0.867-16.485c0.964-19.424,11.857-46.657,19.087-58.996
				c4.338-7.423,10.122-12.966,14.75-19.088c-4.049,0.578-6.218,3.037-11.279,2.603c7.471-8.049,36.15-8.482,38.175,1.735
				c-5.495,0.289-6.941-3.422-11.279-4.338c10.894,19.473,20.727,57.166,19.087,91.966c-0.337,7.086-2.072,14.46-0.867,20.822
				c1.783,9.014,20.1,22.992,26.896,11.279c0.868-3.471-10.363-6.94-8.676-11.279c10.363,4.194,21.208,19.569,35.571,11.279
				c0-14.46-24.1-9.399-27.763-17.353c5.543-0.626,7.615,2.218,12.146,2.604c-1.302-11.665-22.896-3.133-26.896-12.146
				c21.063-23.474,41.163-47.911,44.248-89.363c2.988,2.217,1.832,8.58,5.206,10.411c7.615-38.56,7.76-87.965-11.279-113.656
				c0,2.844,0.386,6.122-2.603,6.073c-2.024-34.944-10.7-67.914-16.484-96.304c8.531,24.486,18.364,47.574,35.571,63.335
				c0.482-1.253-1.012-4.482,0.868-4.338c17.015,7.905,31.956,22.365,52.924,23.426c0.964,3.133,2.939,5.157,7.808,4.338
				c10.267,7.182,17.931,33.788,32.97,26.896c-1.254-7.278-9.592-10.556-13.882-12.146c-0.964-13.207-5.881-22.413-18.22-24.293
				c12.146-4.482,22.269,6.94,20.822,21.69c8.869,2.892,19.231,15.568,30.366,7.809c-3.566-7.134-18.75-7.23-19.955-13.882
				c10.219,0.386,19.28-0.386,23.426-6.073c-4.965-5.447-13.689-0.097-20.823,0c-4.338-2.024-6.844-5.832-11.278-7.809
				c3.566-5.977,11.278-7.809,12.146-16.484c-6.17-5.302-14.219,0.867-19.087,4.338c-0.916,2.217,3.759,3.036,0.867,4.338
				c-8.628-4.049-18.461,1.639-26.896-1.735c-12.966-14.99-19.039-33.306-25.161-51.188c-7.037-20.533-19.039-31.233-30.365-46.851
				c-21.594-29.787-36.536-65.07-66.806-86.76c-2.218-0.916-4.146,2.651-5.206,0c-3.277-22.654,9.881-36.343,18.22-50.321
				c8.387-3.76,21.16-7.76,24.293-13.882c-3.952,0.964-10.411,4.001-13.882,2.603c25.064-11.472,72.107-5.447,98.907,0
				c-1.254-8.58-9.496-14.749-10.411-20.822c6.604,0.723,12.194,11.375,15.616,9.543c-4.049-26.317-16.58-52.779-31.233-68.541
				c-5.929-6.411-13.11-9.254-19.087-14.75c-3.423-3.133-6.025-9.688-10.411-10.411c-5.543-0.916-11.424,5.591-16.485,2.603
				c4.965-1.735,9.303-4.001,14.75-5.206c0.192-3.422-2.988-7.905-5.206-6.073c2.362,0,2.362,4.386,0,4.338
				c-26.269-10.363-65.696,20.1-78.952,3.47c0.723-3.037,5.302-2.217,5.206-6.073c4.531-24.389,29.306-43.139,57.262-32.969
				c0.627-3.229-1.446-3.711-0.867-6.941c-5.398-3.759-17.979-0.241-23.426-1.735c0.193-2.699,5.688-0.097,5.206-3.471
				c-5.157-12.291-21.16-15.665-40.778-18.22C269.064,164.307,249.157,154.86,240.771,156.065z M487.845,595.939
				c8.868,4.916,9.447,16.629-3.471,18.22c10.025,5.398,6.314,25.835-11.278,17.352c-11.906,24.245-33.789-9.206-40.777-20.822
				c-6.604,0.53-8.339-3.76-13.015-5.205c-0.626,23.521-5.35,44.488-13.882,64.202c-6.458,14.894-13.93,31.234-22.558,41.646
				c-5.735,6.94-15.665,10.17-13.881,21.689c-2.651,1.302-3.374-0.289-5.206,0.868c-6.121,28.582-22.269,47.14-37.307,66.805
				c5.832,2.844,16.243,1.157,20.822,5.206c2.072,7.76,19.569,12.291,19.087,21.69c-0.53,10.267-18.653,10.989-26.896,4.338
				c-4.916,9.784-21.16,5.639-28.631,0.867c-8.531-5.446-10.314-15.665-9.544-32.969c0.916-21.111-0.578-44.971-3.47-57.262
				c-11.375,3.133-32.969,2.072-39.91-6.94c-4.724,14.556-18.702,33.064-13.881,59.864c2.217,12.194,18.075,29.787,7.808,41.645
				c-5.013,5.784-19.424,4.146-19.955-6.073c-3.471,3.133-34.752,34.174-39.042,13.015c-1.495-7.278,2.892-11.906,8.676-13.882
				c-15.183-15.473,15.039-19.763,24.293-26.896c-23.04-17.4-38.319-42.657-49.454-72.012c-1.397-2.65-4.145,2.893-6.073,0
				c-10.941-51.574,5.495-101.509,24.293-134.479c1.157-2.699-0.241-2.458,0-6.072c3.229,0.915,2.796-1.832,4.338-2.604
				c8.339-17.11,11.906-38.994,13.014-63.335c-6.458,0.193-13.159,7.664-20.822,9.544c2.073,3.133,9.543,0.867,9.543,6.073
				c-5.109,8.194-19.376,7.229-32.101,7.809c-2.024,3.47,10.074,3.036,6.073,8.676c-5.64,5.591-13.833-0.627-19.087-3.471
				c-18.557-10.122-39.476-26.606-49.454-45.115c-3.326,0.193-6.362,0.048-8.676-0.867c-2.555-3.182-5.64-5.881-5.206-12.146
				c-7.423-18.027-33.017-22.462-32.102-45.983c2.555-2.361,6.363-3.085,10.412-1.735c-1.784-5.88-8.194-9.398-5.206-15.617
				c2.554-5.253,11.23-6.121,16.484-2.603c7.953,5.302,6.989,25.642,15.617,27.763c7.953-4.193,8.628-15.665,22.558-13.882
				c0.771,1.543,1.928,2.699,3.471,3.471c0.241,5.157-1.205,8.579-2.603,12.146c8.965-0.097,14.942,18.268,1.735,18.22
				c2.072,3.229,3.374,7.615,1.735,12.146c17.208-0.868,30.366,5.494,42.513,0.867c14.074-5.35,17.882-21.834,28.631-30.366
				c-17.448-12.291-36.632-22.943-51.188-38.174c-1.542,0.771-2.217,2.41-5.206,1.735c-33.692-28.149-60.54-54.37-78.952-95.437
				c-8.242-18.412-9.736-44.006-19.955-61.6c-1.687-41.163,12.243-68.444,26.896-101.509
				c25.064-56.442,44.537-97.075,100.642-120.597c19.087-8.001,38.656-14.749,61.6-13.014c35.138,2.651,63.865,18.412,82.422,39.91
				c-0.096,3.374-3.373,3.567-6.94,3.47c39.524,15.569,72.59,51.285,68.541,100.642c-0.724,8.676-2.699,19.617-6.941,27.763
				c-1.445,2.795-6.507,5.109-6.94,9.543c-0.627,6.893,4.579,10.749,10.411,13.014c4.771,15.762,20.967,19.81,31.233,30.366
				c9.11,9.351,15.906,23.714,21.69,36.439c6.025,13.207,10.219,28.148,13.014,44.248c-1.205,4.29-6.459,4.531-6.073,10.411
				c-17.496-4.29-40.439-5.157-60.731-6.073c-6.314-0.289-12.966-2.121-19.088-0.868c-11.616,2.41-19.425,15.81-30.366,16.484
				c-8.868,11.086-15.135,24.775-19.087,40.777c19.039,7.327,25.932,25.691,39.91,36.44c10.17,7.856,20.292,11.856,28.631,19.087
				c8.482,7.375,14.604,14.894,21.689,25.16c11.52,16.678,24.775,37.597,27.764,65.938c1.591,14.604-4.868,34.174,8.676,39.909
				c22.702,6.121,33.981-20.341,48.586-3.471c-0.627,8.339-5.398,12.532-10.411,16.484c1.928,5.303,10.073,2.989,14.749,1.735
				c5.64-21.256-4.579-47.718-0.867-66.805c5.783,4.289,5.157,13.978,6.073,21.689C486.784,566.393,488.182,580.033,487.845,595.939
				z M397.614,674.892c9.832-20.341,17.785-42.851,15.616-73.746c-15.376-4.001-26.317-12.436-38.174-19.955
				c-0.386,3.422,4.145,7.76,0,9.544c-9.93-10.604-17.256-23.763-26.896-34.704c3.809,13.881,3.085,26.702,6.941,41.645
				c2.169,8.435,7.904,17.304,11.278,26.896c9.11,25.643,12.388,56.057,4.338,90.23C382.672,705.209,390.48,689.688,397.614,674.892
				z M400.217,530.002c4.146,11.134,6.989,23.521,13.882,35.571c-2.988-63.816-31.957-101.654-73.746-126.67
				c12.58,22.461,24.438,42.898,40.777,61.6C389.517,510.095,395.782,518.192,400.217,530.002z M355.969,207.253
				c25.064-29.499,7.037-82.326-13.014-102.377c-14.412-14.412-34.897-19.425-51.188-32.102c2.65-2.265,8.917-0.964,11.278-3.47
				c-8.676-9.881-19.28-17.4-32.101-22.558c-14.026-5.64-34.511-12.58-52.924-11.279c-48.682,3.519-92.014,30.125-117.126,70.276
				C88.94,124.928,80.409,145.22,69.66,168.211c-10.17,21.787-22.076,47.766-24.293,69.408c-2.073,20.292,4.193,32.921,7.809,49.453
				c2.603,11.713,5.157,23.811,8.676,33.837c14.797,42.271,45.694,69.36,75.481,93.701c-0.241-2.265,0.337-3.711,2.603-3.47
				c18.316,16.677,37.307,32.68,61.6,43.38c18.509-20.244,33.451-44.055,64.203-52.056c0.964-23.136-7.856-42.706-23.425-52.056
				c-11.52-6.941-31.426-13.207-45.983-11.279c-11.857,1.591-20.726,9.64-32.102,12.146c-0.385-4.193,2.748-9.351,1.735-11.279
				c-7.326,4.531-8.242,15.472-13.881,21.69c-0.675-42.609,11.134-72.734,26.896-98.907c-7.953-10.556-22.269-14.75-30.366-25.161
				c-1.59-12.291-8.82-23.57-5.206-38.174c-0.386,10.267,0.53,19.135,4.338,25.16c0.819-9.013,2.073-17.593,6.073-23.425
				c-3.181,8.339-2.651,20.485-2.603,32.102c7.278,11.52,20.774,16.822,32.101,24.293c-0.241-2.94-1.35-4.965-0.868-8.676
				c10.315-13.399,8.676-38.753,24.293-46.851c0.048-3.133-0.482-6.844,1.735-7.809c15.135-1.928,22.027-12.098,32.969-18.219
				c-14.749-0.53-26.269-4.386-32.101-13.882c12.773,5.832,29.209,13.062,45.115,6.073c-14.75-11.23-33.933-18.123-42.513-35.572
				c13.593,15.376,38.946,25.98,66.806,29.499c23.714,2.988,46.464,2.94,50.321,22.558
				C350.426,176.695,346.185,200.891,355.969,207.253z M291.767,238.487c23.763-1.398,38.608-11.713,65.07-10.411
				c-1.157-12.436-5.062-22.124-13.015-27.764c2.651,18.895-31.86,21.594-31.233,2.603
				C300.684,209.23,287.669,221.713,291.767,238.487z M325.603,202.916c5.157,0.53,8.242-1.012,7.809-6.073
				c-2.506-1.687-8.29-0.626-9.544,1.735C325.699,198.818,324.108,202.385,325.603,202.916z M296.972,735.624
				c-4.193-10.508-7.278-22.221-13.014-31.234c-15.231,0.964-17.497,14.894-24.293,24.293
				C264.582,738.322,285.79,742.901,296.972,735.624z M243.181,237.62c1.928-14.46-8.628-23.618-17.352-30.366
				c2.265,13.255-8.58,19.907-19.087,18.22c-5.109-0.819-6.459-5.495-10.411-5.206c-2.94,8.049-6.507,15.472-6.073,26.896
				C207.271,243.355,220.189,235.451,243.181,237.62z M206.741,213.327c6.025,0.53,8.001-2.988,7.809-8.676
				C208.621,201.036,202.548,209.182,206.741,213.327z M110.438,464.932c2.265-5.543,7.519-8.146,6.941-16.484
				c-7.52-1.157-8.676,4-12.146,6.94C107.015,458.569,108.606,461.895,110.438,464.932z M93.085,484.887
				c-0.482-8.869,1.06-15.762,2.603-22.558c-11.616-4.965-10.267-35.524-26.028-27.764c1.928,13.158,15.568,19.184,15.617,31.233
				c-6.796-4.482-9.303-13.207-20.822-13.014c-1.977,9.014,7.567,11.664,12.146,15.617
				C82.915,473.849,86.434,482.621,93.085,484.887z"/>
			<path d="M464.419,536.942c-9.303-10.411-6.604-25.016-8.676-37.307c-1.977-11.857-7.326-23.474-11.278-34.704
				c-8.436-23.907-14.22-45.935-26.896-65.938c0-0.578,0-1.157,0-1.735c1.302-1.012,2.218-1.012,3.471,0
				C443.404,435.385,462.395,481.416,464.419,536.942z"/>
			<path d="M412.363,438.903c13.255,35.668,29.402,77.554,25.16,124.935c-4.965-3.133-3.904-10.411-4.338-14.749
				c-2.796-28.534-8.965-54.129-15.617-79.819c-2.844-10.989-6.073-20.678-8.676-31.233
				C410.676,436.301,410.58,438.422,412.363,438.903z"/>
			<path d="M374.188,279.265c4.531,1.253,2.988,9.978-1.735,9.543c-2.313-5.157-16.581-10.797-24.293-8.676
				c-7.278,2.024-13.544,24.823-25.16,26.896c0.048,28.245-45.164,34.318-62.467,17.352c-18.605-0.771-30.607-8.146-40.777-17.352
				c-9.496,2.024-17.352,5.784-26.028,8.676c1.253,2.554,3.664,3.856,7.809,3.47c-7.616,5.784-15.135-6.073-12.146-13.882
				c4.049-0.53,2.217,4.772,2.603,7.809c48.345-12.484,97.075-40.777,160.506-35.572c8.291,0.675,14.605,2.651,20.823,6.941
				C375.249,284.374,373.707,280.807,374.188,279.265z M282.223,331.321C314.228,335.08,323.145,313.246,323,281
				c-13.737,1.591-27.04,3.567-39.042,6.941c-0.723,4.242,3.519,8.001,0.868,11.279c-0.579-4-2.844-6.411-3.471-10.411
				c-12.821,1.928-24.245,5.254-34.704,9.544C252.917,315.174,263.039,329.055,282.223,331.321z"/>
			<path d="M348.16,618.497c0.771,18.412-7.037,38.464-19.087,43.38c-4.435,7.423-6.7,15.762-13.014,20.823
				c-4.724,3.808-23.763,12.387-33.837,13.014c-17.063,1.108-40.295-7.23-51.188-15.617c-13.833-10.7-26.221-30.8-26.896-50.32
				c-0.771-23.377,10.893-39.524,14.749-63.335c1.735-10.701,0.434-21.594,0.868-32.102c1.012-22.654,5.977-42.898,11.279-60.732
				c-0.337-2.458-5.061,2.218-6.073-0.867c3.856-16.003,14.46-31.765,24.293-44.248c7.808-9.881,20.292-21.256,40.777-14.749
				c4.386,1.397,13.352,9.977,17.352,15.617c8.869,12.532,14.315,31.571,18.22,51.189c3.663,18.46,6.556,40.198,7.809,60.731
				c0.771,12.195-0.627,24.775,2.603,36.439C340.159,592.565,347.63,605.001,348.16,618.497z M344.69,620.232
				c0.337-14.99-8.146-30.222-12.146-46.851c-3.808-15.857-4.338-35.62-5.206-53.791c-1.735-37.692-9.784-71.771-24.293-93.702
				c-8.098-9.784-28.293-14.845-41.645-7.808c-6.845,3.615-13.4,15.038-19.087,23.425c-6.411,9.544-11.665,19.955-13.882,28.631
				c0.964,3.085,4.29-3.084,5.206,0c-9.881,25.595-9.062,60.251-11.279,93.701c-0.916,14.412-7.278,25.306-10.411,36.439
				c-8.676,31.138-3.615,56.731,16.484,74.614c20.003,17.785,63.046,26.606,86.76,4.338c6.845-6.411,8.58-15.762,14.749-24.293
				c1.494-1.688,2.024,3.808,4.339,0C338.906,645.73,344.401,633.681,344.69,620.232z"/>
			<path d="M308.251,253.236c2.024,0.29,3.76,0.916,4.338,2.603c-5.254,11.472-27.667,21.063-46.851,22.558
				c-17.063,1.301-26.558-5.398-39.042-8.676c5.736-9.399,12.532,2.94,19.955,5.206C265.497,280.71,304.058,270.01,308.251,253.236z
				"/>
			<path d="M129.524,546.486c8.628,20.919,21.738,37.307,35.572,52.924c-17.979-11.761-35.475-28.68-38.174-52.924
				C127.79,546.486,128.657,546.486,129.524,546.486z"/>
			<path d="M130.392,589.866c3.229,3.326,9.496,5.495,9.544,11.279c-16.726-8.917-29.98-25.595-41.645-44.248
				c-7.905-12.725-26.992-44.007-24.293-64.203c1.157,0.29,1.398,1.543,2.603,1.735C89.277,531.978,105.425,564.176,130.392,589.866
				z"/>
		</g>
	</g>
</g>
<g id="Layer_2_x23_526C84">
	<g>
		<g>
			<g>
				<g>
					<path fill="#526C84" d="M117.38,448.45c0.58,8.34-4.68,10.939-6.94,16.479c-1.83-3.04-3.42-6.359-5.21-9.54
						C108.7,452.45,109.86,447.29,117.38,448.45z"/>
					<path fill="#526C84" d="M95.69,462.33c-1.54,6.79-3.09,13.689-2.6,22.56c-6.66-2.27-10.17-11.04-16.49-16.489
						c-4.58-3.95-14.12-6.601-12.15-15.61c11.52-0.2,14.03,8.53,20.83,13.01c-0.05-12.05-13.69-18.08-15.62-31.229
						C85.42,426.81,84.07,457.36,95.69,462.33z"/>
					<path fill="none" d="M374.19,279.26c4.529,1.26,2.989,9.98-1.74,9.55c-2.311-5.16-16.58-10.8-24.29-8.68
						c-7.28,2.03-13.54,24.83-25.16,26.9c0.03,14.82-12.42,23.54-26.75,26.03l-0.3-1.85c20.92-3.44,27.17-23.16,27.05-50.21
						c-13.74,1.59-27.04,3.57-39.04,6.94c-0.73,4.24,3.52,8,0.87,11.28c-0.58-4-2.85-6.41-3.48-10.41
						c-8.81,1.33-16.97,3.31-24.6,5.81l-0.84-2.54c29.2-9.64,60.52-17.51,96.59-14.55c8.29,0.67,14.6,2.65,20.82,6.94
						C375.25,284.37,373.71,280.81,374.19,279.26z"/>
					<path fill="none" d="M374.19,279.26c4.529,1.26,2.989,9.98-1.74,9.55c-2.311-5.16-16.58-10.8-24.29-8.68
						c-7.28,2.03-13.54,24.83-25.16,26.9c0.03,14.82-12.42,23.54-26.75,26.03l-0.3-1.85c20.92-3.44,27.17-23.16,27.05-50.21
						c-13.74,1.59-27.04,3.57-39.04,6.94c-0.73,4.24,3.52,8,0.87,11.28c-0.58-4-2.85-6.41-3.48-10.41
						c-8.81,1.33-16.97,3.31-24.6,5.81l-0.84-2.54c29.2-9.64,60.52-17.51,96.59-14.55c8.29,0.67,14.6,2.65,20.82,6.94
						C375.25,284.37,373.71,280.81,374.19,279.26z"/>
					<path fill="#526C84" d="M283.96,704.39c5.73,9.011,8.82,20.73,13.01,31.23c-11.18,7.28-32.39,2.7-37.3-6.94
						C266.46,719.28,268.73,705.35,283.96,704.39z"/>
					<path fill="#526C84" d="M375.06,590.73c4.141-1.78-0.39-6.12,0-9.54c11.48,7.29,22.11,15.42,36.74,19.569
						c0.47,0.13,0.95,0.26,1.431,0.391c2.17,30.89-5.78,53.399-15.62,73.739c-7.13,14.801-14.94,30.32-26.891,39.91
						c7.561-32.09,5.13-60.88-2.75-85.5c-0.5-1.6-1.04-3.17-1.59-4.729c-3.37-9.59-9.11-18.46-11.28-26.9
						c-3.85-14.939-3.13-27.76-6.939-41.64c3.45,3.91,6.6,8.109,9.68,12.37C363.38,576.06,368.68,583.92,375.06,590.73z"/>
					<path fill="#526C84" d="M414.1,565.57c-2.58-4.521-4.6-9.08-6.33-13.61c-2.88-7.55-4.96-15-7.55-21.96
						c-4.439-11.81-10.7-19.91-19.09-29.5c-9.189-10.52-16.97-21.59-24.25-33.26c-5.66-9.07-11.03-18.51-16.53-28.34
						C382.14,463.92,411.11,501.76,414.1,565.57z"/>
					<path fill="#526C84" d="M342.96,104.88c20.05,20.05,38.07,72.87,13.01,102.37c-5.13-3.34-6.41-11.58-9.529-17.51
						c-2.851-5.37-7.21-8.85-17.37-5.04c-3.851-19.62-26.601-19.57-50.32-22.56c-8.23-1.04-16.24-2.7-23.79-4.92
						c-18.02-5.28-33.43-13.74-43.01-24.58c8.58,17.45,27.76,24.34,42.51,35.57c-15.91,6.99-32.34-0.24-45.12-6.07
						c5.84,9.49,17.36,13.35,32.11,13.88c-9.8,5.48-16.35,14.2-28.46,17.35c-1.42,0.37-2.92,0.67-4.51,0.87
						c-2.22,0.96-1.69,4.68-1.74,7.81c-10,5.18-12.92,17.43-16.44,29.09c-1.98,6.56-4.14,12.94-7.85,17.76
						c-0.48,3.71,0.63,5.73,0.87,8.67c-11.33-7.47-24.83-12.77-32.11-24.29c-0.04-11.61-0.57-23.76,2.61-32.1
						c-4,5.83-5.26,14.41-6.08,23.43c-3.8-6.03-4.72-14.9-4.33-25.16c-3.62,14.6,3.61,25.88,5.2,38.17
						c8.1,10.41,22.41,14.6,30.37,25.16c-15.76,26.17-27.57,56.3-26.9,98.91c5.46-6.03,6.5-16.48,13.21-21.25
						c0.22-0.15,0.44-0.3,0.67-0.44c1.02,1.92-2.12,7.08-1.73,11.28c11.37-2.51,20.24-10.56,32.1-12.15
						c6.99-0.93,15.22,0.04,23.16,2.06c8.59,2.19,16.83,5.62,22.82,9.22c3.7,2.22,7.02,5.02,9.92,8.31
						c9.29,10.54,14.24,26.11,13.51,43.74c-4.77,1.24-9.16,2.86-13.24,4.8c-22.23,10.51-35.33,30.16-50.96,47.26
						c-24.3-10.699-43.29-26.7-61.6-43.379c-2.27-0.24-2.85,1.21-2.61,3.47c-29.78-24.34-60.68-51.43-75.48-93.7
						c-3.52-10.03-6.07-22.12-8.67-33.84c-3.62-16.53-9.89-29.16-7.81-49.45c2.21-21.64,14.12-47.62,24.29-69.41
						c10.75-22.99,19.28-43.28,31.23-62.47c25.12-40.15,68.45-66.75,117.13-70.27c18.41-1.3,38.9,5.64,52.92,11.28
						c12.83,5.15,23.43,12.67,32.1,22.55c-2.36,2.51-8.62,1.21-11.271,3.47C308.06,85.45,328.54,90.46,342.96,104.88z"/>
					<path fill="#526C84" d="M224.96,472.74c1.01,3.09,5.74-1.59,6.07,0.87c-0.36,1.199-0.71,2.409-1.06,3.63
						c-4.89,16.93-9.27,35.97-10.21,57.1c-0.44,10.51,0.86,21.4-0.87,32.101c-1.87,11.52-5.57,21.26-8.8,30.88
						c-3.44,10.26-6.35,20.399-5.95,32.46c0.44,12.81,5.93,25.87,13.56,36.359c3.99,5.49,8.58,10.28,13.33,13.96
						c10.9,8.381,34.13,16.721,51.19,15.61c5.36-0.33,13.24-2.91,20.16-5.82c6.11-2.569,11.47-5.409,13.68-7.189
						c6.311-5.061,8.58-13.4,13.011-20.82c12.05-4.92,19.859-24.97,19.09-43.38c-0.5-12.66-7.09-24.37-11.34-38.02
						c-0.28-0.91-0.551-1.83-0.811-2.761c-3.229-11.66-1.83-24.239-2.6-36.439c-1.25-20.53-4.141-42.271-7.811-60.73
						c-3.899-19.62-9.35-38.66-18.22-51.19c-1-1.41-2.31-3-3.78-4.62c-4.409-4.86-10.279-9.95-13.569-11
						c-14.3-4.54-24.7-0.37-32.33,5.92c-3.31,2.73-6.09,5.85-8.45,8.83C239.42,440.98,228.82,456.74,224.96,472.74z M241.45,156.06
						c-0.25,0.05-0.44,0-0.68,0c3.21-0.46,8.11,0.64,13.86,2.3c9.28,2.67,20.8,6.78,31.06,8.12c19.62,2.55,35.62,5.92,40.78,18.22
						c0.48,3.37-5.01,0.77-5.21,3.47c5.45,1.49,18.03-2.03,23.431,1.73c-0.58,3.23,1.489,3.71,0.869,6.94
						c-27.96-10.17-52.729,8.58-57.26,32.97c0.09,3.86-4.49,3.04-5.21,6.07c13.26,16.63,52.68-13.83,78.95-3.47
						c2.36,0.05,2.36-4.33,0-4.33c2.22-1.84,5.4,2.65,5.21,6.07c-5.45,1.2-9.79,3.47-14.75,5.2c5.06,2.99,10.94-3.51,16.48-2.6
						c4.39,0.73,6.989,7.28,10.409,10.41c5.98,5.5,13.16,8.34,19.091,14.75c14.649,15.76,27.189,42.23,31.229,68.54
						c-3.42,1.83-9.01-8.82-15.61-9.54c0.91,6.07,9.16,12.24,10.41,20.82c-26.8-5.44-73.84-11.47-98.91,0
						c3.471,1.4,9.931-1.64,13.881-2.6c-3.131,6.12-15.9,10.12-24.29,13.88c-8.341,13.98-21.5,27.67-18.221,50.32
						c1.061,2.65,2.99-0.91,5.21,0c23.221,16.64,37.41,41.26,52.511,65.28c4.59,7.3,9.26,14.54,14.29,21.479
						c11.329,15.62,23.329,26.32,30.369,46.851c1.83,5.35,3.65,10.729,5.67,16.05c4.69,12.49,10.4,24.63,19.49,35.14
						c8.431,3.37,18.271-2.31,26.9,1.74c2.89-1.311-1.79-2.12-0.87-4.34c4.87-3.471,12.92-9.641,19.08-4.34
						c-0.86,8.68-8.58,10.51-12.14,16.479c4.43,1.98,6.939,5.79,11.279,7.811c7.13-0.091,15.86-5.44,20.82,0
						c-4.15,5.689-13.21,6.46-23.43,6.079c1.21,6.65,16.39,6.74,19.96,13.881c-11.141,7.76-21.5-4.921-30.37-7.811
						c1.45-14.75-8.67-26.17-20.82-21.689c12.34,1.88,17.26,11.09,18.22,24.29c4.29,1.59,12.63,4.869,13.88,12.149
						c-15.039,6.89-22.699-19.71-32.97-26.899c-4.87,0.819-6.84-1.2-7.8-4.33c-4.85-0.25-9.38-1.21-13.69-2.65
						c-14.31-4.76-26.159-14.71-39.239-20.78c-1.88-0.14-0.38,3.08-0.87,4.34c-4.84-4.43-9.09-9.439-12.9-14.899
						c-9.729-13.96-16.54-30.84-22.67-48.44c5.79,28.391,14.46,61.36,16.49,96.311c2.979,0.05,2.6-3.23,2.6-6.08
						c4.351,5.87,7.7,12.99,10.19,20.93c7.64,24.38,7.14,56.57,2.56,84.58c-0.45,2.76-0.939,5.48-1.47,8.15
						c-3.38-1.83-2.22-8.19-5.21-10.41c-3.08,41.45-23.18,65.89-44.25,89.359c4,9.021,25.6,0.48,26.9,12.15
						c-4.53-0.39-6.601-3.229-12.15-2.61c3.67,7.96,27.77,2.9,27.77,17.36c-14.369,8.29-25.21-7.09-35.569-11.28
						c-1.69,4.34,9.54,7.811,8.67,11.28c-6.79,11.71-25.11-2.27-26.891-11.28c-1.21-6.359,0.53-13.739,0.86-20.819
						c1.64-34.801-8.189-72.5-19.08-91.971c4.33,0.92,5.78,4.63,11.28,4.341c-2.03-10.221-30.71-9.79-38.18-1.74
						c5.06,0.439,7.23-2.021,11.28-2.601c-4.63,6.12-10.41,11.66-14.75,19.091c-7.23,12.34-18.12,39.569-19.09,58.989
						c-0.24,5.11-0.29,12.15,0.87,16.49c2.89,10.65,19.71,29.4,1.74,36.44c-4.25-1.54-3.86-7.71-6.95-10.41
						c-16.14,1.39-19.47,24.189-36.43,19.08c3.75-13.88,19.9-15.37,24.29-28.63c-6.61-0.58-10.9,16.729-19.96,8.68
						c2.94-10.65,20.2-6.99,23.43-17.351c6.12,0.62,7.61-3.38,8.67-7.81c-1.44-3.67-2.31,1.4-5.2-0.87
						c-17.26-11.09-30.17-28.34-39.91-47.72c-5.4-10.79-10.03-23.08-11.28-35.57c-2.65,0.53-4.43,1.931-4.34,5.21
						c-9.3-42.319,6.51-81.12,19.96-111.06c9.25-20.63,20.77-40.2,22.55-65.931c0.68-9.31,0.53-20.149,2.61-29.5
						c-12,3.61-22.03,16.721-38.18,19.08c1.16,4.391,5.31,5.69,8.68,7.811c-7.95,4.39-20.87,2.12-30.37,0.87
						c-0.04,4.39,3.09,5.59,3.47,9.54c-21.3-10.21-38.17-24.87-52.05-42.511c-0.24-2.02-1.69-3.56,0-5.199
						c-21.31,7.029-17.93-38.471-6.94-43.38c5.49,6.02-0.92,21.829,3.47,30.359c3.56-3.95,0.91-14.12,1.73-20.82
						c2.51-4,14.99-7.47,16.49,0c-0.58,4.631-7.67,2.75-10.41,5.211c5.73,5.63,6.5,14.699-0.87,19.079
						c32.1,1.16,52.92,8.971,71.14-11.279c14.94-16.58,30.56-41.79,49.45-58.99c6.69-6.09,12.01-10.76,18.95-13.99
						c4.16-1.93,8.91-3.34,14.89-4.23c3.66-21.27-4.83-36.23-14.65-47.36c-1.18-1.33-2.37-2.6-3.57-3.83c1.06-2.65,2.99,0.96,5.21,0
						c-9.34-7.29-22-11.31-35.37-14.59c-2.65-0.66-5.33-1.29-8.01-1.9c5.83-2.84,14.41-2.94,21.69-4.33
						c-25.84-2.12-49.46,5.44-65.94,15.61c-2.12-2.79,2.36-6.31,0.87-11.28c-1.45,0.53-2.75,1.22-3.94,2.02
						c-3.84,2.56-6.5,6.31-9.08,10.13c0.09-33.76,13.03-60.95,25.23-85.88c0.97-1.99,1.94-3.96,2.9-5.92
						c0.17-0.34,0.33-0.69,0.5-1.03c3.04,0.43,5.64,1.3,9.55,0.86c-0.63-4.29-8.92-0.91-8.68-6.07c11.1,0.68,22.27-8.84,35.87-11.49
						c1.88-0.36,3.8-0.6,5.78-0.66c9.59-0.28,23.95,6.9,26.02-4.33c-0.24-1.83-2.31,1.25-3.47-0.87c-2.1-4.51-4.29-9.24-6.82-13.7
						c-6.83-12.03-16.18-22.13-33.09-21c0.51-2.24,2.18-3.35,4.24-3.82c2.83-0.65,6.41-0.11,8.78,0.34
						c5.49,1.07,11.57,7.48,14.75,8.68c-3.33-5.06-6.65-10.12-13.88-11.28c6.12-7.47,16.05-11.13,24.29-16.48
						c1.93-0.15,1.88-2.17,1.73-4.34c5.16-0.96,10.08-2.07,12.15-6.07C255.66,162.14,247.08,160.55,241.45,156.06z M372.45,288.81
						c4.729,0.43,6.27-8.29,1.74-9.55c-0.48,1.55,1.06,5.11-0.87,5.21c-6.221-4.29-12.53-6.27-20.82-6.94
						c-36.07-2.96-67.39,4.91-96.59,14.55c-22.14,7.31-43.07,15.64-63.92,21.02c-0.38-3.04,1.45-8.34-2.6-7.81
						c-2.99,7.81,4.53,19.67,12.15,13.88c-4.15,0.39-6.56-0.91-7.81-3.47c8.67-2.89,16.53-6.65,26.03-8.67
						c10.17,9.2,22.17,16.58,40.77,17.35c8.22,8.06,22.75,10.92,35.72,8.68c14.33-2.49,26.78-11.21,26.75-26.03
						c11.62-2.07,17.88-24.87,25.16-26.9C355.87,278.01,370.14,283.65,372.45,288.81z M312.59,255.84c-0.58-1.69-2.31-2.31-4.34-2.6
						c-4.19,16.77-42.75,27.47-61.6,21.69c-7.42-2.27-14.22-14.61-19.95-5.21c12.48,3.28,21.98,9.98,39.04,8.68
						C284.92,276.9,307.33,267.31,312.59,255.84z"/>
				</g>
			</g>
		</g>
	</g>
</g>
<g id="Layer_3_x23_FFFFFF">
	<g>
		<g>
			<g>
				<g>
					<path fill="#FFFFFF" d="M239.96,221.81c2.6,4.46,4.04,9.66,3.22,15.81c-8.69-0.82-15.94-0.2-22.51,1.09
						c-10.83,2.13-19.83,6.09-30.41,8.45c-0.23-6.03,0.65-10.95,1.98-15.44c1.18-4,2.7-7.66,4.09-11.45
						c3.95-0.29,5.3,4.38,10.41,5.2c10.51,1.69,21.35-4.96,19.09-18.22C230.84,211.12,236.45,215.8,239.96,221.81z"/>
					<path fill="#FFFFFF" d="M214.55,204.65c0.19,5.69-1.78,9.21-7.81,8.68C202.55,209.18,208.62,201.04,214.55,204.65z"/>
					<path fill="#FFFFFF" d="M333.41,196.84c0.43,5.06-2.65,6.61-7.811,6.08c-1.489-0.53,0.101-4.1-1.729-4.34
						C325.12,196.22,330.91,195.16,333.41,196.84z"/>
					<path fill="#FFFFFF" d="M356.84,228.08c-26.46-1.31-41.31,9.01-65.07,10.41c-4.1-16.78,8.91-29.26,20.82-35.57
						c-0.63,18.99,33.88,16.29,31.23-2.61C351.78,205.95,355.68,215.64,356.84,228.08z"/>
					<path fill="#FFFFFF" d="M334.65,580.93c4.279,13.74,10.33,26.61,10.04,39.301c-0.29,13.449-5.78,25.5-10.41,34.71
						c-2.32,3.8-2.851-1.69-4.34,0c-6.171,8.529-7.9,17.88-14.75,24.29c-4.051,3.8-8.66,6.699-13.631,8.8
						c-24.109,10.2-56.55,1.609-73.129-13.141c-3.46-3.08-6.47-6.38-9.05-9.909c-12.39-16.95-14.62-38.921-7.43-64.7
						c0.2-0.71,0.41-1.42,0.63-2.13c3.29-10.41,8.92-20.82,9.78-34.311c2.01-30.31,1.53-61.62,8.77-86.27
						c0.75-2.551,1.58-5.03,2.51-7.431c-0.92-3.09-4.24,3.08-5.21,0c2.22-8.68,7.47-19.09,13.88-28.63
						c4.8-7.08,10.22-16.32,15.91-21.2c1.05-0.91,2.11-1.66,3.18-2.23c13.07-6.89,32.7-2.19,41.11,7.19
						c0.181,0.21,0.36,0.41,0.53,0.62c14.51,21.93,22.56,56.01,24.3,93.7c0.87,18.17,1.4,37.93,5.2,53.79
						C333.15,575.93,333.87,578.44,334.65,580.93z"/>
					<path fill="#FFFFFF" d="M323,281c0.12,27.05-6.13,46.77-27.05,50.21c-4.01,0.66-8.57,0.72-13.73,0.11
						c-19.18-2.26-29.3-16.15-35.57-32.97c3.27-1.34,6.63-2.59,10.1-3.73c7.63-2.5,15.79-4.48,24.6-5.81c0.63,4,2.9,6.41,3.48,10.41
						c2.65-3.28-1.6-7.04-0.87-11.28C295.96,284.57,309.26,282.59,323,281z"/>
				</g>
			</g>
		</g>
	</g>
</g>
</svg>
