<?xml version="1.0" encoding="utf-8"?>
<!-- Generator: Adobe Illustrator 14.0.0, SVG Export Plug-In . SVG Version: 6.00 Build 43363)  -->
<!DOCTYPE svg PUBLIC "-//W3C//DTD SVG 1.0//EN" "http://www.w3.org/TR/2001/REC-SVG-20010904/DTD/svg10.dtd">
<svg version="1.0" xmlns="http://www.w3.org/2000/svg" xmlns:xlink="http://www.w3.org/1999/xlink" x="0px" y="0px" width="702px"
	 height="792px" viewBox="0 0 702 792" enable-background="new 0 0 702 792" xml:space="preserve">
<g id="Layer_1_x23_000000">
	<g>
		<g>
			<path fill="none" d="M273.87,558.43c1.4,7.96,10.25-5.09,10.96,2.19c-5.22,6.939-3.92,6.77-10.96,10.96
				c0.62,3.479,7.68,17.41,0,15.35c2.7,5.33,1.85,14.23,8.77,15.34c0.65,5.771-8.51,1.73-6.58,8.771c-3.22,8.34,9.8,0.43,6.58,8.77
				c-2.93,5.341-0.19,20.181-13.15,30.69c6.66,3.29,1.21,6.6,4.38,10.96c9.18,0.41,7.11-10.42,10.96-15.34
				c-3.15,24.03-7.96,83.21-24.11,107.42c-5.94-0.64-16.24,3.08-13.16-6.58c-4.71,3.32-10.74,5.33-13.15,10.96
				c-7.49,1.64-2.78-8.91-10.96-6.58c-0.28-3.93,2.68-4.62,2.19-8.77c-3.09-2.94-15.93,2.96-17.54,8.77
				c-0.33-21.68,22.25-26.76,30.69-43.84c13.02-26.33,5.2-72.52,4.39-100.84c-0.36-12.68,9.23-43.4-6.58-46.04
				c-2.42-1.98-1.52-4.9,0-8.771c-26.73-20.029-64.84-28.689-92.07-48.22c-1.99,10.07,18.02,17.021,19.73,30.69
				c-5.94-2.54-5.46-1.061-13.15,0c8.49,17.8,9.74,42.87,24.11,54.8c0.81,3.729-1.71,4.14-4.38,4.38c-0.66,2.61,6.05,7.36,6.55,2.52
				c-0.71,13.45,9.42,29.881,6.6,41.33c4.06,5.351,3.28-8.97,10.96-2.189c-3.45,1.67-3.27,6.95-8.77,6.57
				c6.56,6.25,4.58,21.22,2.19,30.689c1.23,4.96,3.42-2.65,6.58,2.2c-0.12,9.37-2.94,16.05-4.38,24.11
				c-2.88-0.771-3.45-3.86-6.58-4.381c1.7,23.811-20.46,12.91-24.11,28.49c-7.86-0.26-9.29-6.64-15.35,0
				c-5.04-1.729,3.77-7.66,4.39-10.96c-6.4,3.11-10.78,8.22-19.73,8.771c-6.59-6.101-9.43-23.07-2.2-30.69
				c8.77,0.73,12.17-3.91,21.93-2.19c48.6-56.989-5.61-94.84-15.35-151.26c-8.6-49.8-66.62-68.6-41.65-116.189
				C61.5,378.25,71.59,329.8,59.04,284.41c-0.36-2.57-4-1.85-6.58-2.19c4.73-17.39-3.04-27.78-4.39-52.62
				c8.01,0.04,9.85,6.23,15.35,8.77c18.28-5.54,21.57-23.34,28.5-35.07c-10.04-10.85-44.51-14.81-48.23,2.19
				c-4.97-2.33-0.83-13.78-2.19-19.73c-20.8-14.69-8.08-50.72-19.73-72.34c1.49-27.44-1.85-69.33,10.96-96.46
				c35,16.89,49.23,54.54,72.34,83.3c1.6,5.99-4.35,4.42-4.38,8.77c25.18,1.27,41.53-1.92,63.57,2.19c2.98-0.67,1.82-5.48,2.19-8.76
				c9.11,6.97,30.5,1.65,26.31,21.92c-5.09-1.18-15.11,3.54-8.77,6.57c-0.03,5.16-5.98-0.8-4.38-4.38
				c-10.44,10.58,15.5,26.95,2.19,39.46c6.87,11.4,18.1,18.44,26.3,28.5c-16.48-0.01-44.96-10.25-54.8,13.15
				c15.54,7.49,2.42,36.15,15.35,37.27c-4,6-14.33,8.08-13.16,13.15c-6.2,0.35-5.1-6.58-10.96-6.58c1-23.38-43.59-30.1-52.61-10.96
				c1,18.74,2.84,32.15-6.58,43.85c6.81,4.15,12.18,9.75,21.92,10.96c3.41,7.79-7.44,1.32-6.57,6.57
				c22.13,7.25,19.12,31.86,46.03,37.27c-1.1,9.86-9.42,12.5-17.53,15.35c0,4.38,0,8.77,0,13.15c6.06,2.02,13.8,8.72,28.49,4.38
				c-0.41-7.13-3.81-1.58-10.96-4.38c11.85-2.77,20.57-8.66,28.5-15.34c3.31,10.73,2.52,33,2.19,46.03c5.29,0.899,4.77-4,10.96-2.19
				c-2.44-3.4-7.12-4.57-6.57-10.96c7.51,6.15,6.77,0.59,10.96-6.58c6.22-0.37,4.28,7.41,13.15,4.39c-0.95,2.69-2.8,4.5-6.57,4.38
				c3.54,3.31,11.4,8.07,6.57,13.15c22.02,4.29,34.18,18.44,41.65,37.271c16.54-5.46,23.85,14.27,21.93,28.5c-2.93,0-5.85,0-8.77,0
				c1.59,6.35-6.01,30.88-10.96,30.689c2.13,9.24,2.69,11.09-2.2,17.54c0.9,4.22,8.5,1.73,6.58,8.771
				c-9.59-6.48-1.84,4.97-8.77,8.76c0.96,3.26,2.81-0.86,6.58,0c-3.28,14.91,10.19,22.51,6.57,30.689
				c9.25,3.41-0.48-12.17,8.77-8.76c-6.49,8.3,13.7,3.51,13.16-2.2C286.85,554.3,277.66,558.98,273.87,558.43z M166.45,461.97
				c4.64-8.96,11.08-20.54,2.2-28.489c-3.42,10.149-10.68,22.71-6.58,28.489C162.53,459.33,164.5,460.63,166.45,461.97z
				 M142.34,525.55c5.6-7.21-5.19-12.67-8.77-17.54C133.27,517.08,138.55,520.56,142.34,525.55z M67.8,135.34
				c3.04-17.4,14.82-30.31,21.93-37.27c-6.12-26.76-27.36-38.4-35.08-63.57c-9.73-2.61-28.74,1.07-24.11,10.96
				c-1.6-3.58,4.35-9.54,4.38-4.38c-16.17,29.67-0.17,84.75,2.19,113.99C54.46,155.61,49.9,134.24,67.8,135.34z"/>
			<path fill="none" d="M686,6c0,260.14,0,520.28,0,780.42c-224.33,0-448.67,0-673,0c0-257.95,0-515.9,0-773.84
				C12.81,9.47,12.64,6.37,15.19,6C238.79,6,462.4,6,686,6z M681.62,676.81c4.77-48.979-21.351-101.859-6.58-138.109
				c-8.63-8.23-26.97-15.73-35.08-28.5c-4.41-6.96-3.86-17.84-8.76-30.69c-3.95-10.319-13.3-19.91-15.351-28.5
				c-5.08-21.3,1.141-47.8-6.58-70.15c-9.89-28.66-36.409-54.66-39.46-74.53c-2.159-14.13,3.37-29.09,2.2-41.65
				c-3.779-40.51-26.069-59.77-50.42-85.5C447.86,157.57,377.98,197.83,394.44,280.02c-57.28,7.59-86.45-12.93-135.92-13.15
				c2.06-17.82-19.56-25.75-21.92-41.65c-3.72-25.08,23.54-40.03,28.5-61.38c2.93-12.61-2.75-25.14-2.19-37.27
				c1.99-43.3,7.1-91.45-24.12-118.38c-42.72,15.73-57.57,59.34-81.11,94.27c-15,0.56-30.54-5.65-43.84,0
				c-6.69-5.97-6.24-16.33-10.96-24.12C93.7,63.2,58.26,11.35,39.31,10.38C22.84,9.54,17.25,37.09,15.19,58.61
				c-3.8,39.79,3.21,110.65,17.54,131.53c8.66,32.67,6.2,69.89,15.34,100.84c1.99,6.72,7.12,11.2,8.77,17.54
				c5.85,22.43,0.95,53.88,8.77,76.73c4.74,13.83,16.28,23.61,17.54,35.07c0.87,7.899-5.12,18.04-4.38,26.31
				c1.98,22.25,26.79,48.41,37.26,70.15c7.15,14.83,10.97,34.989,19.73,52.609c18.6,37.38,39.29,62.801,13.16,111.801
				c-13.73-0.57-23.42,2.89-30.7,8.77c-6.82,61.46,69.71,48.08,83.31,15.35c3.26-7.85,0.88-23.699,4.38-37.27
				c2.23-8.63,8-14.86,8.77-21.92c3.33-30.37-12.94-61.53-8.77-85.5c8.52,5.37,25.91,1.86,32.88,8.77
				c-3.11,40.79,3.94,74.091,0,109.61c-3.78,34.11-37.52,47.25-39.45,81.11c22.73,17.27,41.56,28.68,72.34,13.149
				c11.55-70.16,41.96-118.109,43.84-192.91c8.78-10.949,13.48-25.979,21.92-37.27c31.69,4.14,59.96-22.41,83.31-21.92
				c15.65,0.33,24.73,13.89,37.26,21.92c14.76,9.47,32.91,11.68,35.08,28.5c5.891,45.75-53.17,35.28-43.85,81.11
				c25.47,6.569,55.58,0.5,67.96-13.15c3.7-39.42,23.71-62.51,41.649-87.69c17.24,12,40.62,17.841,61.391,26.311
				c6.859,22.14,22.25,32.85,17.529,57c-2.39,12.24-30.05,29.78-15.34,48.22C635.56,697.03,674.48,694.12,681.62,676.81z"/>
			<path d="M177.39,596.02c-0.5,4.841-7.21,0.091-6.55-2.52c2.67-0.24,5.19-0.65,4.38-4.38c-14.37-11.93-15.62-37-24.11-54.8
				c7.69-1.061,7.21-2.54,13.15,0c-1.71-13.67-21.72-20.62-19.73-30.69c27.23,19.53,65.34,28.19,92.07,48.22
				c-1.52,3.87-2.42,6.79,0,8.771c15.81,2.64,6.22,33.36,6.58,46.04c0.81,28.32,8.63,74.51-4.39,100.84
				c-8.44,17.08-31.02,22.16-30.69,43.84c1.61-5.81,14.45-11.71,17.54-8.77c0.49,4.149-2.47,4.84-2.19,8.77
				c8.18-2.33,3.47,8.22,10.96,6.58c2.41-5.63,8.44-7.64,13.15-10.96c-3.08,9.66,7.22,5.94,13.16,6.58
				c16.15-24.21,20.96-83.39,24.11-107.42c-3.85,4.92-1.78,15.75-10.96,15.34c-3.17-4.36,2.28-7.67-4.38-10.96
				c12.96-10.51,10.22-25.35,13.15-30.69c3.22-8.34-9.8-0.43-6.58-8.77c-1.93-7.04,7.23-3,6.58-8.771
				c-6.92-1.109-6.07-10.01-8.77-15.34c7.68,2.061,0.62-11.87,0-15.35c7.04-4.19,5.74-4.021,10.96-10.96
				c-0.71-7.28-9.56,5.77-10.96-2.19c3.79,0.551,12.98-4.13,6.58-6.58c0.54,5.71-19.65,10.5-13.16,2.2
				c-9.25-3.41,0.48,12.17-8.77,8.76c3.62-8.18-9.85-15.779-6.57-30.689c-3.77-0.86-5.62,3.26-6.58,0
				c6.93-3.79-0.82-15.24,8.77-8.76c1.92-7.04-5.68-4.551-6.58-8.771c4.89-6.45,4.33-8.3,2.2-17.54
				c4.95,0.19,12.55-24.34,10.96-30.689c2.92,0,5.84,0,8.77,0c1.92-14.23-5.39-33.96-21.93-28.5
				c-7.47-18.83-19.63-32.98-41.65-37.271c4.83-5.08-3.03-9.84-6.57-13.15c3.77,0.12,5.62-1.69,6.57-4.38
				c-8.87,3.02-6.93-4.76-13.15-4.39c-4.19,7.17-3.45,12.73-10.96,6.58c-0.55,6.39,4.13,7.56,6.57,10.96
				c-6.19-1.81-5.67,3.09-10.96,2.19c0.33-13.03,1.12-35.3-2.19-46.03c-7.93,6.68-16.65,12.57-28.5,15.34
				c7.15,2.8,10.55-2.75,10.96,4.38c-14.69,4.34-22.43-2.36-28.49-4.38c0-4.38,0-8.77,0-13.15c8.11-2.85,16.43-5.49,17.53-15.35
				c-26.91-5.41-23.9-30.02-46.03-37.27c-0.87-5.25,9.98,1.22,6.57-6.57c-9.74-1.21-15.11-6.81-21.92-10.96
				c9.42-11.7,7.58-25.11,6.58-43.85c9.02-19.14,53.61-12.42,52.61,10.96c5.86,0,4.76,6.93,10.96,6.58
				c-1.17-5.07,9.16-7.15,13.16-13.15c-12.93-1.12,0.19-29.78-15.35-37.27c9.84-23.4,38.32-13.16,54.8-13.15
				c-8.2-10.06-19.43-17.1-26.3-28.5c13.31-12.51-12.63-28.88-2.19-39.46c-1.6,3.58,4.35,9.54,4.38,4.38
				c-6.34-3.03,3.68-7.75,8.77-6.57c4.19-20.27-17.2-14.95-26.31-21.92c-0.37,3.28,0.79,8.09-2.19,8.76
				c-22.04-4.11-38.39-0.92-63.57-2.19c0.03-4.35,5.98-2.78,4.38-8.77C81.96,71.5,67.73,33.85,32.73,16.96
				c-12.81,27.13-9.47,69.02-10.96,96.46c11.65,21.62-1.07,57.65,19.73,72.34c1.36,5.95-2.78,17.4,2.19,19.73
				c3.72-17,38.19-13.04,48.23-2.19c-6.93,11.73-10.22,29.53-28.5,35.07c-5.5-2.54-7.34-8.73-15.35-8.77
				c1.35,24.84,9.12,35.23,4.39,52.62c2.58,0.34,6.22-0.38,6.58,2.19c12.55,45.39,2.46,93.84,32.88,135.91
				c-24.97,47.59,33.05,66.39,41.65,116.189c9.74,56.42,63.95,94.271,15.35,151.26c-9.76-1.72-13.16,2.921-21.93,2.19
				c-7.23,7.62-4.39,24.59,2.2,30.69c8.95-0.551,13.33-5.66,19.73-8.771c-0.62,3.3-9.43,9.23-4.39,10.96
				c6.06-6.64,7.49-0.26,15.35,0c3.65-15.58,25.81-4.68,24.11-28.49c3.13,0.521,3.7,3.61,6.58,4.381
				c1.44-8.061,4.26-14.74,4.38-24.11c-3.16-4.851-5.35,2.76-6.58-2.2c2.39-9.47,4.37-24.439-2.19-30.689
				c5.5,0.38,5.32-4.9,8.77-6.57c-7.68-6.78-6.9,7.54-10.96,2.189C186.81,625.9,176.68,609.47,177.39,596.02z M675.04,538.7
				c-14.771,36.25,11.35,89.13,6.58,138.109c-7.14,17.311-46.061,20.221-59.19,6.57c-14.71-18.439,12.95-35.979,15.34-48.22
				c4.721-24.15-10.67-34.86-17.529-57c-20.771-8.47-44.15-14.311-61.391-26.311C540.91,577.03,520.9,600.12,517.2,639.54
				c-12.38,13.65-42.49,19.72-67.96,13.15c-9.32-45.83,49.74-35.36,43.85-81.11c-2.17-16.82-20.32-19.03-35.08-28.5
				c-12.529-8.03-21.609-21.59-37.26-21.92c-23.35-0.49-51.62,26.06-83.31,21.92c-8.44,11.29-13.14,26.32-21.92,37.27
				c-1.88,74.801-32.29,122.75-43.84,192.91c-30.78,15.53-49.61,4.12-72.34-13.149c1.93-33.86,35.67-47,39.45-81.11
				c3.94-35.52-3.11-68.82,0-109.61c-6.97-6.909-24.36-3.399-32.88-8.77c-4.17,23.97,12.1,55.13,8.77,85.5
				c-0.77,7.06-6.54,13.29-8.77,21.92c-3.5,13.57-1.12,29.42-4.38,37.27c-13.6,32.73-90.13,46.11-83.31-15.35
				c7.28-5.88,16.97-9.34,30.7-8.77c26.13-49,5.44-74.421-13.16-111.801c-8.76-17.62-12.58-37.779-19.73-52.609
				c-10.47-21.74-35.28-47.9-37.26-70.15c-0.74-8.27,5.25-18.41,4.38-26.31c-1.26-11.46-12.8-21.24-17.54-35.07
				c-7.82-22.85-2.92-54.3-8.77-76.73c-1.65-6.34-6.78-10.82-8.77-17.54c-9.14-30.95-6.68-68.17-15.34-100.84
				C18.4,169.26,11.39,98.4,15.19,58.61c2.06-21.52,7.65-49.07,24.12-48.23c18.95,0.97,54.39,52.82,63.57,67.96
				c4.72,7.79,4.27,18.15,10.96,24.12c13.3-5.65,28.84,0.56,43.84,0c23.54-34.93,38.39-78.54,81.11-94.27
				c31.22,26.93,26.11,75.08,24.12,118.38c-0.56,12.13,5.12,24.66,2.19,37.27c-4.96,21.35-32.22,36.3-28.5,61.38
				c2.36,15.9,23.98,23.83,21.92,41.65c49.47,0.22,78.64,20.74,135.92,13.15c-16.46-82.19,53.42-122.45,127.149-100.84
				c24.351,25.73,46.641,44.99,50.42,85.5c1.17,12.56-4.359,27.52-2.2,41.65c3.051,19.87,29.57,45.87,39.46,74.53
				c7.721,22.35,1.5,48.85,6.58,70.15c2.051,8.59,11.4,18.181,15.351,28.5c4.899,12.851,4.35,23.73,8.76,30.69
				C648.07,522.97,666.41,530.47,675.04,538.7z M664.08,657.08c-1.7,0.49-4.33,0.06-4.39,2.189c2.649,0.461,1.35,2.431,0,4.391
				c13.39-1.311,7-16.79,0-19.73c-5,9-16.341-1.859-21.921,6.57c6.99-1.87,8.32,1.91,10.961,4.39c0.489-1.699,0.06-4.33,2.199-4.39
				c4.4,4.47-0.97,4.3-2.199,8.77C654.25,658.35,661.38,647.87,664.08,657.08z M644.35,672.42c0.32-5.43,0.41-10.63-4.39-10.96
				c1.93,7.05-7.22,3.01-6.57,8.771C635.93,672.07,639.27,673.12,644.35,672.42z M558.85,260.29
				c8.061-39.54-32.58-65.66-59.18-78.92c-8.85,0.68-26.6,1.44-37.27-2.19c-13.75,18.23-44.46,18.33-54.811,41.65
				c2.58,0.35,6.23-0.37,6.58,2.2c-3.28,2.56-8.97,2.72-10.96,6.57c10.18,5.37-14.76,15.68,0,24.12
				c-10.77,9.82,4.771,8.22-4.39,15.34c10.319,4.68,12.529,8.38,6.58,17.54c7.52-1.98,14.159-4.84,19.729-8.77
				c0.33,2.92-8.91,6.62-2.189,8.77c4.96-10.76,19.31-20.06,24.109-24.11c-3.2-6.02,12.46-25.96,2.19-32.89
				c9.63-6.45,22.029-10.12,30.7-17.53c13.56,9.93,46.069-0.75,43.84,32.88c-5.431,3.88-13.04-3.12-15.351,6.57
				c7.86,5.31,4.261,12.94,15.351,17.54c-6.16,3.69,0.35,11.2-6.58,6.58c0.569,6.42-4.95,6.73-4.38,13.15
				c7.79-2.84,7.97-4.95,17.54-2.19c-1.83-7.04-1.87-4.55,2.189-8.77c-3.28-0.37-8.09,0.78-8.77-2.19c4.31,0.65,4.35-2.96,6.58-4.39
				c0.239,2.68,0.649,5.19,4.38,4.39C539.25,262.88,545.05,260.08,558.85,260.29z M508.43,275.64c1.96-15.84-9.069-18.7-13.149-28.5
				c-23.98-2.79-35.03,7.36-35.07,28.5C471.68,279.21,496.96,279.21,508.43,275.64z M468.97,624.2
				c11.92,3.06,17.3-11.83,15.351-15.351C481.44,616.2,472.97,617.96,468.97,624.2z M247.56,124.38c10.49-1.21,11-12.38,10.96-24.12
				c-3.77-0.86-5.62,3.26-6.57,0c1.34-0.12,2.59-0.32,2.19-2.19C240.63,103.96,249.67,119.29,247.56,124.38z M251.95,95.88
				c0.48-1.71,1.83-2.55,4.38-2.19c-4.21-5.47,3.35-9.01-2.19-13.16C254.36,89.22,249.21,91.02,251.95,95.88z M238.79,179.18
				c4.31-11.07,25.09-17.24,15.35-35.07c0.94,6.15-8.17-5.5-8.77,2.19c4.76-0.37,0.99,7.78,2.19,10.96
				c-9.22-3.38-0.34,11.34-6.57,10.96c-2.53-13.33-22.57-8.47-15.35-26.3c-6.39-0.55-7.56,4.12-10.96,6.57
				c-4.93-9.13-14.29-9.31-13.15-19.73c-0.47,2.65-2.44,1.35-4.39,0C194.27,154.06,226.07,162.31,238.79,179.18z M254.14,63
				c-1.94-17.79-6.56-32.9-13.15-46.04c-4.39,0-8.77,0-13.16,0c-19.82,26.95-43.98,49.55-56.99,83.3
				c24.7-23.86,36.68-76.75,72.34-61.38C237.41,41.02,244.92,61.88,254.14,63z M183.99,589.12c3.86-12.57-5.36-17.43,2.19-26.311
				c-3.39-2.439-4.56-7.119-10.96-6.569C173.28,564.05,175.32,584.81,183.99,589.12z M177.41,249.33c-0.8-6.5-3.8-10.81-8.76-13.15
				C169.03,243.1,170.19,249.25,177.41,249.33z"/>
			<path d="M168.65,433.48c8.88,7.949,2.44,19.529-2.2,28.489c-1.95-1.34-3.92-2.64-4.38,0
				C157.97,456.19,165.23,443.63,168.65,433.48z"/>
			<path d="M133.57,508.01c3.58,4.87,14.37,10.33,8.77,17.54C138.55,520.56,133.27,517.08,133.57,508.01z"/>
			<path d="M89.73,98.07c-7.11,6.96-18.89,19.87-21.93,37.27c-17.9-1.1-13.34,20.27-30.69,19.73
				c-2.36-29.24-18.36-84.32-2.19-113.99c-0.03-5.16-5.98,0.8-4.38,4.38c-4.63-9.89,14.38-13.57,24.11-10.96
				C62.37,59.67,83.61,71.31,89.73,98.07z"/>
		</g>
	</g>
</g>
<g id="Layer_2_x23_FFFFFF">
	<g>
		<g>
			<path fill="none" d="M177.39,596.02c-0.5,4.841-7.21,0.091-6.55-2.52c2.67-0.24,5.19-0.65,4.38-4.38
				c-14.37-11.93-15.62-37-24.11-54.8c7.69-1.061,7.21-2.54,13.15,0c-1.71-13.67-21.72-20.62-19.73-30.69
				c27.23,19.53,65.34,28.19,92.07,48.22c-1.52,3.87-2.42,6.79,0,8.771c15.81,2.64,6.22,33.36,6.58,46.04
				c0.81,28.32,8.63,74.51-4.39,100.84c-8.44,17.08-31.02,22.16-30.69,43.84c1.61-5.81,14.45-11.71,17.54-8.77
				c0.49,4.149-2.47,4.84-2.19,8.77c8.18-2.33,3.47,8.22,10.96,6.58c2.41-5.63,8.44-7.64,13.15-10.96
				c-3.08,9.66,7.22,5.94,13.16,6.58c16.15-24.21,20.96-83.39,24.11-107.42c-3.85,4.92-1.78,15.75-10.96,15.34
				c-3.17-4.36,2.28-7.67-4.38-10.96c12.96-10.51,10.22-25.35,13.15-30.69c3.22-8.34-9.8-0.43-6.58-8.77
				c-1.93-7.04,7.23-3,6.58-8.771c-6.92-1.109-6.07-10.01-8.77-15.34c7.68,2.061,0.62-11.87,0-15.35
				c7.04-4.19,5.74-4.021,10.96-10.96c-0.71-7.28-9.56,5.77-10.96-2.19c3.79,0.551,12.98-4.13,6.58-6.58
				c0.54,5.71-19.65,10.5-13.16,2.2c-9.25-3.41,0.48,12.17-8.77,8.76c3.62-8.18-9.85-15.779-6.57-30.689
				c-3.77-0.86-5.62,3.26-6.58,0c6.93-3.79-0.82-15.24,8.77-8.76c1.92-7.04-5.68-4.551-6.58-8.771c4.89-6.45,4.33-8.3,2.2-17.54
				c4.95,0.19,12.55-24.34,10.96-30.689c2.92,0,5.84,0,8.77,0c1.92-14.23-5.39-33.96-21.93-28.5
				c-7.47-18.83-19.63-32.98-41.65-37.271c4.83-5.08-3.03-9.84-6.57-13.15c3.77,0.12,5.62-1.69,6.57-4.38
				c-8.87,3.02-6.93-4.76-13.15-4.39c-4.19,7.17-3.45,12.73-10.96,6.58c-0.55,6.39,4.13,7.56,6.57,10.96
				c-6.19-1.81-5.67,3.09-10.96,2.19c0.33-13.03,1.12-35.3-2.19-46.03c-7.93,6.68-16.65,12.57-28.5,15.34
				c7.15,2.8,10.55-2.75,10.96,4.38c-14.69,4.34-22.43-2.36-28.49-4.38c0-4.38,0-8.77,0-13.15c8.11-2.85,16.43-5.49,17.53-15.35
				c-26.91-5.41-23.9-30.02-46.03-37.27c-0.87-5.25,9.98,1.22,6.57-6.57c-9.74-1.21-15.11-6.81-21.92-10.96
				c9.42-11.7,7.58-25.11,6.58-43.85c9.02-19.14,53.61-12.42,52.61,10.96c5.86,0,4.76,6.93,10.96,6.58
				c-1.17-5.07,9.16-7.15,13.16-13.15c-12.93-1.12,0.19-29.78-15.35-37.27c9.84-23.4,38.32-13.16,54.8-13.15
				c-8.2-10.06-19.43-17.1-26.3-28.5c13.31-12.51-12.63-28.88-2.19-39.46c-1.6,3.58,4.35,9.54,4.38,4.38
				c-6.34-3.03,3.68-7.75,8.77-6.57c4.19-20.27-17.2-14.95-26.31-21.92c-0.37,3.28,0.79,8.09-2.19,8.76
				c-22.04-4.11-38.39-0.92-63.57-2.19c0.03-4.35,5.98-2.78,4.38-8.77C81.96,71.5,67.73,33.85,32.73,16.96
				c-12.81,27.13-9.47,69.02-10.96,96.46c11.65,21.62-1.07,57.65,19.73,72.34c1.36,5.95-2.78,17.4,2.19,19.73
				c3.72-17,38.19-13.04,48.23-2.19c-6.93,11.73-10.22,29.53-28.5,35.07c-5.5-2.54-7.34-8.73-15.35-8.77
				c1.35,24.84,9.12,35.23,4.39,52.62c2.58,0.34,6.22-0.38,6.58,2.19c12.55,45.39,2.46,93.84,32.88,135.91
				c-24.97,47.59,33.05,66.39,41.65,116.189c9.74,56.42,63.95,94.271,15.35,151.26c-9.76-1.72-13.16,2.921-21.93,2.19
				c-7.23,7.62-4.39,24.59,2.2,30.69c8.95-0.551,13.33-5.66,19.73-8.771c-0.62,3.3-9.43,9.23-4.39,10.96
				c6.06-6.64,7.49-0.26,15.35,0c3.65-15.58,25.81-4.68,24.11-28.49c3.13,0.521,3.7,3.61,6.58,4.381
				c1.44-8.061,4.26-14.74,4.38-24.11c-3.16-4.851-5.35,2.76-6.58-2.2c2.39-9.47,4.37-24.439-2.19-30.689
				c5.5,0.38,5.32-4.9,8.77-6.57c-7.68-6.78-6.9,7.54-10.96,2.189C186.81,625.9,176.68,609.47,177.39,596.02z M675.04,538.7
				c-14.771,36.25,11.35,89.13,6.58,138.109c-7.14,17.311-46.061,20.221-59.19,6.57c-14.71-18.439,12.95-35.979,15.34-48.22
				c4.721-24.15-10.67-34.86-17.529-57c-20.771-8.47-44.15-14.311-61.391-26.311C540.91,577.03,520.9,600.12,517.2,639.54
				c-12.38,13.65-42.49,19.72-67.96,13.15c-9.32-45.83,49.74-35.36,43.85-81.11c-2.17-16.82-20.32-19.03-35.08-28.5
				c-12.529-8.03-21.609-21.59-37.26-21.92c-23.35-0.49-51.62,26.06-83.31,21.92c-8.44,11.29-13.14,26.32-21.92,37.27
				c-1.88,74.801-32.29,122.75-43.84,192.91c-30.78,15.53-49.61,4.12-72.34-13.149c1.93-33.86,35.67-47,39.45-81.11
				c3.94-35.52-3.11-68.82,0-109.61c-6.97-6.909-24.36-3.399-32.88-8.77c-4.17,23.97,12.1,55.13,8.77,85.5
				c-0.77,7.06-6.54,13.29-8.77,21.92c-3.5,13.57-1.12,29.42-4.38,37.27c-13.6,32.73-90.13,46.11-83.31-15.35
				c7.28-5.88,16.97-9.34,30.7-8.77c26.13-49,5.44-74.421-13.16-111.801c-8.76-17.62-12.58-37.779-19.73-52.609
				c-10.47-21.74-35.28-47.9-37.26-70.15c-0.74-8.27,5.25-18.41,4.38-26.31c-1.26-11.46-12.8-21.24-17.54-35.07
				c-7.82-22.85-2.92-54.3-8.77-76.73c-1.65-6.34-6.78-10.82-8.77-17.54c-9.14-30.95-6.68-68.17-15.34-100.84
				C18.4,169.26,11.39,98.4,15.19,58.61c2.06-21.52,7.65-49.07,24.12-48.23c18.95,0.97,54.39,52.82,63.57,67.96
				c4.72,7.79,4.27,18.15,10.96,24.12c13.3-5.65,28.84,0.56,43.84,0c23.54-34.93,38.39-78.54,81.11-94.27
				c31.22,26.93,26.11,75.08,24.12,118.38c-0.56,12.13,5.12,24.66,2.19,37.27c-4.96,21.35-32.22,36.3-28.5,61.38
				c2.36,15.9,23.98,23.83,21.92,41.65c49.47,0.22,78.64,20.74,135.92,13.15c-16.46-82.19,53.42-122.45,127.149-100.84
				c24.351,25.73,46.641,44.99,50.42,85.5c1.17,12.56-4.359,27.52-2.2,41.65c3.051,19.87,29.57,45.87,39.46,74.53
				c7.721,22.35,1.5,48.85,6.58,70.15c2.051,8.59,11.4,18.181,15.351,28.5c4.899,12.851,4.35,23.73,8.76,30.69
				C648.07,522.97,666.41,530.47,675.04,538.7z M664.08,657.08c-1.7,0.49-4.33,0.06-4.39,2.189c2.649,0.461,1.35,2.431,0,4.391
				c13.39-1.311,7-16.79,0-19.73c-5,9-16.341-1.859-21.921,6.57c6.99-1.87,8.32,1.91,10.961,4.39c0.489-1.699,0.06-4.33,2.199-4.39
				c4.4,4.47-0.97,4.3-2.199,8.77C654.25,658.35,661.38,647.87,664.08,657.08z M644.35,672.42c0.32-5.43,0.41-10.63-4.39-10.96
				c1.93,7.05-7.22,3.01-6.57,8.771C635.93,672.07,639.27,673.12,644.35,672.42z M558.85,260.29
				c8.061-39.54-32.58-65.66-59.18-78.92c-8.85,0.68-26.6,1.44-37.27-2.19c-13.75,18.23-44.46,18.33-54.811,41.65
				c2.58,0.35,6.23-0.37,6.58,2.2c-3.28,2.56-8.97,2.72-10.96,6.57c10.18,5.37-14.76,15.68,0,24.12
				c-10.77,9.82,4.771,8.22-4.39,15.34c10.319,4.68,12.529,8.38,6.58,17.54c7.52-1.98,14.159-4.84,19.729-8.77
				c0.33,2.92-8.91,6.62-2.189,8.77c4.96-10.76,19.31-20.06,24.109-24.11c-3.2-6.02,12.46-25.96,2.19-32.89
				c9.63-6.45,22.029-10.12,30.7-17.53c13.56,9.93,46.069-0.75,43.84,32.88c-5.431,3.88-13.04-3.12-15.351,6.57
				c7.86,5.31,4.261,12.94,15.351,17.54c-6.16,3.69,0.35,11.2-6.58,6.58c0.569,6.42-4.95,6.73-4.38,13.15
				c7.79-2.84,7.97-4.95,17.54-2.19c-1.83-7.04-1.87-4.55,2.189-8.77c-3.28-0.37-8.09,0.78-8.77-2.19c4.31,0.65,4.35-2.96,6.58-4.39
				c0.239,2.68,0.649,5.19,4.38,4.39C539.25,262.88,545.05,260.08,558.85,260.29z M508.43,275.64c1.96-15.84-9.069-18.7-13.149-28.5
				c-23.98-2.79-35.03,7.36-35.07,28.5C471.68,279.21,496.96,279.21,508.43,275.64z M468.97,624.2
				c11.92,3.06,17.3-11.83,15.351-15.351C481.44,616.2,472.97,617.96,468.97,624.2z M247.56,124.38c10.49-1.21,11-12.38,10.96-24.12
				c-3.77-0.86-5.62,3.26-6.57,0c1.34-0.12,2.59-0.32,2.19-2.19C240.63,103.96,249.67,119.29,247.56,124.38z M251.95,95.88
				c0.48-1.71,1.83-2.55,4.38-2.19c-4.21-5.47,3.35-9.01-2.19-13.16C254.36,89.22,249.21,91.02,251.95,95.88z M238.79,179.18
				c4.31-11.07,25.09-17.24,15.35-35.07c0.94,6.15-8.17-5.5-8.77,2.19c4.76-0.37,0.99,7.78,2.19,10.96
				c-9.22-3.38-0.34,11.34-6.57,10.96c-2.53-13.33-22.57-8.47-15.35-26.3c-6.39-0.55-7.56,4.12-10.96,6.57
				c-4.93-9.13-14.29-9.31-13.15-19.73c-0.47,2.65-2.44,1.35-4.39,0C194.27,154.06,226.07,162.31,238.79,179.18z M254.14,63
				c-1.94-17.79-6.56-32.9-13.15-46.04c-4.39,0-8.77,0-13.16,0c-19.82,26.95-43.98,49.55-56.99,83.3
				c24.7-23.86,36.68-76.75,72.34-61.38C237.41,41.02,244.92,61.88,254.14,63z M183.99,589.12c3.86-12.57-5.36-17.43,2.19-26.311
				c-3.39-2.439-4.56-7.119-10.96-6.569C173.28,564.05,175.32,584.81,183.99,589.12z M177.41,249.33c-0.8-6.5-3.8-10.81-8.76-13.15
				C169.03,243.1,170.19,249.25,177.41,249.33z"/>
			<path fill="#FFFFFF" d="M659.69,659.27c0.06-2.13,2.689-1.699,4.39-2.189c-2.7-9.21-9.83,1.27-15.35,2.189
				c1.229-4.47,6.6-4.3,2.199-8.77c-2.14,0.06-1.71,2.69-2.199,4.39c-2.641-2.479-3.971-6.26-10.961-4.39
				c5.58-8.43,16.921,2.43,21.921-6.57c7,2.94,13.39,18.42,0,19.73C661.04,661.7,662.34,659.73,659.69,659.27z"/>
			<path fill="#FFFFFF" d="M639.96,661.46c4.8,0.33,4.71,5.53,4.39,10.96c-5.08,0.7-8.42-0.35-10.96-2.189
				C632.74,664.47,641.89,668.51,639.96,661.46z"/>
			<path fill="#FFFFFF" d="M499.67,181.37c26.6,13.26,67.24,39.38,59.18,78.92c-13.8-0.21-19.6,2.59-24.109,15.35
				c-3.73,0.8-4.141-1.71-4.38-4.39c-2.23,1.43-2.271,5.04-6.58,4.39c0.68,2.97,5.489,1.82,8.77,2.19
				c-4.06,4.22-4.02,1.73-2.189,8.77c-9.57-2.76-9.75-0.65-17.54,2.19c-0.57-6.42,4.949-6.73,4.38-13.15
				c6.93,4.62,0.42-2.89,6.58-6.58c-11.09-4.6-7.49-12.23-15.351-17.54c2.311-9.69,9.92-2.69,15.351-6.57
				c2.229-33.63-30.28-22.95-43.84-32.88c-8.671,7.41-21.07,11.08-30.7,17.53c10.27,6.93-5.391,26.87-2.19,32.89
				c-4.8,4.05-19.149,13.35-24.109,24.11c-6.721-2.15,2.52-5.85,2.189-8.77c-5.57,3.93-12.21,6.79-19.729,8.77
				c5.949-9.16,3.739-12.86-6.58-17.54c9.16-7.12-6.38-5.52,4.39-15.34c-14.76-8.44,10.18-18.75,0-24.12
				c1.99-3.85,7.68-4.01,10.96-6.57c-0.35-2.57-4-1.85-6.58-2.2c10.351-23.32,41.061-23.42,54.811-41.65
				C473.07,182.81,490.82,182.05,499.67,181.37z"/>
			<path fill="#FFFFFF" d="M495.28,247.14c4.08,9.8,15.109,12.66,13.149,28.5c-11.47,3.57-36.75,3.57-48.22,0
				C460.25,254.5,471.3,244.35,495.28,247.14z"/>
			<path fill="#FFFFFF" d="M484.32,608.85c1.949,3.521-3.431,18.41-15.351,15.351C472.97,617.96,481.44,616.2,484.32,608.85z"/>
			<path fill="#FFFFFF" d="M273.87,558.43c1.4,7.96,10.25-5.09,10.96,2.19c-5.22,6.939-3.92,6.77-10.96,10.96
				c0.62,3.479,7.68,17.41,0,15.35c2.7,5.33,1.85,14.23,8.77,15.34c0.65,5.771-8.51,1.73-6.58,8.771c-3.22,8.34,9.8,0.43,6.58,8.77
				c-2.93,5.341-0.19,20.181-13.15,30.69c6.66,3.29,1.21,6.6,4.38,10.96c9.18,0.41,7.11-10.42,10.96-15.34
				c-3.15,24.03-7.96,83.21-24.11,107.42c-5.94-0.64-16.24,3.08-13.16-6.58c-4.71,3.32-10.74,5.33-13.15,10.96
				c-7.49,1.64-2.78-8.91-10.96-6.58c-0.28-3.93,2.68-4.62,2.19-8.77c-3.09-2.94-15.93,2.96-17.54,8.77
				c-0.33-21.68,22.25-26.76,30.69-43.84c13.02-26.33,5.2-72.52,4.39-100.84c-0.36-12.68,9.23-43.4-6.58-46.04
				c-2.42-1.98-1.52-4.9,0-8.771c-26.73-20.029-64.84-28.689-92.07-48.22c-1.99,10.07,18.02,17.021,19.73,30.69
				c-5.94-2.54-5.46-1.061-13.15,0c8.49,17.8,9.74,42.87,24.11,54.8c0.81,3.729-1.71,4.14-4.38,4.38c-0.66,2.61,6.05,7.36,6.55,2.52
				c-0.71,13.45,9.42,29.881,6.6,41.33c4.06,5.351,3.28-8.97,10.96-2.189c-3.45,1.67-3.27,6.95-8.77,6.57
				c6.56,6.25,4.58,21.22,2.19,30.689c1.23,4.96,3.42-2.65,6.58,2.2c-0.12,9.37-2.94,16.05-4.38,24.11
				c-2.88-0.771-3.45-3.86-6.58-4.381c1.7,23.811-20.46,12.91-24.11,28.49c-7.86-0.26-9.29-6.64-15.35,0
				c-5.04-1.729,3.77-7.66,4.39-10.96c-6.4,3.11-10.78,8.22-19.73,8.771c-6.59-6.101-9.43-23.07-2.2-30.69
				c8.77,0.73,12.17-3.91,21.93-2.19c48.6-56.989-5.61-94.84-15.35-151.26c-8.6-49.8-66.62-68.6-41.65-116.189
				C61.5,378.25,71.59,329.8,59.04,284.41c-0.36-2.57-4-1.85-6.58-2.19c4.73-17.39-3.04-27.78-4.39-52.62
				c8.01,0.04,9.85,6.23,15.35,8.77c18.28-5.54,21.57-23.34,28.5-35.07c-10.04-10.85-44.51-14.81-48.23,2.19
				c-4.97-2.33-0.83-13.78-2.19-19.73c-20.8-14.69-8.08-50.72-19.73-72.34c1.49-27.44-1.85-69.33,10.96-96.46
				c35,16.89,49.23,54.54,72.34,83.3c1.6,5.99-4.35,4.42-4.38,8.77c25.18,1.27,41.53-1.92,63.57,2.19c2.98-0.67,1.82-5.48,2.19-8.76
				c9.11,6.97,30.5,1.65,26.31,21.92c-5.09-1.18-15.11,3.54-8.77,6.57c-0.03,5.16-5.98-0.8-4.38-4.38
				c-10.44,10.58,15.5,26.95,2.19,39.46c6.87,11.4,18.1,18.44,26.3,28.5c-16.48-0.01-44.96-10.25-54.8,13.15
				c15.54,7.49,2.42,36.15,15.35,37.27c-4,6-14.33,8.08-13.16,13.15c-6.2,0.35-5.1-6.58-10.96-6.58c1-23.38-43.59-30.1-52.61-10.96
				c1,18.74,2.84,32.15-6.58,43.85c6.81,4.15,12.18,9.75,21.92,10.96c3.41,7.79-7.44,1.32-6.57,6.57
				c22.13,7.25,19.12,31.86,46.03,37.27c-1.1,9.86-9.42,12.5-17.53,15.35c0,4.38,0,8.77,0,13.15c6.06,2.02,13.8,8.72,28.49,4.38
				c-0.41-7.13-3.81-1.58-10.96-4.38c11.85-2.77,20.57-8.66,28.5-15.34c3.31,10.73,2.52,33,2.19,46.03c5.29,0.899,4.77-4,10.96-2.19
				c-2.44-3.4-7.12-4.57-6.57-10.96c7.51,6.15,6.77,0.59,10.96-6.58c6.22-0.37,4.28,7.41,13.15,4.39c-0.95,2.69-2.8,4.5-6.57,4.38
				c3.54,3.31,11.4,8.07,6.57,13.15c22.02,4.29,34.18,18.44,41.65,37.271c16.54-5.46,23.85,14.27,21.93,28.5c-2.93,0-5.85,0-8.77,0
				c1.59,6.35-6.01,30.88-10.96,30.689c2.13,9.24,2.69,11.09-2.2,17.54c0.9,4.22,8.5,1.73,6.58,8.771
				c-9.59-6.48-1.84,4.97-8.77,8.76c0.96,3.26,2.81-0.86,6.58,0c-3.28,14.91,10.19,22.51,6.57,30.689
				c9.25,3.41-0.48-12.17,8.77-8.76c-6.49,8.3,13.7,3.51,13.16-2.2C286.85,554.3,277.66,558.98,273.87,558.43z M166.45,461.97
				c4.64-8.96,11.08-20.54,2.2-28.489c-3.42,10.149-10.68,22.71-6.58,28.489C162.53,459.33,164.5,460.63,166.45,461.97z
				 M142.34,525.55c5.6-7.21-5.19-12.67-8.77-17.54C133.27,517.08,138.55,520.56,142.34,525.55z M67.8,135.34
				c3.04-17.4,14.82-30.31,21.93-37.27c-6.12-26.76-27.36-38.4-35.08-63.57c-9.73-2.61-28.74,1.07-24.11,10.96
				c-1.6-3.58,4.35-9.54,4.38-4.38c-16.17,29.67-0.17,84.75,2.19,113.99C54.46,155.61,49.9,134.24,67.8,135.34z"/>
			<path fill="#FFFFFF" d="M258.52,100.26c0.04,11.74-0.47,22.91-10.96,24.12c2.11-5.09-6.93-20.42,6.58-26.31
				c0.4,1.87-0.85,2.07-2.19,2.19C252.9,103.52,254.75,99.4,258.52,100.26z"/>
			<path fill="#FFFFFF" d="M256.33,93.69c-2.55-0.36-3.9,0.48-4.38,2.19c-2.74-4.86,2.41-6.66,2.19-15.35
				C259.68,84.68,252.12,88.22,256.33,93.69z"/>
			<path fill="#FFFFFF" d="M254.14,144.11c9.74,17.83-11.04,24-15.35,35.07c-12.72-16.87-44.52-25.12-41.65-50.42
				c1.95,1.35,3.92,2.65,4.39,0c-1.14,10.42,8.22,10.6,13.15,19.73c3.4-2.45,4.57-7.12,10.96-6.57
				c-7.22,17.83,12.82,12.97,15.35,26.3c6.23,0.38-2.65-14.34,6.57-10.96c-1.2-3.18,2.57-11.33-2.19-10.96
				C245.97,138.61,255.08,150.26,254.14,144.11z"/>
			<path fill="#FFFFFF" d="M240.99,16.96C247.58,30.1,252.2,45.21,254.14,63c-9.22-1.12-16.73-21.98-10.96-24.12
				c-35.66-15.37-47.64,37.52-72.34,61.38c13.01-33.75,37.17-56.35,56.99-83.3C232.22,16.96,236.6,16.96,240.99,16.96z"/>
			<path fill="#FFFFFF" d="M186.18,562.81c-7.55,8.881,1.67,13.74-2.19,26.311c-8.67-4.311-10.71-25.07-8.77-32.88
				C181.62,555.69,182.79,560.37,186.18,562.81z"/>
			<path fill="#FFFFFF" d="M168.65,236.18c4.96,2.34,7.96,6.65,8.76,13.15C170.19,249.25,169.03,243.1,168.65,236.18z"/>
		</g>
	</g>
</g>
</svg>
