<?xml version="1.0" encoding="utf-8"?>
<!-- Generator: Adobe Illustrator 14.0.0, SVG Export Plug-In . SVG Version: 6.00 Build 43363)  -->
<!DOCTYPE svg PUBLIC "-//W3C//DTD SVG 1.0//EN" "http://www.w3.org/TR/2001/REC-SVG-20010904/DTD/svg10.dtd">
<svg version="1.0" xmlns="http://www.w3.org/2000/svg" xmlns:xlink="http://www.w3.org/1999/xlink" x="0px" y="0px" width="720px"
	 height="720px" viewBox="0 0 720 720" enable-background="new 0 0 720 720" xml:space="preserve">
<g id="Layer_1_x23_000000">
	<g>
		<g>
			<path fill="none" d="M604.584,182.248c3.058,14.92,14.478,33.255,3.296,46.111c-1.448,0.929-4.7,0.054-6.04,1.091
				c-3.737,6.45-8.156,21.705-17.016,22.504c-2.96,0.27-5.283-2.236-8.232-2.193c-6.299,0.108-11.646,5.045-15.914,8.783
				c6.039,4.754,17.761,3.317,24.697,0.551c11.409,38.635-8.146,74.774-35.686,86.734c-1.729,7.606-8.395,10.264-12.067,15.925
				c-3.674,1.351-7.898-1.859-11.528-1.103c-3.954,0.821-6.72,8.373-12.63,7.682c-3.511-0.41-8.179-7.584-12.078-9.875
				c-13.948-8.189-37.241-3.695-51.049,2.193c-19.642,8.362-28.728,28.068-56.548,27.442c1.167-18.777,11.862-32.779,21.413-45.009
				c3.414,0.108,6.062,4.797,9.335,1.642c-1.643-8.427-10.091-10.037-10.987-19.209c-10.264,0.443-10.34-7.282-4.938-12.079
				c-4.387-3.987-8.719,2.647-14.272,1.653c-6.147-1.102-11.484-8.708-10.426-15.925c6.536,0.81,6.979,5.834,11.528,7.682
				c12.24,5.013,23.325-1.934,29.095-3.285c3.738-0.886,8.48-0.097,11.527-1.102c13.97-4.591,19.836-23.693,15.914-40.072
				c-3.813-15.957-25.777-38.808-41.173-41.174c-5.802-0.896-10.772,1.124-18.107-0.551c2.646-8.373,6.515-18.302,14.812-19.209
				c-3.327,7.077,0.67,19.631,9.886,18.118c7.822-1.296,5.186-14.078,0-17.567c2.96-1.07,7.271-0.778,8.232-3.846
				c-0.896-4.948-8.924-2.788-14.271-3.295c-0.249-3.728,4.278-2.679,6.039-4.386c8.092-11.874,16.887-24.914,27.453-34.043
				c7.8-6.742,22.245-12.262,37.327-9.875c9,1.426,24.816,2.117,33.481,7.13c8.719,5.045,18.01,10.264,24.157,16.476
				c1.265,1.275,2.658,5.596,4.938,6.04c8.157,1.566,7.271-13.44,12.079-17.567c5.294-4.548,10.102-3.068,17.017-3.295
				c1.534,1.394,0.756,5.099,1.652,7.13c4.538,2.236,11.96,1.588,15.914,4.397C592.916,174.891,600.263,177.052,604.584,182.248z
				 M591.966,214.627c1.652-17.47-15.536-28.544-32.391-25.249c-0.854,7.822-7.228,12.803-6.039,20.862
				c1.782,2.679,5.715,0.378,8.232,1.642c-0.184,3.295-2.637,4.311-2.193,8.233c1.091,3.122,6.072,2.344,9.335,3.295
				c1.221,1.534-0.238,5.726,1.642,6.59C579.336,228.392,590.972,225.097,591.966,214.627z M475.586,266.227
				c12.813,1.999,3.003-41.174-8.233-21.402c-22.267-2.474-10.166,26.21,4.938,15.374
				C472.885,263.699,472.798,265.795,475.586,266.227z"/>
			<path fill="none" d="M216.475,92.219c-0.897,3.306-4.884,3.533-5.489,7.13c-0.205,2.409,1.578,2.82,1.653,4.938
				c-2.831,4.311-5.456,8.827-12.079,9.334c-0.594-6.904-3.824-11.182-10.977-11.528c1.686-10.75,5.661-19.22,15.914-21.402
				C204.223,89.464,214.174,87.022,216.475,92.219z"/>
			<path fill="none" d="M436.064,100.452c0.67,16.173-4.462,37.176-15.374,45.009c-13.979,10.037-32.076-0.076-41.174-9.875
				c0.605-3.878,5.511-6.093,4.397-9.885c-10.35,1.231-18.031,15.568-17.016,26.351c4.17,0.972,4.343-6.569,7.682-8.232
				c9.15,7.93,21.845,14.391,38.429,13.17c-1.479,10.058-8.772,22.256-19.22,22.504c-7.293,0.184-9.767-9.929-17.567-6.028
				c1.923,9.604,10.631,12.424,20.312,14.272c-0.216,14.239-11.636,22.018-15.363,34.583c-7.865,2.885-12.306,12.284-20.312,15.915
				c-9.561,4.343-20.895,4.181-28.003,12.079c7.746,7.303,19.458-5.445,28.003-4.397c-2.171,12.468-5.942,25.627-0.551,37.338
				c1.318,2.863,4.387,5.067,5.488,7.682c4.646,11.085,6.645,32.639,7.682,49.407c0.896,14.423-0.097,28.198-4.387,38.429
				c-9.95-7.022-16.335,6.32-23.055,7.131c-6.007,0.724-11.431-2.69-17.016-1.091c-13.365,3.803-21.889,22.224-20.312,42.815
				c-2.291,1.383-5.661-2.183-7.692,0.551c2.496,6.764,11.506,10.944,18.669,14.272c9.497,4.397,22.472,10.814,32.39,12.079
				c17.48,2.203,33.492-1.902,46.651,6.028c11.819,8.395,0.346,14.639-1.092,24.157c-0.896,5.932,2.583,9.659-1.102,14.823
				c-5.77-6.137-3.587-23.099-14.823-21.954c0.303,9.237,11.053,28.512-3.284,32.38c-2.507-12.662-1.545-29.884-18.669-26.891
				c0.529,5.38,4.84,4.98,7.142,9.323c4.289,8.136,0.896,24.287-7.142,21.413c-6.461-2.301-1.275-21.791-12.63-18.658
				c-1.945,4.387,3.9,14.326,0,20.852c-11.831-10.599-24.784-12.208-37.879-19.76c-5.25-3.025-10.587-9.745-17.016-14.272
				c-23.056-16.228-40.028-37.684-53.792-64.229c-3.144-6.05-5.24-23.703-13.721-15.914c5.391,27.744,22.559,48.672,38.419,68.064
				c3.219,3.933,10.599,10.653,15.374,14.272c8.34,6.31,17.07,14.488,24.698,18.669c13.699,7.498,29.667,10.491,40.083,23.056
				c-8.352,21.641-24.298,40.19-36.236,60.935c-2.777,4.818-7.185,18.593-10.977,20.862c-11.884,7.087-46.392-5.445-60.383-2.744
				c-2.28,0.432-4.549,2.366-4.948,4.938c20.582,10.609,51.664,0.691,74.115,5.488c17.718,3.792,37.857,33.038,24.158,52.701
				c-5.92-1.361-7.304-28.166-16.476-26.351c-6.061,1.199,0.789,14.013,2.204,18.118c2.474,7.195,3.803,13.894,5.488,20.312
				c-15.633,17.135-17.319-25.562-32.941-25.26c-0.356,10.556,10.145,19.415,12.079,31.299c-12.651,6.634-29.765-2.917-42.276-7.142
				c-20.409-6.903-41.152-16.595-59.832-24.697c-13.354-5.802-27.269-7.735-36.777-17.567c-2.776-16.876,3.846-28.134,17.017-30.197
				c4.732-0.745,13.569,1.837,14.272-3.295c0.594-4.343-5.672-4.3-9.335-5.488c-16.768-5.435-33.849-21.078-44.458-31.839
				c-12.144-12.306-28.652-31.602-40.083-48.305c-2.938-4.3-10.339-14.693-10.426-18.669c-0.108-4.775,5.499-6.386,0-12.079
				c8.232-20.062,5.532-52.562,13.721-74.104c7.228-18.993,19.102-36.29,34.033-48.304c0.184-2.021-0.465-4.862,0.551-6.04
				c4.678-3.749,15.331-1.513,15.925-9.335c9.464-1.793,25.789-2.906,30.737-9.885c3.652-5.143,4.138-16.368,6.59-23.607
				c7.531-22.224,21.359-40.19,37.328-53.242c18.994,0.983,1.913-16.865-4.386-19.76c-11.02,4.592-16.076-3.771-18.669-10.988
				c-1.297-1.08-4.916,0.162-6.04-1.091c-8.146-10.512-24.093-27.042-26.351-43.367c-1.015-7.336,2.939-15.752-3.835-18.669
				c0.075-5.586,0.616-10.718,3.284-13.721c14.877,2.896,35.826,9.604,49.406-1.642c-5.326-8.524-14.315,2.15-23.056,0.54
				c-2.258-7.001-11.042-5.693-17.016-2.744c-3.965-1.696-4.635-6.709-6.039-10.977c-1.999-1.653-5.38-1.945-8.233-2.745
				c-6.19-4.786,1.578-20.171-4.386-21.953c-4.819-1.448-5.078,4.397-8.784,3.284c-1.351-12.241,6.774-24.287,1.642-31.839
				c0.875-9.767,12.241-12.932,9.335-23.056c6.806-6.083,14.099-15.212,24.698-14.812c7.66,0.281,15.114,7.509,23.055,1.642
				c6.752,3.068,17.373,11.69,24.709,7.131c-0.973-5.975-7.552-6.353-12.079-8.773c-0.799-1.956-0.249-5.25-1.642-6.59
				c-7.552-2.291-12.446,2.453-19.771,2.193c-0.875-1.502-2.042-2.712-2.745-4.387c2.269-5.791,11.701-4.408,10.437-13.731
				c8.275-3.652,15.763-5.997,25.249-6.04c6.407,5.315,12.479,10.955,15.925,19.22c13.278-2.085,20.57-8.211,35.674-8.232
				c36.604-0.076,68.81,23.261,80.155,49.406c-0.616,3.986-4.624,8.449-2.204,12.068c5.683-0.184,3.316-6.007,7.141-8.784
				c6.224-4.516,17.557-3.576,24.698-6.028C401.157,93.581,416.618,109.84,436.064,100.452z M352.615,104.838
				c4.678-7.735-4.959-16.746-7.13-22.504c-5.1-0.335-7.671,1.836-10.437,3.846c-5.153,7.077-15.071,28.598-1.642,34.583
				c5.294-2.28-1.351-13.332,3.295-16.476C341.52,107.355,349.504,109.992,352.615,104.838z M220.872,99.901
				c2.226-1.621,5.262-2.431,6.59-4.938c-1.318-7.109-8.481-8.362-11.528-13.732c0.076-3.393,2.863-4.084,2.193-8.232
				c-18.712-7.077-39.315,15.093-37.328,32.941c1.988,2.766,6.925,2.582,9.875,4.387c-0.162,2.949,0.508,5.737,1.653,7.141
				c7.292,8.957,17.189-1.847,24.147-6.59C221.769,107.28,225.302,106.048,220.872,99.901z"/>
			<path d="M636.424,551.688c21.359,2.55,30.488,22.623,24.157,49.406c-3.111,13.181-14.315,27.972-25.8,38.43
				c-12.5,11.388-24.438,24.871-35.134,30.737c-7.995,4.387-12.23,0.616-20.312,0c-2.744-0.205-5.132,1.253-7.131,1.102
				c-12.252-0.961-12.22-15.179-20.862-20.862c-3.868,3.512-9.799,4.765-15.925,2.193c-24.212,15.018-73.478,44.372-108.688,26.351
				c-12.101-6.19-27.637-17.772-22.505-37.878c2.355-9.259,11.841-20.906,17.567-26.352c2.474-2.354,11.052-6.201,11.527-9.874
				c0.335-2.68-3.252-5.478-4.396-7.692c-2.583-4.959-3.663-11.669-5.489-15.363c-3.425-6.958-13.202-11.819-18.669-18.669
				c-10.026-12.587-13.386-27.432-20.312-44.47c-12.197-2.009-16.162,6.083-27.442,3.296c-8.805,21.488-24.633,41.52-37.327,62.587
				c-2.788,4.613-12.014,16.843-10.437,22.505c1.038,3.705,15.255,9.756,18.669,13.17c9.777,9.777,23.466,32.692,12.079,51.6
				c-1.739,2.884-5.877,4.429-7.692,7.141c-1.264,1.913-0.983,4.474-2.193,6.04c-5.683,7.325-12.003,5.315-24.698,7.141
				c-5.035,0.714-6.709,4.679-12.079,5.489c-11.733,1.761-28.771-6.742-41.174-10.988c-36.139-12.37-73.812-27.106-102.648-47.753
				c-17.502,3.436-31.223,5.704-49.406,0.551c-5.921-1.686-17.005-10.642-22.516-15.925c-5.985-5.737-13.472-17.676-18.107-25.8
				c-7.065-12.37-8.189-19.814-9.885-36.226c-2.377-22.98-8.568-72.365,26.901-64.78c1.286-2.604-2.441-3.771-2.204-7.142
				c0.227-3.025,5.661-6.72,7.141-9.875c7.304-15.525,3.123-35.091,7.142-53.804c5.056-23.574,21.867-50.486,36.776-64.218
				c-0.54-2.755-2.982-3.609-2.193-7.693c6.169-3.338,15.558-3.457,16.465-12.079c12.63-1.383,27.68-1.405,36.226-8.233
				c3.479-14.509,8.373-28.749,15.925-41.714c7.887-13.559,18.982-28.782,32.941-35.134c-8.254-8.459-21.176-7.455-29.095-14.823
				c-4.873-4.538-11.593-12.684-15.374-18.669c-9.562-15.125-15.428-29.808-20.312-48.855c-2.658-10.35,4.041-17.945,3.295-25.8
				c-0.519-5.434-8.449-10.771-8.233-17.016c-3.273,0.443-4.71,3.565-8.243,2.193c-1.513-19.728-2.334-46.122,5.499-59.281
				c0.605-3.166-2.161-2.971-1.653-6.04c8.665-12.208,18.28-23.444,37.328-25.259c2.29-5.391,5.704-9.669,10.437-12.619
				c0.14-7.541,4.483-10.879,12.079-10.977c6.385-5.132,15.169-11.161,26.34-8.784c6.245,1.318,14.585,16.562,20.312,19.209
				c26.578-12.079,67.298-2.431,88.938,10.977c13.883,8.611,20.754,22.721,29.095,33.492c17.103-1.901,40.288-12.932,57.639-4.948
				c27.82,12.813,10.145,74.45-9.335,83.99c-0.843,15.439-10.555,22.019-16.465,32.39c4.711,0.173,4.991-5.51,7.131-8.232
				c14.023-17.805,29.462-36.938,59.843-38.98c2.106-2.388,2.183-6.839,3.835-9.875c5.78-10.609,25.8-23.088,42.276-17.016
				c4.408,1.621,7.443,7.541,13.721,7.682c3.209,0.076,4.538-2.636,8.784-1.642c4.926,11.539,15.514,17.416,18.658,30.737
				c8.254-1.145,16.778-1.134,23.606,1.643c1.534,2.009,0.378,3.954,1.102,6.039c6.158,1.718,11.669,4.073,16.466,7.142
				c0.972,8.913,8.729,11.031,12.63,17.016c1.404,13.073,8.858,23.941,7.681,36.776c-1.599,17.6-20.549,25.595-27.441,38.43
				c10.49,37.933-6.882,71.133-26.902,88.927c-0.216,2.615,1.167,3.965,0,6.04c-5.985,3.857-12.078,3.878-17.016,8.783
				c-2.279,2.269-2.853,6.072-5.488,7.693c-4.095,2.506-10.048,0.184-13.181,4.938c4.419,26.297,33.967,29.872,60.934,31.839
				c1.653,2.906-1.069,4.289-1.091,7.131c2.863,5.013,11.938,3.803,15.914,7.692c1.091,4.375-2.809,3.771-2.744,7.13
				c9.615,9.162,24.319,20.517,32.941,36.236c5.812,10.621,13.969,30.813,10.977,49.407c-0.572,3.554-3.155,4.17-4.397,7.682
				C641.264,530.523,642.42,541.662,636.424,551.688z M651.798,596.697c3.997-18.637,0.81-40.547-19.21-34.032
				c-18.982,20.906-34.767,45.021-61.484,58.19c0.312,12.943-9.832,15.428-11.528,26.351c5.899,0.356,7.174-8.524,15.374-7.682
				c4.862,8.902-11.506,10.221-6.591,19.209c6.083-2.538,8.957-11.139,17.017-9.885c2.614,5.812-4.235,6.677-4.387,11.527
				c8.633,9.929,19.836-3.36,27.442-9.875C624.377,636.823,647.454,616.966,651.798,596.697z M640.821,500.64
				c0.972-3.263,0.107-8.881-1.103-12.63c-7.573-23.552-27.15-46.413-44.458-58.74c-0.454-2.95,0.918-4.689,0-6.591
				c-6.547-2.593-13.462-4.829-15.925-11.527c-30.748-2.55-53.631-12.976-57.64-42.266c-4.98-0.346-5.877,9.13-11.527,8.784
				c-3.976-0.238-4.818-6.147-6.591-8.232c-13.008-15.342-47.029-3.036-60.934,5.488c-9.303,5.704-13.17,13.634-23.596,17.016
				c-12.965,4.203-22.332,5.77-39.532,4.938c-5.25-4.656-7.541-13.84-17.016-11.527c-2.68,0.659-3.825,4.851-7.131,6.59
				c-6.633,3.49-12.889,0.638-20.862-1.091c-1.577,3.738-6.32,4.235-9.334,6.579c-6.796,5.283-13.116,25.93-8.233,34.584
				c2.193,3.9,27.226,13.688,34.583,14.271c23.044,1.848,48.65-0.659,57.088,14.823c26.437,8.859,54.278-5.975,70.819-19.761
				c3.824-3.187,6.785-10.911,13.17-7.682c-13.462,23.964-44.469,42.827-77.95,37.879c0.638,6.169-6.429,10.08-7.682,15.914
				c-2.063,9.54,0.811,18.972-4.948,25.8c-2.021,1.092-6.774-0.551-7.131,2.193c3.371,16.973,7.963,32.812,17.567,43.918
				c6.515,7.541,15.137,10.944,19.21,18.118c4.095,7.195,5.563,21.101,12.078,25.8c4.214,3.036,13.462,0.098,14.823,6.039
				c-2.853,6.645-11.074,1.405-15.925,2.193c-9.184,1.502-18.982,15.903-22.505,22.516c3.576-0.378,5.65-4.829,9.886-2.755
				c0.184,12.024-29.235,26.048-7.692,34.594c6.267-4.04,8.989-14.369,18.118-13.731c-0.087,9.604-7.703,11.7-9.335,19.761
				c3.544,2.506,9.162,2.928,15.374,2.755c3.371-6.699,4.895-15.245,12.63-17.567c5.381,4.105-1.134,10.891-1.652,15.914
				c15.676-0.864,27.463-3.943,40.622-9.875c13.062-5.898,26.049-21.132,42.816-18.118c2.776-2.539,3.856-6.763,4.948-10.977
				c-2.183-4.786-7.865-6.039-8.784-12.079c13.192-6.828,26.146-5.64,37.328-12.078c15.773-9.076,25.367-25.108,37.327-37.879
				c5.424-5.791,13.376-10.21,13.722-20.312c6.125-7.682,10.437-16.217,11.527-27.993c0.497-5.294-1.739-11.376-0.551-16.476
				C637.05,504.562,640.021,503.319,640.821,500.64z M607.88,228.359c11.182-12.856-0.238-31.191-3.296-46.111
				c-4.321-5.196-11.668-7.357-13.17-15.374c-3.954-2.809-11.376-2.161-15.914-4.397c-0.896-2.031-0.118-5.737-1.652-7.13
				c-6.915,0.227-11.723-1.253-17.017,3.295c-4.808,4.127-3.922,19.134-12.079,17.567c-2.279-0.443-3.673-4.765-4.938-6.04
				c-6.147-6.212-15.438-11.431-24.157-16.476c-8.665-5.013-24.481-5.705-33.481-7.13c-15.082-2.388-29.527,3.133-37.327,9.875
				c-10.566,9.129-19.361,22.17-27.453,34.043c-1.761,1.707-6.288,0.659-6.039,4.386c5.348,0.508,13.375-1.653,14.271,3.295
				c-0.961,3.068-5.272,2.776-8.232,3.846c5.186,3.489,7.822,16.271,0,17.567c-9.216,1.513-13.213-11.042-9.886-18.118
				c-8.297,0.908-12.165,10.836-14.812,19.209c7.335,1.675,12.306-0.346,18.107,0.551c15.396,2.366,37.359,25.217,41.173,41.174
				c3.922,16.379-1.944,35.48-15.914,40.072c-3.047,1.005-7.789,0.216-11.527,1.102c-5.77,1.351-16.854,8.297-29.095,3.285
				c-4.549-1.848-4.992-6.872-11.528-7.682c-1.059,7.217,4.278,14.823,10.426,15.925c5.554,0.994,9.886-5.64,14.272-1.653
				c-5.402,4.797-5.326,12.521,4.938,12.079c0.896,9.172,9.345,10.782,10.987,19.209c-3.273,3.155-5.921-1.534-9.335-1.642
				c-9.551,12.23-20.246,26.232-21.413,45.009c27.82,0.626,36.906-19.08,56.548-27.442c13.808-5.888,37.101-10.382,51.049-2.193
				c3.899,2.29,8.567,9.464,12.078,9.875c5.91,0.691,8.676-6.86,12.63-7.682c3.63-0.756,7.854,2.453,11.528,1.103
				c3.673-5.662,10.339-8.319,12.067-15.925c27.539-11.96,47.095-48.099,35.686-86.734c-6.937,2.766-18.658,4.203-24.697-0.551
				c4.268-3.738,9.615-8.675,15.914-8.783c2.949-0.043,5.272,2.463,8.232,2.193c8.859-0.799,13.278-16.055,17.016-22.504
				C603.18,228.414,606.432,229.289,607.88,228.359z M564.513,623.6c-5.207,0.648-10.696,1.016-14.823,2.744
				C552.412,636.067,562.936,630.936,564.513,623.6z M544.752,161.926c7.357-7.012,7.887-22.656-3.846-25.249
				c-0.356-3.111-1.588-5.359-2.744-7.682c-10.761-0.454-13.71-7.919-25.8-4.397c-1.988-0.94-2.658-3.188-3.295-5.489
				c-14.532,0.098-21.382,7.898-24.698,19.22C509.909,140.783,528.373,150.312,544.752,161.926z M423.435,297.526
				c14.326-1.48,23.953-15.742,19.761-33.492c-2.917-12.349-22.126-35.729-37.879-36.226c-6.709-0.216-16.713-0.119-23.056,2.744
				c-15.535,7.012-24.449,55.467,0.552,58.741c1.923-2.658,1.944-7.206,3.295-10.437c-11.539-6.223-10.761-37.933,3.295-39.521
				c12.684-1.437,33.622,10.599,35.135,21.403c2.021,14.488-14.078,27.431-30.748,24.158c-3.004,9.648,3.371,18.291,15.374,16.465
				C410.092,293.496,418.076,298.077,423.435,297.526z M420.69,145.461c10.912-7.833,16.044-28.836,15.374-45.009
				c-19.446,9.389-34.907-6.871-39.531-22.504c-7.142,2.452-18.475,1.512-24.698,6.028c-3.824,2.777-1.458,8.6-7.141,8.784
				c-2.42-3.619,1.588-8.082,2.204-12.068c-11.345-26.146-43.551-49.482-80.155-49.406c-15.104,0.021-22.396,6.147-35.674,8.232
				c-3.447-8.265-9.519-13.905-15.925-19.22c-9.486,0.043-16.973,2.388-25.249,6.04c1.264,9.324-8.168,7.941-10.437,13.731
				c0.703,1.675,1.869,2.885,2.745,4.387c7.325,0.259,12.219-4.484,19.771-2.193c1.394,1.34,0.843,4.635,1.642,6.59
				c4.527,2.42,11.106,2.798,12.079,8.773c-7.336,4.559-17.957-4.062-24.709-7.131c-7.941,5.867-15.396-1.361-23.055-1.642
				c-10.599-0.4-17.892,8.729-24.698,14.812c2.906,10.124-8.459,13.289-9.335,23.056c5.132,7.552-2.993,19.599-1.642,31.839
				c3.706,1.113,3.965-4.732,8.784-3.284c5.964,1.782-1.804,17.167,4.386,21.953c2.853,0.8,6.234,1.091,8.233,2.745
				c1.404,4.268,2.074,9.28,6.039,10.977c5.975-2.949,14.758-4.257,17.016,2.744c8.741,1.61,17.729-9.064,23.056-0.54
				c-13.581,11.247-34.529,4.538-49.406,1.642c-2.668,3.003-3.209,8.135-3.284,13.721c6.774,2.917,2.82,11.333,3.835,18.669
				c2.258,16.325,18.205,32.855,26.351,43.367c1.124,1.253,4.743,0.011,6.04,1.091c2.593,7.217,7.649,15.58,18.669,10.988
				c6.299,2.896,23.38,20.744,4.386,19.76c-15.968,13.051-29.797,31.018-37.328,53.242c-2.452,7.239-2.938,18.464-6.59,23.607
				c-4.948,6.979-21.273,8.092-30.737,9.885c-0.594,7.822-11.247,5.586-15.925,9.335c-1.016,1.177-0.367,4.019-0.551,6.04
				c-14.931,12.014-26.805,29.311-34.033,48.304c-8.189,21.543-5.488,54.042-13.721,74.104c5.499,5.693-0.108,7.304,0,12.079
				c0.086,3.976,7.487,14.369,10.426,18.669c11.431,16.703,27.939,35.999,40.083,48.305c10.609,10.761,27.69,26.404,44.458,31.839
				c3.663,1.188,9.929,1.146,9.335,5.488c-0.703,5.132-9.54,2.55-14.272,3.295c-13.17,2.063-19.793,13.321-17.017,30.197
				c9.508,9.832,23.423,11.766,36.777,17.567c18.68,8.103,39.423,17.794,59.832,24.697c12.511,4.225,29.625,13.775,42.276,7.142
				c-1.934-11.884-12.436-20.743-12.079-31.299c15.623-0.303,17.308,42.395,32.941,25.26c-1.686-6.418-3.014-13.116-5.488-20.312
				c-1.416-4.105-8.265-16.919-2.204-18.118c9.172-1.815,10.556,24.989,16.476,26.351c13.699-19.663-6.439-48.909-24.158-52.701
				c-22.451-4.797-53.533,5.121-74.115-5.488c0.399-2.571,2.668-4.506,4.948-4.938c13.991-2.701,48.499,9.831,60.383,2.744
				c3.792-2.27,8.2-16.044,10.977-20.862c11.938-20.744,27.885-39.294,36.236-60.935c-10.415-12.564-26.383-15.558-40.083-23.056
				c-7.628-4.181-16.357-12.359-24.698-18.669c-4.775-3.619-12.155-10.34-15.374-14.272c-15.86-19.393-33.028-40.32-38.419-68.064
				c8.481-7.789,10.577,9.864,13.721,15.914c13.764,26.546,30.737,48.002,53.792,64.229c6.429,4.527,11.766,11.247,17.016,14.272
				c13.095,7.552,26.048,9.161,37.879,19.76c3.9-6.525-1.945-16.465,0-20.852c11.355-3.133,6.169,16.357,12.63,18.658
				c8.038,2.874,11.431-13.277,7.142-21.413c-2.302-4.343-6.612-3.943-7.142-9.323c17.124-2.993,16.162,14.229,18.669,26.891
				c14.337-3.868,3.587-23.143,3.284-32.38c11.236-1.145,9.054,15.817,14.823,21.954c3.685-5.164,0.205-8.892,1.102-14.823
				c1.438-9.519,12.911-15.763,1.092-24.157c-13.159-7.931-29.171-3.825-46.651-6.028c-9.918-1.265-22.894-7.682-32.39-12.079
				c-7.163-3.328-16.174-7.509-18.669-14.272c2.031-2.733,5.402,0.832,7.692-0.551c-1.577-20.592,6.947-39.013,20.312-42.815
				c5.585-1.6,11.009,1.814,17.016,1.091c6.72-0.811,13.105-14.153,23.055-7.131c4.29-10.231,5.283-24.006,4.387-38.429
				c-1.037-16.768-3.036-38.322-7.682-49.407c-1.102-2.614-4.17-4.818-5.488-7.682c-5.391-11.711-1.621-24.871,0.551-37.338
				c-8.546-1.048-20.257,11.701-28.003,4.397c7.109-7.897,18.442-7.736,28.003-12.079c8.006-3.63,12.446-13.03,20.312-15.915
				c3.728-12.565,15.147-20.344,15.363-34.583c-9.681-1.848-18.389-4.667-20.312-14.272c7.801-3.9,10.274,6.212,17.567,6.028
				c10.447-0.249,17.74-12.446,19.22-22.504c-16.584,1.221-29.278-5.24-38.429-13.17c-3.339,1.664-3.512,9.205-7.682,8.232
				c-1.016-10.782,6.666-25.119,17.016-26.351c1.113,3.792-3.792,6.007-4.397,9.885C388.614,145.385,406.711,155.498,420.69,145.461
				z M407.51,334.303c-6.936-0.194-9.302-4.97-11.527-9.886c-7.25-0.983-11.106-5.348-16.466-8.232
				c0.616,10.782,2.226,23.336,2.193,36.236c-0.032,12.479-5.218,29.376,1.653,35.135
				C386.551,364.942,398.532,351.114,407.51,334.303z M155.541,611.521c3.803-4.073,9.011-6.72,13.181-10.426
				c-36.226-25.26-64.381-58.59-87.836-96.619c-25.854-8.243-26.664,22.721-25.249,45.57c1.07,17.146,5.045,34.497,11.528,45.561
				c12.046,20.57,27.302,39.542,57.639,40.072c0.076-6.115-5.791-6.277-5.488-12.63c8.178-6.677,11.83,7.13,15.914,11.527
				c6.288-1.577,11.506-4.235,15.925-7.682c2.323-9.724-11.258-13.278-9.886-20.312
				C142.868,598.427,153.693,607.383,155.541,611.521z"/>
			<path d="M559.575,189.379c16.854-3.295,34.043,7.779,32.391,25.249c-0.994,10.469-12.63,13.764-21.414,15.374
				c-1.88-0.864-0.421-5.056-1.642-6.59c-3.263-0.951-8.244-0.173-9.335-3.295c-0.443-3.922,2.01-4.938,2.193-8.233
				c-2.518-1.264-6.45,1.037-8.232-1.642C552.348,202.182,558.722,197.201,559.575,189.379z M580.438,219.576
				c8.222-9.172-7.951-31.007-14.823-18.118c7.218,0.551,9.141,6.45,6.04,13.17C574.712,216.151,577.218,218.214,580.438,219.576z"
				/>
			<path d="M467.353,244.825c11.236-19.771,21.047,23.401,8.233,21.402c-2.788-0.432-2.701-2.528-3.296-6.028
				C457.187,271.035,445.086,242.351,467.353,244.825z"/>
			<path d="M345.485,82.333c2.171,5.758,11.809,14.769,7.13,22.504c-3.111,5.154-11.096,2.518-15.914-0.551
				c-4.646,3.144,1.999,14.196-3.295,16.476c-13.429-5.985-3.511-27.507,1.642-34.583C337.814,84.17,340.385,81.999,345.485,82.333z
				"/>
			<path d="M227.462,94.963c-1.329,2.506-4.365,3.317-6.59,4.938c4.43,6.147,0.897,7.379-4.397,10.977
				c-6.958,4.743-16.854,15.547-24.147,6.59c-1.145-1.404-1.815-4.192-1.653-7.141c-2.95-1.805-7.887-1.621-9.875-4.387
				c-1.988-17.848,18.615-40.018,37.328-32.941c0.67,4.148-2.118,4.84-2.193,8.232C218.981,86.601,226.145,87.854,227.462,94.963z
				 M210.986,99.35c0.605-3.598,4.592-3.825,5.489-7.13c-2.301-5.197-12.252-2.755-10.977-11.528
				c-10.253,2.182-14.229,10.652-15.914,21.402c7.152,0.346,10.382,4.624,10.977,11.528c6.623-0.508,9.249-5.024,12.079-9.334
				C212.564,102.169,210.781,101.759,210.986,99.35z"/>
		</g>
	</g>
</g>
<g id="Layer_2_x23_E4C3A8">
	<g>
		<g>
			<path fill="none" d="M604.584,182.248c3.058,14.92,14.478,33.255,3.296,46.111c-1.448,0.929-4.7,0.054-6.04,1.091
				c-3.737,6.45-8.156,21.705-17.016,22.504c-2.96,0.27-5.283-2.236-8.232-2.193c-6.299,0.108-11.646,5.045-15.914,8.783
				c6.039,4.754,17.761,3.317,24.697,0.551c11.409,38.635-8.146,74.774-35.686,86.734c-1.729,7.606-8.395,10.264-12.067,15.925
				c-3.674,1.351-7.898-1.859-11.528-1.103c-3.954,0.821-6.72,8.373-12.63,7.682c-3.511-0.41-8.179-7.584-12.078-9.875
				c-13.948-8.189-37.241-3.695-51.049,2.193c-19.642,8.362-28.728,28.068-56.548,27.442c1.167-18.777,11.862-32.779,21.413-45.009
				c3.414,0.108,6.062,4.797,9.335,1.642c-1.643-8.427-10.091-10.037-10.987-19.209c-10.264,0.443-10.34-7.282-4.938-12.079
				c-4.387-3.987-8.719,2.647-14.272,1.653c-6.147-1.102-11.484-8.708-10.426-15.925c6.536,0.81,6.979,5.834,11.528,7.682
				c12.24,5.013,23.325-1.934,29.095-3.285c3.738-0.886,8.48-0.097,11.527-1.102c13.97-4.591,19.836-23.693,15.914-40.072
				c-3.813-15.957-25.777-38.808-41.173-41.174c-5.802-0.896-10.772,1.124-18.107-0.551c2.646-8.373,6.515-18.302,14.812-19.209
				c-3.327,7.077,0.67,19.631,9.886,18.118c7.822-1.296,5.186-14.078,0-17.567c2.96-1.07,7.271-0.778,8.232-3.846
				c-0.896-4.948-8.924-2.788-14.271-3.295c-0.249-3.728,4.278-2.679,6.039-4.386c8.092-11.874,16.887-24.914,27.453-34.043
				c7.8-6.742,22.245-12.262,37.327-9.875c9,1.426,24.816,2.117,33.481,7.13c8.719,5.045,18.01,10.264,24.157,16.476
				c1.265,1.275,2.658,5.596,4.938,6.04c8.157,1.566,7.271-13.44,12.079-17.567c5.294-4.548,10.102-3.068,17.017-3.295
				c1.534,1.394,0.756,5.099,1.652,7.13c4.538,2.236,11.96,1.588,15.914,4.397C592.916,174.891,600.263,177.052,604.584,182.248z
				 M591.966,214.627c1.652-17.47-15.536-28.544-32.391-25.249c-0.854,7.822-7.228,12.803-6.039,20.862
				c1.782,2.679,5.715,0.378,8.232,1.642c-0.184,3.295-2.637,4.311-2.193,8.233c1.091,3.122,6.072,2.344,9.335,3.295
				c1.221,1.534-0.238,5.726,1.642,6.59C579.336,228.392,590.972,225.097,591.966,214.627z M475.586,266.227
				c12.813,1.999,3.003-41.174-8.233-21.402c-22.267-2.474-10.166,26.21,4.938,15.374
				C472.885,263.699,472.798,265.795,475.586,266.227z"/>
			<path fill="none" d="M227.462,94.963c-1.329,2.506-4.365,3.317-6.59,4.938c4.43,6.147,0.897,7.379-4.397,10.977
				c-6.958,4.743-16.854,15.547-24.147,6.59c-1.145-1.404-1.815-4.192-1.653-7.141c-2.95-1.805-7.887-1.621-9.875-4.387
				c-1.988-17.848,18.615-40.018,37.328-32.941c0.67,4.148-2.118,4.84-2.193,8.232C218.981,86.601,226.145,87.854,227.462,94.963z
				 M210.986,99.35c0.605-3.598,4.592-3.825,5.489-7.13c-2.301-5.197-12.252-2.755-10.977-11.528
				c-10.253,2.182-14.229,10.652-15.914,21.402c7.152,0.346,10.382,4.624,10.977,11.528c6.623-0.508,9.249-5.024,12.079-9.334
				C212.564,102.169,210.781,101.759,210.986,99.35z"/>
			<path fill="#E4C3A8" d="M565.614,201.458c6.872-12.889,23.045,8.946,14.823,18.118c-3.22-1.361-5.726-3.425-8.783-4.948
				C574.755,207.908,572.832,202.009,565.614,201.458z"/>
			<path fill="#E4C3A8" d="M443.195,264.034c4.192,17.75-5.435,32.012-19.761,33.492c-5.358,0.551-13.343-4.03-14.271,3.835
				c-12.003,1.826-18.378-6.817-15.374-16.465c16.67,3.273,32.769-9.669,30.748-24.158c-1.513-10.804-22.451-22.839-35.135-21.403
				c-14.056,1.588-14.834,33.298-3.295,39.521c-1.351,3.23-1.372,7.779-3.295,10.437c-25-3.273-16.087-51.729-0.552-58.741
				c6.343-2.863,16.347-2.96,23.056-2.744C421.069,228.305,440.278,251.685,443.195,264.034z"/>
			<path fill="#E4C3A8" d="M216.475,92.219c-0.897,3.306-4.884,3.533-5.489,7.13c-0.205,2.409,1.578,2.82,1.653,4.938
				c-2.831,4.311-5.456,8.827-12.079,9.334c-0.594-6.904-3.824-11.182-10.977-11.528c1.686-10.75,5.661-19.22,15.914-21.402
				C204.223,89.464,214.174,87.022,216.475,92.219z"/>
		</g>
	</g>
</g>
<g id="Layer_3_x23_967348">
	<g>
		<g>
			<path fill="none" d="M604.584,182.248c3.058,14.92,14.478,33.255,3.296,46.111c-1.448,0.929-4.7,0.054-6.04,1.091
				c-3.737,6.45-8.156,21.705-17.016,22.504c-2.96,0.27-5.283-2.236-8.232-2.193c-6.299,0.108-11.646,5.045-15.914,8.783
				c6.039,4.754,17.761,3.317,24.697,0.551c11.409,38.635-8.146,74.774-35.686,86.734c-1.729,7.606-8.395,10.264-12.067,15.925
				c-3.674,1.351-7.898-1.859-11.528-1.103c-3.954,0.821-6.72,8.373-12.63,7.682c-3.511-0.41-8.179-7.584-12.078-9.875
				c-13.948-8.189-37.241-3.695-51.049,2.193c-19.642,8.362-28.728,28.068-56.548,27.442c1.167-18.777,11.862-32.779,21.413-45.009
				c3.414,0.108,6.062,4.797,9.335,1.642c-1.643-8.427-10.091-10.037-10.987-19.209c-10.264,0.443-10.34-7.282-4.938-12.079
				c-4.387-3.987-8.719,2.647-14.272,1.653c-6.147-1.102-11.484-8.708-10.426-15.925c6.536,0.81,6.979,5.834,11.528,7.682
				c12.24,5.013,23.325-1.934,29.095-3.285c3.738-0.886,8.48-0.097,11.527-1.102c13.97-4.591,19.836-23.693,15.914-40.072
				c-3.813-15.957-25.777-38.808-41.173-41.174c-5.802-0.896-10.772,1.124-18.107-0.551c2.646-8.373,6.515-18.302,14.812-19.209
				c-3.327,7.077,0.67,19.631,9.886,18.118c7.822-1.296,5.186-14.078,0-17.567c2.96-1.07,7.271-0.778,8.232-3.846
				c-0.896-4.948-8.924-2.788-14.271-3.295c-0.249-3.728,4.278-2.679,6.039-4.386c8.092-11.874,16.887-24.914,27.453-34.043
				c7.8-6.742,22.245-12.262,37.327-9.875c9,1.426,24.816,2.117,33.481,7.13c8.719,5.045,18.01,10.264,24.157,16.476
				c1.265,1.275,2.658,5.596,4.938,6.04c8.157,1.566,7.271-13.44,12.079-17.567c5.294-4.548,10.102-3.068,17.017-3.295
				c1.534,1.394,0.756,5.099,1.652,7.13c4.538,2.236,11.96,1.588,15.914,4.397C592.916,174.891,600.263,177.052,604.584,182.248z
				 M591.966,214.627c1.652-17.47-15.536-28.544-32.391-25.249c-0.854,7.822-7.228,12.803-6.039,20.862
				c1.782,2.679,5.715,0.378,8.232,1.642c-0.184,3.295-2.637,4.311-2.193,8.233c1.091,3.122,6.072,2.344,9.335,3.295
				c1.221,1.534-0.238,5.726,1.642,6.59C579.336,228.392,590.972,225.097,591.966,214.627z M475.586,266.227
				c12.813,1.999,3.003-41.174-8.233-21.402c-22.267-2.474-10.166,26.21,4.938,15.374
				C472.885,263.699,472.798,265.795,475.586,266.227z"/>
			<path fill="none" d="M216.475,92.219c-0.897,3.306-4.884,3.533-5.489,7.13c-0.205,2.409,1.578,2.82,1.653,4.938
				c-2.831,4.311-5.456,8.827-12.079,9.334c-0.594-6.904-3.824-11.182-10.977-11.528c1.686-10.75,5.661-19.22,15.914-21.402
				C204.223,89.464,214.174,87.022,216.475,92.219z"/>
			<path fill="#977348" d="M436.064,100.452c0.67,16.173-4.462,37.176-15.374,45.009c-13.979,10.037-32.076-0.076-41.174-9.875
				c0.605-3.878,5.511-6.093,4.397-9.885c-10.35,1.231-18.031,15.568-17.016,26.351c4.17,0.972,4.343-6.569,7.682-8.232
				c9.15,7.93,21.845,14.391,38.429,13.17c-1.479,10.058-8.772,22.256-19.22,22.504c-7.293,0.184-9.767-9.929-17.567-6.028
				c1.923,9.604,10.631,12.424,20.312,14.272c-0.216,14.239-11.636,22.018-15.363,34.583c-7.865,2.885-12.306,12.284-20.312,15.915
				c-9.561,4.343-20.895,4.181-28.003,12.079c7.746,7.303,19.458-5.445,28.003-4.397c-2.171,12.468-5.942,25.627-0.551,37.338
				c1.318,2.863,4.387,5.067,5.488,7.682c4.646,11.085,6.645,32.639,7.682,49.407c0.896,14.423-0.097,28.198-4.387,38.429
				c-9.95-7.022-16.335,6.32-23.055,7.131c-6.007,0.724-11.431-2.69-17.016-1.091c-13.365,3.803-21.889,22.224-20.312,42.815
				c-2.291,1.383-5.661-2.183-7.692,0.551c2.496,6.764,11.506,10.944,18.669,14.272c9.497,4.397,22.472,10.814,32.39,12.079
				c17.48,2.203,33.492-1.902,46.651,6.028c11.819,8.395,0.346,14.639-1.092,24.157c-0.896,5.932,2.583,9.659-1.102,14.823
				c-5.77-6.137-3.587-23.099-14.823-21.954c0.303,9.237,11.053,28.512-3.284,32.38c-2.507-12.662-1.545-29.884-18.669-26.891
				c0.529,5.38,4.84,4.98,7.142,9.323c4.289,8.136,0.896,24.287-7.142,21.413c-6.461-2.301-1.275-21.791-12.63-18.658
				c-1.945,4.387,3.9,14.326,0,20.852c-11.831-10.599-24.784-12.208-37.879-19.76c-5.25-3.025-10.587-9.745-17.016-14.272
				c-23.056-16.228-40.028-37.684-53.792-64.229c-3.144-6.05-5.24-23.703-13.721-15.914c5.391,27.744,22.559,48.672,38.419,68.064
				c3.219,3.933,10.599,10.653,15.374,14.272c8.34,6.31,17.07,14.488,24.698,18.669c13.699,7.498,29.667,10.491,40.083,23.056
				c-8.352,21.641-24.298,40.19-36.236,60.935c-2.777,4.818-7.185,18.593-10.977,20.862c-11.884,7.087-46.392-5.445-60.383-2.744
				c-2.28,0.432-4.549,2.366-4.948,4.938c20.582,10.609,51.664,0.691,74.115,5.488c17.718,3.792,37.857,33.038,24.158,52.701
				c-5.92-1.361-7.304-28.166-16.476-26.351c-6.061,1.199,0.789,14.013,2.204,18.118c2.474,7.195,3.803,13.894,5.488,20.312
				c-15.633,17.135-17.319-25.562-32.941-25.26c-0.356,10.556,10.145,19.415,12.079,31.299c-12.651,6.634-29.765-2.917-42.276-7.142
				c-20.409-6.903-41.152-16.595-59.832-24.697c-13.354-5.802-27.269-7.735-36.777-17.567c-2.776-16.876,3.846-28.134,17.017-30.197
				c4.732-0.745,13.569,1.837,14.272-3.295c0.594-4.343-5.672-4.3-9.335-5.488c-16.768-5.435-33.849-21.078-44.458-31.839
				c-12.144-12.306-28.652-31.602-40.083-48.305c-2.938-4.3-10.339-14.693-10.426-18.669c-0.108-4.775,5.499-6.386,0-12.079
				c8.232-20.062,5.532-52.562,13.721-74.104c7.228-18.993,19.102-36.29,34.033-48.304c0.184-2.021-0.465-4.862,0.551-6.04
				c4.678-3.749,15.331-1.513,15.925-9.335c9.464-1.793,25.789-2.906,30.737-9.885c3.652-5.143,4.138-16.368,6.59-23.607
				c7.531-22.224,21.359-40.19,37.328-53.242c18.994,0.983,1.913-16.865-4.386-19.76c-11.02,4.592-16.076-3.771-18.669-10.988
				c-1.297-1.08-4.916,0.162-6.04-1.091c-8.146-10.512-24.093-27.042-26.351-43.367c-1.015-7.336,2.939-15.752-3.835-18.669
				c0.075-5.586,0.616-10.718,3.284-13.721c14.877,2.896,35.826,9.604,49.406-1.642c-5.326-8.524-14.315,2.15-23.056,0.54
				c-2.258-7.001-11.042-5.693-17.016-2.744c-3.965-1.696-4.635-6.709-6.039-10.977c-1.999-1.653-5.38-1.945-8.233-2.745
				c-6.19-4.786,1.578-20.171-4.386-21.953c-4.819-1.448-5.078,4.397-8.784,3.284c-1.351-12.241,6.774-24.287,1.642-31.839
				c0.875-9.767,12.241-12.932,9.335-23.056c6.806-6.083,14.099-15.212,24.698-14.812c7.66,0.281,15.114,7.509,23.055,1.642
				c6.752,3.068,17.373,11.69,24.709,7.131c-0.973-5.975-7.552-6.353-12.079-8.773c-0.799-1.956-0.249-5.25-1.642-6.59
				c-7.552-2.291-12.446,2.453-19.771,2.193c-0.875-1.502-2.042-2.712-2.745-4.387c2.269-5.791,11.701-4.408,10.437-13.731
				c8.275-3.652,15.763-5.997,25.249-6.04c6.407,5.315,12.479,10.955,15.925,19.22c13.278-2.085,20.57-8.211,35.674-8.232
				c36.604-0.076,68.81,23.261,80.155,49.406c-0.616,3.986-4.624,8.449-2.204,12.068c5.683-0.184,3.316-6.007,7.141-8.784
				c6.224-4.516,17.557-3.576,24.698-6.028C401.157,93.581,416.618,109.84,436.064,100.452z M352.615,104.838
				c4.678-7.735-4.959-16.746-7.13-22.504c-5.1-0.335-7.671,1.836-10.437,3.846c-5.153,7.077-15.071,28.598-1.642,34.583
				c5.294-2.28-1.351-13.332,3.295-16.476C341.52,107.355,349.504,109.992,352.615,104.838z M220.872,99.901
				c2.226-1.621,5.262-2.431,6.59-4.938c-1.318-7.109-8.481-8.362-11.528-13.732c0.076-3.393,2.863-4.084,2.193-8.232
				c-18.712-7.077-39.315,15.093-37.328,32.941c1.988,2.766,6.925,2.582,9.875,4.387c-0.162,2.949,0.508,5.737,1.653,7.141
				c7.292,8.957,17.189-1.847,24.147-6.59C221.769,107.28,225.302,106.048,220.872,99.901z"/>
			<path fill="#977348" d="M168.722,601.095c-4.17,3.706-9.378,6.353-13.181,10.426c-1.847-4.138-12.673-13.094-14.272-4.938
				c-1.372,7.033,12.208,10.588,9.886,20.312c-4.419,3.446-9.637,6.104-15.925,7.682c-4.084-4.397-7.736-18.204-15.914-11.527
				c-0.303,6.353,5.564,6.515,5.488,12.63c-30.337-0.53-45.593-19.502-57.639-40.072c-6.482-11.063-10.458-28.414-11.528-45.561
				c-1.415-22.85-0.605-53.813,25.249-45.57C104.341,542.505,132.496,575.835,168.722,601.095z"/>
		</g>
	</g>
</g>
<g id="Layer_4_x23_6C5635">
	<g>
		<g>
			<path fill="none" d="M436.064,100.452c0.67,16.173-4.462,37.176-15.374,45.009c-13.979,10.037-32.076-0.076-41.174-9.875
				c0.605-3.878,5.511-6.093,4.397-9.885c-10.35,1.231-18.031,15.568-17.016,26.351c4.17,0.972,4.343-6.569,7.682-8.232
				c9.15,7.93,21.845,14.391,38.429,13.17c-1.479,10.058-8.772,22.256-19.22,22.504c-7.293,0.184-9.767-9.929-17.567-6.028
				c1.923,9.604,10.631,12.424,20.312,14.272c-0.216,14.239-11.636,22.018-15.363,34.583c-7.865,2.885-12.306,12.284-20.312,15.915
				c-9.561,4.343-20.895,4.181-28.003,12.079c7.746,7.303,19.458-5.445,28.003-4.397c-2.171,12.468-5.942,25.627-0.551,37.338
				c1.318,2.863,4.387,5.067,5.488,7.682c4.646,11.085,6.645,32.639,7.682,49.407c0.896,14.423-0.097,28.198-4.387,38.429
				c-9.95-7.022-16.335,6.32-23.055,7.131c-6.007,0.724-11.431-2.69-17.016-1.091c-13.365,3.803-21.889,22.224-20.312,42.815
				c-2.291,1.383-5.661-2.183-7.692,0.551c2.496,6.764,11.506,10.944,18.669,14.272c9.497,4.397,22.472,10.814,32.39,12.079
				c17.48,2.203,33.492-1.902,46.651,6.028c11.819,8.395,0.346,14.639-1.092,24.157c-0.896,5.932,2.583,9.659-1.102,14.823
				c-5.77-6.137-3.587-23.099-14.823-21.954c0.303,9.237,11.053,28.512-3.284,32.38c-2.507-12.662-1.545-29.884-18.669-26.891
				c0.529,5.38,4.84,4.98,7.142,9.323c4.289,8.136,0.896,24.287-7.142,21.413c-6.461-2.301-1.275-21.791-12.63-18.658
				c-1.945,4.387,3.9,14.326,0,20.852c-11.831-10.599-24.784-12.208-37.879-19.76c-5.25-3.025-10.587-9.745-17.016-14.272
				c-23.056-16.228-40.028-37.684-53.792-64.229c-3.144-6.05-5.24-23.703-13.721-15.914c5.391,27.744,22.559,48.672,38.419,68.064
				c3.219,3.933,10.599,10.653,15.374,14.272c8.34,6.31,17.07,14.488,24.698,18.669c13.699,7.498,29.667,10.491,40.083,23.056
				c-8.352,21.641-24.298,40.19-36.236,60.935c-2.777,4.818-7.185,18.593-10.977,20.862c-11.884,7.087-46.392-5.445-60.383-2.744
				c-2.28,0.432-4.549,2.366-4.948,4.938c20.582,10.609,51.664,0.691,74.115,5.488c17.718,3.792,37.857,33.038,24.158,52.701
				c-5.92-1.361-7.304-28.166-16.476-26.351c-6.061,1.199,0.789,14.013,2.204,18.118c2.474,7.195,3.803,13.894,5.488,20.312
				c-15.633,17.135-17.319-25.562-32.941-25.26c-0.356,10.556,10.145,19.415,12.079,31.299c-12.651,6.634-29.765-2.917-42.276-7.142
				c-20.409-6.903-41.152-16.595-59.832-24.697c-13.354-5.802-27.269-7.735-36.777-17.567c-2.776-16.876,3.846-28.134,17.017-30.197
				c4.732-0.745,13.569,1.837,14.272-3.295c0.594-4.343-5.672-4.3-9.335-5.488c-16.768-5.435-33.849-21.078-44.458-31.839
				c-12.144-12.306-28.652-31.602-40.083-48.305c-2.938-4.3-10.339-14.693-10.426-18.669c-0.108-4.775,5.499-6.386,0-12.079
				c8.232-20.062,5.532-52.562,13.721-74.104c7.228-18.993,19.102-36.29,34.033-48.304c0.184-2.021-0.465-4.862,0.551-6.04
				c4.678-3.749,15.331-1.513,15.925-9.335c9.464-1.793,25.789-2.906,30.737-9.885c3.652-5.143,4.138-16.368,6.59-23.607
				c7.531-22.224,21.359-40.19,37.328-53.242c18.994,0.983,1.913-16.865-4.386-19.76c-11.02,4.592-16.076-3.771-18.669-10.988
				c-1.297-1.08-4.916,0.162-6.04-1.091c-8.146-10.512-24.093-27.042-26.351-43.367c-1.015-7.336,2.939-15.752-3.835-18.669
				c0.075-5.586,0.616-10.718,3.284-13.721c14.877,2.896,35.826,9.604,49.406-1.642c-5.326-8.524-14.315,2.15-23.056,0.54
				c-2.258-7.001-11.042-5.693-17.016-2.744c-3.965-1.696-4.635-6.709-6.039-10.977c-1.999-1.653-5.38-1.945-8.233-2.745
				c-6.19-4.786,1.578-20.171-4.386-21.953c-4.819-1.448-5.078,4.397-8.784,3.284c-1.351-12.241,6.774-24.287,1.642-31.839
				c0.875-9.767,12.241-12.932,9.335-23.056c6.806-6.083,14.099-15.212,24.698-14.812c7.66,0.281,15.114,7.509,23.055,1.642
				c6.752,3.068,17.373,11.69,24.709,7.131c-0.973-5.975-7.552-6.353-12.079-8.773c-0.799-1.956-0.249-5.25-1.642-6.59
				c-7.552-2.291-12.446,2.453-19.771,2.193c-0.875-1.502-2.042-2.712-2.745-4.387c2.269-5.791,11.701-4.408,10.437-13.731
				c8.275-3.652,15.763-5.997,25.249-6.04c6.407,5.315,12.479,10.955,15.925,19.22c13.278-2.085,20.57-8.211,35.674-8.232
				c36.604-0.076,68.81,23.261,80.155,49.406c-0.616,3.986-4.624,8.449-2.204,12.068c5.683-0.184,3.316-6.007,7.141-8.784
				c6.224-4.516,17.557-3.576,24.698-6.028C401.157,93.581,416.618,109.84,436.064,100.452z M352.615,104.838
				c4.678-7.735-4.959-16.746-7.13-22.504c-5.1-0.335-7.671,1.836-10.437,3.846c-5.153,7.077-15.071,28.598-1.642,34.583
				c5.294-2.28-1.351-13.332,3.295-16.476C341.52,107.355,349.504,109.992,352.615,104.838z M220.872,99.901
				c2.226-1.621,5.262-2.431,6.59-4.938c-1.318-7.109-8.481-8.362-11.528-13.732c0.076-3.393,2.863-4.084,2.193-8.232
				c-18.712-7.077-39.315,15.093-37.328,32.941c1.988,2.766,6.925,2.582,9.875,4.387c-0.162,2.949,0.508,5.737,1.653,7.141
				c7.292,8.957,17.189-1.847,24.147-6.59C221.769,107.28,225.302,106.048,220.872,99.901z"/>
			<path fill="#6C5735" d="M632.588,562.665c20.02-6.515,23.207,15.396,19.21,34.032c-4.344,20.269-27.421,40.126-43.367,53.804
				c-7.606,6.515-18.81,19.804-27.442,9.875c0.151-4.851,7.001-5.715,4.387-11.527c-8.06-1.254-10.934,7.347-17.017,9.885
				c-4.915-8.988,11.453-10.307,6.591-19.209c-8.2-0.843-9.475,8.038-15.374,7.682c1.696-10.923,11.841-13.407,11.528-26.351
				C597.821,607.686,613.605,583.571,632.588,562.665z"/>
			<path fill="#6C5735" d="M639.719,488.01c1.21,3.749,2.074,9.367,1.103,12.63c-0.8,2.68-3.771,3.922-4.397,6.58
				c-1.188,5.1,1.048,11.182,0.551,16.476c-1.091,11.776-5.402,20.312-11.527,27.993c-0.346,10.102-8.298,14.521-13.722,20.312
				c-11.96,12.771-21.554,28.803-37.327,37.879c-11.183,6.438-24.136,5.25-37.328,12.078c0.919,6.04,6.602,7.293,8.784,12.079
				c-1.092,4.214-2.172,8.438-4.948,10.977c-16.768-3.014-29.754,12.22-42.816,18.118c-13.159,5.932-24.946,9.011-40.622,9.875
				c0.519-5.023,7.033-11.809,1.652-15.914c-7.735,2.322-9.259,10.868-12.63,17.567c-6.212,0.173-11.83-0.249-15.374-2.755
				c1.632-8.061,9.248-10.156,9.335-19.761c-9.129-0.638-11.852,9.691-18.118,13.731c-21.543-8.546,7.876-22.569,7.692-34.594
				c-4.235-2.074-6.31,2.377-9.886,2.755c3.522-6.612,13.321-21.014,22.505-22.516c4.851-0.788,13.072,4.451,15.925-2.193
				c-1.361-5.941-10.609-3.003-14.823-6.039c-6.515-4.699-7.983-18.604-12.078-25.8c-4.073-7.174-12.695-10.577-19.21-18.118
				c-9.604-11.106-14.196-26.945-17.567-43.918c0.356-2.744,5.11-1.102,7.131-2.193c5.759-6.828,2.885-16.26,4.948-25.8
				c1.253-5.834,8.319-9.745,7.682-15.914c33.481,4.948,64.488-13.915,77.95-37.879c-6.385-3.229-9.346,4.495-13.17,7.682
				c-16.541,13.786-44.383,28.62-70.819,19.761c-8.438-15.482-34.044-12.976-57.088-14.823c-7.357-0.583-32.39-10.371-34.583-14.271
				c-4.883-8.654,1.437-29.301,8.233-34.584c3.014-2.344,7.757-2.841,9.334-6.579c7.973,1.729,14.229,4.581,20.862,1.091
				c3.306-1.739,4.451-5.931,7.131-6.59c9.475-2.312,11.766,6.871,17.016,11.527c17.2,0.832,26.567-0.734,39.532-4.938
				c10.426-3.382,14.293-11.312,23.596-17.016c13.904-8.524,47.926-20.83,60.934-5.488c1.772,2.085,2.615,7.994,6.591,8.232
				c5.65,0.346,6.547-9.13,11.527-8.784c4.009,29.29,26.892,39.716,57.64,42.266c2.463,6.698,9.378,8.935,15.925,11.527
				c0.918,1.901-0.454,3.641,0,6.591C612.568,441.597,632.146,464.458,639.719,488.01z"/>
			<path fill="#6C5735" d="M604.584,182.248c3.058,14.92,14.478,33.255,3.296,46.111c-1.448,0.929-4.7,0.054-6.04,1.091
				c-3.737,6.45-8.156,21.705-17.016,22.504c-2.96,0.27-5.283-2.236-8.232-2.193c-6.299,0.108-11.646,5.045-15.914,8.783
				c6.039,4.754,17.761,3.317,24.697,0.551c11.409,38.635-8.146,74.774-35.686,86.734c-1.729,7.606-8.395,10.264-12.067,15.925
				c-3.674,1.351-7.898-1.859-11.528-1.103c-3.954,0.821-6.72,8.373-12.63,7.682c-3.511-0.41-8.179-7.584-12.078-9.875
				c-13.948-8.189-37.241-3.695-51.049,2.193c-19.642,8.362-28.728,28.068-56.548,27.442c1.167-18.777,11.862-32.779,21.413-45.009
				c3.414,0.108,6.062,4.797,9.335,1.642c-1.643-8.427-10.091-10.037-10.987-19.209c-10.264,0.443-10.34-7.282-4.938-12.079
				c-4.387-3.987-8.719,2.647-14.272,1.653c-6.147-1.102-11.484-8.708-10.426-15.925c6.536,0.81,6.979,5.834,11.528,7.682
				c12.24,5.013,23.325-1.934,29.095-3.285c3.738-0.886,8.48-0.097,11.527-1.102c13.97-4.591,19.836-23.693,15.914-40.072
				c-3.813-15.957-25.777-38.808-41.173-41.174c-5.802-0.896-10.772,1.124-18.107-0.551c2.646-8.373,6.515-18.302,14.812-19.209
				c-3.327,7.077,0.67,19.631,9.886,18.118c7.822-1.296,5.186-14.078,0-17.567c2.96-1.07,7.271-0.778,8.232-3.846
				c-0.896-4.948-8.924-2.788-14.271-3.295c-0.249-3.728,4.278-2.679,6.039-4.386c8.092-11.874,16.887-24.914,27.453-34.043
				c7.8-6.742,22.245-12.262,37.327-9.875c9,1.426,24.816,2.117,33.481,7.13c8.719,5.045,18.01,10.264,24.157,16.476
				c1.265,1.275,2.658,5.596,4.938,6.04c8.157,1.566,7.271-13.44,12.079-17.567c5.294-4.548,10.102-3.068,17.017-3.295
				c1.534,1.394,0.756,5.099,1.652,7.13c4.538,2.236,11.96,1.588,15.914,4.397C592.916,174.891,600.263,177.052,604.584,182.248z
				 M591.966,214.627c1.652-17.47-15.536-28.544-32.391-25.249c-0.854,7.822-7.228,12.803-6.039,20.862
				c1.782,2.679,5.715,0.378,8.232,1.642c-0.184,3.295-2.637,4.311-2.193,8.233c1.091,3.122,6.072,2.344,9.335,3.295
				c1.221,1.534-0.238,5.726,1.642,6.59C579.336,228.392,590.972,225.097,591.966,214.627z M475.586,266.227
				c12.813,1.999,3.003-41.174-8.233-21.402c-22.267-2.474-10.166,26.21,4.938,15.374
				C472.885,263.699,472.798,265.795,475.586,266.227z"/>
			<path fill="#6C5735" d="M540.906,136.677c11.732,2.593,11.203,18.237,3.846,25.249c-16.379-11.614-34.843-21.144-60.383-23.596
				c3.316-11.322,10.166-19.123,24.698-19.22c0.637,2.301,1.307,4.549,3.295,5.489c12.09-3.522,15.039,3.943,25.8,4.397
				C539.318,131.318,540.55,133.566,540.906,136.677z"/>
		</g>
	</g>
</g>
</svg>
