<?xml version="1.0" encoding="utf-8"?>
<!-- Generator: Adobe Illustrator 14.0.0, SVG Export Plug-In . SVG Version: 6.00 Build 43363)  -->
<!DOCTYPE svg PUBLIC "-//W3C//DTD SVG 1.0//EN" "http://www.w3.org/TR/2001/REC-SVG-20010904/DTD/svg10.dtd">
<svg version="1.0" xmlns="http://www.w3.org/2000/svg" xmlns:xlink="http://www.w3.org/1999/xlink" x="0px" y="0px" width="720px"
	 height="720px" viewBox="0 0 720 720" enable-background="new 0 0 720 720" xml:space="preserve">
<g id="Layer_1_x23_000000">
	<g>
		<g>
			<path fill="none" d="M266.502,470.494c-2.403-19.999,23.577-9.785,21.508,2.871c-9.706,23.31-23.657,74.002-11.468,96.058
				c-1.295,2.522-3.471,4.179-4.312,7.155c-9.025,1.869-11.148-3.178-17.196-4.299c-1.041-4.379,1.469-5.22,1.429-8.598
				c0.374-3.898,7.85-0.574,10.04-5.741c1.536-19.091-1.055-46.433,8.598-63.067C266.77,489.866,280.027,472.751,266.502,470.494z"
				/>
			<path fill="none" d="M315.246,512.068c2.27,17.796,6.515,33.63,7.169,53.042c-16.381-4.873-24.551-10.24-44.444-10.026
				c2.457-19.933,6.248-32.402,7.169-51.613C294.899,506.607,302.188,512.215,315.246,512.068z"/>
			<path fill="none" d="M686.538,421.765c-3.377,0.027-4.219-2.47-8.598-1.441c-3.271,2.95-4.953,7.477-4.299,14.338
				c-5.634-0.373-5.327,5.181-11.468,4.3c8.784,29.264,12.843,40.452,10.026,74.549c-1.162,7.022-5.233-4.339-11.469-1.441
				c-9.012,6.849-1.001,26.781-11.468,34.418c-4.312-2.857-6.475-7.877-11.468-10.04c-32.175,56.22-108.367,68.436-151.957,113.253
				c-4.365-2.336-6.995-6.395-11.468-8.598c-20.653,6.102-33.337,20.187-57.341,22.937c-13.831-16.288-46.406,6.715-58.783,10.026
				c-6.769-14.165-24.285-14.593-35.833-4.299c-8.438-15.007-31.427-24.005-40.145-2.871
				c-47.608-25.967-86.165-60.998-124.721-96.044c-5.006-1.415-15.113-0.053-18.637,4.299
				c-13.324-12.963-22.589-29.972-34.404-44.443c-4.446-0.134-7.957,0.653-10.04,2.87c-4.379-3.258-1.682-13.604-4.299-18.638
				c-5.18-4.259-13.19-10.48-18.637-10.039c-0.067-16.502,9.118-32.683,0-45.873c13.19-61.319,95.109-154.907,41.574-215.038
				c0-8.117,0-16.248,0-24.365c-3.151-4.005-7.583-6.742-12.897-8.598c2.096-23.75-0.681-40.358,8.598-58.782
				c-1.322-3.992-8.558-9.506-11.468-7.169c2.363-14.365,21.601-24.258,32.976-34.404c0.227-5.474-0.08-10.44-2.871-12.897
				c3.151-3.044,16.528-5.741,24.378-8.611c0.04-5.768-0.414-11.054-4.312-12.897c43.483-14.258,93.587-9.412,123.292,12.897
				c-14.205,9.225-29.064,17.77-44.444,25.807c-13.858-22.95-60.332-19.692-77.407-1.429c0.641,5.581,7.743,4.673,11.468,7.169
				c-21.281,13.498-51.627,33.67-37.275,65.938c0.213-38.583,27.142-52.468,53.042-68.809c-0.481-5.727-11.762-0.667-14.339-4.299
				c11.562-13.644,58.89-12.363,58.783,4.299c-0.027,4.526-55.899,51.12-63.082,57.341c-5.287,4.593-13.884,7.543-15.767,11.468
				c-0.681,6.501,6.702,3.912,10.04,2.87c-6.088,15.967-23.351,28.17-20.08,48.743c14.445-15.18,18.17-41.08,35.846-53.042
				c0.668-4.486-1.255-6.395-5.741-5.741c63.482-98.861,274.715-125.255,379.904-45.873c-5.887-16.568-26.527-18.384-35.846-31.534
				c34.498-19.625,74.456-28.022,113.253-8.598c7.81,31.374,42.055,36.313,51.613,65.938c-3.738,0.561-7.863,0.734-10.04,2.871
				c-0.787,15.5,22.643,47.582-4.299,53.042c-2.109,17.009-4.271,33.951-15.767,41.574c-8.932-24.511-15.246-51.653-32.976-67.38
				c-2.257-2.283-6.582,0.694-7.17,4.299c-12.776-11.108-17.796-29.986-31.534-40.132c13.058,21.347,21.988,46.807,47.302,55.898
				C623.684,296.123,680.077,332.143,686.538,421.765z M639.224,196.688c7.53-13.204-9.585-25.459-12.896-37.275
				c2.097-3.324,4.539,2.804,4.299-2.87c-5.006-12.189-18.584-15.807-28.663-22.937c5.02-1.175,8.104-4.312,12.896-5.728
				c-13.391-12.336-56.727-22.349-74.55-11.468c17.329-1.055,45.085,3.23,63.081,10.026c-3.951,2.75-10.159,3.23-11.468,8.611
				c8.758,7.009,21.388,10.146,28.677,18.638c-1.295,2.536-5.82,1.815-4.312,7.156C625.5,171.241,633.043,183.284,639.224,196.688z
				 M619.158,492.002c15.86-30.226,43.696-70.958,17.209-104.655c-0.32,1.122-1.202,1.669-2.87,1.442
				c-3.538,9.746-13.912,24.044-22.937,32.976c-9.332-10.079-26.501,2.257-28.678,12.896c-0.347,6.088,3.752,7.717,2.871,14.339
				c-8.024,2.964-13.885,8.091-21.508,11.469c-9.88-19.933-44.03-5.447-32.963,20.065c-5.313,4.245-11.201,7.917-18.638,10.04
				c0.602-6.822-2.082-10.347-2.87-15.768c-23.47-9.024-25.7,17.476-28.677,25.794c-2.897-4.46,0.721-8.011-1.429-14.325
				c-20.507-27.249-36.954,2.816-38.703,24.364c-9.038,1.295-16.729,1.683-22.937-2.87c17.075-44.979-62.801-32.068-34.404,1.441
				c-15.874,3.646-37.942,3.284-45.886-8.61c4.58-4.032,6.916-10.294,5.741-20.066c-6.715-9.906-21.107-9.146-32.976-4.299
				c-6.142,7.303-1.028,23.764,1.442,25.807c-10.16-0.841-18.224-3.765-22.937-10.04c20.787-18.45-2.39-52.668-28.677-35.833
				c-1.683,10.774,3.177,24.699,4.299,31.534c-11.602-13.523-53.309-22.469-53.042-50.171c0.147-14.485,7.583-24.045-7.169-31.548
				c-10.614-5.394-24.979-2.684-28.664,18.638c-2.87-6.208-9.372-8.798-11.468-15.768c15.006-9.612,6.315-33.656-11.468-34.404
				c-15.861,13.805-17.676,5.554-32.976,1.429c-0.654,5.14-5.888,13.164-4.299,15.78c1.135,36.607,27.569,60.345,30.105,100.343
				c-31.534,16.742,16.969,53.242,30.105,22.937c0.467-5.313-6.181-10.934-4.312-12.896c13.23-0.347,23.096,10,28.677,21.494
				c-2.069,3.191-3.604,6.916-2.87,12.91c4.325,5.233,10.547,8.571,18.637,10.04c12.243-12.189,30.76-4.166,38.703,7.155
				c-5.5,4.059-6.582,12.536-5.727,22.937c8.638,9.479,29.465,11.589,35.833-1.429c1.668-5.113-4.339-9.839-1.429-11.468
				c15.207,0.561,27.609,3.925,35.846,11.468c-4.873,6.368,2.016,13.218,2.857,18.638c7.503,0.628,12.562,3.685,21.507,2.87
				c5.02-14.191,31.4-15.072,43.002-8.61c-7.93,24.511,46.22,32.015,38.717-1.429c4.379,1.041,4.206-2.47,8.598-1.429
				c3.605,20.547,44.138,27.115,34.405-5.741c11.094-5.153,20.8-11.682,35.846-12.896c-0.387,5.153,2.644,6.902,2.857,11.469
				c15.887,14.058,40.105-7.704,25.807-22.937c4.405-6.582,10.721-11.268,18.638-14.339c7.369,25.14,40.212,2.123,30.105-15.767
				c6.368-0.801,6.782-7.557,12.896-8.598C607.143,541.747,641,509.545,619.158,492.002z M597.664,175.18
				c-2.229-6.381-8.799-8.411-12.91-12.896C585.755,169.879,592.911,171.335,597.664,175.18z M500.178,295.602
				c-0.04,7.57,11.055,11.455,15.767,5.741c-5.14-27.916-5.126-60.398-35.846-68.822c7.877,13.164,23.657,18.411,25.807,37.275
				c-2.95,0.868-9.96-2.31-8.598,2.87c4.445,8.451,13.337,12.47,12.896,25.807C504.022,298.833,505.705,292.358,500.178,295.602z
				 M497.308,261.198c-6.742-6.168-14.553-11.241-21.495-17.209c0.802,0,1.603-1.148-0.013-1.429
				C413.893,256.512,485.759,322.677,497.308,261.198z M451.435,358.684c1.068-41.387-97.846-38.664-126.163-15.767
				c-7.984,38.222,29.144,51.934,50.185,70.238c2.336,24.324-10.094,33.884-15.768,50.171c8.491-4.886,10.707-16.047,17.195-22.937
				c6.542,6.85,10.975,15.794,20.066,20.08c-2.043-9.426-6.622-16.314-14.325-20.08c-0.228-13.323-0.801-17.182-1.442-30.105
				C398.633,405.104,450.78,384.156,451.435,358.684z M252.164,282.705c23.15,37.262,83.508,12.283,64.51-30.105
				C302.643,221.292,244.367,242.253,252.164,282.705z M234.968,265.497c9.146-17.609,28.25-25.259,41.574-38.704
				c-28.223,7.143-43.349,27.382-55.912,50.171c3.658,2.457,5.02-1.642,7.169,1.442c-0.935,4.98-5.273,11.962-1.442,17.196
				c7.196-0.44,13.164-2.136,17.209-5.728c-0.601-5.434-11.055-0.988-11.468-2.87c0.427-7.223,7.236-8.051,7.169-15.767
				C239.681,267.459,233.7,270.103,234.968,265.497z"/>
			<path d="M646.394,272.666c19.305,55.458,64.99,90.677,57.354,164.867c-3.911,3.177-11.508,0.881-14.338-1.442
				c-1.002,4.473,7.169,28.45-5.741,28.678c8.023,22.068-6.809,45.178-4.299,65.938c-4.553,2.202-6.302,0.507-11.468,0
				c-0.922,19.157-9.079,31.066-21.508,38.717c-4.713-1.509-9.266-3.165-8.598-10.04c-30.854,57.073-119.154,56.7-147.658,116.123
				c-15.112,3.164-14.778-9.118-18.637-17.209c-16.902,9.572-47.555,30.667-64.511,14.339
				c-20.306,6.929-40.438,14.031-58.769,22.937c-8.157-1.415-10.733-8.385-11.481-17.209c-13.07,11.828-29.785,1.335-38.703-7.17
				c-1.642,4.58-4.499,7.917-8.598,10.04c-60.104-17.315-93.708-61.119-137.618-94.615c-16.996,26.647-37.676-23.297-50.185-37.275
				c-4.526-0.227-4.793,3.818-10.026,2.871c-8.197-6.622-16.635-13.004-15.78-28.678c-3.484-4.779-8.571,8.491-12.896,2.871
				C36.338,425.851,113.505,371.1,118.845,272.666c-5.033-11.695-13.19-20.266-20.08-30.105c0-4.779,0-9.559,0-14.338
				c-21.147-1.922-10.36-46.1-10.026-64.51c-2.109-2.163-11.628,2.003-15.767-1.428c4.686-27.329,25.847-38.183,41.574-54.484
				c-3.044-4.125-10.627-3.698-12.91-8.598c3.805-16.047,20.159-11.695,32.976-17.196c1.175-7.383-7.45-4.979-5.741-12.91
				c44.711-21.922,126.096-18.691,153.398,15.767c63.856-19.479,153.411-21.107,213.609,7.169
				c29.679-12.469,62.066-29.518,101.785-27.235c3.244,2.963,4.019,8.397,5.727,12.896c18.478-0.307,28.518,7.81,38.704,15.78
				c-2.964,27.355,47.194,43.416,50.185,83.147c-3.645,4.86-7.983,1.362-12.91,0c1.442,13.778,15.434,48.903-10.04,51.6
				C665.604,246.953,663.135,266.952,646.394,272.666z M677.94,420.323c4.379-1.028,5.221,1.469,8.598,1.441
				c-6.461-89.622-62.854-125.642-70.25-212.181c-25.313-9.091-34.244-34.551-47.302-55.898
				c13.738,10.146,18.758,29.024,31.534,40.132c0.588-3.605,4.913-6.582,7.17-4.299c17.729,15.727,24.044,42.869,32.976,67.38
				c11.495-7.623,13.657-24.565,15.767-41.574c26.941-5.46,3.512-37.542,4.299-53.042c2.177-2.136,6.302-2.31,10.04-2.871
				c-9.559-29.625-43.804-34.564-51.613-65.938c-38.797-19.425-78.755-11.027-113.253,8.598
				c9.318,13.15,29.959,14.966,35.846,31.534C436.562,54.224,225.33,80.618,161.847,179.479c4.486-0.654,6.409,1.255,5.741,5.741
				c-17.676,11.962-21.401,37.862-35.846,53.042c-3.271-20.573,13.992-32.776,20.08-48.743c-3.338,1.042-10.721,3.631-10.04-2.87
				c1.883-3.925,10.48-6.875,15.767-11.468c7.183-6.221,63.055-52.815,63.082-57.341c0.107-16.662-47.221-17.943-58.783-4.299
				c2.577,3.631,13.858-1.428,14.339,4.299c-25.9,16.341-52.829,30.226-53.042,68.809c-14.352-32.269,15.994-52.441,37.275-65.938
				c-3.725-2.497-10.828-1.589-11.468-7.169c17.075-18.264,63.549-21.521,77.407,1.429c15.38-8.037,30.239-16.582,44.444-25.807
				c-29.705-22.309-79.81-27.155-123.292-12.897c3.898,1.843,4.353,7.129,4.312,12.897c-7.851,2.87-21.228,5.567-24.378,8.611
				c2.791,2.457,3.097,7.423,2.871,12.897c-11.375,10.146-30.613,20.039-32.976,34.404c2.91-2.336,10.146,3.177,11.468,7.169
				c-9.279,18.424-6.502,35.032-8.598,58.782c5.314,1.856,9.746,4.593,12.897,8.598c0,8.117,0,16.248,0,24.365
				c53.536,60.131-28.383,153.718-41.574,215.038c9.118,13.19-0.067,29.371,0,45.873c5.447-0.441,13.458,5.78,18.637,10.039
				c2.617,5.033-0.08,15.38,4.299,18.638c2.083-2.217,5.594-3.004,10.04-2.87c11.815,14.472,21.081,31.48,34.404,44.443
				c3.524-4.352,13.631-5.714,18.637-4.299c38.557,35.046,77.113,70.077,124.721,96.044c8.718-21.134,31.708-12.136,40.145,2.871
				c11.548-10.294,29.064-9.866,35.833,4.299c12.376-3.312,44.952-26.314,58.783-10.026c24.004-2.75,36.688-16.835,57.341-22.937
				c4.473,2.203,7.103,6.262,11.468,8.598c43.59-44.817,119.782-57.033,151.957-113.253c4.993,2.163,7.155,7.183,11.468,10.04
				c10.467-7.637,2.456-27.569,11.468-34.418c6.235-2.897,10.307,8.464,11.469,1.441c2.816-34.097-1.242-45.285-10.026-74.549
				c6.141,0.881,5.834-4.673,11.468-4.3C672.987,427.8,674.67,423.273,677.94,420.323z"/>
			<path d="M626.327,159.413c3.312,11.815,20.427,24.071,12.896,37.275c-6.181-13.404-13.724-25.446-22.936-35.846
				c-1.509-5.34,3.017-4.62,4.312-7.156c-7.289-8.491-19.919-11.628-28.677-18.638c1.309-5.38,7.517-5.861,11.468-8.611
				c-17.996-6.796-45.752-11.081-63.081-10.026c17.823-10.881,61.159-0.868,74.55,11.468c-4.793,1.416-7.877,4.553-12.896,5.728
				c10.079,7.129,23.657,10.747,28.663,22.937C630.866,162.216,628.424,156.088,626.327,159.413z"/>
			<path d="M636.367,387.347c26.487,33.697-1.349,74.43-17.209,104.655c21.842,17.543-12.016,49.745-25.807,24.379
				c-6.114,1.041-6.528,7.797-12.896,8.598c10.106,17.89-22.736,40.906-30.105,15.767c-7.917,3.071-14.232,7.757-18.638,14.339
				c14.299,15.232-9.92,36.994-25.807,22.937c-0.214-4.566-3.244-6.315-2.857-11.469c-15.046,1.215-24.752,7.743-35.846,12.896
				c9.732,32.856-30.8,26.288-34.405,5.741c-4.392-1.041-4.219,2.47-8.598,1.429c7.503,33.443-46.646,25.939-38.717,1.429
				c-11.602-6.462-37.982-5.581-43.002,8.61c-8.945,0.814-14.004-2.242-21.507-2.87c-0.841-5.42-7.73-12.27-2.857-18.638
				c-8.237-7.543-20.64-10.907-35.846-11.468c-2.91,1.629,3.097,6.354,1.429,11.468c-6.368,13.018-27.195,10.908-35.833,1.429
				c-0.854-10.4,0.227-18.878,5.727-22.937c-7.943-11.321-26.46-19.345-38.703-7.155c-8.09-1.469-14.312-4.807-18.637-10.04
				c-0.734-5.994,0.801-9.719,2.87-12.91c-5.581-11.494-15.446-21.841-28.677-21.494c-1.869,1.963,4.779,7.583,4.312,12.896
				c-13.137,30.306-61.64-6.194-30.105-22.937c-2.537-39.998-28.971-63.735-30.105-100.343c-1.589-2.616,3.645-10.641,4.299-15.78
				c15.3,4.125,17.115,12.376,32.976-1.429c17.783,0.748,26.474,24.792,11.468,34.404c2.096,6.97,8.598,9.56,11.468,15.768
				c3.685-21.321,18.05-24.031,28.664-18.638c14.752,7.503,7.316,17.062,7.169,31.548c-0.267,27.702,41.44,36.647,53.042,50.171
				c-1.122-6.835-5.981-20.76-4.299-31.534c26.287-16.835,49.464,17.383,28.677,35.833c4.713,6.275,12.776,9.199,22.937,10.04
				c-2.47-2.043-7.583-18.504-1.442-25.807c11.869-4.847,26.26-5.607,32.976,4.299c1.175,9.772-1.161,16.034-5.741,20.066
				c7.944,11.895,30.012,12.256,45.886,8.61c-28.397-33.51,51.479-46.42,34.404-1.441c6.208,4.553,13.898,4.165,22.937,2.87
				c1.749-21.548,18.196-51.613,38.703-24.364c2.149,6.314-1.469,9.865,1.429,14.325c2.977-8.318,5.207-34.818,28.677-25.794
				c0.788,5.421,3.472,8.945,2.87,15.768c7.437-2.123,13.324-5.795,18.638-10.04c-11.067-25.513,23.083-39.998,32.963-20.065
				c7.623-3.378,13.483-8.505,21.508-11.469c0.881-6.622-3.218-8.251-2.871-14.339c2.177-10.64,19.346-22.976,28.678-12.896
				c9.024-8.932,19.398-23.229,22.937-32.976C635.165,389.016,636.047,388.469,636.367,387.347z M614.859,476.235
				c11.842-19.012,31.534-45.565,20.065-74.55c-13.097,13.297-18.637,27.142-24.364,45.873
				C615.073,454.047,615.22,464.888,614.859,476.235z M610.561,517.809c-5.287-6.488,2.216-18.143-4.299-24.378
				c1.655,12.63-1.643,17.022-4.299,24.378C602.563,521,609.559,518.931,610.561,517.809z M607.69,490.574
				c0.947-12.59,1.055-36.301-8.599-43.016C602.964,463.913,598.945,479.293,607.69,490.574z M599.092,436.09
				c4.019-1.228,5.515-4.993,7.17-8.598c-6.516-5.848-18.864,2.938-17.209,14.339c4.605-0.348,6.662,1.762,11.468,4.299
				c-1.041-3.912,2.857-2.884,2.87-5.741C600.267,440.656,598.825,439.228,599.092,436.09z M574.714,519.237
				c29.531-7.209,26.367-39.878,14.339-65.938c-8.678,8.037-22.376,11.067-28.664,21.508
				C563.727,491.041,569.374,504.992,574.714,519.237z M563.246,546.486c6.448-1.683,9.479-6.782,10.039-14.339
				c-13.311-11.668-11.494-37.942-22.936-54.483c4.592-7.13,6.568-12.363,1.428-20.066c-11.868-1.361-15.059,5.955-17.195,14.339
				c7.169-1.041,9.452-4.419,14.339,1.429c-7.17,21.107,20.854,46.606,8.598,68.809
				C559.428,543.615,561.844,544.537,563.246,546.486z M553.22,532.147c-3.524-17.516-5.621-36.434-15.768-47.314
				c-8.784,6.034-17.85,11.789-28.677,15.768c9.238,13.697,10.614,35.271,18.638,50.185
				C530.604,539.156,542.152,535.899,553.22,532.147z M524.543,575.149c1.121-3.19,3.017-5.594,2.87-10.039
				c-1.015-4.246-8.237-2.27-8.598-7.17c0.307-4.605-2.537-6.061-1.442-11.454c-7.637-12.443-7.81-32.322-15.767-44.444
				c0.854,11.175,10.867,37.809,12.896,57.341c-0.347,4.793-7.169,7.877-2.857,12.896
				C513.222,575.951,519.336,575.097,524.543,575.149z M500.178,499.172c1.843-8.011,4.887-9.186,4.299-17.209
				c-9.012-5.167-13.991,4.766-15.767,11.468C495.879,492.002,499.337,494.271,500.178,499.172z M505.905,557.94
				c-2.924-19.051-6.542-37.408-12.896-53.041c-8.799-0.188-11.001,6.208-20.066,5.74c0.948,24.365-7.343,39.491-8.611,61.64
				C477.842,566.285,490.886,558.488,505.905,557.94z M460.032,589.488c-15.22-14.165,11.855-73.602,11.469-94.615
				c-0.094-5.181-11.401-24.259-18.638-4.299c-0.387,5.166,5.674,3.885,5.741,8.598
				C441.396,519.932,433.158,606.083,460.032,589.488z M434.226,576.578c3.632-14.151,3.872-34.925,4.299-55.898
				c-10.413,1.055-18.877-1.589-22.936-2.871c-0.548,17.076,6.741,37.97,5.74,60.212
				C424.801,581.077,427.443,574.603,434.226,576.578z M405.562,504.899c2.576-2.671,8.504-2.003,7.169-8.599
				c-2.123-13.804-30.493-19.531-27.249,2.871c16.528,24.098,15.22,57.101,17.209,88.875c-5.46,2.496-9.438-2.443-10.039,4.312
				c-1.643,13.164,21.014,12.296,24.378,4.299C410.769,566.792,409.354,538.649,405.562,504.899z M395.522,580.891
				c-1.255-22.162-4.605-42.228-8.598-61.653c-17.609,2.844-31.627-0.267-47.314-2.856c4.913,24.058,0.333,49.236,17.209,60.197
				C374.883,575.337,382.065,576.846,395.522,580.891z M341.052,588.047c0.187-6.008,3.444-8.959,5.728-12.897
				c-17.209-17.195-12.323-56.486-18.638-84.575c2.39,0,4.78,0,7.169,0c-0.147-13.685-12.67-11.509-21.508-7.17
				c0,3.818,0,7.637,0,11.469c12.122,11.348,23.764,66.539,11.468,87.446C326.967,587.793,333.095,588.834,341.052,588.047z
				 M322.415,565.11c-0.654-19.412-4.899-35.246-7.169-53.042c-13.057,0.146-20.346-5.461-30.105-8.598
				c-0.921,19.211-4.713,31.681-7.169,51.613C297.863,554.87,306.034,560.237,322.415,565.11z M288.01,473.365
				c2.069-12.656-23.911-22.87-21.508-2.871c13.524,2.257,0.267,19.372,8.598,24.379c-9.652,16.635-7.062,43.977-8.598,63.067
				c-2.189,5.167-9.666,1.843-10.04,5.741c0.04,3.378-2.47,4.219-1.429,8.598c6.048,1.121,8.171,6.168,17.196,4.299
				c0.841-2.977,3.017-4.633,4.312-7.155C264.353,547.367,278.305,496.675,288.01,473.365z M259.333,543.615
				c-1.656-18.864,3.778-30.626,4.299-47.314c-20.667-4.659-31.948-26.34-48.743-30.105c0.12,19.799,12.349,46.594,15.767,63.082
				C240.923,533.362,247.451,541.159,259.333,543.615z M204.863,535.005c5.233,6.715,13.083,2.604,18.624-1.429
				c-8.451-32.375-24.378-77.888-17.195-111.812c-1.055-5.647-15.02-11.308-17.209-2.87c14.298,19.692,8.064,70.665,22.937,100.343
				C208.654,523.51,203.968,526.474,204.863,535.005z M169.017,490.574c11.508,0.601,23.75,15.206,28.677,12.896
				c-1.656-33.737-7.971-70.371-34.405-74.55C166.774,447.905,166.093,471.042,169.017,490.574z M163.289,397.387
				c1.442-13.871-16.114-15.954-20.079-5.728c11.067,25.272,5.34,75.098,8.611,107.513c-2.951,4.913-9.479-1.229-10.04,4.299
				c0.734,9.786,3.164,17.85,15.767,15.767C173.275,489.973,141.434,422.953,163.289,397.387z M144.652,453.299
				c-0.975-12.856-4.993-27.916-1.442-43.016c-6.688-5.728-11.188-13.657-18.637-18.624
				C124.906,411.938,131.061,446.29,144.652,453.299z"/>
			<path d="M584.754,162.283c4.111,4.486,10.681,6.515,12.91,12.896C592.911,171.335,585.755,169.879,584.754,162.283z"/>
			<path d="M515.944,301.343c-4.712,5.714-15.807,1.829-15.767-5.741c5.527-3.244,3.845,3.231,10.026,2.87
				c0.44-13.337-8.451-17.355-12.896-25.807c-1.362-5.18,5.647-2.002,8.598-2.87c-2.149-18.864-17.93-24.111-25.807-37.275
				C510.818,240.945,510.805,273.427,515.944,301.343z"/>
			<path d="M475.812,243.989c6.942,5.968,14.753,11.041,21.495,17.209c-11.549,61.479-83.415-4.686-21.508-18.638
				C477.415,242.84,476.614,243.989,475.812,243.989z"/>
			<path d="M325.272,342.917c28.316-22.896,127.231-25.62,126.163,15.767c-0.654,25.473-52.802,46.42-70.251,51.6
				c0.642,12.924,1.215,16.782,1.442,30.105c7.703,3.766,12.282,10.654,14.325,20.08c-9.092-4.286-13.524-13.23-20.066-20.08
				c-6.488,6.89-8.704,18.051-17.195,22.937c5.674-16.287,18.104-25.847,15.768-50.171
				C354.416,394.851,317.288,381.139,325.272,342.917z M403.733,380.258c6.862-7.649,31.827-16.074,30.492-24.445
				c-1.896-11.909-51.346-14.646-65.938-12.896C393.053,342.676,416.99,361.54,403.733,380.258
				c-0.428,0.454-0.774,0.908-1.042,1.362C403.065,381.166,403.399,380.712,403.733,380.258z"/>
			<path d="M316.674,252.6c18.998,42.388-41.36,67.367-64.51,30.105C244.367,242.253,302.643,221.292,316.674,252.6z"/>
			<path d="M276.542,226.793c-13.324,13.444-32.428,21.094-41.574,38.704c-1.268,4.606,4.713,1.962,4.299,5.741
				c0.066,7.716-6.742,8.544-7.169,15.767c0.414,1.882,10.867-2.563,11.468,2.87c-4.045,3.591-10.013,5.287-17.209,5.728
				c-3.832-5.233,0.507-12.216,1.442-17.196c-2.149-3.084-3.511,1.015-7.169-1.442C233.193,254.175,248.319,233.936,276.542,226.793
				z"/>
		</g>
	</g>
</g>
<g id="Layer_2_x23_FFFFFF">
	<g>
		<g>
			<path fill="#FFFFFF" d="M606.262,493.431c6.515,6.235-0.988,17.89,4.299,24.378c-1.002,1.122-7.997,3.191-8.598,0
				C604.619,510.453,607.917,506.061,606.262,493.431z"/>
			<path fill="#FFFFFF" d="M599.092,447.559c9.653,6.715,9.546,30.426,8.599,43.016
				C598.945,479.293,602.964,463.913,599.092,447.559z"/>
			<path fill="#FFFFFF" d="M606.262,427.492c-1.655,3.604-3.151,7.37-7.17,8.598c-0.267,3.138,1.175,4.566,4.299,4.299
				c-0.013,2.857-3.911,1.829-2.87,5.741c-4.806-2.537-6.862-4.646-11.468-4.299C587.397,430.43,599.746,421.645,606.262,427.492z"
				/>
			<path fill="#FFFFFF" d="M573.285,532.147c-0.561,7.557-3.591,12.656-10.039,14.339c-1.402-1.949-3.818-2.871-5.728-4.312
				c12.256-22.202-15.768-47.701-8.598-68.809c-4.887-5.848-7.17-2.47-14.339-1.429c2.137-8.384,5.327-15.7,17.195-14.339
				c5.141,7.703,3.164,12.937-1.428,20.066C561.791,494.205,559.975,520.479,573.285,532.147z"/>
			<path fill="#FFFFFF" d="M527.413,565.11c0.146,4.445-1.749,6.849-2.87,10.039c-5.207-0.053-11.321,0.802-12.897-2.87
				c-4.312-5.02,2.511-8.104,2.857-12.896c-2.029-19.532-12.042-46.166-12.896-57.341c7.957,12.122,8.13,32.001,15.767,44.444
				c-1.095,5.394,1.749,6.849,1.442,11.454C519.176,562.841,526.398,560.864,527.413,565.11z"/>
			<path fill="#FFFFFF" d="M504.477,481.963c0.588,8.023-2.456,9.198-4.299,17.209c-0.841-4.9-4.299-7.17-11.468-5.741
				C490.485,486.729,495.465,476.796,504.477,481.963z"/>
			<path fill="#FFFFFF" d="M471.501,494.873c0.387,21.014-26.688,80.45-11.469,94.615c-26.874,16.595-18.637-69.557-1.428-90.316
				c-0.067-4.713-6.128-3.432-5.741-8.598C460.1,470.614,471.407,489.692,471.501,494.873z"/>
			<path fill="#FFFFFF" d="M434.226,355.813c1.335,8.371-23.63,16.795-30.492,24.445c13.257-18.718-10.681-37.582-35.446-37.341
				C382.88,341.167,432.33,343.904,434.226,355.813z"/>
			<path fill="#FFFFFF" d="M412.731,496.301c1.335,6.596-4.593,5.928-7.169,8.599c3.791,33.75,5.206,61.893,11.468,91.758
				c-3.364,7.997-26.021,8.865-24.378-4.299c0.601-6.755,4.579-1.815,10.039-4.312c-1.989-31.774-0.681-64.777-17.209-88.875
				C382.238,476.77,410.608,482.497,412.731,496.301z"/>
			<path fill="#FFFFFF" d="M403.733,380.258c-0.334,0.454-0.668,0.908-1.042,1.362C402.959,381.166,403.306,380.712,403.733,380.258
				z"/>
			<path fill="#FFFFFF" d="M346.78,575.149c-2.283,3.938-5.541,6.89-5.728,12.897c-7.957,0.787-14.085-0.254-15.78-5.728
				c12.296-20.907,0.654-76.099-11.468-87.446c0-3.832,0-7.65,0-11.469c8.838-4.339,21.361-6.515,21.508,7.17
				c-2.39,0-4.78,0-7.169,0C334.457,518.663,329.571,557.954,346.78,575.149z"/>
			<path fill="#FFFFFF" d="M266.502,470.494c-2.403-19.999,23.577-9.785,21.508,2.871c-9.706,23.31-23.657,74.002-11.468,96.058
				c-1.295,2.522-3.471,4.179-4.312,7.155c-9.025,1.869-11.148-3.178-17.196-4.299c-1.041-4.379,1.469-5.22,1.429-8.598
				c0.374-3.898,7.85-0.574,10.04-5.741c1.536-19.091-1.055-46.433,8.598-63.067C266.77,489.866,280.027,472.751,266.502,470.494z"
				/>
			<path fill="#FFFFFF" d="M223.487,533.576c-5.541,4.032-13.391,8.144-18.624,1.429c-0.895-8.531,3.792-11.495,7.156-15.768
				c-14.873-29.678-8.638-80.65-22.937-100.343c2.189-8.438,16.154-2.777,17.209,2.87
				C199.109,455.688,215.036,501.201,223.487,533.576z"/>
			<path fill="#FFFFFF" d="M143.21,391.659c3.965-10.227,21.521-8.144,20.079,5.728c-21.855,25.566,9.986,92.586-5.741,121.851
				c-12.603,2.083-15.033-5.98-15.767-15.767c0.561-5.527,7.089,0.614,10.04-4.299C148.55,466.757,154.277,416.932,143.21,391.659z"
				/>
		</g>
	</g>
</g>
<g id="Layer_3_x23_ED1C24">
	<g>
		<g>
			<path fill="none" d="M686.538,421.765c-3.377,0.027-4.219-2.47-8.598-1.441c-3.271,2.95-4.953,7.477-4.299,14.338
				c-5.634-0.373-5.327,5.181-11.468,4.3c8.784,29.264,12.843,40.452,10.026,74.549c-1.162,7.022-5.233-4.339-11.469-1.441
				c-9.012,6.849-1.001,26.781-11.468,34.418c-4.312-2.857-6.475-7.877-11.468-10.04c-32.175,56.22-108.367,68.436-151.957,113.253
				c-4.365-2.336-6.995-6.395-11.468-8.598c-20.653,6.102-33.337,20.187-57.341,22.937c-13.831-16.288-46.406,6.715-58.783,10.026
				c-6.769-14.165-24.285-14.593-35.833-4.299c-8.438-15.007-31.427-24.005-40.145-2.871
				c-47.608-25.967-86.165-60.998-124.721-96.044c-5.006-1.415-15.113-0.053-18.637,4.299
				c-13.324-12.963-22.589-29.972-34.404-44.443c-4.446-0.134-7.957,0.653-10.04,2.87c-4.379-3.258-1.682-13.604-4.299-18.638
				c-5.18-4.259-13.19-10.48-18.637-10.039c-0.067-16.502,9.118-32.683,0-45.873c13.19-61.319,95.109-154.907,41.574-215.038
				c0-8.117,0-16.248,0-24.365c-3.151-4.005-7.583-6.742-12.897-8.598c2.096-23.75-0.681-40.358,8.598-58.782
				c-1.322-3.992-8.558-9.506-11.468-7.169c2.363-14.365,21.601-24.258,32.976-34.404c0.227-5.474-0.08-10.44-2.871-12.897
				c3.151-3.044,16.528-5.741,24.378-8.611c0.04-5.768-0.414-11.054-4.312-12.897c43.483-14.258,93.587-9.412,123.292,12.897
				c-14.205,9.225-29.064,17.77-44.444,25.807c-13.858-22.95-60.332-19.692-77.407-1.429c0.641,5.581,7.743,4.673,11.468,7.169
				c-21.281,13.498-51.627,33.67-37.275,65.938c0.213-38.583,27.142-52.468,53.042-68.809c-0.481-5.727-11.762-0.667-14.339-4.299
				c11.562-13.644,58.89-12.363,58.783,4.299c-0.027,4.526-55.899,51.12-63.082,57.341c-5.287,4.593-13.884,7.543-15.767,11.468
				c-0.681,6.501,6.702,3.912,10.04,2.87c-6.088,15.967-23.351,28.17-20.08,48.743c14.445-15.18,18.17-41.08,35.846-53.042
				c0.668-4.486-1.255-6.395-5.741-5.741c63.482-98.861,274.715-125.255,379.904-45.873c-5.887-16.568-26.527-18.384-35.846-31.534
				c34.498-19.625,74.456-28.022,113.253-8.598c7.81,31.374,42.055,36.313,51.613,65.938c-3.738,0.561-7.863,0.734-10.04,2.871
				c-0.787,15.5,22.643,47.582-4.299,53.042c-2.109,17.009-4.271,33.951-15.767,41.574c-8.932-24.511-15.246-51.653-32.976-67.38
				c-2.257-2.283-6.582,0.694-7.17,4.299c-12.776-11.108-17.796-29.986-31.534-40.132c13.058,21.347,21.988,46.807,47.302,55.898
				C623.684,296.123,680.077,332.143,686.538,421.765z M639.224,196.688c7.53-13.204-9.585-25.459-12.896-37.275
				c2.097-3.324,4.539,2.804,4.299-2.87c-5.006-12.189-18.584-15.807-28.663-22.937c5.02-1.175,8.104-4.312,12.896-5.728
				c-13.391-12.336-56.727-22.349-74.55-11.468c17.329-1.055,45.085,3.23,63.081,10.026c-3.951,2.75-10.159,3.23-11.468,8.611
				c8.758,7.009,21.388,10.146,28.677,18.638c-1.295,2.536-5.82,1.815-4.312,7.156C625.5,171.241,633.043,183.284,639.224,196.688z
				 M619.158,492.002c15.86-30.226,43.696-70.958,17.209-104.655c-0.32,1.122-1.202,1.669-2.87,1.442
				c-3.538,9.746-13.912,24.044-22.937,32.976c-9.332-10.079-26.501,2.257-28.678,12.896c-0.347,6.088,3.752,7.717,2.871,14.339
				c-8.024,2.964-13.885,8.091-21.508,11.469c-9.88-19.933-44.03-5.447-32.963,20.065c-5.313,4.245-11.201,7.917-18.638,10.04
				c0.602-6.822-2.082-10.347-2.87-15.768c-23.47-9.024-25.7,17.476-28.677,25.794c-2.897-4.46,0.721-8.011-1.429-14.325
				c-20.507-27.249-36.954,2.816-38.703,24.364c-9.038,1.295-16.729,1.683-22.937-2.87c17.075-44.979-62.801-32.068-34.404,1.441
				c-15.874,3.646-37.942,3.284-45.886-8.61c4.58-4.032,6.916-10.294,5.741-20.066c-6.715-9.906-21.107-9.146-32.976-4.299
				c-6.142,7.303-1.028,23.764,1.442,25.807c-10.16-0.841-18.224-3.765-22.937-10.04c20.787-18.45-2.39-52.668-28.677-35.833
				c-1.683,10.774,3.177,24.699,4.299,31.534c-11.602-13.523-53.309-22.469-53.042-50.171c0.147-14.485,7.583-24.045-7.169-31.548
				c-10.614-5.394-24.979-2.684-28.664,18.638c-2.87-6.208-9.372-8.798-11.468-15.768c15.006-9.612,6.315-33.656-11.468-34.404
				c-15.861,13.805-17.676,5.554-32.976,1.429c-0.654,5.14-5.888,13.164-4.299,15.78c1.135,36.607,27.569,60.345,30.105,100.343
				c-31.534,16.742,16.969,53.242,30.105,22.937c0.467-5.313-6.181-10.934-4.312-12.896c13.23-0.347,23.096,10,28.677,21.494
				c-2.069,3.191-3.604,6.916-2.87,12.91c4.325,5.233,10.547,8.571,18.637,10.04c12.243-12.189,30.76-4.166,38.703,7.155
				c-5.5,4.059-6.582,12.536-5.727,22.937c8.638,9.479,29.465,11.589,35.833-1.429c1.668-5.113-4.339-9.839-1.429-11.468
				c15.207,0.561,27.609,3.925,35.846,11.468c-4.873,6.368,2.016,13.218,2.857,18.638c7.503,0.628,12.562,3.685,21.507,2.87
				c5.02-14.191,31.4-15.072,43.002-8.61c-7.93,24.511,46.22,32.015,38.717-1.429c4.379,1.041,4.206-2.47,8.598-1.429
				c3.605,20.547,44.138,27.115,34.405-5.741c11.094-5.153,20.8-11.682,35.846-12.896c-0.387,5.153,2.644,6.902,2.857,11.469
				c15.887,14.058,40.105-7.704,25.807-22.937c4.405-6.582,10.721-11.268,18.638-14.339c7.369,25.14,40.212,2.123,30.105-15.767
				c6.368-0.801,6.782-7.557,12.896-8.598C607.143,541.747,641,509.545,619.158,492.002z M597.664,175.18
				c-2.229-6.381-8.799-8.411-12.91-12.896C585.755,169.879,592.911,171.335,597.664,175.18z M500.178,295.602
				c-0.04,7.57,11.055,11.455,15.767,5.741c-5.14-27.916-5.126-60.398-35.846-68.822c7.877,13.164,23.657,18.411,25.807,37.275
				c-2.95,0.868-9.96-2.31-8.598,2.87c4.445,8.451,13.337,12.47,12.896,25.807C504.022,298.833,505.705,292.358,500.178,295.602z
				 M497.308,261.198c-6.742-6.168-14.553-11.241-21.495-17.209c0.802,0,1.603-1.148-0.013-1.429
				C413.893,256.512,485.759,322.677,497.308,261.198z M451.435,358.684c1.068-41.387-97.846-38.664-126.163-15.767
				c-7.984,38.222,29.144,51.934,50.185,70.238c2.336,24.324-10.094,33.884-15.768,50.171c8.491-4.886,10.707-16.047,17.195-22.937
				c6.542,6.85,10.975,15.794,20.066,20.08c-2.043-9.426-6.622-16.314-14.325-20.08c-0.228-13.323-0.801-17.182-1.442-30.105
				C398.633,405.104,450.78,384.156,451.435,358.684z M252.164,282.705c23.15,37.262,83.508,12.283,64.51-30.105
				C302.643,221.292,244.367,242.253,252.164,282.705z M234.968,265.497c9.146-17.609,28.25-25.259,41.574-38.704
				c-28.223,7.143-43.349,27.382-55.912,50.171c3.658,2.457,5.02-1.642,7.169,1.442c-0.935,4.98-5.273,11.962-1.442,17.196
				c7.196-0.44,13.164-2.136,17.209-5.728c-0.601-5.434-11.055-0.988-11.468-2.87c0.427-7.223,7.236-8.051,7.169-15.767
				C239.681,267.459,233.7,270.103,234.968,265.497z"/>
			<path fill="none" d="M434.226,355.813c1.335,8.371-23.63,16.795-30.492,24.445c13.257-18.718-10.681-37.582-35.446-37.341
				C382.88,341.167,432.33,343.904,434.226,355.813z"/>
			<path fill="none" d="M325.272,342.917c28.316-22.896,127.231-25.62,126.163,15.767c-0.654,25.473-52.802,46.42-70.251,51.6
				c0.642,12.924,1.215,16.782,1.442,30.105c7.703,3.766,12.282,10.654,14.325,20.08c-9.092-4.286-13.524-13.23-20.066-20.08
				c-6.488,6.89-8.704,18.051-17.195,22.937c5.674-16.287,18.104-25.847,15.768-50.171
				C354.416,394.851,317.288,381.139,325.272,342.917z M403.733,380.258c6.862-7.649,31.827-16.074,30.492-24.445
				c-1.896-11.909-51.346-14.646-65.938-12.896C393.053,342.676,416.99,361.54,403.733,380.258
				c-0.428,0.454-0.774,0.908-1.042,1.362C403.065,381.166,403.399,380.712,403.733,380.258z"/>
			<path fill="#ED1C24" d="M634.925,401.686c11.469,28.984-8.224,55.538-20.065,74.55c0.36-11.348,0.214-22.188-4.299-28.677
				C616.288,428.827,621.828,414.982,634.925,401.686z"/>
			<path fill="#ED1C24" d="M589.053,453.299c12.028,26.061,15.192,58.729-14.339,65.938c-5.34-14.245-10.987-28.196-14.325-44.431
				C566.677,464.366,580.375,461.336,589.053,453.299z"/>
			<path fill="#ED1C24" d="M537.452,484.833c10.146,10.881,12.243,29.799,15.768,47.314c-11.067,3.752-22.616,7.009-25.807,18.638
				c-8.023-14.913-9.399-36.487-18.638-50.185C519.603,496.622,528.668,490.867,537.452,484.833z"/>
			<path fill="#ED1C24" d="M493.009,504.899c6.354,15.633,9.973,33.99,12.896,53.041c-15.02,0.548-28.063,8.345-41.574,14.339
				c1.269-22.148,9.56-37.274,8.611-61.64C482.008,511.107,484.21,504.712,493.009,504.899z"/>
			<path fill="#ED1C24" d="M438.524,520.68c-0.427,20.974-0.667,41.747-4.299,55.898c-6.782-1.976-9.425,4.499-12.896,1.442
				c1.001-22.242-6.288-43.136-5.74-60.212C419.647,519.091,428.111,521.734,438.524,520.68z"/>
			<path fill="#ED1C24" d="M386.925,519.237c3.992,19.426,7.343,39.491,8.598,61.653c-13.457-4.045-20.64-5.554-38.703-4.312
				c-16.875-10.961-12.296-36.14-17.209-60.197C355.297,518.971,369.315,522.081,386.925,519.237z"/>
			<path fill="#ED1C24" d="M315.246,512.068c2.27,17.796,6.515,33.63,7.169,53.042c-16.381-4.873-24.551-10.24-44.444-10.026
				c2.457-19.933,6.248-32.402,7.169-51.613C294.899,506.607,302.188,512.215,315.246,512.068z"/>
			<path fill="#ED1C24" d="M263.632,496.301c-0.521,16.688-5.955,28.45-4.299,47.314c-11.882-2.456-18.411-10.253-28.677-14.338
				c-3.418-16.488-15.647-43.283-15.767-63.082C231.684,469.961,242.965,491.642,263.632,496.301z"/>
			<path fill="#ED1C24" d="M197.694,503.471c-4.927,2.31-17.169-12.296-28.677-12.896c-2.924-19.532-2.243-42.669-5.728-61.653
				C189.723,433.1,196.038,469.733,197.694,503.471z"/>
			<path fill="#ED1C24" d="M143.21,410.283c-3.551,15.1,0.467,30.159,1.442,43.016c-13.591-7.009-19.746-41.36-20.079-61.64
				C132.022,396.626,136.521,404.556,143.21,410.283z"/>
		</g>
	</g>
</g>
<g id="Layer_4_x23_967348">
	<g>
		<g>
			<path fill="none" d="M386.925,519.237c3.992,19.426,7.343,39.491,8.598,61.653c-13.457-4.045-20.64-5.554-38.703-4.312
				c-16.875-10.961-12.296-36.14-17.209-60.197C355.297,518.971,369.315,522.081,386.925,519.237z"/>
			<path fill="none" d="M434.226,355.813c1.335,8.371-23.63,16.795-30.492,24.445c13.257-18.718-10.681-37.582-35.446-37.341
				C382.88,341.167,432.33,343.904,434.226,355.813z"/>
			<path fill="#977348" d="M686.538,421.765c-3.377,0.027-4.219-2.47-8.598-1.441c-3.271,2.95-4.953,7.477-4.299,14.338
				c-5.634-0.373-5.327,5.181-11.468,4.3c8.784,29.264,12.843,40.452,10.026,74.549c-1.162,7.022-5.233-4.339-11.469-1.441
				c-9.012,6.849-1.001,26.781-11.468,34.418c-4.312-2.857-6.475-7.877-11.468-10.04c-32.175,56.22-108.367,68.436-151.957,113.253
				c-4.365-2.336-6.995-6.395-11.468-8.598c-20.653,6.102-33.337,20.187-57.341,22.937c-13.831-16.288-46.406,6.715-58.783,10.026
				c-6.769-14.165-24.285-14.593-35.833-4.299c-8.438-15.007-31.427-24.005-40.145-2.871
				c-47.608-25.967-86.165-60.998-124.721-96.044c-5.006-1.415-15.113-0.053-18.637,4.299
				c-13.324-12.963-22.589-29.972-34.404-44.443c-4.446-0.134-7.957,0.653-10.04,2.87c-4.379-3.258-1.682-13.604-4.299-18.638
				c-5.18-4.259-13.19-10.48-18.637-10.039c-0.067-16.502,9.118-32.683,0-45.873c13.19-61.319,95.109-154.907,41.574-215.038
				c0-8.117,0-16.248,0-24.365c-3.151-4.005-7.583-6.742-12.897-8.598c2.096-23.75-0.681-40.358,8.598-58.782
				c-1.322-3.992-8.558-9.506-11.468-7.169c2.363-14.365,21.601-24.258,32.976-34.404c0.227-5.474-0.08-10.44-2.871-12.897
				c3.151-3.044,16.528-5.741,24.378-8.611c0.04-5.768-0.414-11.054-4.312-12.897c43.483-14.258,93.587-9.412,123.292,12.897
				c-14.205,9.225-29.064,17.77-44.444,25.807c-13.858-22.95-60.332-19.692-77.407-1.429c0.641,5.581,7.743,4.673,11.468,7.169
				c-21.281,13.498-51.627,33.67-37.275,65.938c0.213-38.583,27.142-52.468,53.042-68.809c-0.481-5.727-11.762-0.667-14.339-4.299
				c11.562-13.644,58.89-12.363,58.783,4.299c-0.027,4.526-55.899,51.12-63.082,57.341c-5.287,4.593-13.884,7.543-15.767,11.468
				c-0.681,6.501,6.702,3.912,10.04,2.87c-6.088,15.967-23.351,28.17-20.08,48.743c14.445-15.18,18.17-41.08,35.846-53.042
				c0.668-4.486-1.255-6.395-5.741-5.741c63.482-98.861,274.715-125.255,379.904-45.873c-5.887-16.568-26.527-18.384-35.846-31.534
				c34.498-19.625,74.456-28.022,113.253-8.598c7.81,31.374,42.055,36.313,51.613,65.938c-3.738,0.561-7.863,0.734-10.04,2.871
				c-0.787,15.5,22.643,47.582-4.299,53.042c-2.109,17.009-4.271,33.951-15.767,41.574c-8.932-24.511-15.246-51.653-32.976-67.38
				c-2.257-2.283-6.582,0.694-7.17,4.299c-12.776-11.108-17.796-29.986-31.534-40.132c13.058,21.347,21.988,46.807,47.302,55.898
				C623.684,296.123,680.077,332.143,686.538,421.765z M639.224,196.688c7.53-13.204-9.585-25.459-12.896-37.275
				c2.097-3.324,4.539,2.804,4.299-2.87c-5.006-12.189-18.584-15.807-28.663-22.937c5.02-1.175,8.104-4.312,12.896-5.728
				c-13.391-12.336-56.727-22.349-74.55-11.468c17.329-1.055,45.085,3.23,63.081,10.026c-3.951,2.75-10.159,3.23-11.468,8.611
				c8.758,7.009,21.388,10.146,28.677,18.638c-1.295,2.536-5.82,1.815-4.312,7.156C625.5,171.241,633.043,183.284,639.224,196.688z
				 M619.158,492.002c15.86-30.226,43.696-70.958,17.209-104.655c-0.32,1.122-1.202,1.669-2.87,1.442
				c-3.538,9.746-13.912,24.044-22.937,32.976c-9.332-10.079-26.501,2.257-28.678,12.896c-0.347,6.088,3.752,7.717,2.871,14.339
				c-8.024,2.964-13.885,8.091-21.508,11.469c-9.88-19.933-44.03-5.447-32.963,20.065c-5.313,4.245-11.201,7.917-18.638,10.04
				c0.602-6.822-2.082-10.347-2.87-15.768c-23.47-9.024-25.7,17.476-28.677,25.794c-2.897-4.46,0.721-8.011-1.429-14.325
				c-20.507-27.249-36.954,2.816-38.703,24.364c-9.038,1.295-16.729,1.683-22.937-2.87c17.075-44.979-62.801-32.068-34.404,1.441
				c-15.874,3.646-37.942,3.284-45.886-8.61c4.58-4.032,6.916-10.294,5.741-20.066c-6.715-9.906-21.107-9.146-32.976-4.299
				c-6.142,7.303-1.028,23.764,1.442,25.807c-10.16-0.841-18.224-3.765-22.937-10.04c20.787-18.45-2.39-52.668-28.677-35.833
				c-1.683,10.774,3.177,24.699,4.299,31.534c-11.602-13.523-53.309-22.469-53.042-50.171c0.147-14.485,7.583-24.045-7.169-31.548
				c-10.614-5.394-24.979-2.684-28.664,18.638c-2.87-6.208-9.372-8.798-11.468-15.768c15.006-9.612,6.315-33.656-11.468-34.404
				c-15.861,13.805-17.676,5.554-32.976,1.429c-0.654,5.14-5.888,13.164-4.299,15.78c1.135,36.607,27.569,60.345,30.105,100.343
				c-31.534,16.742,16.969,53.242,30.105,22.937c0.467-5.313-6.181-10.934-4.312-12.896c13.23-0.347,23.096,10,28.677,21.494
				c-2.069,3.191-3.604,6.916-2.87,12.91c4.325,5.233,10.547,8.571,18.637,10.04c12.243-12.189,30.76-4.166,38.703,7.155
				c-5.5,4.059-6.582,12.536-5.727,22.937c8.638,9.479,29.465,11.589,35.833-1.429c1.668-5.113-4.339-9.839-1.429-11.468
				c15.207,0.561,27.609,3.925,35.846,11.468c-4.873,6.368,2.016,13.218,2.857,18.638c7.503,0.628,12.562,3.685,21.507,2.87
				c5.02-14.191,31.4-15.072,43.002-8.61c-7.93,24.511,46.22,32.015,38.717-1.429c4.379,1.041,4.206-2.47,8.598-1.429
				c3.605,20.547,44.138,27.115,34.405-5.741c11.094-5.153,20.8-11.682,35.846-12.896c-0.387,5.153,2.644,6.902,2.857,11.469
				c15.887,14.058,40.105-7.704,25.807-22.937c4.405-6.582,10.721-11.268,18.638-14.339c7.369,25.14,40.212,2.123,30.105-15.767
				c6.368-0.801,6.782-7.557,12.896-8.598C607.143,541.747,641,509.545,619.158,492.002z M597.664,175.18
				c-2.229-6.381-8.799-8.411-12.91-12.896C585.755,169.879,592.911,171.335,597.664,175.18z M500.178,295.602
				c-0.04,7.57,11.055,11.455,15.767,5.741c-5.14-27.916-5.126-60.398-35.846-68.822c7.877,13.164,23.657,18.411,25.807,37.275
				c-2.95,0.868-9.96-2.31-8.598,2.87c4.445,8.451,13.337,12.47,12.896,25.807C504.022,298.833,505.705,292.358,500.178,295.602z
				 M497.308,261.198c-6.742-6.168-14.553-11.241-21.495-17.209c0.802,0,1.603-1.148-0.013-1.429
				C413.893,256.512,485.759,322.677,497.308,261.198z M451.435,358.684c1.068-41.387-97.846-38.664-126.163-15.767
				c-7.984,38.222,29.144,51.934,50.185,70.238c2.336,24.324-10.094,33.884-15.768,50.171c8.491-4.886,10.707-16.047,17.195-22.937
				c6.542,6.85,10.975,15.794,20.066,20.08c-2.043-9.426-6.622-16.314-14.325-20.08c-0.228-13.323-0.801-17.182-1.442-30.105
				C398.633,405.104,450.78,384.156,451.435,358.684z M252.164,282.705c23.15,37.262,83.508,12.283,64.51-30.105
				C302.643,221.292,244.367,242.253,252.164,282.705z M234.968,265.497c9.146-17.609,28.25-25.259,41.574-38.704
				c-28.223,7.143-43.349,27.382-55.912,50.171c3.658,2.457,5.02-1.642,7.169,1.442c-0.935,4.98-5.273,11.962-1.442,17.196
				c7.196-0.44,13.164-2.136,17.209-5.728c-0.601-5.434-11.055-0.988-11.468-2.87c0.427-7.223,7.236-8.051,7.169-15.767
				C239.681,267.459,233.7,270.103,234.968,265.497z"/>
		</g>
	</g>
</g>
</svg>
