<?xml version="1.0" encoding="utf-8"?>
<!-- Generator: Adobe Illustrator 14.0.0, SVG Export Plug-In . SVG Version: 6.00 Build 43363)  -->
<!DOCTYPE svg PUBLIC "-//W3C//DTD SVG 1.0//EN" "http://www.w3.org/TR/2001/REC-SVG-20010904/DTD/svg10.dtd">
<svg version="1.0" id="Layer_1" xmlns="http://www.w3.org/2000/svg" xmlns:xlink="http://www.w3.org/1999/xlink" x="0px" y="0px"
	 width="612px" height="792px" viewBox="0 0 612 792" enable-background="new 0 0 612 792" xml:space="preserve">
<g>
	<path fill-rule="evenodd" clip-rule="evenodd" d="M217.046,343.53c-23.907,2.021-49.741,4.812-69.16-2.881
		c-10.596-4.198-34.098-20.25-30.979-36.021c1.055-5.332,5.569-4.662,6.484-7.205c1.64-4.555-0.168-12.943-1.441-15.128
		c-1.625-2.792-6.62-3.51-9.366-5.764c-8.806-7.231-7.334-22.261-0.719-32.418c3.275-5.03,9.523-10.953,13.688-15.129
		c-2.043-6.762-3.009-15.226-0.721-21.613c3.196-8.921,20.29-8.489,28.096-12.246c6.722-6.665,16.457-16.107,23.774-23.053
		c29.015-27.542,92.956-50.059,148.405-30.979c16.971,5.84,34.361,13.583,49.709,23.773c15.438,10.252,30.91,19.778,43.053,30.429
		c10.596,9.292,20.467,20.3,32.59,28.645c21.652,14.908,37.551,25.718,49.709,52.59c1.686,3.727,13.533,22.851,7.203,30.257
		c-3.059,3.58-12.711,1.757-18.73,2.162c-6.574,0.44-19,2.62-20.891,6.483c-1.453,2.968-0.666,12.17-1.441,18.011
		c-2.217,16.678-6.227,33.539-10.807,47.547c-8.223,25.163-18.793,47.939-33.139,66.998c-14.057,18.673-29.719,34.596-48.268,51.149
		c-35.502,31.686-70.625,66.369-75.643,123.911c-0.81,9.29,0.206,20.617,1.441,29.537c1.038,7.491,2.296,21.148,6.482,24.493
		c1.958,1.565,10.061,2.197,14.409,3.603c13.896,4.492,24.836,12.54,35.301,18.73c21.262,12.577,45.076,23.065,72.762,30.257
		c8.229,2.139,23.492,2.757,25.213,8.646c4.039,13.807-27.131,18.326-36.74,20.172c-34.354,6.597-65.219,2.801-95.814-4.322
		c-4.248-0.989-8.508-3.713-10.807-3.603c-4.952,0.237-13.055,6.198-18.011,7.925c-16.502,5.748-41.293,6.711-62.676,2.162
		c-11.902-2.534-22.72-8.424-33.139-10.807c-3.42-0.783-13.102,0.867-15.129-2.162c-2.643-3.948,4.381-12.776,5.763-14.407
		c9.1-10.745,14.671-11.653,27.376-19.451c3.327-2.044,15.555-9.536,15.85-11.527c0.381-2.58-6.799-7.709-10.806-12.246
		c-11.292-12.788-19.111-27.349-27.376-41.064c-22.743-37.744-41.577-81.055-39.623-143.361c0.637-20.3,2.6-40.651,7.205-61.236
		c0.885-3.959,5.26-16.606,4.322-18.01c-0.333-0.496-7.048-2.597-12.247-2.161c-8.475,0.708-14.003,6.64-22.333,5.042
		c-12.428-2.383-26.371-29.164-27.376-44.665c-0.65-9.999,3.847-15.53,7.925-20.171c1.945-2.215,7.352-5.227,8.645-7.924
		c2.363-4.934,0.994-11.388,2.881-14.408c1.868-2.988,5.919-7.323,12.248-4.323c3.317,1.572,2.647,9.296,4.322,12.967
		c3.336,7.307,14.755,15.77,25.214,18.01c8.243,1.766,24.394,3.561,30.258,1.441c4.936-1.784,8.115-9.425,11.526-13.688
		C209.642,351.346,213.568,349.049,217.046,343.53L217.046,343.53z M304.936,48.161c5.725-2.813,11.359-14.675,20.172-5.764
		c1.848,0.411,1.379,2.641,3.602,3.603c3.275,1.417,8.576-0.41,10.807,0.72c3.252,1.648,8.27,13.854,5.764,19.452
		c-3.654,8.161-18.693-2.843-25.215,0.721c-9.904,5.411-19.917,31.41-24.495,44.666c-1.227,3.552-3.591,17.422-5.042,18.01
		c-3.605,1.459-7.599-10.535-7.925-11.526c-1.838-5.615-2.722-9.638-2.881-15.849c-0.201-7.841,4.943-28.752,0.721-30.978
		c-2.168-1.143-8.871,8.437-10.087,8.645c-4.023,0.689-8.042-0.728-8.645-5.042c-1.217-8.728,8.393-5.879,6.484-10.086
		c-3.33-7.335-25.151,9.213-27.376,9.366c-6.074,0.416-11.091-3.242-9.366-9.366c3.286-11.66,31.174-17.637,45.386-12.967
		c2.611,0.857,9.715,4.511,11.526,3.602c3.334-1.674,2.407-7.301,1.441-8.646c-4.471-6.221-11.202,2.177-18.73-0.72
		c-0.581-0.223-4.384-4.486-4.322-7.205c0.202-8.998,20.25-12.04,27.375-9.365C300.35,31.765,302.513,37.851,304.936,48.161
		L304.936,48.161z M264.593,118.761c-1.205-9.769,21.651,1.165,13.688,7.205C274.687,128.69,264.728,119.86,264.593,118.761
		L264.593,118.761z M273.958,112.277c-5.1-2.675-7.576-3.129-13.688-3.602c-6.08-0.472-10.077,3.893-12.967,3.602
		c-7.787-0.786-8.49-12.405,2.161-12.968C257.323,98.895,270.735,105.03,273.958,112.277L273.958,112.277z M306.376,106.514
		c2.004-3.25,1.698-7.322,5.762-10.086c4.006-2.723,13.596-3.77,13.689,1.441c0.078,4.396-5.896,2.894-10.086,4.323
		C311.01,103.805,309.674,107.482,306.376,106.514L306.376,106.514z"/>
	<path fill-rule="evenodd" clip-rule="evenodd" fill="#B4D7F2" d="M126.273,363.701c-2.994-5.836-2.624-21.33,3.603-20.892
		c3.371,0.238,3.092,6.111,4.322,8.645c8.441,17.383,29.812,26.427,57.634,23.054c-5.239,10.119-13.366,19.988-18.732,33.139
		c-1.165,2.857-3.774,11.607-5.043,12.246c-2.918,1.472-12.253-0.373-14.408-2.161c-6.804-5.647-9.288-42.423-17.289-46.826
		c-3.804-2.091-15.729-0.208-15.129,4.323c0.503,3.809,5.931-2.637,8.645-2.161c4.733,0.831,18.375,41.793,17.289,44.665
		c-0.866,2.292-12.111,6.759-15.129,6.484c-9.827-0.895-27.386-33.241-22.333-48.268
		C111.921,369.357,119.648,363.909,126.273,363.701L126.273,363.701z"/>
	<path fill-rule="evenodd" clip-rule="evenodd" fill="#E4E5E6" d="M299.173,470.322c-6.396,11.467-14.011,21.301-19.451,33.139
		c-5.145,11.195-10.906,24.828-12.967,38.902c-4.997,34.114,3.9,72.239,14.407,97.255c3.769,8.974,8.891,16.073,12.967,24.495
		c4.127,8.522,6.589,17.133,10.806,25.214c11.701,22.421,25.379,39.598,41.064,58.354c0.424,0.51,4.162,2.976,1.441,4.322
		c-62.98-11.167-111.302-45.171-144.083-97.975c-31.145-50.171-54.324-120.079-40.343-193.792
		c5.521-29.112,20.981-62.519,36.021-85.008c9.842-14.719,24.663-30.159,42.503-37.461c17.374-7.112,47.837-3.121,41.785-31.698
		c-5.089,2.985-3.273,9.395-5.043,12.247c-1.555,2.504-8.543,6.685-11.526,7.924c-8.082,3.357-21.66,5.591-35.301,7.925
		c-12.989,2.221-27.171,4.988-36.74,5.763c-25.613,2.073-44.354-4.678-59.795-15.849c-2.529-1.83-16.812-11.514-9.365-17.29
		c3.728-2.892,12.242,8.182,15.129,10.085c24.968,16.466,79.095,8.815,110.222-2.161c4.25-1.499,22.498-6.855,23.773-9.365
		c1.511-2.972-0.447-14.329-0.72-21.612c-0.151-4.033,0.28-18.392-2.162-20.171c-2.44-1.779-16.191,3.652-20.892,5.042
		c-20.458,6.051-38.404,11.243-64.116,12.967c-22.468,1.506-64.064-0.479-74.204-13.688c-4.177-5.441,3.993-19.47,9.366-25.215
		c18.885-20.191,55.761-20.491,83.568-5.763c5.952,3.152,11.532,7.221,17.291,10.806c5.609,3.492,11.095,8.413,16.57,10.806
		c13.225,5.781,30.667,5.246,41.783-0.72c2.769-1.485,7.509-4.628,9.366-7.204c3.915-0.364,16.136,9.144,19.451,12.247
		c18.391,17.225,31.564,42.015,39.623,70.601c1.594,5.653,5.975,18.435,2.883,23.054c-2.67,3.983-9.047,2.209-11.527,5.763
		c-6.047,8.661,2.873,39.614-13.689,45.386c-11.943,4.163-18.561-6.128-20.17-16.569c-0.475-3.081,1.551-18.597-7.206-19.451
		c-4.684-0.458-9.709,5.002-12.246,10.085c-1.579,3.163-1.168,8.177-2.882,10.806c-2.08,3.189-8.243,3.966-11.527,7.923
		c-7.79,9.387-9.997,47.129-0.72,59.074C278.231,466.872,287.158,467.25,299.173,470.322L299.173,470.322z"/>
	<path fill-rule="evenodd" clip-rule="evenodd" fill="#FFFFFF" d="M128.435,288.058c0.021-0.15-1.252-1.809-0.721-2.881
		c1.49-3.011,15.708,0.587,16.569,0.72c38.54,5.93,76.991-0.788,105.901-10.807c0.003-0.001,14.525-6.375,15.849-5.763
		c2.377,1.101,6.631,24.037,3.603,30.979c-1.62,3.709-16.999,8.388-23.054,10.085c-8.851,2.48-19.713,4.984-25.935,6.483
		c-18.071,4.355-47.699,7.966-64.836,1.441c-4.127-1.571-10.176-4.726-14.409-7.924C134.34,305.053,126.748,300.235,128.435,288.058
		L128.435,288.058z M229.293,302.467c0.425,3.657-0.259,8.423,2.882,9.365c4.076-14.895,24.596-13.345,30.977-25.935
		c-4.853-1.902-16.263,6.053-20.892,3.602c-2.738-1.449-0.194-9.667-5.044-8.645c-1.89,0.398-3.158,9.629-4.322,10.807
		c-2.132,2.159-9.77,4.388-15.128,5.763c-14.603,3.748-32.132,4.777-48.987,3.603c-10.349-0.722-21.496-4.715-26.655-3.603
		C164.354,307.609,200.567,304.229,229.293,302.467L229.293,302.467z"/>
	<path fill-rule="evenodd" clip-rule="evenodd" fill="#00678F" d="M167.337,192.243c23.525-34.403,69.161-52.873,110.223-54.031
		c26.882-0.759,57.55,11.341,78.526,23.053c15.1,8.431,31.748,18.188,45.387,30.978c9.518,8.928,25.543,27.81,32.416,39.623
		c12.479,21.43,23.715,46.176,23.773,78.525c0.043,22.338-5.473,42.114-10.084,59.794c-2.092,8.017-2.859,15.938-5.043,23.053
		c-10.211,33.246-31.809,62.005-54.031,84.287c-13.623,13.66-30.916,23.544-43.945,38.184
		c-26.533,29.809-49.946,60.395-55.471,108.062c-16.442-36.748-1.677-72.537,15.848-101.579
		c11.086-18.37,23.664-35.265,36.742-46.826c8.811-7.792,14.562-9.651,24.492-14.409c6.094-2.918,13.408-7.444,16.57-13.688
		c2.188-4.315,1.354-9.243,2.881-13.688c3.578-10.396,11.553-18.153,15.852-27.376c8.953-19.218,17.156-46.145,10.805-74.922
		c-3.807-17.243-9.596-36.819-19.451-51.87c-15.82-24.157-45.303-57.468-71.32-69.159c11.387-0.469,25.883-1.749,32.418,3.602
		c3.848,3.151,4.682,14.357,10.086,12.967c3.682-0.946,3.383-13.84,0.721-18.01c-2.266-3.549-14.16-7.076-21.611-9.365
		C297.606,185.469,216.616,187.423,167.337,192.243L167.337,192.243z M298.453,143.255c-6.348-1.167-16.836-1.801-22.333-1.441
		C277.349,148.686,296.253,150.085,298.453,143.255L298.453,143.255z"/>
	<path fill-rule="evenodd" clip-rule="evenodd" fill="#E4E5E6" d="M193.272,741.918c4.453-9.858,15.422-15.047,26.655-20.893
		c5.224-2.719,14.262-9.359,16.569-9.365c3.09-0.008,11.071,7.308,14.408,9.365c14.876,9.171,30.628,18.22,46.106,24.495
		C269.081,765.734,223.029,749.457,193.272,741.918L193.272,741.918z"/>
	<path fill-rule="evenodd" clip-rule="evenodd" fill="#FFFFFF" d="M202.637,228.984c2.701-2.596,11.747-20.697,16.569-23.054
		c3.284-1.604,8.197-1.346,12.968-0.72C223.584,213.841,218.654,232.42,202.637,228.984L202.637,228.984z"/>
	<path fill-rule="evenodd" clip-rule="evenodd" fill="#FFFFFF" d="M219.207,300.306c6.771-4.035,17.991-3.623,18.731-13.688
		c0.905,7.323,8.422,5.618,15.129,4.323c-5.705,5.103-16.127,5.486-19.451,12.967C233.642,296.779,224.561,300.557,219.207,300.306
		L219.207,300.306z"/>
	<path fill-rule="evenodd" clip-rule="evenodd" fill="#FFFFFF" d="M221.368,238.349c2.515-5.103,17.206-27.422,21.611-29.537
		c5.579-2.675,12.946-1.632,21.613-1.441c-5.168,3.285-7.138,7.189-11.526,12.248C244.438,229.563,241.696,239.47,221.368,238.349
		L221.368,238.349z"/>
	<path fill-rule="evenodd" clip-rule="evenodd" fill="#B4D7F2" d="M322.945,46c0.703,4.544-4.303,3.38-4.322,7.204
		c7.941,2.953,7.822-4.556,15.852-3.602c4.068,0.484,12.117,13.627,5.762,16.569c-2.732,1.265-10.73-5.037-16.57-4.323
		c-19.27,2.357-24.674,39.171-33.138,51.87c-0.248-14.178,6.833-27.264,10.807-39.623c-4.627,2.097-4.822,8.625-7.205,12.968
		c-2.045-4.998,9.24-21.52-4.322-17.29c6.933,2.687-1.125,20.458-2.161,35.3c-0.301,4.296-0.196,6.575-0.721,10.085
		c-8.466-9.925,7.414-46.402-7.925-47.547c-7.884-0.588-3.546,7.556-12.246,7.204c-0.339-7.527,6.971-5.147,5.763-10.806
		c-1.054-4.935-5.671-3.91-10.087-3.603c-7.957,0.554-12.426,7.383-19.451,8.646c-2.615,0.47-11.293-1.394-7.923-5.043
		c5.924-6.42,22.458-12.882,36.021-10.806c3.639,0.557,14.775,9.293,20.892,5.042c2.855-1.985,3.377-12.804,0.72-15.849
		c-3.018-3.459-9.058-2.453-11.526-2.161c-0.812,0.095-5.02,3.4-7.204,2.161c-9.883-5.607,13.402-11.516,19.451-8.645
		c2.542,1.207,4.565,6.013,5.763,9.365c0.978,2.736,1.366,10.156,2.881,10.806C309.281,57.022,315.832,39.593,322.945,46L322.945,46
		z M314.301,56.805c-1.896-8.872-17.762,1.727-12.247,7.205C303.744,65.689,315.031,60.224,314.301,56.805L314.301,56.805z"/>
	<path fill-rule="evenodd" clip-rule="evenodd" fill="#B4D7F2" d="M260.99,105.073c-3.384-1.212-13.599,4.603-15.127,2.881
		C239.716,101.039,256.329,101.203,260.99,105.073L260.99,105.073z"/>
	<path fill-rule="evenodd" clip-rule="evenodd" fill="#B4D7F2" d="M267.475,118.761c2.913-1.687,8.119,0.506,7.925,4.323
		C272.79,121.61,270.917,119.401,267.475,118.761L267.475,118.761z"/>
	<path fill-rule="evenodd" clip-rule="evenodd" fill="#B4D7F2" d="M340.236,468.16c-0.814,1.832-1.287,3.308-2.162,4.323
		c-19.172,22.25-44.131,49.94-54.75,81.406c-9.763,28.927-4.038,62.463,5.042,89.331c-6.82-13.368-14.704-34.749-16.57-54.03
		c-1.175-12.156-2.639-27.843-1.44-41.783c1.807-21.004,12.839-44.874,23.773-60.516c3.437-4.916,10.504-14.261,12.968-15.129
		C317.223,471.723,328.041,471.788,340.236,468.16L340.236,468.16z"/>
	<path fill-rule="evenodd" clip-rule="evenodd" fill="#B4D7F2" d="M283.324,406.205c4.703,1.853,8.634,5.614,12.246,2.882
		c1.583-1.197-5.974-12.818-5.042-20.171c0.229-1.802,6.512-14.961,10.807-12.247c2.475,1.564,1.001,11.656,1.441,15.129
		c1.177,9.307,8.387,26.592,24.492,22.332c9.754-2.58,15.17-13.886,16.57-25.214c1.23-9.952-2.805-22.734,4.322-26.655
		c3.094-1.703,14.938-0.916,19.451,2.161c9.705,6.616,12.092,27.485,12.969,40.342c0.807,11.822-1.654,33.284-5.043,39.623
		c-7.637,14.287-43.602,22.559-68.439,20.892c-7.065-0.474-24.657-2.754-28.059-5.763c-5.931-5.244-7.405-21.477-7.243-32.418
		c0.068-4.522,0.683-14.639,2.162-18.73c0.447-1.239,11.148-13.848,13.688-6.484C289.007,405.827,284.461,403.44,283.324,406.205
		L283.324,406.205z"/>
	<path fill-rule="evenodd" clip-rule="evenodd" fill="#B4D7F2" d="M387.062,419.893c2.375-30.737-1.812-59.778-28.816-63.395
		c-4.375-47.644-31.109-87.49-63.396-110.223c5.124-5.969,5.321-30.871,5.763-31.698c2.246-4.204,10.578-3.172,18.01,0
		c28.375,12.109,46.035,32.484,62.676,56.192c13.6,19.374,26.32,47.655,28.818,78.524
		C412.715,381.405,400.283,401.473,387.062,419.893L387.062,419.893z"/>
	<path fill-rule="evenodd" clip-rule="evenodd" fill="#FFFFFF" d="M304.936,61.848c-2.469-2.954,3.064-7.18,5.764-5.043
		C309.973,59.682,306.379,59.689,304.936,61.848L304.936,61.848z"/>
	<path fill-rule="evenodd" clip-rule="evenodd" fill="#E4E5E6" d="M444.695,740.477c-17.176,8.947-46.291,11.716-70.6,10.086
		c-5.26-0.352-13.299-0.757-18.01-2.882c-6.631-2.99-15.504-17.549-23.055-27.376c-9.018-11.737-18.01-24.153-20.17-33.138
		c24.26,4.951,41.922,20.896,62.676,30.256C396.818,727.022,418.264,734.901,444.695,740.477L444.695,740.477z"/>
	<path fill-rule="evenodd" clip-rule="evenodd" fill="#B4D7F2" d="M312.861,100.75c1.137-2.359,8.486-7.108,10.084-2.162
		C319.979,99.704,315.5,99.308,312.861,100.75L312.861,100.75z"/>
	<path fill-rule="evenodd" clip-rule="evenodd" fill="#00678F" d="M440.373,228.984c-0.264-1.226,0.562-1.359,1.441-1.441
		c20.484,13.173,47.73,31.536,57.633,60.515c1.035,3.029,4.199,11.742,2.883,13.688c-1.766,2.606-12.215,1.101-17.291,1.441
		c-8.244,0.552-15.496,3.435-20.17,3.602C463.24,274.317,452.988,250.469,440.373,228.984L440.373,228.984z"/>
</g>
</svg>
